<svg width="40" height="40" viewBox="0 0 40 40" fill="none" xmlns="http://www.w3.org/2000/svg">
<g clip-path="url(#clip0_674_174)">
<rect opacity="0.15" width="40" height="40" rx="12" fill="#FE9673"/>
<path d="M17.2762 10.0668C17.3158 9.932 17.398 9.8137 17.5105 9.72957C17.623 9.64544 17.7597 9.60002 17.9001 9.6001H23.0998C23.2027 9.60018 23.3042 9.6247 23.3958 9.67165C23.4874 9.7186 23.5665 9.78664 23.6267 9.87016C23.6868 9.95367 23.7263 10.0503 23.7418 10.152C23.7574 10.2538 23.7485 10.3578 23.716 10.4554L21.4021 17.3996H26.3496C26.4713 17.3995 26.5906 17.4336 26.6939 17.498C26.7972 17.5624 26.8803 17.6545 26.9338 17.7638C26.9873 17.8731 27.0091 17.9953 26.9966 18.1164C26.984 18.2374 26.9378 18.3526 26.8631 18.4486L17.7636 30.1479C17.6704 30.2683 17.5379 30.3522 17.3891 30.3849C17.2404 30.4175 17.0849 30.397 16.9498 30.3267C16.8147 30.2564 16.7085 30.1409 16.6499 30.0004C16.5912 29.8599 16.5837 29.7032 16.6288 29.5577L18.97 21.9493H14.6503C14.5493 21.9494 14.4496 21.9259 14.3592 21.8807C14.2689 21.8355 14.1903 21.7698 14.1297 21.6889C14.0691 21.6081 14.0283 21.5142 14.0103 21.4147C13.9924 21.3153 13.9979 21.213 14.0264 21.1161L17.2762 10.0668Z" fill="#FE9673"/>
</g>
<defs>
<clipPath id="clip0_674_174">
<rect width="40" height="40" fill="white"/>
</clipPath>
</defs>
</svg>
