<svg width="110" height="30" viewBox="0 0 110 30" fill="none" xmlns="http://www.w3.org/2000/svg">
<rect width="110" height="30" rx="15" fill="#09AF8E"/>
<path d="M6.795 12.5H8.25V16.505C8.25 17.175 8.43 17.715 8.79 18.125C9.14 18.525 9.59 18.725 10.14 18.725C10.67 18.725 11.11 18.525 11.46 18.125C11.82 17.715 12 17.175 12 16.505V12.5H13.455V16.46C13.455 17.56 13.135 18.455 12.495 19.145C11.845 19.835 11.06 20.18 10.14 20.18C9.2 20.18 8.405 19.835 7.755 19.145C7.115 18.455 6.795 17.56 6.795 16.46V12.5ZM16.6321 12.5V13.52C16.6721 13.46 16.7121 13.405 16.7521 13.355C16.8021 13.305 16.8471 13.26 16.8871 13.22C17.4371 12.62 18.1671 12.32 19.0771 12.32C20.1471 12.32 21.0321 12.7 21.7321 13.46C22.4321 14.22 22.7821 15.15 22.7821 16.25C22.7821 17.34 22.4321 18.27 21.7321 19.04C21.0321 19.8 20.1471 20.18 19.0771 20.18C18.1971 20.18 17.4871 19.89 16.9471 19.31C16.9171 19.27 16.8821 19.23 16.8421 19.19C16.8121 19.14 16.7821 19.095 16.7521 19.055V23H15.2971V12.5H16.6321ZM19.0021 18.74C19.6821 18.74 20.2371 18.5 20.6671 18.02C21.0971 17.54 21.3121 16.95 21.3121 16.25C21.3121 15.55 21.0971 14.96 20.6671 14.48C20.2371 14 19.6821 13.76 19.0021 13.76C18.3221 13.76 17.7771 14 17.3671 14.48C16.9571 14.96 16.7521 15.55 16.7521 16.25C16.7521 16.95 16.9571 17.54 17.3671 18.02C17.7771 18.5 18.3221 18.74 19.0021 18.74ZM28.4916 10.16H29.9466V12.5H32.1066V13.94H29.9466V16.835C29.9466 17.315 30.1116 17.72 30.4416 18.05C30.7716 18.38 31.1766 18.545 31.6566 18.545H32.0916V20H31.6566C30.7866 20 30.0416 19.69 29.4216 19.07C28.8016 18.45 28.4916 17.705 28.4916 16.835V13.94H27.2316V12.5H28.4916V10.16ZM36.7601 13.775C36.0801 13.775 35.5251 14.01 35.0951 14.48C34.8851 14.72 34.7251 14.99 34.6151 15.29C34.5051 15.58 34.4501 15.9 34.4501 16.25C34.4501 16.94 34.6651 17.53 35.0951 18.02C35.5251 18.49 36.0801 18.725 36.7601 18.725C37.4401 18.725 37.9951 18.49 38.4251 18.02C38.6451 17.78 38.8051 17.515 38.9051 17.225C39.0151 16.925 39.0701 16.6 39.0701 16.25C39.0701 15.55 38.8551 14.96 38.4251 14.48C37.9951 14.01 37.4401 13.775 36.7601 13.775ZM36.7601 12.32C37.8301 12.32 38.7251 12.7 39.4451 13.46C40.1551 14.22 40.5101 15.15 40.5101 16.25C40.5101 17.34 40.1551 18.27 39.4451 19.04C38.7251 19.8 37.8301 20.18 36.7601 20.18C35.6901 20.18 34.7951 19.8 34.0751 19.04C33.3651 18.27 33.0101 17.34 33.0101 16.25C33.0101 15.15 33.3651 14.22 34.0751 13.46C34.7951 12.7 35.6901 12.32 36.7601 12.32ZM48.6612 14.9C49.2512 14.9 49.7412 14.7 50.1312 14.3C50.5312 13.91 50.7312 13.425 50.7312 12.845C50.7312 12.255 50.5312 11.765 50.1312 11.375C49.7412 10.975 49.2512 10.775 48.6612 10.775C48.0812 10.775 47.5962 10.975 47.2062 11.375C46.8062 11.765 46.6062 12.255 46.6062 12.845C46.6062 13.425 46.8062 13.91 47.2062 14.3C47.5962 14.7 48.0812 14.9 48.6612 14.9ZM48.4962 20H46.8162L49.1412 16.175C49.0012 16.215 48.8562 16.245 48.7062 16.265C48.5662 16.275 48.4312 16.275 48.3012 16.265C47.4412 16.205 46.7112 15.86 46.1112 15.23C45.4712 14.58 45.1512 13.785 45.1512 12.845C45.1512 12.365 45.2362 11.915 45.4062 11.495C45.5762 11.065 45.8362 10.685 46.1862 10.355C46.8662 9.665 47.6912 9.32 48.6612 9.32C49.6412 9.32 50.4712 9.665 51.1512 10.355C51.8412 11.025 52.1862 11.855 52.1862 12.845C52.1862 13.475 52.0312 14.055 51.7212 14.585L48.4962 20ZM57.5718 10.775C57.3418 10.775 57.1218 10.805 56.9118 10.865C56.7118 10.915 56.5218 11 56.3418 11.12C56.1718 11.23 56.0118 11.365 55.8618 11.525C55.7218 11.675 55.5968 11.845 55.4868 12.035C55.3868 12.235 55.2968 12.44 55.2168 12.65C55.1468 12.86 55.0868 13.08 55.0368 13.31C54.9868 13.54 54.9468 13.775 54.9168 14.015C54.8868 14.245 54.8718 14.49 54.8718 14.75C54.8718 15 54.8868 15.245 54.9168 15.485C54.9468 15.725 54.9868 15.96 55.0368 16.19C55.0868 16.42 55.1468 16.64 55.2168 16.85C55.2968 17.06 55.3868 17.265 55.4868 17.465C55.5968 17.655 55.7218 17.825 55.8618 17.975C56.0118 18.125 56.1718 18.26 56.3418 18.38C56.7018 18.61 57.1118 18.725 57.5718 18.725C57.8118 18.725 58.0318 18.7 58.2318 18.65C58.4418 18.59 58.6318 18.5 58.8018 18.38C58.9818 18.26 59.1418 18.125 59.2818 17.975C59.4318 17.825 59.5568 17.655 59.6568 17.465C59.7668 17.265 59.8618 17.06 59.9418 16.85C60.0218 16.64 60.0868 16.42 60.1368 16.19C60.1868 15.96 60.2218 15.725 60.2418 15.485C60.2618 15.245 60.2718 15 60.2718 14.75C60.2718 14.49 60.2618 14.245 60.2418 14.015C60.2218 13.775 60.1868 13.54 60.1368 13.31C60.0868 13.08 60.0218 12.86 59.9418 12.65C59.8618 12.44 59.7668 12.235 59.6568 12.035C59.5568 11.845 59.4318 11.675 59.2818 11.525C59.1418 11.365 58.9818 11.23 58.8018 11.12C58.4518 10.89 58.0418 10.775 57.5718 10.775ZM57.5718 9.32C58.3718 9.32 59.0768 9.55 59.6868 10.01C60.0768 10.28 60.4068 10.61 60.6768 11C60.9568 11.38 61.1818 11.82 61.3518 12.32C61.4718 12.7 61.5618 13.095 61.6218 13.505C61.6918 13.905 61.7268 14.32 61.7268 14.75C61.7268 15.18 61.6918 15.6 61.6218 16.01C61.5618 16.41 61.4718 16.8 61.3518 17.18C61.1818 17.68 60.9568 18.125 60.6768 18.515C60.4068 18.895 60.0768 19.22 59.6868 19.49C59.0768 19.95 58.3718 20.18 57.5718 20.18C56.7718 20.18 56.0668 19.95 55.4568 19.49C55.0768 19.22 54.7468 18.895 54.4668 18.515C54.1968 18.125 53.9818 17.68 53.8218 17.18C53.6918 16.8 53.5918 16.41 53.5218 16.01C53.4618 15.6 53.4318 15.18 53.4318 14.75C53.4318 14.32 53.4618 13.905 53.5218 13.505C53.5918 13.095 53.6918 12.7 53.8218 12.32C53.9818 11.82 54.1968 11.38 54.4668 11C54.7468 10.61 55.0768 10.28 55.4568 10.01C56.0668 9.55 56.7718 9.32 57.5718 9.32ZM72.3579 15.125C73.0579 15.125 73.6579 15.37 74.1579 15.86C74.6479 16.36 74.8929 16.955 74.8929 17.645C74.8929 18.345 74.6479 18.94 74.1579 19.43C73.6579 19.93 73.0579 20.18 72.3579 20.18C71.6679 20.18 71.0729 19.93 70.5729 19.43C70.0729 18.93 69.8229 18.335 69.8229 17.645C69.8229 17.305 69.8879 16.985 70.0179 16.685C70.1479 16.385 70.3329 16.11 70.5729 15.86C71.0729 15.37 71.6679 15.125 72.3579 15.125ZM72.3579 16.565C72.0679 16.565 71.8129 16.675 71.5929 16.895C71.3829 17.105 71.2779 17.355 71.2779 17.645C71.2779 17.945 71.3829 18.2 71.5929 18.41C71.8129 18.62 72.0679 18.725 72.3579 18.725C72.6479 18.725 72.9029 18.62 73.1229 18.41C73.3329 18.2 73.4379 17.945 73.4379 17.645C73.4379 17.355 73.3329 17.105 73.1229 16.895C72.9029 16.675 72.6479 16.565 72.3579 16.565ZM71.7429 9.5L72.9279 10.325L66.1629 20L64.9779 19.175L71.7429 9.5ZM65.5479 9.32C66.2379 9.32 66.8329 9.565 67.3329 10.055C67.8229 10.555 68.0679 11.155 68.0679 11.855C68.0679 12.195 68.0029 12.52 67.8729 12.83C67.7529 13.13 67.5729 13.4 67.3329 13.64C66.8329 14.13 66.2379 14.375 65.5479 14.375C64.8479 14.375 64.2529 14.13 63.7629 13.64C63.2629 13.14 63.0129 12.545 63.0129 11.855C63.0129 11.155 63.2629 10.555 63.7629 10.055C64.2529 9.565 64.8479 9.32 65.5479 9.32ZM65.5479 10.775C65.2479 10.775 64.9929 10.875 64.7829 11.075C64.5729 11.295 64.4679 11.555 64.4679 11.855C64.4679 12.155 64.5729 12.41 64.7829 12.62C64.9929 12.83 65.2479 12.935 65.5479 12.935C65.8479 12.935 66.0979 12.83 66.2979 12.62C66.5179 12.41 66.6279 12.155 66.6279 11.855C66.6279 11.555 66.5179 11.295 66.2979 11.075C66.0979 10.875 65.8479 10.775 65.5479 10.775ZM80.5032 20V9.5H81.9432V18.545H86.8932V20H80.5032ZM86.0726 9.5H94.1876V10.955H90.8576V20H89.4026V10.955H86.0726V9.5ZM94.4944 9.5H96.0394L99.1594 17.885L102.264 9.5H103.809L99.9244 20H98.3944L94.4944 9.5Z" fill="white"/>
</svg>
