<svg width="91" height="27" viewBox="0 0 91 27" fill="none" xmlns="http://www.w3.org/2000/svg">
<rect width="91" height="27" rx="13.5" fill="#09AF8E"/>
<path d="M6.636 12H7.8V15.204C7.8 15.74 7.944 16.172 8.232 16.5C8.512 16.82 8.872 16.98 9.312 16.98C9.736 16.98 10.088 16.82 10.368 16.5C10.656 16.172 10.8 15.74 10.8 15.204V12H11.964V15.168C11.964 16.048 11.708 16.764 11.196 17.316C10.676 17.868 10.048 18.144 9.312 18.144C8.56 18.144 7.924 17.868 7.404 17.316C6.892 16.764 6.636 16.048 6.636 15.168V12ZM14.5057 12V12.816C14.5377 12.768 14.5697 12.724 14.6017 12.684C14.6417 12.644 14.6777 12.608 14.7097 12.576C15.1497 12.096 15.7337 11.856 16.4617 11.856C17.3177 11.856 18.0257 12.16 18.5857 12.768C19.1457 13.376 19.4257 14.12 19.4257 15C19.4257 15.872 19.1457 16.616 18.5857 17.232C18.0257 17.84 17.3177 18.144 16.4617 18.144C15.7577 18.144 15.1897 17.912 14.7577 17.448C14.7337 17.416 14.7057 17.384 14.6737 17.352C14.6497 17.312 14.6257 17.276 14.6017 17.244V20.4H13.4377V12H14.5057ZM16.4017 16.992C16.9457 16.992 17.3897 16.8 17.7337 16.416C18.0777 16.032 18.2497 15.56 18.2497 15C18.2497 14.44 18.0777 13.968 17.7337 13.584C17.3897 13.2 16.9457 13.008 16.4017 13.008C15.8577 13.008 15.4217 13.2 15.0937 13.584C14.7657 13.968 14.6017 14.44 14.6017 15C14.6017 15.56 14.7657 16.032 15.0937 16.416C15.4217 16.8 15.8577 16.992 16.4017 16.992ZM23.9933 10.128H25.1573V12H26.8853V13.152H25.1573V15.468C25.1573 15.852 25.2893 16.176 25.5533 16.44C25.8173 16.704 26.1413 16.836 26.5253 16.836H26.8733V18H26.5253C25.8293 18 25.2333 17.752 24.7373 17.256C24.2413 16.76 23.9933 16.164 23.9933 15.468V13.152H22.9853V12H23.9933V10.128ZM30.6081 13.02C30.0641 13.02 29.6201 13.208 29.2761 13.584C29.1081 13.776 28.9801 13.992 28.8921 14.232C28.8041 14.464 28.7601 14.72 28.7601 15C28.7601 15.552 28.9321 16.024 29.2761 16.416C29.6201 16.792 30.0641 16.98 30.6081 16.98C31.1521 16.98 31.5961 16.792 31.9401 16.416C32.1161 16.224 32.2441 16.012 32.3241 15.78C32.4121 15.54 32.4561 15.28 32.4561 15C32.4561 14.44 32.2841 13.968 31.9401 13.584C31.5961 13.208 31.1521 13.02 30.6081 13.02ZM30.6081 11.856C31.4641 11.856 32.1801 12.16 32.7561 12.768C33.3241 13.376 33.6081 14.12 33.6081 15C33.6081 15.872 33.3241 16.616 32.7561 17.232C32.1801 17.84 31.4641 18.144 30.6081 18.144C29.7521 18.144 29.0361 17.84 28.4601 17.232C27.8921 16.616 27.6081 15.872 27.6081 15C27.6081 14.12 27.8921 13.376 28.4601 12.768C29.0361 12.16 29.7521 11.856 30.6081 11.856ZM40.1289 13.92C40.6009 13.92 40.9929 13.76 41.3049 13.44C41.6249 13.128 41.7849 12.74 41.7849 12.276C41.7849 11.804 41.6249 11.412 41.3049 11.1C40.9929 10.78 40.6009 10.62 40.1289 10.62C39.6649 10.62 39.2769 10.78 38.9649 11.1C38.6449 11.412 38.4849 11.804 38.4849 12.276C38.4849 12.74 38.6449 13.128 38.9649 13.44C39.2769 13.76 39.6649 13.92 40.1289 13.92ZM39.9969 18H38.6529L40.5129 14.94C40.4009 14.972 40.2849 14.996 40.1649 15.012C40.0529 15.02 39.9449 15.02 39.8409 15.012C39.1529 14.964 38.5689 14.688 38.0889 14.184C37.5769 13.664 37.3209 13.028 37.3209 12.276C37.3209 11.892 37.3889 11.532 37.5249 11.196C37.6609 10.852 37.8689 10.548 38.1489 10.284C38.6929 9.732 39.3529 9.456 40.1289 9.456C40.9129 9.456 41.5769 9.732 42.1209 10.284C42.6729 10.82 42.9489 11.484 42.9489 12.276C42.9489 12.78 42.8249 13.244 42.5769 13.668L39.9969 18ZM47.2574 10.62C47.0734 10.62 46.8974 10.644 46.7294 10.692C46.5694 10.732 46.4174 10.8 46.2734 10.896C46.1374 10.984 46.0094 11.092 45.8894 11.22C45.7774 11.34 45.6774 11.476 45.5894 11.628C45.5094 11.788 45.4374 11.952 45.3734 12.12C45.3174 12.288 45.2694 12.464 45.2294 12.648C45.1894 12.832 45.1574 13.02 45.1334 13.212C45.1094 13.396 45.0974 13.592 45.0974 13.8C45.0974 14 45.1094 14.196 45.1334 14.388C45.1574 14.58 45.1894 14.768 45.2294 14.952C45.2694 15.136 45.3174 15.312 45.3734 15.48C45.4374 15.648 45.5094 15.812 45.5894 15.972C45.6774 16.124 45.7774 16.26 45.8894 16.38C46.0094 16.5 46.1374 16.608 46.2734 16.704C46.5614 16.888 46.8894 16.98 47.2574 16.98C47.4494 16.98 47.6254 16.96 47.7854 16.92C47.9534 16.872 48.1054 16.8 48.2414 16.704C48.3854 16.608 48.5134 16.5 48.6254 16.38C48.7454 16.26 48.8454 16.124 48.9254 15.972C49.0134 15.812 49.0894 15.648 49.1534 15.48C49.2174 15.312 49.2694 15.136 49.3094 14.952C49.3494 14.768 49.3774 14.58 49.3934 14.388C49.4094 14.196 49.4174 14 49.4174 13.8C49.4174 13.592 49.4094 13.396 49.3934 13.212C49.3774 13.02 49.3494 12.832 49.3094 12.648C49.2694 12.464 49.2174 12.288 49.1534 12.12C49.0894 11.952 49.0134 11.788 48.9254 11.628C48.8454 11.476 48.7454 11.34 48.6254 11.22C48.5134 11.092 48.3854 10.984 48.2414 10.896C47.9614 10.712 47.6334 10.62 47.2574 10.62ZM47.2574 9.456C47.8974 9.456 48.4614 9.64 48.9494 10.008C49.2614 10.224 49.5254 10.488 49.7414 10.8C49.9654 11.104 50.1454 11.456 50.2814 11.856C50.3774 12.16 50.4494 12.476 50.4974 12.804C50.5534 13.124 50.5814 13.456 50.5814 13.8C50.5814 14.144 50.5534 14.48 50.4974 14.808C50.4494 15.128 50.3774 15.44 50.2814 15.744C50.1454 16.144 49.9654 16.5 49.7414 16.812C49.5254 17.116 49.2614 17.376 48.9494 17.592C48.4614 17.96 47.8974 18.144 47.2574 18.144C46.6174 18.144 46.0534 17.96 45.5654 17.592C45.2614 17.376 44.9974 17.116 44.7734 16.812C44.5574 16.5 44.3854 16.144 44.2574 15.744C44.1534 15.44 44.0734 15.128 44.0174 14.808C43.9694 14.48 43.9454 14.144 43.9454 13.8C43.9454 13.456 43.9694 13.124 44.0174 12.804C44.0734 12.476 44.1534 12.16 44.2574 11.856C44.3854 11.456 44.5574 11.104 44.7734 10.8C44.9974 10.488 45.2614 10.224 45.5654 10.008C46.0534 9.64 46.6174 9.456 47.2574 9.456ZM59.0863 14.1C59.6463 14.1 60.1263 14.296 60.5263 14.688C60.9183 15.088 61.1143 15.564 61.1143 16.116C61.1143 16.676 60.9183 17.152 60.5263 17.544C60.1263 17.944 59.6463 18.144 59.0863 18.144C58.5343 18.144 58.0583 17.944 57.6583 17.544C57.2583 17.144 57.0583 16.668 57.0583 16.116C57.0583 15.844 57.1103 15.588 57.2143 15.348C57.3183 15.108 57.4663 14.888 57.6583 14.688C58.0583 14.296 58.5343 14.1 59.0863 14.1ZM59.0863 15.252C58.8543 15.252 58.6503 15.34 58.4743 15.516C58.3063 15.684 58.2223 15.884 58.2223 16.116C58.2223 16.356 58.3063 16.56 58.4743 16.728C58.6503 16.896 58.8543 16.98 59.0863 16.98C59.3183 16.98 59.5223 16.896 59.6983 16.728C59.8663 16.56 59.9503 16.356 59.9503 16.116C59.9503 15.884 59.8663 15.684 59.6983 15.516C59.5223 15.34 59.3183 15.252 59.0863 15.252ZM58.5943 9.6L59.5423 10.26L54.1303 18L53.1823 17.34L58.5943 9.6ZM53.6383 9.456C54.1903 9.456 54.6663 9.652 55.0663 10.044C55.4583 10.444 55.6543 10.924 55.6543 11.484C55.6543 11.756 55.6023 12.016 55.4983 12.264C55.4023 12.504 55.2583 12.72 55.0663 12.912C54.6663 13.304 54.1903 13.5 53.6383 13.5C53.0783 13.5 52.6023 13.304 52.2103 12.912C51.8103 12.512 51.6103 12.036 51.6103 11.484C51.6103 10.924 51.8103 10.444 52.2103 10.044C52.6023 9.652 53.0783 9.456 53.6383 9.456ZM53.6383 10.62C53.3983 10.62 53.1943 10.7 53.0263 10.86C52.8583 11.036 52.7743 11.244 52.7743 11.484C52.7743 11.724 52.8583 11.928 53.0263 12.096C53.1943 12.264 53.3983 12.348 53.6383 12.348C53.8783 12.348 54.0783 12.264 54.2383 12.096C54.4143 11.928 54.5023 11.724 54.5023 11.484C54.5023 11.244 54.4143 11.036 54.2383 10.86C54.0783 10.7 53.8783 10.62 53.6383 10.62ZM65.6026 18V9.6H66.7546V16.836H70.7146V18H65.6026ZM70.0581 9.6H76.5501V10.764H73.8861V18H72.7221V10.764H70.0581V9.6ZM76.7955 9.6H78.0315L80.5275 16.308L83.0115 9.6H84.2475L81.1395 18H79.9155L76.7955 9.6Z" fill="white"/>
</svg>
