<svg width="30" height="30" viewBox="0 0 30 30" fill="none" xmlns="http://www.w3.org/2000/svg">
<g clip-path="url(#clip0_333_3519)">
<circle cx="15" cy="15" r="15" fill="#2A163C"/>
<path d="M24.1605 12.3625C24.0753 12.2831 23.9737 12.2209 23.8619 12.1794C23.7501 12.1379 23.6305 12.1181 23.5102 12.1212C23.39 12.1243 23.2716 12.1502 23.1625 12.1974C23.0533 12.2446 22.9555 12.312 22.8752 12.3956L17.2108 18.3396L14.2945 15.616C14.2125 15.5392 14.1151 15.4783 14.0078 15.4368C13.9006 15.3952 13.7856 15.3739 13.6695 15.3739C13.5534 15.3739 13.4385 15.3952 13.3313 15.4368C13.224 15.4783 13.1266 15.5392 13.0446 15.616L7.69055 20.6245C7.32711 20.964 7.32711 21.5269 7.69055 21.8663C8.05398 22.2057 8.65676 22.2057 9.0202 21.8663L13.674 17.5118L16.5549 20.2023C16.9183 20.5417 17.5034 20.5252 17.8402 20.1692L24.1959 13.4884C24.5062 13.1655 24.4885 12.6688 24.1605 12.3625Z" fill="#FE9673"/>
<g opacity="0.4">
<path d="M16.1753 12.4309L17.0365 12.8267L17.4265 13.683C17.4588 13.7535 17.5109 13.8133 17.5764 13.8552C17.642 13.8972 17.7183 13.9195 17.7962 13.9195C17.8741 13.9195 17.9504 13.8972 18.016 13.8552C18.0815 13.8133 18.1336 13.7535 18.1659 13.683L18.564 12.8348L19.4253 12.4389C19.4962 12.4068 19.5563 12.3551 19.5985 12.2899C19.6407 12.2247 19.6631 12.1489 19.6631 12.0714C19.6631 11.9939 19.6407 11.918 19.5985 11.8528C19.5563 11.7877 19.4962 11.7359 19.4253 11.7038L18.5721 11.308L18.174 10.4516C18.1417 10.3811 18.0897 10.3213 18.0241 10.2794C17.9586 10.2375 17.8823 10.2152 17.8043 10.2152C17.7264 10.2152 17.6501 10.2375 17.5845 10.2794C17.519 10.3213 17.467 10.3811 17.4346 10.4516L17.0365 11.2999L16.1753 11.6957C16.1044 11.7278 16.0442 11.7796 16.0021 11.8448C15.9599 11.9099 15.9375 11.9858 15.9375 12.0633C15.9375 12.1408 15.9599 12.2166 16.0021 12.2818C16.0442 12.347 16.1044 12.3987 16.1753 12.4309Z" fill="#FE9673"/>
<path d="M9.62655 14.4424L9.22843 15.2987C9.09031 15.6137 8.63531 15.6137 8.49718 15.2987L8.09906 14.4504L7.23781 14.0546C7.16689 14.0225 7.10676 13.9707 7.06459 13.9056C7.02242 13.8404 7 13.7645 7 13.687C7 13.6095 7.02242 13.5337 7.06459 13.4685C7.10676 13.4033 7.16689 13.3516 7.23781 13.3195L8.09906 12.9236L8.49718 12.0673C8.5285 11.9969 8.57973 11.937 8.64464 11.895C8.70955 11.8529 8.78534 11.8306 8.86281 11.8306C8.94027 11.8306 9.01607 11.8529 9.08098 11.895C9.14589 11.937 9.19711 11.9969 9.22843 12.0673L9.62655 12.9156L10.4878 13.3114C10.5587 13.3435 10.6189 13.3953 10.661 13.4604C10.7032 13.5256 10.7256 13.6015 10.7256 13.679C10.7256 13.7565 10.7032 13.8323 10.661 13.8975C10.6189 13.9627 10.5587 14.0144 10.4878 14.0465L9.62655 14.4424Z" fill="#FE9673"/>
<path d="M13.4047 10.1204L12.8928 11.2514C12.7465 11.5665 12.2915 11.5665 12.1534 11.2514L11.6415 10.1204L10.5041 9.6115C10.4331 9.57937 10.373 9.52763 10.3308 9.46246C10.2887 9.39728 10.2662 9.32142 10.2662 9.24393C10.2662 9.16644 10.2887 9.09058 10.3308 9.0254C10.373 8.96023 10.4331 8.90849 10.5041 8.87636L11.6415 8.36742L12.1534 7.23645C12.1857 7.16593 12.2378 7.10614 12.3033 7.06422C12.3689 7.02229 12.4452 7 12.5231 7C12.601 7 12.6773 7.02229 12.7429 7.06422C12.8084 7.10614 12.8605 7.16593 12.8928 7.23645L13.4047 8.36742L14.5422 8.87636C14.6131 8.90849 14.6732 8.96023 14.7154 9.0254C14.7576 9.09058 14.78 9.16644 14.78 9.24393C14.78 9.32142 14.7576 9.39728 14.7154 9.46246C14.6732 9.52763 14.6131 9.57937 14.5422 9.6115L13.4047 10.1204Z" fill="#FE9673"/>
</g>
</g>
<defs>
<clipPath id="clip0_333_3519">
<rect width="30" height="30" fill="white"/>
</clipPath>
</defs>
</svg>
