<svg width="30" height="30" viewBox="0 0 30 30" fill="none" xmlns="http://www.w3.org/2000/svg">
<path d="M11.2842 2.5609C11.336 2.39893 11.4435 2.25673 11.5906 2.15562C11.7377 2.0545 11.9165 1.9999 12.1002 2H18.8997C19.0343 2.00009 19.167 2.02957 19.2868 2.086C19.4066 2.14243 19.5101 2.22421 19.5887 2.32459C19.6674 2.42497 19.719 2.5411 19.7393 2.6634C19.7596 2.7857 19.748 2.91069 19.7055 3.02806L16.6797 11.3744H23.1495C23.3086 11.3743 23.4646 11.4153 23.5997 11.4927C23.7348 11.5701 23.8435 11.6808 23.9135 11.8122C23.9834 11.9436 24.0119 12.0904 23.9955 12.2359C23.9791 12.3815 23.9187 12.5198 23.8209 12.6353L11.9217 26.697C11.7998 26.8417 11.6265 26.9425 11.4319 26.9818C11.2374 27.0211 11.0341 26.9963 10.8574 26.9119C10.6807 26.8274 10.5419 26.6886 10.4652 26.5197C10.3885 26.3508 10.3787 26.1625 10.4377 25.9876L13.4992 16.8429H7.85044C7.7183 16.8429 7.58796 16.8147 7.46978 16.7604C7.35159 16.706 7.24881 16.6271 7.16961 16.5299C7.0904 16.4327 7.03695 16.3198 7.0135 16.2003C6.99004 16.0808 6.99723 15.9579 7.0345 15.8414L11.2842 2.5609Z" fill="#FE9673"/>
</svg>
