<svg width="30" height="30" viewBox="0 0 30 30" fill="none" xmlns="http://www.w3.org/2000/svg">
<g clip-path="url(#clip0_329_3465)">
<circle cx="15" cy="15" r="15" fill="#212367"/>
<path d="M18.4136 15.125C19.1136 15.125 19.7136 15.37 20.2136 15.86C20.7036 16.36 20.9486 16.955 20.9486 17.645C20.9486 18.345 20.7036 18.94 20.2136 19.43C19.7136 19.93 19.1136 20.18 18.4136 20.18C17.7236 20.18 17.1286 19.93 16.6286 19.43C16.1286 18.93 15.8786 18.335 15.8786 17.645C15.8786 17.305 15.9436 16.985 16.0736 16.685C16.2036 16.385 16.3886 16.11 16.6286 15.86C17.1286 15.37 17.7236 15.125 18.4136 15.125ZM18.4136 16.565C18.1236 16.565 17.8686 16.675 17.6486 16.895C17.4386 17.105 17.3336 17.355 17.3336 17.645C17.3336 17.945 17.4386 18.2 17.6486 18.41C17.8686 18.62 18.1236 18.725 18.4136 18.725C18.7036 18.725 18.9586 18.62 19.1786 18.41C19.3886 18.2 19.4936 17.945 19.4936 17.645C19.4936 17.355 19.3886 17.105 19.1786 16.895C18.9586 16.675 18.7036 16.565 18.4136 16.565ZM17.7986 9.5L18.9836 10.325L12.2186 20L11.0336 19.175L17.7986 9.5ZM11.6036 9.32C12.2936 9.32 12.8886 9.565 13.3886 10.055C13.8786 10.555 14.1236 11.155 14.1236 11.855C14.1236 12.195 14.0586 12.52 13.9286 12.83C13.8086 13.13 13.6286 13.4 13.3886 13.64C12.8886 14.13 12.2936 14.375 11.6036 14.375C10.9036 14.375 10.3086 14.13 9.81855 13.64C9.31855 13.14 9.06855 12.545 9.06855 11.855C9.06855 11.155 9.31855 10.555 9.81855 10.055C10.3086 9.565 10.9036 9.32 11.6036 9.32ZM11.6036 10.775C11.3036 10.775 11.0486 10.875 10.8386 11.075C10.6286 11.295 10.5236 11.555 10.5236 11.855C10.5236 12.155 10.6286 12.41 10.8386 12.62C11.0486 12.83 11.3036 12.935 11.6036 12.935C11.9036 12.935 12.1536 12.83 12.3536 12.62C12.5736 12.41 12.6836 12.155 12.6836 11.855C12.6836 11.555 12.5736 11.295 12.3536 11.075C12.1536 10.875 11.9036 10.775 11.6036 10.775Z" fill="#5069DD"/>
</g>
<defs>
<clipPath id="clip0_329_3465">
<rect width="30" height="30" fill="white"/>
</clipPath>
</defs>
</svg>
