<svg width="30" height="30" viewBox="0 0 30 30" fill="none" xmlns="http://www.w3.org/2000/svg">
<g clip-path="url(#clip0_329_3459)">
<circle cx="15" cy="15" r="15" fill="#361536"/>
<path d="M16.4969 15L20.6868 10.8101C20.8856 10.6116 20.9975 10.3422 20.9977 10.0613C20.998 9.7803 20.8866 9.51074 20.6881 9.31189C20.4896 9.11304 20.2202 9.00118 19.9393 9.00094C19.6583 9.00069 19.3887 9.11206 19.1899 9.31057L15 13.5005L10.8101 9.31057C10.6113 9.11171 10.3416 9 10.0603 9C9.77912 9 9.50942 9.11171 9.31057 9.31057C9.11171 9.50942 9 9.77912 9 10.0603C9 10.3416 9.11171 10.6113 9.31057 10.8101L13.5005 15L9.31057 19.1899C9.11171 19.3887 9 19.6584 9 19.9397C9 20.2209 9.11171 20.4906 9.31057 20.6894C9.50942 20.8883 9.77912 21 10.0603 21C10.3416 21 10.6113 20.8883 10.8101 20.6894L15 16.4995L19.1899 20.6894C19.3887 20.8883 19.6584 21 19.9397 21C20.2209 21 20.4906 20.8883 20.6894 20.6894C20.8883 20.4906 21 20.2209 21 19.9397C21 19.6584 20.8883 19.3887 20.6894 19.1899L16.4969 15Z" fill="#D8563C"/>
</g>
<defs>
<clipPath id="clip0_329_3459">
<rect width="30" height="30" fill="white"/>
</clipPath>
</defs>
</svg>
