<svg width="180" height="180" viewBox="0 0 180 180" fill="none" xmlns="http://www.w3.org/2000/svg">
<circle cx="90" cy="90" r="90" fill="#3C1B68"/>
<path d="M125 67.7059C122.424 68.8794 119.646 69.6506 116.769 70.0194C119.713 68.2424 121.989 65.4259 123.059 62.0394C120.282 63.7159 117.204 64.8894 113.958 65.56C111.315 62.6765 107.6 61 103.384 61C95.521 61 89.0966 67.4376 89.0966 75.3841C89.0966 76.5241 89.2304 77.6306 89.4646 78.67C77.5526 78.0665 66.9455 72.3329 59.8853 63.6488C58.6472 65.7612 57.9446 68.2424 57.9446 70.8576C57.9446 75.8535 60.4541 80.2794 64.3356 82.7941C61.9598 82.7941 59.7514 82.1235 57.8107 81.1176V81.2182C57.8107 88.1924 62.7629 94.0265 69.3212 95.3341C67.216 95.914 65.0049 95.9943 62.8633 95.5688C63.7721 98.4271 65.552 100.928 67.9527 102.72C70.3535 104.513 73.2544 105.506 76.2476 105.561C71.1738 109.586 64.8844 111.762 58.413 111.73C57.2753 111.73 56.1377 111.663 55 111.529C61.3576 115.619 68.9197 118 77.0172 118C103.384 118 117.873 96.0718 117.873 77.0606C117.873 76.4235 117.873 75.82 117.839 75.1829C120.65 73.1712 123.059 70.6229 125 67.7059Z" fill="#8E3ECD"/>
</svg>
