<svg width="30" height="30" viewBox="0 0 30 30" fill="none" xmlns="http://www.w3.org/2000/svg">
<g clip-path="url(#clip0_388_2235)">
<circle cx="15" cy="15" r="15" fill="#112540"/>
<path d="M12.0242 6.40385C12.0607 6.28723 12.1366 6.18485 12.2404 6.11204C12.3443 6.03924 12.4705 5.99993 12.6001 6H17.3998C17.4948 6.00007 17.5885 6.02129 17.673 6.06192C17.7576 6.10255 17.8306 6.16143 17.8862 6.23371C17.9417 6.30598 17.9781 6.38959 17.9925 6.47765C18.0068 6.56571 17.9986 6.65569 17.9686 6.74021L15.8327 12.7496H20.3996C20.512 12.7495 20.6221 12.779 20.7174 12.8348C20.8128 12.8905 20.8895 12.9702 20.9389 13.0648C20.9883 13.1594 21.0084 13.2651 20.9968 13.3699C20.9853 13.4747 20.9426 13.5743 20.8736 13.6574L12.4741 23.7818C12.3881 23.886 12.2657 23.9586 12.1284 23.9869C11.9911 24.0152 11.8476 23.9974 11.7229 23.9366C11.5982 23.8757 11.5002 23.7758 11.446 23.6542C11.3919 23.5326 11.385 23.397 11.4266 23.2711L13.5877 16.6869H9.60031C9.50704 16.6869 9.41503 16.6666 9.33161 16.6275C9.24818 16.5883 9.17563 16.5315 9.11972 16.4615C9.06381 16.3915 9.02608 16.3103 9.00953 16.2242C8.99297 16.1382 8.99805 16.0497 9.02435 15.9658L12.0242 6.40385Z" fill="#09AF8E"/>
</g>
<defs>
<clipPath id="clip0_388_2235">
<rect width="30" height="30" fill="white"/>
</clipPath>
</defs>
</svg>
