<svg width="180" height="180" viewBox="0 0 180 180" fill="none" xmlns="http://www.w3.org/2000/svg">
<circle cx="90" cy="90" r="90" fill="#3C1B68"/>
<path d="M114.229 68.4045C109.795 66.3513 104.995 64.861 99.9951 64C99.9072 64.0012 99.8233 64.037 99.7618 64.0993C99.1618 65.1922 98.4617 66.6162 97.9951 67.709C92.6915 66.9147 87.2981 66.9147 81.9946 67.709C81.5279 66.5831 80.8279 65.1922 80.1946 64.0993C80.1612 64.0331 80.0612 64 79.9612 64C74.9611 64.861 70.1943 66.3513 65.7275 68.4045C65.6942 68.4045 65.6608 68.4376 65.6275 68.4707C56.5606 81.9491 54.0605 95.0632 55.2939 108.045C55.2939 108.111 55.3272 108.177 55.3939 108.21C61.3941 112.582 67.1609 115.231 72.861 116.986C72.961 117.019 73.061 116.986 73.0944 116.92C74.4277 115.099 75.6278 113.178 76.6611 111.158C76.7278 111.025 76.6611 110.893 76.5278 110.86C74.6278 110.131 72.8277 109.27 71.061 108.277C70.9277 108.21 70.9277 108.012 71.0277 107.912C71.3943 107.647 71.761 107.349 72.1277 107.084C72.1944 107.018 72.2944 107.018 72.361 107.051C83.828 112.251 96.195 112.251 107.529 107.051C107.595 107.018 107.695 107.018 107.762 107.084C108.129 107.383 108.495 107.647 108.862 107.945C108.995 108.045 108.995 108.244 108.829 108.31C107.095 109.336 105.262 110.164 103.362 110.893C103.229 110.926 103.195 111.092 103.229 111.191C104.295 113.211 105.495 115.132 106.795 116.953C106.895 116.986 106.995 117.019 107.095 116.986C112.829 115.231 118.596 112.582 124.596 108.21C124.662 108.177 124.696 108.111 124.696 108.045C126.162 93.0431 122.262 80.0284 114.362 68.4707C114.329 68.4376 114.296 68.4045 114.229 68.4045ZM78.3945 100.13C74.9611 100.13 72.0944 96.984 72.0944 93.1093C72.0944 89.2347 74.8944 86.0887 78.3945 86.0887C81.928 86.0887 84.728 89.2678 84.6947 93.1093C84.6947 96.984 81.8946 100.13 78.3945 100.13ZM101.628 100.13C98.1951 100.13 95.3283 96.984 95.3283 93.1093C95.3283 89.2347 98.1284 86.0887 101.628 86.0887C105.162 86.0887 107.962 89.2678 107.929 93.1093C107.929 96.984 105.162 100.13 101.628 100.13Z" fill="#8E3ECD"/>
</svg>
