<svg width="30" height="30" viewBox="0 0 30 30" fill="none" xmlns="http://www.w3.org/2000/svg">
<g clip-path="url(#clip0_429_2586)">
<circle cx="15" cy="15" r="15" fill="#112540"/>
<path d="M14.9989 22.1556C14.9114 22.154 14.8303 22.1467 14.7555 22.1336C14.6807 22.1205 14.606 22.1014 14.5315 22.0765C12.8535 21.5155 11.5271 20.5088 10.5523 19.0563C9.57751 17.6039 9.10454 16.0505 9.13342 14.3963L9.19187 11.0475C9.19703 10.7521 9.2924 10.4879 9.478 10.2549C9.66359 10.0218 9.9008 9.85459 10.1896 9.75328L14.7168 8.23712C14.8928 8.18112 15.0683 8.15464 15.2432 8.15769C15.4182 8.16075 15.5927 8.19333 15.7666 8.25545L20.2381 9.92868C20.5237 10.04 20.7552 10.2154 20.9325 10.4548C21.1099 10.6942 21.1957 10.9616 21.19 11.2569L21.1316 14.6057C21.1027 16.2595 20.5758 17.7954 19.5509 19.2134C18.526 20.6314 17.1653 21.5912 15.4688 22.0929C15.3934 22.1152 15.3181 22.1316 15.2429 22.1421C15.1677 22.1526 15.0864 22.1571 14.9989 22.1556Z" fill="#09AF8E"/>
</g>
<defs>
<clipPath id="clip0_429_2586">
<rect width="30" height="30" fill="white"/>
</clipPath>
</defs>
</svg>
