<svg width="180" height="180" viewBox="0 0 180 180" fill="none" xmlns="http://www.w3.org/2000/svg">
<circle cx="90" cy="90" r="90" fill="#3C1B68"/>
<path d="M73.5101 54.2192C76.2781 55.1563 78.9105 56.4564 81.3389 58.0856C84.7708 57.2042 88.3 56.7621 91.8425 56.7697C95.5009 56.7697 99.0303 57.228 102.339 58.0819C104.766 56.4543 107.397 55.1555 110.164 54.2192C112.732 53.3432 116.39 51.9238 118.564 54.3375C120.037 55.9786 120.406 58.7287 120.667 60.8282C120.962 63.1717 121.032 66.2249 120.258 69.2559C123.217 73.089 125 77.6613 125 82.644C125 90.1919 120.925 96.7455 114.894 101.285C111.99 103.439 108.772 105.13 105.352 106.297C106.141 108.108 106.579 110.111 106.579 112.215V123.304C106.579 124.284 106.191 125.224 105.5 125.917C104.809 126.611 103.872 127 102.895 127H80.79C79.8129 127 78.8758 126.611 78.1849 125.917C77.494 125.224 77.1058 124.284 77.1058 123.304V119.641C73.5875 120.073 70.6364 119.689 68.1275 118.62C65.5044 117.504 63.6771 115.774 62.3029 114.118C60.9987 112.551 59.5766 109.017 57.5208 108.33C57.0617 108.176 56.6371 107.934 56.2715 107.616C55.9058 107.298 55.6061 106.911 55.3896 106.476C54.9522 105.6 54.88 104.584 55.1887 103.654C55.4975 102.724 56.162 101.954 57.036 101.516C57.91 101.077 58.9219 101.004 59.8492 101.314C62.3029 102.135 63.9018 103.909 64.996 105.336C66.7644 107.628 68.2012 110.622 71.0012 111.815C72.1543 112.307 73.8454 112.629 76.4906 112.266L77.1058 112.141C77.1143 110.129 77.5318 108.141 78.3327 106.297C74.9133 105.13 71.6945 103.439 68.7907 101.285C62.7597 96.7455 58.685 90.1956 58.685 82.644C58.685 77.6687 60.4645 73.1001 63.4155 69.2707C62.6418 66.2397 62.7081 63.1791 63.0029 60.8319L63.0213 60.6915C63.2902 58.5402 63.6034 56.0082 65.1065 54.3375C67.2802 51.9238 70.9422 53.3469 73.5064 54.2229L73.5101 54.2192Z" fill="#8E3ECD"/>
</svg>
