<svg width="30" height="30" viewBox="0 0 30 30" fill="none" xmlns="http://www.w3.org/2000/svg">
<g clip-path="url(#clip0_589_3485)">
<circle cx="15" cy="15" r="15" fill="#112540"/>
<path opacity="0.4" d="M17.5 15C17.5 13 15.9998 10 14.9999 10C13.9998 10 12.5002 12.5 12.5 15C12.4998 17.5 13.5001 20 15 20C16 20 17.5 17 17.5 15Z" fill="#09AF8E"/>
<path opacity="0.4" d="M9.5 15.5L12.5 19.5C9.7 19.9 8.33333 17 8 15.5H9.5Z" fill="#09AF8E"/>
<path opacity="0.4" d="M20.5 15.5L17 20C19.8 19.6 22 16.5 22 15.5H20.5Z" fill="#09AF8E"/>
<path d="M22.8578 15.1111C22.7898 14.9889 22.6986 14.8817 22.5896 14.7959C22.4806 14.7101 22.356 14.6474 22.223 14.6114C21.7406 14.4845 21.2422 14.4335 20.7448 14.46C21.0115 13.1066 20.8114 12.0361 20.6114 11.4014C20.5298 11.1406 20.3563 10.9203 20.1246 10.7832C19.8929 10.6461 19.6196 10.602 19.3579 10.6595C18.6794 10.814 18.0342 11.0941 17.4542 11.4859C17.0294 10.5986 16.4109 9.82302 15.6466 9.21886C15.4613 9.0768 15.236 9 15.0045 9C14.7729 9 14.5476 9.0768 14.3624 9.21886C13.5968 9.82264 12.9771 10.5983 12.5514 11.4859C11.9714 11.0941 11.3262 10.814 10.6477 10.6595C10.3861 10.6017 10.1127 10.6457 9.88106 10.7828C9.6494 10.92 9.47604 11.1405 9.39485 11.4014C9.19481 12.0361 8.99478 13.1059 9.25749 14.46C8.76008 14.4335 8.26162 14.4845 7.77924 14.6114C7.64627 14.6474 7.52166 14.7101 7.41267 14.7959C7.30368 14.8817 7.21251 14.9889 7.14447 15.1111C7.07335 15.2363 7.02729 15.3746 7.00897 15.5181C6.99065 15.6616 7.00045 15.8074 7.03778 15.947C7.26382 16.8048 7.95794 18.435 10.0603 19.7195C12.1626 21.0041 14.0096 21 15.0045 21C15.9993 21 17.8496 21 19.9386 19.7195C22.041 18.435 22.7351 16.8048 22.9611 15.947C22.999 15.8077 23.0093 15.662 22.9916 15.5185C22.9738 15.375 22.9284 15.2365 22.8578 15.1111ZM10.6071 18.7834C8.83142 17.698 8.25465 16.367 8.06662 15.6614C8.5572 15.5375 9.06638 15.5104 9.56688 15.5816C9.73395 16.0393 9.93802 16.482 10.177 16.905C10.7637 17.9392 11.5323 18.8537 12.444 19.6023C11.7993 19.4127 11.1817 19.1374 10.6071 18.7834ZM15.0011 19.8C14.379 19.3268 12.8674 17.8752 12.8674 14.9434C12.8674 12.0477 14.3597 10.5845 15.0011 10.0909C15.6426 10.5859 17.1348 12.0491 17.1348 14.9448C17.1348 17.8752 15.6232 19.3268 15.0011 19.8ZM21.9356 15.6627C21.7509 16.3609 21.1755 17.6952 19.3959 18.7834C18.8212 19.1371 18.2036 19.4122 17.5589 19.6016C18.4707 18.853 19.2393 17.9386 19.8259 16.9043C20.0649 16.4813 20.269 16.0386 20.436 15.5809C20.9364 15.5104 21.4453 15.5386 21.9356 15.6627Z" fill="#09AF8E"/>
</g>
<defs>
<clipPath id="clip0_589_3485">
<rect width="30" height="30" fill="white"/>
</clipPath>
</defs>
</svg>
