<svg width="180" height="180" viewBox="0 0 180 180" fill="none" xmlns="http://www.w3.org/2000/svg">
<circle cx="90" cy="90" r="90" fill="#3C1B68"/>
<path d="M86.5079 106.838C87.6014 106.838 88.5856 107.686 88.5856 108.852C88.5856 109.912 87.7108 110.866 86.5079 110.866C85.4144 110.866 84.4302 110.018 84.4302 108.852C84.4302 107.686 85.4144 106.838 86.5079 106.838ZM118.658 94.5413C117.564 94.5413 116.58 93.6933 116.58 92.5272C116.58 91.4672 117.455 90.5132 118.658 90.5132C119.751 90.5132 120.735 91.3612 120.735 92.5272C120.735 93.5873 119.751 94.5413 118.658 94.5413ZM118.658 86.379C115.158 86.379 112.315 89.1351 112.315 92.5272C112.315 93.1633 112.424 93.7993 112.643 94.4353L91.7568 105.248C90.554 103.552 88.5856 102.598 86.5079 102.598C84.1022 102.598 81.9151 103.976 80.8216 105.99L62.013 96.4494C60.0446 95.3893 58.5137 92.3152 58.7324 89.3471C58.8417 87.8631 59.3885 86.697 60.154 86.273C60.7007 85.955 61.2475 86.061 62.013 86.379L62.1223 86.485C67.1525 89.0291 83.446 97.2974 84.1022 97.6154C85.1957 98.0394 85.7424 98.2514 87.6014 97.4034L121.282 80.4428C121.829 80.2308 122.376 79.8068 122.376 79.0648C122.376 78.1107 121.391 77.6867 121.391 77.6867C119.423 76.8387 116.471 75.4607 113.627 74.1886C107.504 71.4325 100.505 68.2524 97.4432 66.6624C94.8187 65.2843 92.6317 66.4504 92.3036 66.6624L91.5381 66.9804C77.6504 73.7646 59.2791 82.5629 58.1856 83.1989C56.3266 84.259 55.1237 86.485 55.0144 89.2411C54.7957 93.5873 57.0921 98.1454 60.3727 99.7355L80.2748 109.7C80.7122 112.668 83.446 115 86.5079 115C90.0072 115 92.741 112.35 92.8504 108.958L114.721 97.5094C115.814 98.3574 117.236 98.7815 118.658 98.7815C122.157 98.7815 125 96.0254 125 92.6332C125 89.1351 122.157 86.379 118.658 86.379Z" fill="#8E3ECD"/>
</svg>
