<svg width="40" height="40" viewBox="0 0 40 40" fill="none" xmlns="http://www.w3.org/2000/svg">
<g clip-path="url(#clip0_582_2643)">
<rect width="40" height="40" rx="12" fill="#8E3ECD"/>
<path d="M21.9959 20L27.5824 14.4135C27.8475 14.1488 27.9967 13.7897 27.997 13.415C27.9973 13.0404 27.8488 12.681 27.5841 12.4159C27.3195 12.1507 26.9603 12.0016 26.5857 12.0012C26.2111 12.0009 25.8517 12.1494 25.5865 12.4141L20 18.0006L14.4135 12.4141C14.1483 12.149 13.7887 12 13.4138 12C13.0388 12 12.6792 12.149 12.4141 12.4141C12.149 12.6792 12 13.0388 12 13.4138C12 13.7887 12.149 14.1483 12.4141 14.4135L18.0006 20L12.4141 25.5865C12.149 25.8517 12 26.2113 12 26.5862C12 26.9612 12.149 27.3208 12.4141 27.5859C12.6792 27.851 13.0388 28 13.4138 28C13.7887 28 14.1483 27.851 14.4135 27.5859L20 21.9994L25.5865 27.5859C25.8517 27.851 26.2113 28 26.5862 28C26.9612 28 27.3208 27.851 27.5859 27.5859C27.851 27.3208 28 26.9612 28 26.5862C28 26.2113 27.851 25.8517 27.5859 25.5865L21.9959 20Z" fill="white"/>
</g>
<defs>
<clipPath id="clip0_582_2643">
<rect width="40" height="40" fill="white"/>
</clipPath>
</defs>
</svg>
