<svg width="16" height="16" viewBox="0 0 16 16" fill="none" xmlns="http://www.w3.org/2000/svg">
<g clip-path="url(#clip0_981_346)">
<circle opacity="0.2" cx="8" cy="8" r="8" fill="white"/>
<path fill-rule="evenodd" clip-rule="evenodd" d="M5.37571 5.88167C5.15127 5.88167 4.96951 5.68417 5.00428 5.45083C5.2216 4.03333 6.24578 3 8.02308 3C9.80117 3 11 4.13333 11 5.67917C11 6.79917 10.4745 7.58583 9.58543 8.15667C8.71614 8.70583 8.468 9.08833 8.468 9.83167V9.85667C8.468 9.96717 8.42637 10.0732 8.35227 10.1513C8.27817 10.2294 8.17766 10.2733 8.07287 10.2733H7.46437C7.36025 10.2733 7.26034 10.23 7.18636 10.1528C7.11237 10.0755 7.07028 9.97062 7.06924 9.86083L7.06687 9.69417C7.03288 8.67667 7.44382 8.02667 8.36685 7.43417C9.18082 6.9075 9.47084 6.48833 9.47084 5.74417C9.47084 4.92833 8.87182 4.32917 7.9488 4.32917C7.15142 4.32917 6.59745 4.77 6.41727 5.4975C6.36511 5.70917 6.19758 5.88167 5.99053 5.88167H5.37571ZM7.76309 13C8.25463 13 8.62842 12.605 8.62842 12.0917C8.62842 11.5767 8.25463 11.1817 7.76309 11.1817C7.28419 11.1817 6.90407 11.5767 6.90407 12.0908C6.90407 12.605 7.28419 13 7.76309 13Z" fill="#9A94B8"/>
</g>
<defs>
<clipPath id="clip0_981_346">
<rect width="16" height="16" fill="white"/>
</clipPath>
</defs>
</svg>
