<svg width="80" height="100" viewBox="0 0 80 100" fill="none" xmlns="http://www.w3.org/2000/svg">
<path d="M40 100C39.4167 100 38.875 99.9578 38.375 99.8734C37.875 99.789 37.375 99.6624 36.875 99.4937C25.625 95.6962 16.6667 88.6717 10 78.4203C3.33333 68.1688 0 57.1342 0 45.3165V21.3924C0 19.2827 0.604999 17.384 1.815 15.6962C3.025 14.0084 4.58667 12.7848 6.5 12.0253L36.5 0.632911C37.6667 0.21097 38.8333 0 40 0C41.1667 0 42.3333 0.21097 43.5 0.632911L73.5 12.0253C75.4167 12.7848 76.98 14.0084 78.19 15.6962C79.4 17.384 80.0033 19.2827 80 21.3924V45.3165C80 57.1308 76.6666 68.1654 70 78.4203C63.3333 88.6751 54.375 95.6996 43.125 99.4937C42.625 99.6624 42.125 99.789 41.625 99.8734C41.125 99.9578 40.5833 100 40 100Z" fill="#5069DD"/>
<g clip-path="url(#clip0_412_2507)">
<path d="M40 68C49.9411 68 58 59.9411 58 50C58 40.0589 49.9411 32 40 32C30.0589 32 22 40.0589 22 50C22 59.9411 30.0589 68 40 68Z" fill="#627EEA"/>
<path d="M40.5603 36.5V46.4787L48.9944 50.2475L40.5603 36.5Z" fill="white" fill-opacity="0.602"/>
<path d="M40.5602 36.5L32.125 50.2475L40.5602 46.4787V36.5Z" fill="white"/>
<path d="M40.5603 56.714V63.4944L49.0001 51.818L40.5603 56.714Z" fill="white" fill-opacity="0.602"/>
<path d="M40.5602 63.4944V56.7129L32.125 51.818L40.5602 63.4944Z" fill="white"/>
<path d="M40.5603 55.1447L48.9944 50.2476L40.5603 46.4811V55.1447Z" fill="white" fill-opacity="0.2"/>
<path d="M32.125 50.2476L40.5602 55.1447V46.4811L32.125 50.2476Z" fill="white" fill-opacity="0.602"/>
</g>
<defs>
<clipPath id="clip0_412_2507">
<rect width="36" height="36" fill="white" transform="translate(22 32)"/>
</clipPath>
</defs>
</svg>
