<svg width="64" height="80" viewBox="0 0 64 80" fill="none" xmlns="http://www.w3.org/2000/svg">
<path d="M32 80C31.5333 80 31.1 79.9662 30.7 79.8987C30.3 79.8312 29.9 79.73 29.5 79.5949C20.5 76.557 13.3333 70.9374 8 62.7362C2.66667 54.535 0 45.7073 0 36.2532V17.1139C0 15.4262 0.484 13.9072 1.452 12.557C2.42 11.2068 3.66933 10.2278 5.2 9.62025L29.2 0.506329C30.1333 0.168776 31.0667 0 32 0C32.9333 0 33.8667 0.168776 34.8 0.506329L58.8 9.62025C60.3333 10.2278 61.584 11.2068 62.552 12.557C63.52 13.9072 64.0027 15.4262 64 17.1139V36.2532C64 45.7046 61.3333 54.5323 56 62.7362C50.6667 70.9401 43.5 76.5597 34.5 79.5949C34.1 79.73 33.7 79.8312 33.3 79.8987C32.9 79.9662 32.4667 80 32 80Z" fill="#5069DD"/>
<g clip-path="url(#clip0_412_2508)">
<path d="M32 52C38.6274 52 44 46.6274 44 40C44 33.3726 38.6274 28 32 28C25.3726 28 20 33.3726 20 40C20 46.6274 25.3726 52 32 52Z" fill="#627EEA"/>
<path d="M32.3735 31V37.6525L37.9963 40.165L32.3735 31Z" fill="white" fill-opacity="0.602"/>
<path d="M32.3735 31L26.75 40.165L32.3735 37.6525V31Z" fill="white"/>
<path d="M32.3735 44.476V48.9963L38 41.212L32.3735 44.476Z" fill="white" fill-opacity="0.602"/>
<path d="M32.3735 48.9963V44.4753L26.75 41.212L32.3735 48.9963Z" fill="white"/>
<path d="M32.3735 43.4298L37.9963 40.1651L32.3735 37.6541V43.4298Z" fill="white" fill-opacity="0.2"/>
<path d="M26.75 40.1651L32.3735 43.4298V37.6541L26.75 40.1651Z" fill="white" fill-opacity="0.602"/>
</g>
<defs>
<clipPath id="clip0_412_2508">
<rect width="24" height="24" fill="white" transform="translate(20 28)"/>
</clipPath>
</defs>
</svg>
