<svg width="245" height="235" viewBox="0 0 245 235" fill="none" xmlns="http://www.w3.org/2000/svg">
<g opacity="0.3">
<mask id="path-1-inside-1_412_2485" fill="white">
<path d="M210.682 57.5H233.682C239.205 57.5 243.682 61.9772 243.682 67.5V219.5C243.682 225.023 239.205 229.5 233.682 229.5H210.682V57.5Z"/>
</mask>
<path d="M210.682 57.5H233.682C239.205 57.5 243.682 61.9772 243.682 67.5V219.5C243.682 225.023 239.205 229.5 233.682 229.5H210.682V57.5Z" fill="#112540"/>
<path d="M237.126 227.817C237.636 227.606 238.222 227.848 238.434 228.358C238.642 228.862 238.408 229.437 237.911 229.655C237.846 229.683 237.779 229.707 237.713 229.733C236.793 230.096 235.813 230.342 234.792 230.444C234.427 230.481 234.057 230.5 233.682 230.5H230.807C230.255 230.5 229.807 230.052 229.807 229.5C229.807 228.948 230.255 228.5 230.807 228.5H233.682C233.899 228.5 234.113 228.489 234.326 228.474C234.57 228.456 234.811 228.433 235.048 228.396C235.098 228.389 235.148 228.379 235.198 228.37C235.291 228.354 235.383 228.339 235.474 228.32C235.548 228.305 235.621 228.287 235.695 228.271C235.767 228.254 235.84 228.239 235.912 228.221C235.99 228.201 236.068 228.178 236.145 228.156C236.205 228.139 236.266 228.123 236.326 228.104C236.411 228.078 236.495 228.049 236.579 228.021C236.635 228.002 236.69 227.984 236.745 227.964C236.818 227.937 236.89 227.908 236.962 227.88C237.017 227.859 237.072 227.84 237.126 227.817ZM213.557 228.5C214.109 228.5 214.557 228.948 214.557 229.5C214.557 230.052 214.109 230.5 213.557 230.5H210.682V228.5H213.557ZM225.057 228.5C225.609 228.5 226.057 228.948 226.057 229.5C226.057 230.052 225.609 230.5 225.057 230.5H219.307C218.755 230.5 218.307 230.052 218.307 229.5C218.307 228.948 218.755 228.5 219.307 228.5H225.057ZM244.682 219.5C244.682 219.855 244.664 220.207 244.631 220.554C244.622 220.65 244.609 220.745 244.597 220.841C244.562 221.128 244.519 221.411 244.462 221.69C244.335 222.321 244.152 222.932 243.921 223.519C243.893 223.589 243.866 223.66 243.837 223.729C243.619 224.226 243.044 224.461 242.54 224.252C242.03 224.04 241.788 223.454 241.999 222.944C242.022 222.89 242.04 222.835 242.062 222.78C242.09 222.708 242.119 222.636 242.146 222.563C242.166 222.509 242.184 222.453 242.202 222.397C242.231 222.313 242.26 222.23 242.286 222.145C242.318 222.042 242.346 221.938 242.374 221.834C242.385 221.795 242.397 221.756 242.406 221.717C242.424 221.649 242.437 221.581 242.452 221.513C242.478 221.401 242.503 221.288 242.525 221.175C242.593 220.813 242.639 220.443 242.662 220.066C242.674 219.879 242.682 219.69 242.682 219.5V216.577C242.682 216.025 243.13 215.577 243.682 215.577C244.234 215.577 244.682 216.025 244.682 216.577V219.5ZM244.682 210.73C244.682 211.283 244.234 211.73 243.682 211.73C243.13 211.73 242.682 211.283 242.682 210.73V204.885C242.682 204.332 243.13 203.885 243.682 203.885C244.234 203.885 244.682 204.332 244.682 204.885V210.73ZM244.682 199.038C244.682 199.59 244.234 200.038 243.682 200.038C243.13 200.038 242.682 199.59 242.682 199.038V193.192C242.682 192.64 243.13 192.192 243.682 192.192C244.234 192.192 244.682 192.64 244.682 193.192V199.038ZM244.682 187.346C244.682 187.898 244.234 188.346 243.682 188.346C243.13 188.346 242.682 187.898 242.682 187.346V181.5C242.682 180.948 243.13 180.5 243.682 180.5C244.234 180.5 244.682 180.948 244.682 181.5V187.346ZM244.682 175.654C244.682 176.206 244.234 176.654 243.682 176.654C243.13 176.654 242.682 176.206 242.682 175.654V169.808C242.682 169.255 243.13 168.808 243.682 168.808C244.234 168.808 244.682 169.255 244.682 169.808V175.654ZM244.682 163.962C244.682 164.514 244.234 164.962 243.682 164.962C243.13 164.962 242.682 164.514 242.682 163.962V158.115C242.682 157.563 243.13 157.115 243.682 157.115C244.234 157.115 244.682 157.563 244.682 158.115V163.962ZM244.682 152.27C244.682 152.822 244.234 153.27 243.682 153.27C243.13 153.27 242.682 152.822 242.682 152.27V146.423C242.682 145.871 243.13 145.423 243.682 145.423C244.234 145.423 244.682 145.871 244.682 146.423V152.27ZM244.682 140.577C244.682 141.129 244.234 141.577 243.682 141.577C243.13 141.577 242.682 141.129 242.682 140.577V134.73C242.682 134.178 243.13 133.73 243.682 133.73C244.234 133.73 244.682 134.178 244.682 134.73V140.577ZM244.682 128.885C244.682 129.437 244.234 129.885 243.682 129.885C243.13 129.885 242.682 129.437 242.682 128.885V123.038C242.682 122.486 243.13 122.038 243.682 122.038C244.234 122.038 244.682 122.486 244.682 123.038V128.885ZM244.682 117.192C244.682 117.745 244.234 118.192 243.682 118.192C243.13 118.192 242.682 117.745 242.682 117.192V111.346C242.682 110.794 243.13 110.346 243.682 110.346C244.234 110.346 244.682 110.794 244.682 111.346V117.192ZM244.682 105.5C244.682 106.052 244.234 106.5 243.682 106.5C243.13 106.5 242.682 106.052 242.682 105.5V99.6543C242.682 99.102 243.13 98.6543 243.682 98.6543C244.234 98.6543 244.682 99.102 244.682 99.6543V105.5ZM244.682 93.8076C244.682 94.3599 244.234 94.8076 243.682 94.8076C243.13 94.8076 242.682 94.3599 242.682 93.8076V87.9619C242.682 87.4096 243.13 86.9619 243.682 86.9619C244.234 86.9619 244.682 87.4096 244.682 87.9619V93.8076ZM244.682 82.1152C244.682 82.6675 244.234 83.1152 243.682 83.1152C243.13 83.1152 242.682 82.6675 242.682 82.1152V76.2695C242.682 75.7172 243.13 75.2695 243.682 75.2695C244.234 75.2695 244.682 75.7172 244.682 76.2695V82.1152ZM244.682 70.4229C244.682 70.9751 244.234 71.4229 243.682 71.4229C243.13 71.4229 242.682 70.9751 242.682 70.4229V67.5C242.682 67.3473 242.678 67.1956 242.67 67.0449C242.667 66.9812 242.66 66.9179 242.656 66.8545C242.628 66.4644 242.578 66.0814 242.502 65.707C242.487 65.633 242.469 65.5597 242.452 65.4863C242.436 65.4136 242.421 65.3406 242.403 65.2686C242.373 65.152 242.34 65.0366 242.306 64.9219C242.299 64.8995 242.293 64.8768 242.286 64.8545C242.26 64.7694 242.231 64.6855 242.202 64.6016C242.183 64.5446 242.165 64.4871 242.145 64.4307C242.119 64.3593 242.089 64.2893 242.062 64.2188L241.999 64.0557L241.965 63.959C241.819 63.4735 242.062 62.9464 242.54 62.748C243.044 62.5395 243.619 62.7732 243.837 63.2695C243.864 63.335 243.889 63.4016 243.915 63.4678C244.148 64.0587 244.334 64.6734 244.462 65.3086C244.504 65.5136 244.539 65.7207 244.569 65.9297C244.59 66.0818 244.611 66.2347 244.626 66.3887C244.663 66.7541 244.682 67.1249 244.682 67.5V70.4229ZM233.682 56.5C234.057 56.5 234.427 56.5191 234.792 56.5557C235.813 56.6581 236.793 56.9037 237.713 57.2666C237.779 57.2927 237.846 57.3174 237.911 57.3447C238.408 57.5628 238.642 58.138 238.434 58.6416C238.235 59.12 237.708 59.3628 237.223 59.2168L237.127 59.1826L236.937 59.1094C236.873 59.0847 236.81 59.0584 236.746 59.0352C236.691 59.0152 236.635 58.9975 236.579 58.9785C236.495 58.95 236.411 58.9206 236.326 58.8945C236.266 58.8761 236.205 58.8609 236.145 58.8438C236.067 58.8218 235.99 58.7982 235.912 58.7783C235.84 58.76 235.767 58.7451 235.695 58.7285C235.621 58.7117 235.548 58.6937 235.474 58.6787C235.383 58.6603 235.291 58.6445 235.198 58.6289C235.148 58.6204 235.098 58.6102 235.048 58.6025C234.811 58.5664 234.57 58.5426 234.326 58.5254C234.113 58.5103 233.899 58.5 233.682 58.5H230.807C230.255 58.5 229.807 58.0523 229.807 57.5C229.807 56.9477 230.255 56.5 230.807 56.5H233.682ZM213.557 56.5C214.109 56.5 214.557 56.9477 214.557 57.5C214.557 58.0523 214.109 58.5 213.557 58.5H210.682V56.5H213.557ZM225.057 56.5C225.609 56.5 226.057 56.9477 226.057 57.5C226.057 58.0523 225.609 58.5 225.057 58.5H219.307C218.755 58.5 218.307 58.0523 218.307 57.5C218.307 56.9477 218.755 56.5 219.307 56.5H225.057Z" fill="#09AF8E" mask="url(#path-1-inside-1_412_2485)"/>
</g>
<g clip-path="url(#clip0_412_2485)">
<path opacity="0.2" d="M60.6819 38.5H106.682V229.5H60.6819V38.5Z" fill="#627EEA"/>
<line opacity="0.1" x1="-14.4475" y1="82.0163" x2="149.76" y2="38.0171" stroke="white"/>
<line opacity="0.1" x1="-10.5652" y1="96.5053" x2="153.642" y2="52.5061" stroke="white"/>
<line opacity="0.1" x1="-2.80055" y1="125.483" x2="161.407" y2="81.4836" stroke="white"/>
<line opacity="0.1" x1="-6.68288" y1="110.994" x2="157.525" y2="66.9949" stroke="white"/>
<line opacity="0.1" x1="1.08177" y1="139.972" x2="165.289" y2="95.9726" stroke="white"/>
<line opacity="0.1" x1="24.3752" y1="226.905" x2="188.583" y2="182.906" stroke="white"/>
<line opacity="0.1" x1="4.9641" y1="154.461" x2="169.171" y2="110.462" stroke="white"/>
<line opacity="0.1" x1="16.6108" y1="197.927" x2="180.818" y2="153.928" stroke="white"/>
<line opacity="0.1" x1="12.7285" y1="183.438" x2="176.936" y2="139.439" stroke="white"/>
<line opacity="0.1" x1="8.84618" y1="168.95" x2="173.054" y2="124.95" stroke="white"/>
<line opacity="0.1" x1="20.4929" y1="212.416" x2="184.7" y2="168.417" stroke="white"/>
<line opacity="0.1" x1="28.2576" y1="241.394" x2="192.465" y2="197.395" stroke="white"/>
<g clip-path="url(#clip1_412_2485)">
<path d="M83.6819 147.5C90.8616 147.5 96.6819 141.68 96.6819 134.5C96.6819 127.32 90.8616 121.5 83.6819 121.5C76.5022 121.5 70.6819 127.32 70.6819 134.5C70.6819 141.68 76.5022 147.5 83.6819 147.5Z" fill="#627EEA"/>
<path d="M84.0867 124.75V131.957L90.178 134.679L84.0867 124.75Z" fill="white" fill-opacity="0.602"/>
<path d="M84.0865 124.75L77.9944 134.679L84.0865 131.957V124.75Z" fill="white"/>
<path d="M84.0867 139.349V144.246L90.182 135.813L84.0867 139.349Z" fill="white" fill-opacity="0.602"/>
<path d="M84.0865 144.246V139.348L77.9944 135.813L84.0865 144.246Z" fill="white"/>
<path d="M84.0867 138.216L90.178 134.679L84.0867 131.958V138.216Z" fill="white" fill-opacity="0.2"/>
<path d="M77.9944 134.679L84.0865 138.216V131.958L77.9944 134.679Z" fill="white" fill-opacity="0.602"/>
</g>
</g>
<rect x="31.6819" y="5.771" width="65" height="27" rx="13.5" transform="rotate(-2 31.6819 5.771)" fill="#212367"/>
<path d="M42.6615 14.8493C42.9653 14.8387 43.2581 14.8564 43.5399 14.9026C43.8217 14.9488 44.0926 15.0274 44.3526 15.1384C44.6126 15.2494 44.8574 15.381 45.0868 15.533C45.3163 15.6851 45.5306 15.8618 45.7297 16.0629L44.9315 16.9313C44.3247 16.2881 43.5816 15.9818 42.7021 16.0126C41.8386 16.0427 41.1378 16.3754 40.5996 17.0105C40.3227 17.3324 40.1188 17.6837 39.9881 18.0645C39.8573 18.4453 39.7995 18.8556 39.8149 19.2953C39.8303 19.735 39.9165 20.1403 40.0735 20.511C40.2305 20.8818 40.4584 21.218 40.7571 21.5198C41.3383 22.1159 42.0606 22.3988 42.9241 22.3687C43.8035 22.338 44.5236 21.9846 45.0844 21.3086L45.9284 22.0957C45.752 22.318 45.5547 22.513 45.3364 22.6807C45.1181 22.8484 44.8792 22.9968 44.6195 23.126C44.1159 23.3757 43.5643 23.511 42.9647 23.532C41.7654 23.5739 40.7552 23.1849 39.9341 22.365C39.5355 21.9547 39.2274 21.4972 39.0096 20.9925C38.7999 20.4875 38.6845 19.9352 38.6636 19.3355C38.6424 18.7279 38.7189 18.1689 38.8932 17.6585C39.0752 17.1398 39.3549 16.6658 39.7321 16.2363C40.4857 15.3535 41.4622 14.8911 42.6615 14.8493ZM49.6205 18.1724C49.0768 18.1914 48.6396 18.3948 48.309 18.7826C48.1478 18.9803 48.0274 19.2006 47.9478 19.4436C47.868 19.6785 47.8329 19.9359 47.8427 20.2157C47.862 20.7674 48.0503 21.2331 48.4078 21.6128C48.7647 21.9766 49.215 22.149 49.7587 22.13C50.3023 22.111 50.7395 21.9076 51.0702 21.5199C51.2394 21.3218 51.3599 21.1055 51.4317 20.8709C51.5113 20.6279 51.5462 20.3666 51.5364 20.0867C51.5169 19.5271 51.3285 19.0614 50.9713 18.6896C50.6144 18.3258 50.1641 18.1534 49.6205 18.1724ZM49.5798 17.0091C50.4353 16.9793 51.1615 17.2581 51.7584 17.8456C52.3472 18.4334 52.657 19.1671 52.6877 20.0465C52.7182 20.918 52.4603 21.6714 51.9142 22.3069C51.3597 22.9346 50.6548 23.2634 49.7993 23.2933C48.9438 23.3232 48.2176 23.0443 47.6208 22.4568C47.0316 21.861 46.7218 21.1274 46.6914 20.2559C46.6607 19.3765 46.9185 18.623 47.465 17.9955C48.0194 17.3678 48.7244 17.039 49.5798 17.0091ZM53.7135 14.6074L54.8767 14.5668L55.1699 22.9617L54.0066 23.0023L53.7135 14.6074ZM56.4188 14.5129L57.5821 14.4723L57.8753 22.8672L56.712 22.9078L56.4188 14.5129ZM63.7772 16.6574L64.8565 16.6197L65.0659 22.6161L63.9866 22.6538L63.9581 21.8383C63.9355 21.8791 63.9089 21.92 63.8783 21.9611C63.8558 22.002 63.829 22.0389 63.7982 22.072C63.3675 22.5753 62.7804 22.84 62.0368 22.866C61.1813 22.8958 60.4671 22.6166 59.8943 22.0282C59.3131 21.4321 59.0073 20.6984 58.9769 19.8269C58.9462 18.9474 59.2 18.1941 59.7385 17.5669C60.2689 16.94 60.9619 16.6117 61.8174 16.5818C62.5609 16.5558 63.1653 16.7869 63.6307 17.2749C63.6717 17.3055 63.705 17.3404 63.7304 17.3795C63.7557 17.4186 63.781 17.4538 63.8061 17.4849L63.7772 16.6574ZM61.9295 17.7306C61.3858 17.7496 60.9488 17.9569 60.6184 18.3527C60.28 18.7488 60.1206 19.2266 60.1402 19.7863C60.1597 20.3459 60.3521 20.8115 60.7173 21.183C61.0745 21.5547 61.5249 21.7311 62.0686 21.7121C62.6042 21.6934 63.0293 21.4865 63.3437 21.0913C63.5049 20.8935 63.6214 20.6773 63.6932 20.4427C63.7728 20.1997 63.8077 19.9384 63.7979 19.6585C63.7879 19.3707 63.7348 19.1124 63.6388 18.8836C63.5508 18.6546 63.4194 18.447 63.2448 18.261C62.9036 17.8887 62.4652 17.7119 61.9295 17.7306ZM66.7653 14.6799L67.9286 14.6393L67.9939 16.5102L69.7209 16.4499L69.7611 17.6012L68.0341 17.6615L68.115 19.9761C68.1284 20.3598 68.2716 20.679 68.5446 20.9337C68.8177 21.1883 69.1461 21.3089 69.5299 21.2955L69.8777 21.2834L69.9183 22.4466L69.5705 22.4588C68.8749 22.4831 68.2706 22.256 67.7576 21.7776C67.2446 21.2993 66.976 20.7123 66.9517 20.0167L66.8708 17.7021L65.8635 17.7373L65.8233 16.586L66.8306 16.5508L66.7653 14.6799ZM76.3692 19.6998L71.8359 19.8581C71.8914 20.0723 71.9662 20.2658 72.0603 20.4387C72.1624 20.6112 72.2918 20.7628 72.4484 20.8934C72.7946 21.1775 73.1995 21.3114 73.6632 21.2952C74.3428 21.2715 74.8678 21.0611 75.2381 20.6639L76.0825 21.4629C75.4961 22.0918 74.7032 22.4236 73.7038 22.4585C72.8403 22.4887 72.1062 22.2101 71.5013 21.6229C70.8962 21.0277 70.5784 20.2943 70.5479 19.4228C70.5172 18.5434 70.7751 17.7899 71.3215 17.1625C71.876 16.5347 72.5809 16.2059 73.4364 16.176C74.2759 16.1467 74.9619 16.423 75.4946 17.0047C76.0349 17.5782 76.3209 18.3167 76.3524 19.2201L76.3692 19.6998ZM73.4634 17.2918C73.0076 17.3077 72.625 17.4691 72.3156 17.7761C72.0215 18.0666 71.8461 18.4289 71.7892 18.8632L75.0752 18.7484C74.9876 18.3032 74.8111 17.9491 74.5458 17.6862C74.2719 17.4076 73.9111 17.2761 73.4634 17.2918ZM77.3375 16.1839L78.4529 16.145L78.483 17.0084C78.5059 16.9756 78.5328 16.9426 78.5636 16.9096C78.5942 16.8685 78.6249 16.8314 78.6558 16.7983C78.8487 16.5914 79.0667 16.4157 79.3098 16.2711C79.6866 16.0578 80.1228 15.9425 80.6185 15.9252L80.6591 17.0885C80.0915 17.1084 79.6141 17.3051 79.2269 17.6789C78.832 18.0609 78.6246 18.5404 78.6047 19.1175L78.7102 22.1396L77.5469 22.1802L77.3375 16.1839ZM86.0995 15.8779L87.1789 15.8402L87.3883 21.8366L86.3089 21.8743L86.2804 21.0588C86.2579 21.0996 86.2313 21.1405 86.2007 21.1816C86.1781 21.2224 86.1514 21.2594 86.1205 21.2925C85.6898 21.7958 85.1027 22.0605 84.3591 22.0864C83.5037 22.1163 82.7895 21.8371 82.2166 21.2487C81.6354 20.6526 81.3296 19.9189 81.2992 19.0474C81.2685 18.1679 81.5224 17.4146 82.0608 16.7874C82.5912 16.1605 83.2842 15.8321 84.1397 15.8023C84.8832 15.7763 85.4877 16.0074 85.953 16.4954C85.9941 16.526 86.0273 16.5609 86.0527 16.6C86.0781 16.6391 86.1033 16.6743 86.1284 16.7054L86.0995 15.8779ZM84.2518 16.9511C83.7082 16.97 83.2711 17.1774 82.9408 17.5732C82.6024 17.9692 82.443 18.4471 82.4625 19.0068C82.482 19.5664 82.6744 20.032 83.0396 20.4035C83.3968 20.7752 83.8472 20.9516 84.3909 20.9326C84.9266 20.9139 85.3516 20.707 85.666 20.3118C85.8272 20.114 85.9437 19.8978 86.0156 19.6632C86.0951 19.4202 86.13 19.1589 86.1203 18.879C86.1102 18.5912 86.0572 18.3329 85.9611 18.1041C85.8731 17.875 85.7418 17.6675 85.5672 17.4815C85.226 17.1092 84.7875 16.9324 84.2518 16.9511ZM88.6375 13.3878L89.8008 13.3472L90.0939 21.7421L88.9306 21.7827L88.6375 13.3878Z" fill="white"/>
<rect x="44.6243" y="23.5022" width="93" height="27" rx="13.5" transform="rotate(2 44.6243 23.5022)" fill="#627EEA"/>
<path d="M53.0318 33.4017L54.1831 33.4419L53.89 41.8368L52.7387 41.7966L52.9791 34.9128L51.5965 35.9932L50.8839 35.0798L53.0318 33.4017ZM59.1167 42.0193L59.4099 33.6244L64.5307 33.8033L64.4901 34.9666L60.5205 34.8279L60.4372 37.2145L63.6153 37.3255L63.5751 38.4768L60.397 38.3658L60.3086 40.8962L64.2782 41.0349L64.2376 42.1982L59.1167 42.0193ZM65.5842 33.8401L72.0723 34.0666L72.0317 35.2299L69.3693 35.1369L69.1167 42.3685L67.9535 42.3279L68.206 35.0963L65.5436 35.0033L65.5842 33.8401ZM72.9598 42.5027L73.253 34.1079L74.4043 34.1481L74.282 37.6499L78.6114 37.8011L78.7337 34.2992L79.8969 34.3399L79.6038 42.7348L78.4405 42.6941L78.5707 38.9644L74.2414 38.8132L74.1111 42.5429L72.9598 42.5027ZM86.5191 33.3824L87.343 34.2036C87.06 34.514 86.8082 34.8454 86.5878 35.1979C86.3756 35.5427 86.1866 35.9123 86.0208 36.3068C85.8629 36.7015 85.7368 37.1014 85.6427 37.5063C85.5567 37.9036 85.5064 38.3141 85.4916 38.7378C85.4773 39.1455 85.4991 39.5546 85.5568 39.9648C85.6148 40.3671 85.7089 40.7666 85.8391 41.1634C86.0916 41.9567 86.4707 42.6784 86.9763 43.3284L86.143 44.1518C85.8364 43.7649 85.5663 43.3592 85.333 42.9348C85.0997 42.5104 84.9032 42.0633 84.7435 41.5934C84.5918 41.1238 84.4803 40.6477 84.4091 40.1649C84.3379 39.6821 84.311 39.1929 84.3283 38.6972C84.3632 37.6978 84.5685 36.7484 84.9441 35.8489C85.1362 35.3914 85.3635 34.955 85.6262 34.5399C85.8888 34.1249 86.1865 33.739 86.5191 33.3824ZM90.4852 33.617L91.6484 33.6576L91.6129 34.677C91.7956 34.7154 91.966 34.7653 92.1239 34.8269C92.2819 34.8884 92.4271 34.9695 92.5597 35.0702C92.9974 35.3737 93.2837 35.7719 93.4185 36.2649L92.2915 36.5618C92.2122 36.3109 92.0628 36.1175 91.8435 35.9818C91.6243 35.8381 91.3429 35.7602 90.9991 35.7482C90.5833 35.7337 90.2479 35.826 89.9928 36.0252C89.7214 36.2319 89.5797 36.5071 89.5677 36.8509C89.5585 37.1147 89.6505 37.3461 89.8437 37.545C90.0757 37.7772 90.454 37.9465 90.9786 38.0529C91.7654 38.2164 92.4068 38.531 92.9029 38.9966C93.3909 39.4619 93.6227 40.0464 93.5981 40.7499C93.5724 41.4855 93.283 42.0958 92.7297 42.5807C92.3331 42.9351 91.8613 43.1508 91.3142 43.2277L91.2791 44.2351L90.1158 44.1945L90.1514 43.1751C89.9606 43.1364 89.7785 43.0781 89.6052 43C89.4318 42.9219 89.267 42.828 89.1107 42.7185C88.6347 42.3657 88.3221 41.9185 88.1729 41.377L89.288 41.0797C89.3813 41.3872 89.561 41.6296 89.8269 41.807C90.1006 41.9926 90.4173 42.0917 90.7771 42.1043C91.2329 42.1202 91.6214 41.9977 91.9427 41.7368C92.2642 41.4678 92.4323 41.1255 92.4468 40.7097C92.4597 40.342 92.3226 40.025 92.0358 39.7588C91.7332 39.4841 91.3315 39.2939 90.8309 39.1884C90.0998 39.0348 89.509 38.762 89.0584 38.3701C88.6078 37.9781 88.3938 37.4583 88.4164 36.8107C88.4279 36.4829 88.4983 36.1852 88.6277 35.9175C88.7654 35.6422 88.9581 35.3967 89.2058 35.1813C89.5522 34.8892 89.9668 34.7075 90.4496 34.6363L90.4852 33.617ZM97.4674 34.8094C98.155 34.8334 98.739 35.0739 99.2193 35.5309C99.6917 35.9877 99.9164 36.5439 99.8935 37.1995C99.8882 37.3514 99.8629 37.5026 99.8176 37.6531C99.7726 37.7956 99.7035 37.9413 99.6102 38.0901C99.4237 38.3878 99.1538 38.6666 98.8006 38.9264C99.16 39.1791 99.4539 39.4735 99.6823 39.8097C99.925 40.1944 100.039 40.5986 100.024 41.0224C99.999 41.7419 99.71 42.3402 99.157 42.8172C98.6043 43.2862 97.9482 43.5074 97.1886 43.4809C96.6449 43.4619 96.1421 43.3043 95.6802 43.008C95.4531 42.864 95.2588 42.6971 95.0973 42.5073C94.9441 42.3099 94.8196 42.0934 94.7238 41.8579L95.8169 41.4998C95.8687 41.6217 95.9409 41.7323 96.0335 41.8316C96.1261 41.9309 96.2392 42.0149 96.3729 42.0836C96.5063 42.1603 96.6443 42.2211 96.7868 42.2661C96.9296 42.3032 97.0769 42.3243 97.2288 42.3296C97.6686 42.345 98.0489 42.2262 98.37 41.9732C98.691 41.7203 98.8587 41.3859 98.8733 40.9702C98.8878 40.5544 98.7399 40.2051 98.4296 39.922C98.1273 39.6393 97.7602 39.4904 97.3285 39.4754L96.5969 39.4498L96.6376 38.2865L97.3691 38.3121C97.7289 38.3246 98.0445 38.2276 98.3159 38.0209C98.5875 37.8063 98.7295 37.5231 98.7418 37.1713C98.7541 36.8195 98.6319 36.535 98.3753 36.318C98.1187 36.1009 97.8026 35.9858 97.4268 35.9726C97.2829 35.9676 97.1424 35.9787 97.0054 36.006C96.8683 36.0332 96.7426 36.0808 96.6282 36.1489C96.3921 36.2607 96.2262 36.427 96.1304 36.6478L95.0653 36.2024C95.2486 35.7685 95.5648 35.4233 96.0141 35.1669C96.4633 34.9104 96.9477 34.7912 97.4674 34.8094ZM101.641 42.2315L102.841 42.2734C102.805 43.3048 102.486 44.1782 101.885 44.8937L100.841 44.8572C101.095 44.4578 101.286 44.0362 101.414 43.5924C101.549 43.1569 101.625 42.7033 101.641 42.2315ZM107.305 36.3176C107.121 36.3112 106.944 36.329 106.774 36.3711C106.613 36.4055 106.459 36.4682 106.312 36.5591C106.173 36.6423 106.041 36.7457 105.916 36.8695C105.8 36.9855 105.696 37.1179 105.602 37.2668C105.517 37.4239 105.439 37.5853 105.369 37.7509C105.308 37.9169 105.253 38.0911 105.207 38.2736C105.161 38.4561 105.122 38.6428 105.091 38.8339C105.061 39.0169 105.042 39.2124 105.035 39.4203C105.028 39.6201 105.033 39.8164 105.05 40.0092C105.068 40.2019 105.093 40.3909 105.127 40.5762C105.16 40.7615 105.202 40.939 105.252 41.1089C105.31 41.279 105.376 41.4454 105.451 41.6081C105.533 41.7631 105.629 41.9025 105.736 42.0263C105.852 42.1504 105.976 42.2629 106.109 42.3635C106.39 42.5575 106.715 42.6609 107.083 42.6737C107.274 42.6804 107.451 42.6666 107.612 42.6322C107.782 42.5901 107.936 42.5234 108.076 42.4322C108.223 42.3413 108.355 42.2378 108.471 42.1218C108.595 42.0061 108.7 41.8737 108.785 41.7245C108.878 41.5677 108.96 41.4065 109.03 41.2408C109.1 41.0751 109.158 40.9011 109.204 40.7186C109.251 40.5361 109.285 40.3492 109.308 40.1578C109.33 39.9665 109.345 39.7709 109.352 39.571C109.36 39.3632 109.358 39.167 109.349 38.9826C109.34 38.7901 109.318 38.6012 109.285 38.416C109.251 38.2307 109.205 38.053 109.147 37.8828C109.089 37.7127 109.019 37.5462 108.936 37.3832C108.862 37.2285 108.767 37.0891 108.651 36.965C108.543 36.8331 108.419 36.7207 108.278 36.6278C108.005 36.4341 107.68 36.3307 107.305 36.3176ZM107.345 35.1543C107.985 35.1766 108.542 35.3802 109.017 35.765C109.321 35.9918 109.576 36.2648 109.781 36.5842C109.994 36.8958 110.162 37.2539 110.284 37.6584C110.369 37.9655 110.43 38.2839 110.466 38.6133C110.511 38.9351 110.528 39.2679 110.516 39.6117C110.504 39.9554 110.464 40.2903 110.396 40.6161C110.337 40.9342 110.254 41.2435 110.148 41.544C109.998 41.939 109.806 42.2885 109.571 42.5925C109.344 42.8888 109.072 43.1394 108.752 43.3444C108.252 43.6951 107.682 43.8593 107.042 43.837C106.402 43.8147 105.845 43.6111 105.37 43.2263C105.074 42.9998 104.819 42.7308 104.606 42.4191C104.401 42.0998 104.242 41.738 104.128 41.3338C104.034 41.0263 103.965 40.7117 103.92 40.39C103.884 40.0605 103.872 39.7239 103.884 39.3801C103.896 39.0363 103.931 38.7053 103.99 38.3872C104.058 38.0613 104.149 37.7483 104.263 37.4481C104.405 37.0528 104.589 36.7071 104.816 36.4108C105.051 36.1068 105.324 35.8522 105.635 35.6469C106.135 35.2962 106.706 35.132 107.345 35.1543ZM114.929 36.5838C114.745 36.5774 114.568 36.5953 114.399 36.6374C114.237 36.6718 114.083 36.7344 113.936 36.8253C113.797 36.9085 113.665 37.012 113.541 37.1357C113.425 37.2517 113.32 37.3842 113.227 37.533C113.141 37.6901 113.063 37.8515 112.994 38.0172C112.932 38.1831 112.878 38.3573 112.831 38.5398C112.785 38.7223 112.746 38.9091 112.716 39.1001C112.685 39.2832 112.666 39.4786 112.659 39.6865C112.652 39.8864 112.657 40.0827 112.675 40.2754C112.692 40.4681 112.717 40.6571 112.751 40.8424C112.784 41.0277 112.826 41.2053 112.876 41.3751C112.934 41.5453 113.001 41.7117 113.075 41.8744C113.158 42.0293 113.253 42.1687 113.361 42.2926C113.476 42.4167 113.601 42.5291 113.733 42.6298C114.014 42.8237 114.339 42.9271 114.707 42.94C114.899 42.9467 115.075 42.9328 115.237 42.8984C115.406 42.8563 115.561 42.7897 115.7 42.6985C115.847 42.6075 115.979 42.5041 116.095 42.3881C116.219 42.2723 116.324 42.1399 116.409 41.9908C116.503 41.834 116.584 41.6727 116.654 41.507C116.724 41.3414 116.782 41.1673 116.828 40.9848C116.875 40.8023 116.909 40.6154 116.932 40.4241C116.955 40.2328 116.97 40.0372 116.977 39.8373C116.984 39.6294 116.983 39.4332 116.973 39.2488C116.964 39.0564 116.942 38.8675 116.909 38.6822C116.875 38.4969 116.829 38.3192 116.771 38.1491C116.713 37.979 116.643 37.8124 116.561 37.6494C116.486 37.4947 116.391 37.3553 116.275 37.2312C116.168 37.0994 116.043 36.987 115.903 36.894C115.629 36.7003 115.305 36.597 114.929 36.5838ZM114.969 35.4205C115.609 35.4429 116.166 35.6464 116.641 36.0313C116.945 36.258 117.2 36.5311 117.405 36.8504C117.618 37.162 117.786 37.5201 117.908 37.9246C117.993 38.2318 118.054 38.5501 118.091 38.8796C118.135 39.2013 118.152 39.5341 118.14 39.8779C118.128 40.2217 118.088 40.5565 118.021 40.8824C117.962 41.2005 117.879 41.5098 117.772 41.8102C117.622 42.2053 117.43 42.5548 117.195 42.8587C116.969 43.155 116.696 43.4057 116.376 43.6106C115.876 43.9614 115.306 44.1256 114.666 44.1032C114.027 44.0809 113.469 43.8773 112.995 43.4925C112.698 43.2661 112.443 42.997 112.23 42.6854C112.025 42.366 111.866 42.0042 111.752 41.6C111.658 41.2926 111.589 40.978 111.545 40.6562C111.508 40.3267 111.496 39.9901 111.508 39.6463C111.52 39.3025 111.555 38.9716 111.615 38.6534C111.682 38.3276 111.773 38.0146 111.888 37.7144C112.029 37.3191 112.214 36.9733 112.44 36.677C112.675 36.373 112.948 36.1184 113.259 35.9132C113.76 35.5624 114.33 35.3982 114.969 35.4205ZM122.553 36.8501C122.369 36.8437 122.192 36.8615 122.023 36.9036C121.862 36.938 121.707 37.0007 121.56 37.0916C121.421 37.1748 121.289 37.2782 121.165 37.402C121.049 37.518 120.944 37.6504 120.851 37.7992C120.765 37.9564 120.688 38.1177 120.618 38.2834C120.556 38.4494 120.502 38.6236 120.456 38.8061C120.409 38.9886 120.371 39.1753 120.34 39.3664C120.31 39.5494 120.291 39.7449 120.283 39.9528C120.276 40.1526 120.282 40.3489 120.299 40.5417C120.316 40.7344 120.342 40.9234 120.375 41.1087C120.409 41.2939 120.451 41.4715 120.501 41.6414C120.559 41.8115 120.625 41.9779 120.699 42.1406C120.782 42.2956 120.877 42.435 120.985 42.5588C121.101 42.6829 121.225 42.7953 121.357 42.896C121.639 43.09 121.963 43.1934 122.331 43.2062C122.523 43.2129 122.7 43.1991 122.861 43.1647C123.03 43.1226 123.185 43.0559 123.324 42.9647C123.471 42.8738 123.603 42.7703 123.719 42.6543C123.843 42.5386 123.948 42.4061 124.033 42.257C124.127 42.1002 124.208 41.9389 124.278 41.7733C124.348 41.6076 124.406 41.4335 124.453 41.2511C124.499 41.0686 124.534 40.8817 124.556 40.6903C124.579 40.499 124.594 40.3034 124.601 40.1035C124.608 39.8956 124.607 39.6995 124.597 39.515C124.588 39.3226 124.567 39.1337 124.533 38.9485C124.499 38.7632 124.454 38.5855 124.396 38.4153C124.337 38.2452 124.267 38.0786 124.185 37.9157C124.11 37.761 124.015 37.6216 123.899 37.4975C123.792 37.3656 123.668 37.2532 123.527 37.1602C123.253 36.9666 122.929 36.8632 122.553 36.8501ZM122.594 35.6868C123.233 35.7091 123.791 35.9127 124.265 36.2975C124.57 36.5243 124.824 36.7973 125.029 37.1167C125.243 37.4283 125.41 37.7864 125.532 38.1909C125.617 38.498 125.678 38.8163 125.715 39.1458C125.76 39.4676 125.776 39.8004 125.764 40.1441C125.752 40.4879 125.712 40.8228 125.645 41.1486C125.586 41.4667 125.503 41.776 125.396 42.0765C125.247 42.4715 125.054 42.821 124.819 43.125C124.593 43.4213 124.32 43.6719 124.001 43.8769C123.5 44.2276 122.93 44.3918 122.29 44.3695C121.651 44.3472 121.094 44.1436 120.619 43.7588C120.323 43.5323 120.068 43.2632 119.854 42.9516C119.65 42.6323 119.49 42.2705 119.376 41.8663C119.283 41.5588 119.214 41.2442 119.169 40.9225C119.132 40.593 119.12 40.2563 119.132 39.9126C119.144 39.5688 119.18 39.2378 119.239 38.9197C119.306 38.5938 119.397 38.2808 119.512 37.9806C119.654 37.5853 119.838 37.2396 120.064 36.9433C120.299 36.6393 120.572 36.3847 120.883 36.1794C121.384 35.8287 121.954 35.6644 122.594 35.6868ZM127.808 34.8242C128.123 35.2035 128.393 35.6091 128.618 36.0412C128.851 36.4736 129.047 36.9248 129.207 37.3946C129.367 37.8645 129.478 38.3407 129.541 38.8232C129.613 39.2979 129.64 39.7832 129.623 40.2789C129.605 40.7746 129.544 41.2608 129.44 41.7374C129.343 42.2143 129.199 42.6816 129.006 43.1391C128.63 44.0546 128.105 44.8727 127.432 45.5937C127.432 45.5937 127.428 45.5855 127.421 45.5693C127.413 45.561 127.386 45.532 127.34 45.4824C127.293 45.4327 127.216 45.346 127.109 45.2222C127.009 45.0986 126.863 44.9294 126.67 44.7145C127.212 44.1011 127.64 43.4076 127.955 42.6341C128.271 41.8607 128.443 41.0622 128.471 40.2387C128.486 39.8149 128.465 39.4019 128.407 38.9997C128.349 38.5894 128.251 38.1817 128.113 37.7767C127.983 37.3719 127.816 36.9898 127.613 36.6305C127.417 36.2635 127.189 35.9153 126.929 35.586C126.929 35.586 126.933 35.5822 126.941 35.5744C126.958 35.559 126.991 35.5321 127.04 35.4938C127.09 35.4475 127.176 35.3745 127.3 35.2748C127.424 35.167 127.593 35.0169 127.808 34.8242Z" fill="white"/>
<g clip-path="url(#clip2_412_2485)">
<path d="M165.682 57.5H211.682V229.5H165.682V57.5Z" fill="#212367"/>
<line opacity="0.1" x1="101.199" y1="144.483" x2="265.407" y2="100.483" stroke="white"/>
<line opacity="0.1" x1="97.3171" y1="129.994" x2="261.525" y2="85.9946" stroke="white"/>
<line opacity="0.1" x1="101.199" y1="115.483" x2="265.407" y2="71.4834" stroke="white"/>
<line opacity="0.1" x1="97.3171" y1="100.994" x2="261.525" y2="56.9946" stroke="white"/>
<line opacity="0.1" x1="97.4487" y1="86.0163" x2="261.656" y2="42.0171" stroke="white"/>
<line opacity="0.1" x1="105.082" y1="158.972" x2="269.289" y2="114.972" stroke="white"/>
<line opacity="0.1" x1="128.375" y1="245.905" x2="292.583" y2="201.906" stroke="white"/>
<line opacity="0.1" x1="108.964" y1="173.46" x2="273.171" y2="129.461" stroke="white"/>
<line opacity="0.1" x1="120.611" y1="216.927" x2="284.818" y2="172.928" stroke="white"/>
<line opacity="0.1" x1="116.729" y1="202.438" x2="280.936" y2="158.439" stroke="white"/>
<line opacity="0.1" x1="112.846" y1="187.949" x2="277.054" y2="143.95" stroke="white"/>
<line opacity="0.1" x1="124.493" y1="231.416" x2="288.7" y2="187.417" stroke="white"/>
<g clip-path="url(#clip3_412_2485)">
<path d="M188.682 157.5C195.886 157.5 201.682 151.704 201.682 144.5C201.682 137.296 195.886 131.5 188.682 131.5C181.478 131.5 175.682 137.296 175.682 144.5C175.682 151.704 181.478 157.5 188.682 157.5Z" fill="#2775CA"/>
<path d="M192.257 146.558C192.257 144.663 191.119 144.013 188.844 143.742C187.219 143.525 186.894 143.092 186.894 142.333C186.894 141.575 187.436 141.088 188.519 141.088C189.494 141.088 190.036 141.413 190.307 142.225C190.361 142.388 190.524 142.496 190.686 142.496H191.553C191.769 142.496 191.932 142.333 191.932 142.117V142.063C191.715 140.871 190.74 139.95 189.494 139.842V138.542C189.494 138.325 189.332 138.163 189.061 138.108H188.249C188.032 138.108 187.869 138.271 187.815 138.542V139.788C186.19 140.004 185.161 141.088 185.161 142.442C185.161 144.229 186.244 144.933 188.519 145.204C190.036 145.475 190.524 145.8 190.524 146.667C190.524 147.534 189.765 148.129 188.736 148.129C187.328 148.129 186.84 147.533 186.678 146.721C186.624 146.504 186.461 146.396 186.299 146.396H185.378C185.161 146.396 184.999 146.558 184.999 146.775V146.829C185.215 148.183 186.082 149.158 187.869 149.429V150.729C187.869 150.946 188.032 151.108 188.303 151.163H189.115C189.332 151.163 189.494 151 189.549 150.729V149.429C191.174 149.158 192.257 148.021 192.257 146.558Z" fill="white"/>
<path d="M185.919 152.246C181.694 150.729 179.528 146.017 181.099 141.846C181.911 139.571 183.699 137.838 185.919 137.025C186.136 136.917 186.244 136.754 186.244 136.483V135.725C186.244 135.508 186.136 135.346 185.919 135.292C185.865 135.292 185.757 135.292 185.703 135.346C180.557 136.971 177.74 142.442 179.365 147.588C180.34 150.621 182.669 152.95 185.703 153.925C185.919 154.033 186.136 153.925 186.19 153.708C186.244 153.654 186.244 153.6 186.244 153.492V152.733C186.244 152.571 186.082 152.354 185.919 152.246ZM191.661 135.346C191.444 135.238 191.228 135.346 191.174 135.563C191.119 135.617 191.119 135.671 191.119 135.779V136.538C191.119 136.754 191.282 136.971 191.444 137.079C195.669 138.596 197.836 143.308 196.265 147.479C195.453 149.754 193.665 151.488 191.444 152.3C191.228 152.408 191.119 152.571 191.119 152.842V153.6C191.119 153.817 191.228 153.979 191.444 154.033C191.499 154.033 191.607 154.033 191.661 153.979C196.807 152.354 199.624 146.883 197.999 141.738C197.024 138.65 194.64 136.321 191.661 135.346Z" fill="white"/>
</g>
</g>
<rect x="144.682" y="26.8962" width="40" height="27" rx="13.5" transform="rotate(-2 144.682 26.8962)" fill="#212367"/>
<path d="M152.35 44.6394L152.057 36.2445L153.208 36.2043L153.461 43.4359L157.418 43.2977L157.459 44.461L152.35 44.6394ZM160.887 39.3582C160.343 39.3772 159.906 39.5806 159.576 39.9683C159.414 40.1661 159.294 40.3864 159.214 40.6293C159.135 40.8643 159.1 41.1217 159.109 41.4015C159.129 41.9531 159.317 42.4189 159.674 42.7986C160.031 43.1624 160.482 43.3348 161.025 43.3158C161.569 43.2968 162.006 43.0934 162.337 42.7056C162.506 42.5076 162.627 42.2913 162.698 42.0566C162.778 41.8137 162.813 41.5523 162.803 41.2725C162.784 40.7128 162.595 40.2471 162.238 39.8754C161.881 39.5116 161.431 39.3392 160.887 39.3582ZM160.847 38.1949C161.702 38.165 162.428 38.4439 163.025 39.0314C163.614 39.6192 163.924 40.3528 163.954 41.2323C163.985 42.1038 163.727 42.8572 163.181 43.4927C162.626 44.1204 161.921 44.4492 161.066 44.4791C160.21 44.5089 159.484 44.2301 158.887 43.6426C158.298 43.0468 157.989 42.3132 157.958 41.4417C157.927 40.5622 158.185 39.8088 158.732 39.1813C159.286 38.5536 159.991 38.2248 160.847 38.1949ZM169.633 38.0322L170.712 37.9945L170.922 43.9908L169.843 44.0285L169.814 43.213C169.791 43.2538 169.765 43.2948 169.734 43.3359C169.712 43.3767 169.685 43.4136 169.654 43.4467C169.223 43.9501 168.636 44.2147 167.893 44.2407C167.037 44.2706 166.323 43.9913 165.75 43.4029C165.169 42.8069 164.863 42.0731 164.833 41.2016C164.802 40.3222 165.056 39.5688 165.594 38.9417C166.125 38.3148 166.818 37.9864 167.673 37.9565C168.417 37.9305 169.021 38.1616 169.487 38.6496C169.528 38.6802 169.561 38.7151 169.586 38.7542C169.612 38.7934 169.637 38.8285 169.662 38.8597L169.633 38.0322ZM167.785 39.1053C167.242 39.1243 166.805 39.3317 166.474 39.7274C166.136 40.1235 165.977 40.6013 165.996 41.161C166.016 41.7207 166.208 42.1862 166.573 42.5577C166.93 42.9295 167.381 43.1059 167.924 43.0869C168.46 43.0682 168.885 42.8612 169.2 42.466C169.361 42.2682 169.477 42.052 169.549 41.8174C169.629 41.5745 169.664 41.3131 169.654 41.0333C169.644 40.7454 169.591 40.4871 169.495 40.2583C169.407 40.0293 169.275 39.8217 169.101 39.6357C168.76 39.2634 168.321 39.0866 167.785 39.1053ZM177.789 43.751L176.626 43.7916L176.514 40.5896C176.495 40.0459 176.34 39.6191 176.049 39.309C175.75 38.9993 175.385 38.8519 174.953 38.867C174.521 38.8821 174.171 39.0544 173.902 39.384C173.626 39.7218 173.497 40.1586 173.516 40.6943L173.628 43.8963L172.464 43.937L172.255 37.9406L173.37 37.9017L173.394 38.5972C173.409 38.5567 173.428 38.524 173.451 38.4992C173.482 38.4661 173.509 38.4371 173.532 38.4123C173.916 37.9586 174.424 37.7208 175.056 37.6987C175.792 37.673 176.405 37.9238 176.895 38.451C177.137 38.7147 177.324 39.0284 177.457 39.3919C177.589 39.7475 177.663 40.1452 177.678 40.5849L177.789 43.751Z" fill="white"/>
<rect x="157.624" y="46.5002" width="78" height="27" rx="13.5" transform="rotate(2 157.624 46.5002)" fill="#5069DD"/>
<path d="M166.229 56.2626C166.948 56.2877 167.559 56.5612 168.061 57.083C168.563 57.6128 168.801 58.2375 168.776 58.9571C168.753 59.6127 168.452 60.2266 167.871 60.7986L165 63.6041L168.646 63.7314L168.605 64.8947L163.316 64.7101L163.357 63.5468L167.022 60.0245C167.403 59.6456 167.6 59.2763 167.613 58.9165C167.628 58.4927 167.5 58.1441 167.229 57.8704C166.959 57.5808 166.62 57.4289 166.213 57.4147C165.853 57.4021 165.541 57.4913 165.279 57.6823C165.147 57.7737 165.035 57.8859 164.943 58.0187C164.858 58.1519 164.793 58.3057 164.746 58.4802L163.628 58.177C163.793 57.5904 164.113 57.1213 164.59 56.7697C165.075 56.4104 165.621 56.2413 166.229 56.2626ZM170.43 63.6857L171.629 63.7276C171.593 64.759 171.275 65.6324 170.673 66.3478L169.63 66.3114C169.884 65.912 170.075 65.4904 170.202 65.0466C170.338 64.611 170.414 64.1574 170.43 63.6857ZM172.73 57.7984L172.771 56.6351L178.479 56.8344L178.439 57.9977L174.385 65.0966L173.089 65.0513L177.144 57.9525L172.73 57.7984ZM182.617 57.9995C182.433 57.9931 182.256 58.011 182.086 58.0531C181.925 58.0875 181.771 58.1501 181.624 58.241C181.485 58.3242 181.353 58.4277 181.228 58.5514C181.112 58.6675 181.008 58.7999 180.914 58.9487C180.829 59.1058 180.751 59.2672 180.681 59.4329C180.62 59.5988 180.565 59.773 180.519 59.9555C180.473 60.138 180.434 60.3248 180.403 60.5158C180.373 60.6989 180.354 60.8943 180.347 61.1022C180.34 61.3021 180.345 61.4984 180.362 61.6911C180.38 61.8838 180.405 62.0728 180.439 62.2581C180.472 62.4434 180.514 62.621 180.564 62.7908C180.622 62.961 180.688 63.1274 180.763 63.2901C180.845 63.445 180.941 63.5845 181.048 63.7083C181.164 63.8324 181.288 63.9448 181.421 64.0455C181.702 64.2394 182.027 64.3428 182.395 64.3557C182.587 64.3624 182.763 64.3485 182.924 64.3141C183.094 64.272 183.248 64.2054 183.388 64.1142C183.535 64.0233 183.667 63.9198 183.783 63.8038C183.907 63.688 184.012 63.5556 184.097 63.4065C184.19 63.2497 184.272 63.0884 184.342 62.9227C184.412 62.7571 184.47 62.583 184.516 62.4005C184.563 62.218 184.597 62.0311 184.62 61.8398C184.642 61.6485 184.657 61.4529 184.664 61.253C184.672 61.0451 184.67 60.849 184.661 60.6645C184.652 60.4721 184.63 60.2832 184.597 60.0979C184.563 59.9126 184.517 59.7349 184.459 59.5648C184.401 59.3947 184.331 59.2281 184.248 59.0651C184.174 58.9104 184.079 58.771 183.963 58.6469C183.855 58.5151 183.731 58.4027 183.59 58.3097C183.317 58.1161 182.992 58.0127 182.617 57.9995ZM182.657 56.8362C183.297 56.8586 183.854 57.0622 184.329 57.447C184.633 57.6737 184.888 57.9468 185.093 58.2661C185.306 58.5778 185.474 58.9358 185.596 59.3403C185.681 59.6475 185.742 59.9658 185.778 60.2953C185.823 60.617 185.84 60.9498 185.828 61.2936C185.816 61.6374 185.776 61.9722 185.708 62.2981C185.649 62.6162 185.566 62.9255 185.46 63.226C185.31 63.621 185.118 63.9705 184.883 64.2745C184.657 64.5707 184.384 64.8214 184.064 65.0263C183.564 65.3771 182.994 65.5413 182.354 65.519C181.714 65.4966 181.157 65.2931 180.682 64.9082C180.386 64.6818 180.131 64.4127 179.918 64.1011C179.713 63.7817 179.554 63.4199 179.44 63.0157C179.346 62.7083 179.277 62.3937 179.232 62.0719C179.196 61.7424 179.184 61.4058 179.196 61.062C179.208 60.7182 179.243 60.3873 179.302 60.0691C179.37 59.7433 179.461 59.4303 179.575 59.1301C179.717 58.7348 179.901 58.389 180.128 58.0927C180.363 57.7887 180.636 57.5341 180.947 57.3289C181.448 56.9781 182.018 56.8139 182.657 56.8362ZM190.241 58.2658C190.057 58.2594 189.88 58.2772 189.711 58.3193C189.549 58.3537 189.395 58.4164 189.248 58.5073C189.109 58.5905 188.977 58.6939 188.853 58.8177C188.737 58.9337 188.632 59.0661 188.539 59.215C188.453 59.3721 188.375 59.5335 188.306 59.6991C188.244 59.8651 188.19 60.0393 188.143 60.2218C188.097 60.4043 188.058 60.591 188.028 60.7821C187.997 60.9651 187.978 61.1606 187.971 61.3685C187.964 61.5683 187.969 61.7646 187.987 61.9574C188.004 62.1501 188.029 62.3391 188.063 62.5244C188.096 62.7097 188.138 62.8872 188.188 63.0571C188.246 63.2272 188.313 63.3936 188.387 63.5563C188.47 63.7113 188.565 63.8507 188.673 63.9745C188.788 64.0986 188.913 64.2111 189.045 64.3117C189.327 64.5057 189.651 64.6091 190.019 64.6219C190.211 64.6286 190.387 64.6148 190.549 64.5804C190.718 64.5383 190.873 64.4716 191.012 64.3804C191.159 64.2895 191.291 64.186 191.407 64.07C191.531 63.9543 191.636 63.8219 191.721 63.6727C191.815 63.5159 191.896 63.3547 191.966 63.189C192.036 63.0233 192.094 62.8493 192.14 62.6668C192.187 62.4843 192.221 62.2974 192.244 62.106C192.267 61.9147 192.282 61.7191 192.289 61.5192C192.296 61.3114 192.295 61.1152 192.285 60.9308C192.276 60.7383 192.254 60.5494 192.221 60.3642C192.187 60.1789 192.141 60.0012 192.083 59.831C192.025 59.6609 191.955 59.4944 191.873 59.3314C191.798 59.1767 191.703 59.0373 191.587 58.9132C191.48 58.7813 191.355 58.6689 191.215 58.576C190.941 58.3823 190.617 58.2789 190.241 58.2658ZM190.281 57.1025C190.921 57.1248 191.478 57.3284 191.953 57.7132C192.257 57.94 192.512 58.213 192.717 58.5324C192.93 58.844 193.098 59.2021 193.22 59.6066C193.305 59.9137 193.366 60.2321 193.403 60.5615C193.447 60.8833 193.464 61.2161 193.452 61.5599C193.44 61.9036 193.4 62.2385 193.333 62.5643C193.274 62.8824 193.191 63.1917 193.084 63.4922C192.934 63.8872 192.742 64.2367 192.507 64.5407C192.281 64.837 192.008 65.0876 191.689 65.2926C191.188 65.6433 190.618 65.8075 189.978 65.7852C189.339 65.7629 188.781 65.5593 188.307 65.1745C188.01 64.948 187.756 64.679 187.542 64.3673C187.337 64.048 187.178 63.6862 187.064 63.282C186.971 62.9745 186.901 62.6599 186.857 62.3382C186.82 62.0087 186.808 61.6721 186.82 61.3283C186.832 60.9845 186.867 60.6535 186.927 60.3354C186.994 60.0095 187.085 59.6965 187.2 59.3963C187.341 59.001 187.526 58.6553 187.752 58.359C187.987 58.055 188.26 57.8004 188.571 57.5951C189.072 57.2444 189.642 57.0802 190.281 57.1025ZM197.927 57.5136L199.078 57.5538L198.908 62.4108C198.882 63.1783 199.068 63.7932 199.468 64.2555C199.876 64.734 200.379 64.9837 200.979 65.0046C201.579 65.0256 202.099 64.8116 202.538 64.3627C202.97 63.9295 203.199 63.3291 203.226 62.5616L203.395 57.7045L204.547 57.7447L204.377 62.6018C204.358 63.1454 204.261 63.6383 204.085 64.0805C203.918 64.5149 203.668 64.8984 203.337 65.2311C202.681 65.8886 201.882 66.2009 200.938 66.1679C199.995 66.135 199.219 65.7677 198.611 65.0661C198.004 64.3564 197.719 63.4579 197.757 62.3706L197.927 57.5136ZM208.654 57.7441C209.246 57.7647 209.752 57.9265 210.174 58.2294C210.612 58.5329 210.898 58.9311 211.033 59.4241L209.906 59.721C209.827 59.4701 209.677 59.2767 209.458 59.141C209.239 58.9972 208.957 58.9194 208.613 58.9074C208.198 58.8929 207.862 58.9852 207.607 59.1844C207.336 59.3911 207.194 59.6663 207.182 60.0101C207.173 60.2819 207.261 60.5091 207.446 60.6917C207.671 60.9237 208.053 61.0971 208.593 61.2121C209.38 61.3756 210.021 61.6902 210.517 62.1558C211.005 62.6211 211.237 63.2056 211.212 63.9091C211.187 64.6447 210.897 65.2549 210.344 65.7399C209.799 66.2252 209.134 66.4541 208.351 66.4268C207.735 66.4053 207.193 66.2223 206.725 65.8777C206.249 65.5249 205.936 65.0777 205.787 64.5362L206.902 64.2389C206.996 64.5463 207.175 64.7888 207.441 64.9662C207.715 65.1518 208.032 65.2509 208.392 65.2635C208.847 65.2794 209.236 65.1569 209.557 64.8959C209.879 64.627 210.047 64.2847 210.061 63.8689C210.074 63.5011 209.933 63.184 209.638 62.9176C209.336 62.6428 208.938 62.4529 208.445 62.3476C207.714 62.194 207.123 61.9212 206.673 61.5292C206.222 61.1373 206.008 60.6175 206.031 59.9699C206.042 59.6421 206.113 59.3444 206.242 59.0767C206.38 58.8014 206.572 58.5559 206.82 58.3404C207.315 57.9175 207.927 57.7187 208.654 57.7441ZM215.516 59.2925L214.125 59.2439L213.913 65.3122L215.304 65.3608C216.143 65.3901 216.873 65.1194 217.494 64.5487C218.106 63.9777 218.427 63.2725 218.456 62.433C218.485 61.5935 218.215 60.8676 217.644 60.2553C217.065 59.6428 216.355 59.3218 215.516 59.2925ZM215.556 58.1292C216.716 58.1697 217.693 58.6121 218.488 59.4563C219.275 60.3083 219.648 61.3139 219.607 62.4732C219.587 63.0569 219.464 63.5929 219.239 64.0813C219.022 64.5621 218.703 64.9992 218.281 65.3927C217.428 66.1874 216.423 66.5646 215.263 66.5241L212.721 66.4353L213.014 58.0404L215.556 58.1292ZM224.909 58.3117C225.213 58.3223 225.504 58.3605 225.781 58.4262C226.059 58.492 226.324 58.5893 226.576 58.7181C226.827 58.847 227.062 58.9953 227.281 59.163C227.499 59.3307 227.7 59.5219 227.885 59.7364L227.028 60.547C226.468 59.8631 225.748 59.5057 224.868 59.475C224.005 59.4449 223.283 59.7278 222.701 60.3239C222.403 60.6257 222.175 60.9619 222.018 61.3327C221.861 61.7034 221.775 62.1086 221.759 62.5484C221.744 62.9881 221.802 63.3984 221.932 63.7792C222.063 64.16 222.267 64.5113 222.544 64.8331C223.082 65.4683 223.783 65.801 224.646 65.8311C225.526 65.8618 226.269 65.5596 226.875 64.9244L227.662 65.7683C227.471 65.9778 227.261 66.1586 227.031 66.3106C226.802 66.4627 226.553 66.5941 226.285 66.7048C225.765 66.9188 225.205 67.0154 224.606 66.9944C223.406 66.9525 222.426 66.494 221.664 65.6189C221.295 65.1818 221.02 64.7039 220.837 64.1852C220.663 63.6668 220.587 63.1078 220.608 62.5082C220.629 61.9005 220.744 61.3482 220.954 60.8512C221.172 60.3465 221.484 59.8931 221.89 59.4911C222.703 58.663 223.71 58.2698 224.909 58.3117Z" fill="white"/>
<path opacity="0.2" d="M4.03544 0.146447C3.84018 -0.0488155 3.5236 -0.0488155 3.32834 0.146447L0.146357 3.32843C-0.0489054 3.52369 -0.0489054 3.84027 0.146357 4.03553C0.341619 4.2308 0.658201 4.2308 0.853463 4.03553L3.68189 1.20711L6.51032 4.03553C6.70558 4.2308 7.02216 4.2308 7.21742 4.03553C7.41269 3.84027 7.41269 3.52369 7.21742 3.32843L4.03544 0.146447ZM3.18188 229.852V230.352H4.18188V229.852H3.18188ZM244.035 230.854C244.231 230.658 244.231 230.342 244.035 230.146L240.853 226.964C240.658 226.769 240.342 226.769 240.146 226.964C239.951 227.16 239.951 227.476 240.146 227.672L242.975 230.5L240.146 233.328C239.951 233.524 239.951 233.84 240.146 234.036C240.342 234.231 240.658 234.231 240.853 234.036L244.035 230.854ZM3.68189 230H3.18189V231H3.68189V230ZM3.68189 0.5L3.18189 0.5L3.18188 229.852H3.68188H4.18188L4.18189 0.5L3.68189 0.5ZM243.682 230.5V230H3.68189V230.5V231H243.682V230.5Z" fill="#9A94B8"/>
<g clip-path="url(#clip4_412_2485)">
<rect x="10.6819" y="183.986" width="40" height="40" rx="12" transform="rotate(-5 10.6819 183.986)" fill="#112540"/>
<path d="M41.7879 195.318L33.5305 205.243L28.6029 201.073L22.8227 208.02M41.7879 195.318L35.4485 195.873M41.7879 195.318L42.3472 201.711" stroke="#09AF8E" stroke-width="2.5" stroke-linecap="round" stroke-linejoin="round"/>
</g>
<defs>
<clipPath id="clip0_412_2485">
<path d="M60.6819 48.5C60.6819 42.9771 65.159 38.5 70.6819 38.5H96.6819C102.205 38.5 106.682 42.9772 106.682 48.5V229.5H60.6819V48.5Z" fill="white"/>
</clipPath>
<clipPath id="clip1_412_2485">
<rect width="26" height="26" fill="white" transform="translate(70.6819 121.5)"/>
</clipPath>
<clipPath id="clip2_412_2485">
<path d="M165.682 67.4998C165.682 61.9769 170.159 57.4998 175.682 57.4998H201.682C207.205 57.4998 211.682 61.9769 211.682 67.4998V229.5H165.682V67.4998Z" fill="white"/>
</clipPath>
<clipPath id="clip3_412_2485">
<rect width="26" height="26" fill="white" transform="translate(175.682 131.5)"/>
</clipPath>
<clipPath id="clip4_412_2485">
<rect width="40" height="40" fill="white" transform="translate(10.6819 183.986) rotate(-5)"/>
</clipPath>
</defs>
</svg>
