<svg width="164" height="76" viewBox="0 0 164 76" fill="none" xmlns="http://www.w3.org/2000/svg">
<rect x="1.32617" width="152" height="38" rx="19" transform="rotate(2 1.32617 0)" fill="#8E3ECD"/>
<path d="M15.6535 25.5156L22.0619 9.99982L25.5248 10.1207L30.7583 26.0431L28.3068 25.9575L27.0098 21.9663L19.6443 21.7091L18.0501 25.5993L15.6535 25.5156ZM26.3187 19.8509L23.7051 11.8018L20.4868 19.6472L26.3187 19.8509ZM40.9924 14.2656L43.2186 14.3433L42.7953 26.4634L40.5692 26.3857L40.6914 22.8843C40.524 23.4765 40.2946 24.0042 40.0033 24.4673C39.7119 24.9304 39.3681 25.3201 38.9718 25.6365C38.5756 25.9529 38.1325 26.1905 37.6427 26.3495C37.1528 26.5085 36.6257 26.5782 36.0614 26.5585C35.3688 26.5343 34.7541 26.3826 34.2172 26.1033C33.6804 25.8204 33.2299 25.4286 32.8659 24.928C32.5056 24.4237 32.2369 23.8182 32.0598 23.1112C31.8863 22.4044 31.815 21.6113 31.8457 20.7318L32.0824 13.9544L34.3085 14.0322L34.0718 20.8095C34.0295 22.0225 34.2559 22.9458 34.7511 23.5794C35.2464 24.2094 36.0144 24.5426 37.0551 24.579C37.6157 24.5985 38.1189 24.5299 38.5647 24.373C39.0142 24.2126 39.3968 23.9728 39.7125 23.6536C40.032 23.3309 40.2807 22.9324 40.4587 22.4579C40.6405 21.98 40.7421 21.435 40.7634 20.8231L40.9924 14.2656ZM52.0051 26.6915C51.0683 26.9376 50.2279 27.0477 49.4841 27.0217C48.8794 27.0006 48.3477 26.8885 47.8888 26.6853C47.4335 26.486 47.0546 26.1994 46.7521 25.8256C46.4498 25.4482 46.2256 24.9872 46.0795 24.4428C45.9372 23.8949 45.8785 23.2654 45.9033 22.5545L46.1211 16.3158L44.4722 16.2582L44.5374 14.3894L46.1864 14.447L46.2839 11.6547L48.5101 11.7324L48.4126 14.5247L52.4251 14.6648L52.3598 16.5337L48.3473 16.3936L48.1292 22.6378C48.1012 23.4403 48.2307 24.0391 48.5178 24.4344C48.8086 24.8261 49.2783 25.0333 49.9269 25.056C50.1798 25.0648 50.4813 25.046 50.8315 24.9995C51.1853 24.9532 51.5989 24.8759 52.0723 24.7677L52.0051 26.6915ZM53.0149 20.7501C53.0372 20.1125 53.1223 19.5138 53.2702 18.9539C53.4182 18.3941 53.6214 17.882 53.8797 17.4178C54.1381 16.9535 54.4478 16.5406 54.809 16.1789C55.1703 15.8137 55.5735 15.5085 56.0187 15.2636C56.4675 15.0188 56.9563 14.8377 57.485 14.7204C58.0139 14.5995 58.5733 14.5493 59.1633 14.5699C59.757 14.5907 60.3115 14.6797 60.827 14.8371C61.3463 14.991 61.8194 15.2057 62.2464 15.4811C62.677 15.7566 63.0598 16.0892 63.3948 16.4788C63.7298 16.8647 64.0101 17.2982 64.2354 17.7794C64.4607 18.2605 64.6277 18.7855 64.7362 19.3543C64.8448 19.9231 64.8879 20.5263 64.8657 21.1639C64.8434 21.8016 64.7583 22.4003 64.6103 22.9601C64.4624 23.52 64.2591 24.0339 64.0007 24.5018C63.7423 24.9661 63.4325 25.379 63.0714 25.7406C62.7102 26.1022 62.3051 26.4073 61.8562 26.6558C61.411 26.9007 60.9241 27.0818 60.3953 27.1991C59.8701 27.3202 59.3107 27.3704 58.717 27.3496C58.1271 27.329 57.5725 27.24 57.0534 27.0824C56.5341 26.9285 56.0591 26.7138 55.6285 26.4383C55.2016 26.1592 54.8207 25.8267 54.4856 25.4408C54.1505 25.0549 53.8703 24.6213 53.645 24.1402C53.4197 23.6553 53.2529 23.1285 53.1443 22.5597C53.0358 21.9909 52.9926 21.3877 53.0149 20.7501ZM55.241 20.8278C55.2174 21.5058 55.2803 22.1188 55.43 22.6671C55.5834 23.2117 55.8128 23.6802 56.1183 24.0724C56.4276 24.4611 56.8078 24.7643 57.2588 24.9818C57.7098 25.1993 58.2211 25.3181 58.7928 25.3381C59.3644 25.358 59.881 25.2752 60.3424 25.0895C60.8075 24.9039 61.206 24.628 61.538 24.2617C61.8701 23.8917 62.1299 23.4404 62.3173 22.9076C62.5084 22.3713 62.6158 21.7641 62.6395 21.0862C62.6632 20.4083 62.5983 19.797 62.4449 19.2523C62.2953 18.7041 62.0677 18.2357 61.762 17.8471C61.4564 17.4585 61.0781 17.1555 60.6271 16.9379C60.1797 16.7205 59.6702 16.6018 59.0986 16.5819C58.5269 16.5619 58.0085 16.6447 57.5434 16.8303C57.0784 17.0158 56.678 17.2917 56.3423 17.6579C56.0103 18.0242 55.7488 18.4755 55.5576 19.0118C55.3702 19.5446 55.2647 20.1499 55.241 20.8278ZM84.2079 27.9096L81.8993 27.829L82.1358 21.0571L73.671 20.7615L73.4345 27.5334L71.1259 27.4528L71.6749 11.7323L73.9835 11.813L73.7458 18.6178L82.2107 18.9134L82.4483 12.1086L84.7569 12.1892L84.2079 27.9096ZM97.4014 24.3474C97.2202 25.0198 96.9534 25.6195 96.6011 26.1465C96.2489 26.6736 95.8262 27.1156 95.3331 27.4726C94.8437 27.8297 94.2913 28.0966 93.6761 28.2732C93.0609 28.4499 92.3979 28.5258 91.687 28.501C91.0933 28.4802 90.5351 28.391 90.0123 28.2334C89.4931 28.0758 89.0164 27.8592 88.5821 27.5836C88.1516 27.3044 87.767 26.9717 87.4282 26.5857C87.0933 26.1961 86.8113 25.7606 86.5823 25.2794C86.3571 24.7945 86.1902 24.2677 86.0817 23.6989C85.9732 23.1265 85.9302 22.5214 85.9524 21.8838C85.9747 21.2462 86.0597 20.6493 86.2076 20.0931C86.3554 19.5369 86.5567 19.0267 86.8114 18.5623C87.0697 18.098 87.3777 17.685 87.7352 17.3232C88.0927 16.9615 88.494 16.6582 88.9392 16.4132C89.3843 16.1683 89.8694 15.9871 90.3945 15.8697C90.9197 15.7486 91.4755 15.6983 92.0618 15.7188C92.9303 15.7491 93.7092 15.9267 94.3986 16.2516C95.0882 16.5729 95.6707 17.017 96.1462 17.5839C96.6217 18.1509 96.9796 18.8293 97.2198 19.6191C97.4601 20.409 97.5633 21.2877 97.5295 22.2551C97.5247 22.3943 97.5162 22.5316 97.5041 22.6669C97.4957 22.8024 97.4813 22.9523 97.4609 23.1167L88.1936 22.7931C88.2402 23.3487 88.3547 23.8517 88.5371 24.302C88.7233 24.7488 88.9704 25.1316 89.2785 25.4506C89.5902 25.7696 89.9594 26.0192 90.386 26.1992C90.8128 26.3755 91.2882 26.4728 91.8122 26.4911C92.6184 26.5193 93.2994 26.3486 93.8553 25.9791C94.4113 25.6059 94.8513 25.0361 95.1753 24.2696L97.4014 24.3474ZM95.2635 21.1138C95.2086 20.5835 95.0966 20.1137 94.9275 19.7042C94.7584 19.291 94.5358 18.9421 94.2596 18.6573C93.9835 18.3688 93.6555 18.1464 93.2758 17.99C92.8997 17.8338 92.4753 17.7474 92.0025 17.7309C91.5188 17.714 91.0728 17.7737 90.6645 17.9098C90.2563 18.0423 89.8933 18.2443 89.5757 18.5157C89.2618 18.7836 88.997 19.1174 88.7812 19.5171C88.5656 19.9131 88.4068 20.3644 88.3047 20.8708L95.2635 21.1138ZM110.934 12.553L110.366 28.8231L108.14 28.7453L108.271 25.0076C108.091 25.6251 107.852 26.1799 107.552 26.672C107.252 27.1642 106.904 27.5795 106.507 27.9178C106.11 28.2562 105.668 28.5122 105.181 28.686C104.698 28.8599 104.182 28.9373 103.632 28.9181C103.134 28.9007 102.664 28.8127 102.222 28.6542C101.78 28.4957 101.373 28.276 101.001 27.9952C100.633 27.7145 100.302 27.3801 100.007 26.9919C99.7161 26.6002 99.4726 26.1643 99.2766 25.6841C99.0807 25.2003 98.9339 24.6779 98.836 24.1168C98.7419 23.5558 98.7056 22.9657 98.7273 22.3464C98.7489 21.7271 98.8262 21.141 98.9593 20.5879C99.096 20.035 99.2789 19.526 99.5079 19.0607C99.737 18.5954 100.01 18.1793 100.327 17.8125C100.649 17.4422 101.003 17.1298 101.389 16.8755C101.78 16.6213 102.201 16.4305 102.653 16.3032C103.105 16.1759 103.58 16.121 104.079 16.1384C104.628 16.1576 105.138 16.2708 105.608 16.478C106.081 16.6853 106.504 16.9716 106.877 17.3368C107.249 17.702 107.568 18.1405 107.832 18.6524C108.097 19.1606 108.297 19.729 108.433 20.3574L108.708 12.4752L110.934 12.553ZM108.352 22.6825C108.376 21.9899 108.312 21.3676 108.158 20.8156C108.009 20.2601 107.78 19.7861 107.471 19.3938C107.161 19.0014 106.78 18.6964 106.325 18.4787C105.87 18.261 105.352 18.142 104.769 18.1217C104.175 18.101 103.646 18.1797 103.181 18.3579C102.72 18.5326 102.329 18.8015 102.008 19.1645C101.687 19.5275 101.437 19.9829 101.256 20.5306C101.079 21.0747 100.978 21.7059 100.953 22.4242C100.928 23.1424 100.985 23.7809 101.123 24.3398C101.265 24.895 101.484 25.3668 101.778 25.755C102.073 26.1395 102.444 26.4368 102.892 26.6469C103.343 26.8534 103.866 26.9671 104.459 26.9878C105.042 27.0081 105.568 26.9256 106.036 26.7402C106.505 26.5511 106.908 26.2716 107.243 25.9018C107.579 25.532 107.841 25.077 108.028 24.5369C108.22 23.9932 108.328 23.3751 108.352 22.6825ZM124.123 17.1686L123.777 27.09C123.753 27.757 123.667 28.3832 123.519 28.9687C123.37 29.5542 123.166 30.09 122.907 30.5763C122.651 31.0627 122.342 31.4958 121.981 31.8758C121.619 32.2594 121.213 32.5809 120.764 32.8404C120.318 33.1 119.831 33.2921 119.302 33.4167C118.776 33.5451 118.219 33.599 117.629 33.5784C117.123 33.5608 116.641 33.4907 116.183 33.3683C115.725 33.2496 115.3 33.0862 114.907 32.878C114.518 32.67 114.165 32.4228 113.849 32.1366C113.536 31.8542 113.27 31.5404 113.05 31.1952C112.831 30.85 112.666 30.4773 112.556 30.0772C112.445 29.6808 112.397 29.2682 112.412 28.8395L114.638 28.9172C114.629 29.1627 114.658 29.3985 114.723 29.6246C114.792 29.8508 114.891 30.0634 115.02 30.2624C115.153 30.4651 115.311 30.6486 115.496 30.8128C115.685 30.9808 115.895 31.1239 116.125 31.242C116.356 31.3638 116.604 31.4605 116.869 31.5322C117.138 31.6039 117.419 31.6449 117.712 31.6552C118.269 31.6746 118.777 31.5786 119.236 31.3672C119.698 31.1558 120.096 30.8469 120.429 30.4402C120.763 30.0336 121.026 29.5402 121.218 28.9599C121.415 28.3797 121.526 27.7305 121.551 27.0123L121.617 25.0995C121.439 25.6876 121.199 26.2167 120.896 26.6867C120.597 27.1569 120.246 27.5556 119.842 27.8827C119.442 28.2062 118.995 28.4511 118.501 28.6173C118.011 28.78 117.485 28.8515 116.925 28.832C116.437 28.8149 115.976 28.731 115.541 28.58C115.106 28.4254 114.705 28.2151 114.336 27.9491C113.971 27.6795 113.643 27.358 113.352 26.9846C113.064 26.6077 112.822 26.1901 112.625 25.732C112.428 25.2702 112.281 24.7716 112.182 24.2361C112.087 23.6972 112.05 23.1308 112.071 22.5372C112.091 21.9436 112.168 21.3831 112.3 20.8557C112.436 20.3248 112.618 19.8377 112.846 19.3944C113.075 18.9474 113.345 18.5478 113.659 18.1955C113.975 17.8433 114.325 17.5474 114.708 17.3076C115.094 17.0642 115.509 16.8824 115.954 16.7622C116.399 16.6383 116.865 16.5849 117.352 16.6019C117.913 16.6215 118.432 16.7313 118.909 16.9314C119.39 17.128 119.819 17.4035 120.195 17.7578C120.576 18.1087 120.898 18.529 121.164 19.0189C121.433 19.5089 121.636 20.0535 121.773 20.6527L121.897 17.0908L124.123 17.1686ZM121.695 22.8733C121.718 22.2247 121.652 21.6409 121.498 21.1219C121.343 20.5992 121.11 20.1544 120.796 19.7875C120.486 19.4172 120.098 19.1303 119.632 18.9269C119.169 18.72 118.639 18.6061 118.042 18.5852C117.463 18.565 116.947 18.6369 116.494 18.8008C116.04 18.9647 115.654 19.2172 115.333 19.5583C115.017 19.8994 114.771 20.3256 114.595 20.8368C114.42 21.348 114.32 21.9407 114.297 22.6149C114.273 23.2892 114.331 23.8874 114.471 24.4096C114.614 24.9319 114.831 25.3743 115.123 25.7367C115.415 26.0991 115.781 26.3797 116.222 26.5786C116.666 26.7739 117.176 26.8815 117.752 26.9016C118.349 26.9225 118.885 26.8458 119.361 26.6717C119.841 26.4976 120.248 26.2385 120.583 25.8943C120.921 25.5466 121.186 25.1192 121.376 24.6122C121.566 24.1016 121.673 23.5219 121.695 22.8733ZM136.844 25.7247C136.663 26.3972 136.396 26.9969 136.044 27.5239C135.692 28.0509 135.269 28.493 134.776 28.85C134.286 29.2071 133.734 29.474 133.119 29.6506C132.504 29.8273 131.841 29.9032 131.13 29.8783C130.536 29.8576 129.978 29.7684 129.455 29.6107C128.936 29.4532 128.459 29.2366 128.025 28.9609C127.594 28.6817 127.21 28.3491 126.871 27.963C126.536 27.5735 126.254 27.138 126.025 26.6567C125.8 26.1719 125.633 25.6451 125.524 25.0763C125.416 24.5038 125.373 23.8988 125.395 23.2612C125.417 22.6236 125.502 22.0267 125.65 21.4705C125.798 20.9143 125.999 20.404 126.254 19.9396C126.512 19.4754 126.82 19.0624 127.178 18.7006C127.535 18.3389 127.937 18.0355 128.382 17.7906C128.827 17.5456 129.312 17.3645 129.837 17.247C130.362 17.126 130.918 17.0757 131.505 17.0961C132.373 17.1265 133.152 17.3041 133.841 17.629C134.531 17.9503 135.113 18.3944 135.589 18.9613C136.064 19.5283 136.422 20.2067 136.663 20.9965C136.903 21.7864 137.006 22.665 136.972 23.6324C136.967 23.7717 136.959 23.909 136.947 24.0443C136.938 24.1798 136.924 24.3297 136.904 24.4941L127.636 24.1704C127.683 24.7261 127.797 25.229 127.98 25.6794C128.166 26.1261 128.413 26.509 128.721 26.8279C129.033 27.147 129.402 27.3965 129.829 27.5765C130.256 27.7529 130.731 27.8502 131.255 27.8685C132.061 27.8966 132.742 27.726 133.298 27.3565C133.854 26.9833 134.294 26.4135 134.618 25.647L136.844 25.7247ZM134.706 22.4912C134.651 21.9609 134.539 21.4911 134.37 21.0816C134.201 20.6684 133.979 20.3194 133.702 20.0346C133.426 19.7461 133.098 19.5237 132.719 19.3674C132.342 19.2112 131.918 19.1248 131.445 19.1083C130.962 19.0914 130.516 19.151 130.107 19.2872C129.699 19.4197 129.336 19.6217 129.018 19.8931C128.705 20.1609 128.44 20.4947 128.224 20.8945C128.008 21.2905 127.85 21.7417 127.747 22.2482L134.706 22.4912Z" fill="white"/>
<rect x="8.83765" y="32" width="155" height="38" rx="19" transform="rotate(2 8.83765 32)" fill="#3C1B68"/>
<path opacity="0.85" d="M23.5353 47.4773L23.3997 51.36L25.6034 51.4369C26.1331 51.4554 26.5996 51.2766 27.003 50.9004C27.396 50.5339 27.6018 50.0858 27.6203 49.5562C27.6384 49.0365 27.4644 48.5751 27.0983 48.1721C26.7218 47.7787 26.2687 47.5728 25.739 47.5543L23.5353 47.4773ZM22.147 45.973L25.7898 46.1002C26.7292 46.133 27.5172 46.4907 28.1538 47.1733C28.7903 47.856 29.0922 48.667 29.0594 49.6064C29.0266 50.5458 28.6689 51.3338 27.9862 51.9704C27.3033 52.617 26.4921 52.9238 25.5526 52.891L23.349 52.8141L23.2197 56.5168L21.7805 56.4666L22.147 45.973ZM36.076 49.4612L37.4251 49.5083L37.1634 57.0037L35.8142 56.9566L35.8498 55.9373C35.8181 55.9862 35.7814 56.0349 35.7396 56.0835C35.7079 56.1324 35.6714 56.1762 35.63 56.2147C35.049 56.8048 34.2939 57.0836 33.3644 57.0512C32.2951 57.0138 31.4289 56.6034 30.7658 55.8197C30.0931 55.0258 29.7758 54.0841 29.8138 52.9948C29.8522 51.8955 30.2345 50.9783 30.9606 50.2431C31.6767 49.5077 32.5694 49.1586 33.6387 49.196C34.5682 49.2284 35.3017 49.5692 35.8394 50.2184C35.888 50.2601 35.9264 50.3065 35.9546 50.3575C35.9828 50.4085 36.0113 50.4545 36.0398 50.4956L36.076 49.4612ZM33.6784 50.6382C32.9988 50.6145 32.4358 50.835 31.9893 51.2997C31.5328 51.764 31.2924 52.346 31.2679 53.0456C31.2435 53.7452 31.4428 54.3425 31.8658 54.8375C32.2788 55.3323 32.825 55.5915 33.5046 55.6152C34.1742 55.6386 34.7223 55.4176 35.1488 54.9522C35.367 54.7197 35.5312 54.4602 35.6412 54.1739C35.7616 53.8779 35.8279 53.555 35.8402 53.2052C35.8527 52.8455 35.8091 52.5187 35.7093 52.2251C35.6195 51.9318 35.4738 51.6615 35.2723 51.4143C34.8793 50.9203 34.348 50.6616 33.6784 50.6382ZM38.3372 49.5402L39.9263 49.5957L42.114 55.2855L44.6934 49.7621L46.2524 49.8166L42.2915 58.3685C42.1512 58.6638 41.9768 58.9279 41.7686 59.1608C41.56 59.4036 41.3076 59.61 41.0115 59.7797C40.4393 60.12 39.8234 60.2786 39.1638 60.2555L38.5042 60.2325L38.5544 58.7934L39.214 58.8164C39.6038 58.83 39.9571 58.7423 40.2739 58.5532C40.5903 58.3742 40.8298 58.1074 40.9922 57.7528L41.2846 57.1176L38.3372 49.5402ZM47.0808 53.5978L47.1311 52.1587L51.9282 52.3262L51.8779 53.7653L47.0808 53.5978ZM59.5285 50.2802L60.8776 50.3273L60.6159 57.8227L59.2667 57.7756L59.3023 56.7562C59.2706 56.8052 59.2339 56.8539 59.1921 56.9025C59.1604 56.9514 59.1239 56.9951 59.0825 57.0337C58.5015 57.6238 57.7464 57.9026 56.8169 57.8702C55.7476 57.8328 54.8814 57.4223 54.2183 56.6387C53.5456 55.8448 53.2283 54.9031 53.2663 53.8138C53.3047 52.7145 53.687 51.7972 54.4131 51.0621C55.1292 50.3267 56.0219 49.9776 57.0912 50.015C58.0207 50.0474 58.7542 50.3882 59.2919 51.0374C59.3405 51.0791 59.3789 51.1255 59.4071 51.1765C59.4353 51.2275 59.4638 51.2735 59.4923 51.3145L59.5285 50.2802ZM57.1309 51.4572C56.4513 51.4335 55.8883 51.654 55.4418 52.1187C54.9853 52.583 54.7449 53.165 54.7204 53.8646C54.696 54.5641 54.8953 55.1615 55.3183 55.6565C55.7313 56.1512 56.2775 56.4105 56.9571 56.4342C57.6267 56.4576 58.1748 56.2366 58.6013 55.7712C58.8195 55.5386 58.9837 55.2792 59.0937 54.9929C59.2141 54.6969 59.2804 54.374 59.2927 54.0242C59.3052 53.6644 59.2616 53.3377 59.1618 53.0441C59.072 52.7508 58.9263 52.4805 58.7248 52.2333C58.3318 51.7393 57.8005 51.4806 57.1309 51.4572ZM67.4827 51.8487L66.1018 52.2808C66.0481 52.0988 65.9284 51.9445 65.7427 51.818C65.5467 51.7011 65.3237 51.6383 65.0739 51.6295C64.7441 51.618 64.4863 51.6941 64.3005 51.8577C64.1146 52.0213 64.0175 52.223 64.0092 52.4629C64.0087 52.763 64.2353 53.0061 64.6891 53.1921C64.798 53.2259 64.9067 53.2647 65.0153 53.3085C65.1241 53.3423 65.238 53.3763 65.3569 53.4105C66.0702 53.6155 66.6056 53.8994 66.9632 54.2621C67.4179 54.7082 67.6342 55.2461 67.6122 55.8757C67.5871 56.5953 67.2869 57.1701 66.7115 57.6003C66.1875 57.9923 65.5457 58.175 64.7862 58.1485C64.1666 58.1268 63.632 57.9631 63.1824 57.6572C62.7224 57.361 62.3913 56.9592 62.1888 56.4518L63.5703 56.0047C63.7927 56.5128 64.2037 56.7773 64.8033 56.7982C65.1931 56.8118 65.5116 56.7179 65.7588 56.5164C66.0059 56.3149 66.1346 56.0693 66.1447 55.7794C66.1462 55.4493 65.8906 55.1752 65.3779 54.9572C65.2701 54.8934 65.1569 54.8394 65.0384 54.7952C64.9199 54.7511 64.7863 54.7064 64.6378 54.6612C64.3205 54.58 64.0293 54.4648 63.7644 54.3155C63.5094 54.1665 63.2901 53.9987 63.1065 53.8122C62.7193 53.4385 62.5357 52.9668 62.5556 52.3971C62.5783 51.7475 62.8366 51.2262 63.3306 50.8332C63.8143 50.4499 64.4059 50.2704 65.1055 50.2948C65.7151 50.3161 66.2253 50.464 66.6359 50.7385C67.0366 51.0127 67.3189 51.3827 67.4827 51.8487ZM69.084 54.3662L69.1343 52.927L73.9314 53.0945L73.8811 54.5337L69.084 54.3662ZM74.9507 50.8187L76.5397 50.8742L78.7275 56.564L81.3068 51.0407L82.8658 51.0951L78.905 59.6471C78.7646 59.9424 78.5903 60.2065 78.382 60.4393C78.1734 60.6822 77.921 60.8885 77.6249 61.0583C77.0527 61.3985 76.4368 61.5571 75.7772 61.5341L75.1176 61.5111L75.1679 60.0719L75.8275 60.095C76.2172 60.1086 76.5705 60.0209 76.8873 59.8318C77.2037 59.6527 77.4432 59.3859 77.6057 59.0314L77.898 58.3962L74.9507 50.8187ZM87.0382 52.5166C86.3586 52.4929 85.7958 52.7084 85.3496 53.1631C85.1314 53.3956 84.9621 53.6599 84.8417 53.9558C84.7216 54.2418 84.6555 54.5597 84.6433 54.9095C84.6192 55.5991 84.8135 56.1962 85.2261 56.7009C85.6394 57.1856 86.1859 57.4399 86.8655 57.4636C87.5451 57.4873 88.1079 57.2718 88.5541 56.8171C88.7823 56.585 88.9515 56.3257 89.0615 56.0394C89.1819 55.7434 89.2482 55.4205 89.2604 55.0707C89.2849 54.3712 89.0906 53.774 88.6776 53.2793C88.2643 52.7946 87.7178 52.5403 87.0382 52.5166ZM87.089 51.0625C88.1584 51.0998 89.0395 51.5108 89.7326 52.2955C90.4156 53.0798 90.738 54.0217 90.6996 55.121C90.6615 56.2103 90.2743 57.1274 89.5378 57.8721C88.7918 58.6065 87.884 58.9551 86.8147 58.9177C85.7453 58.8804 84.8642 58.4694 84.1711 57.6847C83.4884 56.8904 83.1661 55.9486 83.2041 54.8592C83.2425 53.7599 83.6298 52.8429 84.3659 52.1081C85.1119 51.3737 86.0197 51.0252 87.089 51.0625ZM92.1683 51.42L93.6224 51.4708L93.4826 55.4733C93.4592 56.1429 93.6203 56.6889 93.9657 57.1112C94.3016 57.5232 94.7443 57.7387 95.294 57.7579C95.8236 57.7764 96.2704 57.5919 96.6341 57.2044C97.0082 56.8072 97.2069 56.2738 97.2303 55.6042L97.3701 51.6016L98.8242 51.6524L98.686 55.61C98.6476 56.7093 98.2966 57.5926 97.6329 58.2599C96.9592 58.9268 96.1626 59.2442 95.2432 59.212C94.3038 59.1792 93.5213 58.8067 92.8958 58.0944C92.2802 57.3825 91.9917 56.4769 92.0301 55.3776L92.1683 51.42ZM100.339 55.4576L100.39 54.0185L105.187 54.186L105.136 55.6251L100.339 55.4576ZM112.029 48.9316C112.398 48.9445 112.757 48.992 113.104 49.0742C113.452 49.1564 113.783 49.278 114.097 49.4391C114.422 49.5905 114.721 49.7761 114.993 49.9957C115.266 50.2053 115.518 50.4443 115.749 50.7125L114.663 51.7252C113.972 50.8706 113.077 50.4241 111.978 50.3857C110.898 50.348 109.991 50.7015 109.254 51.4463C108.517 52.201 108.13 53.1281 108.091 54.2274C108.053 55.3267 108.375 56.2785 109.057 57.0829C109.74 57.8772 110.621 58.2932 111.7 58.3309C112.79 58.3689 113.713 57.9909 114.472 57.1969C114.731 56.9258 114.942 56.6229 115.104 56.2884C115.265 55.9538 115.378 55.5925 115.442 55.2045L112.668 55.1077L112.719 53.6686L117.051 53.8198L117.026 54.5394C116.974 56.0185 116.456 57.2612 115.47 58.2674C115.221 58.5188 114.953 58.7396 114.666 58.9297C114.379 59.1198 114.068 59.2841 113.733 59.4225C113.084 59.69 112.389 59.8108 111.65 59.785C110.15 59.7326 108.93 59.1647 107.987 58.0811C107.044 56.9875 106.599 55.6862 106.652 54.1771C106.705 52.6681 107.244 51.4011 108.271 50.3763C109.287 49.3612 110.539 48.8796 112.029 48.9316ZM121.822 53.7313C121.142 53.7076 120.579 53.923 120.133 54.3777C119.915 54.6103 119.746 54.8745 119.625 55.1705C119.505 55.4565 119.439 55.7744 119.427 56.1242C119.403 56.8137 119.597 57.4109 120.01 57.9156C120.423 58.4003 120.969 58.6545 121.649 58.6783C122.329 58.702 122.891 58.4865 123.338 58.0318C123.566 57.7996 123.735 57.5404 123.845 57.254C123.965 56.9581 124.032 56.6352 124.044 56.2854C124.068 55.5858 123.874 54.9887 123.461 54.494C123.048 54.0092 122.501 53.755 121.822 53.7313ZM121.872 52.2772C122.942 52.3145 123.823 52.7255 124.516 53.5102C125.199 54.2945 125.521 55.2363 125.483 56.3356C125.445 57.425 125.058 58.342 124.321 59.0868C123.575 59.8212 122.668 60.1697 121.598 60.1324C120.529 60.095 119.648 59.684 118.955 58.8994C118.272 58.1051 117.95 57.1632 117.988 56.0739C118.026 54.9746 118.413 54.0575 119.149 53.3228C119.895 52.5884 120.803 52.2398 121.872 52.2772Z" fill="white"/>
</svg>
