<svg width="230" height="93" viewBox="0 0 230 93" fill="none" xmlns="http://www.w3.org/2000/svg">
<rect x="1.8147" width="220" height="52" rx="26" transform="rotate(2 1.8147 0)" fill="#8E3ECD"/>
<path d="M22.157 35.7317L31.4783 13.1633L36.5152 13.3392L44.1276 36.4989L40.5617 36.3744L38.6752 30.569L27.9617 30.1949L25.6428 35.8534L22.157 35.7317ZM37.67 27.4921L33.8682 15.7843L29.1871 27.1959L37.67 27.4921ZM59.0135 19.368L62.2515 19.4811L61.6359 37.1103L58.3979 36.9973L58.5757 31.9044C58.3322 32.7657 57.9985 33.5332 57.5747 34.2068C57.151 34.8805 56.6509 35.4474 56.0745 35.9075C55.4981 36.3677 54.8536 36.7134 54.1411 36.9447C53.4286 37.176 52.6619 37.2773 51.8411 37.2486C50.8337 37.2134 49.9395 36.9927 49.1586 36.5866C48.3778 36.1751 47.7226 35.6052 47.193 34.8769C46.669 34.1435 46.2782 33.2627 46.0205 32.2344C45.7683 31.2063 45.6645 30.0527 45.7091 28.7734L46.0534 18.9154L49.2914 19.0285L48.9472 28.8865C48.8856 30.6508 49.2149 31.9937 49.9352 32.9154C50.6556 33.8318 51.7727 34.3164 53.2865 34.3693C54.102 34.3978 54.8339 34.2979 55.4823 34.0697C56.1361 33.8364 56.6926 33.4876 57.1518 33.0234C57.6165 32.554 57.9782 31.9742 58.2372 31.2842C58.5016 30.589 58.6493 29.7963 58.6804 28.9062L59.0135 19.368ZM75.032 37.4421C73.6693 37.8001 72.447 37.9602 71.365 37.9224C70.4855 37.8917 69.7121 37.7286 69.0446 37.4331C68.3824 37.1432 67.8312 36.7263 67.3913 36.1826C66.9515 35.6336 66.6254 34.9632 66.4129 34.1713C66.2059 33.3742 66.1205 32.4587 66.1566 31.4247L66.4735 22.3502L64.0749 22.2664L64.1698 19.5481L66.5684 19.6318L66.7102 15.5703L69.9482 15.6834L69.8064 19.7449L75.6429 19.9487L75.5479 22.6671L69.7115 22.4633L69.3943 31.5457C69.3536 32.713 69.5419 33.5841 69.9595 34.159C70.3825 34.7288 71.0657 35.0302 72.0092 35.0631C72.3769 35.076 72.8155 35.0486 73.3248 34.981C73.8395 34.9136 74.4411 34.8012 75.1297 34.6438L75.032 37.4421ZM76.5007 28.8001C76.5331 27.8726 76.6569 27.0017 76.8721 26.1874C77.0873 25.3731 77.3829 24.6283 77.7586 23.953C78.1344 23.2777 78.585 22.6771 79.1104 22.1511C79.6359 21.6198 80.2224 21.176 80.8699 20.8197C81.5227 20.4636 82.2337 20.2002 83.0028 20.0296C83.772 19.8537 84.5858 19.7807 85.4439 19.8107C86.3074 19.8408 87.114 19.9704 87.8638 20.1994C88.6191 20.4232 89.3073 20.7354 89.9284 21.136C90.5548 21.5368 91.1116 22.0205 91.5987 22.5872C92.0861 23.1485 92.4937 23.7791 92.8215 24.479C93.1492 25.1789 93.3921 25.9425 93.55 26.7698C93.7079 27.5972 93.7706 28.4746 93.7382 29.402C93.7058 30.3294 93.582 31.2003 93.3668 32.0146C93.1516 32.829 92.856 33.5764 92.48 34.2571C92.1042 34.9324 91.6536 35.533 91.1283 36.059C90.603 36.585 90.0138 37.0287 89.3608 37.3901C88.7133 37.7464 88.005 38.0098 87.2359 38.1804C86.4719 38.3565 85.6582 38.4295 84.7948 38.3994C83.9366 38.3694 83.13 38.2398 82.3749 38.0107C81.6195 37.7868 80.9287 37.4745 80.3023 37.0738C79.6814 36.6679 79.1273 36.1842 78.6399 35.6229C78.1525 35.0615 77.745 34.4309 77.4172 33.731C77.0896 33.0259 76.8469 32.2596 76.689 31.4322C76.5311 30.6049 76.4683 29.7275 76.5007 28.8001ZM79.7387 28.9131C79.7043 29.8992 79.7959 30.7909 80.0136 31.5884C80.2367 32.3806 80.5705 33.062 81.0148 33.6325C81.4647 34.1979 82.0176 34.6388 82.6737 34.9552C83.3297 35.2717 84.0735 35.4444 84.9049 35.4734C85.7364 35.5025 86.4878 35.3819 87.1589 35.1119C87.8354 34.842 88.4151 34.4406 88.898 33.9078C89.3811 33.3697 89.7589 32.7131 90.0314 31.9382C90.3095 31.1581 90.4658 30.275 90.5002 29.2889C90.5346 28.3029 90.4403 27.4137 90.2171 26.6214C89.9995 25.824 89.6684 25.1427 89.2238 24.5775C88.7793 24.0123 88.229 23.5715 87.573 23.2551C86.9223 22.9389 86.1812 22.7662 85.3497 22.7372C84.5182 22.7082 83.7642 22.8286 83.0877 23.0985C82.4112 23.3684 81.8289 23.7696 81.3406 24.3022C80.8578 24.835 80.4773 25.4915 80.1992 26.2716C79.9267 27.0466 79.7732 27.9271 79.7387 28.9131ZM121.872 39.2139L118.514 39.0966L118.858 29.2466L106.546 28.8166L106.202 38.6666L102.844 38.5494L103.643 15.6833L107 15.8006L106.655 25.6985L118.967 26.1285L119.313 16.2305L122.671 16.3478L121.872 39.2139ZM141.063 34.0324C140.799 35.0105 140.411 35.8828 139.899 36.6494C139.387 37.416 138.772 38.0589 138.054 38.5782C137.343 39.0977 136.539 39.4859 135.644 39.7428C134.75 39.9997 133.785 40.1101 132.751 40.074C131.888 40.0439 131.076 39.9141 130.315 39.6848C129.56 39.4556 128.867 39.1406 128.235 38.7396C127.609 38.3335 127.049 37.8497 126.556 37.2882C126.069 36.7215 125.659 36.0881 125.326 35.3881C124.998 34.6829 124.756 33.9166 124.598 33.0892C124.44 32.2566 124.377 31.3765 124.41 30.4491C124.442 29.5216 124.566 28.6534 124.781 27.8444C124.996 27.0354 125.289 26.2932 125.659 25.6177C126.035 24.9424 126.483 24.3417 127.003 23.8155C127.523 23.2894 128.107 22.8481 128.754 22.4918C129.402 22.1356 130.107 21.872 130.871 21.7012C131.635 21.5251 132.443 21.452 133.296 21.4817C134.559 21.5258 135.692 21.7842 136.695 22.2568C137.698 22.7241 138.546 23.3701 139.237 24.1947C139.929 25.0194 140.449 26.0061 140.799 27.155C141.148 28.3039 141.298 29.5819 141.249 30.9891C141.242 31.1916 141.23 31.3913 141.212 31.5882C141.2 31.7852 141.179 32.0033 141.149 32.2424L127.67 31.7716C127.738 32.5798 127.904 33.3114 128.169 33.9664C128.44 34.6163 128.8 35.1732 129.248 35.6371C129.701 36.1012 130.238 36.4641 130.859 36.726C131.479 36.9824 132.171 37.124 132.933 37.1506C134.106 37.1916 135.096 36.9433 135.905 36.4059C136.714 35.8631 137.354 35.0343 137.825 33.9194L141.063 34.0324ZM137.953 29.329C137.873 28.5578 137.71 27.8744 137.464 27.2787C137.219 26.6778 136.895 26.1702 136.493 25.7559C136.091 25.3363 135.614 25.0128 135.062 24.7854C134.515 24.5581 133.898 24.4325 133.21 24.4085C132.506 24.3839 131.858 24.4707 131.264 24.6687C130.67 24.8615 130.142 25.1552 129.68 25.55C129.224 25.9396 128.838 26.4252 128.525 27.0066C128.211 27.5826 127.98 28.239 127.831 28.9756L137.953 29.329ZM160.747 16.877L159.921 40.5425L156.683 40.4295L156.873 34.9928C156.612 35.8909 156.264 36.6979 155.828 37.4138C155.392 38.1297 154.885 38.7337 154.308 39.2258C153.73 39.718 153.087 40.0904 152.379 40.3432C151.677 40.5962 150.926 40.7087 150.126 40.6808C149.401 40.6555 148.717 40.5275 148.074 40.2969C147.431 40.0664 146.839 39.7468 146.299 39.3384C145.763 38.9301 145.281 38.4437 144.853 37.879C144.43 37.3093 144.076 36.6752 143.79 35.9768C143.506 35.2731 143.292 34.5132 143.15 33.6971C143.013 32.8811 142.96 32.0228 142.991 31.122C143.023 30.2212 143.135 29.3686 143.329 28.5642C143.528 27.76 143.794 27.0195 144.127 26.3427C144.46 25.6659 144.857 25.0607 145.319 24.5272C145.786 23.9885 146.301 23.5342 146.864 23.1643C147.431 22.7945 148.044 22.5171 148.702 22.3319C149.359 22.1467 150.05 22.0668 150.775 22.0921C151.575 22.12 152.316 22.2847 152.999 22.586C153.688 22.8876 154.303 23.304 154.845 23.8352C155.387 24.3664 155.85 25.0043 156.235 25.7489C156.62 26.4881 156.911 27.3148 157.109 28.2289L157.509 16.7639L160.747 16.877ZM156.991 31.6108C157.026 30.6035 156.932 29.6983 156.71 28.8954C156.492 28.0873 156.159 27.3979 155.709 26.8272C155.259 26.2565 154.704 25.8128 154.043 25.4962C153.381 25.1796 152.627 25.0065 151.779 24.9769C150.916 24.9468 150.146 25.0613 149.47 25.3205C148.799 25.5746 148.231 25.9657 147.764 26.4937C147.297 27.0217 146.932 27.6841 146.67 28.4807C146.413 29.2722 146.266 30.1903 146.229 31.235C146.193 32.2797 146.275 33.2085 146.476 34.0214C146.683 34.8291 147.001 35.5152 147.429 36.0799C147.858 36.6392 148.398 37.0716 149.049 37.3772C149.705 37.6776 150.465 37.8429 151.329 37.8731C152.176 37.9026 152.941 37.7826 153.623 37.5129C154.305 37.2379 154.89 36.8314 155.379 36.2934C155.867 35.7555 156.248 35.0937 156.52 34.3081C156.799 33.5173 156.956 32.6182 156.991 31.6108ZM179.931 23.5906L179.427 38.0218C179.393 38.9918 179.268 39.9027 179.051 40.7543C178.835 41.6059 178.538 42.3854 178.161 43.0927C177.79 43.8001 177.341 44.4302 176.815 44.9828C176.288 45.5408 175.698 46.0085 175.045 46.3859C174.396 46.7635 173.687 47.0429 172.918 47.2242C172.154 47.411 171.342 47.4894 170.484 47.4594C169.749 47.4337 169.048 47.3319 168.382 47.1538C167.715 46.9811 167.097 46.7434 166.525 46.4406C165.96 46.138 165.447 45.7786 164.986 45.3622C164.531 44.9514 164.144 44.495 163.825 43.9929C163.507 43.4908 163.267 42.9488 163.106 42.3668C162.944 41.7901 162.874 41.19 162.896 40.5664L166.134 40.6795C166.122 41.0366 166.163 41.3796 166.258 41.7084C166.359 42.0375 166.503 42.3467 166.69 42.6361C166.883 42.931 167.114 43.1978 167.383 43.4367C167.657 43.6811 167.962 43.8892 168.298 44.061C168.633 44.2382 168.994 44.3788 169.379 44.483C169.771 44.5874 170.18 44.6471 170.606 44.662C171.416 44.6902 172.155 44.5506 172.822 44.243C173.494 43.9356 174.073 43.4862 174.558 42.8948C175.043 42.3034 175.426 41.5856 175.706 40.7415C175.992 39.8977 176.153 38.9534 176.189 37.9087L176.286 35.1264C176.027 35.9818 175.677 36.7514 175.237 37.4352C174.802 38.1191 174.291 38.6989 173.703 39.1747C173.121 39.6453 172.471 40.0015 171.753 40.2433C171.04 40.4799 170.276 40.584 169.461 40.5555C168.752 40.5307 168.081 40.4086 167.448 40.189C166.816 39.9641 166.231 39.6582 165.695 39.2713C165.164 38.8792 164.687 38.4116 164.263 37.8685C163.845 37.3202 163.492 36.7128 163.206 36.0465C162.92 35.3747 162.705 34.6495 162.562 33.8706C162.424 33.0867 162.37 32.263 162.4 31.3995C162.43 30.536 162.541 29.7207 162.733 28.9536C162.931 28.1814 163.196 27.4729 163.528 26.8281C163.86 26.1779 164.254 25.5967 164.71 25.0842C165.17 24.572 165.679 24.1415 166.236 23.7927C166.798 23.4388 167.402 23.1744 168.048 22.9995C168.695 22.8193 169.373 22.7416 170.082 22.7663C170.897 22.7948 171.652 22.9546 172.346 23.2456C173.046 23.5316 173.67 23.9323 174.218 24.4477C174.771 24.958 175.24 25.5694 175.626 26.282C176.018 26.9947 176.313 27.7868 176.512 28.6583L176.693 23.4775L179.931 23.5906ZM176.399 31.8884C176.432 30.9449 176.336 30.0957 176.112 29.3408C175.888 28.5805 175.547 27.9335 175.091 27.4C174.64 26.8612 174.076 26.4439 173.398 26.1481C172.725 25.8471 171.955 25.6815 171.086 25.6511C170.244 25.6217 169.493 25.7262 168.833 25.9647C168.174 26.2032 167.612 26.5704 167.146 27.0665C166.686 27.5627 166.328 28.1826 166.072 28.9261C165.817 29.6697 165.672 30.5318 165.638 31.5126C165.604 32.4933 165.688 33.3634 165.891 34.123C166.099 34.8827 166.416 35.5261 166.84 36.0533C167.265 36.5804 167.797 36.9886 168.438 37.2778C169.085 37.5619 169.826 37.7185 170.663 37.7477C171.532 37.7781 172.312 37.6666 173.004 37.4132C173.702 37.1601 174.294 36.7832 174.781 36.2825C175.274 35.7768 175.658 35.1551 175.935 34.4177C176.212 33.6749 176.366 32.8318 176.399 31.8884ZM198.434 36.0359C198.171 37.0139 197.783 37.8863 197.27 38.6529C196.758 39.4194 196.143 40.0624 195.426 40.5817C194.714 41.1011 193.91 41.4893 193.016 41.7463C192.121 42.0032 191.156 42.1136 190.122 42.0775C189.259 42.0473 188.447 41.9176 187.686 41.6882C186.931 41.4591 186.238 41.144 185.606 40.7431C184.98 40.337 184.42 39.8531 183.928 39.2916C183.441 38.7249 183.03 38.0916 182.697 37.3915C182.37 36.6863 182.127 35.92 181.969 35.0927C181.811 34.26 181.749 33.38 181.781 32.4525C181.814 31.5251 181.937 30.6569 182.152 29.8479C182.367 29.0389 182.66 28.2967 183.031 27.6212C183.406 26.9459 183.854 26.3451 184.374 25.819C184.894 25.2928 185.478 24.8516 186.125 24.4953C186.773 24.139 187.479 23.8755 188.242 23.7047C189.006 23.5286 189.815 23.4554 190.668 23.4852C191.931 23.5293 193.064 23.7877 194.067 24.2603C195.069 24.7276 195.917 25.3735 196.608 26.1982C197.3 27.0228 197.821 28.0096 198.17 29.1585C198.52 30.3074 198.67 31.5854 198.621 32.9925C198.613 33.1951 198.601 33.3948 198.584 33.5916C198.571 33.7886 198.55 34.0067 198.521 34.2458L185.041 33.7751C185.109 34.5833 185.275 35.3149 185.541 35.9699C185.811 36.6197 186.171 37.1766 186.619 37.6405C187.072 38.1046 187.609 38.4676 188.23 38.7294C188.851 38.9859 189.542 39.1274 190.304 39.1541C191.477 39.195 192.468 38.9468 193.276 38.4093C194.085 37.8665 194.725 37.0377 195.196 35.9228L198.434 36.0359ZM195.324 31.3325C195.245 30.5612 195.082 29.8778 194.836 29.2822C194.59 28.6812 194.266 28.1736 193.864 27.7594C193.463 27.3398 192.986 27.0162 192.433 26.7888C191.886 26.5616 191.269 26.436 190.581 26.412C189.878 26.3874 189.229 26.4741 188.635 26.6722C188.041 26.8649 187.513 27.1587 187.051 27.5535C186.595 27.9431 186.21 28.4286 185.896 29.01C185.582 29.5861 185.351 30.2424 185.203 30.979L195.324 31.3325Z" fill="white"/>
<rect x="21.396" y="45" width="208" height="40" rx="20" transform="rotate(2 21.396 45)" fill="#3C1B68"/>
<path opacity="0.85" d="M39.2677 60.3671L39.0688 66.0616L42.3009 66.1745C43.0777 66.2016 43.762 65.9393 44.3536 65.3876C44.93 64.8501 45.2318 64.1929 45.2589 63.416C45.2856 62.6538 45.0304 61.9772 44.4933 61.3861C43.9411 60.8091 43.2766 60.5071 42.4997 60.4799L39.2677 60.3671ZM37.2315 58.1607L42.5742 58.3472C43.952 58.3953 45.1078 58.92 46.0414 59.9212C46.975 60.9224 47.4178 62.1119 47.3697 63.4897C47.3215 64.8675 46.7969 66.0233 45.7957 66.9569C44.794 67.9052 43.6042 68.3553 42.2264 68.3072L38.9944 68.1943L38.8047 73.625L36.694 73.5513L37.2315 58.1607ZM57.6606 63.2767L59.6394 63.3458L59.2555 74.3391L57.2767 74.27L57.3289 72.7749C57.2824 72.8467 57.2286 72.9182 57.1674 72.9894C57.1208 73.0612 57.0672 73.1254 57.0065 73.1819C56.1545 74.0474 55.0469 74.4563 53.6837 74.4087C52.1153 74.354 50.8449 73.7519 49.8724 72.6026C48.8858 71.4381 48.4204 70.0571 48.4762 68.4594C48.5325 66.847 49.0931 65.5018 50.158 64.4236C51.2083 63.3449 52.5177 62.833 54.086 62.8877C55.4492 62.9353 56.5251 63.4352 57.3137 64.3873C57.3849 64.4485 57.4412 64.5165 57.4826 64.5913C57.5241 64.6661 57.5657 64.7336 57.6077 64.7938L57.6606 63.2767ZM54.1442 65.0031C53.1475 64.9683 52.3217 65.2916 51.6669 65.9732C50.9974 66.6542 50.6447 67.5078 50.6089 68.5338C50.573 69.5599 50.8653 70.4359 51.4857 71.162C52.0914 71.8876 52.8926 72.2678 53.8893 72.3026C54.8714 72.3369 55.6752 72.0128 56.3007 71.3302C56.6208 70.9891 56.8616 70.6086 57.023 70.1887C57.1996 69.7546 57.2969 69.281 57.3148 68.768C57.3332 68.2403 57.2692 67.7611 57.1228 67.3304C56.9911 66.9002 56.7775 66.5039 56.4819 66.1413C55.9055 65.4168 55.1263 65.0374 54.1442 65.0031ZM60.9772 63.3926L63.3078 63.4739L66.5165 71.819L70.2995 63.7181L72.5861 63.7979L66.7768 76.3408C66.5709 76.7739 66.3152 77.1612 66.0098 77.5028C65.7038 77.859 65.3337 78.1616 64.8994 78.4106C64.0602 78.9096 63.1568 79.1422 62.1894 79.1084L61.222 79.0747L61.2957 76.9639L62.2631 76.9977C62.8348 77.0177 63.3529 76.889 63.8176 76.6117C64.2817 76.3491 64.6329 75.9578 64.8712 75.4378L65.2999 74.5062L60.9772 63.3926ZM73.8011 69.3437L73.8748 67.233L80.9105 67.4787L80.8368 69.5894L73.8011 69.3437ZM92.0576 64.4779L94.0364 64.547L93.6525 75.5403L91.6737 75.4712L91.7259 73.9761C91.6794 74.0479 91.6256 74.1194 91.5644 74.1906C91.5178 74.2624 91.4642 74.3265 91.4035 74.3831C90.5515 75.2486 89.4439 75.6575 88.0807 75.6099C86.5123 75.5551 85.2419 74.9531 84.2694 73.8038C83.2828 72.6393 82.8174 71.2582 82.8732 69.6605C82.9295 68.0482 83.4901 66.7029 84.555 65.6248C85.6053 64.5461 86.9147 64.0341 88.483 64.0889C89.8462 64.1365 90.9221 64.6364 91.7107 65.5885C91.7819 65.6497 91.8382 65.7177 91.8796 65.7925C91.9211 65.8673 91.9627 65.9348 92.0047 65.995L92.0576 64.4779ZM88.5412 66.2042C87.5445 66.1694 86.7187 66.4928 86.0639 67.1744C85.3944 67.8554 85.0417 68.709 85.0059 69.735C84.97 70.761 85.2623 71.6371 85.8827 72.3632C86.4884 73.0888 87.2896 73.469 88.2863 73.5038C89.2684 73.5381 90.0722 73.2139 90.6977 72.5314C91.0178 72.1903 91.2586 71.8098 91.42 71.3899C91.5966 70.9558 91.6939 70.4822 91.7118 69.9692C91.7302 69.4415 91.6662 68.9623 91.5198 68.5316C91.3881 68.1014 91.1745 67.705 90.8789 67.3425C90.3025 66.618 89.5233 66.2385 88.5412 66.2042ZM103.724 66.7785L101.699 67.4122C101.62 67.1452 101.444 66.919 101.172 66.7334C100.884 66.5619 100.557 66.4698 100.191 66.457C99.7072 66.4401 99.3291 66.5516 99.0566 66.7916C98.784 67.0315 98.6416 67.3274 98.6293 67.6792C98.6286 68.1194 98.961 68.4759 99.6266 68.7487C99.7863 68.7983 99.9457 68.8552 100.105 68.9195C100.265 68.9691 100.432 69.0189 100.606 69.069C101.652 69.3697 102.437 69.7861 102.962 70.318C103.629 70.9724 103.946 71.7612 103.914 72.6847C103.877 73.74 103.437 74.5832 102.593 75.2141C101.824 75.789 100.883 76.057 99.769 76.0181C98.8602 75.9863 98.0761 75.7461 97.4167 75.2975C96.7421 74.8631 96.2564 74.2737 95.9595 73.5296L97.9856 72.8739C98.3118 73.6191 98.9147 74.007 99.7941 74.0377C100.366 74.0577 100.833 73.9199 101.195 73.6244C101.558 73.3289 101.747 72.9686 101.761 72.5435C101.764 72.0593 101.389 71.6573 100.637 71.3375C100.479 71.2439 100.313 71.1647 100.139 71.1C99.965 71.0352 99.7692 70.9697 99.5514 70.9033C99.0859 70.7844 98.6589 70.6154 98.2703 70.3963C97.8963 70.1778 97.5747 69.9318 97.3054 69.6582C96.7376 69.1101 96.4682 68.4182 96.4974 67.5827C96.5307 66.63 96.9096 65.8654 97.6341 65.289C98.3435 64.7268 99.2112 64.4636 100.237 64.4994C101.131 64.5306 101.88 64.7475 102.482 65.1501C103.07 65.5522 103.484 66.095 103.724 66.7785ZM106.072 70.4707L106.146 68.36L113.182 68.6056L113.108 70.7164L106.072 70.4707ZM114.677 65.2678L117.007 65.3492L120.216 73.6942L123.999 65.5933L126.286 65.6732L120.477 78.2161C120.271 78.6492 120.015 79.0365 119.709 79.378C119.404 79.7342 119.033 80.0368 118.599 80.2858C117.76 80.7848 116.857 81.0175 115.889 80.9837L114.922 80.9499L114.995 78.8392L115.963 78.873C116.534 78.8929 117.053 78.7643 117.517 78.487C117.981 78.2243 118.333 77.833 118.571 77.313L119 76.3814L114.677 65.2678ZM132.405 67.758C131.409 67.7232 130.583 68.0393 129.929 68.7062C129.609 69.0472 129.36 69.4348 129.184 69.8689C129.008 70.2883 128.911 70.7545 128.893 71.2676C128.857 72.2789 129.142 73.1548 129.747 73.895C130.354 74.6059 131.155 74.9788 132.152 75.0136C133.149 75.0484 133.974 74.7324 134.629 74.0654C134.963 73.7249 135.211 73.3447 135.373 72.9247C135.549 72.4906 135.647 72.0171 135.665 71.504C135.7 70.478 135.415 69.6022 134.81 68.8766C134.203 68.1657 133.402 67.7928 132.405 67.758ZM132.48 65.6253C134.048 65.6801 135.341 66.2829 136.357 67.4337C137.359 68.5841 137.832 69.9654 137.775 71.5778C137.719 73.1754 137.152 74.5204 136.071 75.6127C134.977 76.6899 133.646 77.2011 132.077 77.1463C130.509 77.0915 129.217 76.4887 128.2 75.3379C127.199 74.1729 126.726 72.7916 126.782 71.1939C126.838 69.5815 127.406 68.2365 128.486 67.1589C129.58 66.0817 130.911 65.5705 132.48 65.6253ZM139.929 66.1496L142.062 66.2241L141.857 72.0945C141.823 73.0766 142.059 73.8773 142.566 74.4967C143.058 75.1009 143.708 75.4171 144.514 75.4453C145.291 75.4724 145.946 75.2018 146.479 74.6334C147.028 74.0508 147.319 73.2685 147.354 72.2865L147.559 66.416L149.691 66.4905L149.489 72.295C149.432 73.9073 148.918 75.2028 147.944 76.1814C146.956 77.1596 145.788 77.6251 144.439 77.578C143.061 77.5299 141.914 76.9835 140.996 75.9388C140.094 74.8947 139.67 73.5664 139.727 71.9541L139.929 66.1496ZM151.914 72.0715L151.987 69.9608L159.023 70.2065L158.949 72.3172L151.914 72.0715ZM169.058 62.5C169.6 62.5189 170.126 62.5886 170.635 62.7092C171.145 62.8297 171.63 63.0081 172.092 63.2443C172.568 63.4664 173.006 63.7385 173.406 64.0607C173.806 64.3682 174.175 64.7186 174.514 65.112L172.921 66.5973C171.908 65.3438 170.596 64.689 168.983 64.6327C167.4 64.5774 166.069 65.0959 164.989 66.1882C163.908 67.2952 163.339 68.6548 163.283 70.2672C163.227 71.8795 163.699 73.2755 164.7 74.4552C165.701 75.6201 166.993 76.2303 168.576 76.2856C170.174 76.3414 171.529 75.787 172.641 74.6224C173.022 74.2248 173.331 73.7806 173.568 73.2899C173.805 72.7993 173.97 72.2694 174.064 71.7003L169.996 71.5582L170.07 69.4475L176.424 69.6694L176.387 70.7248C176.311 72.8941 175.551 74.7167 174.105 76.1925C173.74 76.5613 173.347 76.8851 172.926 77.1639C172.506 77.4427 172.05 77.6836 171.558 77.8866C170.605 78.2789 169.587 78.4561 168.502 78.4183C166.303 78.3415 164.513 77.5085 163.13 75.9193C161.748 74.3154 161.095 72.4068 161.172 70.1935C161.25 67.9801 162.041 66.122 163.546 64.6189C165.037 63.13 166.874 62.4237 169.058 62.5ZM183.421 69.5395C182.424 69.5047 181.599 69.8208 180.944 70.4877C180.624 70.8287 180.376 71.2163 180.199 71.6504C180.023 72.0698 179.926 72.5361 179.908 73.0491C179.873 74.0605 180.158 74.9363 180.763 75.6765C181.369 76.3874 182.171 76.7603 183.168 76.7951C184.164 76.8299 184.99 76.5139 185.644 75.847C185.979 75.5064 186.227 75.1262 186.389 74.7062C186.565 74.2721 186.662 73.7986 186.68 73.2856C186.716 72.2595 186.431 71.3837 185.825 70.6581C185.219 69.9472 184.418 69.5743 183.421 69.5395ZM183.496 67.4068C185.064 67.4616 186.356 68.0644 187.373 69.2152C188.375 70.3656 188.847 71.7469 188.791 73.3593C188.735 74.957 188.167 76.302 187.087 77.3943C185.993 78.4714 184.662 78.9826 183.093 78.9278C181.525 78.873 180.232 78.2702 179.216 77.1194C178.215 75.9544 177.742 74.5731 177.798 72.9754C177.854 71.363 178.422 70.018 179.502 68.9404C180.596 67.8632 181.927 67.3521 183.496 67.4068Z" fill="white"/>
</svg>
