<svg width="240" height="78" viewBox="0 0 240 78" fill="none" xmlns="http://www.w3.org/2000/svg">
<rect x="49" y="52" width="143" height="22" fill="#212367"/>
<path d="M64.4123 5.415H59.0663V19H56.7563V5.415H51.4103V3.27H64.4123V5.415ZM75.7698 6.8725L78.8553 17.4765L81.8968 6.8725H84.1518L80.5603 19H77.4253L74.4113 8.935L71.3918 19H68.2568L64.6653 6.8725H66.9753L70.0168 17.4765L73.1023 6.8725H75.7698ZM84.5864 12.9335C84.5864 12.2955 84.6506 11.6942 84.7789 11.1295C84.9073 10.5648 85.0924 10.046 85.3344 9.573C85.5764 9.1 85.8716 8.6765 86.2199 8.3025C86.5683 7.92483 86.9606 7.60583 87.3969 7.3455C87.8369 7.08517 88.3191 6.88717 88.8434 6.7515C89.3678 6.61217 89.9251 6.5425 90.5154 6.5425C91.1094 6.5425 91.6668 6.61217 92.1874 6.7515C92.7118 6.88717 93.1921 7.08517 93.6284 7.3455C94.0684 7.60583 94.4626 7.92483 94.8109 8.3025C95.1593 8.6765 95.4544 9.1 95.6964 9.573C95.9384 10.046 96.1236 10.5648 96.2519 11.1295C96.3803 11.6942 96.4444 12.2955 96.4444 12.9335C96.4444 13.5715 96.3803 14.1728 96.2519 14.7375C96.1236 15.3022 95.9384 15.8228 95.6964 16.2995C95.4544 16.7725 95.1593 17.196 94.8109 17.57C94.4626 17.944 94.0684 18.263 93.6284 18.527C93.1921 18.7873 92.7118 18.9853 92.1874 19.121C91.6668 19.2603 91.1094 19.33 90.5154 19.33C89.9251 19.33 89.3678 19.2603 88.8434 19.121C88.3191 18.9853 87.8369 18.7873 87.3969 18.527C86.9606 18.263 86.5683 17.944 86.2199 17.57C85.8716 17.196 85.5764 16.7725 85.3344 16.2995C85.0924 15.8228 84.9073 15.3022 84.7789 14.7375C84.6506 14.1728 84.5864 13.5715 84.5864 12.9335ZM86.8139 12.9335C86.8139 13.6118 86.8983 14.2223 87.0669 14.765C87.2393 15.304 87.4849 15.7642 87.8039 16.1455C88.1266 16.5232 88.5171 16.8128 88.9754 17.0145C89.4338 17.2162 89.9489 17.317 90.5209 17.317C91.0929 17.317 91.6063 17.2162 92.0609 17.0145C92.5193 16.8128 92.9079 16.5232 93.2269 16.1455C93.5459 15.7642 93.7898 15.304 93.9584 14.765C94.1308 14.2223 94.2169 13.6118 94.2169 12.9335C94.2169 12.2552 94.1308 11.6465 93.9584 11.1075C93.7898 10.5648 93.5459 10.1047 93.2269 9.727C92.9079 9.34933 92.5193 9.05967 92.0609 8.858C91.6063 8.65633 91.0929 8.5555 90.5209 8.5555C89.9489 8.5555 89.4338 8.65633 88.9754 8.858C88.5171 9.05967 88.1266 9.34933 87.8039 9.727C87.4849 10.1047 87.2393 10.5648 87.0669 11.1075C86.8983 11.6465 86.8139 12.2552 86.8139 12.9335ZM110.318 18.9065C109.39 19.1852 108.554 19.3245 107.81 19.3245C107.205 19.3245 106.67 19.231 106.204 19.044C105.742 18.8607 105.353 18.5875 105.038 18.2245C104.723 17.8578 104.482 17.405 104.317 16.866C104.156 16.3233 104.075 15.6963 104.075 14.985V8.7425H102.425V6.8725H104.075V4.0785H106.303V6.8725H110.318V8.7425H106.303V14.9905C106.303 15.7935 106.453 16.3875 106.754 16.7725C107.058 17.1538 107.535 17.3445 108.184 17.3445C108.437 17.3445 108.738 17.3152 109.086 17.2565C109.438 17.1978 109.849 17.1062 110.318 16.9815V18.9065ZM123.433 6.8725L118.412 19.7645C118.159 20.4098 117.864 20.9672 117.526 21.4365C117.193 21.9058 116.808 22.2927 116.371 22.597C115.939 22.905 115.453 23.1323 114.914 23.279C114.378 23.4257 113.783 23.499 113.126 23.499C112.947 23.499 112.772 23.4935 112.604 23.4825C112.435 23.4715 112.272 23.4568 112.114 23.4385V21.4915C112.309 21.5172 112.488 21.5355 112.653 21.5465C112.822 21.5575 112.983 21.563 113.137 21.563C113.871 21.563 114.468 21.42 114.93 21.134C115.392 20.848 115.739 20.3915 115.97 19.7645L116.124 19.3575L111.311 6.8725H113.621L117.378 16.9705L121.178 6.8725H123.433ZM126.835 10.607C126.993 9.98367 127.213 9.42267 127.495 8.924C127.777 8.42167 128.111 7.9945 128.496 7.6425C128.881 7.2905 129.312 7.01917 129.789 6.8285C130.269 6.63783 130.784 6.5425 131.334 6.5425C131.833 6.5425 132.306 6.614 132.753 6.757C133.2 6.9 133.613 7.10533 133.991 7.373C134.372 7.64067 134.715 7.96517 135.019 8.3465C135.327 8.72417 135.587 9.1495 135.8 9.6225C136.013 10.0955 136.176 10.6107 136.29 11.168C136.407 11.7253 136.466 12.3138 136.466 12.9335C136.466 13.5532 136.407 14.1417 136.29 14.699C136.176 15.2563 136.013 15.7733 135.8 16.25C135.587 16.723 135.327 17.1502 135.019 17.5315C134.715 17.9092 134.372 18.2318 133.991 18.4995C133.613 18.7672 133.2 18.9725 132.753 19.1155C132.306 19.2585 131.833 19.33 131.334 19.33C130.784 19.33 130.269 19.2347 129.789 19.044C129.312 18.8533 128.881 18.582 128.496 18.23C128.111 17.878 127.777 17.4508 127.495 16.9485C127.213 16.4462 126.993 15.8833 126.835 15.26V23.1525H124.608V6.8725H126.835V10.607ZM126.835 12.9335C126.835 13.6265 126.919 14.248 127.088 14.798C127.26 15.3443 127.508 15.8082 127.831 16.1895C128.153 16.5708 128.546 16.8642 129.008 17.0695C129.47 17.2712 129.992 17.372 130.575 17.372C131.169 17.372 131.693 17.2767 132.148 17.086C132.606 16.8917 132.99 16.6075 133.298 16.2335C133.606 15.8558 133.838 15.392 133.996 14.842C134.157 14.2883 134.238 13.6522 134.238 12.9335C134.238 12.2148 134.157 11.5805 133.996 11.0305C133.838 10.4768 133.606 10.013 133.298 9.639C132.99 9.265 132.606 8.98267 132.148 8.792C131.693 8.59767 131.169 8.5005 130.575 8.5005C129.992 8.5005 129.47 8.60133 129.008 8.803C128.546 9.00467 128.153 9.29617 127.831 9.6775C127.508 10.0588 127.26 10.5245 127.088 11.0745C126.919 11.6208 126.835 12.2405 126.835 12.9335ZM149.202 14.9795C149.045 15.6578 148.799 16.2665 148.465 16.8055C148.132 17.3445 147.725 17.801 147.244 18.175C146.768 18.549 146.225 18.835 145.616 19.033C145.008 19.231 144.348 19.33 143.636 19.33C143.042 19.33 142.481 19.2603 141.953 19.121C141.429 18.9817 140.945 18.7818 140.501 18.5215C140.061 18.2575 139.665 17.9385 139.313 17.5645C138.965 17.1868 138.668 16.7615 138.422 16.2885C138.18 15.8118 137.995 15.2912 137.867 14.7265C137.739 14.1582 137.674 13.555 137.674 12.917C137.674 12.279 137.739 11.6795 137.867 11.1185C137.995 10.5575 138.179 10.0405 138.417 9.5675C138.659 9.0945 138.952 8.671 139.297 8.297C139.642 7.923 140.032 7.60583 140.468 7.3455C140.905 7.08517 141.383 6.88717 141.904 6.7515C142.425 6.61217 142.978 6.5425 143.565 6.5425C144.434 6.5425 145.219 6.69283 145.919 6.9935C146.619 7.2905 147.217 7.714 147.712 8.264C148.207 8.814 148.588 9.4795 148.856 10.2605C149.124 11.0415 149.257 11.916 149.257 12.884C149.257 13.0233 149.254 13.1608 149.246 13.2965C149.243 13.4322 149.234 13.5825 149.219 13.7475H139.946C140.012 14.3012 140.144 14.7998 140.342 15.2435C140.544 15.6835 140.804 16.0575 141.123 16.3655C141.446 16.6735 141.823 16.91 142.256 17.075C142.689 17.2363 143.167 17.317 143.691 17.317C144.498 17.317 145.173 17.1227 145.715 16.734C146.258 16.3417 146.678 15.7568 146.975 14.9795H149.202ZM146.953 11.8225C146.88 11.2945 146.751 10.8288 146.568 10.4255C146.385 10.0185 146.15 9.6775 145.864 9.4025C145.578 9.12383 145.242 8.913 144.857 8.77C144.476 8.627 144.049 8.5555 143.576 8.5555C143.092 8.5555 142.648 8.63067 142.245 8.781C141.842 8.92767 141.486 9.14217 141.178 9.4245C140.874 9.70317 140.621 10.046 140.419 10.453C140.217 10.8563 140.074 11.3128 139.99 11.8225H146.953ZM155.661 6.5425C156.486 6.5425 157.219 6.636 157.861 6.823C158.506 7.01 159.049 7.27767 159.489 7.626C159.932 7.97067 160.27 8.3905 160.501 8.8855C160.732 9.37683 160.847 9.92867 160.847 10.541H158.669C158.669 10.2293 158.603 9.947 158.471 9.694C158.343 9.43733 158.15 9.21917 157.894 9.0395C157.641 8.85617 157.327 8.715 156.953 8.616C156.579 8.517 156.148 8.4675 155.661 8.4675C155.221 8.4675 154.819 8.50783 154.456 8.5885C154.097 8.66917 153.787 8.78467 153.527 8.935C153.266 9.08167 153.065 9.2595 152.922 9.4685C152.779 9.67383 152.707 9.903 152.707 10.156C152.707 10.3467 152.747 10.5153 152.828 10.662C152.909 10.805 153.019 10.9297 153.158 11.036C153.297 11.1423 153.461 11.234 153.648 11.311C153.835 11.3843 154.034 11.4485 154.247 11.5035C154.463 11.5585 154.687 11.6062 154.918 11.6465C155.149 11.6832 155.376 11.7198 155.6 11.7565L156.414 11.883C156.751 11.9343 157.105 11.9948 157.476 12.0645C157.85 12.1305 158.216 12.2203 158.576 12.334C158.939 12.444 159.283 12.5852 159.61 12.7575C159.94 12.9262 160.229 13.1388 160.479 13.3955C160.728 13.6522 160.926 13.9602 161.073 14.3195C161.219 14.6752 161.293 15.0987 161.293 15.59C161.293 16.1877 161.175 16.7193 160.941 17.185C160.706 17.647 160.359 18.0375 159.901 18.3565C159.443 18.6755 158.876 18.9175 158.202 19.0825C157.527 19.2475 156.748 19.33 155.864 19.33C154.944 19.33 154.137 19.2402 153.444 19.0605C152.751 18.8808 152.174 18.6168 151.712 18.2685C151.25 17.9202 150.901 17.493 150.667 16.987C150.436 16.4773 150.32 15.8925 150.32 15.2325H152.493C152.493 15.9292 152.768 16.4663 153.318 16.844C153.868 17.218 154.715 17.405 155.859 17.405C156.376 17.405 156.836 17.3665 157.239 17.2895C157.642 17.2125 157.983 17.0988 158.262 16.9485C158.541 16.7982 158.753 16.613 158.9 16.393C159.047 16.173 159.12 15.9218 159.12 15.6395C159.12 15.4195 159.078 15.227 158.994 15.062C158.909 14.8933 158.792 14.7485 158.642 14.6275C158.491 14.5028 158.313 14.3965 158.108 14.3085C157.906 14.2168 157.686 14.138 157.448 14.072C157.21 14.006 156.96 13.9492 156.7 13.9015C156.443 13.8502 156.183 13.8025 155.919 13.7585L155.111 13.621C154.803 13.5697 154.476 13.511 154.132 13.445C153.787 13.3753 153.444 13.2892 153.103 13.1865C152.766 13.0802 152.441 12.9482 152.13 12.7905C151.822 12.6292 151.548 12.4312 151.31 12.1965C151.075 11.9618 150.887 11.6813 150.744 11.355C150.604 11.0287 150.535 10.6455 150.535 10.2055C150.535 9.64817 150.652 9.144 150.887 8.693C151.125 8.242 151.464 7.857 151.904 7.538C152.348 7.219 152.885 6.97333 153.516 6.801C154.15 6.62867 154.865 6.5425 155.661 6.5425ZM167.344 12.9335C167.344 12.2955 167.408 11.6942 167.537 11.1295C167.665 10.5648 167.85 10.046 168.092 9.573C168.334 9.1 168.629 8.6765 168.978 8.3025C169.326 7.92483 169.718 7.60583 170.155 7.3455C170.595 7.08517 171.077 6.88717 171.601 6.7515C172.126 6.61217 172.683 6.5425 173.273 6.5425C173.867 6.5425 174.425 6.61217 174.945 6.7515C175.47 6.88717 175.95 7.08517 176.386 7.3455C176.826 7.60583 177.22 7.92483 177.569 8.3025C177.917 8.6765 178.212 9.1 178.454 9.573C178.696 10.046 178.881 10.5648 179.01 11.1295C179.138 11.6942 179.202 12.2955 179.202 12.9335C179.202 13.5715 179.138 14.1728 179.01 14.7375C178.881 15.3022 178.696 15.8228 178.454 16.2995C178.212 16.7725 177.917 17.196 177.569 17.57C177.22 17.944 176.826 18.263 176.386 18.527C175.95 18.7873 175.47 18.9853 174.945 19.121C174.425 19.2603 173.867 19.33 173.273 19.33C172.683 19.33 172.126 19.2603 171.601 19.121C171.077 18.9853 170.595 18.7873 170.155 18.527C169.718 18.263 169.326 17.944 168.978 17.57C168.629 17.196 168.334 16.7725 168.092 16.2995C167.85 15.8228 167.665 15.3022 167.537 14.7375C167.408 14.1728 167.344 13.5715 167.344 12.9335ZM169.572 12.9335C169.572 13.6118 169.656 14.2223 169.825 14.765C169.997 15.304 170.243 15.7642 170.562 16.1455C170.884 16.5232 171.275 16.8128 171.733 17.0145C172.192 17.2162 172.707 17.317 173.279 17.317C173.851 17.317 174.364 17.2162 174.819 17.0145C175.277 16.8128 175.666 16.5232 175.985 16.1455C176.304 15.7642 176.548 15.304 176.716 14.765C176.889 14.2223 176.975 13.6118 176.975 12.9335C176.975 12.2552 176.889 11.6465 176.716 11.1075C176.548 10.5648 176.304 10.1047 175.985 9.727C175.666 9.34933 175.277 9.05967 174.819 8.858C174.364 8.65633 173.851 8.5555 173.279 8.5555C172.707 8.5555 172.192 8.65633 171.733 8.858C171.275 9.05967 170.884 9.34933 170.562 9.727C170.243 10.1047 169.997 10.5648 169.825 11.1075C169.656 11.6465 169.572 12.2552 169.572 12.9335ZM181.805 8.7425H179.962V6.8725H181.805V6.5975C181.805 5.8495 181.898 5.1895 182.085 4.6175C182.272 4.0455 182.547 3.567 182.91 3.182C183.277 2.79333 183.73 2.5 184.269 2.302C184.808 2.104 185.431 2.005 186.139 2.005C186.748 2.005 187.4 2.0765 188.097 2.2195V4.1445C187.455 4.0125 186.907 3.9465 186.452 3.9465C185.602 3.9465 184.967 4.1665 184.549 4.6065C184.131 5.0465 183.922 5.71017 183.922 6.5975V6.8725H188.102V8.7425H184.032V19H181.805V8.7425ZM41.4346 36.607C41.5923 35.9837 41.8123 35.4227 42.0946 34.924C42.377 34.4217 42.7106 33.9945 43.0956 33.6425C43.4806 33.2905 43.9115 33.0192 44.3881 32.8285C44.8685 32.6378 45.3836 32.5425 45.9336 32.5425C46.4323 32.5425 46.9053 32.614 47.3526 32.757C47.8 32.9 48.2125 33.1053 48.5901 33.373C48.9715 33.6407 49.3143 33.9652 49.6186 34.3465C49.9266 34.7242 50.187 35.1495 50.3996 35.6225C50.6123 36.0955 50.7755 36.6107 50.8891 37.168C51.0065 37.7253 51.0651 38.3138 51.0651 38.9335C51.0651 39.5532 51.0065 40.1417 50.8891 40.699C50.7755 41.2563 50.6123 41.7733 50.3996 42.25C50.187 42.723 49.9266 43.1502 49.6186 43.5315C49.3143 43.9092 48.9715 44.2318 48.5901 44.4995C48.2125 44.7672 47.8 44.9725 47.3526 45.1155C46.9053 45.2585 46.4323 45.33 45.9336 45.33C45.3836 45.33 44.8685 45.2347 44.3881 45.044C43.9115 44.8533 43.4806 44.582 43.0956 44.23C42.7106 43.878 42.377 43.4508 42.0946 42.9485C41.8123 42.4462 41.5923 41.8833 41.4346 41.26V49.1525H39.2071V32.8725H41.4346V36.607ZM41.4346 38.9335C41.4346 39.6265 41.519 40.248 41.6876 40.798C41.86 41.3443 42.1075 41.8082 42.4301 42.1895C42.7528 42.5708 43.1451 42.8642 43.6071 43.0695C44.0691 43.2712 44.5916 43.372 45.1746 43.372C45.7686 43.372 46.293 43.2767 46.7476 43.086C47.206 42.8917 47.5891 42.6075 47.8971 42.2335C48.2051 41.8558 48.438 41.392 48.5956 40.842C48.757 40.2883 48.8376 39.6522 48.8376 38.9335C48.8376 38.2148 48.757 37.5805 48.5956 37.0305C48.438 36.4768 48.2051 36.013 47.8971 35.639C47.5891 35.265 47.206 34.9827 46.7476 34.792C46.293 34.5977 45.7686 34.5005 45.1746 34.5005C44.5916 34.5005 44.0691 34.6013 43.6071 34.803C43.1451 35.0047 42.7528 35.2962 42.4301 35.6775C42.1075 36.0588 41.86 36.5245 41.6876 37.0745C41.519 37.6208 41.4346 38.2405 41.4346 38.9335ZM54.7764 45H52.5489V32.8725H54.7764V36.7445C54.9194 36.1395 55.1229 35.5987 55.3869 35.122C55.6546 34.6417 55.9846 34.2347 56.3769 33.901C56.7693 33.5673 57.2221 33.3125 57.7354 33.1365C58.2524 32.9605 58.8318 32.8725 59.4734 32.8725H60.0289V34.9955H59.4789C58.5916 34.9955 57.8473 35.078 57.2459 35.243C56.6446 35.4043 56.1606 35.65 55.7939 35.98C55.4309 36.31 55.1706 36.7262 55.0129 37.2285C54.8553 37.7272 54.7764 38.3138 54.7764 38.9885V45ZM60.7173 38.9335C60.7173 38.2955 60.7815 37.6942 60.9098 37.1295C61.0381 36.5648 61.2233 36.046 61.4653 35.573C61.7073 35.1 62.0025 34.6765 62.3508 34.3025C62.6991 33.9248 63.0915 33.6058 63.5278 33.3455C63.9678 33.0852 64.45 32.8872 64.9743 32.7515C65.4986 32.6122 66.056 32.5425 66.6463 32.5425C67.2403 32.5425 67.7976 32.6122 68.3183 32.7515C68.8426 32.8872 69.323 33.0852 69.7593 33.3455C70.1993 33.6058 70.5935 33.9248 70.9418 34.3025C71.2901 34.6765 71.5853 35.1 71.8273 35.573C72.0693 36.046 72.2545 36.5648 72.3828 37.1295C72.5111 37.6942 72.5753 38.2955 72.5753 38.9335C72.5753 39.5715 72.5111 40.1728 72.3828 40.7375C72.2545 41.3022 72.0693 41.8228 71.8273 42.2995C71.5853 42.7725 71.2901 43.196 70.9418 43.57C70.5935 43.944 70.1993 44.263 69.7593 44.527C69.323 44.7873 68.8426 44.9853 68.3183 45.121C67.7976 45.2603 67.2403 45.33 66.6463 45.33C66.056 45.33 65.4986 45.2603 64.9743 45.121C64.45 44.9853 63.9678 44.7873 63.5278 44.527C63.0915 44.263 62.6991 43.944 62.3508 43.57C62.0025 43.196 61.7073 42.7725 61.4653 42.2995C61.2233 41.8228 61.0381 41.3022 60.9098 40.7375C60.7815 40.1728 60.7173 39.5715 60.7173 38.9335ZM62.9448 38.9335C62.9448 39.6118 63.0291 40.2223 63.1978 40.765C63.3701 41.304 63.6158 41.7642 63.9348 42.1455C64.2575 42.5232 64.648 42.8128 65.1063 43.0145C65.5646 43.2162 66.0798 43.317 66.6518 43.317C67.2238 43.317 67.7371 43.2162 68.1918 43.0145C68.6501 42.8128 69.0388 42.5232 69.3578 42.1455C69.6768 41.7642 69.9206 41.304 70.0893 40.765C70.2616 40.2223 70.3478 39.6118 70.3478 38.9335C70.3478 38.2552 70.2616 37.6465 70.0893 37.1075C69.9206 36.5648 69.6768 36.1047 69.3578 35.727C69.0388 35.3493 68.6501 35.0597 68.1918 34.858C67.7371 34.6563 67.2238 34.5555 66.6518 34.5555C66.0798 34.5555 65.5646 34.6563 65.1063 34.858C64.648 35.0597 64.2575 35.3493 63.9348 35.727C63.6158 36.1047 63.3701 36.5648 63.1978 37.1075C63.0291 37.6465 62.9448 38.2552 62.9448 38.9335ZM81.3354 44.9065C80.4078 45.1852 79.5718 45.3245 78.8274 45.3245C78.2224 45.3245 77.6871 45.231 77.2214 45.044C76.7594 44.8607 76.3708 44.5875 76.0554 44.2245C75.7401 43.8578 75.4999 43.405 75.3349 42.866C75.1736 42.3233 75.0929 41.6963 75.0929 40.985V34.7425H73.4429V32.8725H75.0929V30.0785H77.3204V32.8725H81.3354V34.7425H77.3204V40.9905C77.3204 41.7935 77.4708 42.3875 77.7714 42.7725C78.0758 43.1538 78.5524 43.3445 79.2014 43.3445C79.4544 43.3445 79.7551 43.3152 80.1034 43.2565C80.4554 43.1978 80.8661 43.1062 81.3354 42.9815V44.9065ZM93.6652 40.9795C93.5076 41.6578 93.2619 42.2665 92.9282 42.8055C92.5946 43.3445 92.1876 43.801 91.7072 44.175C91.2306 44.549 90.6879 44.835 90.0792 45.033C89.4706 45.231 88.8106 45.33 88.0992 45.33C87.5052 45.33 86.9442 45.2603 86.4162 45.121C85.8919 44.9817 85.4079 44.7818 84.9642 44.5215C84.5242 44.2575 84.1282 43.9385 83.7762 43.5645C83.4279 43.1868 83.1309 42.7615 82.8852 42.2885C82.6432 41.8118 82.4581 41.2912 82.3297 40.7265C82.2014 40.1582 82.1372 39.555 82.1372 38.917C82.1372 38.279 82.2014 37.6795 82.3297 37.1185C82.4581 36.5575 82.6414 36.0405 82.8797 35.5675C83.1217 35.0945 83.4151 34.671 83.7597 34.297C84.1044 33.923 84.4949 33.6058 84.9312 33.3455C85.3676 33.0852 85.8461 32.8872 86.3667 32.7515C86.8874 32.6122 87.4411 32.5425 88.0277 32.5425C88.8967 32.5425 89.6814 32.6928 90.3817 32.9935C91.0821 33.2905 91.6797 33.714 92.1747 34.264C92.6697 34.814 93.0511 35.4795 93.3187 36.2605C93.5864 37.0415 93.7202 37.916 93.7202 38.884C93.7202 39.0233 93.7166 39.1608 93.7092 39.2965C93.7056 39.4322 93.6964 39.5825 93.6817 39.7475H84.4087C84.4747 40.3012 84.6067 40.7998 84.8047 41.2435C85.0064 41.6835 85.2667 42.0575 85.5857 42.3655C85.9084 42.6735 86.2861 42.91 86.7187 43.075C87.1514 43.2363 87.6299 43.317 88.1542 43.317C88.9609 43.317 89.6356 43.1227 90.1782 42.734C90.7209 42.3417 91.1407 41.7568 91.4377 40.9795H93.6652ZM91.4157 37.8225C91.3424 37.2945 91.2141 36.8288 91.0307 36.4255C90.8474 36.0185 90.6127 35.6775 90.3267 35.4025C90.0407 35.1238 89.7052 34.913 89.3202 34.77C88.9389 34.627 88.5117 34.5555 88.0387 34.5555C87.5547 34.5555 87.1111 34.6307 86.7077 34.781C86.3044 34.9277 85.9487 35.1422 85.6407 35.4245C85.3364 35.7032 85.0834 36.046 84.8817 36.453C84.6801 36.8563 84.5371 37.3128 84.4527 37.8225H91.4157ZM97.1479 38.9335C97.1479 39.6118 97.2323 40.2223 97.4009 40.765C97.5733 41.304 97.8189 41.7642 98.1379 42.1455C98.4606 42.5232 98.8511 42.8128 99.3094 43.0145C99.7678 43.2162 100.283 43.317 100.855 43.317C101.357 43.317 101.801 43.2418 102.186 43.0915C102.571 42.9412 102.903 42.7358 103.181 42.4755C103.46 42.2115 103.686 41.9053 103.858 41.557C104.03 41.205 104.153 40.8292 104.226 40.4295H106.454C106.395 40.8878 106.291 41.3278 106.14 41.7495C105.99 42.1712 105.798 42.5635 105.563 42.9265C105.328 43.2895 105.051 43.6195 104.732 43.9165C104.417 44.2098 104.061 44.4628 103.665 44.6755C103.269 44.8845 102.837 45.0458 102.367 45.1595C101.898 45.2732 101.392 45.33 100.849 45.33C100.259 45.33 99.7018 45.2603 99.1774 45.121C98.6531 44.9853 98.1709 44.7873 97.7309 44.527C97.2946 44.263 96.9023 43.944 96.5539 43.57C96.2056 43.196 95.9104 42.7725 95.6684 42.2995C95.4264 41.8228 95.2413 41.3022 95.1129 40.7375C94.9846 40.1728 94.9204 39.5715 94.9204 38.9335C94.9204 38.2955 94.9846 37.6942 95.1129 37.1295C95.2413 36.5648 95.4264 36.046 95.6684 35.573C95.9104 35.1 96.2056 34.6765 96.5539 34.3025C96.9023 33.9248 97.2946 33.6058 97.7309 33.3455C98.1709 33.0852 98.6531 32.8872 99.1774 32.7515C99.7018 32.6122 100.259 32.5425 100.849 32.5425C101.392 32.5425 101.898 32.5993 102.367 32.713C102.84 32.8267 103.275 32.9898 103.671 33.2025C104.067 33.4115 104.423 33.6645 104.738 33.9615C105.057 34.2548 105.332 34.583 105.563 34.946C105.798 35.309 105.99 35.7013 106.14 36.123C106.291 36.5447 106.395 36.9847 106.454 37.443H104.226C104.153 37.0433 104.03 36.6693 103.858 36.321C103.689 35.969 103.466 35.6628 103.187 35.4025C102.908 35.1385 102.575 34.9313 102.186 34.781C101.801 34.6307 101.357 34.5555 100.855 34.5555C100.283 34.5555 99.7678 34.6563 99.3094 34.858C98.8511 35.0597 98.4606 35.3493 98.1379 35.727C97.8189 36.1047 97.5733 36.5648 97.4009 37.1075C97.2323 37.6465 97.1479 38.2552 97.1479 38.9335ZM115.216 44.9065C114.289 45.1852 113.453 45.3245 112.708 45.3245C112.103 45.3245 111.568 45.231 111.102 45.044C110.64 44.8607 110.252 44.5875 109.936 44.2245C109.621 43.8578 109.381 43.405 109.216 42.866C109.054 42.3233 108.974 41.6963 108.974 40.985V34.7425H107.324V32.8725H108.974V30.0785H111.201V32.8725H115.216V34.7425H111.201V40.9905C111.201 41.7935 111.352 42.3875 111.652 42.7725C111.957 43.1538 112.433 43.3445 113.082 43.3445C113.335 43.3445 113.636 43.3152 113.984 43.2565C114.336 43.1978 114.747 43.1062 115.216 42.9815V44.9065ZM119.07 31.47H116.732V28.72H119.07V31.47ZM119.015 45H116.787V32.8725H119.015V45ZM120.508 38.9335C120.508 38.2955 120.572 37.6942 120.701 37.1295C120.829 36.5648 121.014 36.046 121.256 35.573C121.498 35.1 121.793 34.6765 122.142 34.3025C122.49 33.9248 122.882 33.6058 123.319 33.3455C123.759 33.0852 124.241 32.8872 124.765 32.7515C125.29 32.6122 125.847 32.5425 126.437 32.5425C127.031 32.5425 127.589 32.6122 128.109 32.7515C128.634 32.8872 129.114 33.0852 129.55 33.3455C129.99 33.6058 130.384 33.9248 130.733 34.3025C131.081 34.6765 131.376 35.1 131.618 35.573C131.86 36.046 132.045 36.5648 132.174 37.1295C132.302 37.6942 132.366 38.2955 132.366 38.9335C132.366 39.5715 132.302 40.1728 132.174 40.7375C132.045 41.3022 131.86 41.8228 131.618 42.2995C131.376 42.7725 131.081 43.196 130.733 43.57C130.384 43.944 129.99 44.263 129.55 44.527C129.114 44.7873 128.634 44.9853 128.109 45.121C127.589 45.2603 127.031 45.33 126.437 45.33C125.847 45.33 125.29 45.2603 124.765 45.121C124.241 44.9853 123.759 44.7873 123.319 44.527C122.882 44.263 122.49 43.944 122.142 43.57C121.793 43.196 121.498 42.7725 121.256 42.2995C121.014 41.8228 120.829 41.3022 120.701 40.7375C120.572 40.1728 120.508 39.5715 120.508 38.9335ZM122.736 38.9335C122.736 39.6118 122.82 40.2223 122.989 40.765C123.161 41.304 123.407 41.7642 123.726 42.1455C124.048 42.5232 124.439 42.8128 124.897 43.0145C125.356 43.2162 125.871 43.317 126.443 43.317C127.015 43.317 127.528 43.2162 127.983 43.0145C128.441 42.8128 128.83 42.5232 129.149 42.1455C129.468 41.7642 129.712 41.304 129.88 40.765C130.053 40.2223 130.139 39.6118 130.139 38.9335C130.139 38.2552 130.053 37.6465 129.88 37.1075C129.712 36.5648 129.468 36.1047 129.149 35.727C128.83 35.3493 128.441 35.0597 127.983 34.858C127.528 34.6563 127.015 34.5555 126.443 34.5555C125.871 34.5555 125.356 34.6563 124.897 34.858C124.439 35.0597 124.048 35.3493 123.726 35.727C123.407 36.1047 123.161 36.5648 122.989 37.1075C122.82 37.6465 122.736 38.2552 122.736 38.9335ZM136.073 45H133.846V32.8725H136.073V36.376C136.22 35.7783 136.431 35.243 136.706 34.77C136.981 34.297 137.311 33.8955 137.696 33.5655C138.081 33.2355 138.515 32.9825 138.999 32.8065C139.487 32.6305 140.013 32.5425 140.578 32.5425C141.267 32.5425 141.885 32.6727 142.431 32.933C142.978 33.1933 143.44 33.5692 143.817 34.0605C144.199 34.5482 144.488 35.144 144.686 35.848C144.888 36.5483 144.989 37.3385 144.989 38.2185V45H142.761V38.2185C142.761 37.0012 142.503 36.0863 141.986 35.474C141.469 34.8617 140.69 34.5555 139.648 34.5555C139.087 34.5555 138.585 34.6435 138.141 34.8195C137.701 34.9918 137.327 35.2448 137.019 35.5785C136.715 35.9085 136.48 36.3155 136.315 36.7995C136.154 37.2798 136.073 37.8262 136.073 38.4385V45ZM153.037 34.7425H151.195V32.8725H153.037V32.5975C153.037 31.8495 153.131 31.1895 153.318 30.6175C153.505 30.0455 153.78 29.567 154.143 29.182C154.51 28.7933 154.962 28.5 155.501 28.302C156.04 28.104 156.664 28.005 157.371 28.005C157.98 28.005 158.633 28.0765 159.329 28.2195V30.1445C158.688 30.0125 158.14 29.9465 157.685 29.9465C156.834 29.9465 156.2 30.1665 155.782 30.6065C155.364 31.0465 155.155 31.7102 155.155 32.5975V32.8725H159.335V34.7425H155.265V45H153.037V34.7425ZM162.95 45H160.723V32.8725H162.95V36.7445C163.093 36.1395 163.297 35.5987 163.561 35.122C163.828 34.6417 164.158 34.2347 164.551 33.901C164.943 33.5673 165.396 33.3125 165.909 33.1365C166.426 32.9605 167.006 32.8725 167.647 32.8725H168.203V34.9955H167.653C166.765 34.9955 166.021 35.078 165.42 35.243C164.818 35.4043 164.334 35.65 163.968 35.98C163.605 36.31 163.344 36.7262 163.187 37.2285C163.029 37.7272 162.95 38.3138 162.95 38.9885V45ZM168.891 38.9335C168.891 38.2955 168.955 37.6942 169.084 37.1295C169.212 36.5648 169.397 36.046 169.639 35.573C169.881 35.1 170.176 34.6765 170.525 34.3025C170.873 33.9248 171.265 33.6058 171.702 33.3455C172.142 33.0852 172.624 32.8872 173.148 32.7515C173.672 32.6122 174.23 32.5425 174.82 32.5425C175.414 32.5425 175.971 32.6122 176.492 32.7515C177.016 32.8872 177.497 33.0852 177.933 33.3455C178.373 33.6058 178.767 33.9248 179.116 34.3025C179.464 34.6765 179.759 35.1 180.001 35.573C180.243 36.046 180.428 36.5648 180.557 37.1295C180.685 37.6942 180.749 38.2955 180.749 38.9335C180.749 39.5715 180.685 40.1728 180.557 40.7375C180.428 41.3022 180.243 41.8228 180.001 42.2995C179.759 42.7725 179.464 43.196 179.116 43.57C178.767 43.944 178.373 44.263 177.933 44.527C177.497 44.7873 177.016 44.9853 176.492 45.121C175.971 45.2603 175.414 45.33 174.82 45.33C174.23 45.33 173.672 45.2603 173.148 45.121C172.624 44.9853 172.142 44.7873 171.702 44.527C171.265 44.263 170.873 43.944 170.525 43.57C170.176 43.196 169.881 42.7725 169.639 42.2995C169.397 41.8228 169.212 41.3022 169.084 40.7375C168.955 40.1728 168.891 39.5715 168.891 38.9335ZM171.119 38.9335C171.119 39.6118 171.203 40.2223 171.372 40.765C171.544 41.304 171.79 41.7642 172.109 42.1455C172.431 42.5232 172.822 42.8128 173.28 43.0145C173.738 43.2162 174.254 43.317 174.826 43.317C175.398 43.317 175.911 43.2162 176.366 43.0145C176.824 42.8128 177.213 42.5232 177.532 42.1455C177.851 41.7642 178.094 41.304 178.263 40.765C178.435 40.2223 178.522 39.6118 178.522 38.9335C178.522 38.2552 178.435 37.6465 178.263 37.1075C178.094 36.5648 177.851 36.1047 177.532 35.727C177.213 35.3493 176.824 35.0597 176.366 34.858C175.911 34.6563 175.398 34.5555 174.826 34.5555C174.254 34.5555 173.738 34.6563 173.28 34.858C172.822 35.0597 172.431 35.3493 172.109 35.727C171.79 36.1047 171.544 36.5648 171.372 37.1075C171.203 37.6465 171.119 38.2552 171.119 38.9335ZM184.456 45H182.229V32.8725H184.456V36.2495C184.599 35.6702 184.797 35.1513 185.05 34.693C185.307 34.2347 185.611 33.846 185.963 33.527C186.315 33.208 186.711 32.9642 187.151 32.7955C187.591 32.6268 188.068 32.5425 188.581 32.5425C189.124 32.5425 189.617 32.6378 190.061 32.8285C190.508 33.0155 190.9 33.2887 191.238 33.648C191.579 34.0073 191.859 34.4473 192.079 34.968C192.303 35.485 192.462 36.0717 192.558 36.728C192.675 36.079 192.858 35.496 193.108 34.979C193.357 34.462 193.661 34.0238 194.021 33.6645C194.384 33.3015 194.798 33.0247 195.264 32.834C195.729 32.6397 196.235 32.5425 196.782 32.5425C197.42 32.5425 197.99 32.6727 198.492 32.933C198.998 33.1933 199.425 33.5692 199.774 34.0605C200.126 34.5482 200.393 35.144 200.577 35.848C200.764 36.5483 200.857 37.3385 200.857 38.2185V45H198.63V38.2185C198.63 37.0012 198.399 36.0863 197.937 35.474C197.478 34.8617 196.783 34.5555 195.852 34.5555C195.353 34.5555 194.906 34.6435 194.51 34.8195C194.114 34.9918 193.779 35.2448 193.504 35.5785C193.229 35.9085 193.018 36.3155 192.871 36.7995C192.728 37.2798 192.657 37.8262 192.657 38.4385V45H190.429V38.2185C190.429 37.0012 190.198 36.0863 189.736 35.474C189.278 34.8617 188.583 34.5555 187.652 34.5555C187.153 34.5555 186.706 34.6435 186.31 34.8195C185.914 34.9918 185.578 35.2448 185.303 35.5785C185.028 35.9085 184.817 36.3155 184.671 36.7995C184.528 37.2798 184.456 37.8262 184.456 38.4385V45ZM62.8499 68.855H65.6329V71H57.7569V68.855H60.5399V59.659H57.1079V57.679H58.5214C58.9431 57.679 59.2969 57.6368 59.5829 57.5525C59.8689 57.4645 60.0981 57.316 60.2704 57.107C60.4464 56.898 60.5711 56.6175 60.6444 56.2655C60.7214 55.9098 60.7599 55.4662 60.7599 54.9345H62.8499V68.855ZM79.8315 70.9065C78.9039 71.1852 78.0679 71.3245 77.3235 71.3245C76.7185 71.3245 76.1832 71.231 75.7175 71.044C75.2555 70.8607 74.8669 70.5875 74.5515 70.2245C74.2362 69.8578 73.996 69.405 73.831 68.866C73.6697 68.3233 73.589 67.6963 73.589 66.985V60.7425H71.939V58.8725H73.589V56.0785H75.8165V58.8725H79.8315V60.7425H75.8165V66.9905C75.8165 67.7935 75.9669 68.3875 76.2675 68.7725C76.5719 69.1538 77.0485 69.3445 77.6975 69.3445C77.9505 69.3445 78.2512 69.3152 78.5995 69.2565C78.9515 69.1978 79.3622 69.1062 79.8315 68.9815V70.9065ZM80.6333 64.9335C80.6333 64.2955 80.6975 63.6942 80.8258 63.1295C80.9542 62.5648 81.1393 62.046 81.3813 61.573C81.6233 61.1 81.9185 60.6765 82.2668 60.3025C82.6152 59.9248 83.0075 59.6058 83.4438 59.3455C83.8838 59.0852 84.366 58.8872 84.8903 58.7515C85.4147 58.6122 85.972 58.5425 86.5623 58.5425C87.1563 58.5425 87.7137 58.6122 88.2343 58.7515C88.7587 58.8872 89.239 59.0852 89.6753 59.3455C90.1153 59.6058 90.5095 59.9248 90.8578 60.3025C91.2062 60.6765 91.5013 61.1 91.7433 61.573C91.9853 62.046 92.1705 62.5648 92.2988 63.1295C92.4272 63.6942 92.4913 64.2955 92.4913 64.9335C92.4913 65.5715 92.4272 66.1728 92.2988 66.7375C92.1705 67.3022 91.9853 67.8228 91.7433 68.2995C91.5013 68.7725 91.2062 69.196 90.8578 69.57C90.5095 69.944 90.1153 70.263 89.6753 70.527C89.239 70.7873 88.7587 70.9853 88.2343 71.121C87.7137 71.2603 87.1563 71.33 86.5623 71.33C85.972 71.33 85.4147 71.2603 84.8903 71.121C84.366 70.9853 83.8838 70.7873 83.4438 70.527C83.0075 70.263 82.6152 69.944 82.2668 69.57C81.9185 69.196 81.6233 68.7725 81.3813 68.2995C81.1393 67.8228 80.9542 67.3022 80.8258 66.7375C80.6975 66.1728 80.6333 65.5715 80.6333 64.9335ZM82.8608 64.9335C82.8608 65.6118 82.9452 66.2223 83.1138 66.765C83.2862 67.304 83.5318 67.7642 83.8508 68.1455C84.1735 68.5232 84.564 68.8128 85.0223 69.0145C85.4807 69.2162 85.9958 69.317 86.5678 69.317C87.1398 69.317 87.6532 69.2162 88.1078 69.0145C88.5662 68.8128 88.9548 68.5232 89.2738 68.1455C89.5928 67.7642 89.8367 67.304 90.0053 66.765C90.1777 66.2223 90.2638 65.6118 90.2638 64.9335C90.2638 64.2552 90.1777 63.6465 90.0053 63.1075C89.8367 62.5648 89.5928 62.1047 89.2738 61.727C88.9548 61.3493 88.5662 61.0597 88.1078 60.858C87.6532 60.6563 87.1398 60.5555 86.5678 60.5555C85.9958 60.5555 85.4807 60.6563 85.0223 60.858C84.564 61.0597 84.1735 61.3493 83.8508 61.727C83.5318 62.1047 83.2862 62.5648 83.1138 63.1075C82.9452 63.6465 82.8608 64.2552 82.8608 64.9335ZM105.188 71.3245C104.594 71.3245 104.033 71.2695 103.505 71.1595C102.977 71.0495 102.489 70.8918 102.042 70.6865C101.598 70.4775 101.198 70.2263 100.843 69.933C100.491 69.636 100.192 69.3023 99.9462 68.932C99.7006 68.558 99.5117 68.151 99.3797 67.711C99.2477 67.2673 99.1817 66.798 99.1817 66.303V66.171H101.492V66.281C101.492 66.7137 101.58 67.1078 101.756 67.4635C101.935 67.8192 102.187 68.1253 102.509 68.382C102.832 68.635 103.219 68.8312 103.67 68.9705C104.121 69.1098 104.619 69.1795 105.166 69.1795C105.947 69.1795 106.64 69.0347 107.245 68.745C107.853 68.4517 108.365 68.0245 108.779 67.4635C109.194 66.8988 109.509 66.2077 109.725 65.39C109.942 64.5687 110.05 63.63 110.05 62.574V60.88C109.973 61.474 109.788 62.0057 109.494 62.475C109.205 62.9443 108.82 63.344 108.339 63.674C107.859 64.0003 107.291 64.2515 106.634 64.4275C105.978 64.5998 105.246 64.686 104.44 64.686C103.56 64.686 102.771 64.5815 102.075 64.3725C101.378 64.1635 100.786 63.8628 100.298 63.4705C99.8142 63.0782 99.4439 62.5997 99.1872 62.035C98.9306 61.4703 98.8022 60.8305 98.8022 60.1155C98.8022 59.3345 98.9544 58.625 99.2587 57.987C99.5667 57.349 100.001 56.8045 100.562 56.3535C101.127 55.9025 101.807 55.5542 102.603 55.3085C103.398 55.0628 104.284 54.94 105.259 54.94C106.403 54.94 107.415 55.1123 108.295 55.457C109.175 55.8017 109.916 56.3058 110.517 56.9695C111.119 57.6332 111.573 58.449 111.881 59.417C112.193 60.3813 112.349 61.485 112.349 62.728V62.86C112.349 64.18 112.184 65.3625 111.854 66.4075C111.527 67.4525 111.056 68.3398 110.44 69.0695C109.824 69.7992 109.073 70.3583 108.185 70.747C107.302 71.132 106.302 71.3245 105.188 71.3245ZM105.017 57.085C104.39 57.085 103.833 57.151 103.345 57.283C102.861 57.4113 102.452 57.6038 102.119 57.8605C101.789 58.1135 101.538 58.427 101.365 58.801C101.197 59.1713 101.112 59.5985 101.112 60.0825C101.112 60.5592 101.197 60.9845 101.365 61.3585C101.534 61.7288 101.78 62.0405 102.102 62.2935C102.429 62.5465 102.828 62.739 103.301 62.871C103.774 63.003 104.317 63.069 104.929 63.069C105.597 63.069 106.213 62.9938 106.777 62.8435C107.342 62.6895 107.83 62.4768 108.24 62.2055C108.651 61.9342 108.972 61.6133 109.203 61.243C109.434 60.869 109.549 60.4602 109.549 60.0165C109.549 59.5838 109.439 59.1878 109.219 58.8285C108.999 58.4692 108.689 58.1612 108.29 57.9045C107.89 57.6442 107.412 57.4425 106.854 57.2995C106.301 57.1565 105.688 57.085 105.017 57.085ZM113.884 63.135C113.884 62.321 113.961 61.5547 114.115 60.836C114.269 60.1137 114.489 59.45 114.775 58.845C115.065 58.2363 115.417 57.6918 115.831 57.2115C116.246 56.7275 116.713 56.3187 117.234 55.985C117.758 55.6477 118.33 55.3892 118.95 55.2095C119.569 55.0298 120.228 54.94 120.924 54.94C121.625 54.94 122.283 55.0298 122.899 55.2095C123.518 55.3892 124.089 55.6477 124.609 55.985C125.134 56.3187 125.603 56.7275 126.017 57.2115C126.432 57.6918 126.782 58.2363 127.068 58.845C127.357 59.45 127.579 60.1137 127.733 60.836C127.887 61.5547 127.964 62.321 127.964 63.135C127.964 63.9453 127.887 64.7117 127.733 65.434C127.579 66.1563 127.357 66.8218 127.068 67.4305C126.782 68.0355 126.432 68.58 126.017 69.064C125.603 69.5443 125.134 69.9532 124.609 70.2905C124.089 70.6242 123.518 70.8808 122.899 71.0605C122.279 71.2402 121.621 71.33 120.924 71.33C120.228 71.33 119.569 71.2402 118.95 71.0605C118.33 70.8808 117.758 70.6242 117.234 70.2905C116.713 69.9532 116.246 69.5443 115.831 69.064C115.417 68.58 115.065 68.0355 114.775 67.4305C114.489 66.8218 114.269 66.1563 114.115 65.434C113.961 64.7117 113.884 63.9453 113.884 63.135ZM116.194 63.135C116.194 64.081 116.302 64.928 116.519 65.676C116.735 66.424 117.047 67.0583 117.454 67.579C117.861 68.096 118.356 68.4938 118.939 68.7725C119.525 69.0475 120.187 69.185 120.924 69.185C121.661 69.185 122.321 69.0475 122.904 68.7725C123.491 68.4938 123.988 68.096 124.395 67.579C124.802 67.0583 125.113 66.424 125.33 65.676C125.546 64.928 125.654 64.081 125.654 63.135C125.654 62.189 125.546 61.342 125.33 60.594C125.113 59.846 124.802 59.2135 124.395 58.6965C123.988 58.1758 123.491 57.778 122.904 57.503C122.321 57.2243 121.661 57.085 120.924 57.085C120.187 57.085 119.525 57.2243 118.939 57.503C118.356 57.778 117.861 58.1758 117.454 58.6965C117.047 59.2135 116.735 59.846 116.519 60.594C116.302 61.342 116.194 62.189 116.194 63.135ZM146.138 54.72V71H143.91V67.26C143.753 67.8833 143.533 68.4462 143.25 68.9485C142.968 69.4508 142.634 69.878 142.249 70.23C141.864 70.582 141.432 70.8533 140.951 71.044C140.475 71.2347 139.961 71.33 139.411 71.33C138.913 71.33 138.44 71.2585 137.992 71.1155C137.545 70.9725 137.131 70.7672 136.749 70.4995C136.372 70.2318 136.029 69.9092 135.721 69.5315C135.416 69.1502 135.158 68.723 134.945 68.25C134.733 67.7733 134.568 67.2563 134.45 66.699C134.337 66.1417 134.28 65.5532 134.28 64.9335C134.28 64.3138 134.337 63.7253 134.45 63.168C134.568 62.6107 134.733 62.0955 134.945 61.6225C135.158 61.1495 135.416 60.7242 135.721 60.3465C136.029 59.9652 136.372 59.6407 136.749 59.373C137.131 59.1053 137.545 58.9 137.992 58.757C138.44 58.614 138.913 58.5425 139.411 58.5425C139.961 58.5425 140.475 58.6378 140.951 58.8285C141.432 59.0192 141.864 59.2905 142.249 59.6425C142.634 59.9945 142.968 60.4217 143.25 60.924C143.533 61.4227 143.753 61.9837 143.91 62.607V54.72H146.138ZM143.91 64.9335C143.91 64.2405 143.824 63.6208 143.652 63.0745C143.483 62.5245 143.237 62.0588 142.915 61.6775C142.592 61.2962 142.2 61.0047 141.738 60.803C141.276 60.6013 140.753 60.5005 140.17 60.5005C139.576 60.5005 139.05 60.5977 138.592 60.792C138.137 60.9827 137.756 61.265 137.448 61.639C137.14 62.013 136.905 62.4768 136.744 63.0305C136.586 63.5805 136.507 64.2148 136.507 64.9335C136.507 65.6522 136.586 66.2883 136.744 66.842C136.905 67.392 137.14 67.8558 137.448 68.2335C137.756 68.6075 138.137 68.8917 138.592 69.086C139.05 69.2767 139.576 69.372 140.17 69.372C140.753 69.372 141.276 69.2712 141.738 69.0695C142.2 68.8642 142.592 68.5708 142.915 68.1895C143.237 67.8082 143.483 67.3443 143.652 66.798C143.824 66.248 143.91 65.6265 143.91 64.9335ZM147.924 63.0965C147.924 62.3998 148.052 61.771 148.309 61.21C148.566 60.649 148.932 60.1705 149.409 59.7745C149.889 59.3785 150.469 59.0742 151.147 58.8615C151.829 58.6488 152.595 58.5425 153.446 58.5425C154.344 58.5425 155.149 58.6635 155.861 58.9055C156.572 59.1438 157.175 59.4885 157.67 59.9395C158.165 60.3905 158.545 60.9423 158.809 61.595C159.073 62.244 159.205 62.981 159.205 63.806V71H156.977V67.7385C156.83 68.2958 156.607 68.7963 156.306 69.24C156.009 69.6837 155.646 70.0613 155.217 70.373C154.792 70.681 154.306 70.9175 153.76 71.0825C153.213 71.2475 152.621 71.33 151.983 71.33C151.319 71.33 150.716 71.242 150.174 71.066C149.631 70.89 149.165 70.6425 148.777 70.3235C148.392 70.0045 148.093 69.6213 147.88 69.174C147.671 68.723 147.567 68.2225 147.567 67.6725C147.567 67.1188 147.675 66.6202 147.891 66.1765C148.111 65.7328 148.425 65.357 148.832 65.049C149.242 64.7373 149.739 64.499 150.322 64.334C150.909 64.169 151.567 64.0865 152.297 64.0865H156.977V63.806C156.977 63.3073 156.893 62.8582 156.724 62.4585C156.559 62.0552 156.323 61.7142 156.015 61.4355C155.707 61.1532 155.333 60.9368 154.893 60.7865C154.453 60.6362 153.958 60.561 153.408 60.561C152.847 60.561 152.361 60.6215 151.95 60.7425C151.543 60.8635 151.206 61.0358 150.938 61.2595C150.674 61.4795 150.476 61.7453 150.344 62.057C150.216 62.3687 150.152 62.7152 150.152 63.0965H147.924ZM152.275 65.9565C151.45 65.9565 150.824 66.0958 150.399 66.3745C149.977 66.6495 149.767 67.0583 149.767 67.601C149.767 67.887 149.827 68.1418 149.948 68.3655C150.073 68.5892 150.254 68.7762 150.493 68.9265C150.731 69.0768 151.024 69.1923 151.373 69.273C151.725 69.35 152.128 69.3885 152.583 69.3885C153.228 69.3885 153.818 69.3133 154.354 69.163C154.893 69.009 155.356 68.7963 155.745 68.525C156.134 68.25 156.436 67.9237 156.653 67.546C156.869 67.1647 156.977 66.7467 156.977 66.292V65.9565H152.275ZM171.644 58.8725L166.623 71.7645C166.37 72.4098 166.075 72.9672 165.737 73.4365C165.404 73.9058 165.019 74.2927 164.582 74.597C164.15 74.905 163.664 75.1323 163.125 75.279C162.589 75.4257 161.994 75.499 161.337 75.499C161.158 75.499 160.983 75.4935 160.815 75.4825C160.646 75.4715 160.483 75.4568 160.325 75.4385V73.4915C160.52 73.5172 160.699 73.5355 160.864 73.5465C161.033 73.5575 161.194 73.563 161.348 73.563C162.082 73.563 162.679 73.42 163.141 73.134C163.603 72.848 163.95 72.3915 164.181 71.7645L164.335 71.3575L159.522 58.8725H161.832L165.589 68.9705L169.389 58.8725H171.644ZM177.36 58.5425C178.185 58.5425 178.918 58.636 179.56 58.823C180.205 59.01 180.748 59.2777 181.188 59.626C181.631 59.9707 181.969 60.3905 182.2 60.8855C182.431 61.3768 182.546 61.9287 182.546 62.541H180.368C180.368 62.2293 180.302 61.947 180.17 61.694C180.042 61.4373 179.849 61.2192 179.593 61.0395C179.34 60.8562 179.026 60.715 178.652 60.616C178.278 60.517 177.847 60.4675 177.36 60.4675C176.92 60.4675 176.518 60.5078 176.155 60.5885C175.796 60.6692 175.486 60.7847 175.226 60.935C174.965 61.0817 174.764 61.2595 174.621 61.4685C174.478 61.6738 174.406 61.903 174.406 62.156C174.406 62.3467 174.447 62.5153 174.527 62.662C174.608 62.805 174.718 62.9297 174.857 63.036C174.997 63.1423 175.16 63.234 175.347 63.311C175.534 63.3843 175.734 63.4485 175.946 63.5035C176.163 63.5585 176.386 63.6062 176.617 63.6465C176.848 63.6832 177.076 63.7198 177.299 63.7565L178.113 63.883C178.451 63.9343 178.804 63.9948 179.175 64.0645C179.549 64.1305 179.915 64.2203 180.275 64.334C180.638 64.444 180.982 64.5852 181.309 64.7575C181.639 64.9262 181.928 65.1388 182.178 65.3955C182.427 65.6522 182.625 65.9602 182.772 66.3195C182.918 66.6752 182.992 67.0987 182.992 67.59C182.992 68.1877 182.874 68.7193 182.64 69.185C182.405 69.647 182.059 70.0375 181.6 70.3565C181.142 70.6755 180.575 70.9175 179.901 71.0825C179.226 71.2475 178.447 71.33 177.563 71.33C176.643 71.33 175.836 71.2402 175.143 71.0605C174.45 70.8808 173.873 70.6168 173.411 70.2685C172.949 69.9202 172.6 69.493 172.366 68.987C172.135 68.4773 172.019 67.8925 172.019 67.2325H174.192C174.192 67.9292 174.467 68.4663 175.017 68.844C175.567 69.218 176.414 69.405 177.558 69.405C178.075 69.405 178.535 69.3665 178.938 69.2895C179.342 69.2125 179.683 69.0988 179.961 68.9485C180.24 68.7982 180.453 68.613 180.599 68.393C180.746 68.173 180.819 67.9218 180.819 67.6395C180.819 67.4195 180.777 67.227 180.693 67.062C180.608 66.8933 180.491 66.7485 180.341 66.6275C180.19 66.5028 180.013 66.3965 179.807 66.3085C179.606 66.2168 179.386 66.138 179.147 66.072C178.909 66.006 178.66 65.9492 178.399 65.9015C178.143 65.8502 177.882 65.8025 177.618 65.7585L176.81 65.621C176.502 65.5697 176.175 65.511 175.831 65.445C175.486 65.3753 175.143 65.2892 174.802 65.1865C174.465 65.0802 174.14 64.9482 173.829 64.7905C173.521 64.6292 173.248 64.4312 173.009 64.1965C172.775 63.9618 172.586 63.6813 172.443 63.355C172.303 63.0287 172.234 62.6455 172.234 62.2055C172.234 61.6482 172.351 61.144 172.586 60.693C172.824 60.242 173.163 59.857 173.603 59.538C174.047 59.219 174.584 58.9733 175.215 58.801C175.849 58.6287 176.564 58.5425 177.36 58.5425Z" fill="white"/>
</svg>
