<svg width="630" height="360" viewBox="0 0 630 360" fill="none" xmlns="http://www.w3.org/2000/svg">
<g opacity="0.3">
<mask id="path-1-inside-1_412_2481" fill="white">
<path d="M444.682 96.5H507.682C513.205 96.5 517.682 100.977 517.682 106.5V344.5C517.682 350.023 513.205 354.5 507.682 354.5H444.682V96.5Z"/>
</mask>
<path d="M444.682 96.5H507.682C513.205 96.5 517.682 100.977 517.682 106.5V344.5C517.682 350.023 513.205 354.5 507.682 354.5H444.682V96.5Z" fill="#112540"/>
<path d="M511.127 352.817C511.637 352.606 512.222 352.848 512.434 353.358C512.643 353.862 512.408 354.437 511.911 354.655C511.846 354.683 511.779 354.707 511.713 354.733C510.793 355.096 509.813 355.342 508.792 355.444C508.427 355.481 508.057 355.5 507.682 355.5H504.532C503.98 355.5 503.532 355.052 503.532 354.5C503.532 353.948 503.98 353.5 504.532 353.5H507.682C507.899 353.5 508.114 353.489 508.327 353.474C508.57 353.456 508.811 353.433 509.048 353.396C509.099 353.389 509.148 353.379 509.199 353.37C509.291 353.354 509.383 353.339 509.474 353.32C509.548 353.305 509.621 353.287 509.695 353.271C509.767 353.254 509.84 353.239 509.912 353.221C509.991 353.201 510.068 353.178 510.145 353.156C510.206 353.139 510.266 353.123 510.327 353.104C510.412 353.078 510.495 353.049 510.579 353.021C510.635 353.002 510.691 352.984 510.746 352.964C510.811 352.941 510.873 352.914 510.937 352.89C511 352.865 511.065 352.843 511.127 352.817ZM447.832 353.5C448.385 353.5 448.832 353.948 448.832 354.5C448.832 355.052 448.385 355.5 447.832 355.5H444.682V353.5H447.832ZM460.432 353.5C460.984 353.5 461.432 353.948 461.432 354.5C461.432 355.052 460.984 355.5 460.432 355.5H454.132C453.58 355.5 453.132 355.052 453.132 354.5C453.132 353.948 453.58 353.5 454.132 353.5H460.432ZM473.032 353.5C473.584 353.5 474.032 353.948 474.032 354.5C474.032 355.052 473.584 355.5 473.032 355.5H466.732C466.18 355.5 465.732 355.052 465.732 354.5C465.732 353.948 466.18 353.5 466.732 353.5H473.032ZM485.632 353.5C486.184 353.5 486.632 353.948 486.632 354.5C486.632 355.052 486.184 355.5 485.632 355.5H479.332C478.78 355.5 478.332 355.052 478.332 354.5C478.332 353.948 478.78 353.5 479.332 353.5H485.632ZM498.232 353.5C498.784 353.5 499.232 353.948 499.232 354.5C499.232 355.052 498.784 355.5 498.232 355.5H491.932C491.38 355.5 490.932 355.052 490.932 354.5C490.932 353.948 491.38 353.5 491.932 353.5H498.232ZM518.682 344.5C518.682 344.855 518.664 345.207 518.631 345.554C518.622 345.65 518.609 345.745 518.597 345.841C518.562 346.128 518.519 346.411 518.462 346.69C518.335 347.321 518.152 347.932 517.921 348.519C517.894 348.589 517.866 348.66 517.837 348.729C517.619 349.226 517.044 349.461 516.54 349.252C516.03 349.04 515.788 348.454 515.999 347.944L516.062 347.78C516.09 347.708 516.119 347.636 516.146 347.563C516.166 347.509 516.184 347.453 516.203 347.397C516.231 347.313 516.26 347.23 516.286 347.145C516.318 347.042 516.346 346.938 516.374 346.834C516.385 346.795 516.397 346.756 516.407 346.717C516.424 346.649 516.437 346.581 516.453 346.513C516.478 346.401 516.503 346.288 516.525 346.175C516.593 345.813 516.639 345.443 516.662 345.066C516.674 344.879 516.682 344.69 516.682 344.5V341.525C516.682 340.973 517.13 340.525 517.682 340.525C518.234 340.525 518.682 340.973 518.682 341.525V344.5ZM518.682 335.575C518.682 336.127 518.234 336.575 517.682 336.575C517.13 336.575 516.682 336.127 516.682 335.575V329.625C516.682 329.073 517.13 328.625 517.682 328.625C518.234 328.625 518.682 329.073 518.682 329.625V335.575ZM518.682 323.675C518.682 324.227 518.234 324.675 517.682 324.675C517.13 324.675 516.682 324.227 516.682 323.675V317.725C516.682 317.172 517.13 316.725 517.682 316.725C518.234 316.725 518.682 317.172 518.682 317.725V323.675ZM518.682 311.775C518.682 312.327 518.234 312.775 517.682 312.775C517.13 312.775 516.682 312.327 516.682 311.775V305.825C516.682 305.273 517.13 304.825 517.682 304.825C518.234 304.825 518.682 305.273 518.682 305.825V311.775ZM518.682 299.875C518.682 300.427 518.234 300.875 517.682 300.875C517.13 300.875 516.682 300.427 516.682 299.875V293.925C516.682 293.373 517.13 292.925 517.682 292.925C518.234 292.925 518.682 293.373 518.682 293.925V299.875ZM518.682 287.975C518.682 288.527 518.234 288.975 517.682 288.975C517.13 288.975 516.682 288.527 516.682 287.975V282.025C516.682 281.473 517.13 281.025 517.682 281.025C518.234 281.025 518.682 281.473 518.682 282.025V287.975ZM518.682 276.075C518.682 276.627 518.234 277.075 517.682 277.075C517.13 277.075 516.682 276.627 516.682 276.075V270.125C516.682 269.573 517.13 269.125 517.682 269.125C518.234 269.125 518.682 269.573 518.682 270.125V276.075ZM518.682 264.175C518.682 264.727 518.234 265.175 517.682 265.175C517.13 265.175 516.682 264.727 516.682 264.175V258.225C516.682 257.672 517.13 257.225 517.682 257.225C518.234 257.225 518.682 257.672 518.682 258.225V264.175ZM518.682 252.275C518.682 252.827 518.234 253.275 517.682 253.275C517.13 253.275 516.682 252.827 516.682 252.275V246.325C516.682 245.773 517.13 245.325 517.682 245.325C518.234 245.325 518.682 245.773 518.682 246.325V252.275ZM518.682 240.375C518.682 240.927 518.234 241.375 517.682 241.375C517.13 241.375 516.682 240.927 516.682 240.375V234.425C516.682 233.873 517.13 233.425 517.682 233.425C518.234 233.425 518.682 233.873 518.682 234.425V240.375ZM518.682 228.475C518.682 229.027 518.234 229.475 517.682 229.475C517.13 229.475 516.682 229.027 516.682 228.475V222.525C516.682 221.973 517.13 221.525 517.682 221.525C518.234 221.525 518.682 221.973 518.682 222.525V228.475ZM518.682 216.575C518.682 217.127 518.234 217.575 517.682 217.575C517.13 217.575 516.682 217.127 516.682 216.575V210.625C516.682 210.073 517.13 209.625 517.682 209.625C518.234 209.625 518.682 210.073 518.682 210.625V216.575ZM518.682 204.675C518.682 205.227 518.234 205.675 517.682 205.675C517.13 205.675 516.682 205.227 516.682 204.675V198.725C516.682 198.173 517.13 197.725 517.682 197.725C518.234 197.725 518.682 198.173 518.682 198.725V204.675ZM518.682 192.775C518.682 193.327 518.234 193.775 517.682 193.775C517.13 193.775 516.682 193.327 516.682 192.775V186.825C516.682 186.273 517.13 185.825 517.682 185.825C518.234 185.825 518.682 186.273 518.682 186.825V192.775ZM518.682 180.875C518.682 181.427 518.234 181.875 517.682 181.875C517.13 181.875 516.682 181.427 516.682 180.875V174.925C516.682 174.373 517.13 173.925 517.682 173.925C518.234 173.925 518.682 174.373 518.682 174.925V180.875ZM518.682 168.975C518.682 169.527 518.234 169.975 517.682 169.975C517.13 169.975 516.682 169.527 516.682 168.975V163.025C516.682 162.473 517.13 162.025 517.682 162.025C518.234 162.025 518.682 162.473 518.682 163.025V168.975ZM518.682 157.075C518.682 157.627 518.234 158.075 517.682 158.075C517.13 158.075 516.682 157.627 516.682 157.075V151.125C516.682 150.573 517.13 150.125 517.682 150.125C518.234 150.125 518.682 150.573 518.682 151.125V157.075ZM518.682 145.175C518.682 145.727 518.234 146.175 517.682 146.175C517.13 146.175 516.682 145.727 516.682 145.175V139.225C516.682 138.673 517.13 138.225 517.682 138.225C518.234 138.225 518.682 138.673 518.682 139.225V145.175ZM518.682 133.275C518.682 133.827 518.234 134.275 517.682 134.275C517.13 134.275 516.682 133.827 516.682 133.275V127.325C516.682 126.773 517.13 126.325 517.682 126.325C518.234 126.325 518.682 126.773 518.682 127.325V133.275ZM518.682 121.375C518.682 121.927 518.234 122.375 517.682 122.375C517.13 122.375 516.682 121.927 516.682 121.375V115.425C516.682 114.873 517.13 114.425 517.682 114.425C518.234 114.425 518.682 114.873 518.682 115.425V121.375ZM518.682 109.475C518.682 110.027 518.234 110.475 517.682 110.475C517.13 110.475 516.682 110.027 516.682 109.475V106.5C516.682 106.347 516.678 106.196 516.67 106.045C516.667 105.981 516.66 105.918 516.656 105.854C516.628 105.464 516.578 105.081 516.502 104.707C516.487 104.633 516.469 104.56 516.453 104.486C516.436 104.414 516.421 104.341 516.403 104.269C516.373 104.152 516.34 104.037 516.306 103.922C516.299 103.899 516.293 103.877 516.286 103.854C516.26 103.769 516.231 103.686 516.203 103.602C516.183 103.545 516.165 103.487 516.145 103.431C516.119 103.359 516.09 103.289 516.062 103.219L515.999 103.056L515.965 102.959C515.819 102.474 516.062 101.946 516.54 101.748C517.044 101.54 517.619 101.773 517.837 102.27C517.865 102.335 517.889 102.402 517.915 102.468C518.148 103.059 518.334 103.673 518.462 104.309C518.504 104.514 518.539 104.721 518.569 104.93C518.59 105.082 518.611 105.235 518.626 105.389C518.663 105.754 518.682 106.125 518.682 106.5V109.475ZM507.682 95.5C508.057 95.5 508.427 95.5191 508.792 95.5557C509.813 95.6581 510.793 95.9037 511.713 96.2666C511.779 96.2927 511.846 96.3174 511.911 96.3447C512.408 96.5628 512.643 97.138 512.434 97.6416C512.236 98.12 511.709 98.3628 511.223 98.2168L511.126 98.1826L510.962 98.1191C510.89 98.0909 510.818 98.0616 510.745 98.0352C510.691 98.0153 510.635 97.9974 510.579 97.9785C510.495 97.95 510.412 97.9206 510.327 97.8945C510.267 97.8761 510.205 97.8609 510.145 97.8438C510.068 97.8218 509.991 97.7982 509.912 97.7783C509.84 97.76 509.767 97.7451 509.695 97.7285C509.621 97.7117 509.548 97.6937 509.474 97.6787C509.383 97.6603 509.291 97.6445 509.199 97.6289C509.148 97.6204 509.099 97.6102 509.048 97.6025C508.811 97.5664 508.57 97.5426 508.327 97.5254C508.114 97.5103 507.899 97.5 507.682 97.5H504.532C503.98 97.4998 503.532 97.0522 503.532 96.5C503.532 95.9478 503.98 95.5002 504.532 95.5H507.682ZM447.832 95.5L447.934 95.5049C448.438 95.5559 448.832 95.9821 448.832 96.5C448.832 97.0179 448.438 97.4441 447.934 97.4951L447.832 97.5H444.682V95.5H447.832ZM460.432 95.5C460.984 95.5 461.432 95.9477 461.432 96.5C461.432 97.0523 460.984 97.5 460.432 97.5H454.132C453.58 97.5 453.132 97.0523 453.132 96.5C453.132 95.9477 453.58 95.5 454.132 95.5H460.432ZM473.032 95.5C473.584 95.5 474.032 95.9477 474.032 96.5C474.032 97.0523 473.584 97.5 473.032 97.5H466.732C466.18 97.4999 465.732 97.0522 465.732 96.5C465.732 95.9478 466.18 95.5001 466.732 95.5H473.032ZM485.632 95.5C486.184 95.5001 486.632 95.9478 486.632 96.5C486.632 97.0522 486.184 97.4999 485.632 97.5H479.332C478.78 97.5 478.332 97.0523 478.332 96.5C478.332 95.9477 478.78 95.5 479.332 95.5H485.632ZM498.232 95.5L498.334 95.5049C498.839 95.5561 499.232 95.9823 499.232 96.5C499.232 97.0177 498.839 97.4439 498.334 97.4951L498.232 97.5H491.932C491.38 97.5 490.932 97.0523 490.932 96.5C490.932 95.9477 491.38 95.5 491.932 95.5H498.232Z" fill="#09AF8E" mask="url(#path-1-inside-1_412_2481)"/>
</g>
<g clip-path="url(#clip0_412_2481)">
<path opacity="0.2" d="M204.682 65.5H294.682V354.5H204.682V65.5Z" fill="#627EEA"/>
<line opacity="0.1" x1="129.553" y1="109.016" x2="293.76" y2="65.0171" stroke="white"/>
<line opacity="0.1" x1="133.435" y1="123.505" x2="297.642" y2="79.506" stroke="white"/>
<line opacity="0.1" x1="141.199" y1="152.483" x2="305.407" y2="108.484" stroke="white"/>
<line opacity="0.1" x1="137.317" y1="137.994" x2="301.525" y2="93.9949" stroke="white"/>
<line opacity="0.1" x1="145.082" y1="166.972" x2="309.289" y2="122.973" stroke="white"/>
<line opacity="0.1" x1="168.375" y1="253.905" x2="332.583" y2="209.906" stroke="white"/>
<line opacity="0.1" x1="148.964" y1="181.461" x2="313.171" y2="137.462" stroke="white"/>
<line opacity="0.1" x1="160.611" y1="224.927" x2="324.818" y2="180.928" stroke="white"/>
<line opacity="0.1" x1="156.729" y1="210.439" x2="320.936" y2="166.439" stroke="white"/>
<line opacity="0.1" x1="152.846" y1="195.95" x2="317.054" y2="151.95" stroke="white"/>
<line opacity="0.1" x1="164.493" y1="239.416" x2="328.701" y2="195.417" stroke="white"/>
<line opacity="0.1" x1="180.022" y1="297.372" x2="344.23" y2="253.373" stroke="white"/>
<line opacity="0.1" x1="176.14" y1="282.883" x2="340.348" y2="238.884" stroke="white"/>
<line opacity="0.1" x1="187.787" y1="326.35" x2="351.994" y2="282.35" stroke="white"/>
<line opacity="0.1" x1="183.905" y1="311.861" x2="348.112" y2="267.862" stroke="white"/>
<line opacity="0.1" x1="172.258" y1="268.394" x2="336.465" y2="224.395" stroke="white"/>
<line opacity="0.1" x1="203.316" y1="384.305" x2="367.523" y2="340.306" stroke="white"/>
<line opacity="0.1" x1="191.669" y1="340.839" x2="355.877" y2="296.839" stroke="white"/>
<line opacity="0.1" x1="195.551" y1="355.327" x2="359.759" y2="311.328" stroke="white"/>
<line opacity="0.1" x1="207.198" y1="398.794" x2="371.406" y2="354.795" stroke="white"/>
<line opacity="0.1" x1="199.434" y1="369.816" x2="363.641" y2="325.817" stroke="white"/>
<g clip-path="url(#clip1_412_2481)">
<path d="M249.682 230.5C259.623 230.5 267.682 222.441 267.682 212.5C267.682 202.559 259.623 194.5 249.682 194.5C239.741 194.5 231.682 202.559 231.682 212.5C231.682 222.441 239.741 230.5 249.682 230.5Z" fill="#627EEA"/>
<path d="M250.242 199V208.979L258.676 212.747L250.242 199Z" fill="white" fill-opacity="0.602"/>
<path d="M250.242 199L241.807 212.747L250.242 208.979V199Z" fill="white"/>
<path d="M250.242 219.214V225.994L258.682 214.318L250.242 219.214Z" fill="white" fill-opacity="0.602"/>
<path d="M250.242 225.994V219.213L241.807 214.318L250.242 225.994Z" fill="white"/>
<path d="M250.242 217.645L258.676 212.748L250.242 208.981V217.645Z" fill="white" fill-opacity="0.2"/>
<path d="M241.807 212.748L250.242 217.645V208.981L241.807 212.748Z" fill="white" fill-opacity="0.602"/>
</g>
</g>
<rect x="161.682" y="30.2222" width="78" height="30" rx="15" transform="rotate(-2 161.682 30.2222)" fill="#212367"/>
<path d="M173.82 39.124C174.2 39.1108 174.566 39.133 174.918 39.1907C175.27 39.2485 175.609 39.3467 175.934 39.4855C176.259 39.6242 176.565 39.7886 176.852 39.9787C177.139 40.1688 177.406 40.3896 177.655 40.6411L176.658 41.7266C175.899 40.9226 174.97 40.5397 173.871 40.5781C172.791 40.6158 171.915 41.0316 171.243 41.8256C170.897 42.2279 170.642 42.6671 170.478 43.1431C170.315 43.6191 170.243 44.1319 170.262 44.6816C170.281 45.2312 170.389 45.7378 170.585 46.2012C170.781 46.6647 171.066 47.085 171.44 47.4622C172.166 48.2073 173.069 48.561 174.148 48.5233C175.248 48.4849 176.148 48.0432 176.849 47.1982L177.904 48.182C177.683 48.4599 177.437 48.7036 177.164 48.9133C176.891 49.1229 176.592 49.3085 176.268 49.4699C175.638 49.7821 174.949 49.9512 174.199 49.9774C172.7 50.0298 171.437 49.5435 170.411 48.5187C169.913 48.0058 169.527 47.4339 169.255 46.803C168.993 46.1718 168.849 45.4814 168.823 44.7318C168.796 43.9723 168.892 43.2735 169.11 42.6355C169.337 41.9872 169.687 41.3946 170.158 40.8579C171.1 39.7543 172.321 39.1764 173.82 39.124ZM182.519 43.278C181.839 43.3017 181.293 43.5559 180.879 44.0406C180.678 44.2878 180.527 44.5632 180.428 44.8669C180.328 45.1606 180.284 45.4823 180.297 45.8321C180.321 46.5217 180.556 47.1038 181.003 47.5785C181.449 48.0332 182.012 48.2487 182.692 48.225C183.371 48.2012 183.918 47.947 184.331 47.4623C184.542 47.2147 184.693 46.9443 184.783 46.651C184.882 46.3473 184.926 46.0206 184.914 45.6708C184.889 44.9713 184.654 44.3891 184.207 43.9244C183.761 43.4697 183.198 43.2542 182.519 43.278ZM182.468 41.8239C183.537 41.7865 184.445 42.135 185.191 42.8695C185.927 43.6042 186.314 44.5213 186.353 45.6206C186.391 46.7099 186.069 47.6517 185.386 48.4461C184.693 49.2307 183.812 49.6417 182.742 49.6791C181.673 49.7164 180.765 49.3679 180.019 48.6335C179.283 47.8887 178.895 46.9717 178.857 45.8823C178.819 44.783 179.141 43.8412 179.824 43.0569C180.517 42.2722 181.399 41.8612 182.468 41.8239ZM187.635 38.8217L189.089 38.7709L189.456 49.2645L188.001 49.3153L187.635 38.8217ZM191.017 38.7036L192.471 38.6528L192.837 49.1464L191.383 49.1972L191.017 38.7036ZM200.215 41.3842L201.564 41.3371L201.826 48.8326L200.476 48.8797L200.441 47.8603C200.413 47.9113 200.379 47.9625 200.341 48.0139C200.313 48.0649 200.279 48.1111 200.241 48.1524C199.703 48.7816 198.969 49.1124 198.039 49.1449C196.97 49.1822 196.077 48.8332 195.361 48.0977C194.635 47.3526 194.252 46.4354 194.214 45.3461C194.176 44.2467 194.493 43.3051 195.166 42.5211C195.829 41.7375 196.696 41.327 197.765 41.2897C198.694 41.2572 199.45 41.546 200.031 42.1561C200.083 42.1943 200.124 42.2379 200.156 42.2868C200.188 42.3357 200.219 42.3797 200.251 42.4186L200.215 41.3842ZM197.905 42.7257C197.225 42.7494 196.679 43.0086 196.266 43.5033C195.843 43.9984 195.644 44.5957 195.668 45.2953C195.693 45.9949 195.933 46.5768 196.39 47.0412C196.836 47.5059 197.399 47.7264 198.079 47.7026C198.748 47.6792 199.28 47.4205 199.673 46.9265C199.874 46.6793 200.02 46.4091 200.11 46.1158C200.209 45.8121 200.253 45.4854 200.241 45.1356C200.228 44.7758 200.162 44.453 200.042 44.167C199.932 43.8806 199.767 43.6212 199.549 43.3887C199.123 42.9233 198.575 42.7023 197.905 42.7257ZM203.95 38.9124L205.404 38.8616L205.486 41.2002L207.644 41.1248L207.695 42.5639L205.536 42.6393L205.637 45.5325C205.654 46.0122 205.833 46.4112 206.174 46.7295C206.515 47.0478 206.926 47.1986 207.406 47.1818L207.84 47.1666L207.891 48.6207L207.456 48.6359C206.587 48.6663 205.831 48.3825 205.19 47.7845C204.549 47.1865 204.213 46.4528 204.183 45.5833L204.082 42.6901L202.823 42.734L202.772 41.2949L204.031 41.2509L203.95 38.9124ZM215.955 45.1872L210.288 45.3851C210.357 45.6529 210.451 45.8947 210.569 46.1108C210.696 46.3264 210.858 46.5159 211.054 46.6792C211.486 47.0343 211.993 47.2017 212.572 47.1815C213.422 47.1518 214.078 46.8888 214.541 46.3923L215.596 47.3911C214.863 48.1771 213.872 48.592 212.623 48.6356C211.544 48.6733 210.626 48.3251 209.87 47.5911C209.113 46.847 208.716 45.9303 208.678 44.841C208.64 43.7416 208.962 42.7998 209.645 42.0155C210.338 41.2308 211.219 40.8198 212.289 40.7825C213.338 40.7458 214.196 41.0911 214.861 41.8183C215.537 42.5352 215.894 43.4583 215.934 44.5876L215.955 45.1872ZM212.322 42.1772C211.753 42.1971 211.274 42.3989 210.888 42.7826C210.52 43.1457 210.301 43.5986 210.23 44.1414L214.337 43.998C214.228 43.4414 214.007 42.9989 213.675 42.6702C213.333 42.322 212.882 42.1576 212.322 42.1772ZM217.165 40.7923L218.559 40.7436L218.597 41.823C218.626 41.7819 218.659 41.7407 218.698 41.6994C218.736 41.648 218.774 41.6016 218.813 41.5603C219.054 41.3017 219.327 41.0821 219.63 40.9013C220.101 40.6347 220.647 40.4906 221.266 40.469L221.317 41.9231C220.608 41.9479 220.011 42.1939 219.527 42.661C219.033 43.1385 218.774 43.738 218.749 44.4593L218.881 48.237L217.427 48.2877L217.165 40.7923ZM228.118 40.4098L229.467 40.3627L229.729 47.8582L228.379 47.9053L228.344 46.8859C228.315 46.9369 228.282 46.9881 228.244 47.0395C228.216 47.0905 228.182 47.1367 228.144 47.1781C227.605 47.8072 226.872 48.138 225.942 48.1705C224.873 48.2078 223.98 47.8588 223.264 47.1233C222.537 46.3782 222.155 45.461 222.117 44.3717C222.079 43.2723 222.396 42.3307 223.069 41.5467C223.732 40.7631 224.598 40.3526 225.668 40.3153C226.597 40.2828 227.353 40.5716 227.934 41.1817C227.986 41.2199 228.027 41.2635 228.059 41.3124C228.091 41.3614 228.122 41.4053 228.154 41.4442L228.118 40.4098ZM225.808 41.7513C225.128 41.775 224.582 42.0342 224.169 42.5289C223.746 43.024 223.547 43.6213 223.571 44.3209C223.596 45.0205 223.836 45.6024 224.293 46.0668C224.739 46.5315 225.302 46.752 225.982 46.7282C226.651 46.7048 227.183 46.4461 227.576 45.9521C227.777 45.7049 227.923 45.4347 228.013 45.1414C228.112 44.8377 228.156 44.511 228.144 44.1612C228.131 43.8014 228.065 43.4786 227.945 43.1926C227.835 42.9062 227.67 42.6468 227.452 42.4143C227.026 41.9489 226.478 41.7279 225.808 41.7513ZM231.29 37.2972L232.744 37.2465L233.111 47.7401L231.656 47.7908L231.29 37.2972Z" fill="white"/>
<rect x="214.729" y="48.5" width="113" height="30" rx="15" transform="rotate(2 214.729 48.5)" fill="#627EEA"/>
<path d="M223.827 58.3234L225.266 58.3737L224.899 68.8673L223.46 68.817L223.761 60.2123L222.033 61.5628L221.142 60.421L223.827 58.3234ZM231.433 69.0954L231.799 58.6018L238.2 58.8254L238.15 60.2795L233.188 60.1062L233.083 63.0894L237.056 63.2281L237.006 64.6672L233.033 64.5285L232.923 67.6916L237.885 67.8649L237.834 69.319L231.433 69.0954ZM239.517 58.8714L247.627 59.1546L247.577 60.6087L244.249 60.4925L243.933 69.532L242.479 69.4812L242.794 60.4417L239.466 60.3255L239.517 58.8714ZM248.737 69.6997L249.103 59.2061L250.542 59.2564L250.389 63.6337L255.801 63.8227L255.954 59.4453L257.408 59.4961L257.042 69.9897L255.588 69.9389L255.75 65.2768L250.339 65.0878L250.176 69.75L248.737 69.6997ZM265.686 58.2993L266.716 59.3258C266.362 59.7137 266.047 60.128 265.772 60.5687C265.507 60.9997 265.27 61.4617 265.063 61.9548C264.866 62.4482 264.708 62.948 264.59 63.4542C264.483 63.9507 264.42 64.4639 264.401 64.9935C264.384 65.5032 264.411 66.0145 264.483 66.5273C264.555 67.0302 264.673 67.5296 264.836 68.0255C265.151 69.0172 265.625 69.9192 266.257 70.7318L265.216 71.7611C264.832 71.2774 264.495 70.7703 264.203 70.2398C263.912 69.7093 263.666 69.1504 263.466 68.5631C263.277 67.9761 263.137 67.3809 263.048 66.7774C262.959 66.1739 262.926 65.5624 262.947 64.9428C262.991 63.6935 263.248 62.5067 263.717 61.3825C263.957 60.8105 264.241 60.2651 264.57 59.7462C264.898 59.2274 265.27 58.745 265.686 58.2993ZM270.643 58.5925L272.098 58.6433L272.053 59.9175C272.282 59.9655 272.494 60.028 272.692 60.1049C272.889 60.1818 273.071 60.2832 273.237 60.4091C273.784 60.7884 274.142 61.2862 274.31 61.9025L272.901 62.2735C272.802 61.9599 272.616 61.7182 272.341 61.5485C272.067 61.3689 271.716 61.2715 271.286 61.2565C270.766 61.2384 270.347 61.3538 270.028 61.6028C269.689 61.8612 269.512 62.2052 269.497 62.6349C269.485 62.9647 269.6 63.2539 269.842 63.5025C270.132 63.7928 270.605 64.0044 271.26 64.1374C272.244 64.3418 273.046 64.7351 273.666 65.317C274.276 65.8987 274.565 66.6292 274.535 67.5087C274.503 68.4282 274.141 69.191 273.449 69.7972C272.953 70.2402 272.364 70.5098 271.68 70.606L271.636 71.8652L270.182 71.8144L270.226 70.5402C269.988 70.4918 269.76 70.4189 269.543 70.3212C269.327 70.2236 269.121 70.1063 268.925 69.9694C268.33 69.5284 267.94 68.9694 267.753 68.2925L269.147 67.9209C269.264 68.3052 269.488 68.6083 269.821 68.83C270.163 69.0621 270.559 69.186 271.008 69.2017C271.578 69.2216 272.064 69.0684 272.465 68.7422C272.867 68.4061 273.077 67.9781 273.095 67.4585C273.112 66.9987 272.94 66.6025 272.582 66.2698C272.203 65.9264 271.701 65.6887 271.076 65.5568C270.162 65.3648 269.423 65.0238 268.86 64.5339C268.297 64.0439 268.029 63.3942 268.058 62.5847C268.072 62.1749 268.16 61.8028 268.322 61.4682C268.494 61.124 268.735 60.8172 269.044 60.5479C269.477 60.1827 269.995 59.9557 270.599 59.8667L270.643 58.5925ZM279.371 60.083C280.231 60.113 280.961 60.4137 281.561 60.985C282.152 61.5559 282.432 62.2511 282.404 63.0706C282.397 63.2605 282.366 63.4495 282.309 63.6377C282.253 63.8158 282.166 63.9979 282.05 64.184C281.817 64.5561 281.479 64.9045 281.038 65.2293C281.487 65.5451 281.854 65.9132 282.14 66.3334C282.443 66.8143 282.586 67.3196 282.567 67.8492C282.536 68.7487 282.174 69.4965 281.483 70.0928C280.792 70.679 279.972 70.9556 279.023 70.9224C278.343 70.8987 277.715 70.7016 277.137 70.3313C276.853 70.1512 276.61 69.9426 276.409 69.7055C276.217 69.4586 276.061 69.188 275.942 68.8937L277.308 68.4461C277.373 68.5984 277.463 68.7367 277.579 68.8608C277.695 68.9849 277.836 69.0899 278.003 69.1758C278.17 69.2717 278.342 69.3477 278.52 69.404C278.699 69.4502 278.883 69.4767 279.073 69.4833C279.623 69.5025 280.098 69.354 280.499 69.0378C280.901 68.7216 281.11 68.3037 281.129 67.784C281.147 67.2643 280.962 66.8276 280.574 66.4738C280.196 66.1204 279.737 65.9343 279.198 65.9155L278.283 65.8835L278.334 64.4294L279.248 64.4614C279.698 64.4771 280.093 64.3558 280.432 64.0974C280.771 63.8291 280.949 63.4751 280.964 63.0354C280.98 62.5956 280.827 62.2401 280.506 61.9687C280.185 61.6974 279.79 61.5535 279.32 61.5371C279.141 61.5308 278.965 61.5447 278.794 61.5787C278.622 61.6128 278.465 61.6723 278.322 61.7574C278.027 61.8972 277.82 62.1051 277.7 62.3811L276.369 61.8243C276.598 61.2819 276.993 60.8505 277.555 60.5299C278.116 60.2093 278.722 60.0603 279.371 60.083ZM284.589 69.3607L286.088 69.4131C286.043 70.7023 285.644 71.794 284.893 72.6884L283.589 72.6428C283.906 72.1436 284.145 71.6166 284.304 71.0618C284.473 70.5174 284.568 69.9504 284.589 69.3607ZM291.668 61.9683C291.438 61.9602 291.217 61.9825 291.005 62.0352C290.803 62.0782 290.61 62.1565 290.426 62.2701C290.253 62.3741 290.088 62.5035 289.933 62.6581C289.787 62.8032 289.657 62.9687 289.54 63.1547C289.433 63.3511 289.336 63.5529 289.249 63.7599C289.171 63.9674 289.104 64.1851 289.046 64.4133C288.988 64.6414 288.94 64.8748 288.901 65.1136C288.863 65.3425 288.84 65.5868 288.831 65.8466C288.822 66.0965 288.828 66.3418 288.85 66.5827C288.872 66.8236 288.903 67.0599 288.945 67.2915C288.987 67.5231 289.039 67.7451 289.102 67.9574C289.175 68.17 289.258 68.3781 289.35 68.5814C289.454 68.7752 289.573 68.9494 289.707 69.1042C289.852 69.2593 290.007 69.3999 290.173 69.5257C290.525 69.7681 290.931 69.8974 291.39 69.9134C291.63 69.9218 291.851 69.9045 292.052 69.8615C292.264 69.8089 292.457 69.7256 292.632 69.6116C292.816 69.4979 292.98 69.3686 293.125 69.2236C293.28 69.0789 293.411 68.9134 293.518 68.727C293.635 68.5309 293.737 68.3294 293.824 68.1223C293.911 67.9152 293.984 67.6976 294.042 67.4695C294.1 67.2414 294.143 67.0077 294.172 66.7686C294.2 66.5294 294.219 66.2849 294.227 66.0351C294.236 65.7752 294.235 65.53 294.223 65.2995C294.211 65.0589 294.185 64.8228 294.143 64.5912C294.101 64.3596 294.043 64.1375 293.971 63.9248C293.898 63.7122 293.81 63.504 293.707 63.3003C293.614 63.1069 293.495 62.9326 293.35 62.7775C293.216 62.6127 293.061 62.4722 292.885 62.356C292.543 62.1139 292.137 61.9847 291.668 61.9683ZM291.718 60.5142C292.518 60.5421 293.215 60.7965 293.808 61.2775C294.188 61.561 294.507 61.9023 294.763 62.3015C295.029 62.691 295.239 63.1386 295.391 63.6442C295.498 64.0282 295.574 64.4261 295.62 64.8379C295.676 65.2401 295.696 65.6561 295.681 66.0859C295.666 66.5156 295.617 66.9341 295.533 67.3414C295.459 67.7391 295.355 68.1257 295.222 68.5013C295.034 68.9951 294.794 69.4319 294.501 69.8119C294.218 70.1823 293.876 70.4955 293.477 70.7518C292.852 71.1902 292.139 71.3955 291.339 71.3675C290.54 71.3396 289.843 71.0852 289.25 70.6041C288.879 70.3211 288.561 69.9847 288.294 69.5952C288.038 69.196 287.839 68.7438 287.696 68.2385C287.58 67.8542 287.493 67.4609 287.437 67.0587C287.392 66.6469 287.376 66.2261 287.391 65.7964C287.406 65.3666 287.451 64.9529 287.525 64.5553C287.609 64.148 287.723 63.7567 287.866 63.3815C288.043 62.8873 288.274 62.4551 288.557 62.0848C288.85 61.7048 289.191 61.3865 289.581 61.1299C290.206 60.6915 290.919 60.4862 291.718 60.5142ZM301.198 62.3011C300.968 62.293 300.747 62.3154 300.535 62.368C300.334 62.411 300.141 62.4893 299.957 62.6029C299.783 62.7069 299.618 62.8363 299.463 62.9909C299.318 63.136 299.187 63.3015 299.07 63.4875C298.963 63.6839 298.866 63.8857 298.779 64.0927C298.702 64.3002 298.634 64.5179 298.576 64.7461C298.518 64.9742 298.47 65.2076 298.432 65.4464C298.394 65.6753 298.37 65.9196 298.361 66.1794C298.352 66.4293 298.359 66.6746 298.38 66.9155C298.402 67.1564 298.434 67.3927 298.476 67.6243C298.518 67.8559 298.57 68.0779 298.632 68.2902C298.705 68.5029 298.788 68.7109 298.881 68.9142C298.984 69.108 299.103 69.2822 299.238 69.437C299.382 69.5922 299.538 69.7327 299.703 69.8585C300.055 70.1009 300.461 70.2302 300.921 70.2462C301.16 70.2546 301.381 70.2373 301.583 70.1943C301.795 70.1417 301.988 70.0584 302.162 69.9444C302.346 69.8307 302.511 69.7014 302.656 69.5564C302.811 69.4117 302.942 69.2462 303.048 69.0598C303.165 68.8637 303.267 68.6622 303.355 68.4551C303.442 68.248 303.514 68.0304 303.572 67.8023C303.63 67.5742 303.674 67.3405 303.702 67.1014C303.73 66.8622 303.749 66.6177 303.758 66.3679C303.767 66.108 303.765 65.8628 303.753 65.6323C303.742 65.3917 303.715 65.1557 303.673 64.924C303.631 64.6924 303.574 64.4703 303.501 64.2576C303.428 64.045 303.341 63.8368 303.238 63.6331C303.144 63.4397 303.025 63.2654 302.881 63.1103C302.746 62.9455 302.591 62.805 302.415 62.6888C302.073 62.4467 301.668 62.3175 301.198 62.3011ZM301.249 60.847C302.048 60.8749 302.745 61.1293 303.338 61.6104C303.719 61.8938 304.037 62.2351 304.293 62.6343C304.56 63.0238 304.769 63.4714 304.922 63.9771C305.028 64.361 305.105 64.7589 305.15 65.1708C305.206 65.573 305.227 65.9889 305.212 66.4187C305.197 66.8484 305.147 67.2669 305.063 67.6742C304.989 68.0719 304.885 68.4585 304.752 68.8341C304.565 69.3279 304.324 69.7647 304.031 70.1447C303.748 70.5151 303.407 70.8284 303.008 71.0846C302.382 71.523 301.669 71.7283 300.87 71.7003C300.07 71.6724 299.374 71.418 298.78 70.937C298.41 70.6539 298.091 70.3175 297.825 69.928C297.569 69.5288 297.369 69.0766 297.227 68.5713C297.11 68.187 297.024 67.7937 296.968 67.3915C296.922 66.9797 296.907 66.5589 296.922 66.1292C296.937 65.6994 296.981 65.2857 297.055 64.8881C297.139 64.4808 297.253 64.0895 297.396 63.7143C297.574 63.2202 297.804 62.7879 298.087 62.4176C298.38 62.0376 298.722 61.7193 299.111 61.4627C299.737 61.0243 300.449 60.819 301.249 60.847ZM310.728 62.6339C310.498 62.6259 310.278 62.6482 310.066 62.7008C309.864 62.7438 309.671 62.8221 309.487 62.9357C309.313 63.0397 309.149 63.1691 308.993 63.3237C308.848 63.4688 308.717 63.6343 308.601 63.8203C308.494 64.0167 308.397 64.2185 308.309 64.4256C308.232 64.633 308.164 64.8508 308.106 65.0789C308.048 65.307 308 65.5404 307.962 65.7793C307.924 66.0081 307.9 66.2524 307.891 66.5122C307.883 66.7621 307.889 67.0075 307.911 67.2484C307.932 67.4893 307.964 67.7255 308.006 67.9571C308.048 68.1887 308.1 68.4107 308.163 68.623C308.235 68.8357 308.318 69.0437 308.411 69.247C308.514 69.4408 308.633 69.615 308.768 69.7698C308.913 69.925 309.068 70.0655 309.234 70.1913C309.585 70.4337 309.991 70.563 310.451 70.579C310.691 70.5874 310.911 70.5701 311.113 70.5271C311.325 70.4745 311.518 70.3912 311.692 70.2772C311.876 70.1635 312.041 70.0342 312.186 69.8892C312.341 69.7445 312.472 69.579 312.579 69.3926C312.695 69.1965 312.798 68.995 312.885 68.7879C312.972 68.5808 313.045 68.3632 313.103 68.1351C313.161 67.907 313.204 67.6734 313.232 67.4342C313.261 67.195 313.279 66.9505 313.288 66.7007C313.297 66.4408 313.296 66.1956 313.284 65.9651C313.272 65.7245 313.245 65.4885 313.203 65.2569C313.161 65.0253 313.104 64.8031 313.031 64.5905C312.959 64.3778 312.871 64.1696 312.768 63.9659C312.675 63.7725 312.556 63.5982 312.411 63.4431C312.277 63.2783 312.122 63.1378 311.946 63.0216C311.604 62.7795 311.198 62.6503 310.728 62.6339ZM310.779 61.1798C311.579 61.2077 312.275 61.4622 312.869 61.9432C313.249 62.2266 313.567 62.5679 313.824 62.9671C314.09 63.3566 314.3 63.8042 314.452 64.3099C314.559 64.6938 314.635 65.0917 314.681 65.5036C314.737 65.9058 314.757 66.3217 314.742 66.7515C314.727 67.1812 314.677 67.5997 314.593 68.007C314.519 68.4047 314.416 68.7913 314.282 69.1669C314.095 69.6607 313.855 70.0975 313.561 70.4775C313.278 70.8479 312.937 71.1612 312.538 71.4174C311.912 71.8558 311.2 72.0611 310.4 72.0332C309.601 72.0052 308.904 71.7508 308.31 71.2698C307.94 70.9867 307.622 70.6503 307.355 70.2608C307.099 69.8616 306.9 69.4094 306.757 68.9041C306.64 68.5198 306.554 68.1266 306.498 67.7244C306.452 67.3125 306.437 66.8917 306.452 66.462C306.467 66.0322 306.512 65.6185 306.586 65.2209C306.67 64.8136 306.784 64.4223 306.927 64.0471C307.104 63.553 307.334 63.1207 307.617 62.7504C307.911 62.3704 308.252 62.0521 308.641 61.7955C309.267 61.3571 309.98 61.1518 310.779 61.1798ZM317.297 60.1016C317.691 60.5756 318.028 61.0827 318.309 61.6228C318.601 62.1633 318.846 62.7272 319.046 63.3146C319.245 63.9019 319.385 64.4971 319.464 65.1002C319.553 65.6937 319.587 66.3003 319.565 66.9199C319.544 67.5395 319.467 68.1472 319.336 68.743C319.216 69.3392 319.035 69.9232 318.795 70.4952C318.325 71.6395 317.669 72.6622 316.827 73.5634C316.827 73.5634 316.822 73.5532 316.813 73.5329C316.803 73.5225 316.769 73.4863 316.712 73.4243C316.654 73.3622 316.557 73.2538 316.423 73.099C316.298 72.9445 316.115 72.733 315.875 72.4645C316.552 71.6976 317.087 70.8308 317.481 69.864C317.875 68.8971 318.09 67.899 318.126 66.8696C318.145 66.34 318.118 65.8237 318.045 65.3209C317.973 64.808 317.851 64.2985 317.678 63.7921C317.516 63.2862 317.307 62.8086 317.053 62.3594C316.809 61.9006 316.524 61.4654 316.198 61.0538C316.198 61.0538 316.203 61.049 316.213 61.0393C316.234 61.02 316.275 60.9865 316.337 60.9386C316.399 60.8807 316.507 60.7894 316.662 60.6648C316.817 60.5301 317.028 60.3424 317.297 60.1016Z" fill="white"/>
<g clip-path="url(#clip2_412_2481)">
<path d="M354.682 95.5H444.682V355.5H354.682V95.5Z" fill="#212367"/>
<line opacity="0.1" x1="290.199" y1="182.483" x2="454.407" y2="138.484" stroke="white"/>
<line opacity="0.1" x1="286.317" y1="167.994" x2="450.525" y2="123.995" stroke="white"/>
<line opacity="0.1" x1="290.199" y1="153.483" x2="454.407" y2="109.484" stroke="white"/>
<line opacity="0.1" x1="286.317" y1="138.994" x2="450.525" y2="94.9949" stroke="white"/>
<line opacity="0.1" x1="286.449" y1="124.017" x2="450.656" y2="80.0174" stroke="white"/>
<line opacity="0.1" x1="294.082" y1="196.972" x2="458.289" y2="152.973" stroke="white"/>
<line opacity="0.1" x1="317.375" y1="283.905" x2="481.583" y2="239.906" stroke="white"/>
<line opacity="0.1" x1="297.964" y1="211.461" x2="462.171" y2="167.462" stroke="white"/>
<line opacity="0.1" x1="309.611" y1="254.927" x2="473.818" y2="210.928" stroke="white"/>
<line opacity="0.1" x1="305.729" y1="240.439" x2="469.936" y2="196.439" stroke="white"/>
<line opacity="0.1" x1="301.846" y1="225.95" x2="466.054" y2="181.95" stroke="white"/>
<line opacity="0.1" x1="313.493" y1="269.416" x2="477.701" y2="225.417" stroke="white"/>
<line opacity="0.1" x1="329.022" y1="327.372" x2="493.23" y2="283.373" stroke="white"/>
<line opacity="0.1" x1="325.14" y1="312.883" x2="489.348" y2="268.884" stroke="white"/>
<line opacity="0.1" x1="336.787" y1="356.35" x2="500.994" y2="312.35" stroke="white"/>
<line opacity="0.1" x1="332.905" y1="341.861" x2="497.112" y2="297.862" stroke="white"/>
<line opacity="0.1" x1="321.258" y1="298.394" x2="485.465" y2="254.395" stroke="white"/>
<line opacity="0.1" x1="340.669" y1="370.839" x2="504.877" y2="326.839" stroke="white"/>
<line opacity="0.1" x1="344.551" y1="385.327" x2="508.759" y2="341.328" stroke="white"/>
<g clip-path="url(#clip3_412_2481)">
<path d="M399.682 230.5C409.657 230.5 417.682 222.475 417.682 212.5C417.682 202.525 409.657 194.5 399.682 194.5C389.707 194.5 381.682 202.525 381.682 212.5C381.682 222.475 389.707 230.5 399.682 230.5Z" fill="#2775CA"/>
<path d="M404.632 215.35C404.632 212.725 403.057 211.825 399.907 211.45C397.657 211.15 397.207 210.55 397.207 209.5C397.207 208.45 397.957 207.775 399.457 207.775C400.807 207.775 401.557 208.225 401.932 209.35C402.007 209.575 402.232 209.725 402.457 209.725H403.657C403.957 209.725 404.182 209.5 404.182 209.2V209.125C403.882 207.475 402.532 206.2 400.807 206.05V204.25C400.807 203.95 400.582 203.725 400.207 203.65H399.082C398.782 203.65 398.557 203.875 398.482 204.25V205.975C396.232 206.275 394.807 207.775 394.807 209.65C394.807 212.125 396.307 213.1 399.457 213.475C401.557 213.85 402.232 214.3 402.232 215.5C402.232 216.7 401.182 217.525 399.757 217.525C397.807 217.525 397.132 216.7 396.907 215.575C396.832 215.275 396.607 215.125 396.382 215.125H395.107C394.807 215.125 394.582 215.35 394.582 215.65V215.725C394.882 217.6 396.082 218.95 398.557 219.325V221.125C398.557 221.425 398.782 221.65 399.157 221.725H400.282C400.582 221.725 400.807 221.5 400.882 221.125V219.325C403.132 218.95 404.632 217.375 404.632 215.35Z" fill="white"/>
<path d="M395.857 223.225C390.007 221.125 387.007 214.6 389.182 208.825C390.307 205.675 392.782 203.275 395.857 202.15C396.157 202 396.307 201.775 396.307 201.4V200.35C396.307 200.05 396.157 199.825 395.857 199.75C395.782 199.75 395.632 199.75 395.557 199.825C388.432 202.075 384.532 209.65 386.782 216.775C388.132 220.975 391.357 224.2 395.557 225.55C395.857 225.7 396.157 225.55 396.232 225.25C396.307 225.175 396.307 225.1 396.307 224.95V223.9C396.307 223.675 396.082 223.375 395.857 223.225ZM403.807 199.825C403.507 199.675 403.207 199.825 403.132 200.125C403.057 200.2 403.057 200.275 403.057 200.425V201.475C403.057 201.775 403.282 202.075 403.507 202.225C409.357 204.325 412.357 210.85 410.182 216.625C409.057 219.775 406.582 222.175 403.507 223.3C403.207 223.45 403.057 223.675 403.057 224.05V225.1C403.057 225.4 403.207 225.625 403.507 225.7C403.582 225.7 403.732 225.7 403.807 225.625C410.932 223.375 414.832 215.8 412.582 208.675C411.232 204.4 407.932 201.175 403.807 199.825Z" fill="white"/>
</g>
</g>
<rect x="357.682" y="62.1053" width="46" height="30" rx="15" transform="rotate(-2 357.682 62.1053)" fill="#212367"/>
<path d="M365.68 81.8383L365.314 71.3447L366.753 71.2944L367.069 80.3339L372.016 80.1611L372.067 81.6153L365.68 81.8383ZM376.352 75.2368C375.673 75.2605 375.126 75.5148 374.713 75.9995C374.511 76.2467 374.361 76.5221 374.261 76.8257C374.161 77.1194 374.118 77.4411 374.13 77.7909C374.154 78.4805 374.389 79.0626 374.836 79.5373C375.282 79.992 375.845 80.2075 376.525 80.1838C377.204 80.1601 377.751 79.9058 378.164 79.4211C378.376 79.1736 378.526 78.9032 378.616 78.6098C378.716 78.3062 378.759 77.9795 378.747 77.6297C378.723 76.9301 378.487 76.348 378.041 75.8833C377.595 75.4286 377.032 75.2131 376.352 75.2368ZM376.301 73.7827C377.371 73.7453 378.278 74.0939 379.024 74.8283C379.761 75.5631 380.148 76.4801 380.186 77.5794C380.224 78.6688 379.902 79.6106 379.219 80.4049C378.526 81.1896 377.645 81.6006 376.576 81.6379C375.506 81.6752 374.599 81.3267 373.852 80.5923C373.116 79.8476 372.729 78.9305 372.691 77.8412C372.652 76.7418 372.975 75.8 373.658 75.0157C374.351 74.231 375.232 73.82 376.301 73.7827ZM387.285 73.5793L388.634 73.5321L388.895 81.0276L387.546 81.0747L387.511 80.0553C387.482 80.1063 387.449 80.1575 387.411 80.2089C387.383 80.2599 387.349 80.3061 387.311 80.3475C386.772 80.9766 386.039 81.3075 385.109 81.3399C384.04 81.3773 383.147 81.0282 382.431 80.2927C381.704 79.5476 381.322 78.6304 381.284 77.5411C381.246 76.4418 381.563 75.5001 382.236 74.7161C382.899 73.9325 383.765 73.522 384.835 73.4847C385.764 73.4522 386.52 73.741 387.101 74.3511C387.153 74.3894 387.194 74.4329 387.226 74.4819C387.258 74.5308 387.289 74.5747 387.321 74.6136L387.285 73.5793ZM384.975 74.9207C384.295 74.9444 383.749 75.2036 383.336 75.6983C382.913 76.1934 382.714 76.7907 382.738 77.4903C382.763 78.1899 383.003 78.7718 383.46 79.2362C383.906 79.7009 384.469 79.9214 385.149 79.8976C385.818 79.8743 386.35 79.6156 386.743 79.1215C386.944 78.8744 387.09 78.6041 387.18 78.3108C387.279 78.0071 387.323 77.6804 387.31 77.3306C387.298 76.9709 387.232 76.648 387.112 76.362C387.002 76.0757 386.837 75.8162 386.619 75.5837C386.193 75.1183 385.645 74.8973 384.975 74.9207ZM397.479 80.7278L396.025 80.7786L395.886 76.776C395.862 76.0965 395.668 75.5629 395.304 75.1753C394.931 74.7882 394.474 74.604 393.934 74.6228C393.395 74.6417 392.957 74.8571 392.621 75.2691C392.275 75.6914 392.114 76.2373 392.138 76.9069L392.278 80.9095L390.823 80.9603L390.562 73.4648L391.956 73.4161L391.986 74.2856C392.004 74.2349 392.028 74.1941 392.057 74.1631C392.096 74.1217 392.129 74.0855 392.158 74.0545C392.639 73.4873 393.274 73.19 394.063 73.1624C394.983 73.1303 395.749 73.4438 396.363 74.1028C396.664 74.4324 396.898 74.8245 397.064 75.279C397.23 75.7235 397.322 76.2206 397.341 76.7702L397.479 80.7278Z" fill="white"/>
<rect x="377.729" y="83.5" width="94" height="30" rx="15" transform="rotate(2 377.729 83.5)" fill="#5069DD"/>
<path d="M387.073 93.1519C387.972 93.1833 388.736 93.5252 389.363 94.1775C389.991 94.8398 390.289 95.6207 390.257 96.5201C390.229 97.3396 389.852 98.1069 389.126 98.822L385.537 102.329L390.094 102.488L390.043 103.942L383.432 103.711L383.483 102.257L388.064 97.8544C388.541 97.3807 388.787 96.9191 388.803 96.4693C388.822 95.9397 388.662 95.5038 388.324 95.1618C387.986 94.7998 387.562 94.6099 387.053 94.5921C386.603 94.5764 386.214 94.6879 385.885 94.9266C385.721 95.0409 385.581 95.1811 385.465 95.3472C385.359 95.5136 385.278 95.7058 385.22 95.9239L383.822 95.5449C384.028 94.8117 384.429 94.2253 385.025 93.7858C385.631 93.3367 386.313 93.1254 387.073 93.1519ZM392.325 102.431L393.824 102.483C393.779 103.772 393.38 104.864 392.629 105.758L391.324 105.713C391.642 105.214 391.881 104.687 392.04 104.132C392.209 103.588 392.304 103.02 392.325 102.431ZM395.2 95.0717L395.251 93.6176L402.386 93.8668L402.335 95.3209L397.268 104.194L395.649 104.138L400.716 95.2644L395.2 95.0717ZM407.558 95.3232C407.328 95.3151 407.107 95.3374 406.895 95.3901C406.693 95.4331 406.501 95.5114 406.316 95.625C406.143 95.729 405.978 95.8584 405.823 96.013C405.677 96.158 405.547 96.3236 405.43 96.5096C405.323 96.706 405.226 96.9077 405.139 97.1148C405.061 97.3223 404.994 97.54 404.936 97.7681C404.878 97.9963 404.83 98.2297 404.791 98.4685C404.753 98.6973 404.73 98.9417 404.721 99.2015C404.712 99.4514 404.718 99.6967 404.74 99.9376C404.762 100.179 404.793 100.415 404.835 100.646C404.877 100.878 404.93 101.1 404.992 101.312C405.065 101.525 405.148 101.733 405.241 101.936C405.344 102.13 405.463 102.304 405.597 102.459C405.742 102.614 405.897 102.755 406.063 102.881C406.415 103.123 406.821 103.252 407.28 103.268C407.52 103.277 407.741 103.259 407.942 103.216C408.154 103.164 408.347 103.08 408.522 102.966C408.706 102.853 408.87 102.723 409.015 102.578C409.171 102.434 409.301 102.268 409.408 102.082C409.525 101.886 409.627 101.684 409.714 101.477C409.802 101.27 409.874 101.052 409.932 100.824C409.99 100.596 410.033 100.363 410.062 100.123C410.09 99.8843 410.109 99.6398 410.117 99.39C410.126 99.1301 410.125 98.8849 410.113 98.6544C410.101 98.4138 410.075 98.1777 410.033 97.9461C409.991 97.7145 409.933 97.4924 409.861 97.2797C409.788 97.0671 409.7 96.8589 409.597 96.6552C409.504 96.4618 409.385 96.2875 409.24 96.1324C409.106 95.9676 408.951 95.8271 408.775 95.7109C408.433 95.4688 408.027 95.3396 407.558 95.3232ZM407.608 93.869C408.408 93.897 409.105 94.1514 409.698 94.6324C410.078 94.9159 410.397 95.2572 410.653 95.6564C410.92 96.0459 411.129 96.4935 411.281 96.9991C411.388 97.3831 411.464 97.781 411.51 98.1928C411.566 98.595 411.586 99.011 411.571 99.4407C411.556 99.8705 411.507 100.289 411.423 100.696C411.349 101.094 411.245 101.481 411.112 101.856C410.925 102.35 410.684 102.787 410.391 103.167C410.108 103.537 409.766 103.85 409.367 104.107C408.742 104.545 408.029 104.75 407.229 104.722C406.43 104.695 405.733 104.44 405.14 103.959C404.77 103.676 404.451 103.34 404.184 102.95C403.928 102.551 403.729 102.099 403.586 101.593C403.47 101.209 403.383 100.816 403.327 100.414C403.282 100.002 403.267 99.581 403.282 99.1512C403.297 98.7215 403.341 98.3078 403.415 97.9101C403.499 97.5028 403.613 97.1116 403.756 96.7363C403.933 96.2422 404.164 95.81 404.447 95.4397C404.74 95.0597 405.082 94.7414 405.471 94.4848C406.096 94.0464 406.809 93.8411 407.608 93.869ZM417.088 95.656C416.858 95.6479 416.637 95.6702 416.425 95.7229C416.224 95.7659 416.031 95.8442 415.847 95.9578C415.673 96.0618 415.508 96.1912 415.353 96.3458C415.208 96.4908 415.077 96.6564 414.96 96.8424C414.853 97.0388 414.756 97.2405 414.669 97.4476C414.592 97.6551 414.524 97.8728 414.466 98.1009C414.408 98.3291 414.36 98.5625 414.322 98.8013C414.284 99.0301 414.26 99.2745 414.251 99.5343C414.242 99.7842 414.249 100.03 414.27 100.27C414.292 100.511 414.324 100.748 414.366 100.979C414.408 101.211 414.46 101.433 414.522 101.645C414.595 101.858 414.678 102.066 414.771 102.269C414.874 102.463 414.993 102.637 415.128 102.792C415.272 102.947 415.428 103.088 415.593 103.213C415.945 103.456 416.351 103.585 416.811 103.601C417.05 103.609 417.271 103.592 417.473 103.549C417.685 103.497 417.878 103.413 418.052 103.299C418.236 103.186 418.401 103.056 418.546 102.911C418.701 102.767 418.832 102.601 418.938 102.415C419.055 102.219 419.157 102.017 419.245 101.81C419.332 101.603 419.404 101.385 419.462 101.157C419.52 100.929 419.564 100.695 419.592 100.456C419.62 100.217 419.639 99.9726 419.648 99.7228C419.657 99.4629 419.655 99.2177 419.643 98.9872C419.632 98.7466 419.605 98.5105 419.563 98.2789C419.521 98.0473 419.464 97.8252 419.391 97.6125C419.319 97.3999 419.231 97.1917 419.128 96.988C419.034 96.7946 418.915 96.6203 418.771 96.4652C418.636 96.3004 418.481 96.1599 418.305 96.0437C417.963 95.8016 417.558 95.6724 417.088 95.656ZM417.139 94.2018C417.938 94.2298 418.635 94.4842 419.228 94.9652C419.609 95.2487 419.927 95.59 420.183 95.9892C420.45 96.3787 420.659 96.8263 420.812 97.3319C420.918 97.7159 420.995 98.1138 421.04 98.5256C421.096 98.9278 421.117 99.3438 421.102 99.7735C421.087 100.203 421.037 100.622 420.953 101.029C420.879 101.427 420.775 101.813 420.642 102.189C420.455 102.683 420.214 103.12 419.921 103.5C419.638 103.87 419.297 104.183 418.898 104.439C418.272 104.878 417.559 105.083 416.76 105.055C415.96 105.027 415.264 104.773 414.67 104.292C414.3 104.009 413.981 103.672 413.715 103.283C413.459 102.884 413.259 102.431 413.117 101.926C413 101.542 412.914 101.149 412.858 100.746C412.812 100.335 412.797 99.9138 412.812 99.4841C412.827 99.0543 412.871 98.6406 412.945 98.243C413.029 97.8356 413.143 97.4444 413.286 97.0691C413.464 96.575 413.694 96.1428 413.977 95.7725C414.271 95.3925 414.612 95.0742 415.001 94.8176C415.627 94.3792 416.339 94.1739 417.139 94.2018ZM426.695 94.7157L428.134 94.7659L427.922 100.837C427.889 101.797 428.122 102.565 428.622 103.143C429.132 103.741 429.761 104.053 430.511 104.08C431.26 104.106 431.91 103.838 432.46 103.277C432.999 102.736 433.286 101.985 433.319 101.026L433.531 94.9544L434.97 95.0046L434.758 101.076C434.735 101.756 434.613 102.372 434.394 102.924C434.184 103.467 433.873 103.947 433.458 104.363C432.639 105.184 431.639 105.575 430.46 105.534C429.281 105.492 428.311 105.033 427.551 104.156C426.792 103.269 426.436 102.146 426.483 100.787L426.695 94.7157ZM440.105 95.0038C440.844 95.0297 441.477 95.2319 442.005 95.6105C442.552 95.9898 442.91 96.4876 443.078 97.1039L441.669 97.4749C441.57 97.1613 441.384 96.9196 441.109 96.75C440.835 96.5703 440.484 96.4729 440.054 96.4579C439.534 96.4398 439.115 96.5552 438.796 96.8043C438.457 97.0626 438.28 97.4066 438.265 97.8363C438.253 98.1761 438.363 98.4602 438.595 98.6884C438.875 98.9783 439.353 99.1951 440.028 99.3388C441.012 99.5433 441.813 99.9365 442.434 100.518C443.044 101.1 443.333 101.831 443.303 102.71C443.27 103.63 442.909 104.392 442.217 104.999C441.535 105.605 440.705 105.891 439.726 105.857C438.956 105.83 438.279 105.602 437.693 105.171C437.098 104.73 436.708 104.171 436.521 103.494L437.915 103.122C438.032 103.507 438.256 103.81 438.589 104.031C438.931 104.264 439.327 104.387 439.776 104.403C440.346 104.423 440.832 104.27 441.233 103.944C441.635 103.607 441.845 103.18 441.863 102.66C441.88 102.2 441.703 101.804 441.335 101.471C440.956 101.127 440.459 100.89 439.844 100.758C438.93 100.566 438.191 100.225 437.628 99.7353C437.065 99.2453 436.797 98.5956 436.825 97.7861C436.84 97.3763 436.928 97.0042 437.09 96.6696C437.262 96.3254 437.503 96.0186 437.812 95.7493C438.431 95.2206 439.195 94.9721 440.105 95.0038ZM448.682 96.9393L446.943 96.8786L446.678 104.464L448.417 104.525C449.466 104.561 450.379 104.223 451.154 103.51C451.919 102.796 452.32 101.914 452.357 100.865C452.394 99.8156 452.055 98.9083 451.341 98.1429C450.618 97.3772 449.731 96.976 448.682 96.9393ZM448.733 95.4852C450.182 95.5358 451.403 96.0888 452.397 97.1441C453.38 98.2091 453.847 99.4661 453.796 100.915C453.771 101.645 453.617 102.315 453.336 102.925C453.065 103.526 452.665 104.073 452.138 104.565C451.072 105.558 449.815 106.029 448.366 105.979L445.188 105.868L445.555 95.3743L448.733 95.4852ZM460.423 95.7134C460.803 95.7266 461.167 95.7743 461.514 95.8565C461.861 95.9387 462.192 96.0603 462.507 96.2214C462.821 96.3825 463.115 96.5678 463.388 96.7775C463.661 96.9871 463.913 97.2261 464.143 97.4943L463.072 98.5075C462.372 97.6526 461.472 97.2059 460.372 97.1675C459.293 97.1298 458.39 97.4835 457.664 98.2286C457.29 98.6058 457.005 99.0261 456.809 99.4895C456.613 99.953 456.505 100.46 456.486 101.009C456.467 101.559 456.539 102.072 456.702 102.548C456.866 103.024 457.121 103.463 457.467 103.865C458.14 104.659 459.016 105.075 460.095 105.113C461.194 105.151 462.123 104.773 462.881 103.979L463.865 105.034C463.626 105.296 463.363 105.522 463.076 105.712C462.789 105.902 462.478 106.066 462.143 106.205C461.493 106.472 460.794 106.593 460.044 106.567C458.545 106.514 457.319 105.941 456.367 104.847C455.906 104.301 455.561 103.704 455.334 103.055C455.116 102.407 455.021 101.708 455.047 100.959C455.073 100.199 455.218 99.509 455.479 98.8878C455.752 98.2569 456.142 97.6901 456.649 97.1876C457.666 96.1524 458.924 95.661 460.423 95.7134Z" fill="white"/>
<path opacity="0.2" d="M4.03558 0.146447C3.84031 -0.0488155 3.52373 -0.0488155 3.32847 0.146447L0.146488 3.32843C-0.0487738 3.52369 -0.0487738 3.84027 0.146488 4.03553C0.34175 4.2308 0.658333 4.2308 0.853595 4.03553L3.68202 1.20711L6.51045 4.03553C6.70571 4.2308 7.02229 4.2308 7.21756 4.03553C7.41282 3.84027 7.41282 3.52369 7.21756 3.32843L4.03558 0.146447ZM3.18201 354.5V355H4.18201L4.18201 354.5H3.18201ZM629.036 355.854C629.231 355.658 629.231 355.342 629.036 355.146L625.854 351.964C625.658 351.769 625.342 351.769 625.146 351.964C624.951 352.16 624.951 352.476 625.146 352.672L627.975 355.5L625.146 358.328C624.951 358.524 624.951 358.84 625.146 359.036C625.342 359.231 625.658 359.231 625.854 359.036L629.036 355.854ZM3.68202 355H3.18202V356H3.68202V355ZM3.68202 0.5L3.18202 0.5L3.18201 354.5H3.68201H4.18201L4.18202 0.5L3.68202 0.5ZM628.682 355.5V355H3.68202V355.5V356H628.682V355.5Z" fill="#9A94B8"/>
<g clip-path="url(#clip4_412_2481)">
<rect x="34.682" y="271.729" width="60" height="60" rx="15" transform="rotate(-5 34.682 271.729)" fill="#112540"/>
<path d="M86.1477 286.299L69.6329 306.148L59.7777 297.808L48.2174 311.702M86.1477 286.299L73.4689 287.409M86.1477 286.299L87.2662 299.084" stroke="#09AF8E" stroke-width="4" stroke-linecap="round" stroke-linejoin="round"/>
</g>
<defs>
<clipPath id="clip0_412_2481">
<path d="M204.682 75.5C204.682 69.9771 209.159 65.5 214.682 65.5H284.682C290.205 65.5 294.682 69.9772 294.682 75.5V354.5H204.682V75.5Z" fill="white"/>
</clipPath>
<clipPath id="clip1_412_2481">
<rect width="36" height="36" fill="white" transform="translate(231.682 194.5)"/>
</clipPath>
<clipPath id="clip2_412_2481">
<path d="M354.682 105.5C354.682 99.9772 359.159 95.5 364.682 95.5H434.682C440.205 95.5 444.682 99.9772 444.682 105.5V354.5H354.682V105.5Z" fill="white"/>
</clipPath>
<clipPath id="clip3_412_2481">
<rect width="36" height="36" fill="white" transform="translate(381.682 194.5)"/>
</clipPath>
<clipPath id="clip4_412_2481">
<rect width="60" height="60" fill="white" transform="translate(34.682 271.729) rotate(-5)"/>
</clipPath>
</defs>
</svg>
