<svg width="240" height="260" viewBox="0 0 240 260" fill="none" xmlns="http://www.w3.org/2000/svg">
<rect y="3.83899" width="110" height="38" rx="19" transform="rotate(-2 0 3.83899)" fill="#5069DD"/>
<path d="M16.1399 20.4209C16.1115 19.6074 16.1654 18.8387 16.3015 18.1148C16.4375 17.3873 16.6471 16.7159 16.9301 16.1007C17.2167 15.4816 17.5696 14.9245 17.9889 14.4292C18.4081 13.9303 18.8867 13.5045 19.4247 13.1518C19.9626 12.7955 20.5546 12.5162 21.2006 12.3138C21.8465 12.1115 22.5378 11.9975 23.2744 11.9717C24.0109 11.946 24.7085 12.0115 25.367 12.1683C26.0256 12.3251 26.6355 12.5625 27.197 12.8804C27.7583 13.1947 28.2654 13.586 28.7184 14.0545C29.1749 14.5192 29.5658 15.0504 29.8912 15.6481C30.2165 16.2421 30.4723 16.8972 30.6588 17.6135C30.8487 18.3259 30.9579 19.0889 30.9864 19.9024C31.0146 20.7123 30.9589 21.481 30.8192 22.2087C30.6832 22.9362 30.4737 23.6094 30.1908 24.2283C29.9078 24.8436 29.5549 25.4007 29.132 25.8998C28.7127 26.3951 28.2341 26.8209 27.6962 27.1772C27.1582 27.5298 26.5662 27.8073 25.9202 28.0097C25.2742 28.212 24.5829 28.326 23.8464 28.3518C23.1098 28.3775 22.4123 28.3119 21.7537 28.1552C21.0952 27.9984 20.4853 27.7629 19.924 27.4486C19.3625 27.1307 18.8554 26.7393 18.4026 26.2745C17.9496 25.806 17.5587 25.2748 17.2297 24.6809C16.9043 24.0833 16.6484 23.4263 16.462 22.71C16.2755 21.9938 16.1682 21.2307 16.1399 20.4209ZM18.4485 20.3403C18.4815 21.2857 18.6265 22.1281 18.8835 22.8676C19.1441 23.607 19.5034 24.2291 19.9613 24.7341C20.419 25.2355 20.9679 25.6144 21.6079 25.8709C22.2515 26.1236 22.9727 26.236 23.7715 26.2081C24.5704 26.1802 25.2801 26.0178 25.9008 25.721C26.525 25.4203 27.048 25.004 27.4697 24.4719C27.8912 23.9362 28.2062 23.2905 28.4147 22.5348C28.6231 21.779 28.7108 20.9285 28.6778 19.983C28.6447 19.0376 28.4979 18.1952 28.2373 17.4559C27.9767 16.7165 27.6175 16.0962 27.1597 15.5948C26.7018 15.0899 26.1511 14.711 25.5075 14.4583C24.8675 14.2018 24.1481 14.0875 23.3492 14.1154C22.5504 14.1433 21.8389 14.3076 21.2146 14.6082C20.5939 14.9051 20.0728 15.3213 19.6513 15.857C19.2296 16.3891 18.9145 17.033 18.7061 17.7887C18.5013 18.5443 18.4155 19.3948 18.4485 20.3403ZM34.8401 19.2395C34.976 18.6111 35.1762 18.0427 35.441 17.5345C35.7056 17.0226 36.0242 16.5841 36.3967 16.2189C36.7692 15.8536 37.1903 15.5674 37.66 15.3603C38.1334 15.1529 38.6449 15.0397 39.1946 15.0205C39.6929 15.0031 40.1681 15.058 40.6202 15.1853C41.0722 15.3126 41.4916 15.5034 41.8784 15.7578C42.2689 16.012 42.6228 16.3243 42.9403 16.6948C43.2613 17.0615 43.5363 17.4775 43.7653 17.9428C43.9944 18.408 44.1754 18.9172 44.3085 19.4702C44.4452 20.0231 44.5243 20.6092 44.546 21.2285C44.5676 21.8478 44.5295 22.438 44.4317 22.9991C44.3375 23.56 44.1925 24.0824 43.9966 24.5662C43.8006 25.0463 43.5553 25.4823 43.2608 25.8742C42.9699 26.2622 42.6385 26.5967 42.2667 26.8775C41.8986 27.1582 41.4935 27.3778 41.0515 27.5363C40.6094 27.6948 40.1392 27.7828 39.6408 27.8002C39.0912 27.8194 38.573 27.7421 38.0863 27.5683C37.6033 27.3944 37.1632 27.1383 36.7662 26.7999C36.3691 26.4616 36.0207 26.0463 35.7211 25.5541C35.4214 25.062 35.1819 24.5071 35.0025 23.8897L35.278 31.7774L33.0518 31.8551L32.4837 15.585L34.7098 15.5073L34.8401 19.2395ZM34.9213 21.5646C34.9455 22.2572 35.0515 22.8754 35.2393 23.4191C35.4305 23.9591 35.6941 24.414 36.0299 24.7839C36.3656 25.1537 36.768 25.4332 37.2369 25.6223C37.7056 25.8077 38.2313 25.8902 38.814 25.8699C39.4076 25.8492 39.9283 25.7356 40.376 25.5292C40.8273 25.3189 41.2003 25.0216 41.4951 24.6371C41.7897 24.2489 42.0062 23.7772 42.1446 23.222C42.2865 22.6631 42.3449 22.0245 42.3198 21.3062C42.2947 20.588 42.192 19.9569 42.0116 19.4129C41.8347 18.865 41.5858 18.4096 41.2649 18.0466C40.9441 17.6836 40.5513 17.4148 40.0866 17.2402C39.6254 17.0619 39.098 16.9831 38.5043 17.0038C37.9217 17.0241 37.403 17.1431 36.9484 17.3608C36.4937 17.5785 36.1118 17.8835 35.8026 18.2758C35.4934 18.6682 35.2623 19.1422 35.1093 19.6979C34.9598 20.2498 34.8971 20.872 34.9213 21.5646ZM53.5135 26.892C52.5961 27.2029 51.7655 27.3713 51.0216 27.3973C50.417 27.4184 49.8787 27.3436 49.4068 27.173C48.9387 27.0059 48.5407 26.7465 48.2129 26.3947C47.885 26.0392 47.6292 25.5951 47.4454 25.0622C47.2653 24.5254 47.1628 23.9016 47.1379 23.1907L46.9201 16.952L45.2711 17.0096L45.2058 15.1408L46.8548 15.0832L46.7573 12.2909L48.9835 12.2132L49.081 15.0054L53.0935 14.8653L53.1588 16.7342L49.1462 16.8743L49.3643 23.1185C49.3923 23.921 49.5633 24.5094 49.8772 24.8837C50.1947 25.2542 50.6777 25.4281 51.3263 25.4054C51.5791 25.3966 51.8786 25.3568 52.2247 25.286C52.5744 25.2151 52.9816 25.1091 53.4463 24.9682L53.5135 26.892ZM56.8957 13.3292L54.5596 13.4108L54.4636 10.6625L56.7997 10.5809L56.8957 13.3292ZM57.3129 26.8529L55.0867 26.9306L54.6635 14.8105L56.8896 14.7328L57.3129 26.8529ZM58.5939 20.7379C58.5716 20.1003 58.6147 19.4971 58.7233 18.9283C58.8318 18.3595 58.9988 17.8345 59.2241 17.3534C59.4495 16.8722 59.7297 16.4387 60.0647 16.0528C60.3997 15.6632 60.7806 15.3307 61.2076 15.0553C61.6383 14.7797 62.1132 14.565 62.6325 14.4111C63.1517 14.2536 63.7062 14.1645 64.2962 14.1439C64.8898 14.1232 65.4493 14.1734 65.9745 14.2944C66.5032 14.4117 66.9902 14.5928 67.4353 14.8378C67.8841 15.0826 68.2892 15.3877 68.6505 15.7529C69.0117 16.1146 69.3215 16.5275 69.5798 16.9918C69.8382 17.456 70.0413 17.9681 70.1893 18.5279C70.3373 19.0878 70.4224 19.6865 70.4446 20.3241C70.4669 20.9617 70.4238 21.5649 70.3152 22.1337C70.2067 22.7025 70.0398 23.2293 69.8146 23.7142C69.5892 24.1953 69.309 24.6289 68.9739 25.0148C68.6389 25.4007 68.2561 25.7333 67.8256 26.0125C67.3986 26.2879 66.9254 26.5025 66.4062 26.6564C65.8907 26.8138 65.3361 26.9029 64.7425 26.9236C64.1525 26.9442 63.5931 26.8941 63.0642 26.7731C62.5355 26.6558 62.0467 26.4748 61.5979 26.23C61.1526 25.9813 60.7493 25.6762 60.3882 25.3146C60.027 24.953 59.7172 24.5401 59.4589 24.0758C59.2004 23.6079 58.9972 23.094 58.8492 22.5341C58.7012 21.9743 58.6161 21.3756 58.5939 20.7379ZM60.82 20.6602C60.8437 21.3381 60.9493 21.9453 61.1368 22.4818C61.3278 23.0144 61.5894 23.4657 61.9215 23.8357C62.2571 24.2019 62.6575 24.4777 63.1226 24.6633C63.5877 24.8488 64.1061 24.9316 64.6777 24.9117C65.2494 24.8917 65.7589 24.773 66.2062 24.5556C66.6572 24.3381 67.0356 24.035 67.3412 23.6464C67.6467 23.2542 67.8743 22.7858 68.0241 22.2413C68.1774 21.6929 68.2422 21.0798 68.2185 20.4018C68.1948 19.7239 68.0875 19.1186 67.8964 18.586C67.7089 18.0495 67.4492 17.5982 67.1172 17.2318C66.7852 16.8655 66.3867 16.5896 65.9216 16.4041C65.4601 16.2184 64.9436 16.1355 64.372 16.1555C63.8003 16.1755 63.289 16.2942 62.838 16.5118C62.3869 16.7293 62.0068 17.0324 61.6975 17.4211C61.3919 17.8097 61.1624 18.2781 61.0091 18.8265C60.8594 19.371 60.7963 19.9823 60.82 20.6602ZM74.3611 26.2575L72.135 26.3353L71.7117 14.2152L73.9379 14.1374L74.0601 17.6388C74.1858 17.0364 74.3779 16.494 74.6362 16.0117C74.8945 15.5294 75.2103 15.1166 75.5835 14.7734C75.9568 14.4301 76.3822 14.1621 76.8598 13.9694C77.341 13.7764 77.8638 13.6701 78.4281 13.6504C79.117 13.6264 79.739 13.7349 80.2941 13.976C80.8492 14.2171 81.324 14.5766 81.7186 15.0544C82.1167 15.5285 82.427 16.1139 82.6494 16.8105C82.8754 17.5034 83.0038 18.2896 83.0345 19.169L83.2712 25.9464L81.045 26.0241L80.8084 19.2468C80.7659 18.0302 80.4756 17.1249 79.9375 16.531C79.3995 15.9371 78.6101 15.6583 77.5694 15.6946C77.0088 15.7142 76.5098 15.8197 76.0725 16.0111C75.6388 16.1987 75.2739 16.4646 74.9777 16.8088C74.6851 17.1492 74.4648 17.5641 74.3168 18.0536C74.1723 18.5393 74.1107 19.0881 74.1321 19.7L74.3611 26.2575ZM89.465 13.265C90.2895 13.2362 91.0257 13.3041 91.6735 13.4686C92.3249 13.6329 92.8766 13.8815 93.3285 14.2142C93.7839 14.5432 94.1357 14.951 94.3838 15.4377C94.6318 15.9206 94.7665 16.4681 94.7879 17.0801L92.6112 17.1561C92.6004 16.8446 92.5245 16.5647 92.3838 16.3165C92.2466 16.0645 92.0466 15.8532 91.7838 15.6826C91.5246 15.5082 91.2063 15.378 90.8291 15.2921C90.4519 15.2062 90.0196 15.1718 89.5322 15.1888C89.0925 15.2042 88.6926 15.2585 88.3327 15.3518C87.9764 15.445 87.6707 15.5712 87.4158 15.7305C87.1608 15.8862 86.9654 16.0709 86.8298 16.2848C86.6941 16.495 86.6306 16.7265 86.6394 16.9794C86.6461 17.1699 86.6923 17.3371 86.778 17.4808C86.8636 17.6209 86.9779 17.7417 87.1209 17.8431C87.2638 17.9445 87.4301 18.0304 87.6197 18.1009C87.8091 18.1676 88.0111 18.2248 88.2255 18.2723C88.4436 18.3197 88.6688 18.3596 88.9011 18.3918C89.1332 18.4204 89.3617 18.4491 89.5865 18.4779L90.4044 18.576C90.7434 18.6155 91.0991 18.6636 91.4716 18.7203C91.8477 18.7732 92.2173 18.8502 92.5804 18.9512C92.947 19.0485 93.2964 19.1776 93.6285 19.3384C93.9642 19.4954 94.2611 19.6979 94.5193 19.9457C94.7774 20.1935 94.986 20.4944 95.1451 20.8484C95.3041 21.1987 95.3922 21.6194 95.4093 22.1104C95.4302 22.7077 95.3315 23.2432 95.1132 23.7168C94.8948 24.1867 94.5622 24.589 94.1152 24.9238C93.6683 25.2586 93.1106 25.5202 92.4421 25.7087C91.7736 25.8971 90.9978 26.0068 90.1147 26.0376C89.1949 26.0697 88.3856 26.0081 87.6867 25.8527C86.9879 25.6974 86.4015 25.4537 85.9277 25.1217C85.4538 24.7897 85.0908 24.3749 84.8386 23.8774C84.5899 23.3761 84.4541 22.7957 84.431 22.1361L86.6022 22.0603C86.6265 22.7565 86.9201 23.2838 87.483 23.642C88.0457 23.9966 88.8987 24.1539 90.042 24.114C90.5587 24.0959 91.0172 24.0414 91.4176 23.9504C91.818 23.8593 92.1548 23.7338 92.4281 23.5739C92.7013 23.4139 92.9074 23.2214 93.0463 22.9964C93.1852 22.7715 93.2497 22.5179 93.2399 22.2357C93.2322 22.0159 93.1834 21.825 93.0933 21.663C93.0031 21.4974 92.8808 21.3567 92.7264 21.241C92.5718 21.1217 92.3903 21.0216 92.1821 20.9409C91.9773 20.8563 91.7547 20.7852 91.5142 20.7275C91.2737 20.6699 91.0225 20.6218 90.7607 20.5832C90.5024 20.5409 90.2406 20.5023 89.9752 20.4676L89.1624 20.3584C88.8528 20.3178 88.5246 20.2706 88.1778 20.2167C87.831 20.1591 87.4853 20.0849 87.1409 19.9942C86.8001 19.8997 86.4712 19.7791 86.1542 19.6324C85.8408 19.4819 85.5609 19.2936 85.3145 19.0674C85.0718 18.8411 84.8733 18.5673 84.719 18.2462C84.5683 17.9249 84.4853 17.5444 84.47 17.1047C84.4505 16.5477 84.5502 16.0397 84.769 15.5808C84.9914 15.1218 85.317 14.7252 85.7455 14.391C86.1778 14.0567 86.7061 13.7924 87.3303 13.5982C87.9583 13.4038 88.6698 13.2928 89.465 13.265Z" fill="white"/>
<rect x="77.3262" y="81" width="152" height="38" rx="19" transform="rotate(2 77.3262 81)" fill="#8E3ECD"/>
<path d="M91.6535 106.516L98.0619 90.9998L101.525 91.1207L106.758 107.043L104.307 106.957L103.01 102.966L95.6443 102.709L94.0501 106.599L91.6535 106.516ZM102.319 100.851L99.7051 92.8018L96.4868 100.647L102.319 100.851ZM116.992 95.2656L119.219 95.3433L118.795 107.463L116.569 107.386L116.691 103.884C116.524 104.477 116.295 105.004 116.003 105.467C115.712 105.93 115.368 106.32 114.972 106.636C114.576 106.953 114.133 107.191 113.643 107.35C113.153 107.509 112.626 107.578 112.061 107.558C111.369 107.534 110.754 107.383 110.217 107.103C109.68 106.82 109.23 106.429 108.866 105.928C108.506 105.424 108.237 104.818 108.06 104.111C107.886 103.404 107.815 102.611 107.846 101.732L108.082 94.9544L110.308 95.0322L110.072 101.81C110.029 103.022 110.256 103.946 110.751 104.579C111.246 105.209 112.014 105.543 113.055 105.579C113.616 105.599 114.119 105.53 114.565 105.373C115.014 105.213 115.397 104.973 115.713 104.654C116.032 104.331 116.281 103.932 116.459 103.458C116.64 102.98 116.742 102.435 116.763 101.823L116.992 95.2656ZM128.005 107.691C127.068 107.938 126.228 108.048 125.484 108.022C124.879 108.001 124.348 107.888 123.889 107.685C123.434 107.486 123.055 107.199 122.752 106.826C122.45 106.448 122.226 105.987 122.079 105.443C121.937 104.895 121.878 104.265 121.903 103.555L122.121 97.3158L120.472 97.2582L120.537 95.3894L122.186 95.447L122.284 92.6547L124.51 92.7324L124.413 95.5247L128.425 95.6648L128.36 97.5337L124.347 97.3936L124.129 103.638C124.101 104.44 124.231 105.039 124.518 105.434C124.809 105.826 125.278 106.033 125.927 106.056C126.18 106.065 126.481 106.046 126.831 105.999C127.185 105.953 127.599 105.876 128.072 105.768L128.005 107.691ZM129.015 101.75C129.037 101.112 129.122 100.514 129.27 99.9539C129.418 99.3941 129.621 98.882 129.88 98.4178C130.138 97.9535 130.448 97.5406 130.809 97.1789C131.17 96.8137 131.574 96.5085 132.019 96.2636C132.468 96.0188 132.956 95.8377 133.485 95.7204C134.014 95.5995 134.573 95.5493 135.163 95.5699C135.757 95.5907 136.312 95.6797 136.827 95.8371C137.346 95.991 137.819 96.2057 138.246 96.4811C138.677 96.7566 139.06 97.0892 139.395 97.4788C139.73 97.8647 140.01 98.2982 140.235 98.7794C140.461 99.2605 140.628 99.7855 140.736 100.354C140.845 100.923 140.888 101.526 140.866 102.164C140.843 102.802 140.758 103.4 140.61 103.96C140.462 104.52 140.259 105.034 140.001 105.502C139.742 105.966 139.433 106.379 139.071 106.741C138.71 107.102 138.305 107.407 137.856 107.656C137.411 107.901 136.924 108.082 136.395 108.199C135.87 108.32 135.311 108.37 134.717 108.35C134.127 108.329 133.573 108.24 133.053 108.082C132.534 107.929 132.059 107.714 131.628 107.438C131.202 107.159 130.821 106.827 130.486 106.441C130.151 106.055 129.87 105.621 129.645 105.14C129.42 104.655 129.253 104.129 129.144 103.56C129.036 102.991 128.993 102.388 129.015 101.75ZM131.241 101.828C131.217 102.506 131.28 103.119 131.43 103.667C131.583 104.212 131.813 104.68 132.118 105.072C132.428 105.461 132.808 105.764 133.259 105.982C133.71 106.199 134.221 106.318 134.793 106.338C135.364 106.358 135.881 106.275 136.342 106.089C136.808 105.904 137.206 105.628 137.538 105.262C137.87 104.892 138.13 104.44 138.317 103.908C138.508 103.371 138.616 102.764 138.64 102.086C138.663 101.408 138.598 100.797 138.445 100.252C138.295 99.7041 138.068 99.2357 137.762 98.8471C137.456 98.4585 137.078 98.1555 136.627 97.9379C136.18 97.7205 135.67 97.6018 135.099 97.5819C134.527 97.5619 134.009 97.6447 133.543 97.8303C133.078 98.0158 132.678 98.2917 132.342 98.6579C132.01 99.0242 131.749 99.4755 131.558 100.012C131.37 100.545 131.265 101.15 131.241 101.828ZM160.208 108.91L157.899 108.829L158.136 102.057L149.671 101.762L149.435 108.533L147.126 108.453L147.675 92.7323L149.983 92.813L149.746 99.6178L158.211 99.9134L158.448 93.1086L160.757 93.1892L160.208 108.91ZM173.401 105.347C173.22 106.02 172.953 106.62 172.601 107.147C172.249 107.674 171.826 108.116 171.333 108.473C170.844 108.83 170.291 109.097 169.676 109.273C169.061 109.45 168.398 109.526 167.687 109.501C167.093 109.48 166.535 109.391 166.012 109.233C165.493 109.076 165.016 108.859 164.582 108.584C164.152 108.304 163.767 107.972 163.428 107.586C163.093 107.196 162.811 106.761 162.582 106.279C162.357 105.795 162.19 105.268 162.082 104.699C161.973 104.126 161.93 103.521 161.952 102.884C161.975 102.246 162.06 101.649 162.208 101.093C162.355 100.537 162.557 100.027 162.811 99.5623C163.07 99.098 163.378 98.685 163.735 98.3232C164.093 97.9615 164.494 97.6582 164.939 97.4132C165.384 97.1683 165.869 96.9871 166.395 96.8697C166.92 96.7486 167.475 96.6983 168.062 96.7188C168.93 96.7491 169.709 96.9267 170.399 97.2516C171.088 97.5729 171.671 98.017 172.146 98.5839C172.622 99.1509 172.98 99.8293 173.22 100.619C173.46 101.409 173.563 102.288 173.53 103.255C173.525 103.394 173.516 103.532 173.504 103.667C173.496 103.802 173.481 103.952 173.461 104.117L164.194 103.793C164.24 104.349 164.355 104.852 164.537 105.302C164.723 105.749 164.97 106.132 165.278 106.451C165.59 106.77 165.959 107.019 166.386 107.199C166.813 107.375 167.288 107.473 167.812 107.491C168.618 107.519 169.299 107.349 169.855 106.979C170.411 106.606 170.851 106.036 171.175 105.27L173.401 105.347ZM171.263 102.114C171.209 101.584 171.097 101.114 170.927 100.704C170.758 100.291 170.536 99.9421 170.26 99.6573C169.983 99.3688 169.656 99.1464 169.276 98.99C168.9 98.8338 168.475 98.7474 168.003 98.7309C167.519 98.714 167.073 98.7737 166.664 98.9098C166.256 99.0423 165.893 99.2443 165.576 99.5157C165.262 99.7836 164.997 100.117 164.781 100.517C164.566 100.913 164.407 101.364 164.305 101.871L171.263 102.114ZM186.934 93.553L186.366 109.823L184.14 109.745L184.271 106.008C184.091 106.625 183.852 107.18 183.552 107.672C183.252 108.164 182.904 108.579 182.507 108.918C182.11 109.256 181.668 109.512 181.181 109.686C180.698 109.86 180.182 109.937 179.632 109.918C179.134 109.901 178.664 109.813 178.222 109.654C177.78 109.496 177.373 109.276 177.001 108.995C176.633 108.715 176.302 108.38 176.007 107.992C175.716 107.6 175.473 107.164 175.277 106.684C175.081 106.2 174.934 105.678 174.836 105.117C174.742 104.556 174.706 103.966 174.727 103.346C174.749 102.727 174.826 102.141 174.959 101.588C175.096 101.035 175.279 100.526 175.508 100.061C175.737 99.5954 176.01 99.1793 176.327 98.8125C176.649 98.4422 177.003 98.1298 177.389 97.8755C177.78 97.6213 178.201 97.4305 178.653 97.3032C179.105 97.1759 179.58 97.121 180.079 97.1384C180.628 97.1576 181.138 97.2708 181.608 97.478C182.081 97.6853 182.504 97.9716 182.877 98.3368C183.249 98.702 183.568 99.1405 183.832 99.6524C184.097 100.161 184.297 100.729 184.433 101.357L184.708 93.4752L186.934 93.553ZM184.352 103.683C184.376 102.99 184.312 102.368 184.158 101.816C184.009 101.26 183.78 100.786 183.471 100.394C183.161 100.001 182.78 99.6964 182.325 99.4787C181.87 99.261 181.352 99.142 180.769 99.1217C180.175 99.101 179.646 99.1797 179.181 99.3579C178.72 99.5326 178.329 99.8015 178.008 100.164C177.687 100.528 177.437 100.983 177.256 101.531C177.079 102.075 176.978 102.706 176.953 103.424C176.928 104.142 176.985 104.781 177.123 105.34C177.265 105.895 177.484 106.367 177.778 106.755C178.073 107.139 178.444 107.437 178.892 107.647C179.343 107.853 179.866 107.967 180.459 107.988C181.042 108.008 181.568 107.926 182.036 107.74C182.505 107.551 182.908 107.272 183.243 106.902C183.579 106.532 183.841 106.077 184.028 105.537C184.22 104.993 184.328 104.375 184.352 103.683ZM200.123 98.1686L199.777 108.09C199.753 108.757 199.667 109.383 199.519 109.969C199.37 110.554 199.166 111.09 198.907 111.576C198.651 112.063 198.342 112.496 197.981 112.876C197.619 113.259 197.213 113.581 196.764 113.84C196.318 114.1 195.831 114.292 195.302 114.417C194.776 114.545 194.219 114.599 193.629 114.578C193.123 114.561 192.641 114.491 192.183 114.368C191.725 114.25 191.3 114.086 190.907 113.878C190.518 113.67 190.165 113.423 189.849 113.137C189.536 112.854 189.27 112.54 189.05 112.195C188.831 111.85 188.666 111.477 188.556 111.077C188.445 110.681 188.397 110.268 188.412 109.839L190.638 109.917C190.629 110.163 190.658 110.399 190.723 110.625C190.792 110.851 190.891 111.063 191.02 111.262C191.153 111.465 191.311 111.649 191.496 111.813C191.685 111.981 191.895 112.124 192.125 112.242C192.356 112.364 192.604 112.461 192.869 112.532C193.138 112.604 193.419 112.645 193.712 112.655C194.269 112.675 194.777 112.579 195.236 112.367C195.698 112.156 196.096 111.847 196.429 111.44C196.763 111.034 197.026 110.54 197.218 109.96C197.415 109.38 197.526 108.731 197.551 108.012L197.617 106.099C197.439 106.688 197.199 107.217 196.896 107.687C196.597 108.157 196.246 108.556 195.842 108.883C195.442 109.206 194.995 109.451 194.501 109.617C194.011 109.78 193.485 109.852 192.925 109.832C192.437 109.815 191.976 109.731 191.541 109.58C191.106 109.425 190.705 109.215 190.336 108.949C189.971 108.68 189.643 108.358 189.352 107.985C189.064 107.608 188.822 107.19 188.625 106.732C188.428 106.27 188.281 105.772 188.182 105.236C188.087 104.697 188.05 104.131 188.071 103.537C188.091 102.944 188.168 102.383 188.3 101.856C188.436 101.325 188.618 100.838 188.846 100.394C189.075 99.9474 189.345 99.5478 189.659 99.1955C189.975 98.8433 190.325 98.5474 190.708 98.3076C191.094 98.0642 191.509 97.8824 191.954 97.7622C192.399 97.6383 192.865 97.5849 193.352 97.6019C193.913 97.6215 194.432 97.7313 194.909 97.9314C195.39 98.128 195.819 98.4035 196.195 98.7578C196.576 99.1087 196.898 99.529 197.164 100.019C197.433 100.509 197.636 101.054 197.773 101.653L197.897 98.0908L200.123 98.1686ZM197.695 103.873C197.718 103.225 197.652 102.641 197.498 102.122C197.343 101.599 197.11 101.154 196.796 100.788C196.486 100.417 196.098 100.13 195.632 99.9269C195.169 99.72 194.639 99.6061 194.042 99.5852C193.463 99.565 192.947 99.6369 192.494 99.8008C192.04 99.9647 191.654 100.217 191.333 100.558C191.017 100.899 190.771 101.326 190.595 101.837C190.42 102.348 190.32 102.941 190.297 103.615C190.273 104.289 190.331 104.887 190.471 105.41C190.614 105.932 190.831 106.374 191.123 106.737C191.415 107.099 191.781 107.38 192.222 107.579C192.666 107.774 193.176 107.882 193.752 107.902C194.349 107.922 194.885 107.846 195.361 107.672C195.841 107.498 196.248 107.239 196.583 106.894C196.921 106.547 197.186 106.119 197.376 105.612C197.566 105.102 197.673 104.522 197.695 103.873ZM212.844 106.725C212.663 107.397 212.396 107.997 212.044 108.524C211.692 109.051 211.269 109.493 210.776 109.85C210.286 110.207 209.734 110.474 209.119 110.651C208.504 110.827 207.841 110.903 207.13 110.878C206.536 110.858 205.978 110.768 205.455 110.611C204.936 110.453 204.459 110.237 204.025 109.961C203.594 109.682 203.21 109.349 202.871 108.963C202.536 108.573 202.254 108.138 202.025 107.657C201.8 107.172 201.633 106.645 201.524 106.076C201.416 105.504 201.373 104.899 201.395 104.261C201.417 103.624 201.502 103.027 201.65 102.47C201.798 101.914 201.999 101.404 202.254 100.94C202.512 100.475 202.82 100.062 203.178 99.7006C203.535 99.3389 203.937 99.0355 204.382 98.7906C204.827 98.5456 205.312 98.3645 205.837 98.247C206.362 98.126 206.918 98.0757 207.505 98.0961C208.373 98.1265 209.152 98.3041 209.841 98.629C210.531 98.9503 211.113 99.3944 211.589 99.9613C212.064 100.528 212.422 101.207 212.663 101.997C212.903 102.786 213.006 103.665 212.972 104.632C212.967 104.772 212.959 104.909 212.947 105.044C212.938 105.18 212.924 105.33 212.904 105.494L203.636 105.17C203.683 105.726 203.797 106.229 203.98 106.679C204.166 107.126 204.413 107.509 204.721 107.828C205.033 108.147 205.402 108.397 205.829 108.577C206.256 108.753 206.731 108.85 207.255 108.868C208.061 108.897 208.742 108.726 209.298 108.356C209.854 107.983 210.294 107.413 210.618 106.647L212.844 106.725ZM210.706 103.491C210.651 102.961 210.539 102.491 210.37 102.082C210.201 101.668 209.979 101.319 209.702 101.035C209.426 100.746 209.098 100.524 208.719 100.367C208.342 100.211 207.918 100.125 207.445 100.108C206.962 100.091 206.516 100.151 206.107 100.287C205.699 100.42 205.336 100.622 205.018 100.893C204.705 101.161 204.44 101.495 204.224 101.894C204.008 102.291 203.85 102.742 203.747 103.248L210.706 103.491Z" fill="white"/>
<rect x="10" y="34.5826" width="124" height="38" rx="19" transform="rotate(-2 10 34.5826)" fill="#212367"/>
<path opacity="0.85" d="M25.7322 58.0478L25.3657 47.5542L31.7818 47.3302L31.8326 48.7843L26.8556 48.9581L26.9645 52.0762L31.0121 51.9348L31.0628 53.389L27.0153 53.5303L27.1713 57.9976L25.7322 58.0478ZM33.7204 57.7689L33.4587 50.2734L34.8978 50.2232L35.1596 57.7186L33.7204 57.7689ZM35.0074 47.7729C35.0161 48.0227 34.9385 48.2356 34.7745 48.4114C34.6009 48.5976 34.3892 48.695 34.1393 48.7037C33.8895 48.7125 33.6765 48.6298 33.5003 48.4559C33.3145 48.2923 33.2172 48.0855 33.2085 47.8357C33.1997 47.5858 33.2822 47.3678 33.4558 47.1817C33.6198 47.0058 33.8267 46.9136 34.0765 46.9048C34.3264 46.8961 34.5442 46.9736 34.73 47.1372C34.9062 47.3111 34.9987 47.523 35.0074 47.7729ZM39.7688 55.1112L38.1902 57.6128L36.4063 57.6751L38.8388 53.8379L36.1445 50.1797L37.8985 50.1184L39.6633 52.5183L41.2564 50.0011L42.9953 49.9404L40.5928 53.7766L43.2571 57.4358L41.5032 57.4971L39.7688 55.1112ZM50.9547 54.0151L45.2882 54.213C45.3575 54.4807 45.451 54.7226 45.5687 54.9387C45.6963 55.1543 45.858 55.3438 46.0538 55.5071C46.4864 55.8622 46.9926 56.0296 47.5722 56.0094C48.4217 55.9797 49.0779 55.7167 49.5409 55.2202L50.5964 56.219C49.8634 57.005 48.8723 57.4199 47.623 57.4635C46.5437 57.5012 45.626 57.153 44.8699 56.4189C44.1135 55.6749 43.7162 54.7582 43.6782 53.6689C43.6398 52.5695 43.9621 51.6277 44.6452 50.8434C45.3382 50.0587 46.2194 49.6477 47.2888 49.6104C48.3381 49.5737 49.1957 49.919 49.8615 50.6462C50.5369 51.3631 50.8943 52.2862 50.9338 53.4155L50.9547 54.0151ZM47.3224 51.0051C46.7528 51.0249 46.2745 51.2268 45.8877 51.6105C45.5201 51.9735 45.3008 52.4265 45.2297 52.9693L49.3372 52.8258C49.2277 52.2693 49.0071 51.8268 48.6755 51.4981C48.3331 51.1499 47.8821 50.9855 47.3224 51.0051ZM55.5671 50.7622C54.8875 50.7859 54.3412 51.0451 53.9283 51.5398C53.5053 52.0349 53.306 52.6322 53.3304 53.3318C53.3549 54.0314 53.5953 54.6133 54.0518 55.0777C54.4983 55.5424 55.0613 55.7629 55.7409 55.7391C56.4105 55.7158 56.9418 55.4571 57.3348 54.963C57.5363 54.7159 57.682 54.4456 57.7718 54.1523C57.8712 53.8486 57.9149 53.5219 57.9026 53.1721C57.8901 52.8123 57.8238 52.4895 57.7037 52.2035C57.5937 51.9171 57.4295 51.6577 57.2113 51.4252C56.7848 50.9598 56.2367 50.7388 55.5671 50.7622ZM55.4269 49.3262C56.2764 49.2965 56.9706 49.5474 57.5095 50.079C57.5712 50.1268 57.6229 50.1751 57.6646 50.2236C57.7063 50.2722 57.753 50.3206 57.8048 50.3688L57.6671 46.4262L59.1212 46.3755L59.4876 56.8691L58.1385 56.9162L58.1029 55.8968C58.065 55.9582 58.0271 56.0195 57.9892 56.0809C57.951 56.1322 57.9026 56.179 57.844 56.221C57.3249 56.8295 56.6107 57.1496 55.7012 57.1814C54.6319 57.2187 53.7392 56.8697 53.023 56.1342C52.2966 55.3891 51.9144 54.4719 51.8763 53.3826C51.8379 52.2832 52.1553 51.3416 52.8283 50.5576C53.4914 49.774 54.3576 49.3635 55.4269 49.3262ZM66.5141 47.5732L66.6497 51.4558L68.8533 51.3789C69.383 51.3604 69.8359 51.1494 70.2121 50.7461C70.5786 50.353 70.7526 49.8917 70.7341 49.362C70.7159 48.8423 70.5102 48.3942 70.1168 48.0177C69.7138 47.6516 69.2474 47.4777 68.7177 47.4962L66.5141 47.5732ZM65.0242 46.1693L68.667 46.0421C69.6064 46.0093 70.4174 46.3112 71.1001 46.9478C71.7827 47.5843 72.1404 48.3723 72.1732 49.3117C72.206 50.2512 71.9041 51.0622 71.2676 51.7448C70.6314 52.4375 69.8435 52.8002 68.9041 52.833L66.7005 52.9099L66.8298 56.6127L65.3906 56.6629L65.0242 46.1693ZM73.451 48.8769L74.8452 48.8282L74.8829 49.9075C74.9115 49.8665 74.9451 49.8253 74.9836 49.7839C75.0219 49.7326 75.0603 49.6862 75.0988 49.6448C75.34 49.3863 75.6125 49.1666 75.9164 48.9859C76.3873 48.7193 76.9326 48.5752 77.5523 48.5536L77.603 50.0077C76.8935 50.0324 76.2967 50.2784 75.8127 50.7456C75.3191 51.2231 75.0598 51.8225 75.035 52.5438L75.1669 56.3215L73.7128 56.3723L73.451 48.8769ZM79.0737 56.1851L78.8119 48.6897L80.251 48.6394L80.5128 56.1349L79.0737 56.1851ZM80.3606 46.1891C80.3693 46.439 80.2917 46.6518 80.1277 46.8276C79.9541 47.0138 79.7424 47.1112 79.4925 47.12C79.2427 47.1287 79.0297 47.0461 78.8535 46.8721C78.6677 46.7085 78.5704 46.5018 78.5617 46.2519C78.553 46.0021 78.6354 45.7841 78.809 45.5979C78.973 45.4221 79.1799 45.3298 79.4297 45.3211C79.6796 45.3123 79.8974 45.3898 80.0832 45.5534C80.2594 45.7274 80.3519 45.9393 80.3606 46.1891ZM85.6589 48.2705C86.7183 48.2335 87.621 48.5822 88.3671 49.3166L87.3988 50.386C86.9323 49.922 86.3693 49.7015 85.7097 49.7246C85.0301 49.7483 84.4837 50.0025 84.0703 50.4873C83.6573 50.982 83.4631 51.5791 83.4875 52.2787C83.5116 52.9683 83.747 53.5504 84.1939 54.0251C84.64 54.4798 85.2029 54.6953 85.8824 54.6716C86.542 54.6485 87.0883 54.3893 87.5213 53.8939L88.5618 54.8932C87.8688 55.6779 86.9926 56.0887 85.9332 56.1257C84.8639 56.163 83.9562 55.8145 83.2101 55.0801C82.4736 54.3353 82.0864 53.4183 82.0484 52.3289C82.01 51.2296 82.3323 50.2878 83.0153 49.5035C83.7084 48.7188 84.5896 48.3078 85.6589 48.2705ZM96.6886 52.4181L91.022 52.6159C91.0914 52.8837 91.1849 53.1256 91.3025 53.3416C91.4301 53.5573 91.5918 53.7467 91.7876 53.91C92.2203 54.2651 92.7264 54.4326 93.3061 54.4123C94.1556 54.3827 94.8118 54.1196 95.2747 53.6231L96.3302 54.6219C95.5972 55.408 94.6061 55.8228 93.3569 55.8664C92.2775 55.9041 91.3598 55.5559 90.6037 54.8219C89.8473 54.0778 89.4501 53.1611 89.412 52.0718C89.3736 50.9725 89.696 50.0306 90.379 49.2463C91.0721 48.4617 91.9532 48.0507 93.0226 48.0133C94.072 47.9767 94.9295 48.322 95.5953 49.0492C96.2707 49.766 96.6282 50.6891 96.6676 51.8184L96.6886 52.4181ZM93.0563 49.408C92.4866 49.4279 92.0084 49.6297 91.6215 50.0134C91.254 50.3765 91.0347 50.8294 90.9636 51.3722L95.0711 51.2288C94.9616 50.6723 94.741 50.2297 94.4093 49.9011C94.067 49.5528 93.6159 49.3884 93.0563 49.408Z" fill="white"/>
<rect x="84.8376" y="113" width="155" height="38" rx="19" transform="rotate(2 84.8376 113)" fill="#3C1B68"/>
<path opacity="0.85" d="M99.5353 128.477L99.3997 132.36L101.603 132.437C102.133 132.455 102.6 132.277 103.003 131.9C103.396 131.534 103.602 131.086 103.62 130.556C103.638 130.036 103.464 129.575 103.098 129.172C102.722 128.779 102.269 128.573 101.739 128.554L99.5353 128.477ZM98.147 126.973L101.79 127.1C102.729 127.133 103.517 127.491 104.154 128.173C104.79 128.856 105.092 129.667 105.059 130.606C105.027 131.546 104.669 132.334 103.986 132.97C103.303 133.617 102.492 133.924 101.553 133.891L99.349 133.814L99.2197 137.517L97.7805 137.467L98.147 126.973ZM112.076 130.461L113.425 130.508L113.163 138.004L111.814 137.957L111.85 136.937C111.818 136.986 111.781 137.035 111.74 137.083C111.708 137.132 111.671 137.176 111.63 137.215C111.049 137.805 110.294 138.084 109.364 138.051C108.295 138.014 107.429 137.603 106.766 136.82C106.093 136.026 105.776 135.084 105.814 133.995C105.852 132.895 106.234 131.978 106.961 131.243C107.677 130.508 108.569 130.159 109.639 130.196C110.568 130.228 111.302 130.569 111.839 131.218C111.888 131.26 111.926 131.306 111.955 131.358C111.983 131.409 112.011 131.455 112.04 131.496L112.076 130.461ZM109.678 131.638C108.999 131.615 108.436 131.835 107.989 132.3C107.533 132.764 107.292 133.346 107.268 134.046C107.244 134.745 107.443 135.342 107.866 135.838C108.279 136.332 108.825 136.591 109.505 136.615C110.174 136.639 110.722 136.418 111.149 135.952C111.367 135.72 111.531 135.46 111.641 135.174C111.762 134.878 111.828 134.555 111.84 134.205C111.853 133.845 111.809 133.519 111.709 133.225C111.619 132.932 111.474 132.662 111.272 132.414C110.879 131.92 110.348 131.662 109.678 131.638ZM114.337 130.54L115.926 130.596L118.114 136.285L120.693 130.762L122.252 130.817L118.292 139.369C118.151 139.664 117.977 139.928 117.769 140.161C117.56 140.404 117.308 140.61 117.012 140.78C116.439 141.12 115.823 141.279 115.164 141.256L114.504 141.233L114.554 139.793L115.214 139.816C115.604 139.83 115.957 139.742 116.274 139.553C116.59 139.374 116.83 139.107 116.992 138.753L117.285 138.118L114.337 130.54ZM123.081 134.598L123.131 133.159L127.928 133.326L127.878 134.765L123.081 134.598ZM135.528 131.28L136.878 131.327L136.616 138.823L135.267 138.776L135.302 137.756C135.271 137.805 135.234 137.854 135.192 137.902C135.16 137.951 135.124 137.995 135.082 138.034C134.502 138.624 133.746 138.903 132.817 138.87C131.748 138.833 130.881 138.422 130.218 137.639C129.546 136.845 129.228 135.903 129.266 134.814C129.305 133.714 129.687 132.797 130.413 132.062C131.129 131.327 132.022 130.978 133.091 131.015C134.021 131.047 134.754 131.388 135.292 132.037C135.34 132.079 135.379 132.125 135.407 132.176C135.435 132.228 135.464 132.274 135.492 132.315L135.528 131.28ZM133.131 132.457C132.451 132.433 131.888 132.654 131.442 133.119C130.985 133.583 130.745 134.165 130.72 134.865C130.696 135.564 130.895 136.161 131.318 136.657C131.731 137.151 132.278 137.41 132.957 137.434C133.627 137.458 134.175 137.237 134.601 136.771C134.82 136.539 134.984 136.279 135.094 135.993C135.214 135.697 135.28 135.374 135.293 135.024C135.305 134.664 135.262 134.338 135.162 134.044C135.072 133.751 134.926 133.481 134.725 133.233C134.332 132.739 133.801 132.481 133.131 132.457ZM143.483 132.849L142.102 133.281C142.048 133.099 141.928 132.945 141.743 132.818C141.547 132.701 141.324 132.638 141.074 132.63C140.744 132.618 140.486 132.694 140.3 132.858C140.115 133.021 140.018 133.223 140.009 133.463C140.009 133.763 140.235 134.006 140.689 134.192C140.798 134.226 140.907 134.265 141.015 134.309C141.124 134.342 141.238 134.376 141.357 134.41C142.07 134.616 142.606 134.899 142.963 135.262C143.418 135.708 143.634 136.246 143.612 136.876C143.587 137.595 143.287 138.17 142.712 138.6C142.188 138.992 141.546 139.175 140.786 139.148C140.167 139.127 139.632 138.963 139.182 138.657C138.722 138.361 138.391 137.959 138.189 137.452L139.57 137.005C139.793 137.513 140.204 137.777 140.803 137.798C141.193 137.812 141.512 137.718 141.759 137.516C142.006 137.315 142.135 137.069 142.145 136.779C142.146 136.449 141.891 136.175 141.378 135.957C141.27 135.893 141.157 135.839 141.038 135.795C140.92 135.751 140.786 135.706 140.638 135.661C140.32 135.58 140.029 135.465 139.764 135.315C139.509 135.166 139.29 134.999 139.107 134.812C138.719 134.438 138.536 133.967 138.556 133.397C138.578 132.748 138.837 132.226 139.331 131.833C139.814 131.45 140.406 131.27 141.105 131.295C141.715 131.316 142.225 131.464 142.636 131.739C143.037 132.013 143.319 132.383 143.483 132.849ZM145.084 135.366L145.134 133.927L149.931 134.095L149.881 135.534L145.084 135.366ZM150.951 131.819L152.54 131.874L154.727 137.564L157.307 132.041L158.866 132.095L154.905 140.647C154.765 140.942 154.59 141.206 154.382 141.439C154.173 141.682 153.921 141.889 153.625 142.058C153.053 142.399 152.437 142.557 151.777 142.534L151.118 142.511L151.168 141.072L151.827 141.095C152.217 141.109 152.571 141.021 152.887 140.832C153.204 140.653 153.443 140.386 153.606 140.031L153.898 139.396L150.951 131.819ZM163.038 133.517C162.359 133.493 161.796 133.708 161.35 134.163C161.131 134.396 160.962 134.66 160.842 134.956C160.722 135.242 160.655 135.56 160.643 135.909C160.619 136.599 160.813 137.196 161.226 137.701C161.639 138.186 162.186 138.44 162.865 138.464C163.545 138.487 164.108 138.272 164.554 137.817C164.782 137.585 164.951 137.326 165.062 137.039C165.182 136.743 165.248 136.421 165.26 136.071C165.285 135.371 165.091 134.774 164.678 134.279C164.264 133.795 163.718 133.54 163.038 133.517ZM163.089 132.063C164.158 132.1 165.04 132.511 165.733 133.296C166.416 134.08 166.738 135.022 166.7 136.121C166.662 137.21 166.274 138.127 165.538 138.872C164.792 139.607 163.884 139.955 162.815 139.918C161.745 139.88 160.864 139.469 160.171 138.685C159.488 137.89 159.166 136.949 159.204 135.859C159.243 134.76 159.63 133.843 160.366 133.108C161.112 132.374 162.02 132.025 163.089 132.063ZM168.168 132.42L169.622 132.471L169.483 136.473C169.459 137.143 169.62 137.689 169.966 138.111C170.302 138.523 170.744 138.739 171.294 138.758C171.824 138.776 172.27 138.592 172.634 138.204C173.008 137.807 173.207 137.274 173.23 136.604L173.37 132.602L174.824 132.652L174.686 136.61C174.648 137.709 174.297 138.593 173.633 139.26C172.959 139.927 172.163 140.244 171.243 140.212C170.304 140.179 169.521 139.807 168.896 139.094C168.28 138.383 167.992 137.477 168.03 136.378L168.168 132.42ZM176.339 136.458L176.39 135.018L181.187 135.186L181.136 136.625L176.339 136.458ZM188.029 129.932C188.398 129.944 188.757 129.992 189.104 130.074C189.452 130.156 189.783 130.278 190.097 130.439C190.422 130.591 190.721 130.776 190.993 130.996C191.266 131.205 191.518 131.444 191.749 131.712L190.663 132.725C189.972 131.871 189.077 131.424 187.978 131.386C186.898 131.348 185.991 131.702 185.254 132.446C184.517 133.201 184.13 134.128 184.091 135.227C184.053 136.327 184.375 137.279 185.057 138.083C185.74 138.877 186.621 139.293 187.7 139.331C188.79 139.369 189.713 138.991 190.472 138.197C190.731 137.926 190.942 137.623 191.104 137.288C191.265 136.954 191.378 136.593 191.442 136.205L188.668 136.108L188.719 134.669L193.051 134.82L193.026 135.539C192.974 137.019 192.456 138.261 191.47 139.267C191.221 139.519 190.953 139.74 190.666 139.93C190.379 140.12 190.068 140.284 189.733 140.422C189.084 140.69 188.389 140.811 187.65 140.785C186.15 140.733 184.93 140.165 183.987 139.081C183.044 137.988 182.599 136.686 182.652 135.177C182.705 133.668 183.244 132.401 184.271 131.376C185.287 130.361 186.539 129.88 188.029 129.932ZM197.822 134.731C197.142 134.708 196.579 134.923 196.133 135.378C195.915 135.61 195.746 135.875 195.625 136.17C195.505 136.456 195.439 136.774 195.427 137.124C195.403 137.814 195.597 138.411 196.01 138.916C196.423 139.4 196.969 139.655 197.649 139.678C198.329 139.702 198.891 139.487 199.338 139.032C199.566 138.8 199.735 138.54 199.845 138.254C199.965 137.958 200.032 137.635 200.044 137.285C200.068 136.586 199.874 135.989 199.461 135.494C199.048 135.009 198.501 134.755 197.822 134.731ZM197.872 133.277C198.942 133.315 199.823 133.726 200.516 134.51C201.199 135.294 201.521 136.236 201.483 137.336C201.445 138.425 201.058 139.342 200.321 140.087C199.575 140.821 198.668 141.17 197.598 141.132C196.529 141.095 195.648 140.684 194.955 139.899C194.272 139.105 193.95 138.163 193.988 137.074C194.026 135.975 194.413 135.058 195.149 134.323C195.895 133.588 196.803 133.24 197.872 133.277Z" fill="white"/>
<rect x="49" y="234" width="143" height="22" fill="#212367"/>
<path d="M64.4123 187.415H59.0663V201H56.7563V187.415H51.4103V185.27H64.4123V187.415ZM75.7698 188.872L78.8553 199.476L81.8968 188.872H84.1518L80.5603 201H77.4253L74.4113 190.935L71.3918 201H68.2568L64.6653 188.872H66.9753L70.0168 199.476L73.1023 188.872H75.7698ZM84.5864 194.933C84.5864 194.295 84.6506 193.694 84.7789 193.129C84.9073 192.565 85.0924 192.046 85.3344 191.573C85.5764 191.1 85.8716 190.676 86.2199 190.302C86.5683 189.925 86.9606 189.606 87.3969 189.345C87.8369 189.085 88.3191 188.887 88.8434 188.752C89.3678 188.612 89.9251 188.542 90.5154 188.542C91.1094 188.542 91.6668 188.612 92.1874 188.752C92.7118 188.887 93.1921 189.085 93.6284 189.345C94.0684 189.606 94.4626 189.925 94.8109 190.302C95.1593 190.676 95.4544 191.1 95.6964 191.573C95.9384 192.046 96.1236 192.565 96.2519 193.129C96.3803 193.694 96.4444 194.295 96.4444 194.933C96.4444 195.571 96.3803 196.173 96.2519 196.737C96.1236 197.302 95.9384 197.823 95.6964 198.299C95.4544 198.772 95.1593 199.196 94.8109 199.57C94.4626 199.944 94.0684 200.263 93.6284 200.527C93.1921 200.787 92.7118 200.985 92.1874 201.121C91.6668 201.26 91.1094 201.33 90.5154 201.33C89.9251 201.33 89.3678 201.26 88.8434 201.121C88.3191 200.985 87.8369 200.787 87.3969 200.527C86.9606 200.263 86.5683 199.944 86.2199 199.57C85.8716 199.196 85.5764 198.772 85.3344 198.299C85.0924 197.823 84.9073 197.302 84.7789 196.737C84.6506 196.173 84.5864 195.571 84.5864 194.933ZM86.8139 194.933C86.8139 195.612 86.8983 196.222 87.0669 196.765C87.2393 197.304 87.4849 197.764 87.8039 198.145C88.1266 198.523 88.5171 198.813 88.9754 199.014C89.4338 199.216 89.9489 199.317 90.5209 199.317C91.0929 199.317 91.6063 199.216 92.0609 199.014C92.5193 198.813 92.9079 198.523 93.2269 198.145C93.5459 197.764 93.7898 197.304 93.9584 196.765C94.1308 196.222 94.2169 195.612 94.2169 194.933C94.2169 194.255 94.1308 193.646 93.9584 193.107C93.7898 192.565 93.5459 192.105 93.2269 191.727C92.9079 191.349 92.5193 191.06 92.0609 190.858C91.6063 190.656 91.0929 190.555 90.5209 190.555C89.9489 190.555 89.4338 190.656 88.9754 190.858C88.5171 191.06 88.1266 191.349 87.8039 191.727C87.4849 192.105 87.2393 192.565 87.0669 193.107C86.8983 193.646 86.8139 194.255 86.8139 194.933ZM110.318 200.906C109.39 201.185 108.554 201.325 107.81 201.325C107.205 201.325 106.67 201.231 106.204 201.044C105.742 200.861 105.353 200.587 105.038 200.224C104.723 199.858 104.482 199.405 104.317 198.866C104.156 198.323 104.075 197.696 104.075 196.985V190.742H102.425V188.872H104.075V186.078H106.303V188.872H110.318V190.742H106.303V196.99C106.303 197.793 106.453 198.387 106.754 198.772C107.058 199.154 107.535 199.344 108.184 199.344C108.437 199.344 108.738 199.315 109.086 199.256C109.438 199.198 109.849 199.106 110.318 198.981V200.906ZM123.433 188.872L118.412 201.765C118.159 202.41 117.864 202.967 117.526 203.437C117.193 203.906 116.808 204.293 116.371 204.597C115.939 204.905 115.453 205.132 114.914 205.279C114.378 205.426 113.783 205.499 113.126 205.499C112.947 205.499 112.772 205.494 112.604 205.483C112.435 205.472 112.272 205.457 112.114 205.439V203.492C112.309 203.517 112.488 203.536 112.653 203.547C112.822 203.558 112.983 203.563 113.137 203.563C113.871 203.563 114.468 203.42 114.93 203.134C115.392 202.848 115.739 202.392 115.97 201.765L116.124 201.358L111.311 188.872H113.621L117.378 198.97L121.178 188.872H123.433ZM126.835 192.607C126.993 191.984 127.213 191.423 127.495 190.924C127.777 190.422 128.111 189.994 128.496 189.642C128.881 189.29 129.312 189.019 129.789 188.828C130.269 188.638 130.784 188.542 131.334 188.542C131.833 188.542 132.306 188.614 132.753 188.757C133.2 188.9 133.613 189.105 133.991 189.373C134.372 189.641 134.715 189.965 135.019 190.346C135.327 190.724 135.587 191.149 135.8 191.622C136.013 192.095 136.176 192.611 136.29 193.168C136.407 193.725 136.466 194.314 136.466 194.933C136.466 195.553 136.407 196.142 136.29 196.699C136.176 197.256 136.013 197.773 135.8 198.25C135.587 198.723 135.327 199.15 135.019 199.531C134.715 199.909 134.372 200.232 133.991 200.499C133.613 200.767 133.2 200.972 132.753 201.116C132.306 201.259 131.833 201.33 131.334 201.33C130.784 201.33 130.269 201.235 129.789 201.044C129.312 200.853 128.881 200.582 128.496 200.23C128.111 199.878 127.777 199.451 127.495 198.948C127.213 198.446 126.993 197.883 126.835 197.26V205.153H124.608V188.872H126.835V192.607ZM126.835 194.933C126.835 195.626 126.919 196.248 127.088 196.798C127.26 197.344 127.508 197.808 127.831 198.189C128.153 198.571 128.546 198.864 129.008 199.069C129.47 199.271 129.992 199.372 130.575 199.372C131.169 199.372 131.693 199.277 132.148 199.086C132.606 198.892 132.99 198.607 133.298 198.233C133.606 197.856 133.838 197.392 133.996 196.842C134.157 196.288 134.238 195.652 134.238 194.933C134.238 194.215 134.157 193.58 133.996 193.03C133.838 192.477 133.606 192.013 133.298 191.639C132.99 191.265 132.606 190.983 132.148 190.792C131.693 190.598 131.169 190.5 130.575 190.5C129.992 190.5 129.47 190.601 129.008 190.803C128.546 191.005 128.153 191.296 127.831 191.677C127.508 192.059 127.26 192.524 127.088 193.074C126.919 193.621 126.835 194.24 126.835 194.933ZM149.202 196.979C149.045 197.658 148.799 198.266 148.465 198.805C148.132 199.344 147.725 199.801 147.244 200.175C146.768 200.549 146.225 200.835 145.616 201.033C145.008 201.231 144.348 201.33 143.636 201.33C143.042 201.33 142.481 201.26 141.953 201.121C141.429 200.982 140.945 200.782 140.501 200.521C140.061 200.257 139.665 199.938 139.313 199.564C138.965 199.187 138.668 198.761 138.422 198.288C138.18 197.812 137.995 197.291 137.867 196.726C137.739 196.158 137.674 195.555 137.674 194.917C137.674 194.279 137.739 193.679 137.867 193.118C137.995 192.557 138.179 192.04 138.417 191.567C138.659 191.094 138.952 190.671 139.297 190.297C139.642 189.923 140.032 189.606 140.468 189.345C140.905 189.085 141.383 188.887 141.904 188.752C142.425 188.612 142.978 188.542 143.565 188.542C144.434 188.542 145.219 188.693 145.919 188.993C146.619 189.29 147.217 189.714 147.712 190.264C148.207 190.814 148.588 191.479 148.856 192.26C149.124 193.041 149.257 193.916 149.257 194.884C149.257 195.023 149.254 195.161 149.246 195.296C149.243 195.432 149.234 195.582 149.219 195.747H139.946C140.012 196.301 140.144 196.8 140.342 197.243C140.544 197.683 140.804 198.057 141.123 198.365C141.446 198.673 141.823 198.91 142.256 199.075C142.689 199.236 143.167 199.317 143.691 199.317C144.498 199.317 145.173 199.123 145.715 198.734C146.258 198.342 146.678 197.757 146.975 196.979H149.202ZM146.953 193.822C146.88 193.294 146.751 192.829 146.568 192.425C146.385 192.018 146.15 191.677 145.864 191.402C145.578 191.124 145.242 190.913 144.857 190.77C144.476 190.627 144.049 190.555 143.576 190.555C143.092 190.555 142.648 190.631 142.245 190.781C141.842 190.928 141.486 191.142 141.178 191.424C140.874 191.703 140.621 192.046 140.419 192.453C140.217 192.856 140.074 193.313 139.99 193.822H146.953ZM155.661 188.542C156.486 188.542 157.219 188.636 157.861 188.823C158.506 189.01 159.049 189.278 159.489 189.626C159.932 189.971 160.27 190.39 160.501 190.885C160.732 191.377 160.847 191.929 160.847 192.541H158.669C158.669 192.229 158.603 191.947 158.471 191.694C158.343 191.437 158.15 191.219 157.894 191.039C157.641 190.856 157.327 190.715 156.953 190.616C156.579 190.517 156.148 190.467 155.661 190.467C155.221 190.467 154.819 190.508 154.456 190.588C154.097 190.669 153.787 190.785 153.527 190.935C153.266 191.082 153.065 191.259 152.922 191.468C152.779 191.674 152.707 191.903 152.707 192.156C152.707 192.347 152.747 192.515 152.828 192.662C152.909 192.805 153.019 192.93 153.158 193.036C153.297 193.142 153.461 193.234 153.648 193.311C153.835 193.384 154.034 193.448 154.247 193.503C154.463 193.558 154.687 193.606 154.918 193.646C155.149 193.683 155.376 193.72 155.6 193.756L156.414 193.883C156.751 193.934 157.105 193.995 157.476 194.064C157.85 194.13 158.216 194.22 158.576 194.334C158.939 194.444 159.283 194.585 159.61 194.757C159.94 194.926 160.229 195.139 160.479 195.395C160.728 195.652 160.926 195.96 161.073 196.319C161.219 196.675 161.293 197.099 161.293 197.59C161.293 198.188 161.175 198.719 160.941 199.185C160.706 199.647 160.359 200.037 159.901 200.356C159.443 200.675 158.876 200.917 158.202 201.083C157.527 201.248 156.748 201.33 155.864 201.33C154.944 201.33 154.137 201.24 153.444 201.061C152.751 200.881 152.174 200.617 151.712 200.268C151.25 199.92 150.901 199.493 150.667 198.987C150.436 198.477 150.32 197.892 150.32 197.232H152.493C152.493 197.929 152.768 198.466 153.318 198.844C153.868 199.218 154.715 199.405 155.859 199.405C156.376 199.405 156.836 199.366 157.239 199.289C157.642 199.212 157.983 199.099 158.262 198.948C158.541 198.798 158.753 198.613 158.9 198.393C159.047 198.173 159.12 197.922 159.12 197.639C159.12 197.419 159.078 197.227 158.994 197.062C158.909 196.893 158.792 196.748 158.642 196.627C158.491 196.503 158.313 196.396 158.108 196.308C157.906 196.217 157.686 196.138 157.448 196.072C157.21 196.006 156.96 195.949 156.7 195.901C156.443 195.85 156.183 195.802 155.919 195.758L155.111 195.621C154.803 195.57 154.476 195.511 154.132 195.445C153.787 195.375 153.444 195.289 153.103 195.186C152.766 195.08 152.441 194.948 152.13 194.79C151.822 194.629 151.548 194.431 151.31 194.196C151.075 193.962 150.887 193.681 150.744 193.355C150.604 193.029 150.535 192.645 150.535 192.205C150.535 191.648 150.652 191.144 150.887 190.693C151.125 190.242 151.464 189.857 151.904 189.538C152.348 189.219 152.885 188.973 153.516 188.801C154.15 188.629 154.865 188.542 155.661 188.542ZM167.344 194.933C167.344 194.295 167.408 193.694 167.537 193.129C167.665 192.565 167.85 192.046 168.092 191.573C168.334 191.1 168.629 190.676 168.978 190.302C169.326 189.925 169.718 189.606 170.155 189.345C170.595 189.085 171.077 188.887 171.601 188.752C172.126 188.612 172.683 188.542 173.273 188.542C173.867 188.542 174.425 188.612 174.945 188.752C175.47 188.887 175.95 189.085 176.386 189.345C176.826 189.606 177.22 189.925 177.569 190.302C177.917 190.676 178.212 191.1 178.454 191.573C178.696 192.046 178.881 192.565 179.01 193.129C179.138 193.694 179.202 194.295 179.202 194.933C179.202 195.571 179.138 196.173 179.01 196.737C178.881 197.302 178.696 197.823 178.454 198.299C178.212 198.772 177.917 199.196 177.569 199.57C177.22 199.944 176.826 200.263 176.386 200.527C175.95 200.787 175.47 200.985 174.945 201.121C174.425 201.26 173.867 201.33 173.273 201.33C172.683 201.33 172.126 201.26 171.601 201.121C171.077 200.985 170.595 200.787 170.155 200.527C169.718 200.263 169.326 199.944 168.978 199.57C168.629 199.196 168.334 198.772 168.092 198.299C167.85 197.823 167.665 197.302 167.537 196.737C167.408 196.173 167.344 195.571 167.344 194.933ZM169.572 194.933C169.572 195.612 169.656 196.222 169.825 196.765C169.997 197.304 170.243 197.764 170.562 198.145C170.884 198.523 171.275 198.813 171.733 199.014C172.192 199.216 172.707 199.317 173.279 199.317C173.851 199.317 174.364 199.216 174.819 199.014C175.277 198.813 175.666 198.523 175.985 198.145C176.304 197.764 176.548 197.304 176.716 196.765C176.889 196.222 176.975 195.612 176.975 194.933C176.975 194.255 176.889 193.646 176.716 193.107C176.548 192.565 176.304 192.105 175.985 191.727C175.666 191.349 175.277 191.06 174.819 190.858C174.364 190.656 173.851 190.555 173.279 190.555C172.707 190.555 172.192 190.656 171.733 190.858C171.275 191.06 170.884 191.349 170.562 191.727C170.243 192.105 169.997 192.565 169.825 193.107C169.656 193.646 169.572 194.255 169.572 194.933ZM181.805 190.742H179.962V188.872H181.805V188.597C181.805 187.849 181.898 187.189 182.085 186.617C182.272 186.045 182.547 185.567 182.91 185.182C183.277 184.793 183.73 184.5 184.269 184.302C184.808 184.104 185.431 184.005 186.139 184.005C186.748 184.005 187.4 184.076 188.097 184.219V186.144C187.455 186.012 186.907 185.946 186.452 185.946C185.602 185.946 184.967 186.166 184.549 186.606C184.131 187.046 183.922 187.71 183.922 188.597V188.872H188.102V190.742H184.032V201H181.805V190.742ZM41.4346 218.607C41.5923 217.984 41.8123 217.423 42.0946 216.924C42.377 216.422 42.7106 215.994 43.0956 215.642C43.4806 215.29 43.9115 215.019 44.3881 214.828C44.8685 214.638 45.3836 214.542 45.9336 214.542C46.4323 214.542 46.9053 214.614 47.3526 214.757C47.8 214.9 48.2125 215.105 48.5901 215.373C48.9715 215.641 49.3143 215.965 49.6186 216.346C49.9266 216.724 50.187 217.149 50.3996 217.622C50.6123 218.095 50.7755 218.611 50.8891 219.168C51.0065 219.725 51.0651 220.314 51.0651 220.933C51.0651 221.553 51.0065 222.142 50.8891 222.699C50.7755 223.256 50.6123 223.773 50.3996 224.25C50.187 224.723 49.9266 225.15 49.6186 225.531C49.3143 225.909 48.9715 226.232 48.5901 226.499C48.2125 226.767 47.8 226.972 47.3526 227.116C46.9053 227.259 46.4323 227.33 45.9336 227.33C45.3836 227.33 44.8685 227.235 44.3881 227.044C43.9115 226.853 43.4806 226.582 43.0956 226.23C42.7106 225.878 42.377 225.451 42.0946 224.948C41.8123 224.446 41.5923 223.883 41.4346 223.26V231.153H39.2071V214.872H41.4346V218.607ZM41.4346 220.933C41.4346 221.626 41.519 222.248 41.6876 222.798C41.86 223.344 42.1075 223.808 42.4301 224.189C42.7528 224.571 43.1451 224.864 43.6071 225.069C44.0691 225.271 44.5916 225.372 45.1746 225.372C45.7686 225.372 46.293 225.277 46.7476 225.086C47.206 224.892 47.5891 224.607 47.8971 224.233C48.2051 223.856 48.438 223.392 48.5956 222.842C48.757 222.288 48.8376 221.652 48.8376 220.933C48.8376 220.215 48.757 219.58 48.5956 219.03C48.438 218.477 48.2051 218.013 47.8971 217.639C47.5891 217.265 47.206 216.983 46.7476 216.792C46.293 216.598 45.7686 216.5 45.1746 216.5C44.5916 216.5 44.0691 216.601 43.6071 216.803C43.1451 217.005 42.7528 217.296 42.4301 217.677C42.1075 218.059 41.86 218.524 41.6876 219.074C41.519 219.621 41.4346 220.24 41.4346 220.933ZM54.7764 227H52.5489V214.872H54.7764V218.744C54.9194 218.139 55.1229 217.599 55.3869 217.122C55.6546 216.642 55.9846 216.235 56.3769 215.901C56.7693 215.567 57.2221 215.312 57.7354 215.136C58.2524 214.96 58.8318 214.872 59.4734 214.872H60.0289V216.995H59.4789C58.5916 216.995 57.8473 217.078 57.2459 217.243C56.6446 217.404 56.1606 217.65 55.7939 217.98C55.4309 218.31 55.1706 218.726 55.0129 219.228C54.8553 219.727 54.7764 220.314 54.7764 220.988V227ZM60.7173 220.933C60.7173 220.295 60.7815 219.694 60.9098 219.129C61.0381 218.565 61.2233 218.046 61.4653 217.573C61.7073 217.1 62.0025 216.676 62.3508 216.302C62.6991 215.925 63.0915 215.606 63.5278 215.345C63.9678 215.085 64.45 214.887 64.9743 214.752C65.4986 214.612 66.056 214.542 66.6463 214.542C67.2403 214.542 67.7976 214.612 68.3183 214.752C68.8426 214.887 69.323 215.085 69.7593 215.345C70.1993 215.606 70.5935 215.925 70.9418 216.302C71.2901 216.676 71.5853 217.1 71.8273 217.573C72.0693 218.046 72.2545 218.565 72.3828 219.129C72.5111 219.694 72.5753 220.295 72.5753 220.933C72.5753 221.571 72.5111 222.173 72.3828 222.737C72.2545 223.302 72.0693 223.823 71.8273 224.299C71.5853 224.772 71.2901 225.196 70.9418 225.57C70.5935 225.944 70.1993 226.263 69.7593 226.527C69.323 226.787 68.8426 226.985 68.3183 227.121C67.7976 227.26 67.2403 227.33 66.6463 227.33C66.056 227.33 65.4986 227.26 64.9743 227.121C64.45 226.985 63.9678 226.787 63.5278 226.527C63.0915 226.263 62.6991 225.944 62.3508 225.57C62.0025 225.196 61.7073 224.772 61.4653 224.299C61.2233 223.823 61.0381 223.302 60.9098 222.737C60.7815 222.173 60.7173 221.571 60.7173 220.933ZM62.9448 220.933C62.9448 221.612 63.0291 222.222 63.1978 222.765C63.3701 223.304 63.6158 223.764 63.9348 224.145C64.2575 224.523 64.648 224.813 65.1063 225.014C65.5646 225.216 66.0798 225.317 66.6518 225.317C67.2238 225.317 67.7371 225.216 68.1918 225.014C68.6501 224.813 69.0388 224.523 69.3578 224.145C69.6768 223.764 69.9206 223.304 70.0893 222.765C70.2616 222.222 70.3478 221.612 70.3478 220.933C70.3478 220.255 70.2616 219.646 70.0893 219.107C69.9206 218.565 69.6768 218.105 69.3578 217.727C69.0388 217.349 68.6501 217.06 68.1918 216.858C67.7371 216.656 67.2238 216.555 66.6518 216.555C66.0798 216.555 65.5646 216.656 65.1063 216.858C64.648 217.06 64.2575 217.349 63.9348 217.727C63.6158 218.105 63.3701 218.565 63.1978 219.107C63.0291 219.646 62.9448 220.255 62.9448 220.933ZM81.3354 226.906C80.4078 227.185 79.5718 227.325 78.8274 227.325C78.2224 227.325 77.6871 227.231 77.2214 227.044C76.7594 226.861 76.3708 226.587 76.0554 226.224C75.7401 225.858 75.4999 225.405 75.3349 224.866C75.1736 224.323 75.0929 223.696 75.0929 222.985V216.742H73.4429V214.872H75.0929V212.078H77.3204V214.872H81.3354V216.742H77.3204V222.99C77.3204 223.793 77.4708 224.387 77.7714 224.772C78.0758 225.154 78.5524 225.344 79.2014 225.344C79.4544 225.344 79.7551 225.315 80.1034 225.256C80.4554 225.198 80.8661 225.106 81.3354 224.981V226.906ZM93.6652 222.979C93.5076 223.658 93.2619 224.266 92.9282 224.805C92.5946 225.344 92.1876 225.801 91.7072 226.175C91.2306 226.549 90.6879 226.835 90.0792 227.033C89.4706 227.231 88.8106 227.33 88.0992 227.33C87.5052 227.33 86.9442 227.26 86.4162 227.121C85.8919 226.982 85.4079 226.782 84.9642 226.521C84.5242 226.257 84.1282 225.938 83.7762 225.564C83.4279 225.187 83.1309 224.761 82.8852 224.288C82.6432 223.812 82.4581 223.291 82.3297 222.726C82.2014 222.158 82.1372 221.555 82.1372 220.917C82.1372 220.279 82.2014 219.679 82.3297 219.118C82.4581 218.557 82.6414 218.04 82.8797 217.567C83.1217 217.094 83.4151 216.671 83.7597 216.297C84.1044 215.923 84.4949 215.606 84.9312 215.345C85.3676 215.085 85.8461 214.887 86.3667 214.752C86.8874 214.612 87.4411 214.542 88.0277 214.542C88.8967 214.542 89.6814 214.693 90.3817 214.993C91.0821 215.29 91.6797 215.714 92.1747 216.264C92.6697 216.814 93.0511 217.479 93.3187 218.26C93.5864 219.041 93.7202 219.916 93.7202 220.884C93.7202 221.023 93.7166 221.161 93.7092 221.296C93.7056 221.432 93.6964 221.582 93.6817 221.747H84.4087C84.4747 222.301 84.6067 222.8 84.8047 223.243C85.0064 223.683 85.2667 224.057 85.5857 224.365C85.9084 224.673 86.2861 224.91 86.7187 225.075C87.1514 225.236 87.6299 225.317 88.1542 225.317C88.9609 225.317 89.6356 225.123 90.1782 224.734C90.7209 224.342 91.1407 223.757 91.4377 222.979H93.6652ZM91.4157 219.822C91.3424 219.294 91.2141 218.829 91.0307 218.425C90.8474 218.018 90.6127 217.677 90.3267 217.402C90.0407 217.124 89.7052 216.913 89.3202 216.77C88.9389 216.627 88.5117 216.555 88.0387 216.555C87.5547 216.555 87.1111 216.631 86.7077 216.781C86.3044 216.928 85.9487 217.142 85.6407 217.424C85.3364 217.703 85.0834 218.046 84.8817 218.453C84.6801 218.856 84.5371 219.313 84.4527 219.822H91.4157ZM97.1479 220.933C97.1479 221.612 97.2323 222.222 97.4009 222.765C97.5733 223.304 97.8189 223.764 98.1379 224.145C98.4606 224.523 98.8511 224.813 99.3094 225.014C99.7678 225.216 100.283 225.317 100.855 225.317C101.357 225.317 101.801 225.242 102.186 225.091C102.571 224.941 102.903 224.736 103.181 224.475C103.46 224.211 103.686 223.905 103.858 223.557C104.03 223.205 104.153 222.829 104.226 222.429H106.454C106.395 222.888 106.291 223.328 106.14 223.749C105.99 224.171 105.798 224.563 105.563 224.926C105.328 225.289 105.051 225.619 104.732 225.916C104.417 226.21 104.061 226.463 103.665 226.675C103.269 226.884 102.837 227.046 102.367 227.16C101.898 227.273 101.392 227.33 100.849 227.33C100.259 227.33 99.7018 227.26 99.1774 227.121C98.6531 226.985 98.1709 226.787 97.7309 226.527C97.2946 226.263 96.9023 225.944 96.5539 225.57C96.2056 225.196 95.9104 224.772 95.6684 224.299C95.4264 223.823 95.2413 223.302 95.1129 222.737C94.9846 222.173 94.9204 221.571 94.9204 220.933C94.9204 220.295 94.9846 219.694 95.1129 219.129C95.2413 218.565 95.4264 218.046 95.6684 217.573C95.9104 217.1 96.2056 216.676 96.5539 216.302C96.9023 215.925 97.2946 215.606 97.7309 215.345C98.1709 215.085 98.6531 214.887 99.1774 214.752C99.7018 214.612 100.259 214.542 100.849 214.542C101.392 214.542 101.898 214.599 102.367 214.713C102.84 214.827 103.275 214.99 103.671 215.202C104.067 215.411 104.423 215.664 104.738 215.961C105.057 216.255 105.332 216.583 105.563 216.946C105.798 217.309 105.99 217.701 106.14 218.123C106.291 218.545 106.395 218.985 106.454 219.443H104.226C104.153 219.043 104.03 218.669 103.858 218.321C103.689 217.969 103.466 217.663 103.187 217.402C102.908 217.138 102.575 216.931 102.186 216.781C101.801 216.631 101.357 216.555 100.855 216.555C100.283 216.555 99.7678 216.656 99.3094 216.858C98.8511 217.06 98.4606 217.349 98.1379 217.727C97.8189 218.105 97.5733 218.565 97.4009 219.107C97.2323 219.646 97.1479 220.255 97.1479 220.933ZM115.216 226.906C114.289 227.185 113.453 227.325 112.708 227.325C112.103 227.325 111.568 227.231 111.102 227.044C110.64 226.861 110.252 226.587 109.936 226.224C109.621 225.858 109.381 225.405 109.216 224.866C109.054 224.323 108.974 223.696 108.974 222.985V216.742H107.324V214.872H108.974V212.078H111.201V214.872H115.216V216.742H111.201V222.99C111.201 223.793 111.352 224.387 111.652 224.772C111.957 225.154 112.433 225.344 113.082 225.344C113.335 225.344 113.636 225.315 113.984 225.256C114.336 225.198 114.747 225.106 115.216 224.981V226.906ZM119.07 213.47H116.732V210.72H119.07V213.47ZM119.015 227H116.787V214.872H119.015V227ZM120.508 220.933C120.508 220.295 120.572 219.694 120.701 219.129C120.829 218.565 121.014 218.046 121.256 217.573C121.498 217.1 121.793 216.676 122.142 216.302C122.49 215.925 122.882 215.606 123.319 215.345C123.759 215.085 124.241 214.887 124.765 214.752C125.29 214.612 125.847 214.542 126.437 214.542C127.031 214.542 127.589 214.612 128.109 214.752C128.634 214.887 129.114 215.085 129.55 215.345C129.99 215.606 130.384 215.925 130.733 216.302C131.081 216.676 131.376 217.1 131.618 217.573C131.86 218.046 132.045 218.565 132.174 219.129C132.302 219.694 132.366 220.295 132.366 220.933C132.366 221.571 132.302 222.173 132.174 222.737C132.045 223.302 131.86 223.823 131.618 224.299C131.376 224.772 131.081 225.196 130.733 225.57C130.384 225.944 129.99 226.263 129.55 226.527C129.114 226.787 128.634 226.985 128.109 227.121C127.589 227.26 127.031 227.33 126.437 227.33C125.847 227.33 125.29 227.26 124.765 227.121C124.241 226.985 123.759 226.787 123.319 226.527C122.882 226.263 122.49 225.944 122.142 225.57C121.793 225.196 121.498 224.772 121.256 224.299C121.014 223.823 120.829 223.302 120.701 222.737C120.572 222.173 120.508 221.571 120.508 220.933ZM122.736 220.933C122.736 221.612 122.82 222.222 122.989 222.765C123.161 223.304 123.407 223.764 123.726 224.145C124.048 224.523 124.439 224.813 124.897 225.014C125.356 225.216 125.871 225.317 126.443 225.317C127.015 225.317 127.528 225.216 127.983 225.014C128.441 224.813 128.83 224.523 129.149 224.145C129.468 223.764 129.712 223.304 129.88 222.765C130.053 222.222 130.139 221.612 130.139 220.933C130.139 220.255 130.053 219.646 129.88 219.107C129.712 218.565 129.468 218.105 129.149 217.727C128.83 217.349 128.441 217.06 127.983 216.858C127.528 216.656 127.015 216.555 126.443 216.555C125.871 216.555 125.356 216.656 124.897 216.858C124.439 217.06 124.048 217.349 123.726 217.727C123.407 218.105 123.161 218.565 122.989 219.107C122.82 219.646 122.736 220.255 122.736 220.933ZM136.073 227H133.846V214.872H136.073V218.376C136.22 217.778 136.431 217.243 136.706 216.77C136.981 216.297 137.311 215.895 137.696 215.566C138.081 215.235 138.515 214.982 138.999 214.806C139.487 214.63 140.013 214.542 140.578 214.542C141.267 214.542 141.885 214.673 142.431 214.933C142.978 215.193 143.44 215.569 143.817 216.06C144.199 216.548 144.488 217.144 144.686 217.848C144.888 218.548 144.989 219.338 144.989 220.218V227H142.761V220.218C142.761 219.001 142.503 218.086 141.986 217.474C141.469 216.862 140.69 216.555 139.648 216.555C139.087 216.555 138.585 216.643 138.141 216.819C137.701 216.992 137.327 217.245 137.019 217.578C136.715 217.908 136.48 218.315 136.315 218.799C136.154 219.28 136.073 219.826 136.073 220.438V227ZM153.037 216.742H151.195V214.872H153.037V214.597C153.037 213.849 153.131 213.189 153.318 212.617C153.505 212.045 153.78 211.567 154.143 211.182C154.51 210.793 154.962 210.5 155.501 210.302C156.04 210.104 156.664 210.005 157.371 210.005C157.98 210.005 158.633 210.076 159.329 210.219V212.144C158.688 212.012 158.14 211.946 157.685 211.946C156.834 211.946 156.2 212.166 155.782 212.606C155.364 213.046 155.155 213.71 155.155 214.597V214.872H159.335V216.742H155.265V227H153.037V216.742ZM162.95 227H160.723V214.872H162.95V218.744C163.093 218.139 163.297 217.599 163.561 217.122C163.828 216.642 164.158 216.235 164.551 215.901C164.943 215.567 165.396 215.312 165.909 215.136C166.426 214.96 167.006 214.872 167.647 214.872H168.203V216.995H167.653C166.765 216.995 166.021 217.078 165.42 217.243C164.818 217.404 164.334 217.65 163.968 217.98C163.605 218.31 163.344 218.726 163.187 219.228C163.029 219.727 162.95 220.314 162.95 220.988V227ZM168.891 220.933C168.891 220.295 168.955 219.694 169.084 219.129C169.212 218.565 169.397 218.046 169.639 217.573C169.881 217.1 170.176 216.676 170.525 216.302C170.873 215.925 171.265 215.606 171.702 215.345C172.142 215.085 172.624 214.887 173.148 214.752C173.672 214.612 174.23 214.542 174.82 214.542C175.414 214.542 175.971 214.612 176.492 214.752C177.016 214.887 177.497 215.085 177.933 215.345C178.373 215.606 178.767 215.925 179.116 216.302C179.464 216.676 179.759 217.1 180.001 217.573C180.243 218.046 180.428 218.565 180.557 219.129C180.685 219.694 180.749 220.295 180.749 220.933C180.749 221.571 180.685 222.173 180.557 222.737C180.428 223.302 180.243 223.823 180.001 224.299C179.759 224.772 179.464 225.196 179.116 225.57C178.767 225.944 178.373 226.263 177.933 226.527C177.497 226.787 177.016 226.985 176.492 227.121C175.971 227.26 175.414 227.33 174.82 227.33C174.23 227.33 173.672 227.26 173.148 227.121C172.624 226.985 172.142 226.787 171.702 226.527C171.265 226.263 170.873 225.944 170.525 225.57C170.176 225.196 169.881 224.772 169.639 224.299C169.397 223.823 169.212 223.302 169.084 222.737C168.955 222.173 168.891 221.571 168.891 220.933ZM171.119 220.933C171.119 221.612 171.203 222.222 171.372 222.765C171.544 223.304 171.79 223.764 172.109 224.145C172.431 224.523 172.822 224.813 173.28 225.014C173.738 225.216 174.254 225.317 174.826 225.317C175.398 225.317 175.911 225.216 176.366 225.014C176.824 224.813 177.213 224.523 177.532 224.145C177.851 223.764 178.094 223.304 178.263 222.765C178.435 222.222 178.522 221.612 178.522 220.933C178.522 220.255 178.435 219.646 178.263 219.107C178.094 218.565 177.851 218.105 177.532 217.727C177.213 217.349 176.824 217.06 176.366 216.858C175.911 216.656 175.398 216.555 174.826 216.555C174.254 216.555 173.738 216.656 173.28 216.858C172.822 217.06 172.431 217.349 172.109 217.727C171.79 218.105 171.544 218.565 171.372 219.107C171.203 219.646 171.119 220.255 171.119 220.933ZM184.456 227H182.229V214.872H184.456V218.249C184.599 217.67 184.797 217.151 185.05 216.693C185.307 216.235 185.611 215.846 185.963 215.527C186.315 215.208 186.711 214.964 187.151 214.795C187.591 214.627 188.068 214.542 188.581 214.542C189.124 214.542 189.617 214.638 190.061 214.828C190.508 215.015 190.9 215.289 191.238 215.648C191.579 216.007 191.859 216.447 192.079 216.968C192.303 217.485 192.462 218.072 192.558 218.728C192.675 218.079 192.858 217.496 193.108 216.979C193.357 216.462 193.661 216.024 194.021 215.664C194.384 215.301 194.798 215.025 195.264 214.834C195.729 214.64 196.235 214.542 196.782 214.542C197.42 214.542 197.99 214.673 198.492 214.933C198.998 215.193 199.425 215.569 199.774 216.06C200.126 216.548 200.393 217.144 200.577 217.848C200.764 218.548 200.857 219.338 200.857 220.218V227H198.63V220.218C198.63 219.001 198.399 218.086 197.937 217.474C197.478 216.862 196.783 216.555 195.852 216.555C195.353 216.555 194.906 216.643 194.51 216.819C194.114 216.992 193.779 217.245 193.504 217.578C193.229 217.908 193.018 218.315 192.871 218.799C192.728 219.28 192.657 219.826 192.657 220.438V227H190.429V220.218C190.429 219.001 190.198 218.086 189.736 217.474C189.278 216.862 188.583 216.555 187.652 216.555C187.153 216.555 186.706 216.643 186.31 216.819C185.914 216.992 185.578 217.245 185.303 217.578C185.028 217.908 184.817 218.315 184.671 218.799C184.528 219.28 184.456 219.826 184.456 220.438V227ZM62.8499 250.855H65.6329V253H57.7569V250.855H60.5399V241.659H57.1079V239.679H58.5214C58.9431 239.679 59.2969 239.637 59.5829 239.552C59.8689 239.464 60.0981 239.316 60.2704 239.107C60.4464 238.898 60.5711 238.617 60.6444 238.265C60.7214 237.91 60.7599 237.466 60.7599 236.934H62.8499V250.855ZM79.8315 252.906C78.9039 253.185 78.0679 253.325 77.3235 253.325C76.7185 253.325 76.1832 253.231 75.7175 253.044C75.2555 252.861 74.8669 252.587 74.5515 252.224C74.2362 251.858 73.996 251.405 73.831 250.866C73.6697 250.323 73.589 249.696 73.589 248.985V242.742H71.939V240.872H73.589V238.078H75.8165V240.872H79.8315V242.742H75.8165V248.99C75.8165 249.793 75.9669 250.387 76.2675 250.772C76.5719 251.154 77.0485 251.344 77.6975 251.344C77.9505 251.344 78.2512 251.315 78.5995 251.256C78.9515 251.198 79.3622 251.106 79.8315 250.981V252.906ZM80.6333 246.933C80.6333 246.295 80.6975 245.694 80.8258 245.129C80.9542 244.565 81.1393 244.046 81.3813 243.573C81.6233 243.1 81.9185 242.676 82.2668 242.302C82.6152 241.925 83.0075 241.606 83.4438 241.345C83.8838 241.085 84.366 240.887 84.8903 240.752C85.4147 240.612 85.972 240.542 86.5623 240.542C87.1563 240.542 87.7137 240.612 88.2343 240.752C88.7587 240.887 89.239 241.085 89.6753 241.345C90.1153 241.606 90.5095 241.925 90.8578 242.302C91.2062 242.676 91.5013 243.1 91.7433 243.573C91.9853 244.046 92.1705 244.565 92.2988 245.129C92.4272 245.694 92.4913 246.295 92.4913 246.933C92.4913 247.571 92.4272 248.173 92.2988 248.737C92.1705 249.302 91.9853 249.823 91.7433 250.299C91.5013 250.772 91.2062 251.196 90.8578 251.57C90.5095 251.944 90.1153 252.263 89.6753 252.527C89.239 252.787 88.7587 252.985 88.2343 253.121C87.7137 253.26 87.1563 253.33 86.5623 253.33C85.972 253.33 85.4147 253.26 84.8903 253.121C84.366 252.985 83.8838 252.787 83.4438 252.527C83.0075 252.263 82.6152 251.944 82.2668 251.57C81.9185 251.196 81.6233 250.772 81.3813 250.299C81.1393 249.823 80.9542 249.302 80.8258 248.737C80.6975 248.173 80.6333 247.571 80.6333 246.933ZM82.8608 246.933C82.8608 247.612 82.9452 248.222 83.1138 248.765C83.2862 249.304 83.5318 249.764 83.8508 250.145C84.1735 250.523 84.564 250.813 85.0223 251.014C85.4807 251.216 85.9958 251.317 86.5678 251.317C87.1398 251.317 87.6532 251.216 88.1078 251.014C88.5662 250.813 88.9548 250.523 89.2738 250.145C89.5928 249.764 89.8367 249.304 90.0053 248.765C90.1777 248.222 90.2638 247.612 90.2638 246.933C90.2638 246.255 90.1777 245.646 90.0053 245.107C89.8367 244.565 89.5928 244.105 89.2738 243.727C88.9548 243.349 88.5662 243.06 88.1078 242.858C87.6532 242.656 87.1398 242.555 86.5678 242.555C85.9958 242.555 85.4807 242.656 85.0223 242.858C84.564 243.06 84.1735 243.349 83.8508 243.727C83.5318 244.105 83.2862 244.565 83.1138 245.107C82.9452 245.646 82.8608 246.255 82.8608 246.933ZM105.188 253.325C104.594 253.325 104.033 253.27 103.505 253.16C102.977 253.05 102.489 252.892 102.042 252.686C101.598 252.477 101.198 252.226 100.843 251.933C100.491 251.636 100.192 251.302 99.9462 250.932C99.7006 250.558 99.5117 250.151 99.3797 249.711C99.2477 249.267 99.1817 248.798 99.1817 248.303V248.171H101.492V248.281C101.492 248.714 101.58 249.108 101.756 249.463C101.935 249.819 102.187 250.125 102.509 250.382C102.832 250.635 103.219 250.831 103.67 250.97C104.121 251.11 104.619 251.179 105.166 251.179C105.947 251.179 106.64 251.035 107.245 250.745C107.853 250.452 108.365 250.024 108.779 249.463C109.194 248.899 109.509 248.208 109.725 247.39C109.942 246.569 110.05 245.63 110.05 244.574V242.88C109.973 243.474 109.788 244.006 109.494 244.475C109.205 244.944 108.82 245.344 108.339 245.674C107.859 246 107.291 246.251 106.634 246.427C105.978 246.6 105.246 246.686 104.44 246.686C103.56 246.686 102.771 246.581 102.075 246.372C101.378 246.163 100.786 245.863 100.298 245.47C99.8142 245.078 99.4439 244.6 99.1872 244.035C98.9306 243.47 98.8022 242.83 98.8022 242.115C98.8022 241.334 98.9544 240.625 99.2587 239.987C99.5667 239.349 100.001 238.804 100.562 238.353C101.127 237.902 101.807 237.554 102.603 237.308C103.398 237.063 104.284 236.94 105.259 236.94C106.403 236.94 107.415 237.112 108.295 237.457C109.175 237.802 109.916 238.306 110.517 238.969C111.119 239.633 111.573 240.449 111.881 241.417C112.193 242.381 112.349 243.485 112.349 244.728V244.86C112.349 246.18 112.184 247.362 111.854 248.407C111.527 249.452 111.056 250.34 110.44 251.069C109.824 251.799 109.073 252.358 108.185 252.747C107.302 253.132 106.302 253.325 105.188 253.325ZM105.017 239.085C104.39 239.085 103.833 239.151 103.345 239.283C102.861 239.411 102.452 239.604 102.119 239.86C101.789 240.113 101.538 240.427 101.365 240.801C101.197 241.171 101.112 241.598 101.112 242.082C101.112 242.559 101.197 242.984 101.365 243.358C101.534 243.729 101.78 244.04 102.102 244.293C102.429 244.546 102.828 244.739 103.301 244.871C103.774 245.003 104.317 245.069 104.929 245.069C105.597 245.069 106.213 244.994 106.777 244.843C107.342 244.689 107.83 244.477 108.24 244.205C108.651 243.934 108.972 243.613 109.203 243.243C109.434 242.869 109.549 242.46 109.549 242.016C109.549 241.584 109.439 241.188 109.219 240.828C108.999 240.469 108.689 240.161 108.29 239.904C107.89 239.644 107.412 239.442 106.854 239.299C106.301 239.156 105.688 239.085 105.017 239.085ZM113.884 245.135C113.884 244.321 113.961 243.555 114.115 242.836C114.269 242.114 114.489 241.45 114.775 240.845C115.065 240.236 115.417 239.692 115.831 239.211C116.246 238.727 116.713 238.319 117.234 237.985C117.758 237.648 118.33 237.389 118.95 237.209C119.569 237.03 120.228 236.94 120.924 236.94C121.625 236.94 122.283 237.03 122.899 237.209C123.518 237.389 124.089 237.648 124.609 237.985C125.134 238.319 125.603 238.727 126.017 239.211C126.432 239.692 126.782 240.236 127.068 240.845C127.357 241.45 127.579 242.114 127.733 242.836C127.887 243.555 127.964 244.321 127.964 245.135C127.964 245.945 127.887 246.712 127.733 247.434C127.579 248.156 127.357 248.822 127.068 249.43C126.782 250.035 126.432 250.58 126.017 251.064C125.603 251.544 125.134 251.953 124.609 252.29C124.089 252.624 123.518 252.881 122.899 253.061C122.279 253.24 121.621 253.33 120.924 253.33C120.228 253.33 119.569 253.24 118.95 253.061C118.33 252.881 117.758 252.624 117.234 252.29C116.713 251.953 116.246 251.544 115.831 251.064C115.417 250.58 115.065 250.035 114.775 249.43C114.489 248.822 114.269 248.156 114.115 247.434C113.961 246.712 113.884 245.945 113.884 245.135ZM116.194 245.135C116.194 246.081 116.302 246.928 116.519 247.676C116.735 248.424 117.047 249.058 117.454 249.579C117.861 250.096 118.356 250.494 118.939 250.772C119.525 251.047 120.187 251.185 120.924 251.185C121.661 251.185 122.321 251.047 122.904 250.772C123.491 250.494 123.988 250.096 124.395 249.579C124.802 249.058 125.113 248.424 125.33 247.676C125.546 246.928 125.654 246.081 125.654 245.135C125.654 244.189 125.546 243.342 125.33 242.594C125.113 241.846 124.802 241.213 124.395 240.697C123.988 240.176 123.491 239.778 122.904 239.503C122.321 239.224 121.661 239.085 120.924 239.085C120.187 239.085 119.525 239.224 118.939 239.503C118.356 239.778 117.861 240.176 117.454 240.697C117.047 241.213 116.735 241.846 116.519 242.594C116.302 243.342 116.194 244.189 116.194 245.135ZM146.138 236.72V253H143.91V249.26C143.753 249.883 143.533 250.446 143.25 250.948C142.968 251.451 142.634 251.878 142.249 252.23C141.864 252.582 141.432 252.853 140.951 253.044C140.475 253.235 139.961 253.33 139.411 253.33C138.913 253.33 138.44 253.259 137.992 253.116C137.545 252.972 137.131 252.767 136.749 252.499C136.372 252.232 136.029 251.909 135.721 251.531C135.416 251.15 135.158 250.723 134.945 250.25C134.733 249.773 134.568 249.256 134.45 248.699C134.337 248.142 134.28 247.553 134.28 246.933C134.28 246.314 134.337 245.725 134.45 245.168C134.568 244.611 134.733 244.095 134.945 243.622C135.158 243.149 135.416 242.724 135.721 242.346C136.029 241.965 136.372 241.641 136.749 241.373C137.131 241.105 137.545 240.9 137.992 240.757C138.44 240.614 138.913 240.542 139.411 240.542C139.961 240.542 140.475 240.638 140.951 240.828C141.432 241.019 141.864 241.29 142.249 241.642C142.634 241.994 142.968 242.422 143.25 242.924C143.533 243.423 143.753 243.984 143.91 244.607V236.72H146.138ZM143.91 246.933C143.91 246.24 143.824 245.621 143.652 245.074C143.483 244.524 143.237 244.059 142.915 243.677C142.592 243.296 142.2 243.005 141.738 242.803C141.276 242.601 140.753 242.5 140.17 242.5C139.576 242.5 139.05 242.598 138.592 242.792C138.137 242.983 137.756 243.265 137.448 243.639C137.14 244.013 136.905 244.477 136.744 245.03C136.586 245.58 136.507 246.215 136.507 246.933C136.507 247.652 136.586 248.288 136.744 248.842C136.905 249.392 137.14 249.856 137.448 250.233C137.756 250.607 138.137 250.892 138.592 251.086C139.05 251.277 139.576 251.372 140.17 251.372C140.753 251.372 141.276 251.271 141.738 251.069C142.2 250.864 142.592 250.571 142.915 250.189C143.237 249.808 143.483 249.344 143.652 248.798C143.824 248.248 143.91 247.626 143.91 246.933ZM147.924 245.096C147.924 244.4 148.052 243.771 148.309 243.21C148.566 242.649 148.932 242.17 149.409 241.774C149.889 241.378 150.469 241.074 151.147 240.861C151.829 240.649 152.595 240.542 153.446 240.542C154.344 240.542 155.149 240.663 155.861 240.905C156.572 241.144 157.175 241.488 157.67 241.939C158.165 242.39 158.545 242.942 158.809 243.595C159.073 244.244 159.205 244.981 159.205 245.806V253H156.977V249.738C156.83 250.296 156.607 250.796 156.306 251.24C156.009 251.684 155.646 252.061 155.217 252.373C154.792 252.681 154.306 252.917 153.76 253.083C153.213 253.248 152.621 253.33 151.983 253.33C151.319 253.33 150.716 253.242 150.174 253.066C149.631 252.89 149.165 252.642 148.777 252.323C148.392 252.004 148.093 251.621 147.88 251.174C147.671 250.723 147.567 250.222 147.567 249.672C147.567 249.119 147.675 248.62 147.891 248.176C148.111 247.733 148.425 247.357 148.832 247.049C149.242 246.737 149.739 246.499 150.322 246.334C150.909 246.169 151.567 246.086 152.297 246.086H156.977V245.806C156.977 245.307 156.893 244.858 156.724 244.458C156.559 244.055 156.323 243.714 156.015 243.435C155.707 243.153 155.333 242.937 154.893 242.786C154.453 242.636 153.958 242.561 153.408 242.561C152.847 242.561 152.361 242.621 151.95 242.742C151.543 242.863 151.206 243.036 150.938 243.259C150.674 243.479 150.476 243.745 150.344 244.057C150.216 244.369 150.152 244.715 150.152 245.096H147.924ZM152.275 247.956C151.45 247.956 150.824 248.096 150.399 248.374C149.977 248.649 149.767 249.058 149.767 249.601C149.767 249.887 149.827 250.142 149.948 250.365C150.073 250.589 150.254 250.776 150.493 250.926C150.731 251.077 151.024 251.192 151.373 251.273C151.725 251.35 152.128 251.388 152.583 251.388C153.228 251.388 153.818 251.313 154.354 251.163C154.893 251.009 155.356 250.796 155.745 250.525C156.134 250.25 156.436 249.924 156.653 249.546C156.869 249.165 156.977 248.747 156.977 248.292V247.956H152.275ZM171.644 240.872L166.623 253.765C166.37 254.41 166.075 254.967 165.737 255.437C165.404 255.906 165.019 256.293 164.582 256.597C164.15 256.905 163.664 257.132 163.125 257.279C162.589 257.426 161.994 257.499 161.337 257.499C161.158 257.499 160.983 257.494 160.815 257.483C160.646 257.472 160.483 257.457 160.325 257.439V255.492C160.52 255.517 160.699 255.536 160.864 255.547C161.033 255.558 161.194 255.563 161.348 255.563C162.082 255.563 162.679 255.42 163.141 255.134C163.603 254.848 163.95 254.392 164.181 253.765L164.335 253.358L159.522 240.872H161.832L165.589 250.97L169.389 240.872H171.644ZM177.36 240.542C178.185 240.542 178.918 240.636 179.56 240.823C180.205 241.01 180.748 241.278 181.188 241.626C181.631 241.971 181.969 242.39 182.2 242.885C182.431 243.377 182.546 243.929 182.546 244.541H180.368C180.368 244.229 180.302 243.947 180.17 243.694C180.042 243.437 179.849 243.219 179.593 243.039C179.34 242.856 179.026 242.715 178.652 242.616C178.278 242.517 177.847 242.467 177.36 242.467C176.92 242.467 176.518 242.508 176.155 242.588C175.796 242.669 175.486 242.785 175.226 242.935C174.965 243.082 174.764 243.259 174.621 243.468C174.478 243.674 174.406 243.903 174.406 244.156C174.406 244.347 174.447 244.515 174.527 244.662C174.608 244.805 174.718 244.93 174.857 245.036C174.997 245.142 175.16 245.234 175.347 245.311C175.534 245.384 175.734 245.448 175.946 245.503C176.163 245.558 176.386 245.606 176.617 245.646C176.848 245.683 177.076 245.72 177.299 245.756L178.113 245.883C178.451 245.934 178.804 245.995 179.175 246.064C179.549 246.13 179.915 246.22 180.275 246.334C180.638 246.444 180.982 246.585 181.309 246.757C181.639 246.926 181.928 247.139 182.178 247.395C182.427 247.652 182.625 247.96 182.772 248.319C182.918 248.675 182.992 249.099 182.992 249.59C182.992 250.188 182.874 250.719 182.64 251.185C182.405 251.647 182.059 252.037 181.6 252.356C181.142 252.675 180.575 252.917 179.901 253.083C179.226 253.248 178.447 253.33 177.563 253.33C176.643 253.33 175.836 253.24 175.143 253.061C174.45 252.881 173.873 252.617 173.411 252.268C172.949 251.92 172.6 251.493 172.366 250.987C172.135 250.477 172.019 249.892 172.019 249.232H174.192C174.192 249.929 174.467 250.466 175.017 250.844C175.567 251.218 176.414 251.405 177.558 251.405C178.075 251.405 178.535 251.366 178.938 251.289C179.342 251.212 179.683 251.099 179.961 250.948C180.24 250.798 180.453 250.613 180.599 250.393C180.746 250.173 180.819 249.922 180.819 249.639C180.819 249.419 180.777 249.227 180.693 249.062C180.608 248.893 180.491 248.748 180.341 248.627C180.19 248.503 180.013 248.396 179.807 248.308C179.606 248.217 179.386 248.138 179.147 248.072C178.909 248.006 178.66 247.949 178.399 247.901C178.143 247.85 177.882 247.802 177.618 247.758L176.81 247.621C176.502 247.57 176.175 247.511 175.831 247.445C175.486 247.375 175.143 247.289 174.802 247.186C174.465 247.08 174.14 246.948 173.829 246.79C173.521 246.629 173.248 246.431 173.009 246.196C172.775 245.962 172.586 245.681 172.443 245.355C172.303 245.029 172.234 244.645 172.234 244.205C172.234 243.648 172.351 243.144 172.586 242.693C172.824 242.242 173.163 241.857 173.603 241.538C174.047 241.219 174.584 240.973 175.215 240.801C175.849 240.629 176.564 240.542 177.36 240.542Z" fill="white"/>
</svg>
