<svg width="515" height="221" viewBox="0 0 515 221" fill="none" xmlns="http://www.w3.org/2000/svg">
<rect x="155" y="180" width="205" height="40" fill="#212367"/>
<rect y="5.58386" width="160" height="52" rx="26" transform="rotate(-2 0 5.58386)" fill="#5069DD"/>
<path d="M23.4285 28.34C23.3871 27.1568 23.4655 26.0387 23.6635 24.9858C23.8614 23.9276 24.1662 22.951 24.5778 22.0561C24.9947 21.1557 25.508 20.3453 26.1179 19.6249C26.7276 18.8992 27.4238 18.2798 28.2064 17.7669C28.9888 17.2486 29.8498 16.8423 30.7894 16.548C31.729 16.2537 32.7345 16.0878 33.8059 16.0504C34.8772 16.013 35.8918 16.1083 36.8497 16.3363C37.8076 16.5644 38.6948 16.9096 39.5115 17.3721C40.3279 17.8292 41.0656 18.3985 41.7244 19.0799C42.3884 19.7558 42.9571 20.5284 43.4304 21.3978C43.9035 22.2618 44.2756 23.2147 44.5468 24.2565C44.8231 25.2929 44.982 26.4027 45.0233 27.5859C45.0644 28.7639 44.9834 29.8821 44.7802 30.9405C44.5824 31.9987 44.2777 32.9779 43.8662 33.8782C43.4545 34.7731 42.9411 35.5835 42.3261 36.3094C41.7162 37.0298 41.0201 37.6491 40.2377 38.1674C39.4551 38.6804 38.594 39.084 37.6544 39.3783C36.7147 39.6726 35.7092 39.8385 34.6379 39.8759C33.5665 39.9133 32.5519 39.818 31.594 39.5899C30.6362 39.3619 29.749 39.0193 28.9326 38.5622C28.1159 38.0997 27.3783 37.5305 26.7196 36.8544C26.0608 36.173 25.4921 35.4003 25.0137 34.5365C24.5404 33.6672 24.1681 32.7116 23.8969 31.6697C23.6258 30.6279 23.4696 29.518 23.4285 28.34ZM26.7864 28.2228C26.8344 29.5979 27.0453 30.8233 27.4191 31.8989C27.7982 32.9744 28.3208 33.8794 28.9868 34.6139C29.6526 35.3431 30.451 35.8942 31.382 36.2673C32.318 36.6349 33.367 36.7983 34.529 36.7578C35.691 36.7172 36.7233 36.481 37.6262 36.0493C38.5341 35.612 39.2948 35.0064 39.9081 34.2325C40.5213 33.4533 40.9795 32.5141 41.2826 31.4148C41.5858 30.3156 41.7134 29.0784 41.6653 27.7032C41.6173 26.328 41.4038 25.1027 41.0247 24.0273C40.6456 22.9519 40.1231 22.0496 39.4572 21.3204C38.7912 20.5858 37.9901 20.0348 37.0541 19.6672C36.1232 19.2942 35.0767 19.1279 33.9148 19.1685C32.7528 19.2091 31.7178 19.448 30.8099 19.8853C29.9071 20.3171 29.1491 20.9225 28.5359 21.7018C27.9225 22.4756 27.4643 23.4122 27.1611 24.5114C26.8633 25.6105 26.7384 26.8476 26.7864 28.2228ZM50.6288 26.6217C50.8264 25.7076 51.1177 24.8809 51.5028 24.1417C51.8877 23.3972 52.3511 22.7593 52.8928 22.228C53.4346 21.6968 54.0471 21.2805 54.7304 20.9791C55.4189 20.6776 56.163 20.5129 56.9625 20.4849C57.6874 20.4596 58.3786 20.5396 59.0361 20.7247C59.6937 20.9099 60.3037 21.1874 60.8663 21.5574C61.4342 21.9271 61.9491 22.3814 62.4108 22.9203C62.8777 23.4536 63.2777 24.0587 63.6109 24.7355C63.944 25.4123 64.2074 26.1529 64.4009 26.9573C64.5998 27.7615 64.7149 28.614 64.7464 29.5148C64.7778 30.4156 64.7224 31.274 64.5802 32.0902C64.4432 32.9061 64.2323 33.6659 63.9473 34.3696C63.6622 35.068 63.3054 35.7022 62.8771 36.2721C62.4538 36.8366 61.9719 37.323 61.4311 37.7315C60.8957 38.1398 60.3065 38.4592 59.6635 38.6898C59.0205 38.9204 58.3365 39.0483 57.6116 39.0736C56.8121 39.1015 56.0584 38.9891 55.3505 38.7363C54.6479 38.4834 54.0078 38.1108 53.4303 37.6187C52.8528 37.1265 52.3461 36.5225 51.9101 35.8066C51.4742 35.0907 51.1258 34.2837 50.865 33.3856L51.2657 44.8586L48.0276 44.9717L47.2012 21.3061L50.4392 21.193L50.6288 26.6217ZM50.7469 30.0037C50.7821 31.011 50.9362 31.9102 51.2093 32.7012C51.4876 33.4866 51.8709 34.1483 52.3593 34.6862C52.8477 35.2242 53.4329 35.6307 54.1149 35.9057C54.7968 36.1754 55.5614 36.2955 56.4089 36.2659C57.2724 36.2357 58.0297 36.0705 58.681 35.7703C59.3374 35.4645 59.88 35.032 60.3087 34.4727C60.7373 33.908 61.0522 33.222 61.2534 32.4145C61.4599 31.6014 61.5448 30.6726 61.5083 29.6279C61.4719 28.5832 61.3224 27.6652 61.06 26.8738C60.8027 26.077 60.4407 25.4146 59.9739 24.8865C59.5072 24.3585 58.9359 23.9675 58.26 23.7136C57.5892 23.4542 56.822 23.3396 55.9586 23.3697C55.1111 23.3993 54.3567 23.5724 53.6953 23.889C53.034 24.2056 52.4784 24.6493 52.0287 25.22C51.5791 25.7907 51.2429 26.4802 51.0203 27.2885C50.8029 28.0912 50.7117 28.9963 50.7469 30.0037ZM77.7901 37.7526C76.4557 38.2048 75.2475 38.4497 74.1655 38.4875C73.286 38.5182 72.5031 38.4095 71.8167 38.1613C71.1358 37.9183 70.5569 37.5409 70.0801 37.0292C69.6031 36.5122 69.231 35.8661 68.9638 35.091C68.7017 34.3103 68.5526 33.403 68.5165 32.369L68.1996 23.2945L65.8011 23.3782L65.7062 20.6599L68.1047 20.5761L67.9629 16.5146L71.2009 16.4015L71.3427 20.4631L77.1792 20.2593L77.2741 22.9776L71.4377 23.1814L71.7548 32.2639C71.7956 33.4312 72.0443 34.287 72.5009 34.8314C72.9626 35.3703 73.6652 35.6232 74.6087 35.5903C74.9764 35.5775 75.412 35.5196 75.9154 35.4166C76.4241 35.3134 77.0164 35.1593 77.6923 34.9543L77.7901 37.7526ZM82.7096 18.0249L79.3116 18.1435L79.172 14.146L82.57 14.0273L82.7096 18.0249ZM83.3164 37.6957L80.0784 37.8088L79.4628 20.1795L82.7008 20.0664L83.3164 37.6957ZM85.1797 28.8012C85.1473 27.8738 85.21 26.9964 85.3679 26.1691C85.5258 25.3417 85.7686 24.5781 86.0964 23.8782C86.4242 23.1784 86.8318 22.5478 87.3191 21.9864C87.8063 21.4197 88.3605 20.9361 88.9815 20.5355C89.6079 20.1348 90.2988 19.8225 91.0541 19.5986C91.8092 19.3695 92.6158 19.2399 93.474 19.2099C94.3375 19.1798 95.1512 19.2528 95.9151 19.4289C96.6842 19.5995 97.3925 19.8629 98.04 20.2192C98.6928 20.5753 99.282 21.019 99.8075 21.5503C100.333 22.0763 100.783 22.6769 101.159 23.3522C101.535 24.0275 101.831 24.7723 102.046 25.5867C102.261 26.401 102.385 27.2719 102.417 28.1993C102.45 29.1267 102.387 30.0041 102.229 30.8315C102.071 31.6588 101.828 32.4251 101.501 33.1303C101.173 33.8302 100.765 34.4608 100.278 35.0221C99.7906 35.5835 99.2338 36.0672 98.6076 36.4733C97.9865 36.8739 97.2983 37.1861 96.543 37.4099C95.7932 37.6389 94.9866 37.7684 94.1231 37.7986C93.265 37.8286 92.4513 37.7556 91.682 37.5797C90.9129 37.4091 90.2019 37.1457 89.5491 36.7896C88.9014 36.428 88.3149 35.9842 87.7896 35.4582C87.2642 34.9322 86.8137 34.3316 86.4379 33.6563C86.0619 32.9757 85.7663 32.2282 85.5511 31.4139C85.3359 30.5996 85.2121 29.7287 85.1797 28.8012ZM88.4177 28.6882C88.4521 29.6742 88.6057 30.5574 88.8784 31.3377C89.1563 32.1125 89.5368 32.7689 90.0199 33.3071C90.5081 33.8397 91.0904 34.2409 91.7669 34.5108C92.4434 34.7807 93.1974 34.9011 94.0289 34.8721C94.8604 34.8431 95.6015 34.6704 96.2522 34.3542C96.9082 34.0378 97.4585 33.597 97.9031 33.0318C98.3474 32.4613 98.6785 31.78 98.8963 30.9879C99.1193 30.1903 99.2136 29.2984 99.1791 28.3124C99.1447 27.3263 98.9885 26.4459 98.7107 25.6711C98.4379 24.8908 98.0601 24.2343 97.5772 23.7015C97.0944 23.1687 96.5147 22.7673 95.8382 22.4974C95.167 22.2274 94.4157 22.1068 93.5842 22.1359C92.7527 22.1649 92.0089 22.3376 91.3529 22.6541C90.6969 22.9705 90.1439 23.4114 89.694 23.9768C89.2495 24.5419 88.9157 25.2233 88.6928 26.0209C88.475 26.813 88.3833 27.7021 88.4177 28.6882ZM108.114 36.8297L104.876 36.9428L104.26 19.3136L107.498 19.2005L107.676 24.2934C107.859 23.4171 108.138 22.6282 108.514 21.9267C108.89 21.2252 109.349 20.6248 109.892 20.1255C110.435 19.6263 111.054 19.2364 111.748 18.956C112.448 18.6754 113.209 18.5208 114.029 18.4921C115.032 18.4571 115.936 18.615 116.744 18.9657C117.551 19.3164 118.242 19.8393 118.816 20.5343C119.395 21.2239 119.846 22.0753 120.17 23.0886C120.498 24.0964 120.685 25.24 120.73 26.5192L121.074 36.3772L117.836 36.4902L117.492 26.6322C117.43 24.8627 117.008 23.5459 116.225 22.682C115.442 21.8182 114.294 21.4127 112.78 21.4655C111.965 21.494 111.239 21.6474 110.603 21.9258C109.972 22.1986 109.442 22.5854 109.011 23.0861C108.585 23.5812 108.265 24.1848 108.049 24.8967C107.839 25.6032 107.75 26.4014 107.781 27.2916L108.114 36.8297ZM130.083 17.9315C131.282 17.8896 132.353 17.9883 133.295 18.2276C134.243 18.4667 135.045 18.8282 135.703 19.3122C136.365 19.7907 136.877 20.3839 137.238 21.0917C137.599 21.7942 137.794 22.5906 137.826 23.4807L134.659 23.5912C134.644 23.1382 134.533 22.7311 134.329 22.37C134.129 22.0035 133.838 21.6961 133.456 21.4479C133.079 21.1943 132.616 21.005 132.067 20.8801C131.519 20.7551 130.89 20.705 130.181 20.7298C129.541 20.7521 128.96 20.8312 128.436 20.9668C127.918 21.1023 127.473 21.286 127.103 21.5177C126.732 21.7441 126.447 22.0129 126.25 22.324C126.053 22.6297 125.96 22.9665 125.973 23.3342C125.983 23.6114 126.05 23.8545 126.175 24.0636C126.299 24.2674 126.466 24.4431 126.673 24.5906C126.881 24.7381 127.123 24.863 127.399 24.9655C127.675 25.0626 127.968 25.1457 128.28 25.2149C128.598 25.2838 128.925 25.3418 129.263 25.3887C129.601 25.4303 129.933 25.472 130.26 25.514L131.45 25.6565C131.943 25.714 132.46 25.784 133.002 25.8665C133.549 25.9434 134.086 26.0554 134.615 26.2024C135.148 26.3439 135.656 26.5316 136.139 26.7655C136.627 26.994 137.059 27.2884 137.435 27.6489C137.81 28.0093 138.114 28.447 138.345 28.9619C138.576 29.4715 138.705 30.0834 138.729 30.7976C138.76 31.6664 138.616 32.4452 138.299 33.1341C137.981 33.8176 137.497 34.4028 136.847 34.8898C136.197 35.3768 135.386 35.7573 134.413 36.0314C133.441 36.3055 132.313 36.465 131.028 36.5099C129.69 36.5566 128.513 36.4669 127.497 36.2409C126.48 36.0149 125.627 35.6605 124.938 35.1776C124.249 34.6947 123.721 34.0914 123.354 33.3678C122.992 32.6386 122.795 31.7943 122.761 30.8349L125.919 30.7246C125.954 31.7373 126.382 32.5042 127.2 33.0253C128.019 33.5411 129.259 33.7699 130.922 33.7118C131.674 33.6856 132.341 33.6063 132.923 33.4739C133.506 33.3415 133.996 33.1589 134.393 32.9262C134.791 32.6936 135.09 32.4136 135.292 32.0863C135.494 31.7591 135.588 31.3903 135.574 30.9798C135.563 30.66 135.492 30.3823 135.361 30.1468C135.23 29.9059 135.052 29.7013 134.827 29.533C134.602 29.3594 134.338 29.2139 134.035 29.0964C133.737 28.9734 133.414 28.8699 133.064 28.7861C132.714 28.7023 132.349 28.6323 131.968 28.5762C131.592 28.5146 131.211 28.4586 130.825 28.408L129.643 28.2492C129.193 28.1902 128.715 28.1215 128.211 28.043C127.706 27.9592 127.204 27.8514 126.703 27.7195C126.207 27.582 125.729 27.4066 125.267 27.1932C124.812 26.9743 124.404 26.7004 124.046 26.3713C123.693 26.0421 123.404 25.644 123.18 25.1768C122.961 24.7095 122.84 24.1561 122.818 23.5165C122.789 22.7063 122.934 21.9675 123.253 21.2999C123.576 20.6322 124.05 20.0554 124.673 19.5693C125.302 19.0831 126.07 18.6987 126.978 18.4162C127.892 18.1335 128.927 17.9719 130.083 17.9315Z" fill="white"/>
<rect x="286.815" y="22" width="220" height="52" rx="26" transform="rotate(2 286.815 22)" fill="#8E3ECD"/>
<path d="M307.157 57.7317L316.478 35.1633L321.515 35.3392L329.128 58.4989L325.562 58.3744L323.675 52.569L312.962 52.1949L310.643 57.8534L307.157 57.7317ZM322.67 49.4921L318.868 37.7843L314.187 49.1959L322.67 49.4921ZM344.013 41.368L347.252 41.4811L346.636 59.1103L343.398 58.9973L343.576 53.9044C343.332 54.7657 342.999 55.5332 342.575 56.2068C342.151 56.8805 341.651 57.4474 341.074 57.9075C340.498 58.3677 339.854 58.7134 339.141 58.9447C338.429 59.176 337.662 59.2773 336.841 59.2486C335.834 59.2134 334.94 58.9927 334.159 58.5866C333.378 58.1751 332.723 57.6052 332.193 56.8769C331.669 56.1435 331.278 55.2627 331.021 54.2344C330.768 53.2063 330.664 52.0527 330.709 50.7734L331.053 40.9154L334.291 41.0285L333.947 50.8865C333.886 52.6508 334.215 53.9937 334.935 54.9154C335.656 55.8318 336.773 56.3164 338.286 56.3693C339.102 56.3978 339.834 56.2979 340.482 56.0697C341.136 55.8364 341.693 55.4876 342.152 55.0234C342.616 54.554 342.978 53.9742 343.237 53.2842C343.502 52.589 343.649 51.7963 343.68 50.9062L344.013 41.368ZM360.032 59.4421C358.669 59.8001 357.447 59.9602 356.365 59.9224C355.486 59.8917 354.712 59.7286 354.045 59.4331C353.382 59.1432 352.831 58.7263 352.391 58.1826C351.951 57.6336 351.625 56.9632 351.413 56.1713C351.206 55.3742 351.12 54.4587 351.157 53.4247L351.473 44.3502L349.075 44.2664L349.17 41.5481L351.568 41.6318L351.71 37.5703L354.948 37.6834L354.806 41.7449L360.643 41.9487L360.548 44.6671L354.711 44.4633L354.394 53.5457C354.354 54.713 354.542 55.5841 354.959 56.159C355.383 56.7288 356.066 57.0302 357.009 57.0631C357.377 57.076 357.815 57.0486 358.325 56.981C358.839 56.9136 359.441 56.8012 360.13 56.6438L360.032 59.4421ZM361.501 50.8001C361.533 49.8726 361.657 49.0017 361.872 48.1874C362.087 47.3731 362.383 46.6283 362.759 45.953C363.134 45.2777 363.585 44.6771 364.11 44.1511C364.636 43.6198 365.222 43.176 365.87 42.8197C366.523 42.4636 367.234 42.2002 368.003 42.0296C368.772 41.8537 369.586 41.7807 370.444 41.8107C371.307 41.8408 372.114 41.9704 372.864 42.1994C373.619 42.4232 374.307 42.7354 374.928 43.136C375.555 43.5368 376.112 44.0205 376.599 44.5872C377.086 45.1485 377.494 45.7791 377.821 46.479C378.149 47.1789 378.392 47.9425 378.55 48.7698C378.708 49.5972 378.771 50.4746 378.738 51.402C378.706 52.3294 378.582 53.2003 378.367 54.0146C378.152 54.829 377.856 55.5764 377.48 56.2571C377.104 56.9324 376.654 57.533 376.128 58.059C375.603 58.585 375.014 59.0287 374.361 59.3901C373.713 59.7464 373.005 60.0098 372.236 60.1804C371.472 60.3565 370.658 60.4295 369.795 60.3994C368.937 60.3694 368.13 60.2398 367.375 60.0107C366.62 59.7868 365.929 59.4745 365.302 59.0738C364.681 58.6679 364.127 58.1842 363.64 57.6229C363.153 57.0615 362.745 56.4309 362.417 55.731C362.09 55.0259 361.847 54.2596 361.689 53.4322C361.531 52.6049 361.468 51.7275 361.501 50.8001ZM364.739 50.9131C364.704 51.8992 364.796 52.7909 365.014 53.5884C365.237 54.3806 365.57 55.062 366.015 55.6325C366.465 56.1979 367.018 56.6388 367.674 56.9552C368.33 57.2717 369.073 57.4444 369.905 57.4734C370.736 57.5025 371.488 57.3819 372.159 57.1119C372.835 56.842 373.415 56.4406 373.898 55.9078C374.381 55.3697 374.759 54.7131 375.031 53.9382C375.31 53.1581 375.466 52.275 375.5 51.2889C375.535 50.3029 375.44 49.4137 375.217 48.6214C374.999 47.824 374.668 47.1427 374.224 46.5775C373.779 46.0123 373.229 45.5715 372.573 45.2551C371.922 44.9389 371.181 44.7662 370.35 44.7372C369.518 44.7082 368.764 44.8286 368.088 45.0985C367.411 45.3684 366.829 45.7696 366.341 46.3022C365.858 46.835 365.477 47.4915 365.199 48.2716C364.927 49.0466 364.773 49.9271 364.739 50.9131ZM406.872 61.2139L403.514 61.0966L403.858 51.2466L391.546 50.8166L391.202 60.6666L387.844 60.5494L388.643 37.6833L392 37.8006L391.655 47.6985L403.967 48.1285L404.313 38.2305L407.671 38.3478L406.872 61.2139ZM426.063 56.0324C425.799 57.0105 425.411 57.8828 424.899 58.6494C424.387 59.416 423.772 60.0589 423.054 60.5782C422.343 61.0977 421.539 61.4859 420.644 61.7428C419.75 61.9997 418.785 62.1101 417.751 62.074C416.888 62.0439 416.076 61.9141 415.315 61.6848C414.56 61.4556 413.867 61.1406 413.235 60.7396C412.609 60.3335 412.049 59.8497 411.556 59.2882C411.069 58.7215 410.659 58.0881 410.326 57.3881C409.998 56.6829 409.756 55.9166 409.598 55.0892C409.44 54.2566 409.377 53.3765 409.41 52.4491C409.442 51.5216 409.566 50.6534 409.781 49.8444C409.996 49.0354 410.289 48.2932 410.659 47.6177C411.035 46.9424 411.483 46.3417 412.003 45.8155C412.523 45.2894 413.107 44.8481 413.754 44.4918C414.402 44.1356 415.107 43.872 415.871 43.7012C416.635 43.5251 417.443 43.452 418.296 43.4817C419.559 43.5258 420.692 43.7842 421.695 44.2568C422.698 44.7241 423.546 45.3701 424.237 46.1947C424.929 47.0194 425.449 48.0061 425.799 49.155C426.148 50.3039 426.298 51.5819 426.249 52.9891C426.242 53.1916 426.23 53.3913 426.212 53.5882C426.2 53.7852 426.179 54.0033 426.149 54.2424L412.67 53.7716C412.738 54.5798 412.904 55.3114 413.169 55.9664C413.44 56.6163 413.8 57.1732 414.248 57.6371C414.701 58.1012 415.238 58.4641 415.859 58.726C416.479 58.9824 417.171 59.124 417.933 59.1506C419.106 59.1916 420.096 58.9433 420.905 58.4059C421.714 57.8631 422.354 57.0343 422.825 55.9194L426.063 56.0324ZM422.953 51.329C422.873 50.5578 422.71 49.8744 422.464 49.2787C422.219 48.6778 421.895 48.1702 421.493 47.7559C421.091 47.3363 420.614 47.0128 420.062 46.7854C419.515 46.5581 418.898 46.4325 418.21 46.4085C417.506 46.3839 416.858 46.4707 416.264 46.6687C415.67 46.8615 415.142 47.1552 414.68 47.55C414.224 47.9396 413.838 48.4252 413.525 49.0066C413.211 49.5826 412.98 50.239 412.831 50.9756L422.953 51.329ZM445.747 38.877L444.921 62.5425L441.683 62.4295L441.873 56.9928C441.612 57.8909 441.264 58.6979 440.828 59.4138C440.392 60.1297 439.885 60.7337 439.308 61.2258C438.73 61.718 438.087 62.0904 437.379 62.3432C436.677 62.5962 435.926 62.7087 435.126 62.6808C434.401 62.6555 433.717 62.5275 433.074 62.2969C432.431 62.0664 431.839 61.7468 431.299 61.3384C430.763 60.9301 430.281 60.4437 429.853 59.879C429.43 59.3093 429.076 58.6752 428.79 57.9768C428.506 57.2731 428.292 56.5132 428.15 55.6971C428.013 54.8811 427.96 54.0228 427.991 53.122C428.023 52.2212 428.135 51.3686 428.329 50.5642C428.528 49.76 428.794 49.0195 429.127 48.3427C429.46 47.6659 429.857 47.0607 430.319 46.5272C430.786 45.9885 431.301 45.5342 431.864 45.1643C432.431 44.7945 433.044 44.5171 433.702 44.3319C434.359 44.1467 435.05 44.0668 435.775 44.0921C436.575 44.12 437.316 44.2847 437.999 44.586C438.688 44.8876 439.303 45.304 439.845 45.8352C440.387 46.3664 440.85 47.0043 441.235 47.7489C441.62 48.4881 441.911 49.3148 442.109 50.2289L442.509 38.7639L445.747 38.877ZM441.991 53.6108C442.026 52.6035 441.932 51.6983 441.71 50.8954C441.492 50.0873 441.159 49.3979 440.709 48.8272C440.259 48.2565 439.704 47.8128 439.043 47.4962C438.381 47.1796 437.627 47.0065 436.779 46.9769C435.916 46.9468 435.146 47.0613 434.47 47.3205C433.799 47.5746 433.231 47.9657 432.764 48.4937C432.297 49.0217 431.932 49.6841 431.67 50.4807C431.413 51.2722 431.266 52.1903 431.229 53.235C431.193 54.2797 431.275 55.2085 431.476 56.0214C431.683 56.8291 432.001 57.5152 432.429 58.0799C432.858 58.6392 433.398 59.0716 434.049 59.3772C434.705 59.6776 435.465 59.8429 436.329 59.8731C437.176 59.9026 437.941 59.7826 438.623 59.5129C439.305 59.2379 439.89 58.8314 440.379 58.2934C440.867 57.7555 441.248 57.0937 441.52 56.3081C441.799 55.5173 441.956 54.6182 441.991 53.6108ZM464.931 45.5906L464.427 60.0218C464.393 60.9918 464.268 61.9027 464.051 62.7543C463.835 63.6059 463.538 64.3854 463.161 65.0927C462.79 65.8001 462.341 66.4302 461.815 66.9828C461.288 67.5408 460.698 68.0085 460.045 68.3859C459.396 68.7635 458.687 69.0429 457.918 69.2242C457.154 69.411 456.342 69.4894 455.484 69.4594C454.749 69.4337 454.048 69.3319 453.382 69.1538C452.715 68.9811 452.097 68.7434 451.525 68.4406C450.96 68.138 450.447 67.7786 449.986 67.3622C449.531 66.9514 449.144 66.495 448.825 65.9929C448.507 65.4908 448.267 64.9488 448.106 64.3668C447.944 63.7901 447.874 63.19 447.896 62.5664L451.134 62.6795C451.122 63.0366 451.163 63.3796 451.258 63.7084C451.359 64.0375 451.503 64.3467 451.69 64.6361C451.883 64.931 452.114 65.1978 452.383 65.4367C452.657 65.6811 452.962 65.8892 453.298 66.061C453.633 66.2382 453.994 66.3788 454.379 66.483C454.771 66.5874 455.18 66.6471 455.606 66.662C456.416 66.6902 457.155 66.5506 457.822 66.243C458.494 65.9356 459.073 65.4862 459.558 64.8948C460.043 64.3034 460.426 63.5856 460.706 62.7415C460.992 61.8977 461.153 60.9534 461.189 59.9087L461.286 57.1264C461.027 57.9818 460.677 58.7514 460.237 59.4352C459.802 60.1191 459.291 60.6989 458.703 61.1747C458.121 61.6453 457.471 62.0015 456.753 62.2433C456.04 62.4799 455.276 62.584 454.461 62.5555C453.752 62.5307 453.081 62.4086 452.448 62.189C451.816 61.9641 451.231 61.6582 450.695 61.2713C450.164 60.8792 449.687 60.4116 449.263 59.8685C448.845 59.3202 448.492 58.7128 448.206 58.0465C447.92 57.3747 447.705 56.6495 447.562 55.8706C447.424 55.0867 447.37 54.263 447.4 53.3995C447.43 52.536 447.541 51.7207 447.733 50.9536C447.931 50.1814 448.196 49.4729 448.528 48.8281C448.86 48.1779 449.254 47.5967 449.71 47.0842C450.17 46.572 450.679 46.1415 451.236 45.7927C451.798 45.4388 452.402 45.1744 453.048 44.9995C453.695 44.8193 454.373 44.7416 455.082 44.7663C455.897 44.7948 456.652 44.9546 457.346 45.2456C458.046 45.5316 458.67 45.9323 459.218 46.4477C459.771 46.958 460.24 47.5694 460.626 48.282C461.018 48.9947 461.313 49.7868 461.512 50.6583L461.693 45.4775L464.931 45.5906ZM461.399 53.8884C461.432 52.9449 461.336 52.0957 461.112 51.3408C460.888 50.5805 460.547 49.9335 460.091 49.4C459.64 48.8612 459.076 48.4439 458.398 48.1481C457.725 47.8471 456.955 47.6815 456.086 47.6511C455.244 47.6217 454.493 47.7262 453.833 47.9647C453.174 48.2032 452.612 48.5704 452.146 49.0665C451.686 49.5627 451.328 50.1826 451.072 50.9261C450.817 51.6697 450.672 52.5318 450.638 53.5126C450.604 54.4933 450.688 55.3634 450.891 56.123C451.099 56.8827 451.416 57.5261 451.84 58.0533C452.265 58.5804 452.797 58.9886 453.438 59.2778C454.085 59.5619 454.826 59.7185 455.663 59.7477C456.532 59.7781 457.312 59.6666 458.004 59.4132C458.702 59.1601 459.294 58.7832 459.781 58.2825C460.274 57.7768 460.658 57.1551 460.935 56.4177C461.212 55.6749 461.366 54.8318 461.399 53.8884ZM483.434 58.0359C483.171 59.0139 482.783 59.8863 482.27 60.6529C481.758 61.4194 481.143 62.0624 480.426 62.5817C479.714 63.1011 478.91 63.4893 478.016 63.7463C477.121 64.0032 476.156 64.1136 475.122 64.0775C474.259 64.0473 473.447 63.9176 472.686 63.6882C471.931 63.4591 471.238 63.144 470.606 62.7431C469.98 62.337 469.42 61.8531 468.928 61.2916C468.441 60.7249 468.03 60.0916 467.697 59.3915C467.37 58.6863 467.127 57.92 466.969 57.0927C466.811 56.26 466.749 55.38 466.781 54.4525C466.814 53.5251 466.937 52.6569 467.152 51.8479C467.367 51.0389 467.66 50.2967 468.031 49.6212C468.406 48.9459 468.854 48.3451 469.374 47.819C469.894 47.2928 470.478 46.8516 471.125 46.4953C471.773 46.139 472.479 45.8755 473.242 45.7047C474.006 45.5286 474.815 45.4554 475.668 45.4852C476.931 45.5293 478.064 45.7877 479.067 46.2603C480.069 46.7276 480.917 47.3735 481.608 48.1982C482.3 49.0228 482.821 50.0096 483.17 51.1585C483.52 52.3074 483.67 53.5854 483.621 54.9925C483.613 55.1951 483.601 55.3948 483.584 55.5916C483.571 55.7886 483.55 56.0067 483.521 56.2458L470.041 55.7751C470.109 56.5833 470.275 57.3149 470.541 57.9699C470.811 58.6197 471.171 59.1766 471.619 59.6405C472.072 60.1046 472.609 60.4676 473.23 60.7294C473.851 60.9859 474.542 61.1274 475.304 61.1541C476.477 61.195 477.468 60.9468 478.276 60.4093C479.085 59.8665 479.725 59.0377 480.196 57.9228L483.434 58.0359ZM480.324 53.3325C480.245 52.5612 480.082 51.8778 479.836 51.2822C479.59 50.6812 479.266 50.1736 478.864 49.7594C478.463 49.3398 477.986 49.0162 477.433 48.7888C476.886 48.5616 476.269 48.436 475.581 48.412C474.878 48.3874 474.229 48.4741 473.635 48.6722C473.041 48.8649 472.513 49.1587 472.051 49.5535C471.595 49.9431 471.21 50.4286 470.896 51.01C470.582 51.5861 470.351 52.2424 470.203 52.979L480.324 53.3325Z" fill="white"/>
<rect x="15.3508" y="50.8042" width="160" height="40" rx="20" transform="rotate(-2 15.3508 50.8042)" fill="#212367"/>
<path opacity="0.85" d="M32.8432 78.2105L32.3057 62.8199L41.716 62.4912L41.7905 64.6239L34.4909 64.8788L34.6506 69.4521L40.587 69.2448L40.6615 71.3775L34.7251 71.5848L34.9539 78.1368L32.8432 78.2105ZM44.5593 77.8013L44.1754 66.808L46.2861 66.7343L46.67 77.7276L44.5593 77.8013ZM46.4468 63.1405C46.4596 63.507 46.3457 63.8191 46.1052 64.077C45.8506 64.3501 45.5401 64.493 45.1736 64.5058C44.8072 64.5186 44.4948 64.3974 44.2364 64.1423C43.9638 63.9023 43.8212 63.5991 43.8084 63.2327C43.7956 62.8662 43.9165 62.5465 44.1711 62.2734C44.4116 62.0155 44.7151 61.8802 45.0815 61.8674C45.4479 61.8546 45.7674 61.9682 46.04 62.2082C46.2984 62.4633 46.434 62.7741 46.4468 63.1405ZM53.4303 73.9034L51.1149 77.5724L48.4985 77.6638L52.0662 72.0358L48.1146 66.6705L50.687 66.5806L53.2754 70.1005L55.612 66.4087L58.1625 66.3196L54.6387 71.946L58.5464 77.3129L55.9739 77.4027L53.4303 73.9034ZM69.8362 72.2958L61.5253 72.5861C61.627 72.9787 61.7642 73.3335 61.9366 73.6503C62.1238 73.9667 62.361 74.2446 62.6482 74.484C63.2827 75.0049 64.0251 75.2504 64.8752 75.2207C66.1212 75.1772 67.0836 74.7914 67.7626 74.0633L69.3107 75.5281C68.2356 76.681 66.7819 77.2895 64.9497 77.3534C63.3667 77.4087 62.0207 76.8981 60.9118 75.8214C59.8024 74.7302 59.2198 73.3857 59.164 71.788C59.1077 70.1756 59.5804 68.7943 60.5822 67.644C61.5987 66.4931 62.8911 65.8903 64.4595 65.8355C65.9985 65.7818 67.2563 66.2882 68.2328 67.3548C69.2234 68.4062 69.7476 69.76 69.8055 71.4164L69.8362 72.2958ZM64.5089 67.8811C63.6734 67.9102 62.9719 68.2062 62.4046 68.769C61.8655 69.3015 61.5438 69.9658 61.4395 70.7619L67.4639 70.5516C67.3033 69.7353 66.9798 69.0862 66.4933 68.6042C65.9912 68.0935 65.3297 67.8524 64.5089 67.8811ZM76.6011 67.5248C75.6043 67.5596 74.8031 67.9398 74.1974 68.6654C73.577 69.3915 73.2848 70.2676 73.3206 71.2936C73.3564 72.3197 73.7091 73.1732 74.3786 73.8543C75.0334 74.5358 75.8592 74.8592 76.856 74.8244C77.838 74.7901 78.6173 74.4107 79.1937 73.6861C79.4892 73.3236 79.7028 72.9272 79.8346 72.497C79.9804 72.0517 80.0444 71.5725 80.0265 71.0594C80.0081 70.5318 79.9108 70.0582 79.7347 69.6388C79.5733 69.2188 79.3326 68.8383 79.0125 68.4973C78.3869 67.8147 77.5831 67.4905 76.6011 67.5248ZM76.3954 65.4187C77.6413 65.3752 78.6595 65.7432 79.4498 66.5228C79.5403 66.593 79.6162 66.6637 79.6774 66.735C79.7386 66.8062 79.8071 66.8772 79.8829 66.9479L79.681 61.1655L81.8137 61.091L82.3511 76.4816L80.3724 76.5507L80.3201 75.0556C80.2646 75.1456 80.209 75.2356 80.1535 75.3256C80.0974 75.4009 80.0264 75.4695 79.9405 75.5312C79.1792 76.4236 78.1316 76.8931 76.7977 76.9397C75.2294 76.9945 73.92 76.4825 72.8698 75.4039C71.8043 74.311 71.2437 72.9658 71.1879 71.3681C71.1316 69.7557 71.597 68.3747 72.5841 67.2248C73.5566 66.0755 74.8271 65.4735 76.3954 65.4187ZM92.6566 62.8477L92.8555 68.5422L96.0875 68.4293C96.8644 68.4022 97.5286 68.0928 98.0803 67.5012C98.6179 66.9248 98.8731 66.2481 98.846 65.4712C98.8193 64.709 98.5175 64.0518 97.9406 63.4996C97.3495 62.9626 96.6655 62.7077 95.8887 62.7348L92.6566 62.8477ZM90.4714 60.7887L95.8142 60.6021C97.192 60.554 98.3815 60.9967 99.3827 61.9304C100.384 62.864 100.909 64.0197 100.957 65.3975C101.005 66.7754 100.562 67.9649 99.6284 68.9661C98.6953 69.9819 97.5398 70.5139 96.162 70.562L92.93 70.6749L93.1196 76.1056L91.0089 76.1793L90.4714 60.7887ZM102.831 64.7597L104.876 64.6883L104.931 66.2714C104.973 66.2112 105.022 66.1508 105.079 66.0901C105.135 66.0148 105.191 65.9468 105.248 65.8861C105.601 65.5068 106.001 65.1847 106.447 64.9197C107.137 64.5286 107.937 64.3173 108.846 64.2855L108.92 66.4182C107.88 66.4546 107.004 66.8153 106.295 67.5005C105.571 68.2009 105.19 69.08 105.154 70.1379L105.347 75.6786L103.215 75.753L102.831 64.7597ZM111.077 75.4785L110.693 64.4852L112.804 64.4115L113.188 75.4048L111.077 75.4785ZM112.965 60.8177C112.978 61.1841 112.864 61.4963 112.623 61.7542C112.369 62.0272 112.058 62.1701 111.692 62.1829C111.325 62.1957 111.013 62.0746 110.754 61.8194C110.482 61.5795 110.339 61.2762 110.326 60.9098C110.314 60.5434 110.435 60.2236 110.689 59.9506C110.93 59.6927 111.233 59.5573 111.6 59.5445C111.966 59.5317 112.285 59.6453 112.558 59.8853C112.816 60.1404 112.952 60.4512 112.965 60.8177ZM120.736 63.8703C122.289 63.8161 123.613 64.3275 124.708 65.4046L123.288 66.9732C122.603 66.2926 121.778 65.9692 120.81 66.003C119.813 66.0378 119.012 66.4107 118.406 67.1216C117.8 67.8472 117.515 68.723 117.551 69.7491C117.586 70.7604 117.932 71.6142 118.587 72.3105C119.241 72.9774 120.067 73.2934 121.064 73.2586C122.031 73.2248 122.832 72.8446 123.467 72.118L124.993 73.5837C123.977 74.7345 122.692 75.337 121.138 75.3913C119.57 75.4461 118.238 74.9349 117.144 73.8578C116.064 72.7655 115.496 71.4205 115.44 69.8228C115.384 68.2104 115.857 66.8291 116.858 65.6787C117.875 64.5279 119.167 63.9251 120.736 63.8703ZM136.912 69.9535L128.602 70.2437C128.703 70.6364 128.84 70.9911 129.013 71.308C129.2 71.6243 129.437 71.9022 129.724 72.1417C130.359 72.6625 131.101 72.9081 131.952 72.8784C133.197 72.8349 134.16 72.4491 134.839 71.7209L136.387 73.1858C135.312 74.3387 133.858 74.9471 132.026 75.0111C130.443 75.0664 129.097 74.5557 127.988 73.4791C126.879 72.3878 126.296 71.0433 126.24 69.4456C126.184 67.8333 126.657 66.4519 127.659 65.3016C128.675 64.1508 129.967 63.548 131.536 63.4932C133.075 63.4394 134.333 63.9459 135.309 65.0124C136.3 66.0638 136.824 67.4177 136.882 69.074L136.912 69.9535ZM131.585 65.5387C130.75 65.5679 130.048 65.8639 129.481 66.4267C128.942 66.9592 128.62 67.6235 128.516 68.4196L134.54 68.2092C134.38 67.393 134.056 66.7439 133.57 66.2619C133.067 65.7511 132.406 65.51 131.585 65.5387Z" fill="white"/>
<g clip-path="url(#clip0_2004_324)">
<circle cx="153.465" cy="65.9933" r="8" transform="rotate(-2 153.465 65.9933)" fill="white"/>
<path d="M153.186 57.9981C157.602 57.8439 161.306 61.2984 161.46 65.7141C161.614 70.1298 158.16 73.8342 153.744 73.9884C149.328 74.1426 145.624 70.6882 145.47 66.2725C145.316 61.8568 148.77 58.1523 153.186 57.9981ZM153.577 69.1913C153.365 69.1987 153.164 69.2901 153.02 69.4452C152.875 69.6004 152.798 69.8067 152.805 70.0188C152.812 70.2308 152.904 70.4312 153.059 70.5759C153.214 70.7206 153.42 70.7978 153.633 70.7904C153.845 70.7829 154.045 70.6916 154.19 70.5364C154.334 70.3813 154.412 70.175 154.404 69.9629C154.397 69.7509 154.305 69.5505 154.15 69.4058C153.995 69.2611 153.789 69.1839 153.577 69.1913ZM153.311 61.596C152.543 61.6228 151.816 61.9539 151.292 62.5164C150.767 63.0789 150.488 63.8267 150.514 64.5954C150.522 64.8074 150.613 65.0079 150.768 65.1526C150.924 65.2973 151.13 65.3744 151.342 65.367C151.554 65.3596 151.754 65.2682 151.899 65.1131C152.044 64.9579 152.121 64.7516 152.113 64.5396C152.105 64.3037 152.162 64.0702 152.277 63.8639C152.391 63.6577 152.56 63.4866 152.764 63.3689C152.969 63.2512 153.202 63.1914 153.438 63.1959C153.673 63.2004 153.904 63.269 154.104 63.3944C154.303 63.5198 154.465 63.6973 154.572 63.9077C154.679 64.1182 154.726 64.3537 154.709 64.5891C154.692 64.8245 154.612 65.0508 154.476 65.2438C154.34 65.4367 154.154 65.5891 153.939 65.6846C153.406 65.9193 152.682 66.4985 152.714 67.4203L152.721 67.6202C152.729 67.8323 152.82 68.0327 152.975 68.1774C153.13 68.3221 153.337 68.3992 153.549 68.3918C153.761 68.3844 153.961 68.2931 154.106 68.1379C154.251 67.9827 154.328 67.7764 154.32 67.5644C154.314 67.3693 154.35 67.2704 154.516 67.1813L154.584 67.1469C155.2 66.874 155.701 66.3954 156.003 65.7933C156.304 65.1912 156.386 64.503 156.236 63.8468C156.085 63.1905 155.711 62.607 155.178 62.1964C154.644 61.7857 153.984 61.5734 153.311 61.596Z" fill="#5069DD"/>
</g>
<rect x="306.396" y="67" width="208" height="40" rx="20" transform="rotate(2 306.396 67)" fill="#3C1B68"/>
<path opacity="0.85" d="M324.268 82.3671L324.069 88.0616L327.301 88.1745C328.078 88.2016 328.762 87.9393 329.354 87.3876C329.93 86.8501 330.232 86.1929 330.259 85.416C330.286 84.6538 330.03 83.9772 329.493 83.3861C328.941 82.8091 328.277 82.5071 327.5 82.4799L324.268 82.3671ZM322.231 80.1607L327.574 80.3472C328.952 80.3953 330.108 80.92 331.041 81.9212C331.975 82.9224 332.418 84.1119 332.37 85.4897C332.322 86.8675 331.797 88.0233 330.796 88.9569C329.794 89.9052 328.604 90.3553 327.226 90.3072L323.994 90.1943L323.805 95.625L321.694 95.5513L322.231 80.1607ZM342.661 85.2767L344.639 85.3458L344.256 96.3391L342.277 96.27L342.329 94.7749C342.282 94.8467 342.229 94.9182 342.167 94.9894C342.121 95.0612 342.067 95.1254 342.007 95.1819C341.154 96.0474 340.047 96.4563 338.684 96.4087C337.115 96.354 335.845 95.7519 334.872 94.6026C333.886 93.4381 333.42 92.0571 333.476 90.4594C333.532 88.847 334.093 87.5018 335.158 86.4236C336.208 85.3449 337.518 84.833 339.086 84.8877C340.449 84.9353 341.525 85.4352 342.314 86.3873C342.385 86.4485 342.441 86.5165 342.483 86.5913C342.524 86.6661 342.566 86.7336 342.608 86.7938L342.661 85.2767ZM339.144 87.0031C338.148 86.9683 337.322 87.2916 336.667 87.9732C335.997 88.6542 335.645 89.5078 335.609 90.5338C335.573 91.5599 335.865 92.4359 336.486 93.162C337.091 93.8876 337.893 94.2678 338.889 94.3026C339.871 94.3369 340.675 94.0128 341.301 93.3302C341.621 92.9891 341.862 92.6086 342.023 92.1887C342.2 91.7546 342.297 91.281 342.315 90.768C342.333 90.2403 342.269 89.7611 342.123 89.3304C341.991 88.9002 341.777 88.5039 341.482 88.1413C340.906 87.4168 340.126 87.0374 339.144 87.0031ZM345.977 85.3926L348.308 85.4739L351.516 93.819L355.299 85.7181L357.586 85.7979L351.777 98.3408C351.571 98.7739 351.315 99.1612 351.01 99.5028C350.704 99.859 350.334 100.162 349.899 100.411C349.06 100.91 348.157 101.142 347.189 101.108L346.222 101.075L346.296 98.9639L347.263 98.9977C347.835 99.0177 348.353 98.889 348.818 98.6117C349.282 98.3491 349.633 97.9578 349.871 97.4378L350.3 96.5062L345.977 85.3926ZM358.801 91.3437L358.875 89.233L365.911 89.4787L365.837 91.5894L358.801 91.3437ZM377.058 86.4779L379.036 86.547L378.653 97.5403L376.674 97.4712L376.726 95.9761C376.679 96.0479 376.626 96.1194 376.564 96.1906C376.518 96.2624 376.464 96.3265 376.404 96.3831C375.551 97.2486 374.444 97.6575 373.081 97.6099C371.512 97.5551 370.242 96.9531 369.269 95.8038C368.283 94.6393 367.817 93.2582 367.873 91.6605C367.929 90.0482 368.49 88.7029 369.555 87.6248C370.605 86.5461 371.915 86.0341 373.483 86.0889C374.846 86.1365 375.922 86.6364 376.711 87.5885C376.782 87.6497 376.838 87.7177 376.88 87.7925C376.921 87.8673 376.963 87.9348 377.005 87.995L377.058 86.4779ZM373.541 88.2042C372.545 88.1694 371.719 88.4928 371.064 89.1744C370.394 89.8554 370.042 90.709 370.006 91.735C369.97 92.761 370.262 93.6371 370.883 94.3632C371.488 95.0888 372.29 95.469 373.286 95.5038C374.268 95.5381 375.072 95.2139 375.698 94.5314C376.018 94.1903 376.259 93.8098 376.42 93.3899C376.597 92.9558 376.694 92.4822 376.712 91.9692C376.73 91.4415 376.666 90.9623 376.52 90.5316C376.388 90.1014 376.174 89.705 375.879 89.3425C375.303 88.618 374.523 88.2385 373.541 88.2042ZM388.724 88.7785L386.699 89.4122C386.62 89.1452 386.444 88.919 386.172 88.7334C385.884 88.5619 385.557 88.4698 385.191 88.457C384.707 88.4401 384.329 88.5516 384.057 88.7916C383.784 89.0315 383.642 89.3274 383.629 89.6792C383.629 90.1194 383.961 90.4759 384.627 90.7487C384.786 90.7983 384.946 90.8552 385.105 90.9195C385.265 90.9691 385.432 91.0189 385.606 91.069C386.652 91.3697 387.437 91.7861 387.962 92.318C388.629 92.9724 388.946 93.7612 388.914 94.6847C388.877 95.74 388.437 96.5832 387.593 97.2141C386.824 97.789 385.883 98.057 384.769 98.0181C383.86 97.9863 383.076 97.7461 382.417 97.2975C381.742 96.8631 381.256 96.2737 380.96 95.5296L382.986 94.8739C383.312 95.6191 383.915 96.007 384.794 96.0377C385.366 96.0577 385.833 95.9199 386.195 95.6244C386.558 95.3289 386.747 94.9686 386.761 94.5435C386.764 94.0593 386.389 93.6573 385.637 93.3375C385.479 93.2439 385.313 93.1647 385.139 93.1C384.965 93.0352 384.769 92.9697 384.551 92.9033C384.086 92.7844 383.659 92.6154 383.27 92.3963C382.896 92.1778 382.575 91.9318 382.305 91.6582C381.738 91.1101 381.468 90.4182 381.497 89.5827C381.531 88.63 381.91 87.8654 382.634 87.289C383.344 86.7268 384.211 86.4636 385.237 86.4994C386.131 86.5306 386.88 86.7475 387.482 87.1501C388.07 87.5522 388.484 88.095 388.724 88.7785ZM391.072 92.4707L391.146 90.36L398.182 90.6056L398.108 92.7164L391.072 92.4707ZM399.677 87.2678L402.007 87.3492L405.216 95.6942L408.999 87.5933L411.286 87.6732L405.477 100.216C405.271 100.649 405.015 101.036 404.709 101.378C404.404 101.734 404.033 102.037 403.599 102.286C402.76 102.785 401.857 103.017 400.889 102.984L399.922 102.95L399.995 100.839L400.963 100.873C401.534 100.893 402.053 100.764 402.517 100.487C402.981 100.224 403.333 99.833 403.571 99.313L404 98.3814L399.677 87.2678ZM417.405 89.758C416.409 89.7232 415.583 90.0393 414.929 90.7062C414.609 91.0472 414.36 91.4348 414.184 91.8689C414.008 92.2883 413.911 92.7545 413.893 93.2676C413.857 94.2789 414.142 95.1548 414.747 95.895C415.354 96.6059 416.155 96.9788 417.152 97.0136C418.149 97.0484 418.974 96.7324 419.629 96.0654C419.963 95.7249 420.211 95.3447 420.373 94.9247C420.549 94.4906 420.647 94.0171 420.665 93.504C420.7 92.478 420.415 91.6022 419.81 90.8766C419.203 90.1657 418.402 89.7928 417.405 89.758ZM417.48 87.6253C419.048 87.6801 420.341 88.2829 421.357 89.4337C422.359 90.5841 422.832 91.9654 422.775 93.5778C422.719 95.1754 422.152 96.5204 421.071 97.6127C419.977 98.6899 418.646 99.2011 417.077 99.1463C415.509 99.0915 414.217 98.4887 413.2 97.3379C412.199 96.1729 411.726 94.7916 411.782 93.1939C411.838 91.5815 412.406 90.2365 413.486 89.1589C414.58 88.0817 415.911 87.5705 417.48 87.6253ZM424.929 88.1496L427.062 88.2241L426.857 94.0945C426.823 95.0766 427.059 95.8773 427.566 96.4967C428.058 97.1009 428.708 97.4171 429.514 97.4453C430.291 97.4724 430.946 97.2018 431.479 96.6334C432.028 96.0508 432.319 95.2685 432.354 94.2865L432.559 88.416L434.691 88.4905L434.489 94.295C434.432 95.9073 433.918 97.2028 432.944 98.1814C431.956 99.1596 430.788 99.6251 429.439 99.578C428.061 99.5299 426.914 98.9835 425.996 97.9388C425.094 96.8947 424.67 95.5664 424.727 93.9541L424.929 88.1496ZM436.914 94.0715L436.987 91.9608L444.023 92.2065L443.949 94.3172L436.914 94.0715ZM454.058 84.5C454.6 84.5189 455.126 84.5886 455.635 84.7092C456.145 84.8297 456.63 85.0081 457.092 85.2443C457.568 85.4664 458.006 85.7385 458.406 86.0607C458.806 86.3682 459.175 86.7186 459.514 87.112L457.921 88.5973C456.908 87.3438 455.596 86.689 453.983 86.6327C452.4 86.5774 451.069 87.0959 449.989 88.1882C448.908 89.2952 448.339 90.6548 448.283 92.2672C448.227 93.8795 448.699 95.2755 449.7 96.4552C450.701 97.6201 451.993 98.2303 453.576 98.2856C455.174 98.3414 456.529 97.787 457.641 96.6224C458.022 96.2248 458.331 95.7806 458.568 95.2899C458.805 94.7993 458.97 94.2694 459.064 93.7003L454.996 93.5582L455.07 91.4475L461.424 91.6694L461.387 92.7248C461.311 94.8941 460.551 96.7167 459.105 98.1925C458.74 98.5613 458.347 98.8851 457.926 99.1639C457.506 99.4427 457.05 99.6836 456.558 99.8866C455.605 100.279 454.587 100.456 453.502 100.418C451.303 100.341 449.513 99.5085 448.13 97.9193C446.748 96.3154 446.095 94.4068 446.172 92.1935C446.25 89.9801 447.041 88.122 448.546 86.6189C450.037 85.13 451.874 84.4237 454.058 84.5ZM468.421 91.5395C467.424 91.5047 466.599 91.8208 465.944 92.4877C465.624 92.8287 465.376 93.2163 465.199 93.6504C465.023 94.0698 464.926 94.5361 464.908 95.0491C464.873 96.0605 465.158 96.9363 465.763 97.6765C466.369 98.3874 467.171 98.7603 468.168 98.7951C469.164 98.8299 469.99 98.5139 470.644 97.847C470.979 97.5064 471.227 97.1262 471.389 96.7062C471.565 96.2721 471.662 95.7986 471.68 95.2856C471.716 94.2595 471.431 93.3837 470.825 92.6581C470.219 91.9472 469.418 91.5743 468.421 91.5395ZM468.496 89.4068C470.064 89.4616 471.356 90.0644 472.373 91.2152C473.375 92.3656 473.847 93.7469 473.791 95.3593C473.735 96.957 473.167 98.302 472.087 99.3943C470.993 100.471 469.662 100.983 468.093 100.928C466.525 100.873 465.232 100.27 464.216 99.1194C463.215 97.9544 462.742 96.5731 462.798 94.9754C462.854 93.363 463.422 92.018 464.502 90.9404C465.596 89.8632 466.927 89.3521 468.496 89.4068Z" fill="white"/>
<g clip-path="url(#clip1_2004_324)">
<circle cx="491.085" cy="93.4617" r="8" fill="white"/>
<path d="M491.085 85.4617C495.503 85.4617 499.085 89.0433 499.085 93.4617C499.085 97.8801 495.503 101.462 491.085 101.462C486.667 101.462 483.085 97.8801 483.085 93.4617C483.085 89.0433 486.667 85.4617 491.085 85.4617ZM491.085 96.6617C490.873 96.6617 490.669 96.746 490.519 96.896C490.369 97.046 490.285 97.2495 490.285 97.4617C490.285 97.6738 490.369 97.8773 490.519 98.0274C490.669 98.1774 490.873 98.2617 491.085 98.2617C491.297 98.2617 491.501 98.1774 491.651 98.0274C491.801 97.8773 491.885 97.6738 491.885 97.4617C491.885 97.2495 491.801 97.046 491.651 96.896C491.501 96.746 491.297 96.6617 491.085 96.6617ZM491.085 89.0617C490.316 89.0617 489.578 89.3672 489.034 89.9111C488.49 90.4549 488.185 91.1925 488.185 91.9617C488.185 92.1738 488.269 92.3773 488.419 92.5274C488.569 92.6774 488.773 92.7617 488.985 92.7617C489.197 92.7617 489.401 92.6774 489.551 92.5274C489.701 92.3773 489.785 92.1738 489.785 91.9617C489.785 91.7257 489.85 91.4943 489.972 91.2921C490.093 91.09 490.268 90.9249 490.476 90.8144C490.685 90.7039 490.919 90.6523 491.155 90.665C491.391 90.6778 491.618 90.7544 491.814 90.8867C492.009 91.019 492.165 91.202 492.264 91.416C492.364 91.6301 492.403 91.8672 492.378 92.1018C492.352 92.3364 492.264 92.5598 492.121 92.7479C491.979 92.936 491.788 93.0818 491.569 93.1697C491.028 93.3857 490.285 93.9393 490.285 94.8617V95.0617C490.285 95.2738 490.369 95.4773 490.519 95.6274C490.669 95.7774 490.873 95.8617 491.085 95.8617C491.297 95.8617 491.501 95.7774 491.651 95.6274C491.801 95.4773 491.885 95.2738 491.885 95.0617C491.885 94.8665 491.925 94.7689 492.094 94.6857L492.163 94.6537C492.788 94.4024 493.306 93.9416 493.628 93.3504C493.95 92.7592 494.057 92.0743 493.929 91.4132C493.802 90.7521 493.448 90.1559 492.929 89.7268C492.41 89.2978 491.758 89.0626 491.085 89.0617Z" fill="#8E3ECD"/>
</g>
<path d="M54.7545 153.24H46.9785V173H43.6185V153.24H35.8425V150.12H54.7545V153.24ZM71.2745 155.36L75.7625 170.784L80.1865 155.36H83.4665L78.2425 173H73.6825L69.2985 158.36L64.9065 173H60.3465L55.1225 155.36H58.4825L62.9065 170.784L67.3945 155.36H71.2745ZM84.0988 164.176C84.0988 163.248 84.1921 162.373 84.3788 161.552C84.5654 160.731 84.8348 159.976 85.1868 159.288C85.5388 158.6 85.9681 157.984 86.4748 157.44C86.9814 156.891 87.5521 156.427 88.1868 156.048C88.8268 155.669 89.5281 155.381 90.2908 155.184C91.0534 154.981 91.8641 154.88 92.7228 154.88C93.5868 154.88 94.3974 154.981 95.1548 155.184C95.9174 155.381 96.6161 155.669 97.2508 156.048C97.8908 156.427 98.4641 156.891 98.9708 157.44C99.4774 157.984 99.9068 158.6 100.259 159.288C100.611 159.976 100.88 160.731 101.067 161.552C101.253 162.373 101.347 163.248 101.347 164.176C101.347 165.104 101.253 165.979 101.067 166.8C100.88 167.621 100.611 168.379 100.259 169.072C99.9068 169.76 99.4774 170.376 98.9708 170.92C98.4641 171.464 97.8908 171.928 97.2508 172.312C96.6161 172.691 95.9174 172.979 95.1548 173.176C94.3974 173.379 93.5868 173.48 92.7228 173.48C91.8641 173.48 91.0534 173.379 90.2908 173.176C89.5281 172.979 88.8268 172.691 88.1868 172.312C87.5521 171.928 86.9814 171.464 86.4748 170.92C85.9681 170.376 85.5388 169.76 85.1868 169.072C84.8348 168.379 84.5654 167.621 84.3788 166.8C84.1921 165.979 84.0988 165.104 84.0988 164.176ZM87.3388 164.176C87.3388 165.163 87.4614 166.051 87.7068 166.84C87.9574 167.624 88.3148 168.293 88.7788 168.848C89.2481 169.397 89.8161 169.819 90.4828 170.112C91.1494 170.405 91.8987 170.552 92.7308 170.552C93.5628 170.552 94.3094 170.405 94.9708 170.112C95.6374 169.819 96.2028 169.397 96.6668 168.848C97.1308 168.293 97.4854 167.624 97.7308 166.84C97.9814 166.051 98.1068 165.163 98.1068 164.176C98.1068 163.189 97.9814 162.304 97.7308 161.52C97.4854 160.731 97.1308 160.061 96.6668 159.512C96.2028 158.963 95.6374 158.541 94.9708 158.248C94.3094 157.955 93.5628 157.808 92.7308 157.808C91.8987 157.808 91.1494 157.955 90.4828 158.248C89.8161 158.541 89.2481 158.963 88.7788 159.512C88.3148 160.061 87.9574 160.731 87.7068 161.52C87.4614 162.304 87.3388 163.189 87.3388 164.176ZM121.526 172.864C120.177 173.269 118.961 173.472 117.878 173.472C116.998 173.472 116.22 173.336 115.542 173.064C114.87 172.797 114.305 172.4 113.846 171.872C113.388 171.339 113.038 170.68 112.798 169.896C112.564 169.107 112.446 168.195 112.446 167.16V158.08H110.046V155.36H112.446V151.296H115.686V155.36H121.526V158.08H115.686V167.168C115.686 168.336 115.905 169.2 116.342 169.76C116.785 170.315 117.478 170.592 118.422 170.592C118.79 170.592 119.228 170.549 119.734 170.464C120.246 170.379 120.844 170.245 121.526 170.064V172.864ZM140.603 155.36L133.299 174.112C132.931 175.051 132.502 175.861 132.011 176.544C131.526 177.227 130.966 177.789 130.331 178.232C129.702 178.68 128.995 179.011 128.211 179.224C127.433 179.437 126.566 179.544 125.611 179.544C125.35 179.544 125.097 179.536 124.851 179.52C124.606 179.504 124.369 179.483 124.139 179.456V176.624C124.422 176.661 124.683 176.688 124.923 176.704C125.169 176.72 125.403 176.728 125.627 176.728C126.694 176.728 127.563 176.52 128.235 176.104C128.907 175.688 129.411 175.024 129.747 174.112L129.971 173.52L122.971 155.36H126.331L131.795 170.048L137.323 155.36H140.603ZM145.551 160.792C145.781 159.885 146.101 159.069 146.511 158.344C146.922 157.613 147.407 156.992 147.967 156.48C148.527 155.968 149.154 155.573 149.847 155.296C150.546 155.019 151.295 154.88 152.095 154.88C152.821 154.88 153.509 154.984 154.159 155.192C154.81 155.4 155.41 155.699 155.959 156.088C156.514 156.477 157.013 156.949 157.455 157.504C157.903 158.053 158.282 158.672 158.591 159.36C158.901 160.048 159.138 160.797 159.303 161.608C159.474 162.419 159.559 163.275 159.559 164.176C159.559 165.077 159.474 165.933 159.303 166.744C159.138 167.555 158.901 168.307 158.591 169C158.282 169.688 157.903 170.309 157.455 170.864C157.013 171.413 156.514 171.883 155.959 172.272C155.41 172.661 154.81 172.96 154.159 173.168C153.509 173.376 152.821 173.48 152.095 173.48C151.295 173.48 150.546 173.341 149.847 173.064C149.154 172.787 148.527 172.392 147.967 171.88C147.407 171.368 146.922 170.747 146.511 170.016C146.101 169.285 145.781 168.467 145.551 167.56V179.04H142.311V155.36H145.551V160.792ZM145.551 164.176C145.551 165.184 145.674 166.088 145.919 166.888C146.17 167.683 146.53 168.357 146.999 168.912C147.469 169.467 148.039 169.893 148.711 170.192C149.383 170.485 150.143 170.632 150.991 170.632C151.855 170.632 152.618 170.493 153.279 170.216C153.946 169.933 154.503 169.52 154.951 168.976C155.399 168.427 155.738 167.752 155.967 166.952C156.202 166.147 156.319 165.221 156.319 164.176C156.319 163.131 156.202 162.208 155.967 161.408C155.738 160.603 155.399 159.928 154.951 159.384C154.503 158.84 153.946 158.429 153.279 158.152C152.618 157.869 151.855 157.728 150.991 157.728C150.143 157.728 149.383 157.875 148.711 158.168C148.039 158.461 147.469 158.885 146.999 159.44C146.53 159.995 146.17 160.672 145.919 161.472C145.674 162.267 145.551 163.168 145.551 164.176ZM178.086 167.152C177.856 168.139 177.499 169.024 177.014 169.808C176.528 170.592 175.936 171.256 175.238 171.8C174.544 172.344 173.755 172.76 172.87 173.048C171.984 173.336 171.024 173.48 169.99 173.48C169.126 173.48 168.31 173.379 167.542 173.176C166.779 172.973 166.075 172.683 165.43 172.304C164.79 171.92 164.214 171.456 163.702 170.912C163.195 170.363 162.763 169.744 162.406 169.056C162.054 168.363 161.784 167.605 161.598 166.784C161.411 165.957 161.318 165.08 161.318 164.152C161.318 163.224 161.411 162.352 161.598 161.536C161.784 160.72 162.051 159.968 162.398 159.28C162.75 158.592 163.176 157.976 163.678 157.432C164.179 156.888 164.747 156.427 165.382 156.048C166.016 155.669 166.712 155.381 167.47 155.184C168.227 154.981 169.032 154.88 169.886 154.88C171.15 154.88 172.291 155.099 173.31 155.536C174.328 155.968 175.198 156.584 175.918 157.384C176.638 158.184 177.192 159.152 177.582 160.288C177.971 161.424 178.166 162.696 178.166 164.104C178.166 164.307 178.16 164.507 178.149 164.704C178.144 164.901 178.131 165.12 178.11 165.36H164.622C164.718 166.165 164.91 166.891 165.198 167.536C165.491 168.176 165.87 168.72 166.334 169.168C166.803 169.616 167.352 169.96 167.982 170.2C168.611 170.435 169.307 170.552 170.07 170.552C171.243 170.552 172.224 170.269 173.014 169.704C173.803 169.133 174.414 168.283 174.846 167.152H178.086ZM174.814 162.56C174.707 161.792 174.52 161.115 174.254 160.528C173.987 159.936 173.646 159.44 173.23 159.04C172.814 158.635 172.326 158.328 171.766 158.12C171.211 157.912 170.59 157.808 169.902 157.808C169.198 157.808 168.552 157.917 167.966 158.136C167.379 158.349 166.862 158.661 166.414 159.072C165.971 159.477 165.603 159.976 165.31 160.568C165.016 161.155 164.808 161.819 164.686 162.56H174.814ZM187.479 154.88C188.679 154.88 189.746 155.016 190.679 155.288C191.618 155.56 192.407 155.949 193.047 156.456C193.693 156.957 194.183 157.568 194.519 158.288C194.855 159.003 195.023 159.805 195.023 160.696H191.855C191.855 160.243 191.759 159.832 191.567 159.464C191.381 159.091 191.101 158.773 190.727 158.512C190.359 158.245 189.903 158.04 189.359 157.896C188.815 157.752 188.189 157.68 187.479 157.68C186.839 157.68 186.255 157.739 185.727 157.856C185.205 157.973 184.754 158.141 184.375 158.36C183.997 158.573 183.703 158.832 183.495 159.136C183.287 159.435 183.183 159.768 183.183 160.136C183.183 160.413 183.242 160.659 183.359 160.872C183.477 161.08 183.637 161.261 183.839 161.416C184.042 161.571 184.279 161.704 184.551 161.816C184.823 161.923 185.114 162.016 185.423 162.096C185.738 162.176 186.063 162.245 186.399 162.304C186.735 162.357 187.066 162.411 187.391 162.464L188.575 162.648C189.066 162.723 189.581 162.811 190.119 162.912C190.663 163.008 191.197 163.139 191.719 163.304C192.247 163.464 192.749 163.669 193.223 163.92C193.703 164.165 194.125 164.475 194.487 164.848C194.85 165.221 195.138 165.669 195.351 166.192C195.565 166.709 195.671 167.325 195.671 168.04C195.671 168.909 195.501 169.683 195.159 170.36C194.818 171.032 194.314 171.6 193.647 172.064C192.981 172.528 192.157 172.88 191.175 173.12C190.194 173.36 189.061 173.48 187.775 173.48C186.437 173.48 185.263 173.349 184.255 173.088C183.247 172.827 182.407 172.443 181.735 171.936C181.063 171.429 180.557 170.808 180.215 170.072C179.879 169.331 179.711 168.48 179.711 167.52H182.871C182.871 168.533 183.271 169.315 184.071 169.864C184.871 170.408 186.103 170.68 187.767 170.68C188.519 170.68 189.189 170.624 189.775 170.512C190.362 170.4 190.858 170.235 191.263 170.016C191.669 169.797 191.978 169.528 192.191 169.208C192.405 168.888 192.511 168.523 192.511 168.112C192.511 167.792 192.45 167.512 192.327 167.272C192.205 167.027 192.034 166.816 191.815 166.64C191.597 166.459 191.338 166.304 191.039 166.176C190.746 166.043 190.426 165.928 190.079 165.832C189.733 165.736 189.37 165.653 188.991 165.584C188.618 165.509 188.239 165.44 187.855 165.376L186.679 165.176C186.231 165.101 185.757 165.016 185.255 164.92C184.754 164.819 184.255 164.693 183.759 164.544C183.269 164.389 182.797 164.197 182.343 163.968C181.895 163.733 181.498 163.445 181.151 163.104C180.81 162.763 180.535 162.355 180.327 161.88C180.125 161.405 180.023 160.848 180.023 160.208C180.023 159.397 180.194 158.664 180.535 158.008C180.882 157.352 181.375 156.792 182.015 156.328C182.661 155.864 183.442 155.507 184.359 155.256C185.282 155.005 186.322 154.88 187.479 154.88ZM204.474 164.176C204.474 163.248 204.567 162.373 204.754 161.552C204.94 160.731 205.21 159.976 205.562 159.288C205.914 158.6 206.343 157.984 206.85 157.44C207.356 156.891 207.927 156.427 208.562 156.048C209.202 155.669 209.903 155.381 210.666 155.184C211.428 154.981 212.239 154.88 213.098 154.88C213.962 154.88 214.772 154.981 215.53 155.184C216.292 155.381 216.991 155.669 217.626 156.048C218.266 156.427 218.839 156.891 219.346 157.44C219.852 157.984 220.282 158.6 220.634 159.288C220.986 159.976 221.255 160.731 221.442 161.552C221.628 162.373 221.722 163.248 221.722 164.176C221.722 165.104 221.628 165.979 221.442 166.8C221.255 167.621 220.986 168.379 220.634 169.072C220.282 169.76 219.852 170.376 219.346 170.92C218.839 171.464 218.266 171.928 217.626 172.312C216.991 172.691 216.292 172.979 215.53 173.176C214.772 173.379 213.962 173.48 213.098 173.48C212.239 173.48 211.428 173.379 210.666 173.176C209.903 172.979 209.202 172.691 208.562 172.312C207.927 171.928 207.356 171.464 206.85 170.92C206.343 170.376 205.914 169.76 205.562 169.072C205.21 168.379 204.94 167.621 204.754 166.8C204.567 165.979 204.474 165.104 204.474 164.176ZM207.714 164.176C207.714 165.163 207.836 166.051 208.082 166.84C208.332 167.624 208.69 168.293 209.154 168.848C209.623 169.397 210.191 169.819 210.858 170.112C211.524 170.405 212.274 170.552 213.106 170.552C213.938 170.552 214.684 170.405 215.346 170.112C216.012 169.819 216.578 169.397 217.042 168.848C217.506 168.293 217.86 167.624 218.106 166.84C218.356 166.051 218.482 165.163 218.482 164.176C218.482 163.189 218.356 162.304 218.106 161.52C217.86 160.731 217.506 160.061 217.042 159.512C216.578 158.963 216.012 158.541 215.346 158.248C214.684 157.955 213.938 157.808 213.106 157.808C212.274 157.808 211.524 157.955 210.858 158.248C210.191 158.541 209.623 158.963 209.154 159.512C208.69 160.061 208.332 160.731 208.082 161.52C207.836 162.304 207.714 163.189 207.714 164.176ZM225.508 158.08H222.828V155.36H225.508V154.96C225.508 153.872 225.644 152.912 225.916 152.08C226.188 151.248 226.588 150.552 227.116 149.992C227.649 149.427 228.308 149 229.092 148.712C229.876 148.424 230.782 148.28 231.812 148.28C232.697 148.28 233.646 148.384 234.66 148.592V151.392C233.726 151.2 232.929 151.104 232.268 151.104C231.03 151.104 230.108 151.424 229.5 152.064C228.892 152.704 228.588 153.669 228.588 154.96V155.36H234.668V158.08H228.748V173H225.508V158.08ZM247.364 160.792C247.593 159.885 247.913 159.069 248.324 158.344C248.734 157.613 249.22 156.992 249.78 156.48C250.34 155.968 250.966 155.573 251.66 155.296C252.358 155.019 253.108 154.88 253.908 154.88C254.633 154.88 255.321 154.984 255.972 155.192C256.622 155.4 257.222 155.699 257.772 156.088C258.326 156.477 258.825 156.949 259.268 157.504C259.716 158.053 260.094 158.672 260.404 159.36C260.713 160.048 260.95 160.797 261.116 161.608C261.286 162.419 261.372 163.275 261.372 164.176C261.372 165.077 261.286 165.933 261.116 166.744C260.95 167.555 260.713 168.307 260.404 169C260.094 169.688 259.716 170.309 259.268 170.864C258.825 171.413 258.326 171.883 257.772 172.272C257.222 172.661 256.622 172.96 255.972 173.168C255.321 173.376 254.633 173.48 253.908 173.48C253.108 173.48 252.358 173.341 251.66 173.064C250.966 172.787 250.34 172.392 249.78 171.88C249.22 171.368 248.734 170.747 248.324 170.016C247.913 169.285 247.593 168.467 247.364 167.56V179.04H244.124V155.36H247.364V160.792ZM247.364 164.176C247.364 165.184 247.486 166.088 247.732 166.888C247.982 167.683 248.342 168.357 248.812 168.912C249.281 169.467 249.852 169.893 250.524 170.192C251.196 170.485 251.956 170.632 252.804 170.632C253.668 170.632 254.43 170.493 255.092 170.216C255.758 169.933 256.316 169.52 256.764 168.976C257.212 168.427 257.55 167.752 257.78 166.952C258.014 166.147 258.132 165.221 258.132 164.176C258.132 163.131 258.014 162.208 257.78 161.408C257.55 160.603 257.212 159.928 256.764 159.384C256.316 158.84 255.758 158.429 255.092 158.152C254.43 157.869 253.668 157.728 252.804 157.728C251.956 157.728 251.196 157.875 250.524 158.168C249.852 158.461 249.281 158.885 248.812 159.44C248.342 159.995 247.982 160.672 247.732 161.472C247.486 162.267 247.364 163.168 247.364 164.176ZM266.77 173H263.53V155.36H266.77V160.992C266.978 160.112 267.274 159.325 267.658 158.632C268.047 157.933 268.527 157.341 269.098 156.856C269.669 156.371 270.327 156 271.074 155.744C271.826 155.488 272.669 155.36 273.602 155.36H274.41V158.448H273.61C272.319 158.448 271.237 158.568 270.362 158.808C269.487 159.043 268.783 159.4 268.25 159.88C267.722 160.36 267.343 160.965 267.114 161.696C266.885 162.421 266.77 163.275 266.77 164.256V173ZM275.411 164.176C275.411 163.248 275.505 162.373 275.691 161.552C275.878 160.731 276.147 159.976 276.499 159.288C276.851 158.6 277.281 157.984 277.787 157.44C278.294 156.891 278.865 156.427 279.499 156.048C280.139 155.669 280.841 155.381 281.603 155.184C282.366 154.981 283.177 154.88 284.035 154.88C284.899 154.88 285.71 154.981 286.467 155.184C287.23 155.381 287.929 155.669 288.563 156.048C289.203 156.427 289.777 156.891 290.283 157.44C290.79 157.984 291.219 158.6 291.571 159.288C291.923 159.976 292.193 160.731 292.379 161.552C292.566 162.373 292.659 163.248 292.659 164.176C292.659 165.104 292.566 165.979 292.379 166.8C292.193 167.621 291.923 168.379 291.571 169.072C291.219 169.76 290.79 170.376 290.283 170.92C289.777 171.464 289.203 171.928 288.563 172.312C287.929 172.691 287.23 172.979 286.467 173.176C285.71 173.379 284.899 173.48 284.035 173.48C283.177 173.48 282.366 173.379 281.603 173.176C280.841 172.979 280.139 172.691 279.499 172.312C278.865 171.928 278.294 171.464 277.787 170.92C277.281 170.376 276.851 169.76 276.499 169.072C276.147 168.379 275.878 167.621 275.691 166.8C275.505 165.979 275.411 165.104 275.411 164.176ZM278.651 164.176C278.651 165.163 278.774 166.051 279.019 166.84C279.27 167.624 279.627 168.293 280.091 168.848C280.561 169.397 281.129 169.819 281.795 170.112C282.462 170.405 283.211 170.552 284.043 170.552C284.875 170.552 285.622 170.405 286.283 170.112C286.95 169.819 287.515 169.397 287.979 168.848C288.443 168.293 288.798 167.624 289.043 166.84C289.294 166.051 289.419 165.163 289.419 164.176C289.419 163.189 289.294 162.304 289.043 161.52C288.798 160.731 288.443 160.061 287.979 159.512C287.515 158.963 286.95 158.541 286.283 158.248C285.622 157.955 284.875 157.808 284.043 157.808C283.211 157.808 282.462 157.955 281.795 158.248C281.129 158.541 280.561 158.963 280.091 159.512C279.627 160.061 279.27 160.731 279.019 161.52C278.774 162.304 278.651 163.189 278.651 164.176ZM305.401 172.864C304.052 173.269 302.836 173.472 301.753 173.472C300.873 173.472 300.095 173.336 299.417 173.064C298.745 172.797 298.18 172.4 297.721 171.872C297.263 171.339 296.913 170.68 296.673 169.896C296.439 169.107 296.321 168.195 296.321 167.16V158.08H293.921V155.36H296.321V151.296H299.561V155.36H305.401V158.08H299.561V167.168C299.561 168.336 299.78 169.2 300.217 169.76C300.66 170.315 301.353 170.592 302.297 170.592C302.665 170.592 303.103 170.549 303.609 170.464C304.121 170.379 304.719 170.245 305.401 170.064V172.864ZM323.336 167.152C323.106 168.139 322.749 169.024 322.264 169.808C321.778 170.592 321.186 171.256 320.488 171.8C319.794 172.344 319.005 172.76 318.12 173.048C317.234 173.336 316.274 173.48 315.24 173.48C314.376 173.48 313.56 173.379 312.792 173.176C312.029 172.973 311.325 172.683 310.68 172.304C310.04 171.92 309.464 171.456 308.952 170.912C308.445 170.363 308.013 169.744 307.656 169.056C307.304 168.363 307.034 167.605 306.848 166.784C306.661 165.957 306.568 165.08 306.568 164.152C306.568 163.224 306.661 162.352 306.848 161.536C307.034 160.72 307.301 159.968 307.648 159.28C308 158.592 308.426 157.976 308.928 157.432C309.429 156.888 309.997 156.427 310.632 156.048C311.266 155.669 311.962 155.381 312.72 155.184C313.477 154.981 314.282 154.88 315.136 154.88C316.4 154.88 317.541 155.099 318.56 155.536C319.578 155.968 320.448 156.584 321.168 157.384C321.888 158.184 322.442 159.152 322.832 160.288C323.221 161.424 323.416 162.696 323.416 164.104C323.416 164.307 323.41 164.507 323.399 164.704C323.394 164.901 323.381 165.12 323.36 165.36H309.872C309.968 166.165 310.16 166.891 310.448 167.536C310.741 168.176 311.12 168.72 311.584 169.168C312.053 169.616 312.602 169.96 313.232 170.2C313.861 170.435 314.557 170.552 315.32 170.552C316.493 170.552 317.474 170.269 318.264 169.704C319.053 169.133 319.664 168.283 320.096 167.152H323.336ZM320.064 162.56C319.957 161.792 319.77 161.115 319.504 160.528C319.237 159.936 318.896 159.44 318.48 159.04C318.064 158.635 317.576 158.328 317.016 158.12C316.461 157.912 315.84 157.808 315.152 157.808C314.448 157.808 313.802 157.917 313.216 158.136C312.629 158.349 312.112 158.661 311.664 159.072C311.221 159.477 310.853 159.976 310.56 160.568C310.266 161.155 310.058 161.819 309.936 162.56H320.064ZM328.401 164.176C328.401 165.163 328.524 166.051 328.769 166.84C329.02 167.624 329.377 168.293 329.841 168.848C330.311 169.397 330.879 169.819 331.545 170.112C332.212 170.405 332.961 170.552 333.793 170.552C334.524 170.552 335.169 170.443 335.729 170.224C336.289 170.005 336.772 169.707 337.177 169.328C337.583 168.944 337.911 168.499 338.161 167.992C338.412 167.48 338.591 166.933 338.697 166.352H341.937C341.852 167.019 341.7 167.659 341.481 168.272C341.263 168.885 340.983 169.456 340.641 169.984C340.3 170.512 339.897 170.992 339.433 171.424C338.975 171.851 338.457 172.219 337.881 172.528C337.305 172.832 336.676 173.067 335.993 173.232C335.311 173.397 334.575 173.48 333.785 173.48C332.927 173.48 332.116 173.379 331.353 173.176C330.591 172.979 329.889 172.691 329.249 172.312C328.615 171.928 328.044 171.464 327.537 170.92C327.031 170.376 326.601 169.76 326.249 169.072C325.897 168.379 325.628 167.621 325.441 166.8C325.255 165.979 325.161 165.104 325.161 164.176C325.161 163.248 325.255 162.373 325.441 161.552C325.628 160.731 325.897 159.976 326.249 159.288C326.601 158.6 327.031 157.984 327.537 157.44C328.044 156.891 328.615 156.427 329.249 156.048C329.889 155.669 330.591 155.381 331.353 155.184C332.116 154.981 332.927 154.88 333.785 154.88C334.575 154.88 335.311 154.963 335.993 155.128C336.681 155.293 337.313 155.531 337.889 155.84C338.465 156.144 338.983 156.512 339.441 156.944C339.905 157.371 340.305 157.848 340.641 158.376C340.983 158.904 341.263 159.475 341.481 160.088C341.7 160.701 341.852 161.341 341.937 162.008H338.697C338.591 161.427 338.412 160.883 338.161 160.376C337.916 159.864 337.591 159.419 337.185 159.04C336.78 158.656 336.295 158.355 335.729 158.136C335.169 157.917 334.524 157.808 333.793 157.808C332.961 157.808 332.212 157.955 331.545 158.248C330.879 158.541 330.311 158.963 329.841 159.512C329.377 160.061 329.02 160.731 328.769 161.52C328.524 162.304 328.401 163.189 328.401 164.176ZM354.683 172.864C353.333 173.269 352.117 173.472 351.035 173.472C350.155 173.472 349.376 173.336 348.699 173.064C348.027 172.797 347.461 172.4 347.003 171.872C346.544 171.339 346.195 170.68 345.955 169.896C345.72 169.107 345.603 168.195 345.603 167.16V158.08H343.203V155.36H345.603V151.296H348.843V155.36H354.683V158.08H348.843V167.168C348.843 168.336 349.061 169.2 349.499 169.76C349.941 170.315 350.635 170.592 351.579 170.592C351.947 170.592 352.384 170.549 352.891 170.464C353.403 170.379 354 170.245 354.683 170.064V172.864ZM360.288 153.32H356.888V149.32H360.288V153.32ZM360.207 173H356.968V155.36H360.207V173ZM362.38 164.176C362.38 163.248 362.473 162.373 362.66 161.552C362.847 160.731 363.116 159.976 363.468 159.288C363.82 158.6 364.249 157.984 364.756 157.44C365.263 156.891 365.833 156.427 366.468 156.048C367.108 155.669 367.809 155.381 368.572 155.184C369.335 154.981 370.145 154.88 371.004 154.88C371.868 154.88 372.679 154.981 373.436 155.184C374.199 155.381 374.897 155.669 375.532 156.048C376.172 156.427 376.745 156.891 377.252 157.44C377.759 157.984 378.188 158.6 378.54 159.288C378.892 159.976 379.161 160.731 379.348 161.552C379.535 162.373 379.628 163.248 379.628 164.176C379.628 165.104 379.535 165.979 379.348 166.8C379.161 167.621 378.892 168.379 378.54 169.072C378.188 169.76 377.759 170.376 377.252 170.92C376.745 171.464 376.172 171.928 375.532 172.312C374.897 172.691 374.199 172.979 373.436 173.176C372.679 173.379 371.868 173.48 371.004 173.48C370.145 173.48 369.335 173.379 368.572 173.176C367.809 172.979 367.108 172.691 366.468 172.312C365.833 171.928 365.263 171.464 364.756 170.92C364.249 170.376 363.82 169.76 363.468 169.072C363.116 168.379 362.847 167.621 362.66 166.8C362.473 165.979 362.38 165.104 362.38 164.176ZM365.62 164.176C365.62 165.163 365.743 166.051 365.988 166.84C366.239 167.624 366.596 168.293 367.06 168.848C367.529 169.397 368.097 169.819 368.764 170.112C369.431 170.405 370.18 170.552 371.012 170.552C371.844 170.552 372.591 170.405 373.252 170.112C373.919 169.819 374.484 169.397 374.948 168.848C375.412 168.293 375.767 167.624 376.012 166.84C376.263 166.051 376.388 165.163 376.388 164.176C376.388 163.189 376.263 162.304 376.012 161.52C375.767 160.731 375.412 160.061 374.948 159.512C374.484 158.963 373.919 158.541 373.252 158.248C372.591 157.955 371.844 157.808 371.012 157.808C370.18 157.808 369.431 157.955 368.764 158.248C368.097 158.541 367.529 158.963 367.06 159.512C366.596 160.061 366.239 160.731 365.988 161.52C365.743 162.304 365.62 163.189 365.62 164.176ZM385.02 173H381.78V155.36H385.02V160.456C385.233 159.587 385.54 158.808 385.94 158.12C386.34 157.432 386.82 156.848 387.38 156.368C387.94 155.888 388.572 155.52 389.276 155.264C389.985 155.008 390.751 154.88 391.572 154.88C392.575 154.88 393.473 155.069 394.268 155.448C395.063 155.827 395.735 156.373 396.284 157.088C396.839 157.797 397.26 158.664 397.548 159.688C397.841 160.707 397.988 161.856 397.988 163.136V173H394.748V163.136C394.748 161.365 394.372 160.035 393.62 159.144C392.868 158.253 391.735 157.808 390.22 157.808C389.404 157.808 388.673 157.936 388.028 158.192C387.388 158.443 386.844 158.811 386.396 159.296C385.953 159.776 385.612 160.368 385.372 161.072C385.137 161.771 385.02 162.565 385.02 163.456V173ZM409.695 158.08H407.015V155.36H409.695V154.96C409.695 153.872 409.831 152.912 410.103 152.08C410.375 151.248 410.775 150.552 411.303 149.992C411.836 149.427 412.495 149 413.279 148.712C414.063 148.424 414.97 148.28 415.999 148.28C416.884 148.28 417.834 148.384 418.847 148.592V151.392C417.914 151.2 417.116 151.104 416.455 151.104C415.218 151.104 414.295 151.424 413.687 152.064C413.079 152.704 412.775 153.669 412.775 154.96V155.36H418.855V158.08H412.935V173H409.695V158.08ZM424.114 173H420.874V155.36H424.114V160.992C424.322 160.112 424.618 159.325 425.002 158.632C425.391 157.933 425.871 157.341 426.442 156.856C427.012 156.371 427.671 156 428.418 155.744C429.17 155.488 430.012 155.36 430.946 155.36H431.754V158.448H430.954C429.663 158.448 428.58 158.568 427.706 158.808C426.831 159.043 426.127 159.4 425.594 159.88C425.066 160.36 424.687 160.965 424.458 161.696C424.228 162.421 424.114 163.275 424.114 164.256V173ZM432.755 164.176C432.755 163.248 432.848 162.373 433.035 161.552C433.222 160.731 433.491 159.976 433.843 159.288C434.195 158.6 434.624 157.984 435.131 157.44C435.638 156.891 436.208 156.427 436.843 156.048C437.483 155.669 438.184 155.381 438.947 155.184C439.71 154.981 440.52 154.88 441.379 154.88C442.243 154.88 443.054 154.981 443.811 155.184C444.574 155.381 445.272 155.669 445.907 156.048C446.547 156.427 447.12 156.891 447.627 157.44C448.134 157.984 448.563 158.6 448.915 159.288C449.267 159.976 449.536 160.731 449.723 161.552C449.91 162.373 450.003 163.248 450.003 164.176C450.003 165.104 449.91 165.979 449.723 166.8C449.536 167.621 449.267 168.379 448.915 169.072C448.563 169.76 448.134 170.376 447.627 170.92C447.12 171.464 446.547 171.928 445.907 172.312C445.272 172.691 444.574 172.979 443.811 173.176C443.054 173.379 442.243 173.48 441.379 173.48C440.52 173.48 439.71 173.379 438.947 173.176C438.184 172.979 437.483 172.691 436.843 172.312C436.208 171.928 435.638 171.464 435.131 170.92C434.624 170.376 434.195 169.76 433.843 169.072C433.491 168.379 433.222 167.621 433.035 166.8C432.848 165.979 432.755 165.104 432.755 164.176ZM435.995 164.176C435.995 165.163 436.118 166.051 436.363 166.84C436.614 167.624 436.971 168.293 437.435 168.848C437.904 169.397 438.472 169.819 439.139 170.112C439.806 170.405 440.555 170.552 441.387 170.552C442.219 170.552 442.966 170.405 443.627 170.112C444.294 169.819 444.859 169.397 445.323 168.848C445.787 168.293 446.142 167.624 446.387 166.84C446.638 166.051 446.763 165.163 446.763 164.176C446.763 163.189 446.638 162.304 446.387 161.52C446.142 160.731 445.787 160.061 445.323 159.512C444.859 158.963 444.294 158.541 443.627 158.248C442.966 157.955 442.219 157.808 441.387 157.808C440.555 157.808 439.806 157.955 439.139 158.248C438.472 158.541 437.904 158.963 437.435 159.512C436.971 160.061 436.614 160.731 436.363 161.52C436.118 162.304 435.995 163.189 435.995 164.176ZM455.395 173H452.155V155.36H455.395V160.272C455.603 159.429 455.891 158.675 456.259 158.008C456.632 157.341 457.075 156.776 457.587 156.312C458.099 155.848 458.675 155.493 459.315 155.248C459.955 155.003 460.648 154.88 461.395 154.88C462.184 154.88 462.902 155.019 463.547 155.296C464.198 155.568 464.768 155.965 465.259 156.488C465.755 157.011 466.163 157.651 466.483 158.408C466.808 159.16 467.04 160.013 467.179 160.968C467.35 160.024 467.616 159.176 467.979 158.424C468.342 157.672 468.784 157.035 469.307 156.512C469.835 155.984 470.438 155.581 471.115 155.304C471.792 155.021 472.528 154.88 473.323 154.88C474.251 154.88 475.08 155.069 475.811 155.448C476.547 155.827 477.168 156.373 477.675 157.088C478.187 157.797 478.576 158.664 478.843 159.688C479.115 160.707 479.251 161.856 479.251 163.136V173H476.011V163.136C476.011 161.365 475.675 160.035 475.003 159.144C474.336 158.253 473.326 157.808 471.971 157.808C471.246 157.808 470.595 157.936 470.019 158.192C469.443 158.443 468.955 158.811 468.555 159.296C468.155 159.776 467.848 160.368 467.635 161.072C467.427 161.771 467.323 162.565 467.323 163.456V173H464.083V163.136C464.083 161.365 463.747 160.035 463.075 159.144C462.408 158.253 461.398 157.808 460.043 157.808C459.318 157.808 458.667 157.936 458.091 158.192C457.515 158.443 457.027 158.811 456.627 159.296C456.227 159.776 455.92 160.368 455.707 161.072C455.499 161.771 455.395 162.565 455.395 163.456V173ZM169.163 211C169.248 209.688 169.382 208.44 169.563 207.256C169.75 206.067 169.995 204.923 170.299 203.824C170.608 202.72 170.987 201.648 171.435 200.608C171.888 199.568 172.424 198.536 173.043 197.512C173.667 196.483 174.382 195.453 175.187 194.424C175.998 193.389 176.915 192.328 177.939 191.24H164.083V188.12H181.347V191.4C180.371 192.403 179.496 193.373 178.723 194.312C177.955 195.245 177.272 196.184 176.675 197.128C176.083 198.067 175.568 199.032 175.131 200.024C174.699 201.016 174.331 202.069 174.027 203.184C173.728 204.299 173.483 205.499 173.291 206.784C173.099 208.069 172.95 209.475 172.843 211H169.163ZM202.011 210.864C200.661 211.269 199.445 211.472 198.363 211.472C197.483 211.472 196.704 211.336 196.027 211.064C195.355 210.797 194.789 210.4 194.331 209.872C193.872 209.339 193.523 208.68 193.283 207.896C193.048 207.107 192.931 206.195 192.931 205.16V196.08H190.531V193.36H192.931V189.296H196.171V193.36H202.011V196.08H196.171V205.168C196.171 206.336 196.389 207.2 196.827 207.76C197.269 208.315 197.963 208.592 198.907 208.592C199.275 208.592 199.712 208.549 200.219 208.464C200.731 208.379 201.328 208.245 202.011 208.064V210.864ZM203.177 202.176C203.177 201.248 203.27 200.373 203.457 199.552C203.644 198.731 203.913 197.976 204.265 197.288C204.617 196.6 205.046 195.984 205.553 195.44C206.06 194.891 206.63 194.427 207.265 194.048C207.905 193.669 208.606 193.381 209.369 193.184C210.132 192.981 210.942 192.88 211.801 192.88C212.665 192.88 213.476 192.981 214.233 193.184C214.996 193.381 215.694 193.669 216.329 194.048C216.969 194.427 217.542 194.891 218.049 195.44C218.556 195.984 218.985 196.6 219.337 197.288C219.689 197.976 219.958 198.731 220.145 199.552C220.332 200.373 220.425 201.248 220.425 202.176C220.425 203.104 220.332 203.979 220.145 204.8C219.958 205.621 219.689 206.379 219.337 207.072C218.985 207.76 218.556 208.376 218.049 208.92C217.542 209.464 216.969 209.928 216.329 210.312C215.694 210.691 214.996 210.979 214.233 211.176C213.476 211.379 212.665 211.48 211.801 211.48C210.942 211.48 210.132 211.379 209.369 211.176C208.606 210.979 207.905 210.691 207.265 210.312C206.63 209.928 206.06 209.464 205.553 208.92C205.046 208.376 204.617 207.76 204.265 207.072C203.913 206.379 203.644 205.621 203.457 204.8C203.27 203.979 203.177 203.104 203.177 202.176ZM206.417 202.176C206.417 203.163 206.54 204.051 206.785 204.84C207.036 205.624 207.393 206.293 207.857 206.848C208.326 207.397 208.894 207.819 209.561 208.112C210.228 208.405 210.977 208.552 211.809 208.552C212.641 208.552 213.388 208.405 214.049 208.112C214.716 207.819 215.281 207.397 215.745 206.848C216.209 206.293 216.564 205.624 216.809 204.84C217.06 204.051 217.185 203.163 217.185 202.176C217.185 201.189 217.06 200.304 216.809 199.52C216.564 198.731 216.209 198.061 215.745 197.512C215.281 196.963 214.716 196.541 214.049 196.248C213.388 195.955 212.641 195.808 211.809 195.808C210.977 195.808 210.228 195.955 209.561 196.248C208.894 196.541 208.326 196.963 207.857 197.512C207.393 198.061 207.036 198.731 206.785 199.52C206.54 200.304 206.417 201.189 206.417 202.176ZM238.892 211.472C238.028 211.472 237.212 211.392 236.444 211.232C235.676 211.072 234.967 210.843 234.316 210.544C233.671 210.24 233.09 209.875 232.572 209.448C232.06 209.016 231.626 208.531 231.268 207.992C230.911 207.448 230.636 206.856 230.444 206.216C230.252 205.571 230.156 204.888 230.156 204.168V203.976H233.516V204.136C233.516 204.765 233.644 205.339 233.9 205.856C234.162 206.373 234.527 206.819 234.996 207.192C235.466 207.56 236.028 207.845 236.684 208.048C237.34 208.251 238.066 208.352 238.86 208.352C239.996 208.352 241.004 208.141 241.884 207.72C242.77 207.293 243.514 206.672 244.116 205.856C244.719 205.035 245.178 204.029 245.492 202.84C245.807 201.645 245.964 200.28 245.964 198.744V196.28C245.852 197.144 245.583 197.917 245.156 198.6C244.735 199.283 244.175 199.864 243.476 200.344C242.778 200.819 241.951 201.184 240.996 201.44C240.042 201.691 238.978 201.816 237.804 201.816C236.524 201.816 235.378 201.664 234.364 201.36C233.351 201.056 232.49 200.619 231.78 200.048C231.076 199.477 230.538 198.781 230.164 197.96C229.791 197.139 229.604 196.208 229.604 195.168C229.604 194.032 229.826 193 230.268 192.072C230.716 191.144 231.348 190.352 232.164 189.696C232.986 189.04 233.975 188.533 235.132 188.176C236.29 187.819 237.578 187.64 238.996 187.64C240.66 187.64 242.132 187.891 243.412 188.392C244.692 188.893 245.77 189.627 246.644 190.592C247.519 191.557 248.18 192.744 248.628 194.152C249.082 195.555 249.308 197.16 249.308 198.968V199.16C249.308 201.08 249.068 202.8 248.588 204.32C248.114 205.84 247.428 207.131 246.532 208.192C245.636 209.253 244.543 210.067 243.252 210.632C241.967 211.192 240.514 211.472 238.892 211.472ZM238.644 190.76C237.732 190.76 236.922 190.856 236.212 191.048C235.508 191.235 234.914 191.515 234.428 191.888C233.948 192.256 233.583 192.712 233.332 193.256C233.087 193.795 232.964 194.416 232.964 195.12C232.964 195.813 233.087 196.432 233.332 196.976C233.578 197.515 233.935 197.968 234.404 198.336C234.879 198.704 235.46 198.984 236.148 199.176C236.836 199.368 237.626 199.464 238.516 199.464C239.487 199.464 240.383 199.355 241.204 199.136C242.026 198.912 242.735 198.603 243.332 198.208C243.93 197.813 244.396 197.347 244.732 196.808C245.068 196.264 245.236 195.669 245.236 195.024C245.236 194.395 245.076 193.819 244.756 193.296C244.436 192.773 243.986 192.325 243.404 191.952C242.823 191.573 242.127 191.28 241.316 191.072C240.511 190.864 239.62 190.76 238.644 190.76ZM251.542 199.56C251.542 198.376 251.654 197.261 251.878 196.216C252.102 195.165 252.422 194.2 252.838 193.32C253.259 192.435 253.771 191.643 254.374 190.944C254.977 190.24 255.657 189.645 256.414 189.16C257.177 188.669 258.009 188.293 258.91 188.032C259.811 187.771 260.769 187.64 261.782 187.64C262.801 187.64 263.758 187.771 264.654 188.032C265.555 188.293 266.385 188.669 267.142 189.16C267.905 189.645 268.587 190.24 269.19 190.944C269.793 191.643 270.302 192.435 270.718 193.32C271.139 194.2 271.462 195.165 271.686 196.216C271.91 197.261 272.022 198.376 272.022 199.56C272.022 200.739 271.91 201.853 271.686 202.904C271.462 203.955 271.139 204.923 270.718 205.808C270.302 206.688 269.793 207.48 269.19 208.184C268.587 208.883 267.905 209.477 267.142 209.968C266.385 210.453 265.555 210.827 264.654 211.088C263.753 211.349 262.795 211.48 261.782 211.48C260.769 211.48 259.811 211.349 258.91 211.088C258.009 210.827 257.177 210.453 256.414 209.968C255.657 209.477 254.977 208.883 254.374 208.184C253.771 207.48 253.259 206.688 252.838 205.808C252.422 204.923 252.102 203.955 251.878 202.904C251.654 201.853 251.542 200.739 251.542 199.56ZM254.902 199.56C254.902 200.936 255.059 202.168 255.374 203.256C255.689 204.344 256.142 205.267 256.734 206.024C257.326 206.776 258.046 207.355 258.894 207.76C259.747 208.16 260.71 208.36 261.782 208.36C262.854 208.36 263.814 208.16 264.662 207.76C265.515 207.355 266.238 206.776 266.83 206.024C267.422 205.267 267.875 204.344 268.19 203.256C268.505 202.168 268.662 200.936 268.662 199.56C268.662 198.184 268.505 196.952 268.19 195.864C267.875 194.776 267.422 193.856 266.83 193.104C266.238 192.347 265.515 191.768 264.662 191.368C263.814 190.963 262.854 190.76 261.782 190.76C260.71 190.76 259.747 190.963 258.894 191.368C258.046 191.768 257.326 192.347 256.734 193.104C256.142 193.856 255.689 194.776 255.374 195.864C255.059 196.952 254.902 198.184 254.902 199.56ZM298.456 187.32V211H295.216V205.56C294.987 206.467 294.667 207.285 294.256 208.016C293.845 208.747 293.36 209.368 292.8 209.88C292.24 210.392 291.611 210.787 290.912 211.064C290.219 211.341 289.472 211.48 288.672 211.48C287.947 211.48 287.259 211.376 286.608 211.168C285.957 210.96 285.355 210.661 284.8 210.272C284.251 209.883 283.752 209.413 283.304 208.864C282.861 208.309 282.485 207.688 282.176 207C281.867 206.307 281.627 205.555 281.456 204.744C281.291 203.933 281.208 203.077 281.208 202.176C281.208 201.275 281.291 200.419 281.456 199.608C281.627 198.797 281.867 198.048 282.176 197.36C282.485 196.672 282.861 196.053 283.304 195.504C283.752 194.949 284.251 194.477 284.8 194.088C285.355 193.699 285.957 193.4 286.608 193.192C287.259 192.984 287.947 192.88 288.672 192.88C289.472 192.88 290.219 193.019 290.912 193.296C291.611 193.573 292.24 193.968 292.8 194.48C293.36 194.992 293.845 195.613 294.256 196.344C294.667 197.069 294.987 197.885 295.216 198.792V187.32H298.456ZM295.216 202.176C295.216 201.168 295.091 200.267 294.84 199.472C294.595 198.672 294.237 197.995 293.768 197.44C293.299 196.885 292.728 196.461 292.056 196.168C291.384 195.875 290.624 195.728 289.776 195.728C288.912 195.728 288.147 195.869 287.48 196.152C286.819 196.429 286.264 196.84 285.816 197.384C285.368 197.928 285.027 198.603 284.792 199.408C284.563 200.208 284.448 201.131 284.448 202.176C284.448 203.221 284.563 204.147 284.792 204.952C285.027 205.752 285.368 206.427 285.816 206.976C286.264 207.52 286.819 207.933 287.48 208.216C288.147 208.493 288.912 208.632 289.776 208.632C290.624 208.632 291.384 208.485 292.056 208.192C292.728 207.893 293.299 207.467 293.768 206.912C294.237 206.357 294.595 205.683 294.84 204.888C295.091 204.088 295.216 203.184 295.216 202.176ZM301.054 199.504C301.054 198.491 301.241 197.576 301.614 196.76C301.988 195.944 302.521 195.248 303.214 194.672C303.913 194.096 304.756 193.653 305.742 193.344C306.734 193.035 307.849 192.88 309.086 192.88C310.393 192.88 311.564 193.056 312.598 193.408C313.633 193.755 314.51 194.256 315.23 194.912C315.95 195.568 316.502 196.371 316.886 197.32C317.27 198.264 317.462 199.336 317.462 200.536V211H314.222V206.256C314.009 207.067 313.684 207.795 313.246 208.44C312.814 209.085 312.286 209.635 311.662 210.088C311.044 210.536 310.337 210.88 309.542 211.12C308.748 211.36 307.886 211.48 306.958 211.48C305.993 211.48 305.116 211.352 304.326 211.096C303.537 210.84 302.86 210.48 302.294 210.016C301.734 209.552 301.3 208.995 300.99 208.344C300.686 207.688 300.534 206.96 300.534 206.16C300.534 205.355 300.692 204.629 301.006 203.984C301.326 203.339 301.782 202.792 302.374 202.344C302.972 201.891 303.694 201.544 304.542 201.304C305.396 201.064 306.353 200.944 307.414 200.944H314.222V200.536C314.222 199.811 314.1 199.157 313.854 198.576C313.614 197.989 313.27 197.493 312.822 197.088C312.374 196.677 311.83 196.363 311.19 196.144C310.55 195.925 309.83 195.816 309.03 195.816C308.214 195.816 307.508 195.904 306.91 196.08C306.318 196.256 305.828 196.507 305.438 196.832C305.054 197.152 304.766 197.539 304.574 197.992C304.388 198.445 304.294 198.949 304.294 199.504H301.054ZM307.382 203.664C306.182 203.664 305.273 203.867 304.654 204.272C304.041 204.672 303.734 205.267 303.734 206.056C303.734 206.472 303.822 206.843 303.998 207.168C304.18 207.493 304.444 207.765 304.79 207.984C305.137 208.203 305.564 208.371 306.07 208.488C306.582 208.6 307.169 208.656 307.83 208.656C308.769 208.656 309.628 208.547 310.406 208.328C311.19 208.104 311.865 207.795 312.43 207.4C312.996 207 313.436 206.525 313.75 205.976C314.065 205.421 314.222 204.813 314.222 204.152V203.664H307.382ZM335.556 193.36L328.252 212.112C327.884 213.051 327.455 213.861 326.964 214.544C326.479 215.227 325.919 215.789 325.284 216.232C324.655 216.68 323.948 217.011 323.164 217.224C322.386 217.437 321.519 217.544 320.564 217.544C320.303 217.544 320.05 217.536 319.804 217.52C319.559 217.504 319.322 217.483 319.092 217.456V214.624C319.375 214.661 319.636 214.688 319.876 214.704C320.122 214.72 320.356 214.728 320.58 214.728C321.647 214.728 322.516 214.52 323.188 214.104C323.86 213.688 324.364 213.024 324.7 212.112L324.924 211.52L317.924 193.36H321.284L326.748 208.048L332.276 193.36H335.556ZM343.87 192.88C345.07 192.88 346.137 193.016 347.07 193.288C348.009 193.56 348.798 193.949 349.438 194.456C350.083 194.957 350.574 195.568 350.91 196.288C351.246 197.003 351.414 197.805 351.414 198.696H348.246C348.246 198.243 348.15 197.832 347.958 197.464C347.771 197.091 347.491 196.773 347.118 196.512C346.75 196.245 346.294 196.04 345.75 195.896C345.206 195.752 344.579 195.68 343.87 195.68C343.23 195.68 342.646 195.739 342.118 195.856C341.595 195.973 341.145 196.141 340.766 196.36C340.387 196.573 340.094 196.832 339.886 197.136C339.678 197.435 339.574 197.768 339.574 198.136C339.574 198.413 339.633 198.659 339.75 198.872C339.867 199.08 340.027 199.261 340.23 199.416C340.433 199.571 340.67 199.704 340.942 199.816C341.214 199.923 341.505 200.016 341.814 200.096C342.129 200.176 342.454 200.245 342.79 200.304C343.126 200.357 343.457 200.411 343.782 200.464L344.966 200.648C345.457 200.723 345.971 200.811 346.51 200.912C347.054 201.008 347.587 201.139 348.11 201.304C348.638 201.464 349.139 201.669 349.614 201.92C350.094 202.165 350.515 202.475 350.878 202.848C351.241 203.221 351.529 203.669 351.742 204.192C351.955 204.709 352.062 205.325 352.062 206.04C352.062 206.909 351.891 207.683 351.55 208.36C351.209 209.032 350.705 209.6 350.038 210.064C349.371 210.528 348.547 210.88 347.566 211.12C346.585 211.36 345.451 211.48 344.166 211.48C342.827 211.48 341.654 211.349 340.646 211.088C339.638 210.827 338.798 210.443 338.126 209.936C337.454 209.429 336.947 208.808 336.606 208.072C336.27 207.331 336.102 206.48 336.102 205.52H339.262C339.262 206.533 339.662 207.315 340.462 207.864C341.262 208.408 342.494 208.68 344.158 208.68C344.91 208.68 345.579 208.624 346.166 208.512C346.753 208.4 347.249 208.235 347.654 208.016C348.059 207.797 348.369 207.528 348.582 207.208C348.795 206.888 348.902 206.523 348.902 206.112C348.902 205.792 348.841 205.512 348.718 205.272C348.595 205.027 348.425 204.816 348.206 204.64C347.987 204.459 347.729 204.304 347.43 204.176C347.137 204.043 346.817 203.928 346.47 203.832C346.123 203.736 345.761 203.653 345.382 203.584C345.009 203.509 344.63 203.44 344.246 203.376L343.07 203.176C342.622 203.101 342.147 203.016 341.646 202.92C341.145 202.819 340.646 202.693 340.15 202.544C339.659 202.389 339.187 202.197 338.734 201.968C338.286 201.733 337.889 201.445 337.542 201.104C337.201 200.763 336.926 200.355 336.718 199.88C336.515 199.405 336.414 198.848 336.414 198.208C336.414 197.397 336.585 196.664 336.926 196.008C337.273 195.352 337.766 194.792 338.406 194.328C339.051 193.864 339.833 193.507 340.75 193.256C341.673 193.005 342.713 192.88 343.87 192.88Z" fill="white"/>
<defs>
<clipPath id="clip0_2004_324">
<rect width="16" height="16" fill="white" transform="translate(145.191 58.2773) rotate(-2)"/>
</clipPath>
<clipPath id="clip1_2004_324">
<rect width="16" height="16" fill="white" transform="translate(483.085 85.4617)"/>
</clipPath>
</defs>
</svg>
