<svg width="501" height="119" viewBox="0 0 501 119" fill="none" xmlns="http://www.w3.org/2000/svg">
<path opacity="0.3" d="M4.67704 38.8195C3.30316 37.8934 1.43867 38.2565 0.512605 39.6303C-0.413465 41.0042 -0.0504386 42.8687 1.32345 43.7948L3.00024 41.3071L4.67704 38.8195ZM110.033 113.453L108.356 115.941L109.974 117.031L111.627 115.994L110.033 113.453ZM285.448 3.45288L286.83 0.790016L285.308 5.31673e-05L283.855 0.911269L285.448 3.45288ZM488 108.554L469.349 79.3628L453.394 110.111L488 108.554ZM3.00024 41.3071L1.32345 43.7948L108.356 115.941L110.033 113.453L111.71 110.965L4.67704 38.8195L3.00024 41.3071ZM110.033 113.453L111.627 115.994L287.042 5.99449L285.448 3.45288L283.855 0.911269L108.439 110.911L110.033 113.453ZM285.448 3.45288L284.067 6.11575L462.653 98.7815L464.034 96.1186L465.416 93.4557L286.83 0.790016L285.448 3.45288Z" fill="#D8563C"/>
<path opacity="0.3" d="M14.2012 98.613C12.8753 99.6066 12.6059 101.487 13.5995 102.813C14.5931 104.139 16.4734 104.408 17.7993 103.414L14.2012 98.613ZM110.587 30.1307L112.509 27.8267L110.687 26.3073L108.788 27.73L110.587 30.1307ZM212.896 115.453L210.974 117.757L212.454 118.991L214.192 118.158L212.896 115.453ZM285.766 80.5364L287.036 77.8181L285.75 77.2178L284.47 77.831L285.766 80.5364ZM350.433 110.727L349.164 113.446L350.733 114.178L352.152 113.186L350.433 110.727ZM501 5.45288L466.489 8.44838L486.339 36.8383L501 5.45288ZM16.0002 101.014L17.7993 103.414L112.386 32.5314L110.587 30.1307L108.788 27.73L14.2012 98.613L16.0002 101.014ZM110.587 30.1307L108.666 32.4346L210.974 117.757L212.896 115.453L214.817 113.149L112.509 27.8267L110.587 30.1307ZM212.896 115.453L214.192 118.158L287.063 83.2419L285.766 80.5364L284.47 77.831L211.599 112.747L212.896 115.453ZM285.766 80.5364L284.497 83.2547L349.164 113.446L350.433 110.727L351.702 108.009L287.036 77.8181L285.766 80.5364ZM350.433 110.727L352.152 113.186L480.592 23.3829L478.873 20.9243L477.153 18.4656L348.714 108.269L350.433 110.727Z" fill="#09AF8E"/>
<path d="M404.5 72.9529L418 63.4529" stroke="#17425C" stroke-width="6" stroke-linecap="round"/>
<path d="M45.5002 78.9529L55.5002 71.4529" stroke="#17425C" stroke-width="6" stroke-linecap="round"/>
<path d="M177 71.4529L157 83.9529" stroke="#552843" stroke-width="6" stroke-linecap="round"/>
</svg>
