<svg width="501" height="119" viewBox="0 0 501 119" fill="none" xmlns="http://www.w3.org/2000/svg">
<path opacity="0.3" d="M4.67704 38.8195C3.30316 37.8934 1.43867 38.2565 0.512605 39.6303C-0.413465 41.0042 -0.0504386 42.8687 1.32345 43.7948L3.00024 41.3071L4.67704 38.8195ZM110.033 113.453L108.356 115.941L109.974 117.031L111.627 115.994L110.033 113.453ZM285.448 3.45288L286.83 0.790016L285.308 5.31673e-05L283.855 0.911269L285.448 3.45288ZM488 108.554L469.349 79.3628L453.394 110.111L488 108.554ZM3.00024 41.3071L1.32345 43.7948L108.356 115.941L110.033 113.453L111.71 110.965L4.67704 38.8195L3.00024 41.3071ZM110.033 113.453L111.627 115.994L287.042 5.99449L285.448 3.45288L283.855 0.911269L108.439 110.911L110.033 113.453ZM285.448 3.45288L284.067 6.11575L462.653 98.7815L464.034 96.1186L465.416 93.4557L286.83 0.790016L285.448 3.45288Z" fill="#D8563C"/>
<path opacity="0.3" d="M14.2012 98.613C12.8753 99.6066 12.6059 101.487 13.5995 102.813C14.5931 104.139 16.4734 104.408 17.7993 103.414L14.2012 98.613ZM110.587 30.1307L112.509 27.8267L110.687 26.3073L108.788 27.73L110.587 30.1307ZM212.896 115.453L210.974 117.757L212.454 118.991L214.192 118.158L212.896 115.453ZM285.766 80.5364L287.036 77.8181L285.75 77.2178L284.47 77.831L285.766 80.5364ZM350.433 110.727L349.164 113.446L350.733 114.178L352.152 113.186L350.433 110.727ZM501 5.45288L466.489 8.44838L486.339 36.8383L501 5.45288ZM16.0002 101.014L17.7993 103.414L112.386 32.5314L110.587 30.1307L108.788 27.73L14.2012 98.613L16.0002 101.014ZM110.587 30.1307L108.666 32.4346L210.974 117.757L212.896 115.453L214.817 113.149L112.509 27.8267L110.587 30.1307ZM212.896 115.453L214.192 118.158L287.063 83.2419L285.766 80.5364L284.47 77.831L211.599 112.747L212.896 115.453ZM285.766 80.5364L284.497 83.2547L349.164 113.446L350.433 110.727L351.702 108.009L287.036 77.8181L285.766 80.5364ZM350.433 110.727L352.152 113.186L480.592 23.3829L478.873 20.9243L477.153 18.4656L348.714 108.269L350.433 110.727Z" fill="#09AF8E"/>
<path d="M404.5 72.9529L418 63.4529" stroke="#17425C" stroke-width="6" stroke-linecap="round"/>
<path d="M45.5002 78.9529L55.5002 71.4529" stroke="#17425C" stroke-width="6" stroke-linecap="round"/>
<path d="M177 71.4529L157 83.9529" stroke="#552843" stroke-width="6" stroke-linecap="round"/>
<path d="M252 109.453C251.417 109.453 250.875 109.411 250.375 109.326C249.875 109.242 249.375 109.115 248.875 108.947C237.625 105.149 228.667 98.1246 222 87.8731C215.334 77.6217 212 66.5871 212 54.7693V30.8453C212 28.7356 212.605 26.8368 213.815 25.1491C215.025 23.4613 216.587 22.2377 218.5 21.4782L248.5 10.0858C249.667 9.66385 250.834 9.45288 252 9.45288C253.167 9.45288 254.334 9.66385 255.5 10.0858L285.5 21.4782C287.417 22.2377 288.98 23.4613 290.19 25.1491C291.4 26.8368 292.004 28.7356 292 30.8453V54.7693C292 66.5837 288.667 77.6183 282 87.8731C275.334 98.128 266.375 105.152 255.125 108.947C254.625 109.115 254.125 109.242 253.625 109.326C253.125 109.411 252.584 109.453 252 109.453Z" fill="#5069DD"/>
<g clip-path="url(#clip0_412_2483)">
<path d="M252 77.4529C261.941 77.4529 270 69.394 270 59.4529C270 49.5118 261.941 41.4529 252 41.4529C242.059 41.4529 234 49.5118 234 59.4529C234 69.394 242.059 77.4529 252 77.4529Z" fill="#627EEA"/>
<path d="M252.561 45.9529V55.9316L260.995 59.7004L252.561 45.9529Z" fill="white" fill-opacity="0.602"/>
<path d="M252.56 45.9529L244.125 59.7004L252.56 55.9316V45.9529Z" fill="white"/>
<path d="M252.561 66.1669V72.9473L261 61.2709L252.561 66.1669Z" fill="white" fill-opacity="0.602"/>
<path d="M252.56 72.9473V66.1657L244.125 61.2709L252.56 72.9473Z" fill="white"/>
<path d="M252.561 64.5976L260.995 59.7005L252.561 55.934V64.5976Z" fill="white" fill-opacity="0.2"/>
<path d="M244.125 59.7005L252.56 64.5976V55.934L244.125 59.7005Z" fill="white" fill-opacity="0.602"/>
</g>
<defs>
<clipPath id="clip0_412_2483">
<rect width="36" height="36" fill="white" transform="translate(234 41.4529)"/>
</clipPath>
</defs>
</svg>
