<svg width="136" height="73" viewBox="0 0 136 73" fill="none" xmlns="http://www.w3.org/2000/svg">
<rect y="3.83899" width="110" height="38" rx="19" transform="rotate(-2 0 3.83899)" fill="#5069DD"/>
<path d="M16.1399 20.4209C16.1115 19.6074 16.1654 18.8387 16.3015 18.1148C16.4375 17.3873 16.6471 16.7159 16.9301 16.1007C17.2167 15.4816 17.5696 14.9245 17.9889 14.4292C18.4081 13.9303 18.8867 13.5045 19.4247 13.1518C19.9626 12.7955 20.5546 12.5162 21.2006 12.3138C21.8465 12.1115 22.5378 11.9975 23.2744 11.9717C24.0109 11.946 24.7085 12.0115 25.367 12.1683C26.0256 12.3251 26.6355 12.5625 27.197 12.8804C27.7583 13.1947 28.2654 13.586 28.7184 14.0545C29.1749 14.5192 29.5658 15.0504 29.8912 15.6481C30.2165 16.2421 30.4723 16.8972 30.6588 17.6135C30.8487 18.3259 30.9579 19.0889 30.9864 19.9024C31.0146 20.7123 30.9589 21.481 30.8192 22.2087C30.6832 22.9362 30.4737 23.6094 30.1908 24.2283C29.9078 24.8436 29.5549 25.4007 29.132 25.8998C28.7127 26.3951 28.2341 26.8209 27.6962 27.1772C27.1582 27.5298 26.5662 27.8073 25.9202 28.0097C25.2742 28.212 24.5829 28.326 23.8464 28.3518C23.1098 28.3775 22.4123 28.3119 21.7537 28.1552C21.0952 27.9984 20.4853 27.7629 19.924 27.4486C19.3625 27.1307 18.8554 26.7393 18.4026 26.2745C17.9496 25.806 17.5587 25.2748 17.2297 24.6809C16.9043 24.0833 16.6484 23.4263 16.462 22.71C16.2755 21.9938 16.1682 21.2307 16.1399 20.4209ZM18.4485 20.3403C18.4815 21.2857 18.6265 22.1281 18.8835 22.8676C19.1441 23.607 19.5034 24.2291 19.9613 24.7341C20.419 25.2355 20.9679 25.6144 21.6079 25.8709C22.2515 26.1236 22.9727 26.236 23.7715 26.2081C24.5704 26.1802 25.2801 26.0178 25.9008 25.721C26.525 25.4203 27.048 25.004 27.4697 24.4719C27.8912 23.9362 28.2062 23.2905 28.4147 22.5348C28.6231 21.779 28.7108 20.9285 28.6778 19.983C28.6447 19.0376 28.4979 18.1952 28.2373 17.4559C27.9767 16.7165 27.6175 16.0962 27.1597 15.5948C26.7018 15.0899 26.1511 14.711 25.5075 14.4583C24.8675 14.2018 24.1481 14.0875 23.3492 14.1154C22.5504 14.1433 21.8389 14.3076 21.2146 14.6082C20.5939 14.9051 20.0728 15.3213 19.6513 15.857C19.2296 16.3891 18.9145 17.033 18.7061 17.7887C18.5013 18.5443 18.4155 19.3948 18.4485 20.3403ZM34.8401 19.2395C34.976 18.6111 35.1762 18.0427 35.441 17.5345C35.7056 17.0226 36.0242 16.5841 36.3967 16.2189C36.7692 15.8536 37.1903 15.5674 37.66 15.3603C38.1334 15.1529 38.6449 15.0397 39.1946 15.0205C39.6929 15.0031 40.1681 15.058 40.6202 15.1853C41.0722 15.3126 41.4916 15.5034 41.8784 15.7578C42.2689 16.012 42.6228 16.3243 42.9403 16.6948C43.2613 17.0615 43.5363 17.4775 43.7653 17.9428C43.9944 18.408 44.1754 18.9172 44.3085 19.4702C44.4452 20.0231 44.5243 20.6092 44.546 21.2285C44.5676 21.8478 44.5295 22.438 44.4317 22.9991C44.3375 23.56 44.1925 24.0824 43.9966 24.5662C43.8006 25.0463 43.5553 25.4823 43.2608 25.8742C42.9699 26.2622 42.6385 26.5967 42.2667 26.8775C41.8986 27.1582 41.4935 27.3778 41.0515 27.5363C40.6094 27.6948 40.1392 27.7828 39.6408 27.8002C39.0912 27.8194 38.573 27.7421 38.0863 27.5683C37.6033 27.3944 37.1632 27.1383 36.7662 26.7999C36.3691 26.4616 36.0207 26.0463 35.7211 25.5541C35.4214 25.062 35.1819 24.5071 35.0025 23.8897L35.278 31.7774L33.0518 31.8551L32.4837 15.585L34.7098 15.5073L34.8401 19.2395ZM34.9213 21.5646C34.9455 22.2572 35.0515 22.8754 35.2393 23.4191C35.4305 23.9591 35.6941 24.414 36.0299 24.7839C36.3656 25.1537 36.768 25.4332 37.2369 25.6223C37.7056 25.8077 38.2313 25.8902 38.814 25.8699C39.4076 25.8492 39.9283 25.7356 40.376 25.5292C40.8273 25.3189 41.2003 25.0216 41.4951 24.6371C41.7897 24.2489 42.0062 23.7772 42.1446 23.222C42.2865 22.6631 42.3449 22.0245 42.3198 21.3062C42.2947 20.588 42.192 19.9569 42.0116 19.4129C41.8347 18.865 41.5858 18.4096 41.2649 18.0466C40.9441 17.6836 40.5513 17.4148 40.0866 17.2402C39.6254 17.0619 39.098 16.9831 38.5043 17.0038C37.9217 17.0241 37.403 17.1431 36.9484 17.3608C36.4937 17.5785 36.1118 17.8835 35.8026 18.2758C35.4934 18.6682 35.2623 19.1422 35.1093 19.6979C34.9598 20.2498 34.8971 20.872 34.9213 21.5646ZM53.5135 26.892C52.5961 27.2029 51.7655 27.3713 51.0216 27.3973C50.417 27.4184 49.8787 27.3436 49.4068 27.173C48.9387 27.0059 48.5407 26.7465 48.2129 26.3947C47.885 26.0392 47.6292 25.5951 47.4454 25.0622C47.2653 24.5254 47.1628 23.9016 47.1379 23.1907L46.9201 16.952L45.2711 17.0096L45.2058 15.1408L46.8548 15.0832L46.7573 12.2909L48.9835 12.2132L49.081 15.0054L53.0935 14.8653L53.1588 16.7342L49.1462 16.8743L49.3643 23.1185C49.3923 23.921 49.5633 24.5094 49.8772 24.8837C50.1947 25.2542 50.6777 25.4281 51.3263 25.4054C51.5791 25.3966 51.8786 25.3568 52.2247 25.286C52.5744 25.2151 52.9816 25.1091 53.4463 24.9682L53.5135 26.892ZM56.8957 13.3292L54.5596 13.4108L54.4636 10.6625L56.7997 10.5809L56.8957 13.3292ZM57.3129 26.8529L55.0867 26.9306L54.6635 14.8105L56.8896 14.7328L57.3129 26.8529ZM58.5939 20.7379C58.5716 20.1003 58.6147 19.4971 58.7233 18.9283C58.8318 18.3595 58.9988 17.8345 59.2241 17.3534C59.4495 16.8722 59.7297 16.4387 60.0647 16.0528C60.3997 15.6632 60.7806 15.3307 61.2076 15.0553C61.6383 14.7797 62.1132 14.565 62.6325 14.4111C63.1517 14.2536 63.7062 14.1645 64.2962 14.1439C64.8898 14.1232 65.4493 14.1734 65.9745 14.2944C66.5032 14.4117 66.9902 14.5928 67.4353 14.8378C67.8841 15.0826 68.2892 15.3877 68.6505 15.7529C69.0117 16.1146 69.3215 16.5275 69.5798 16.9918C69.8382 17.456 70.0413 17.9681 70.1893 18.5279C70.3373 19.0878 70.4224 19.6865 70.4446 20.3241C70.4669 20.9617 70.4238 21.5649 70.3152 22.1337C70.2067 22.7025 70.0398 23.2293 69.8146 23.7142C69.5892 24.1953 69.309 24.6289 68.9739 25.0148C68.6389 25.4007 68.2561 25.7333 67.8256 26.0125C67.3986 26.2879 66.9254 26.5025 66.4062 26.6564C65.8907 26.8138 65.3361 26.9029 64.7425 26.9236C64.1525 26.9442 63.5931 26.8941 63.0642 26.7731C62.5355 26.6558 62.0467 26.4748 61.5979 26.23C61.1526 25.9813 60.7493 25.6762 60.3882 25.3146C60.027 24.953 59.7172 24.5401 59.4589 24.0758C59.2004 23.6079 58.9972 23.094 58.8492 22.5341C58.7012 21.9743 58.6161 21.3756 58.5939 20.7379ZM60.82 20.6602C60.8437 21.3381 60.9493 21.9453 61.1368 22.4818C61.3278 23.0144 61.5894 23.4657 61.9215 23.8357C62.2571 24.2019 62.6575 24.4777 63.1226 24.6633C63.5877 24.8488 64.1061 24.9316 64.6777 24.9117C65.2494 24.8917 65.7589 24.773 66.2062 24.5556C66.6572 24.3381 67.0356 24.035 67.3412 23.6464C67.6467 23.2542 67.8743 22.7858 68.0241 22.2413C68.1774 21.6929 68.2422 21.0798 68.2185 20.4018C68.1948 19.7239 68.0875 19.1186 67.8964 18.586C67.7089 18.0495 67.4492 17.5982 67.1172 17.2318C66.7852 16.8655 66.3867 16.5896 65.9216 16.4041C65.4601 16.2184 64.9436 16.1355 64.372 16.1555C63.8003 16.1755 63.289 16.2942 62.838 16.5118C62.3869 16.7293 62.0068 17.0324 61.6975 17.4211C61.3919 17.8097 61.1624 18.2781 61.0091 18.8265C60.8594 19.371 60.7963 19.9823 60.82 20.6602ZM74.3611 26.2575L72.135 26.3353L71.7117 14.2152L73.9379 14.1374L74.0601 17.6388C74.1858 17.0364 74.3779 16.494 74.6362 16.0117C74.8945 15.5294 75.2103 15.1166 75.5835 14.7734C75.9568 14.4301 76.3822 14.1621 76.8598 13.9694C77.341 13.7764 77.8638 13.6701 78.4281 13.6504C79.117 13.6264 79.739 13.7349 80.2941 13.976C80.8492 14.2171 81.324 14.5766 81.7186 15.0544C82.1167 15.5285 82.427 16.1139 82.6494 16.8105C82.8754 17.5034 83.0038 18.2896 83.0345 19.169L83.2712 25.9464L81.045 26.0241L80.8084 19.2468C80.7659 18.0302 80.4756 17.1249 79.9375 16.531C79.3995 15.9371 78.6101 15.6583 77.5694 15.6946C77.0088 15.7142 76.5098 15.8197 76.0725 16.0111C75.6388 16.1987 75.2739 16.4646 74.9777 16.8088C74.6851 17.1492 74.4648 17.5641 74.3168 18.0536C74.1723 18.5393 74.1107 19.0881 74.1321 19.7L74.3611 26.2575ZM89.465 13.265C90.2895 13.2362 91.0257 13.3041 91.6735 13.4686C92.3249 13.6329 92.8766 13.8815 93.3285 14.2142C93.7839 14.5432 94.1357 14.951 94.3838 15.4377C94.6318 15.9206 94.7665 16.4681 94.7879 17.0801L92.6112 17.1561C92.6004 16.8446 92.5245 16.5647 92.3838 16.3165C92.2466 16.0645 92.0466 15.8532 91.7838 15.6826C91.5246 15.5082 91.2063 15.378 90.8291 15.2921C90.4519 15.2062 90.0196 15.1718 89.5322 15.1888C89.0925 15.2042 88.6926 15.2585 88.3327 15.3518C87.9764 15.445 87.6707 15.5712 87.4158 15.7305C87.1608 15.8862 86.9654 16.0709 86.8298 16.2848C86.6941 16.495 86.6306 16.7265 86.6394 16.9794C86.6461 17.1699 86.6923 17.3371 86.778 17.4808C86.8636 17.6209 86.9779 17.7417 87.1209 17.8431C87.2638 17.9445 87.4301 18.0304 87.6197 18.1009C87.8091 18.1676 88.0111 18.2248 88.2255 18.2723C88.4436 18.3197 88.6688 18.3596 88.9011 18.3918C89.1332 18.4204 89.3617 18.4491 89.5865 18.4779L90.4044 18.576C90.7434 18.6155 91.0991 18.6636 91.4716 18.7203C91.8477 18.7732 92.2173 18.8502 92.5804 18.9512C92.947 19.0485 93.2964 19.1776 93.6285 19.3384C93.9642 19.4954 94.2611 19.6979 94.5193 19.9457C94.7774 20.1935 94.986 20.4944 95.1451 20.8484C95.3041 21.1987 95.3922 21.6194 95.4093 22.1104C95.4302 22.7077 95.3315 23.2432 95.1132 23.7168C94.8948 24.1867 94.5622 24.589 94.1152 24.9238C93.6683 25.2586 93.1106 25.5202 92.4421 25.7087C91.7736 25.8971 90.9978 26.0068 90.1147 26.0376C89.1949 26.0697 88.3856 26.0081 87.6867 25.8527C86.9879 25.6974 86.4015 25.4537 85.9277 25.1217C85.4538 24.7897 85.0908 24.3749 84.8386 23.8774C84.5899 23.3761 84.4541 22.7957 84.431 22.1361L86.6022 22.0603C86.6265 22.7565 86.9201 23.2838 87.483 23.642C88.0457 23.9966 88.8987 24.1539 90.042 24.114C90.5587 24.0959 91.0172 24.0414 91.4176 23.9504C91.818 23.8593 92.1548 23.7338 92.4281 23.5739C92.7013 23.4139 92.9074 23.2214 93.0463 22.9964C93.1852 22.7715 93.2497 22.5179 93.2399 22.2357C93.2322 22.0159 93.1834 21.825 93.0933 21.663C93.0031 21.4974 92.8808 21.3567 92.7264 21.241C92.5718 21.1217 92.3903 21.0216 92.1821 20.9409C91.9773 20.8563 91.7547 20.7852 91.5142 20.7275C91.2737 20.6699 91.0225 20.6218 90.7607 20.5832C90.5024 20.5409 90.2406 20.5023 89.9752 20.4676L89.1624 20.3584C88.8528 20.3178 88.5246 20.2706 88.1778 20.2167C87.831 20.1591 87.4853 20.0849 87.1409 19.9942C86.8001 19.8997 86.4712 19.7791 86.1542 19.6324C85.8408 19.4819 85.5609 19.2936 85.3145 19.0674C85.0718 18.8411 84.8733 18.5673 84.719 18.2462C84.5683 17.9249 84.4853 17.5444 84.47 17.1047C84.4505 16.5477 84.5502 16.0397 84.769 15.5808C84.9914 15.1218 85.317 14.7252 85.7455 14.391C86.1778 14.0567 86.7061 13.7924 87.3303 13.5982C87.9583 13.4038 88.6698 13.2928 89.465 13.265Z" fill="white"/>
<rect x="10" y="34.5826" width="124" height="38" rx="19" transform="rotate(-2 10 34.5826)" fill="#212367"/>
<path opacity="0.85" d="M25.7322 58.0478L25.3657 47.5542L31.7818 47.3302L31.8326 48.7843L26.8556 48.9581L26.9645 52.0762L31.0121 51.9348L31.0628 53.389L27.0153 53.5303L27.1713 57.9976L25.7322 58.0478ZM33.7204 57.7689L33.4587 50.2734L34.8978 50.2232L35.1596 57.7186L33.7204 57.7689ZM35.0074 47.7729C35.0161 48.0227 34.9385 48.2356 34.7745 48.4114C34.6009 48.5976 34.3892 48.695 34.1393 48.7037C33.8895 48.7125 33.6765 48.6298 33.5003 48.4559C33.3145 48.2923 33.2172 48.0855 33.2085 47.8357C33.1997 47.5858 33.2822 47.3678 33.4558 47.1817C33.6198 47.0058 33.8267 46.9136 34.0765 46.9048C34.3264 46.8961 34.5442 46.9736 34.73 47.1372C34.9062 47.3111 34.9987 47.523 35.0074 47.7729ZM39.7688 55.1112L38.1902 57.6128L36.4063 57.6751L38.8388 53.8379L36.1445 50.1797L37.8985 50.1184L39.6633 52.5183L41.2564 50.0011L42.9953 49.9404L40.5928 53.7766L43.2571 57.4358L41.5032 57.4971L39.7688 55.1112ZM50.9547 54.0151L45.2882 54.213C45.3575 54.4807 45.451 54.7226 45.5687 54.9387C45.6963 55.1543 45.858 55.3438 46.0538 55.5071C46.4864 55.8622 46.9926 56.0296 47.5722 56.0094C48.4217 55.9797 49.0779 55.7167 49.5409 55.2202L50.5964 56.219C49.8634 57.005 48.8723 57.4199 47.623 57.4635C46.5437 57.5012 45.626 57.153 44.8699 56.4189C44.1135 55.6749 43.7162 54.7582 43.6782 53.6689C43.6398 52.5695 43.9621 51.6277 44.6452 50.8434C45.3382 50.0587 46.2194 49.6477 47.2888 49.6104C48.3381 49.5737 49.1957 49.919 49.8615 50.6462C50.5369 51.3631 50.8943 52.2862 50.9338 53.4155L50.9547 54.0151ZM47.3224 51.0051C46.7528 51.0249 46.2745 51.2268 45.8877 51.6105C45.5201 51.9735 45.3008 52.4265 45.2297 52.9693L49.3372 52.8258C49.2277 52.2693 49.0071 51.8268 48.6755 51.4981C48.3331 51.1499 47.8821 50.9855 47.3224 51.0051ZM55.5671 50.7622C54.8875 50.7859 54.3412 51.0451 53.9283 51.5398C53.5053 52.0349 53.306 52.6322 53.3304 53.3318C53.3549 54.0314 53.5953 54.6133 54.0518 55.0777C54.4983 55.5424 55.0613 55.7629 55.7409 55.7391C56.4105 55.7158 56.9418 55.4571 57.3348 54.963C57.5363 54.7159 57.682 54.4456 57.7718 54.1523C57.8712 53.8486 57.9149 53.5219 57.9026 53.1721C57.8901 52.8123 57.8238 52.4895 57.7037 52.2035C57.5937 51.9171 57.4295 51.6577 57.2113 51.4252C56.7848 50.9598 56.2367 50.7388 55.5671 50.7622ZM55.4269 49.3262C56.2764 49.2965 56.9706 49.5474 57.5095 50.079C57.5712 50.1268 57.6229 50.1751 57.6646 50.2236C57.7063 50.2722 57.753 50.3206 57.8048 50.3688L57.6671 46.4262L59.1212 46.3755L59.4876 56.8691L58.1385 56.9162L58.1029 55.8968C58.065 55.9582 58.0271 56.0195 57.9892 56.0809C57.951 56.1322 57.9026 56.179 57.844 56.221C57.3249 56.8295 56.6107 57.1496 55.7012 57.1814C54.6319 57.2187 53.7392 56.8697 53.023 56.1342C52.2966 55.3891 51.9144 54.4719 51.8763 53.3826C51.8379 52.2832 52.1553 51.3416 52.8283 50.5576C53.4914 49.774 54.3576 49.3635 55.4269 49.3262ZM66.5141 47.5732L66.6497 51.4558L68.8533 51.3789C69.383 51.3604 69.8359 51.1494 70.2121 50.7461C70.5786 50.353 70.7526 49.8917 70.7341 49.362C70.7159 48.8423 70.5102 48.3942 70.1168 48.0177C69.7138 47.6516 69.2474 47.4777 68.7177 47.4962L66.5141 47.5732ZM65.0242 46.1693L68.667 46.0421C69.6064 46.0093 70.4174 46.3112 71.1001 46.9478C71.7827 47.5843 72.1404 48.3723 72.1732 49.3117C72.206 50.2512 71.9041 51.0622 71.2676 51.7448C70.6314 52.4375 69.8435 52.8002 68.9041 52.833L66.7005 52.9099L66.8298 56.6127L65.3906 56.6629L65.0242 46.1693ZM73.451 48.8769L74.8452 48.8282L74.8829 49.9075C74.9115 49.8665 74.9451 49.8253 74.9836 49.7839C75.0219 49.7326 75.0603 49.6862 75.0988 49.6448C75.34 49.3863 75.6125 49.1666 75.9164 48.9859C76.3873 48.7193 76.9326 48.5752 77.5523 48.5536L77.603 50.0077C76.8935 50.0324 76.2967 50.2784 75.8127 50.7456C75.3191 51.2231 75.0598 51.8225 75.035 52.5438L75.1669 56.3215L73.7128 56.3723L73.451 48.8769ZM79.0737 56.1851L78.8119 48.6897L80.251 48.6394L80.5128 56.1349L79.0737 56.1851ZM80.3606 46.1891C80.3693 46.439 80.2917 46.6518 80.1277 46.8276C79.9541 47.0138 79.7424 47.1112 79.4925 47.12C79.2427 47.1287 79.0297 47.0461 78.8535 46.8721C78.6677 46.7085 78.5704 46.5018 78.5617 46.2519C78.553 46.0021 78.6354 45.7841 78.809 45.5979C78.973 45.4221 79.1799 45.3298 79.4297 45.3211C79.6796 45.3123 79.8974 45.3898 80.0832 45.5534C80.2594 45.7274 80.3519 45.9393 80.3606 46.1891ZM85.6589 48.2705C86.7183 48.2335 87.621 48.5822 88.3671 49.3166L87.3988 50.386C86.9323 49.922 86.3693 49.7015 85.7097 49.7246C85.0301 49.7483 84.4837 50.0025 84.0703 50.4873C83.6573 50.982 83.4631 51.5791 83.4875 52.2787C83.5116 52.9683 83.747 53.5504 84.1939 54.0251C84.64 54.4798 85.2029 54.6953 85.8824 54.6716C86.542 54.6485 87.0883 54.3893 87.5213 53.8939L88.5618 54.8932C87.8688 55.6779 86.9926 56.0887 85.9332 56.1257C84.8639 56.163 83.9562 55.8145 83.2101 55.0801C82.4736 54.3353 82.0864 53.4183 82.0484 52.3289C82.01 51.2296 82.3323 50.2878 83.0153 49.5035C83.7084 48.7188 84.5896 48.3078 85.6589 48.2705ZM96.6886 52.4181L91.022 52.6159C91.0914 52.8837 91.1849 53.1256 91.3025 53.3416C91.4301 53.5573 91.5918 53.7467 91.7876 53.91C92.2203 54.2651 92.7264 54.4326 93.3061 54.4123C94.1556 54.3827 94.8118 54.1196 95.2747 53.6231L96.3302 54.6219C95.5972 55.408 94.6061 55.8228 93.3569 55.8664C92.2775 55.9041 91.3598 55.5559 90.6037 54.8219C89.8473 54.0778 89.4501 53.1611 89.412 52.0718C89.3736 50.9725 89.696 50.0306 90.379 49.2463C91.0721 48.4617 91.9532 48.0507 93.0226 48.0133C94.072 47.9767 94.9295 48.322 95.5953 49.0492C96.2707 49.766 96.6282 50.6891 96.6676 51.8184L96.6886 52.4181ZM93.0563 49.408C92.4866 49.4279 92.0084 49.6297 91.6215 50.0134C91.254 50.3765 91.0347 50.8294 90.9636 51.3722L95.0711 51.2288C94.9616 50.6723 94.741 50.2297 94.4093 49.9011C94.067 49.5528 93.6159 49.3884 93.0563 49.408Z" fill="white"/>
</svg>
