<svg width="465" height="76" viewBox="0 0 465 76" fill="none" xmlns="http://www.w3.org/2000/svg">
<rect x="130" y="35" width="205" height="40" fill="#212367"/>
<path d="M29.2545 8.24H21.4785V28H18.1185V8.24H10.3425V5.12H29.2545V8.24ZM45.7745 10.36L50.2625 25.784L54.6865 10.36H57.9665L52.7425 28H48.1825L43.7985 13.36L39.4065 28H34.8465L29.6225 10.36H32.9825L37.4065 25.784L41.8945 10.36H45.7745ZM58.5988 19.176C58.5988 18.248 58.6921 17.3733 58.8788 16.552C59.0654 15.7307 59.3348 14.976 59.6868 14.288C60.0388 13.6 60.4681 12.984 60.9748 12.44C61.4814 11.8907 62.0521 11.4267 62.6868 11.048C63.3268 10.6693 64.0281 10.3813 64.7908 10.184C65.5534 9.98133 66.3641 9.88 67.2228 9.88C68.0868 9.88 68.8974 9.98133 69.6548 10.184C70.4174 10.3813 71.1161 10.6693 71.7508 11.048C72.3908 11.4267 72.9641 11.8907 73.4708 12.44C73.9774 12.984 74.4068 13.6 74.7588 14.288C75.1108 14.976 75.3801 15.7307 75.5668 16.552C75.7534 17.3733 75.8468 18.248 75.8468 19.176C75.8468 20.104 75.7534 20.9787 75.5668 21.8C75.3801 22.6213 75.1108 23.3787 74.7588 24.072C74.4068 24.76 73.9774 25.376 73.4708 25.92C72.9641 26.464 72.3908 26.928 71.7508 27.312C71.1161 27.6907 70.4174 27.9787 69.6548 28.176C68.8974 28.3787 68.0868 28.48 67.2228 28.48C66.3641 28.48 65.5534 28.3787 64.7908 28.176C64.0281 27.9787 63.3268 27.6907 62.6868 27.312C62.0521 26.928 61.4814 26.464 60.9748 25.92C60.4681 25.376 60.0388 24.76 59.6868 24.072C59.3348 23.3787 59.0654 22.6213 58.8788 21.8C58.6921 20.9787 58.5988 20.104 58.5988 19.176ZM61.8388 19.176C61.8388 20.1627 61.9614 21.0507 62.2068 21.84C62.4574 22.624 62.8148 23.2933 63.2788 23.848C63.7481 24.3973 64.3161 24.8187 64.9828 25.112C65.6494 25.4053 66.3987 25.552 67.2308 25.552C68.0628 25.552 68.8094 25.4053 69.4708 25.112C70.1374 24.8187 70.7028 24.3973 71.1668 23.848C71.6308 23.2933 71.9854 22.624 72.2308 21.84C72.4814 21.0507 72.6068 20.1627 72.6068 19.176C72.6068 18.1893 72.4814 17.304 72.2308 16.52C71.9854 15.7307 71.6308 15.0613 71.1668 14.512C70.7028 13.9627 70.1374 13.5413 69.4708 13.248C68.8094 12.9547 68.0628 12.808 67.2308 12.808C66.3987 12.808 65.6494 12.9547 64.9828 13.248C64.3161 13.5413 63.7481 13.9627 63.2788 14.512C62.8148 15.0613 62.4574 15.7307 62.2068 16.52C61.9614 17.304 61.8388 18.1893 61.8388 19.176ZM96.0263 27.864C94.6769 28.2693 93.4609 28.472 92.3783 28.472C91.4983 28.472 90.7196 28.336 90.0423 28.064C89.3703 27.7973 88.8049 27.4 88.3463 26.872C87.8876 26.3387 87.5383 25.68 87.2983 24.896C87.0636 24.1067 86.9463 23.1947 86.9463 22.16V13.08H84.5463V10.36H86.9463V6.296H90.1863V10.36H96.0263V13.08H90.1863V22.168C90.1863 23.336 90.4049 24.2 90.8423 24.76C91.2849 25.3147 91.9783 25.592 92.9223 25.592C93.2903 25.592 93.7276 25.5493 94.2343 25.464C94.7463 25.3787 95.3436 25.2453 96.0263 25.064V27.864ZM115.103 10.36L107.799 29.112C107.431 30.0507 107.002 30.8613 106.511 31.544C106.026 32.2267 105.466 32.7893 104.831 33.232C104.202 33.68 103.495 34.0107 102.711 34.224C101.933 34.4373 101.066 34.544 100.111 34.544C99.8499 34.544 99.5966 34.536 99.3513 34.52C99.1059 34.504 98.8686 34.4827 98.6393 34.456V31.624C98.9219 31.6613 99.1833 31.688 99.4233 31.704C99.6686 31.72 99.9033 31.728 100.127 31.728C101.194 31.728 102.063 31.52 102.735 31.104C103.407 30.688 103.911 30.024 104.247 29.112L104.471 28.52L97.4713 10.36H100.831L106.295 25.048L111.823 10.36H115.103ZM120.051 15.792C120.281 14.8853 120.601 14.0693 121.011 13.344C121.422 12.6133 121.907 11.992 122.467 11.48C123.027 10.968 123.654 10.5733 124.347 10.296C125.046 10.0187 125.795 9.88 126.595 9.88C127.321 9.88 128.009 9.984 128.659 10.192C129.31 10.4 129.91 10.6987 130.459 11.088C131.014 11.4773 131.513 11.9493 131.955 12.504C132.403 13.0533 132.782 13.672 133.091 14.36C133.401 15.048 133.638 15.7973 133.803 16.608C133.974 17.4187 134.059 18.2747 134.059 19.176C134.059 20.0773 133.974 20.9333 133.803 21.744C133.638 22.5547 133.401 23.3067 133.091 24C132.782 24.688 132.403 25.3093 131.955 25.864C131.513 26.4133 131.014 26.8827 130.459 27.272C129.91 27.6613 129.31 27.96 128.659 28.168C128.009 28.376 127.321 28.48 126.595 28.48C125.795 28.48 125.046 28.3413 124.347 28.064C123.654 27.7867 123.027 27.392 122.467 26.88C121.907 26.368 121.422 25.7467 121.011 25.016C120.601 24.2853 120.281 23.4667 120.051 22.56V34.04H116.811V10.36H120.051V15.792ZM120.051 19.176C120.051 20.184 120.174 21.088 120.419 21.888C120.67 22.6827 121.03 23.3573 121.499 23.912C121.969 24.4667 122.539 24.8933 123.211 25.192C123.883 25.4853 124.643 25.632 125.491 25.632C126.355 25.632 127.118 25.4933 127.779 25.216C128.446 24.9333 129.003 24.52 129.451 23.976C129.899 23.4267 130.238 22.752 130.467 21.952C130.702 21.1467 130.819 20.2213 130.819 19.176C130.819 18.1307 130.702 17.208 130.467 16.408C130.238 15.6027 129.899 14.928 129.451 14.384C129.003 13.84 128.446 13.4293 127.779 13.152C127.118 12.8693 126.355 12.728 125.491 12.728C124.643 12.728 123.883 12.8747 123.211 13.168C122.539 13.4613 121.969 13.8853 121.499 14.44C121.03 14.9947 120.67 15.672 120.419 16.472C120.174 17.2667 120.051 18.168 120.051 19.176ZM152.586 22.152C152.356 23.1387 151.999 24.024 151.514 24.808C151.028 25.592 150.436 26.256 149.738 26.8C149.044 27.344 148.255 27.76 147.37 28.048C146.484 28.336 145.524 28.48 144.49 28.48C143.626 28.48 142.81 28.3787 142.042 28.176C141.279 27.9733 140.575 27.6827 139.93 27.304C139.29 26.92 138.714 26.456 138.202 25.912C137.695 25.3627 137.263 24.744 136.906 24.056C136.554 23.3627 136.284 22.6053 136.098 21.784C135.911 20.9573 135.818 20.08 135.818 19.152C135.818 18.224 135.911 17.352 136.098 16.536C136.284 15.72 136.551 14.968 136.898 14.28C137.25 13.592 137.676 12.976 138.178 12.432C138.679 11.888 139.247 11.4267 139.882 11.048C140.516 10.6693 141.212 10.3813 141.97 10.184C142.727 9.98133 143.532 9.88 144.386 9.88C145.65 9.88 146.791 10.0987 147.81 10.536C148.828 10.968 149.698 11.584 150.418 12.384C151.138 13.184 151.692 14.152 152.082 15.288C152.471 16.424 152.666 17.696 152.666 19.104C152.666 19.3067 152.66 19.5067 152.649 19.704C152.644 19.9013 152.631 20.12 152.61 20.36H139.122C139.218 21.1653 139.41 21.8907 139.698 22.536C139.991 23.176 140.37 23.72 140.834 24.168C141.303 24.616 141.852 24.96 142.482 25.2C143.111 25.4347 143.807 25.552 144.57 25.552C145.743 25.552 146.724 25.2693 147.514 24.704C148.303 24.1333 148.914 23.2827 149.346 22.152H152.586ZM149.314 17.56C149.207 16.792 149.02 16.1147 148.754 15.528C148.487 14.936 148.146 14.44 147.73 14.04C147.314 13.6347 146.826 13.328 146.266 13.12C145.711 12.912 145.09 12.808 144.402 12.808C143.698 12.808 143.052 12.9173 142.466 13.136C141.879 13.3493 141.362 13.6613 140.914 14.072C140.471 14.4773 140.103 14.976 139.81 15.568C139.516 16.1547 139.308 16.8187 139.186 17.56H149.314ZM161.979 9.88C163.179 9.88 164.246 10.016 165.179 10.288C166.118 10.56 166.907 10.9493 167.547 11.456C168.193 11.9573 168.683 12.568 169.019 13.288C169.355 14.0027 169.523 14.8053 169.523 15.696H166.355C166.355 15.2427 166.259 14.832 166.067 14.464C165.881 14.0907 165.601 13.7733 165.227 13.512C164.859 13.2453 164.403 13.04 163.859 12.896C163.315 12.752 162.689 12.68 161.979 12.68C161.339 12.68 160.755 12.7387 160.227 12.856C159.705 12.9733 159.254 13.1413 158.875 13.36C158.497 13.5733 158.203 13.832 157.995 14.136C157.787 14.4347 157.683 14.768 157.683 15.136C157.683 15.4133 157.742 15.6587 157.859 15.872C157.977 16.08 158.137 16.2613 158.339 16.416C158.542 16.5707 158.779 16.704 159.051 16.816C159.323 16.9227 159.614 17.016 159.923 17.096C160.238 17.176 160.563 17.2453 160.899 17.304C161.235 17.3573 161.566 17.4107 161.891 17.464L163.075 17.648C163.566 17.7227 164.081 17.8107 164.619 17.912C165.163 18.008 165.697 18.1387 166.219 18.304C166.747 18.464 167.249 18.6693 167.723 18.92C168.203 19.1653 168.625 19.4747 168.987 19.848C169.35 20.2213 169.638 20.6693 169.851 21.192C170.065 21.7093 170.171 22.3253 170.171 23.04C170.171 23.9093 170.001 24.6827 169.659 25.36C169.318 26.032 168.814 26.6 168.147 27.064C167.481 27.528 166.657 27.88 165.675 28.12C164.694 28.36 163.561 28.48 162.275 28.48C160.937 28.48 159.763 28.3493 158.755 28.088C157.747 27.8267 156.907 27.4427 156.235 26.936C155.563 26.4293 155.057 25.808 154.715 25.072C154.379 24.3307 154.211 23.48 154.211 22.52H157.371C157.371 23.5333 157.771 24.3147 158.571 24.864C159.371 25.408 160.603 25.68 162.267 25.68C163.019 25.68 163.689 25.624 164.275 25.512C164.862 25.4 165.358 25.2347 165.763 25.016C166.169 24.7973 166.478 24.528 166.691 24.208C166.905 23.888 167.011 23.5227 167.011 23.112C167.011 22.792 166.95 22.512 166.827 22.272C166.705 22.0267 166.534 21.816 166.315 21.64C166.097 21.4587 165.838 21.304 165.539 21.176C165.246 21.0427 164.926 20.928 164.579 20.832C164.233 20.736 163.87 20.6533 163.491 20.584C163.118 20.5093 162.739 20.44 162.355 20.376L161.179 20.176C160.731 20.1013 160.257 20.016 159.755 19.92C159.254 19.8187 158.755 19.6933 158.259 19.544C157.769 19.3893 157.297 19.1973 156.843 18.968C156.395 18.7333 155.998 18.4453 155.651 18.104C155.31 17.7627 155.035 17.3547 154.827 16.88C154.625 16.4053 154.523 15.848 154.523 15.208C154.523 14.3973 154.694 13.664 155.035 13.008C155.382 12.352 155.875 11.792 156.515 11.328C157.161 10.864 157.942 10.5067 158.859 10.256C159.782 10.0053 160.822 9.88 161.979 9.88ZM178.974 19.176C178.974 18.248 179.067 17.3733 179.254 16.552C179.44 15.7307 179.71 14.976 180.062 14.288C180.414 13.6 180.843 12.984 181.35 12.44C181.856 11.8907 182.427 11.4267 183.062 11.048C183.702 10.6693 184.403 10.3813 185.166 10.184C185.928 9.98133 186.739 9.88 187.598 9.88C188.462 9.88 189.272 9.98133 190.03 10.184C190.792 10.3813 191.491 10.6693 192.126 11.048C192.766 11.4267 193.339 11.8907 193.846 12.44C194.352 12.984 194.782 13.6 195.134 14.288C195.486 14.976 195.755 15.7307 195.942 16.552C196.128 17.3733 196.222 18.248 196.222 19.176C196.222 20.104 196.128 20.9787 195.942 21.8C195.755 22.6213 195.486 23.3787 195.134 24.072C194.782 24.76 194.352 25.376 193.846 25.92C193.339 26.464 192.766 26.928 192.126 27.312C191.491 27.6907 190.792 27.9787 190.03 28.176C189.272 28.3787 188.462 28.48 187.598 28.48C186.739 28.48 185.928 28.3787 185.166 28.176C184.403 27.9787 183.702 27.6907 183.062 27.312C182.427 26.928 181.856 26.464 181.35 25.92C180.843 25.376 180.414 24.76 180.062 24.072C179.71 23.3787 179.44 22.6213 179.254 21.8C179.067 20.9787 178.974 20.104 178.974 19.176ZM182.214 19.176C182.214 20.1627 182.336 21.0507 182.582 21.84C182.832 22.624 183.19 23.2933 183.654 23.848C184.123 24.3973 184.691 24.8187 185.358 25.112C186.024 25.4053 186.774 25.552 187.606 25.552C188.438 25.552 189.184 25.4053 189.846 25.112C190.512 24.8187 191.078 24.3973 191.542 23.848C192.006 23.2933 192.36 22.624 192.606 21.84C192.856 21.0507 192.982 20.1627 192.982 19.176C192.982 18.1893 192.856 17.304 192.606 16.52C192.36 15.7307 192.006 15.0613 191.542 14.512C191.078 13.9627 190.512 13.5413 189.846 13.248C189.184 12.9547 188.438 12.808 187.606 12.808C186.774 12.808 186.024 12.9547 185.358 13.248C184.691 13.5413 184.123 13.9627 183.654 14.512C183.19 15.0613 182.832 15.7307 182.582 16.52C182.336 17.304 182.214 18.1893 182.214 19.176ZM200.008 13.08H197.328V10.36H200.008V9.96C200.008 8.872 200.144 7.912 200.416 7.08C200.688 6.248 201.088 5.552 201.616 4.992C202.149 4.42667 202.808 4 203.592 3.712C204.376 3.424 205.282 3.28 206.312 3.28C207.197 3.28 208.146 3.384 209.16 3.592V6.392C208.226 6.2 207.429 6.104 206.768 6.104C205.53 6.104 204.608 6.424 204 7.064C203.392 7.704 203.088 8.66933 203.088 9.96V10.36H209.168V13.08H203.248V28H200.008V13.08ZM221.864 15.792C222.093 14.8853 222.413 14.0693 222.824 13.344C223.234 12.6133 223.72 11.992 224.28 11.48C224.84 10.968 225.466 10.5733 226.16 10.296C226.858 10.0187 227.608 9.88 228.408 9.88C229.133 9.88 229.821 9.984 230.472 10.192C231.122 10.4 231.722 10.6987 232.272 11.088C232.826 11.4773 233.325 11.9493 233.768 12.504C234.216 13.0533 234.594 13.672 234.904 14.36C235.213 15.048 235.45 15.7973 235.616 16.608C235.786 17.4187 235.872 18.2747 235.872 19.176C235.872 20.0773 235.786 20.9333 235.616 21.744C235.45 22.5547 235.213 23.3067 234.904 24C234.594 24.688 234.216 25.3093 233.768 25.864C233.325 26.4133 232.826 26.8827 232.272 27.272C231.722 27.6613 231.122 27.96 230.472 28.168C229.821 28.376 229.133 28.48 228.408 28.48C227.608 28.48 226.858 28.3413 226.16 28.064C225.466 27.7867 224.84 27.392 224.28 26.88C223.72 26.368 223.234 25.7467 222.824 25.016C222.413 24.2853 222.093 23.4667 221.864 22.56V34.04H218.624V10.36H221.864V15.792ZM221.864 19.176C221.864 20.184 221.986 21.088 222.232 21.888C222.482 22.6827 222.842 23.3573 223.312 23.912C223.781 24.4667 224.352 24.8933 225.024 25.192C225.696 25.4853 226.456 25.632 227.304 25.632C228.168 25.632 228.93 25.4933 229.592 25.216C230.258 24.9333 230.816 24.52 231.264 23.976C231.712 23.4267 232.05 22.752 232.28 21.952C232.514 21.1467 232.632 20.2213 232.632 19.176C232.632 18.1307 232.514 17.208 232.28 16.408C232.05 15.6027 231.712 14.928 231.264 14.384C230.816 13.84 230.258 13.4293 229.592 13.152C228.93 12.8693 228.168 12.728 227.304 12.728C226.456 12.728 225.696 12.8747 225.024 13.168C224.352 13.4613 223.781 13.8853 223.312 14.44C222.842 14.9947 222.482 15.672 222.232 16.472C221.986 17.2667 221.864 18.168 221.864 19.176ZM241.27 28H238.03V10.36H241.27V15.992C241.478 15.112 241.774 14.3253 242.158 13.632C242.547 12.9333 243.027 12.3413 243.598 11.856C244.169 11.3707 244.827 11 245.574 10.744C246.326 10.488 247.169 10.36 248.102 10.36H248.91V13.448H248.11C246.819 13.448 245.737 13.568 244.862 13.808C243.987 14.0427 243.283 14.4 242.75 14.88C242.222 15.36 241.843 15.9653 241.614 16.696C241.385 17.4213 241.27 18.2747 241.27 19.256V28ZM249.911 19.176C249.911 18.248 250.005 17.3733 250.191 16.552C250.378 15.7307 250.647 14.976 250.999 14.288C251.351 13.6 251.781 12.984 252.287 12.44C252.794 11.8907 253.365 11.4267 253.999 11.048C254.639 10.6693 255.341 10.3813 256.103 10.184C256.866 9.98133 257.677 9.88 258.535 9.88C259.399 9.88 260.21 9.98133 260.967 10.184C261.73 10.3813 262.429 10.6693 263.063 11.048C263.703 11.4267 264.277 11.8907 264.783 12.44C265.29 12.984 265.719 13.6 266.071 14.288C266.423 14.976 266.693 15.7307 266.879 16.552C267.066 17.3733 267.159 18.248 267.159 19.176C267.159 20.104 267.066 20.9787 266.879 21.8C266.693 22.6213 266.423 23.3787 266.071 24.072C265.719 24.76 265.29 25.376 264.783 25.92C264.277 26.464 263.703 26.928 263.063 27.312C262.429 27.6907 261.73 27.9787 260.967 28.176C260.21 28.3787 259.399 28.48 258.535 28.48C257.677 28.48 256.866 28.3787 256.103 28.176C255.341 27.9787 254.639 27.6907 253.999 27.312C253.365 26.928 252.794 26.464 252.287 25.92C251.781 25.376 251.351 24.76 250.999 24.072C250.647 23.3787 250.378 22.6213 250.191 21.8C250.005 20.9787 249.911 20.104 249.911 19.176ZM253.151 19.176C253.151 20.1627 253.274 21.0507 253.519 21.84C253.77 22.624 254.127 23.2933 254.591 23.848C255.061 24.3973 255.629 24.8187 256.295 25.112C256.962 25.4053 257.711 25.552 258.543 25.552C259.375 25.552 260.122 25.4053 260.783 25.112C261.45 24.8187 262.015 24.3973 262.479 23.848C262.943 23.2933 263.298 22.624 263.543 21.84C263.794 21.0507 263.919 20.1627 263.919 19.176C263.919 18.1893 263.794 17.304 263.543 16.52C263.298 15.7307 262.943 15.0613 262.479 14.512C262.015 13.9627 261.45 13.5413 260.783 13.248C260.122 12.9547 259.375 12.808 258.543 12.808C257.711 12.808 256.962 12.9547 256.295 13.248C255.629 13.5413 255.061 13.9627 254.591 14.512C254.127 15.0613 253.77 15.7307 253.519 16.52C253.274 17.304 253.151 18.1893 253.151 19.176ZM279.901 27.864C278.552 28.2693 277.336 28.472 276.253 28.472C275.373 28.472 274.595 28.336 273.917 28.064C273.245 27.7973 272.68 27.4 272.221 26.872C271.763 26.3387 271.413 25.68 271.173 24.896C270.939 24.1067 270.821 23.1947 270.821 22.16V13.08H268.421V10.36H270.821V6.296H274.061V10.36H279.901V13.08H274.061V22.168C274.061 23.336 274.28 24.2 274.717 24.76C275.16 25.3147 275.853 25.592 276.797 25.592C277.165 25.592 277.603 25.5493 278.109 25.464C278.621 25.3787 279.219 25.2453 279.901 25.064V27.864ZM297.836 22.152C297.606 23.1387 297.249 24.024 296.764 24.808C296.278 25.592 295.686 26.256 294.988 26.8C294.294 27.344 293.505 27.76 292.62 28.048C291.734 28.336 290.774 28.48 289.74 28.48C288.876 28.48 288.06 28.3787 287.292 28.176C286.529 27.9733 285.825 27.6827 285.18 27.304C284.54 26.92 283.964 26.456 283.452 25.912C282.945 25.3627 282.513 24.744 282.156 24.056C281.804 23.3627 281.534 22.6053 281.348 21.784C281.161 20.9573 281.068 20.08 281.068 19.152C281.068 18.224 281.161 17.352 281.348 16.536C281.534 15.72 281.801 14.968 282.148 14.28C282.5 13.592 282.926 12.976 283.428 12.432C283.929 11.888 284.497 11.4267 285.132 11.048C285.766 10.6693 286.462 10.3813 287.22 10.184C287.977 9.98133 288.782 9.88 289.636 9.88C290.9 9.88 292.041 10.0987 293.06 10.536C294.078 10.968 294.948 11.584 295.668 12.384C296.388 13.184 296.942 14.152 297.332 15.288C297.721 16.424 297.916 17.696 297.916 19.104C297.916 19.3067 297.91 19.5067 297.899 19.704C297.894 19.9013 297.881 20.12 297.86 20.36H284.372C284.468 21.1653 284.66 21.8907 284.948 22.536C285.241 23.176 285.62 23.72 286.084 24.168C286.553 24.616 287.102 24.96 287.732 25.2C288.361 25.4347 289.057 25.552 289.82 25.552C290.993 25.552 291.974 25.2693 292.764 24.704C293.553 24.1333 294.164 23.2827 294.596 22.152H297.836ZM294.564 17.56C294.457 16.792 294.27 16.1147 294.004 15.528C293.737 14.936 293.396 14.44 292.98 14.04C292.564 13.6347 292.076 13.328 291.516 13.12C290.961 12.912 290.34 12.808 289.652 12.808C288.948 12.808 288.302 12.9173 287.716 13.136C287.129 13.3493 286.612 13.6613 286.164 14.072C285.721 14.4773 285.353 14.976 285.06 15.568C284.766 16.1547 284.558 16.8187 284.436 17.56H294.564ZM302.901 19.176C302.901 20.1627 303.024 21.0507 303.269 21.84C303.52 22.624 303.877 23.2933 304.341 23.848C304.811 24.3973 305.379 24.8187 306.045 25.112C306.712 25.4053 307.461 25.552 308.293 25.552C309.024 25.552 309.669 25.4427 310.229 25.224C310.789 25.0053 311.272 24.7067 311.677 24.328C312.083 23.944 312.411 23.4987 312.661 22.992C312.912 22.48 313.091 21.9333 313.197 21.352H316.437C316.352 22.0187 316.2 22.6587 315.981 23.272C315.763 23.8853 315.483 24.456 315.141 24.984C314.8 25.512 314.397 25.992 313.933 26.424C313.475 26.8507 312.957 27.2187 312.381 27.528C311.805 27.832 311.176 28.0667 310.493 28.232C309.811 28.3973 309.075 28.48 308.285 28.48C307.427 28.48 306.616 28.3787 305.853 28.176C305.091 27.9787 304.389 27.6907 303.749 27.312C303.115 26.928 302.544 26.464 302.037 25.92C301.531 25.376 301.101 24.76 300.749 24.072C300.397 23.3787 300.128 22.6213 299.941 21.8C299.755 20.9787 299.661 20.104 299.661 19.176C299.661 18.248 299.755 17.3733 299.941 16.552C300.128 15.7307 300.397 14.976 300.749 14.288C301.101 13.6 301.531 12.984 302.037 12.44C302.544 11.8907 303.115 11.4267 303.749 11.048C304.389 10.6693 305.091 10.3813 305.853 10.184C306.616 9.98133 307.427 9.88 308.285 9.88C309.075 9.88 309.811 9.96267 310.493 10.128C311.181 10.2933 311.813 10.5307 312.389 10.84C312.965 11.144 313.483 11.512 313.941 11.944C314.405 12.3707 314.805 12.848 315.141 13.376C315.483 13.904 315.763 14.4747 315.981 15.088C316.2 15.7013 316.352 16.3413 316.437 17.008H313.197C313.091 16.4267 312.912 15.8827 312.661 15.376C312.416 14.864 312.091 14.4187 311.685 14.04C311.28 13.656 310.795 13.3547 310.229 13.136C309.669 12.9173 309.024 12.808 308.293 12.808C307.461 12.808 306.712 12.9547 306.045 13.248C305.379 13.5413 304.811 13.9627 304.341 14.512C303.877 15.0613 303.52 15.7307 303.269 16.52C303.024 17.304 302.901 18.1893 302.901 19.176ZM329.183 27.864C327.833 28.2693 326.617 28.472 325.535 28.472C324.655 28.472 323.876 28.336 323.199 28.064C322.527 27.7973 321.961 27.4 321.503 26.872C321.044 26.3387 320.695 25.68 320.455 24.896C320.22 24.1067 320.103 23.1947 320.103 22.16V13.08H317.703V10.36H320.103V6.296H323.343V10.36H329.183V13.08H323.343V22.168C323.343 23.336 323.561 24.2 323.999 24.76C324.441 25.3147 325.135 25.592 326.079 25.592C326.447 25.592 326.884 25.5493 327.391 25.464C327.903 25.3787 328.5 25.2453 329.183 25.064V27.864ZM334.788 8.32H331.388V4.32H334.788V8.32ZM334.707 28H331.468V10.36H334.707V28ZM336.88 19.176C336.88 18.248 336.973 17.3733 337.16 16.552C337.347 15.7307 337.616 14.976 337.968 14.288C338.32 13.6 338.749 12.984 339.256 12.44C339.763 11.8907 340.333 11.4267 340.968 11.048C341.608 10.6693 342.309 10.3813 343.072 10.184C343.835 9.98133 344.645 9.88 345.504 9.88C346.368 9.88 347.179 9.98133 347.936 10.184C348.699 10.3813 349.397 10.6693 350.032 11.048C350.672 11.4267 351.245 11.8907 351.752 12.44C352.259 12.984 352.688 13.6 353.04 14.288C353.392 14.976 353.661 15.7307 353.848 16.552C354.035 17.3733 354.128 18.248 354.128 19.176C354.128 20.104 354.035 20.9787 353.848 21.8C353.661 22.6213 353.392 23.3787 353.04 24.072C352.688 24.76 352.259 25.376 351.752 25.92C351.245 26.464 350.672 26.928 350.032 27.312C349.397 27.6907 348.699 27.9787 347.936 28.176C347.179 28.3787 346.368 28.48 345.504 28.48C344.645 28.48 343.835 28.3787 343.072 28.176C342.309 27.9787 341.608 27.6907 340.968 27.312C340.333 26.928 339.763 26.464 339.256 25.92C338.749 25.376 338.32 24.76 337.968 24.072C337.616 23.3787 337.347 22.6213 337.16 21.8C336.973 20.9787 336.88 20.104 336.88 19.176ZM340.12 19.176C340.12 20.1627 340.243 21.0507 340.488 21.84C340.739 22.624 341.096 23.2933 341.56 23.848C342.029 24.3973 342.597 24.8187 343.264 25.112C343.931 25.4053 344.68 25.552 345.512 25.552C346.344 25.552 347.091 25.4053 347.752 25.112C348.419 24.8187 348.984 24.3973 349.448 23.848C349.912 23.2933 350.267 22.624 350.512 21.84C350.763 21.0507 350.888 20.1627 350.888 19.176C350.888 18.1893 350.763 17.304 350.512 16.52C350.267 15.7307 349.912 15.0613 349.448 14.512C348.984 13.9627 348.419 13.5413 347.752 13.248C347.091 12.9547 346.344 12.808 345.512 12.808C344.68 12.808 343.931 12.9547 343.264 13.248C342.597 13.5413 342.029 13.9627 341.56 14.512C341.096 15.0613 340.739 15.7307 340.488 16.52C340.243 17.304 340.12 18.1893 340.12 19.176ZM359.52 28H356.28V10.36H359.52V15.456C359.733 14.5867 360.04 13.808 360.44 13.12C360.84 12.432 361.32 11.848 361.88 11.368C362.44 10.888 363.072 10.52 363.776 10.264C364.485 10.008 365.251 9.88 366.072 9.88C367.075 9.88 367.973 10.0693 368.768 10.448C369.563 10.8267 370.235 11.3733 370.784 12.088C371.339 12.7973 371.76 13.664 372.048 14.688C372.341 15.7067 372.488 16.856 372.488 18.136V28H369.248V18.136C369.248 16.3653 368.872 15.0347 368.12 14.144C367.368 13.2533 366.235 12.808 364.72 12.808C363.904 12.808 363.173 12.936 362.528 13.192C361.888 13.4427 361.344 13.8107 360.896 14.296C360.453 14.776 360.112 15.368 359.872 16.072C359.637 16.7707 359.52 17.5653 359.52 18.456V28ZM384.195 13.08H381.515V10.36H384.195V9.96C384.195 8.872 384.331 7.912 384.603 7.08C384.875 6.248 385.275 5.552 385.803 4.992C386.336 4.42667 386.995 4 387.779 3.712C388.563 3.424 389.47 3.28 390.499 3.28C391.384 3.28 392.334 3.384 393.347 3.592V6.392C392.414 6.2 391.616 6.104 390.955 6.104C389.718 6.104 388.795 6.424 388.187 7.064C387.579 7.704 387.275 8.66933 387.275 9.96V10.36H393.355V13.08H387.435V28H384.195V13.08ZM398.614 28H395.374V10.36H398.614V15.992C398.822 15.112 399.118 14.3253 399.502 13.632C399.891 12.9333 400.371 12.3413 400.942 11.856C401.512 11.3707 402.171 11 402.918 10.744C403.67 10.488 404.512 10.36 405.446 10.36H406.254V13.448H405.454C404.163 13.448 403.08 13.568 402.206 13.808C401.331 14.0427 400.627 14.4 400.094 14.88C399.566 15.36 399.187 15.9653 398.958 16.696C398.728 17.4213 398.614 18.2747 398.614 19.256V28ZM407.255 19.176C407.255 18.248 407.348 17.3733 407.535 16.552C407.722 15.7307 407.991 14.976 408.343 14.288C408.695 13.6 409.124 12.984 409.631 12.44C410.138 11.8907 410.708 11.4267 411.343 11.048C411.983 10.6693 412.684 10.3813 413.447 10.184C414.21 9.98133 415.02 9.88 415.879 9.88C416.743 9.88 417.554 9.98133 418.311 10.184C419.074 10.3813 419.772 10.6693 420.407 11.048C421.047 11.4267 421.62 11.8907 422.127 12.44C422.634 12.984 423.063 13.6 423.415 14.288C423.767 14.976 424.036 15.7307 424.223 16.552C424.41 17.3733 424.503 18.248 424.503 19.176C424.503 20.104 424.41 20.9787 424.223 21.8C424.036 22.6213 423.767 23.3787 423.415 24.072C423.063 24.76 422.634 25.376 422.127 25.92C421.62 26.464 421.047 26.928 420.407 27.312C419.772 27.6907 419.074 27.9787 418.311 28.176C417.554 28.3787 416.743 28.48 415.879 28.48C415.02 28.48 414.21 28.3787 413.447 28.176C412.684 27.9787 411.983 27.6907 411.343 27.312C410.708 26.928 410.138 26.464 409.631 25.92C409.124 25.376 408.695 24.76 408.343 24.072C407.991 23.3787 407.722 22.6213 407.535 21.8C407.348 20.9787 407.255 20.104 407.255 19.176ZM410.495 19.176C410.495 20.1627 410.618 21.0507 410.863 21.84C411.114 22.624 411.471 23.2933 411.935 23.848C412.404 24.3973 412.972 24.8187 413.639 25.112C414.306 25.4053 415.055 25.552 415.887 25.552C416.719 25.552 417.466 25.4053 418.127 25.112C418.794 24.8187 419.359 24.3973 419.823 23.848C420.287 23.2933 420.642 22.624 420.887 21.84C421.138 21.0507 421.263 20.1627 421.263 19.176C421.263 18.1893 421.138 17.304 420.887 16.52C420.642 15.7307 420.287 15.0613 419.823 14.512C419.359 13.9627 418.794 13.5413 418.127 13.248C417.466 12.9547 416.719 12.808 415.887 12.808C415.055 12.808 414.306 12.9547 413.639 13.248C412.972 13.5413 412.404 13.9627 411.935 14.512C411.471 15.0613 411.114 15.7307 410.863 16.52C410.618 17.304 410.495 18.1893 410.495 19.176ZM429.895 28H426.655V10.36H429.895V15.272C430.103 14.4293 430.391 13.6747 430.759 13.008C431.132 12.3413 431.575 11.776 432.087 11.312C432.599 10.848 433.175 10.4933 433.815 10.248C434.455 10.0027 435.148 9.88 435.895 9.88C436.684 9.88 437.402 10.0187 438.047 10.296C438.698 10.568 439.268 10.9653 439.759 11.488C440.255 12.0107 440.663 12.6507 440.983 13.408C441.308 14.16 441.54 15.0133 441.679 15.968C441.85 15.024 442.116 14.176 442.479 13.424C442.842 12.672 443.284 12.0347 443.807 11.512C444.335 10.984 444.938 10.5813 445.615 10.304C446.292 10.0213 447.028 9.88 447.823 9.88C448.751 9.88 449.58 10.0693 450.311 10.448C451.047 10.8267 451.668 11.3733 452.175 12.088C452.687 12.7973 453.076 13.664 453.343 14.688C453.615 15.7067 453.751 16.856 453.751 18.136V28H450.511V18.136C450.511 16.3653 450.175 15.0347 449.503 14.144C448.836 13.2533 447.826 12.808 446.471 12.808C445.746 12.808 445.095 12.936 444.519 13.192C443.943 13.4427 443.455 13.8107 443.055 14.296C442.655 14.776 442.348 15.368 442.135 16.072C441.927 16.7707 441.823 17.5653 441.823 18.456V28H438.583V18.136C438.583 16.3653 438.247 15.0347 437.575 14.144C436.908 13.2533 435.898 12.808 434.543 12.808C433.818 12.808 433.167 12.936 432.591 13.192C432.015 13.4427 431.527 13.8107 431.127 14.296C430.727 14.776 430.42 15.368 430.207 16.072C429.999 16.7707 429.895 17.5653 429.895 18.456V28ZM149.373 62.88H153.421V66H141.965V62.88H146.013V49.504H141.021V46.624H143.077C143.69 46.624 144.205 46.5627 144.621 46.44C145.037 46.312 145.37 46.096 145.621 45.792C145.877 45.488 146.058 45.08 146.165 44.568C146.277 44.0507 146.333 43.4053 146.333 42.632H149.373V62.88ZM174.073 65.864C172.724 66.2693 171.508 66.472 170.425 66.472C169.545 66.472 168.766 66.336 168.089 66.064C167.417 65.7973 166.852 65.4 166.393 64.872C165.934 64.3387 165.585 63.68 165.345 62.896C165.11 62.1067 164.993 61.1947 164.993 60.16V51.08H162.593V48.36H164.993V44.296H168.233V48.36H174.073V51.08H168.233V60.168C168.233 61.336 168.452 62.2 168.889 62.76C169.332 63.3147 170.025 63.592 170.969 63.592C171.337 63.592 171.774 63.5493 172.281 63.464C172.793 63.3787 173.39 63.2453 174.073 63.064V65.864ZM175.239 57.176C175.239 56.248 175.333 55.3733 175.519 54.552C175.706 53.7307 175.975 52.976 176.327 52.288C176.679 51.6 177.109 50.984 177.615 50.44C178.122 49.8907 178.693 49.4267 179.327 49.048C179.967 48.6693 180.669 48.3813 181.431 48.184C182.194 47.9813 183.005 47.88 183.863 47.88C184.727 47.88 185.538 47.9813 186.295 48.184C187.058 48.3813 187.757 48.6693 188.391 49.048C189.031 49.4267 189.605 49.8907 190.111 50.44C190.618 50.984 191.047 51.6 191.399 52.288C191.751 52.976 192.021 53.7307 192.207 54.552C192.394 55.3733 192.487 56.248 192.487 57.176C192.487 58.104 192.394 58.9787 192.207 59.8C192.021 60.6213 191.751 61.3787 191.399 62.072C191.047 62.76 190.618 63.376 190.111 63.92C189.605 64.464 189.031 64.928 188.391 65.312C187.757 65.6907 187.058 65.9787 186.295 66.176C185.538 66.3787 184.727 66.48 183.863 66.48C183.005 66.48 182.194 66.3787 181.431 66.176C180.669 65.9787 179.967 65.6907 179.327 65.312C178.693 64.928 178.122 64.464 177.615 63.92C177.109 63.376 176.679 62.76 176.327 62.072C175.975 61.3787 175.706 60.6213 175.519 59.8C175.333 58.9787 175.239 58.104 175.239 57.176ZM178.479 57.176C178.479 58.1627 178.602 59.0507 178.847 59.84C179.098 60.624 179.455 61.2933 179.919 61.848C180.389 62.3973 180.957 62.8187 181.623 63.112C182.29 63.4053 183.039 63.552 183.871 63.552C184.703 63.552 185.45 63.4053 186.111 63.112C186.778 62.8187 187.343 62.3973 187.807 61.848C188.271 61.2933 188.626 60.624 188.871 59.84C189.122 59.0507 189.247 58.1627 189.247 57.176C189.247 56.1893 189.122 55.304 188.871 54.52C188.626 53.7307 188.271 53.0613 187.807 52.512C187.343 51.9627 186.778 51.5413 186.111 51.248C185.45 50.9547 184.703 50.808 183.871 50.808C183.039 50.808 182.29 50.9547 181.623 51.248C180.957 51.5413 180.389 51.9627 179.919 52.512C179.455 53.0613 179.098 53.7307 178.847 54.52C178.602 55.304 178.479 56.1893 178.479 57.176ZM210.955 66.472C210.091 66.472 209.275 66.392 208.507 66.232C207.739 66.072 207.03 65.8427 206.379 65.544C205.734 65.24 205.152 64.8747 204.635 64.448C204.123 64.016 203.688 63.5307 203.331 62.992C202.974 62.448 202.699 61.856 202.507 61.216C202.315 60.5707 202.219 59.888 202.219 59.168V58.976H205.579V59.136C205.579 59.7653 205.707 60.3387 205.963 60.856C206.224 61.3733 206.59 61.8187 207.059 62.192C207.528 62.56 208.091 62.8453 208.747 63.048C209.403 63.2507 210.128 63.352 210.923 63.352C212.059 63.352 213.067 63.1413 213.947 62.72C214.832 62.2933 215.576 61.672 216.179 60.856C216.782 60.0347 217.24 59.0293 217.555 57.84C217.87 56.6453 218.027 55.28 218.027 53.744V51.28C217.915 52.144 217.646 52.9173 217.219 53.6C216.798 54.2827 216.238 54.864 215.539 55.344C214.84 55.8187 214.014 56.184 213.059 56.44C212.104 56.6907 211.04 56.816 209.867 56.816C208.587 56.816 207.44 56.664 206.427 56.36C205.414 56.056 204.552 55.6187 203.843 55.048C203.139 54.4773 202.6 53.7813 202.227 52.96C201.854 52.1387 201.667 51.208 201.667 50.168C201.667 49.032 201.888 48 202.331 47.072C202.779 46.144 203.411 45.352 204.227 44.696C205.048 44.04 206.038 43.5333 207.195 43.176C208.352 42.8187 209.64 42.64 211.059 42.64C212.723 42.64 214.195 42.8907 215.475 43.392C216.755 43.8933 217.832 44.6267 218.707 45.592C219.582 46.5573 220.243 47.744 220.691 49.152C221.144 50.5547 221.371 52.16 221.371 53.968V54.16C221.371 56.08 221.131 57.8 220.651 59.32C220.176 60.84 219.491 62.1307 218.595 63.192C217.699 64.2533 216.606 65.0667 215.315 65.632C214.03 66.192 212.576 66.472 210.955 66.472ZM210.707 45.76C209.795 45.76 208.984 45.856 208.275 46.048C207.571 46.2347 206.976 46.5147 206.491 46.888C206.011 47.256 205.646 47.712 205.395 48.256C205.15 48.7947 205.027 49.416 205.027 50.12C205.027 50.8133 205.15 51.432 205.395 51.976C205.64 52.5147 205.998 52.968 206.467 53.336C206.942 53.704 207.523 53.984 208.211 54.176C208.899 54.368 209.688 54.464 210.579 54.464C211.55 54.464 212.446 54.3547 213.267 54.136C214.088 53.912 214.798 53.6027 215.395 53.208C215.992 52.8133 216.459 52.3467 216.795 51.808C217.131 51.264 217.299 50.6693 217.299 50.024C217.299 49.3947 217.139 48.8187 216.819 48.296C216.499 47.7733 216.048 47.3253 215.467 46.952C214.886 46.5733 214.19 46.28 213.379 46.072C212.574 45.864 211.683 45.76 210.707 45.76ZM223.604 54.56C223.604 53.376 223.716 52.2613 223.94 51.216C224.164 50.1653 224.484 49.2 224.9 48.32C225.322 47.4347 225.834 46.6427 226.436 45.944C227.039 45.24 227.719 44.6453 228.476 44.16C229.239 43.6693 230.071 43.2933 230.972 43.032C231.874 42.7707 232.831 42.64 233.844 42.64C234.863 42.64 235.82 42.7707 236.716 43.032C237.618 43.2933 238.447 43.6693 239.204 44.16C239.967 44.6453 240.65 45.24 241.252 45.944C241.855 46.6427 242.364 47.4347 242.78 48.32C243.202 49.2 243.524 50.1653 243.748 51.216C243.972 52.2613 244.084 53.376 244.084 54.56C244.084 55.7387 243.972 56.8533 243.748 57.904C243.524 58.9547 243.202 59.9227 242.78 60.808C242.364 61.688 241.855 62.48 241.252 63.184C240.65 63.8827 239.967 64.4773 239.204 64.968C238.447 65.4533 237.618 65.8267 236.716 66.088C235.815 66.3493 234.858 66.48 233.844 66.48C232.831 66.48 231.874 66.3493 230.972 66.088C230.071 65.8267 229.239 65.4533 228.476 64.968C227.719 64.4773 227.039 63.8827 226.436 63.184C225.834 62.48 225.322 61.688 224.9 60.808C224.484 59.9227 224.164 58.9547 223.94 57.904C223.716 56.8533 223.604 55.7387 223.604 54.56ZM226.964 54.56C226.964 55.936 227.122 57.168 227.436 58.256C227.751 59.344 228.204 60.2667 228.796 61.024C229.388 61.776 230.108 62.3547 230.956 62.76C231.81 63.16 232.772 63.36 233.844 63.36C234.916 63.36 235.876 63.16 236.724 62.76C237.578 62.3547 238.3 61.776 238.892 61.024C239.484 60.2667 239.938 59.344 240.252 58.256C240.567 57.168 240.724 55.936 240.724 54.56C240.724 53.184 240.567 51.952 240.252 50.864C239.938 49.776 239.484 48.856 238.892 48.104C238.3 47.3467 237.578 46.768 236.724 46.368C235.876 45.9627 234.916 45.76 233.844 45.76C232.772 45.76 231.81 45.9627 230.956 46.368C230.108 46.768 229.388 47.3467 228.796 48.104C228.204 48.856 227.751 49.776 227.436 50.864C227.122 51.952 226.964 53.184 226.964 54.56ZM270.519 42.32V66H267.279V60.56C267.049 61.4667 266.729 62.2853 266.319 63.016C265.908 63.7467 265.423 64.368 264.863 64.88C264.303 65.392 263.673 65.7867 262.975 66.064C262.281 66.3413 261.535 66.48 260.735 66.48C260.009 66.48 259.321 66.376 258.671 66.168C258.02 65.96 257.417 65.6613 256.863 65.272C256.313 64.8827 255.815 64.4133 255.367 63.864C254.924 63.3093 254.548 62.688 254.239 62C253.929 61.3067 253.689 60.5547 253.519 59.744C253.353 58.9333 253.271 58.0773 253.271 57.176C253.271 56.2747 253.353 55.4187 253.519 54.608C253.689 53.7973 253.929 53.048 254.239 52.36C254.548 51.672 254.924 51.0533 255.367 50.504C255.815 49.9493 256.313 49.4773 256.863 49.088C257.417 48.6987 258.02 48.4 258.671 48.192C259.321 47.984 260.009 47.88 260.735 47.88C261.535 47.88 262.281 48.0187 262.975 48.296C263.673 48.5733 264.303 48.968 264.863 49.48C265.423 49.992 265.908 50.6133 266.319 51.344C266.729 52.0693 267.049 52.8853 267.279 53.792V42.32H270.519ZM267.279 57.176C267.279 56.168 267.153 55.2667 266.903 54.472C266.657 53.672 266.3 52.9947 265.831 52.44C265.361 51.8853 264.791 51.4613 264.119 51.168C263.447 50.8747 262.687 50.728 261.839 50.728C260.975 50.728 260.209 50.8693 259.543 51.152C258.881 51.4293 258.327 51.84 257.879 52.384C257.431 52.928 257.089 53.6027 256.855 54.408C256.625 55.208 256.511 56.1307 256.511 57.176C256.511 58.2213 256.625 59.1467 256.855 59.952C257.089 60.752 257.431 61.4267 257.879 61.976C258.327 62.52 258.881 62.9333 259.543 63.216C260.209 63.4933 260.975 63.632 261.839 63.632C262.687 63.632 263.447 63.4853 264.119 63.192C264.791 62.8933 265.361 62.4667 265.831 61.912C266.3 61.3573 266.657 60.6827 266.903 59.888C267.153 59.088 267.279 58.184 267.279 57.176ZM273.117 54.504C273.117 53.4907 273.304 52.576 273.677 51.76C274.05 50.944 274.584 50.248 275.277 49.672C275.976 49.096 276.818 48.6533 277.805 48.344C278.797 48.0347 279.912 47.88 281.149 47.88C282.456 47.88 283.626 48.056 284.661 48.408C285.696 48.7547 286.573 49.256 287.293 49.912C288.013 50.568 288.565 51.3707 288.949 52.32C289.333 53.264 289.525 54.336 289.525 55.536V66H286.285V61.256C286.072 62.0667 285.746 62.7947 285.309 63.44C284.877 64.0853 284.349 64.6347 283.725 65.088C283.106 65.536 282.4 65.88 281.605 66.12C280.81 66.36 279.949 66.48 279.021 66.48C278.056 66.48 277.178 66.352 276.389 66.096C275.6 65.84 274.922 65.48 274.357 65.016C273.797 64.552 273.362 63.9947 273.053 63.344C272.749 62.688 272.597 61.96 272.597 61.16C272.597 60.3547 272.754 59.6293 273.069 58.984C273.389 58.3387 273.845 57.792 274.437 57.344C275.034 56.8907 275.757 56.544 276.605 56.304C277.458 56.064 278.416 55.944 279.477 55.944H286.285V55.536C286.285 54.8107 286.162 54.1573 285.917 53.576C285.677 52.9893 285.333 52.4933 284.885 52.088C284.437 51.6773 283.893 51.3627 283.253 51.144C282.613 50.9253 281.893 50.816 281.093 50.816C280.277 50.816 279.57 50.904 278.973 51.08C278.381 51.256 277.89 51.5067 277.501 51.832C277.117 52.152 276.829 52.5387 276.637 52.992C276.45 53.4453 276.357 53.9493 276.357 54.504H273.117ZM279.445 58.664C278.245 58.664 277.336 58.8667 276.717 59.272C276.104 59.672 275.797 60.2667 275.797 61.056C275.797 61.472 275.885 61.8427 276.061 62.168C276.242 62.4933 276.506 62.7653 276.853 62.984C277.2 63.2027 277.626 63.3707 278.133 63.488C278.645 63.6 279.232 63.656 279.893 63.656C280.832 63.656 281.69 63.5467 282.469 63.328C283.253 63.104 283.928 62.7947 284.493 62.4C285.058 62 285.498 61.5253 285.813 60.976C286.128 60.4213 286.285 59.8133 286.285 59.152V58.664H279.445ZM307.619 48.36L300.315 67.112C299.947 68.0507 299.518 68.8613 299.027 69.544C298.542 70.2267 297.982 70.7893 297.347 71.232C296.718 71.68 296.011 72.0107 295.227 72.224C294.448 72.4373 293.582 72.544 292.627 72.544C292.366 72.544 292.112 72.536 291.867 72.52C291.622 72.504 291.384 72.4827 291.155 72.456V69.624C291.438 69.6613 291.699 69.688 291.939 69.704C292.184 69.72 292.419 69.728 292.643 69.728C293.71 69.728 294.579 69.52 295.251 69.104C295.923 68.688 296.427 68.024 296.763 67.112L296.987 66.52L289.987 48.36H293.347L298.811 63.048L304.339 48.36H307.619ZM315.932 47.88C317.132 47.88 318.199 48.016 319.132 48.288C320.071 48.56 320.86 48.9493 321.5 49.456C322.146 49.9573 322.636 50.568 322.972 51.288C323.308 52.0027 323.476 52.8053 323.476 53.696H320.308C320.308 53.2427 320.212 52.832 320.02 52.464C319.834 52.0907 319.554 51.7733 319.18 51.512C318.812 51.2453 318.356 51.04 317.812 50.896C317.268 50.752 316.642 50.68 315.932 50.68C315.292 50.68 314.708 50.7387 314.18 50.856C313.658 50.9733 313.207 51.1413 312.828 51.36C312.45 51.5733 312.156 51.832 311.948 52.136C311.74 52.4347 311.636 52.768 311.636 53.136C311.636 53.4133 311.695 53.6587 311.812 53.872C311.93 54.08 312.09 54.2613 312.292 54.416C312.495 54.5707 312.732 54.704 313.004 54.816C313.276 54.9227 313.567 55.016 313.876 55.096C314.191 55.176 314.516 55.2453 314.852 55.304C315.188 55.3573 315.519 55.4107 315.844 55.464L317.028 55.648C317.519 55.7227 318.034 55.8107 318.572 55.912C319.116 56.008 319.65 56.1387 320.172 56.304C320.7 56.464 321.202 56.6693 321.676 56.92C322.156 57.1653 322.578 57.4747 322.94 57.848C323.303 58.2213 323.591 58.6693 323.804 59.192C324.018 59.7093 324.124 60.3253 324.124 61.04C324.124 61.9093 323.954 62.6827 323.612 63.36C323.271 64.032 322.767 64.6 322.1 65.064C321.434 65.528 320.61 65.88 319.628 66.12C318.647 66.36 317.514 66.48 316.228 66.48C314.89 66.48 313.716 66.3493 312.708 66.088C311.7 65.8267 310.86 65.4427 310.188 64.936C309.516 64.4293 309.01 63.808 308.668 63.072C308.332 62.3307 308.164 61.48 308.164 60.52H311.324C311.324 61.5333 311.724 62.3147 312.524 62.864C313.324 63.408 314.556 63.68 316.22 63.68C316.972 63.68 317.642 63.624 318.228 63.512C318.815 63.4 319.311 63.2347 319.716 63.016C320.122 62.7973 320.431 62.528 320.644 62.208C320.858 61.888 320.964 61.5227 320.964 61.112C320.964 60.792 320.903 60.512 320.78 60.272C320.658 60.0267 320.487 59.816 320.268 59.64C320.05 59.4587 319.791 59.304 319.492 59.176C319.199 59.0427 318.879 58.928 318.532 58.832C318.186 58.736 317.823 58.6533 317.444 58.584C317.071 58.5093 316.692 58.44 316.308 58.376L315.132 58.176C314.684 58.1013 314.21 58.016 313.708 57.92C313.207 57.8187 312.708 57.6933 312.212 57.544C311.722 57.3893 311.25 57.1973 310.796 56.968C310.348 56.7333 309.951 56.4453 309.604 56.104C309.263 55.7627 308.988 55.3547 308.78 54.88C308.578 54.4053 308.476 53.848 308.476 53.208C308.476 52.3973 308.647 51.664 308.988 51.008C309.335 50.352 309.828 49.792 310.468 49.328C311.114 48.864 311.895 48.5067 312.812 48.256C313.735 48.0053 314.775 47.88 315.932 47.88Z" fill="white"/>
</svg>
