<svg width="515" height="221" viewBox="0 0 515 221" fill="none" xmlns="http://www.w3.org/2000/svg">
<rect x="155" y="180" width="205" height="40" fill="#212367"/>
<rect y="5.58386" width="160" height="52" rx="26" transform="rotate(-2 0 5.58386)" fill="#5069DD"/>
<path d="M23.4285 28.34C23.3871 27.1568 23.4655 26.0387 23.6635 24.9858C23.8614 23.9276 24.1662 22.951 24.5778 22.0561C24.9947 21.1557 25.508 20.3453 26.1179 19.6249C26.7276 18.8992 27.4238 18.2798 28.2064 17.7669C28.9888 17.2486 29.8498 16.8423 30.7894 16.548C31.729 16.2537 32.7345 16.0878 33.8059 16.0504C34.8772 16.013 35.8918 16.1083 36.8497 16.3363C37.8076 16.5644 38.6948 16.9096 39.5115 17.3721C40.3279 17.8292 41.0656 18.3985 41.7244 19.0799C42.3884 19.7558 42.9571 20.5284 43.4304 21.3978C43.9035 22.2618 44.2756 23.2147 44.5468 24.2565C44.8231 25.2929 44.982 26.4027 45.0233 27.5859C45.0644 28.7639 44.9834 29.8821 44.7802 30.9405C44.5824 31.9987 44.2777 32.9779 43.8662 33.8782C43.4545 34.7731 42.9411 35.5835 42.3261 36.3094C41.7162 37.0298 41.0201 37.6491 40.2377 38.1674C39.4551 38.6804 38.594 39.084 37.6544 39.3783C36.7147 39.6726 35.7092 39.8385 34.6379 39.8759C33.5665 39.9133 32.5519 39.818 31.594 39.5899C30.6362 39.3619 29.749 39.0193 28.9326 38.5622C28.1159 38.0997 27.3783 37.5305 26.7196 36.8544C26.0608 36.173 25.4921 35.4003 25.0137 34.5365C24.5404 33.6672 24.1681 32.7116 23.8969 31.6697C23.6258 30.6279 23.4696 29.518 23.4285 28.34ZM26.7864 28.2228C26.8344 29.5979 27.0453 30.8233 27.4191 31.8989C27.7982 32.9744 28.3208 33.8794 28.9868 34.6139C29.6526 35.3431 30.451 35.8942 31.382 36.2673C32.318 36.6349 33.367 36.7983 34.529 36.7578C35.691 36.7172 36.7233 36.481 37.6262 36.0493C38.5341 35.612 39.2948 35.0064 39.9081 34.2325C40.5213 33.4533 40.9795 32.5141 41.2826 31.4148C41.5858 30.3156 41.7134 29.0784 41.6653 27.7032C41.6173 26.328 41.4038 25.1027 41.0247 24.0273C40.6456 22.9519 40.1231 22.0496 39.4572 21.3204C38.7912 20.5858 37.9901 20.0348 37.0541 19.6672C36.1232 19.2942 35.0767 19.1279 33.9148 19.1685C32.7528 19.2091 31.7178 19.448 30.8099 19.8853C29.9071 20.3171 29.1491 20.9225 28.5359 21.7018C27.9225 22.4756 27.4643 23.4122 27.1611 24.5114C26.8633 25.6105 26.7384 26.8476 26.7864 28.2228ZM50.6288 26.6217C50.8264 25.7076 51.1177 24.8809 51.5028 24.1417C51.8877 23.3972 52.3511 22.7593 52.8928 22.228C53.4346 21.6968 54.0471 21.2805 54.7304 20.9791C55.4189 20.6776 56.163 20.5129 56.9625 20.4849C57.6874 20.4596 58.3786 20.5396 59.0361 20.7247C59.6937 20.9099 60.3037 21.1874 60.8663 21.5574C61.4342 21.9271 61.9491 22.3814 62.4108 22.9203C62.8777 23.4536 63.2777 24.0587 63.6109 24.7355C63.944 25.4123 64.2074 26.1529 64.4009 26.9573C64.5998 27.7615 64.7149 28.614 64.7464 29.5148C64.7778 30.4156 64.7224 31.274 64.5802 32.0902C64.4432 32.9061 64.2323 33.6659 63.9473 34.3696C63.6622 35.068 63.3054 35.7022 62.8771 36.2721C62.4538 36.8366 61.9719 37.323 61.4311 37.7315C60.8957 38.1398 60.3065 38.4592 59.6635 38.6898C59.0205 38.9204 58.3365 39.0483 57.6116 39.0736C56.8121 39.1015 56.0584 38.9891 55.3505 38.7363C54.6479 38.4834 54.0078 38.1108 53.4303 37.6187C52.8528 37.1265 52.3461 36.5225 51.9101 35.8066C51.4742 35.0907 51.1258 34.2837 50.865 33.3856L51.2657 44.8586L48.0276 44.9717L47.2012 21.3061L50.4392 21.193L50.6288 26.6217ZM50.7469 30.0037C50.7821 31.011 50.9362 31.9102 51.2093 32.7012C51.4876 33.4866 51.8709 34.1483 52.3593 34.6862C52.8477 35.2242 53.4329 35.6307 54.1149 35.9057C54.7968 36.1754 55.5614 36.2955 56.4089 36.2659C57.2724 36.2357 58.0297 36.0705 58.681 35.7703C59.3374 35.4645 59.88 35.032 60.3087 34.4727C60.7373 33.908 61.0522 33.222 61.2534 32.4145C61.4599 31.6014 61.5448 30.6726 61.5083 29.6279C61.4719 28.5832 61.3224 27.6652 61.06 26.8738C60.8027 26.077 60.4407 25.4146 59.9739 24.8865C59.5072 24.3585 58.9359 23.9675 58.26 23.7136C57.5892 23.4542 56.822 23.3396 55.9586 23.3697C55.1111 23.3993 54.3567 23.5724 53.6953 23.889C53.034 24.2056 52.4784 24.6493 52.0287 25.22C51.5791 25.7907 51.2429 26.4802 51.0203 27.2885C50.8029 28.0912 50.7117 28.9963 50.7469 30.0037ZM77.7901 37.7526C76.4557 38.2048 75.2475 38.4497 74.1655 38.4875C73.286 38.5182 72.5031 38.4095 71.8167 38.1613C71.1358 37.9183 70.5569 37.5409 70.0801 37.0292C69.6031 36.5122 69.231 35.8661 68.9638 35.091C68.7017 34.3103 68.5526 33.403 68.5165 32.369L68.1996 23.2945L65.8011 23.3782L65.7062 20.6599L68.1047 20.5761L67.9629 16.5146L71.2009 16.4015L71.3427 20.4631L77.1792 20.2593L77.2741 22.9776L71.4377 23.1814L71.7548 32.2639C71.7956 33.4312 72.0443 34.287 72.5009 34.8314C72.9626 35.3703 73.6652 35.6232 74.6087 35.5903C74.9764 35.5775 75.412 35.5196 75.9154 35.4166C76.4241 35.3134 77.0164 35.1593 77.6923 34.9543L77.7901 37.7526ZM82.7096 18.0249L79.3116 18.1435L79.172 14.146L82.57 14.0273L82.7096 18.0249ZM83.3164 37.6957L80.0784 37.8088L79.4628 20.1795L82.7008 20.0664L83.3164 37.6957ZM85.1797 28.8012C85.1473 27.8738 85.21 26.9964 85.3679 26.1691C85.5258 25.3417 85.7686 24.5781 86.0964 23.8782C86.4242 23.1784 86.8318 22.5478 87.3191 21.9864C87.8063 21.4197 88.3605 20.9361 88.9815 20.5355C89.6079 20.1348 90.2988 19.8225 91.0541 19.5986C91.8092 19.3695 92.6158 19.2399 93.474 19.2099C94.3375 19.1798 95.1512 19.2528 95.9151 19.4289C96.6842 19.5995 97.3925 19.8629 98.04 20.2192C98.6928 20.5753 99.282 21.019 99.8075 21.5503C100.333 22.0763 100.783 22.6769 101.159 23.3522C101.535 24.0275 101.831 24.7723 102.046 25.5867C102.261 26.401 102.385 27.2719 102.417 28.1993C102.45 29.1267 102.387 30.0041 102.229 30.8315C102.071 31.6588 101.828 32.4251 101.501 33.1303C101.173 33.8302 100.765 34.4608 100.278 35.0221C99.7906 35.5835 99.2338 36.0672 98.6076 36.4733C97.9865 36.8739 97.2983 37.1861 96.543 37.4099C95.7932 37.6389 94.9866 37.7684 94.1231 37.7986C93.265 37.8286 92.4513 37.7556 91.682 37.5797C90.9129 37.4091 90.2019 37.1457 89.5491 36.7896C88.9014 36.428 88.3149 35.9842 87.7896 35.4582C87.2642 34.9322 86.8137 34.3316 86.4379 33.6563C86.0619 32.9757 85.7663 32.2282 85.5511 31.4139C85.3359 30.5996 85.2121 29.7287 85.1797 28.8012ZM88.4177 28.6882C88.4521 29.6742 88.6057 30.5574 88.8784 31.3377C89.1563 32.1125 89.5368 32.7689 90.0199 33.3071C90.5081 33.8397 91.0904 34.2409 91.7669 34.5108C92.4434 34.7807 93.1974 34.9011 94.0289 34.8721C94.8604 34.8431 95.6015 34.6704 96.2522 34.3542C96.9082 34.0378 97.4585 33.597 97.9031 33.0318C98.3474 32.4613 98.6785 31.78 98.8963 30.9879C99.1193 30.1903 99.2136 29.2984 99.1791 28.3124C99.1447 27.3263 98.9885 26.4459 98.7107 25.6711C98.4379 24.8908 98.0601 24.2343 97.5772 23.7015C97.0944 23.1687 96.5147 22.7673 95.8382 22.4974C95.167 22.2274 94.4157 22.1068 93.5842 22.1359C92.7527 22.1649 92.0089 22.3376 91.3529 22.6541C90.6969 22.9705 90.1439 23.4114 89.694 23.9768C89.2495 24.5419 88.9157 25.2233 88.6928 26.0209C88.475 26.813 88.3833 27.7021 88.4177 28.6882ZM108.114 36.8297L104.876 36.9428L104.26 19.3136L107.498 19.2005L107.676 24.2934C107.859 23.4171 108.138 22.6282 108.514 21.9267C108.89 21.2252 109.349 20.6248 109.892 20.1255C110.435 19.6263 111.054 19.2364 111.748 18.956C112.448 18.6754 113.209 18.5208 114.029 18.4921C115.032 18.4571 115.936 18.615 116.744 18.9657C117.551 19.3164 118.242 19.8393 118.816 20.5343C119.395 21.2239 119.846 22.0753 120.17 23.0886C120.498 24.0964 120.685 25.24 120.73 26.5192L121.074 36.3772L117.836 36.4902L117.492 26.6322C117.43 24.8627 117.008 23.5459 116.225 22.682C115.442 21.8182 114.294 21.4127 112.78 21.4655C111.965 21.494 111.239 21.6474 110.603 21.9258C109.972 22.1986 109.442 22.5854 109.011 23.0861C108.585 23.5812 108.265 24.1848 108.049 24.8967C107.839 25.6032 107.75 26.4014 107.781 27.2916L108.114 36.8297ZM130.083 17.9315C131.282 17.8896 132.353 17.9883 133.295 18.2276C134.243 18.4667 135.045 18.8282 135.703 19.3122C136.365 19.7907 136.877 20.3839 137.238 21.0917C137.599 21.7942 137.794 22.5906 137.826 23.4807L134.659 23.5912C134.644 23.1382 134.533 22.7311 134.329 22.37C134.129 22.0035 133.838 21.6961 133.456 21.4479C133.079 21.1943 132.616 21.005 132.067 20.8801C131.519 20.7551 130.89 20.705 130.181 20.7298C129.541 20.7521 128.96 20.8312 128.436 20.9668C127.918 21.1023 127.473 21.286 127.103 21.5177C126.732 21.7441 126.447 22.0129 126.25 22.324C126.053 22.6297 125.96 22.9665 125.973 23.3342C125.983 23.6114 126.05 23.8545 126.175 24.0636C126.299 24.2674 126.466 24.4431 126.673 24.5906C126.881 24.7381 127.123 24.863 127.399 24.9655C127.675 25.0626 127.968 25.1457 128.28 25.2149C128.598 25.2838 128.925 25.3418 129.263 25.3887C129.601 25.4303 129.933 25.472 130.26 25.514L131.45 25.6565C131.943 25.714 132.46 25.784 133.002 25.8665C133.549 25.9434 134.086 26.0554 134.615 26.2024C135.148 26.3439 135.656 26.5316 136.139 26.7655C136.627 26.994 137.059 27.2884 137.435 27.6489C137.81 28.0093 138.114 28.447 138.345 28.9619C138.576 29.4715 138.705 30.0834 138.729 30.7976C138.76 31.6664 138.616 32.4452 138.299 33.1341C137.981 33.8176 137.497 34.4028 136.847 34.8898C136.197 35.3768 135.386 35.7573 134.413 36.0314C133.441 36.3055 132.313 36.465 131.028 36.5099C129.69 36.5566 128.513 36.4669 127.497 36.2409C126.48 36.0149 125.627 35.6605 124.938 35.1776C124.249 34.6947 123.721 34.0914 123.354 33.3678C122.992 32.6386 122.795 31.7943 122.761 30.8349L125.919 30.7246C125.954 31.7373 126.382 32.5042 127.2 33.0253C128.019 33.5411 129.259 33.7699 130.922 33.7118C131.674 33.6856 132.341 33.6063 132.923 33.4739C133.506 33.3415 133.996 33.1589 134.393 32.9262C134.791 32.6936 135.09 32.4136 135.292 32.0863C135.494 31.7591 135.588 31.3903 135.574 30.9798C135.563 30.66 135.492 30.3823 135.361 30.1468C135.23 29.9059 135.052 29.7013 134.827 29.533C134.602 29.3594 134.338 29.2139 134.035 29.0964C133.737 28.9734 133.414 28.8699 133.064 28.7861C132.714 28.7023 132.349 28.6323 131.968 28.5762C131.592 28.5146 131.211 28.4586 130.825 28.408L129.643 28.2492C129.193 28.1902 128.715 28.1215 128.211 28.043C127.706 27.9592 127.204 27.8514 126.703 27.7195C126.207 27.582 125.729 27.4066 125.267 27.1932C124.812 26.9743 124.404 26.7004 124.046 26.3713C123.693 26.0421 123.404 25.644 123.18 25.1768C122.961 24.7095 122.84 24.1561 122.818 23.5165C122.789 22.7063 122.934 21.9675 123.253 21.2999C123.576 20.6322 124.05 20.0554 124.673 19.5693C125.302 19.0831 126.07 18.6987 126.978 18.4162C127.892 18.1335 128.927 17.9719 130.083 17.9315Z" fill="white"/>
<rect x="286.815" y="22" width="220" height="52" rx="26" transform="rotate(2 286.815 22)" fill="#8E3ECD"/>
<path d="M307.157 57.7317L316.478 35.1633L321.515 35.3392L329.128 58.4989L325.562 58.3744L323.675 52.569L312.962 52.1949L310.643 57.8534L307.157 57.7317ZM322.67 49.4921L318.868 37.7843L314.187 49.1959L322.67 49.4921ZM344.013 41.368L347.252 41.4811L346.636 59.1103L343.398 58.9973L343.576 53.9044C343.332 54.7657 342.999 55.5332 342.575 56.2068C342.151 56.8805 341.651 57.4474 341.074 57.9075C340.498 58.3677 339.854 58.7134 339.141 58.9447C338.429 59.176 337.662 59.2773 336.841 59.2486C335.834 59.2134 334.94 58.9927 334.159 58.5866C333.378 58.1751 332.723 57.6052 332.193 56.8769C331.669 56.1435 331.278 55.2627 331.021 54.2344C330.768 53.2063 330.664 52.0527 330.709 50.7734L331.053 40.9154L334.291 41.0285L333.947 50.8865C333.886 52.6508 334.215 53.9937 334.935 54.9154C335.656 55.8318 336.773 56.3164 338.286 56.3693C339.102 56.3978 339.834 56.2979 340.482 56.0697C341.136 55.8364 341.693 55.4876 342.152 55.0234C342.616 54.554 342.978 53.9742 343.237 53.2842C343.502 52.589 343.649 51.7963 343.68 50.9062L344.013 41.368ZM360.032 59.4421C358.669 59.8001 357.447 59.9602 356.365 59.9224C355.486 59.8917 354.712 59.7286 354.045 59.4331C353.382 59.1432 352.831 58.7263 352.391 58.1826C351.951 57.6336 351.625 56.9632 351.413 56.1713C351.206 55.3742 351.12 54.4587 351.157 53.4247L351.473 44.3502L349.075 44.2664L349.17 41.5481L351.568 41.6318L351.71 37.5703L354.948 37.6834L354.806 41.7449L360.643 41.9487L360.548 44.6671L354.711 44.4633L354.394 53.5457C354.354 54.713 354.542 55.5841 354.959 56.159C355.383 56.7288 356.066 57.0302 357.009 57.0631C357.377 57.076 357.815 57.0486 358.325 56.981C358.839 56.9136 359.441 56.8012 360.13 56.6438L360.032 59.4421ZM361.501 50.8001C361.533 49.8726 361.657 49.0017 361.872 48.1874C362.087 47.3731 362.383 46.6283 362.759 45.953C363.134 45.2777 363.585 44.6771 364.11 44.1511C364.636 43.6198 365.222 43.176 365.87 42.8197C366.523 42.4636 367.234 42.2002 368.003 42.0296C368.772 41.8537 369.586 41.7807 370.444 41.8107C371.307 41.8408 372.114 41.9704 372.864 42.1994C373.619 42.4232 374.307 42.7354 374.928 43.136C375.555 43.5368 376.112 44.0205 376.599 44.5872C377.086 45.1485 377.494 45.7791 377.821 46.479C378.149 47.1789 378.392 47.9425 378.55 48.7698C378.708 49.5972 378.771 50.4746 378.738 51.402C378.706 52.3294 378.582 53.2003 378.367 54.0146C378.152 54.829 377.856 55.5764 377.48 56.2571C377.104 56.9324 376.654 57.533 376.128 58.059C375.603 58.585 375.014 59.0287 374.361 59.3901C373.713 59.7464 373.005 60.0098 372.236 60.1804C371.472 60.3565 370.658 60.4295 369.795 60.3994C368.937 60.3694 368.13 60.2398 367.375 60.0107C366.62 59.7868 365.929 59.4745 365.302 59.0738C364.681 58.6679 364.127 58.1842 363.64 57.6229C363.153 57.0615 362.745 56.4309 362.417 55.731C362.09 55.0259 361.847 54.2596 361.689 53.4322C361.531 52.6049 361.468 51.7275 361.501 50.8001ZM364.739 50.9131C364.704 51.8992 364.796 52.7909 365.014 53.5884C365.237 54.3806 365.57 55.062 366.015 55.6325C366.465 56.1979 367.018 56.6388 367.674 56.9552C368.33 57.2717 369.073 57.4444 369.905 57.4734C370.736 57.5025 371.488 57.3819 372.159 57.1119C372.835 56.842 373.415 56.4406 373.898 55.9078C374.381 55.3697 374.759 54.7131 375.031 53.9382C375.31 53.1581 375.466 52.275 375.5 51.2889C375.535 50.3029 375.44 49.4137 375.217 48.6214C374.999 47.824 374.668 47.1427 374.224 46.5775C373.779 46.0123 373.229 45.5715 372.573 45.2551C371.922 44.9389 371.181 44.7662 370.35 44.7372C369.518 44.7082 368.764 44.8286 368.088 45.0985C367.411 45.3684 366.829 45.7696 366.341 46.3022C365.858 46.835 365.477 47.4915 365.199 48.2716C364.927 49.0466 364.773 49.9271 364.739 50.9131ZM406.872 61.2139L403.514 61.0966L403.858 51.2466L391.546 50.8166L391.202 60.6666L387.844 60.5494L388.643 37.6833L392 37.8006L391.655 47.6985L403.967 48.1285L404.313 38.2305L407.671 38.3478L406.872 61.2139ZM426.063 56.0324C425.799 57.0105 425.411 57.8828 424.899 58.6494C424.387 59.416 423.772 60.0589 423.054 60.5782C422.343 61.0977 421.539 61.4859 420.644 61.7428C419.75 61.9997 418.785 62.1101 417.751 62.074C416.888 62.0439 416.076 61.9141 415.315 61.6848C414.56 61.4556 413.867 61.1406 413.235 60.7396C412.609 60.3335 412.049 59.8497 411.556 59.2882C411.069 58.7215 410.659 58.0881 410.326 57.3881C409.998 56.6829 409.756 55.9166 409.598 55.0892C409.44 54.2566 409.377 53.3765 409.41 52.4491C409.442 51.5216 409.566 50.6534 409.781 49.8444C409.996 49.0354 410.289 48.2932 410.659 47.6177C411.035 46.9424 411.483 46.3417 412.003 45.8155C412.523 45.2894 413.107 44.8481 413.754 44.4918C414.402 44.1356 415.107 43.872 415.871 43.7012C416.635 43.5251 417.443 43.452 418.296 43.4817C419.559 43.5258 420.692 43.7842 421.695 44.2568C422.698 44.7241 423.546 45.3701 424.237 46.1947C424.929 47.0194 425.449 48.0061 425.799 49.155C426.148 50.3039 426.298 51.5819 426.249 52.9891C426.242 53.1916 426.23 53.3913 426.212 53.5882C426.2 53.7852 426.179 54.0033 426.149 54.2424L412.67 53.7716C412.738 54.5798 412.904 55.3114 413.169 55.9664C413.44 56.6163 413.8 57.1732 414.248 57.6371C414.701 58.1012 415.238 58.4641 415.859 58.726C416.479 58.9824 417.171 59.124 417.933 59.1506C419.106 59.1916 420.096 58.9433 420.905 58.4059C421.714 57.8631 422.354 57.0343 422.825 55.9194L426.063 56.0324ZM422.953 51.329C422.873 50.5578 422.71 49.8744 422.464 49.2787C422.219 48.6778 421.895 48.1702 421.493 47.7559C421.091 47.3363 420.614 47.0128 420.062 46.7854C419.515 46.5581 418.898 46.4325 418.21 46.4085C417.506 46.3839 416.858 46.4707 416.264 46.6687C415.67 46.8615 415.142 47.1552 414.68 47.55C414.224 47.9396 413.838 48.4252 413.525 49.0066C413.211 49.5826 412.98 50.239 412.831 50.9756L422.953 51.329ZM445.747 38.877L444.921 62.5425L441.683 62.4295L441.873 56.9928C441.612 57.8909 441.264 58.6979 440.828 59.4138C440.392 60.1297 439.885 60.7337 439.308 61.2258C438.73 61.718 438.087 62.0904 437.379 62.3432C436.677 62.5962 435.926 62.7087 435.126 62.6808C434.401 62.6555 433.717 62.5275 433.074 62.2969C432.431 62.0664 431.839 61.7468 431.299 61.3384C430.763 60.9301 430.281 60.4437 429.853 59.879C429.43 59.3093 429.076 58.6752 428.79 57.9768C428.506 57.2731 428.292 56.5132 428.15 55.6971C428.013 54.8811 427.96 54.0228 427.991 53.122C428.023 52.2212 428.135 51.3686 428.329 50.5642C428.528 49.76 428.794 49.0195 429.127 48.3427C429.46 47.6659 429.857 47.0607 430.319 46.5272C430.786 45.9885 431.301 45.5342 431.864 45.1643C432.431 44.7945 433.044 44.5171 433.702 44.3319C434.359 44.1467 435.05 44.0668 435.775 44.0921C436.575 44.12 437.316 44.2847 437.999 44.586C438.688 44.8876 439.303 45.304 439.845 45.8352C440.387 46.3664 440.85 47.0043 441.235 47.7489C441.62 48.4881 441.911 49.3148 442.109 50.2289L442.509 38.7639L445.747 38.877ZM441.991 53.6108C442.026 52.6035 441.932 51.6983 441.71 50.8954C441.492 50.0873 441.159 49.3979 440.709 48.8272C440.259 48.2565 439.704 47.8128 439.043 47.4962C438.381 47.1796 437.627 47.0065 436.779 46.9769C435.916 46.9468 435.146 47.0613 434.47 47.3205C433.799 47.5746 433.231 47.9657 432.764 48.4937C432.297 49.0217 431.932 49.6841 431.67 50.4807C431.413 51.2722 431.266 52.1903 431.229 53.235C431.193 54.2797 431.275 55.2085 431.476 56.0214C431.683 56.8291 432.001 57.5152 432.429 58.0799C432.858 58.6392 433.398 59.0716 434.049 59.3772C434.705 59.6776 435.465 59.8429 436.329 59.8731C437.176 59.9026 437.941 59.7826 438.623 59.5129C439.305 59.2379 439.89 58.8314 440.379 58.2934C440.867 57.7555 441.248 57.0937 441.52 56.3081C441.799 55.5173 441.956 54.6182 441.991 53.6108ZM464.931 45.5906L464.427 60.0218C464.393 60.9918 464.268 61.9027 464.051 62.7543C463.835 63.6059 463.538 64.3854 463.161 65.0927C462.79 65.8001 462.341 66.4302 461.815 66.9828C461.288 67.5408 460.698 68.0085 460.045 68.3859C459.396 68.7635 458.687 69.0429 457.918 69.2242C457.154 69.411 456.342 69.4894 455.484 69.4594C454.749 69.4337 454.048 69.3319 453.382 69.1538C452.715 68.9811 452.097 68.7434 451.525 68.4406C450.96 68.138 450.447 67.7786 449.986 67.3622C449.531 66.9514 449.144 66.495 448.825 65.9929C448.507 65.4908 448.267 64.9488 448.106 64.3668C447.944 63.7901 447.874 63.19 447.896 62.5664L451.134 62.6795C451.122 63.0366 451.163 63.3796 451.258 63.7084C451.359 64.0375 451.503 64.3467 451.69 64.6361C451.883 64.931 452.114 65.1978 452.383 65.4367C452.657 65.6811 452.962 65.8892 453.298 66.061C453.633 66.2382 453.994 66.3788 454.379 66.483C454.771 66.5874 455.18 66.6471 455.606 66.662C456.416 66.6902 457.155 66.5506 457.822 66.243C458.494 65.9356 459.073 65.4862 459.558 64.8948C460.043 64.3034 460.426 63.5856 460.706 62.7415C460.992 61.8977 461.153 60.9534 461.189 59.9087L461.286 57.1264C461.027 57.9818 460.677 58.7514 460.237 59.4352C459.802 60.1191 459.291 60.6989 458.703 61.1747C458.121 61.6453 457.471 62.0015 456.753 62.2433C456.04 62.4799 455.276 62.584 454.461 62.5555C453.752 62.5307 453.081 62.4086 452.448 62.189C451.816 61.9641 451.231 61.6582 450.695 61.2713C450.164 60.8792 449.687 60.4116 449.263 59.8685C448.845 59.3202 448.492 58.7128 448.206 58.0465C447.92 57.3747 447.705 56.6495 447.562 55.8706C447.424 55.0867 447.37 54.263 447.4 53.3995C447.43 52.536 447.541 51.7207 447.733 50.9536C447.931 50.1814 448.196 49.4729 448.528 48.8281C448.86 48.1779 449.254 47.5967 449.71 47.0842C450.17 46.572 450.679 46.1415 451.236 45.7927C451.798 45.4388 452.402 45.1744 453.048 44.9995C453.695 44.8193 454.373 44.7416 455.082 44.7663C455.897 44.7948 456.652 44.9546 457.346 45.2456C458.046 45.5316 458.67 45.9323 459.218 46.4477C459.771 46.958 460.24 47.5694 460.626 48.282C461.018 48.9947 461.313 49.7868 461.512 50.6583L461.693 45.4775L464.931 45.5906ZM461.399 53.8884C461.432 52.9449 461.336 52.0957 461.112 51.3408C460.888 50.5805 460.547 49.9335 460.091 49.4C459.64 48.8612 459.076 48.4439 458.398 48.1481C457.725 47.8471 456.955 47.6815 456.086 47.6511C455.244 47.6217 454.493 47.7262 453.833 47.9647C453.174 48.2032 452.612 48.5704 452.146 49.0665C451.686 49.5627 451.328 50.1826 451.072 50.9261C450.817 51.6697 450.672 52.5318 450.638 53.5126C450.604 54.4933 450.688 55.3634 450.891 56.123C451.099 56.8827 451.416 57.5261 451.84 58.0533C452.265 58.5804 452.797 58.9886 453.438 59.2778C454.085 59.5619 454.826 59.7185 455.663 59.7477C456.532 59.7781 457.312 59.6666 458.004 59.4132C458.702 59.1601 459.294 58.7832 459.781 58.2825C460.274 57.7768 460.658 57.1551 460.935 56.4177C461.212 55.6749 461.366 54.8318 461.399 53.8884ZM483.434 58.0359C483.171 59.0139 482.783 59.8863 482.27 60.6529C481.758 61.4194 481.143 62.0624 480.426 62.5817C479.714 63.1011 478.91 63.4893 478.016 63.7463C477.121 64.0032 476.156 64.1136 475.122 64.0775C474.259 64.0473 473.447 63.9176 472.686 63.6882C471.931 63.4591 471.238 63.144 470.606 62.7431C469.98 62.337 469.42 61.8531 468.928 61.2916C468.441 60.7249 468.03 60.0916 467.697 59.3915C467.37 58.6863 467.127 57.92 466.969 57.0927C466.811 56.26 466.749 55.38 466.781 54.4525C466.814 53.5251 466.937 52.6569 467.152 51.8479C467.367 51.0389 467.66 50.2967 468.031 49.6212C468.406 48.9459 468.854 48.3451 469.374 47.819C469.894 47.2928 470.478 46.8516 471.125 46.4953C471.773 46.139 472.479 45.8755 473.242 45.7047C474.006 45.5286 474.815 45.4554 475.668 45.4852C476.931 45.5293 478.064 45.7877 479.067 46.2603C480.069 46.7276 480.917 47.3735 481.608 48.1982C482.3 49.0228 482.821 50.0096 483.17 51.1585C483.52 52.3074 483.67 53.5854 483.621 54.9925C483.613 55.1951 483.601 55.3948 483.584 55.5916C483.571 55.7886 483.55 56.0067 483.521 56.2458L470.041 55.7751C470.109 56.5833 470.275 57.3149 470.541 57.9699C470.811 58.6197 471.171 59.1766 471.619 59.6405C472.072 60.1046 472.609 60.4676 473.23 60.7294C473.851 60.9859 474.542 61.1274 475.304 61.1541C476.477 61.195 477.468 60.9468 478.276 60.4093C479.085 59.8665 479.725 59.0377 480.196 57.9228L483.434 58.0359ZM480.324 53.3325C480.245 52.5612 480.082 51.8778 479.836 51.2822C479.59 50.6812 479.266 50.1736 478.864 49.7594C478.463 49.3398 477.986 49.0162 477.433 48.7888C476.886 48.5616 476.269 48.436 475.581 48.412C474.878 48.3874 474.229 48.4741 473.635 48.6722C473.041 48.8649 472.513 49.1587 472.051 49.5535C471.595 49.9431 471.21 50.4286 470.896 51.01C470.582 51.5861 470.351 52.2424 470.203 52.979L480.324 53.3325Z" fill="white"/>
<rect x="15.3508" y="50.8042" width="160" height="40" rx="20" transform="rotate(-2 15.3508 50.8042)" fill="#212367"/>
<path opacity="0.85" d="M32.8432 78.2105L32.3057 62.8199L41.716 62.4912L41.7905 64.6239L34.4909 64.8788L34.6506 69.4521L40.587 69.2448L40.6615 71.3775L34.7251 71.5848L34.9539 78.1368L32.8432 78.2105ZM44.5593 77.8013L44.1754 66.808L46.2861 66.7343L46.67 77.7276L44.5593 77.8013ZM46.4468 63.1405C46.4596 63.507 46.3457 63.8191 46.1052 64.077C45.8506 64.3501 45.5401 64.493 45.1736 64.5058C44.8072 64.5186 44.4948 64.3974 44.2364 64.1423C43.9638 63.9023 43.8212 63.5991 43.8084 63.2327C43.7956 62.8662 43.9165 62.5465 44.1711 62.2734C44.4116 62.0155 44.7151 61.8802 45.0815 61.8674C45.4479 61.8546 45.7674 61.9682 46.04 62.2082C46.2984 62.4633 46.434 62.7741 46.4468 63.1405ZM53.4303 73.9034L51.1149 77.5724L48.4985 77.6638L52.0662 72.0358L48.1146 66.6705L50.687 66.5806L53.2754 70.1005L55.612 66.4087L58.1625 66.3196L54.6387 71.946L58.5464 77.3129L55.9739 77.4027L53.4303 73.9034ZM69.8362 72.2958L61.5253 72.5861C61.627 72.9787 61.7642 73.3335 61.9366 73.6503C62.1238 73.9667 62.361 74.2446 62.6482 74.484C63.2827 75.0049 64.0251 75.2504 64.8752 75.2207C66.1212 75.1772 67.0836 74.7914 67.7626 74.0633L69.3107 75.5281C68.2356 76.681 66.7819 77.2895 64.9497 77.3534C63.3667 77.4087 62.0207 76.8981 60.9118 75.8214C59.8024 74.7302 59.2198 73.3857 59.164 71.788C59.1077 70.1756 59.5804 68.7943 60.5822 67.644C61.5987 66.4931 62.8911 65.8903 64.4595 65.8355C65.9985 65.7818 67.2563 66.2882 68.2328 67.3548C69.2234 68.4062 69.7476 69.76 69.8055 71.4164L69.8362 72.2958ZM64.5089 67.8811C63.6734 67.9102 62.9719 68.2062 62.4046 68.769C61.8655 69.3015 61.5438 69.9658 61.4395 70.7619L67.4639 70.5516C67.3033 69.7353 66.9798 69.0862 66.4933 68.6042C65.9912 68.0935 65.3297 67.8524 64.5089 67.8811ZM76.6011 67.5248C75.6043 67.5596 74.8031 67.9398 74.1974 68.6654C73.577 69.3915 73.2848 70.2676 73.3206 71.2936C73.3564 72.3197 73.7091 73.1732 74.3786 73.8543C75.0334 74.5358 75.8592 74.8592 76.856 74.8244C77.838 74.7901 78.6173 74.4107 79.1937 73.6861C79.4892 73.3236 79.7028 72.9272 79.8346 72.497C79.9804 72.0517 80.0444 71.5725 80.0265 71.0594C80.0081 70.5318 79.9108 70.0582 79.7347 69.6388C79.5733 69.2188 79.3326 68.8383 79.0125 68.4973C78.3869 67.8147 77.5831 67.4905 76.6011 67.5248ZM76.3954 65.4187C77.6413 65.3752 78.6595 65.7432 79.4498 66.5228C79.5403 66.593 79.6162 66.6637 79.6774 66.735C79.7386 66.8062 79.8071 66.8772 79.8829 66.9479L79.681 61.1655L81.8137 61.091L82.3511 76.4816L80.3724 76.5507L80.3201 75.0556C80.2646 75.1456 80.209 75.2356 80.1535 75.3256C80.0974 75.4009 80.0264 75.4695 79.9405 75.5312C79.1792 76.4236 78.1316 76.8931 76.7977 76.9397C75.2294 76.9945 73.92 76.4825 72.8698 75.4039C71.8043 74.311 71.2437 72.9658 71.1879 71.3681C71.1316 69.7557 71.597 68.3747 72.5841 67.2248C73.5566 66.0755 74.8271 65.4735 76.3954 65.4187ZM92.6566 62.8477L92.8555 68.5422L96.0875 68.4293C96.8644 68.4022 97.5286 68.0928 98.0803 67.5012C98.6179 66.9248 98.8731 66.2481 98.846 65.4712C98.8193 64.709 98.5175 64.0518 97.9406 63.4996C97.3495 62.9626 96.6655 62.7077 95.8887 62.7348L92.6566 62.8477ZM90.4714 60.7887L95.8142 60.6021C97.192 60.554 98.3815 60.9967 99.3827 61.9304C100.384 62.864 100.909 64.0197 100.957 65.3975C101.005 66.7754 100.562 67.9649 99.6284 68.9661C98.6953 69.9819 97.5398 70.5139 96.162 70.562L92.93 70.6749L93.1196 76.1056L91.0089 76.1793L90.4714 60.7887ZM102.831 64.7597L104.876 64.6883L104.931 66.2714C104.973 66.2112 105.022 66.1508 105.079 66.0901C105.135 66.0148 105.191 65.9468 105.248 65.8861C105.601 65.5068 106.001 65.1847 106.447 64.9197C107.137 64.5286 107.937 64.3173 108.846 64.2855L108.92 66.4182C107.88 66.4546 107.004 66.8153 106.295 67.5005C105.571 68.2009 105.19 69.08 105.154 70.1379L105.347 75.6786L103.215 75.753L102.831 64.7597ZM111.077 75.4785L110.693 64.4852L112.804 64.4115L113.188 75.4048L111.077 75.4785ZM112.965 60.8177C112.978 61.1841 112.864 61.4963 112.623 61.7542C112.369 62.0272 112.058 62.1701 111.692 62.1829C111.325 62.1957 111.013 62.0746 110.754 61.8194C110.482 61.5795 110.339 61.2762 110.326 60.9098C110.314 60.5434 110.435 60.2236 110.689 59.9506C110.93 59.6927 111.233 59.5573 111.6 59.5445C111.966 59.5317 112.285 59.6453 112.558 59.8853C112.816 60.1404 112.952 60.4512 112.965 60.8177ZM120.736 63.8703C122.289 63.8161 123.613 64.3275 124.708 65.4046L123.288 66.9732C122.603 66.2926 121.778 65.9692 120.81 66.003C119.813 66.0378 119.012 66.4107 118.406 67.1216C117.8 67.8472 117.515 68.723 117.551 69.7491C117.586 70.7604 117.932 71.6142 118.587 72.3105C119.241 72.9774 120.067 73.2934 121.064 73.2586C122.031 73.2248 122.832 72.8446 123.467 72.118L124.993 73.5837C123.977 74.7345 122.692 75.337 121.138 75.3913C119.57 75.4461 118.238 74.9349 117.144 73.8578C116.064 72.7655 115.496 71.4205 115.44 69.8228C115.384 68.2104 115.857 66.8291 116.858 65.6787C117.875 64.5279 119.167 63.9251 120.736 63.8703ZM136.912 69.9535L128.602 70.2437C128.703 70.6364 128.84 70.9911 129.013 71.308C129.2 71.6243 129.437 71.9022 129.724 72.1417C130.359 72.6625 131.101 72.9081 131.952 72.8784C133.197 72.8349 134.16 72.4491 134.839 71.7209L136.387 73.1858C135.312 74.3387 133.858 74.9471 132.026 75.0111C130.443 75.0664 129.097 74.5557 127.988 73.4791C126.879 72.3878 126.296 71.0433 126.24 69.4456C126.184 67.8333 126.657 66.4519 127.659 65.3016C128.675 64.1508 129.967 63.548 131.536 63.4932C133.075 63.4394 134.333 63.9459 135.309 65.0124C136.3 66.0638 136.824 67.4177 136.882 69.074L136.912 69.9535ZM131.585 65.5387C130.75 65.5679 130.048 65.8639 129.481 66.4267C128.942 66.9592 128.62 67.6235 128.516 68.4196L134.54 68.2092C134.38 67.393 134.056 66.7439 133.57 66.2619C133.067 65.7511 132.406 65.51 131.585 65.5387Z" fill="white"/>
<rect x="306.396" y="67" width="208" height="40" rx="20" transform="rotate(2 306.396 67)" fill="#3C1B68"/>
<path opacity="0.85" d="M324.268 82.3671L324.069 88.0616L327.301 88.1745C328.078 88.2016 328.762 87.9393 329.354 87.3876C329.93 86.8501 330.232 86.1929 330.259 85.416C330.286 84.6538 330.03 83.9772 329.493 83.3861C328.941 82.8091 328.277 82.5071 327.5 82.4799L324.268 82.3671ZM322.231 80.1607L327.574 80.3472C328.952 80.3953 330.108 80.92 331.041 81.9212C331.975 82.9224 332.418 84.1119 332.37 85.4897C332.322 86.8675 331.797 88.0233 330.796 88.9569C329.794 89.9052 328.604 90.3553 327.226 90.3072L323.994 90.1943L323.805 95.625L321.694 95.5513L322.231 80.1607ZM342.661 85.2767L344.639 85.3458L344.256 96.3391L342.277 96.27L342.329 94.7749C342.282 94.8467 342.229 94.9182 342.167 94.9894C342.121 95.0612 342.067 95.1254 342.007 95.1819C341.154 96.0474 340.047 96.4563 338.684 96.4087C337.115 96.354 335.845 95.7519 334.872 94.6026C333.886 93.4381 333.42 92.0571 333.476 90.4594C333.532 88.847 334.093 87.5018 335.158 86.4236C336.208 85.3449 337.518 84.833 339.086 84.8877C340.449 84.9353 341.525 85.4352 342.314 86.3873C342.385 86.4485 342.441 86.5165 342.483 86.5913C342.524 86.6661 342.566 86.7336 342.608 86.7938L342.661 85.2767ZM339.144 87.0031C338.148 86.9683 337.322 87.2916 336.667 87.9732C335.997 88.6542 335.645 89.5078 335.609 90.5338C335.573 91.5599 335.865 92.4359 336.486 93.162C337.091 93.8876 337.893 94.2678 338.889 94.3026C339.871 94.3369 340.675 94.0128 341.301 93.3302C341.621 92.9891 341.862 92.6086 342.023 92.1887C342.2 91.7546 342.297 91.281 342.315 90.768C342.333 90.2403 342.269 89.7611 342.123 89.3304C341.991 88.9002 341.777 88.5039 341.482 88.1413C340.906 87.4168 340.126 87.0374 339.144 87.0031ZM345.977 85.3926L348.308 85.4739L351.516 93.819L355.299 85.7181L357.586 85.7979L351.777 98.3408C351.571 98.7739 351.315 99.1612 351.01 99.5028C350.704 99.859 350.334 100.162 349.899 100.411C349.06 100.91 348.157 101.142 347.189 101.108L346.222 101.075L346.296 98.9639L347.263 98.9977C347.835 99.0177 348.353 98.889 348.818 98.6117C349.282 98.3491 349.633 97.9578 349.871 97.4378L350.3 96.5062L345.977 85.3926ZM358.801 91.3437L358.875 89.233L365.911 89.4787L365.837 91.5894L358.801 91.3437ZM377.058 86.4779L379.036 86.547L378.653 97.5403L376.674 97.4712L376.726 95.9761C376.679 96.0479 376.626 96.1194 376.564 96.1906C376.518 96.2624 376.464 96.3265 376.404 96.3831C375.551 97.2486 374.444 97.6575 373.081 97.6099C371.512 97.5551 370.242 96.9531 369.269 95.8038C368.283 94.6393 367.817 93.2582 367.873 91.6605C367.929 90.0482 368.49 88.7029 369.555 87.6248C370.605 86.5461 371.915 86.0341 373.483 86.0889C374.846 86.1365 375.922 86.6364 376.711 87.5885C376.782 87.6497 376.838 87.7177 376.88 87.7925C376.921 87.8673 376.963 87.9348 377.005 87.995L377.058 86.4779ZM373.541 88.2042C372.545 88.1694 371.719 88.4928 371.064 89.1744C370.394 89.8554 370.042 90.709 370.006 91.735C369.97 92.761 370.262 93.6371 370.883 94.3632C371.488 95.0888 372.29 95.469 373.286 95.5038C374.268 95.5381 375.072 95.2139 375.698 94.5314C376.018 94.1903 376.259 93.8098 376.42 93.3899C376.597 92.9558 376.694 92.4822 376.712 91.9692C376.73 91.4415 376.666 90.9623 376.52 90.5316C376.388 90.1014 376.174 89.705 375.879 89.3425C375.303 88.618 374.523 88.2385 373.541 88.2042ZM388.724 88.7785L386.699 89.4122C386.62 89.1452 386.444 88.919 386.172 88.7334C385.884 88.5619 385.557 88.4698 385.191 88.457C384.707 88.4401 384.329 88.5516 384.057 88.7916C383.784 89.0315 383.642 89.3274 383.629 89.6792C383.629 90.1194 383.961 90.4759 384.627 90.7487C384.786 90.7983 384.946 90.8552 385.105 90.9195C385.265 90.9691 385.432 91.0189 385.606 91.069C386.652 91.3697 387.437 91.7861 387.962 92.318C388.629 92.9724 388.946 93.7612 388.914 94.6847C388.877 95.74 388.437 96.5832 387.593 97.2141C386.824 97.789 385.883 98.057 384.769 98.0181C383.86 97.9863 383.076 97.7461 382.417 97.2975C381.742 96.8631 381.256 96.2737 380.96 95.5296L382.986 94.8739C383.312 95.6191 383.915 96.007 384.794 96.0377C385.366 96.0577 385.833 95.9199 386.195 95.6244C386.558 95.3289 386.747 94.9686 386.761 94.5435C386.764 94.0593 386.389 93.6573 385.637 93.3375C385.479 93.2439 385.313 93.1647 385.139 93.1C384.965 93.0352 384.769 92.9697 384.551 92.9033C384.086 92.7844 383.659 92.6154 383.27 92.3963C382.896 92.1778 382.575 91.9318 382.305 91.6582C381.738 91.1101 381.468 90.4182 381.497 89.5827C381.531 88.63 381.91 87.8654 382.634 87.289C383.344 86.7268 384.211 86.4636 385.237 86.4994C386.131 86.5306 386.88 86.7475 387.482 87.1501C388.07 87.5522 388.484 88.095 388.724 88.7785ZM391.072 92.4707L391.146 90.36L398.182 90.6056L398.108 92.7164L391.072 92.4707ZM399.677 87.2678L402.007 87.3492L405.216 95.6942L408.999 87.5933L411.286 87.6732L405.477 100.216C405.271 100.649 405.015 101.036 404.709 101.378C404.404 101.734 404.033 102.037 403.599 102.286C402.76 102.785 401.857 103.017 400.889 102.984L399.922 102.95L399.995 100.839L400.963 100.873C401.534 100.893 402.053 100.764 402.517 100.487C402.981 100.224 403.333 99.833 403.571 99.313L404 98.3814L399.677 87.2678ZM417.405 89.758C416.409 89.7232 415.583 90.0393 414.929 90.7062C414.609 91.0472 414.36 91.4348 414.184 91.8689C414.008 92.2883 413.911 92.7545 413.893 93.2676C413.857 94.2789 414.142 95.1548 414.747 95.895C415.354 96.6059 416.155 96.9788 417.152 97.0136C418.149 97.0484 418.974 96.7324 419.629 96.0654C419.963 95.7249 420.211 95.3447 420.373 94.9247C420.549 94.4906 420.647 94.0171 420.665 93.504C420.7 92.478 420.415 91.6022 419.81 90.8766C419.203 90.1657 418.402 89.7928 417.405 89.758ZM417.48 87.6253C419.048 87.6801 420.341 88.2829 421.357 89.4337C422.359 90.5841 422.832 91.9654 422.775 93.5778C422.719 95.1754 422.152 96.5204 421.071 97.6127C419.977 98.6899 418.646 99.2011 417.077 99.1463C415.509 99.0915 414.217 98.4887 413.2 97.3379C412.199 96.1729 411.726 94.7916 411.782 93.1939C411.838 91.5815 412.406 90.2365 413.486 89.1589C414.58 88.0817 415.911 87.5705 417.48 87.6253ZM424.929 88.1496L427.062 88.2241L426.857 94.0945C426.823 95.0766 427.059 95.8773 427.566 96.4967C428.058 97.1009 428.708 97.4171 429.514 97.4453C430.291 97.4724 430.946 97.2018 431.479 96.6334C432.028 96.0508 432.319 95.2685 432.354 94.2865L432.559 88.416L434.691 88.4905L434.489 94.295C434.432 95.9073 433.918 97.2028 432.944 98.1814C431.956 99.1596 430.788 99.6251 429.439 99.578C428.061 99.5299 426.914 98.9835 425.996 97.9388C425.094 96.8947 424.67 95.5664 424.727 93.9541L424.929 88.1496ZM436.914 94.0715L436.987 91.9608L444.023 92.2065L443.949 94.3172L436.914 94.0715ZM454.058 84.5C454.6 84.5189 455.126 84.5886 455.635 84.7092C456.145 84.8297 456.63 85.0081 457.092 85.2443C457.568 85.4664 458.006 85.7385 458.406 86.0607C458.806 86.3682 459.175 86.7186 459.514 87.112L457.921 88.5973C456.908 87.3438 455.596 86.689 453.983 86.6327C452.4 86.5774 451.069 87.0959 449.989 88.1882C448.908 89.2952 448.339 90.6548 448.283 92.2672C448.227 93.8795 448.699 95.2755 449.7 96.4552C450.701 97.6201 451.993 98.2303 453.576 98.2856C455.174 98.3414 456.529 97.787 457.641 96.6224C458.022 96.2248 458.331 95.7806 458.568 95.2899C458.805 94.7993 458.97 94.2694 459.064 93.7003L454.996 93.5582L455.07 91.4475L461.424 91.6694L461.387 92.7248C461.311 94.8941 460.551 96.7167 459.105 98.1925C458.74 98.5613 458.347 98.8851 457.926 99.1639C457.506 99.4427 457.05 99.6836 456.558 99.8866C455.605 100.279 454.587 100.456 453.502 100.418C451.303 100.341 449.513 99.5085 448.13 97.9193C446.748 96.3154 446.095 94.4068 446.172 92.1935C446.25 89.9801 447.041 88.122 448.546 86.6189C450.037 85.13 451.874 84.4237 454.058 84.5ZM468.421 91.5395C467.424 91.5047 466.599 91.8208 465.944 92.4877C465.624 92.8287 465.376 93.2163 465.199 93.6504C465.023 94.0698 464.926 94.5361 464.908 95.0491C464.873 96.0605 465.158 96.9363 465.763 97.6765C466.369 98.3874 467.171 98.7603 468.168 98.7951C469.164 98.8299 469.99 98.5139 470.644 97.847C470.979 97.5064 471.227 97.1262 471.389 96.7062C471.565 96.2721 471.662 95.7986 471.68 95.2856C471.716 94.2595 471.431 93.3837 470.825 92.6581C470.219 91.9472 469.418 91.5743 468.421 91.5395ZM468.496 89.4068C470.064 89.4616 471.356 90.0644 472.373 91.2152C473.375 92.3656 473.847 93.7469 473.791 95.3593C473.735 96.957 473.167 98.302 472.087 99.3943C470.993 100.471 469.662 100.983 468.093 100.928C466.525 100.873 465.232 100.27 464.216 99.1194C463.215 97.9544 462.742 96.5731 462.798 94.9754C462.854 93.363 463.422 92.018 464.502 90.9404C465.596 89.8632 466.927 89.3521 468.496 89.4068Z" fill="white"/>
<path d="M54.2545 153.24H46.4785V173H43.1185V153.24H35.3425V150.12H54.2545V153.24ZM70.7745 155.36L75.2625 170.784L79.6865 155.36H82.9665L77.7425 173H73.1825L68.7985 158.36L64.4065 173H59.8465L54.6225 155.36H57.9825L62.4065 170.784L66.8945 155.36H70.7745ZM83.5988 164.176C83.5988 163.248 83.6921 162.373 83.8788 161.552C84.0654 160.731 84.3348 159.976 84.6868 159.288C85.0388 158.6 85.4681 157.984 85.9748 157.44C86.4814 156.891 87.0521 156.427 87.6868 156.048C88.3268 155.669 89.0281 155.381 89.7908 155.184C90.5534 154.981 91.3641 154.88 92.2228 154.88C93.0868 154.88 93.8974 154.981 94.6548 155.184C95.4174 155.381 96.1161 155.669 96.7508 156.048C97.3908 156.427 97.9641 156.891 98.4708 157.44C98.9774 157.984 99.4068 158.6 99.7588 159.288C100.111 159.976 100.38 160.731 100.567 161.552C100.753 162.373 100.847 163.248 100.847 164.176C100.847 165.104 100.753 165.979 100.567 166.8C100.38 167.621 100.111 168.379 99.7588 169.072C99.4068 169.76 98.9774 170.376 98.4708 170.92C97.9641 171.464 97.3908 171.928 96.7508 172.312C96.1161 172.691 95.4174 172.979 94.6548 173.176C93.8974 173.379 93.0868 173.48 92.2228 173.48C91.3641 173.48 90.5534 173.379 89.7908 173.176C89.0281 172.979 88.3268 172.691 87.6868 172.312C87.0521 171.928 86.4814 171.464 85.9748 170.92C85.4681 170.376 85.0388 169.76 84.6868 169.072C84.3348 168.379 84.0654 167.621 83.8788 166.8C83.6921 165.979 83.5988 165.104 83.5988 164.176ZM86.8388 164.176C86.8388 165.163 86.9614 166.051 87.2068 166.84C87.4574 167.624 87.8148 168.293 88.2788 168.848C88.7481 169.397 89.3161 169.819 89.9828 170.112C90.6494 170.405 91.3987 170.552 92.2308 170.552C93.0628 170.552 93.8094 170.405 94.4708 170.112C95.1374 169.819 95.7028 169.397 96.1668 168.848C96.6308 168.293 96.9854 167.624 97.2308 166.84C97.4814 166.051 97.6068 165.163 97.6068 164.176C97.6068 163.189 97.4814 162.304 97.2308 161.52C96.9854 160.731 96.6308 160.061 96.1668 159.512C95.7028 158.963 95.1374 158.541 94.4708 158.248C93.8094 157.955 93.0628 157.808 92.2308 157.808C91.3987 157.808 90.6494 157.955 89.9828 158.248C89.3161 158.541 88.7481 158.963 88.2788 159.512C87.8148 160.061 87.4574 160.731 87.2068 161.52C86.9614 162.304 86.8388 163.189 86.8388 164.176ZM121.026 172.864C119.677 173.269 118.461 173.472 117.378 173.472C116.498 173.472 115.72 173.336 115.042 173.064C114.37 172.797 113.805 172.4 113.346 171.872C112.888 171.339 112.538 170.68 112.298 169.896C112.064 169.107 111.946 168.195 111.946 167.16V158.08H109.546V155.36H111.946V151.296H115.186V155.36H121.026V158.08H115.186V167.168C115.186 168.336 115.405 169.2 115.842 169.76C116.285 170.315 116.978 170.592 117.922 170.592C118.29 170.592 118.728 170.549 119.234 170.464C119.746 170.379 120.344 170.245 121.026 170.064V172.864ZM140.103 155.36L132.799 174.112C132.431 175.051 132.002 175.861 131.511 176.544C131.026 177.227 130.466 177.789 129.831 178.232C129.202 178.68 128.495 179.011 127.711 179.224C126.933 179.437 126.066 179.544 125.111 179.544C124.85 179.544 124.597 179.536 124.351 179.52C124.106 179.504 123.869 179.483 123.639 179.456V176.624C123.922 176.661 124.183 176.688 124.423 176.704C124.669 176.72 124.903 176.728 125.127 176.728C126.194 176.728 127.063 176.52 127.735 176.104C128.407 175.688 128.911 175.024 129.247 174.112L129.471 173.52L122.471 155.36H125.831L131.295 170.048L136.823 155.36H140.103ZM145.051 160.792C145.281 159.885 145.601 159.069 146.011 158.344C146.422 157.613 146.907 156.992 147.467 156.48C148.027 155.968 148.654 155.573 149.347 155.296C150.046 155.019 150.795 154.88 151.595 154.88C152.321 154.88 153.009 154.984 153.659 155.192C154.31 155.4 154.91 155.699 155.459 156.088C156.014 156.477 156.513 156.949 156.955 157.504C157.403 158.053 157.782 158.672 158.091 159.36C158.401 160.048 158.638 160.797 158.803 161.608C158.974 162.419 159.059 163.275 159.059 164.176C159.059 165.077 158.974 165.933 158.803 166.744C158.638 167.555 158.401 168.307 158.091 169C157.782 169.688 157.403 170.309 156.955 170.864C156.513 171.413 156.014 171.883 155.459 172.272C154.91 172.661 154.31 172.96 153.659 173.168C153.009 173.376 152.321 173.48 151.595 173.48C150.795 173.48 150.046 173.341 149.347 173.064C148.654 172.787 148.027 172.392 147.467 171.88C146.907 171.368 146.422 170.747 146.011 170.016C145.601 169.285 145.281 168.467 145.051 167.56V179.04H141.811V155.36H145.051V160.792ZM145.051 164.176C145.051 165.184 145.174 166.088 145.419 166.888C145.67 167.683 146.03 168.357 146.499 168.912C146.969 169.467 147.539 169.893 148.211 170.192C148.883 170.485 149.643 170.632 150.491 170.632C151.355 170.632 152.118 170.493 152.779 170.216C153.446 169.933 154.003 169.52 154.451 168.976C154.899 168.427 155.238 167.752 155.467 166.952C155.702 166.147 155.819 165.221 155.819 164.176C155.819 163.131 155.702 162.208 155.467 161.408C155.238 160.603 154.899 159.928 154.451 159.384C154.003 158.84 153.446 158.429 152.779 158.152C152.118 157.869 151.355 157.728 150.491 157.728C149.643 157.728 148.883 157.875 148.211 158.168C147.539 158.461 146.969 158.885 146.499 159.44C146.03 159.995 145.67 160.672 145.419 161.472C145.174 162.267 145.051 163.168 145.051 164.176ZM177.586 167.152C177.356 168.139 176.999 169.024 176.514 169.808C176.028 170.592 175.436 171.256 174.738 171.8C174.044 172.344 173.255 172.76 172.37 173.048C171.484 173.336 170.524 173.48 169.49 173.48C168.626 173.48 167.81 173.379 167.042 173.176C166.279 172.973 165.575 172.683 164.93 172.304C164.29 171.92 163.714 171.456 163.202 170.912C162.695 170.363 162.263 169.744 161.906 169.056C161.554 168.363 161.284 167.605 161.098 166.784C160.911 165.957 160.818 165.08 160.818 164.152C160.818 163.224 160.911 162.352 161.098 161.536C161.284 160.72 161.551 159.968 161.898 159.28C162.25 158.592 162.676 157.976 163.178 157.432C163.679 156.888 164.247 156.427 164.882 156.048C165.516 155.669 166.212 155.381 166.97 155.184C167.727 154.981 168.532 154.88 169.386 154.88C170.65 154.88 171.791 155.099 172.81 155.536C173.828 155.968 174.698 156.584 175.418 157.384C176.138 158.184 176.692 159.152 177.082 160.288C177.471 161.424 177.666 162.696 177.666 164.104C177.666 164.307 177.66 164.507 177.649 164.704C177.644 164.901 177.631 165.12 177.61 165.36H164.122C164.218 166.165 164.41 166.891 164.698 167.536C164.991 168.176 165.37 168.72 165.834 169.168C166.303 169.616 166.852 169.96 167.482 170.2C168.111 170.435 168.807 170.552 169.57 170.552C170.743 170.552 171.724 170.269 172.514 169.704C173.303 169.133 173.914 168.283 174.346 167.152H177.586ZM174.314 162.56C174.207 161.792 174.02 161.115 173.754 160.528C173.487 159.936 173.146 159.44 172.73 159.04C172.314 158.635 171.826 158.328 171.266 158.12C170.711 157.912 170.09 157.808 169.402 157.808C168.698 157.808 168.052 157.917 167.466 158.136C166.879 158.349 166.362 158.661 165.914 159.072C165.471 159.477 165.103 159.976 164.81 160.568C164.516 161.155 164.308 161.819 164.186 162.56H174.314ZM186.979 154.88C188.179 154.88 189.246 155.016 190.179 155.288C191.118 155.56 191.907 155.949 192.547 156.456C193.193 156.957 193.683 157.568 194.019 158.288C194.355 159.003 194.523 159.805 194.523 160.696H191.355C191.355 160.243 191.259 159.832 191.067 159.464C190.881 159.091 190.601 158.773 190.227 158.512C189.859 158.245 189.403 158.04 188.859 157.896C188.315 157.752 187.689 157.68 186.979 157.68C186.339 157.68 185.755 157.739 185.227 157.856C184.705 157.973 184.254 158.141 183.875 158.36C183.497 158.573 183.203 158.832 182.995 159.136C182.787 159.435 182.683 159.768 182.683 160.136C182.683 160.413 182.742 160.659 182.859 160.872C182.977 161.08 183.137 161.261 183.339 161.416C183.542 161.571 183.779 161.704 184.051 161.816C184.323 161.923 184.614 162.016 184.923 162.096C185.238 162.176 185.563 162.245 185.899 162.304C186.235 162.357 186.566 162.411 186.891 162.464L188.075 162.648C188.566 162.723 189.081 162.811 189.619 162.912C190.163 163.008 190.697 163.139 191.219 163.304C191.747 163.464 192.249 163.669 192.723 163.92C193.203 164.165 193.625 164.475 193.987 164.848C194.35 165.221 194.638 165.669 194.851 166.192C195.065 166.709 195.171 167.325 195.171 168.04C195.171 168.909 195.001 169.683 194.659 170.36C194.318 171.032 193.814 171.6 193.147 172.064C192.481 172.528 191.657 172.88 190.675 173.12C189.694 173.36 188.561 173.48 187.275 173.48C185.937 173.48 184.763 173.349 183.755 173.088C182.747 172.827 181.907 172.443 181.235 171.936C180.563 171.429 180.057 170.808 179.715 170.072C179.379 169.331 179.211 168.48 179.211 167.52H182.371C182.371 168.533 182.771 169.315 183.571 169.864C184.371 170.408 185.603 170.68 187.267 170.68C188.019 170.68 188.689 170.624 189.275 170.512C189.862 170.4 190.358 170.235 190.763 170.016C191.169 169.797 191.478 169.528 191.691 169.208C191.905 168.888 192.011 168.523 192.011 168.112C192.011 167.792 191.95 167.512 191.827 167.272C191.705 167.027 191.534 166.816 191.315 166.64C191.097 166.459 190.838 166.304 190.539 166.176C190.246 166.043 189.926 165.928 189.579 165.832C189.233 165.736 188.87 165.653 188.491 165.584C188.118 165.509 187.739 165.44 187.355 165.376L186.179 165.176C185.731 165.101 185.257 165.016 184.755 164.92C184.254 164.819 183.755 164.693 183.259 164.544C182.769 164.389 182.297 164.197 181.843 163.968C181.395 163.733 180.998 163.445 180.651 163.104C180.31 162.763 180.035 162.355 179.827 161.88C179.625 161.405 179.523 160.848 179.523 160.208C179.523 159.397 179.694 158.664 180.035 158.008C180.382 157.352 180.875 156.792 181.515 156.328C182.161 155.864 182.942 155.507 183.859 155.256C184.782 155.005 185.822 154.88 186.979 154.88ZM203.974 164.176C203.974 163.248 204.067 162.373 204.254 161.552C204.44 160.731 204.71 159.976 205.062 159.288C205.414 158.6 205.843 157.984 206.35 157.44C206.856 156.891 207.427 156.427 208.062 156.048C208.702 155.669 209.403 155.381 210.166 155.184C210.928 154.981 211.739 154.88 212.598 154.88C213.462 154.88 214.272 154.981 215.03 155.184C215.792 155.381 216.491 155.669 217.126 156.048C217.766 156.427 218.339 156.891 218.846 157.44C219.352 157.984 219.782 158.6 220.134 159.288C220.486 159.976 220.755 160.731 220.942 161.552C221.128 162.373 221.222 163.248 221.222 164.176C221.222 165.104 221.128 165.979 220.942 166.8C220.755 167.621 220.486 168.379 220.134 169.072C219.782 169.76 219.352 170.376 218.846 170.92C218.339 171.464 217.766 171.928 217.126 172.312C216.491 172.691 215.792 172.979 215.03 173.176C214.272 173.379 213.462 173.48 212.598 173.48C211.739 173.48 210.928 173.379 210.166 173.176C209.403 172.979 208.702 172.691 208.062 172.312C207.427 171.928 206.856 171.464 206.35 170.92C205.843 170.376 205.414 169.76 205.062 169.072C204.71 168.379 204.44 167.621 204.254 166.8C204.067 165.979 203.974 165.104 203.974 164.176ZM207.214 164.176C207.214 165.163 207.336 166.051 207.582 166.84C207.832 167.624 208.19 168.293 208.654 168.848C209.123 169.397 209.691 169.819 210.358 170.112C211.024 170.405 211.774 170.552 212.606 170.552C213.438 170.552 214.184 170.405 214.846 170.112C215.512 169.819 216.078 169.397 216.542 168.848C217.006 168.293 217.36 167.624 217.606 166.84C217.856 166.051 217.982 165.163 217.982 164.176C217.982 163.189 217.856 162.304 217.606 161.52C217.36 160.731 217.006 160.061 216.542 159.512C216.078 158.963 215.512 158.541 214.846 158.248C214.184 157.955 213.438 157.808 212.606 157.808C211.774 157.808 211.024 157.955 210.358 158.248C209.691 158.541 209.123 158.963 208.654 159.512C208.19 160.061 207.832 160.731 207.582 161.52C207.336 162.304 207.214 163.189 207.214 164.176ZM225.008 158.08H222.328V155.36H225.008V154.96C225.008 153.872 225.144 152.912 225.416 152.08C225.688 151.248 226.088 150.552 226.616 149.992C227.149 149.427 227.808 149 228.592 148.712C229.376 148.424 230.282 148.28 231.312 148.28C232.197 148.28 233.146 148.384 234.16 148.592V151.392C233.226 151.2 232.429 151.104 231.768 151.104C230.53 151.104 229.608 151.424 229 152.064C228.392 152.704 228.088 153.669 228.088 154.96V155.36H234.168V158.08H228.248V173H225.008V158.08ZM246.864 160.792C247.093 159.885 247.413 159.069 247.824 158.344C248.234 157.613 248.72 156.992 249.28 156.48C249.84 155.968 250.466 155.573 251.16 155.296C251.858 155.019 252.608 154.88 253.408 154.88C254.133 154.88 254.821 154.984 255.472 155.192C256.122 155.4 256.722 155.699 257.272 156.088C257.826 156.477 258.325 156.949 258.768 157.504C259.216 158.053 259.594 158.672 259.904 159.36C260.213 160.048 260.45 160.797 260.616 161.608C260.786 162.419 260.872 163.275 260.872 164.176C260.872 165.077 260.786 165.933 260.616 166.744C260.45 167.555 260.213 168.307 259.904 169C259.594 169.688 259.216 170.309 258.768 170.864C258.325 171.413 257.826 171.883 257.272 172.272C256.722 172.661 256.122 172.96 255.472 173.168C254.821 173.376 254.133 173.48 253.408 173.48C252.608 173.48 251.858 173.341 251.16 173.064C250.466 172.787 249.84 172.392 249.28 171.88C248.72 171.368 248.234 170.747 247.824 170.016C247.413 169.285 247.093 168.467 246.864 167.56V179.04H243.624V155.36H246.864V160.792ZM246.864 164.176C246.864 165.184 246.986 166.088 247.232 166.888C247.482 167.683 247.842 168.357 248.312 168.912C248.781 169.467 249.352 169.893 250.024 170.192C250.696 170.485 251.456 170.632 252.304 170.632C253.168 170.632 253.93 170.493 254.592 170.216C255.258 169.933 255.816 169.52 256.264 168.976C256.712 168.427 257.05 167.752 257.28 166.952C257.514 166.147 257.632 165.221 257.632 164.176C257.632 163.131 257.514 162.208 257.28 161.408C257.05 160.603 256.712 159.928 256.264 159.384C255.816 158.84 255.258 158.429 254.592 158.152C253.93 157.869 253.168 157.728 252.304 157.728C251.456 157.728 250.696 157.875 250.024 158.168C249.352 158.461 248.781 158.885 248.312 159.44C247.842 159.995 247.482 160.672 247.232 161.472C246.986 162.267 246.864 163.168 246.864 164.176ZM266.27 173H263.03V155.36H266.27V160.992C266.478 160.112 266.774 159.325 267.158 158.632C267.547 157.933 268.027 157.341 268.598 156.856C269.169 156.371 269.827 156 270.574 155.744C271.326 155.488 272.169 155.36 273.102 155.36H273.91V158.448H273.11C271.819 158.448 270.737 158.568 269.862 158.808C268.987 159.043 268.283 159.4 267.75 159.88C267.222 160.36 266.843 160.965 266.614 161.696C266.385 162.421 266.27 163.275 266.27 164.256V173ZM274.911 164.176C274.911 163.248 275.005 162.373 275.191 161.552C275.378 160.731 275.647 159.976 275.999 159.288C276.351 158.6 276.781 157.984 277.287 157.44C277.794 156.891 278.365 156.427 278.999 156.048C279.639 155.669 280.341 155.381 281.103 155.184C281.866 154.981 282.677 154.88 283.535 154.88C284.399 154.88 285.21 154.981 285.967 155.184C286.73 155.381 287.429 155.669 288.063 156.048C288.703 156.427 289.277 156.891 289.783 157.44C290.29 157.984 290.719 158.6 291.071 159.288C291.423 159.976 291.693 160.731 291.879 161.552C292.066 162.373 292.159 163.248 292.159 164.176C292.159 165.104 292.066 165.979 291.879 166.8C291.693 167.621 291.423 168.379 291.071 169.072C290.719 169.76 290.29 170.376 289.783 170.92C289.277 171.464 288.703 171.928 288.063 172.312C287.429 172.691 286.73 172.979 285.967 173.176C285.21 173.379 284.399 173.48 283.535 173.48C282.677 173.48 281.866 173.379 281.103 173.176C280.341 172.979 279.639 172.691 278.999 172.312C278.365 171.928 277.794 171.464 277.287 170.92C276.781 170.376 276.351 169.76 275.999 169.072C275.647 168.379 275.378 167.621 275.191 166.8C275.005 165.979 274.911 165.104 274.911 164.176ZM278.151 164.176C278.151 165.163 278.274 166.051 278.519 166.84C278.77 167.624 279.127 168.293 279.591 168.848C280.061 169.397 280.629 169.819 281.295 170.112C281.962 170.405 282.711 170.552 283.543 170.552C284.375 170.552 285.122 170.405 285.783 170.112C286.45 169.819 287.015 169.397 287.479 168.848C287.943 168.293 288.298 167.624 288.543 166.84C288.794 166.051 288.919 165.163 288.919 164.176C288.919 163.189 288.794 162.304 288.543 161.52C288.298 160.731 287.943 160.061 287.479 159.512C287.015 158.963 286.45 158.541 285.783 158.248C285.122 157.955 284.375 157.808 283.543 157.808C282.711 157.808 281.962 157.955 281.295 158.248C280.629 158.541 280.061 158.963 279.591 159.512C279.127 160.061 278.77 160.731 278.519 161.52C278.274 162.304 278.151 163.189 278.151 164.176ZM304.901 172.864C303.552 173.269 302.336 173.472 301.253 173.472C300.373 173.472 299.595 173.336 298.917 173.064C298.245 172.797 297.68 172.4 297.221 171.872C296.763 171.339 296.413 170.68 296.173 169.896C295.939 169.107 295.821 168.195 295.821 167.16V158.08H293.421V155.36H295.821V151.296H299.061V155.36H304.901V158.08H299.061V167.168C299.061 168.336 299.28 169.2 299.717 169.76C300.16 170.315 300.853 170.592 301.797 170.592C302.165 170.592 302.603 170.549 303.109 170.464C303.621 170.379 304.219 170.245 304.901 170.064V172.864ZM322.836 167.152C322.606 168.139 322.249 169.024 321.764 169.808C321.278 170.592 320.686 171.256 319.988 171.8C319.294 172.344 318.505 172.76 317.62 173.048C316.734 173.336 315.774 173.48 314.74 173.48C313.876 173.48 313.06 173.379 312.292 173.176C311.529 172.973 310.825 172.683 310.18 172.304C309.54 171.92 308.964 171.456 308.452 170.912C307.945 170.363 307.513 169.744 307.156 169.056C306.804 168.363 306.534 167.605 306.348 166.784C306.161 165.957 306.068 165.08 306.068 164.152C306.068 163.224 306.161 162.352 306.348 161.536C306.534 160.72 306.801 159.968 307.148 159.28C307.5 158.592 307.926 157.976 308.428 157.432C308.929 156.888 309.497 156.427 310.132 156.048C310.766 155.669 311.462 155.381 312.22 155.184C312.977 154.981 313.782 154.88 314.636 154.88C315.9 154.88 317.041 155.099 318.06 155.536C319.078 155.968 319.948 156.584 320.668 157.384C321.388 158.184 321.942 159.152 322.332 160.288C322.721 161.424 322.916 162.696 322.916 164.104C322.916 164.307 322.91 164.507 322.899 164.704C322.894 164.901 322.881 165.12 322.86 165.36H309.372C309.468 166.165 309.66 166.891 309.948 167.536C310.241 168.176 310.62 168.72 311.084 169.168C311.553 169.616 312.102 169.96 312.732 170.2C313.361 170.435 314.057 170.552 314.82 170.552C315.993 170.552 316.974 170.269 317.764 169.704C318.553 169.133 319.164 168.283 319.596 167.152H322.836ZM319.564 162.56C319.457 161.792 319.27 161.115 319.004 160.528C318.737 159.936 318.396 159.44 317.98 159.04C317.564 158.635 317.076 158.328 316.516 158.12C315.961 157.912 315.34 157.808 314.652 157.808C313.948 157.808 313.302 157.917 312.716 158.136C312.129 158.349 311.612 158.661 311.164 159.072C310.721 159.477 310.353 159.976 310.06 160.568C309.766 161.155 309.558 161.819 309.436 162.56H319.564ZM327.901 164.176C327.901 165.163 328.024 166.051 328.269 166.84C328.52 167.624 328.877 168.293 329.341 168.848C329.811 169.397 330.379 169.819 331.045 170.112C331.712 170.405 332.461 170.552 333.293 170.552C334.024 170.552 334.669 170.443 335.229 170.224C335.789 170.005 336.272 169.707 336.677 169.328C337.083 168.944 337.411 168.499 337.661 167.992C337.912 167.48 338.091 166.933 338.197 166.352H341.437C341.352 167.019 341.2 167.659 340.981 168.272C340.763 168.885 340.483 169.456 340.141 169.984C339.8 170.512 339.397 170.992 338.933 171.424C338.475 171.851 337.957 172.219 337.381 172.528C336.805 172.832 336.176 173.067 335.493 173.232C334.811 173.397 334.075 173.48 333.285 173.48C332.427 173.48 331.616 173.379 330.853 173.176C330.091 172.979 329.389 172.691 328.749 172.312C328.115 171.928 327.544 171.464 327.037 170.92C326.531 170.376 326.101 169.76 325.749 169.072C325.397 168.379 325.128 167.621 324.941 166.8C324.755 165.979 324.661 165.104 324.661 164.176C324.661 163.248 324.755 162.373 324.941 161.552C325.128 160.731 325.397 159.976 325.749 159.288C326.101 158.6 326.531 157.984 327.037 157.44C327.544 156.891 328.115 156.427 328.749 156.048C329.389 155.669 330.091 155.381 330.853 155.184C331.616 154.981 332.427 154.88 333.285 154.88C334.075 154.88 334.811 154.963 335.493 155.128C336.181 155.293 336.813 155.531 337.389 155.84C337.965 156.144 338.483 156.512 338.941 156.944C339.405 157.371 339.805 157.848 340.141 158.376C340.483 158.904 340.763 159.475 340.981 160.088C341.2 160.701 341.352 161.341 341.437 162.008H338.197C338.091 161.427 337.912 160.883 337.661 160.376C337.416 159.864 337.091 159.419 336.685 159.04C336.28 158.656 335.795 158.355 335.229 158.136C334.669 157.917 334.024 157.808 333.293 157.808C332.461 157.808 331.712 157.955 331.045 158.248C330.379 158.541 329.811 158.963 329.341 159.512C328.877 160.061 328.52 160.731 328.269 161.52C328.024 162.304 327.901 163.189 327.901 164.176ZM354.183 172.864C352.833 173.269 351.617 173.472 350.535 173.472C349.655 173.472 348.876 173.336 348.199 173.064C347.527 172.797 346.961 172.4 346.503 171.872C346.044 171.339 345.695 170.68 345.455 169.896C345.22 169.107 345.103 168.195 345.103 167.16V158.08H342.703V155.36H345.103V151.296H348.343V155.36H354.183V158.08H348.343V167.168C348.343 168.336 348.561 169.2 348.999 169.76C349.441 170.315 350.135 170.592 351.079 170.592C351.447 170.592 351.884 170.549 352.391 170.464C352.903 170.379 353.5 170.245 354.183 170.064V172.864ZM359.788 153.32H356.388V149.32H359.788V153.32ZM359.707 173H356.468V155.36H359.707V173ZM361.88 164.176C361.88 163.248 361.973 162.373 362.16 161.552C362.347 160.731 362.616 159.976 362.968 159.288C363.32 158.6 363.749 157.984 364.256 157.44C364.763 156.891 365.333 156.427 365.968 156.048C366.608 155.669 367.309 155.381 368.072 155.184C368.835 154.981 369.645 154.88 370.504 154.88C371.368 154.88 372.179 154.981 372.936 155.184C373.699 155.381 374.397 155.669 375.032 156.048C375.672 156.427 376.245 156.891 376.752 157.44C377.259 157.984 377.688 158.6 378.04 159.288C378.392 159.976 378.661 160.731 378.848 161.552C379.035 162.373 379.128 163.248 379.128 164.176C379.128 165.104 379.035 165.979 378.848 166.8C378.661 167.621 378.392 168.379 378.04 169.072C377.688 169.76 377.259 170.376 376.752 170.92C376.245 171.464 375.672 171.928 375.032 172.312C374.397 172.691 373.699 172.979 372.936 173.176C372.179 173.379 371.368 173.48 370.504 173.48C369.645 173.48 368.835 173.379 368.072 173.176C367.309 172.979 366.608 172.691 365.968 172.312C365.333 171.928 364.763 171.464 364.256 170.92C363.749 170.376 363.32 169.76 362.968 169.072C362.616 168.379 362.347 167.621 362.16 166.8C361.973 165.979 361.88 165.104 361.88 164.176ZM365.12 164.176C365.12 165.163 365.243 166.051 365.488 166.84C365.739 167.624 366.096 168.293 366.56 168.848C367.029 169.397 367.597 169.819 368.264 170.112C368.931 170.405 369.68 170.552 370.512 170.552C371.344 170.552 372.091 170.405 372.752 170.112C373.419 169.819 373.984 169.397 374.448 168.848C374.912 168.293 375.267 167.624 375.512 166.84C375.763 166.051 375.888 165.163 375.888 164.176C375.888 163.189 375.763 162.304 375.512 161.52C375.267 160.731 374.912 160.061 374.448 159.512C373.984 158.963 373.419 158.541 372.752 158.248C372.091 157.955 371.344 157.808 370.512 157.808C369.68 157.808 368.931 157.955 368.264 158.248C367.597 158.541 367.029 158.963 366.56 159.512C366.096 160.061 365.739 160.731 365.488 161.52C365.243 162.304 365.12 163.189 365.12 164.176ZM384.52 173H381.28V155.36H384.52V160.456C384.733 159.587 385.04 158.808 385.44 158.12C385.84 157.432 386.32 156.848 386.88 156.368C387.44 155.888 388.072 155.52 388.776 155.264C389.485 155.008 390.251 154.88 391.072 154.88C392.075 154.88 392.973 155.069 393.768 155.448C394.563 155.827 395.235 156.373 395.784 157.088C396.339 157.797 396.76 158.664 397.048 159.688C397.341 160.707 397.488 161.856 397.488 163.136V173H394.248V163.136C394.248 161.365 393.872 160.035 393.12 159.144C392.368 158.253 391.235 157.808 389.72 157.808C388.904 157.808 388.173 157.936 387.528 158.192C386.888 158.443 386.344 158.811 385.896 159.296C385.453 159.776 385.112 160.368 384.872 161.072C384.637 161.771 384.52 162.565 384.52 163.456V173ZM409.195 158.08H406.515V155.36H409.195V154.96C409.195 153.872 409.331 152.912 409.603 152.08C409.875 151.248 410.275 150.552 410.803 149.992C411.336 149.427 411.995 149 412.779 148.712C413.563 148.424 414.47 148.28 415.499 148.28C416.384 148.28 417.334 148.384 418.347 148.592V151.392C417.414 151.2 416.616 151.104 415.955 151.104C414.718 151.104 413.795 151.424 413.187 152.064C412.579 152.704 412.275 153.669 412.275 154.96V155.36H418.355V158.08H412.435V173H409.195V158.08ZM423.614 173H420.374V155.36H423.614V160.992C423.822 160.112 424.118 159.325 424.502 158.632C424.891 157.933 425.371 157.341 425.942 156.856C426.512 156.371 427.171 156 427.918 155.744C428.67 155.488 429.512 155.36 430.446 155.36H431.254V158.448H430.454C429.163 158.448 428.08 158.568 427.206 158.808C426.331 159.043 425.627 159.4 425.094 159.88C424.566 160.36 424.187 160.965 423.958 161.696C423.728 162.421 423.614 163.275 423.614 164.256V173ZM432.255 164.176C432.255 163.248 432.348 162.373 432.535 161.552C432.722 160.731 432.991 159.976 433.343 159.288C433.695 158.6 434.124 157.984 434.631 157.44C435.138 156.891 435.708 156.427 436.343 156.048C436.983 155.669 437.684 155.381 438.447 155.184C439.21 154.981 440.02 154.88 440.879 154.88C441.743 154.88 442.554 154.981 443.311 155.184C444.074 155.381 444.772 155.669 445.407 156.048C446.047 156.427 446.62 156.891 447.127 157.44C447.634 157.984 448.063 158.6 448.415 159.288C448.767 159.976 449.036 160.731 449.223 161.552C449.41 162.373 449.503 163.248 449.503 164.176C449.503 165.104 449.41 165.979 449.223 166.8C449.036 167.621 448.767 168.379 448.415 169.072C448.063 169.76 447.634 170.376 447.127 170.92C446.62 171.464 446.047 171.928 445.407 172.312C444.772 172.691 444.074 172.979 443.311 173.176C442.554 173.379 441.743 173.48 440.879 173.48C440.02 173.48 439.21 173.379 438.447 173.176C437.684 172.979 436.983 172.691 436.343 172.312C435.708 171.928 435.138 171.464 434.631 170.92C434.124 170.376 433.695 169.76 433.343 169.072C432.991 168.379 432.722 167.621 432.535 166.8C432.348 165.979 432.255 165.104 432.255 164.176ZM435.495 164.176C435.495 165.163 435.618 166.051 435.863 166.84C436.114 167.624 436.471 168.293 436.935 168.848C437.404 169.397 437.972 169.819 438.639 170.112C439.306 170.405 440.055 170.552 440.887 170.552C441.719 170.552 442.466 170.405 443.127 170.112C443.794 169.819 444.359 169.397 444.823 168.848C445.287 168.293 445.642 167.624 445.887 166.84C446.138 166.051 446.263 165.163 446.263 164.176C446.263 163.189 446.138 162.304 445.887 161.52C445.642 160.731 445.287 160.061 444.823 159.512C444.359 158.963 443.794 158.541 443.127 158.248C442.466 157.955 441.719 157.808 440.887 157.808C440.055 157.808 439.306 157.955 438.639 158.248C437.972 158.541 437.404 158.963 436.935 159.512C436.471 160.061 436.114 160.731 435.863 161.52C435.618 162.304 435.495 163.189 435.495 164.176ZM454.895 173H451.655V155.36H454.895V160.272C455.103 159.429 455.391 158.675 455.759 158.008C456.132 157.341 456.575 156.776 457.087 156.312C457.599 155.848 458.175 155.493 458.815 155.248C459.455 155.003 460.148 154.88 460.895 154.88C461.684 154.88 462.402 155.019 463.047 155.296C463.698 155.568 464.268 155.965 464.759 156.488C465.255 157.011 465.663 157.651 465.983 158.408C466.308 159.16 466.54 160.013 466.679 160.968C466.85 160.024 467.116 159.176 467.479 158.424C467.842 157.672 468.284 157.035 468.807 156.512C469.335 155.984 469.938 155.581 470.615 155.304C471.292 155.021 472.028 154.88 472.823 154.88C473.751 154.88 474.58 155.069 475.311 155.448C476.047 155.827 476.668 156.373 477.175 157.088C477.687 157.797 478.076 158.664 478.343 159.688C478.615 160.707 478.751 161.856 478.751 163.136V173H475.511V163.136C475.511 161.365 475.175 160.035 474.503 159.144C473.836 158.253 472.826 157.808 471.471 157.808C470.746 157.808 470.095 157.936 469.519 158.192C468.943 158.443 468.455 158.811 468.055 159.296C467.655 159.776 467.348 160.368 467.135 161.072C466.927 161.771 466.823 162.565 466.823 163.456V173H463.583V163.136C463.583 161.365 463.247 160.035 462.575 159.144C461.908 158.253 460.898 157.808 459.543 157.808C458.818 157.808 458.167 157.936 457.591 158.192C457.015 158.443 456.527 158.811 456.127 159.296C455.727 159.776 455.42 160.368 455.207 161.072C454.999 161.771 454.895 162.565 454.895 163.456V173ZM174.373 207.88H178.421V211H166.965V207.88H171.013V194.504H166.021V191.624H168.077C168.69 191.624 169.205 191.563 169.621 191.44C170.037 191.312 170.37 191.096 170.621 190.792C170.877 190.488 171.058 190.08 171.165 189.568C171.277 189.051 171.333 188.405 171.333 187.632H174.373V207.88ZM199.073 210.864C197.724 211.269 196.508 211.472 195.425 211.472C194.545 211.472 193.766 211.336 193.089 211.064C192.417 210.797 191.852 210.4 191.393 209.872C190.934 209.339 190.585 208.68 190.345 207.896C190.11 207.107 189.993 206.195 189.993 205.16V196.08H187.593V193.36H189.993V189.296H193.233V193.36H199.073V196.08H193.233V205.168C193.233 206.336 193.452 207.2 193.889 207.76C194.332 208.315 195.025 208.592 195.969 208.592C196.337 208.592 196.774 208.549 197.281 208.464C197.793 208.379 198.39 208.245 199.073 208.064V210.864ZM200.239 202.176C200.239 201.248 200.333 200.373 200.519 199.552C200.706 198.731 200.975 197.976 201.327 197.288C201.679 196.6 202.109 195.984 202.615 195.44C203.122 194.891 203.693 194.427 204.327 194.048C204.967 193.669 205.669 193.381 206.431 193.184C207.194 192.981 208.005 192.88 208.863 192.88C209.727 192.88 210.538 192.981 211.295 193.184C212.058 193.381 212.757 193.669 213.391 194.048C214.031 194.427 214.605 194.891 215.111 195.44C215.618 195.984 216.047 196.6 216.399 197.288C216.751 197.976 217.021 198.731 217.207 199.552C217.394 200.373 217.487 201.248 217.487 202.176C217.487 203.104 217.394 203.979 217.207 204.8C217.021 205.621 216.751 206.379 216.399 207.072C216.047 207.76 215.618 208.376 215.111 208.92C214.605 209.464 214.031 209.928 213.391 210.312C212.757 210.691 212.058 210.979 211.295 211.176C210.538 211.379 209.727 211.48 208.863 211.48C208.005 211.48 207.194 211.379 206.431 211.176C205.669 210.979 204.967 210.691 204.327 210.312C203.693 209.928 203.122 209.464 202.615 208.92C202.109 208.376 201.679 207.76 201.327 207.072C200.975 206.379 200.706 205.621 200.519 204.8C200.333 203.979 200.239 203.104 200.239 202.176ZM203.479 202.176C203.479 203.163 203.602 204.051 203.847 204.84C204.098 205.624 204.455 206.293 204.919 206.848C205.389 207.397 205.957 207.819 206.623 208.112C207.29 208.405 208.039 208.552 208.871 208.552C209.703 208.552 210.45 208.405 211.111 208.112C211.778 207.819 212.343 207.397 212.807 206.848C213.271 206.293 213.626 205.624 213.871 204.84C214.122 204.051 214.247 203.163 214.247 202.176C214.247 201.189 214.122 200.304 213.871 199.52C213.626 198.731 213.271 198.061 212.807 197.512C212.343 196.963 211.778 196.541 211.111 196.248C210.45 195.955 209.703 195.808 208.871 195.808C208.039 195.808 207.29 195.955 206.623 196.248C205.957 196.541 205.389 196.963 204.919 197.512C204.455 198.061 204.098 198.731 203.847 199.52C203.602 200.304 203.479 201.189 203.479 202.176ZM235.955 211.472C235.091 211.472 234.275 211.392 233.507 211.232C232.739 211.072 232.03 210.843 231.379 210.544C230.734 210.24 230.152 209.875 229.635 209.448C229.123 209.016 228.688 208.531 228.331 207.992C227.974 207.448 227.699 206.856 227.507 206.216C227.315 205.571 227.219 204.888 227.219 204.168V203.976H230.579V204.136C230.579 204.765 230.707 205.339 230.963 205.856C231.224 206.373 231.59 206.819 232.059 207.192C232.528 207.56 233.091 207.845 233.747 208.048C234.403 208.251 235.128 208.352 235.923 208.352C237.059 208.352 238.067 208.141 238.947 207.72C239.832 207.293 240.576 206.672 241.179 205.856C241.782 205.035 242.24 204.029 242.555 202.84C242.87 201.645 243.027 200.28 243.027 198.744V196.28C242.915 197.144 242.646 197.917 242.219 198.6C241.798 199.283 241.238 199.864 240.539 200.344C239.84 200.819 239.014 201.184 238.059 201.44C237.104 201.691 236.04 201.816 234.867 201.816C233.587 201.816 232.44 201.664 231.427 201.36C230.414 201.056 229.552 200.619 228.843 200.048C228.139 199.477 227.6 198.781 227.227 197.96C226.854 197.139 226.667 196.208 226.667 195.168C226.667 194.032 226.888 193 227.331 192.072C227.779 191.144 228.411 190.352 229.227 189.696C230.048 189.04 231.038 188.533 232.195 188.176C233.352 187.819 234.64 187.64 236.059 187.64C237.723 187.64 239.195 187.891 240.475 188.392C241.755 188.893 242.832 189.627 243.707 190.592C244.582 191.557 245.243 192.744 245.691 194.152C246.144 195.555 246.371 197.16 246.371 198.968V199.16C246.371 201.08 246.131 202.8 245.651 204.32C245.176 205.84 244.491 207.131 243.595 208.192C242.699 209.253 241.606 210.067 240.315 210.632C239.03 211.192 237.576 211.472 235.955 211.472ZM235.707 190.76C234.795 190.76 233.984 190.856 233.275 191.048C232.571 191.235 231.976 191.515 231.491 191.888C231.011 192.256 230.646 192.712 230.395 193.256C230.15 193.795 230.027 194.416 230.027 195.12C230.027 195.813 230.15 196.432 230.395 196.976C230.64 197.515 230.998 197.968 231.467 198.336C231.942 198.704 232.523 198.984 233.211 199.176C233.899 199.368 234.688 199.464 235.579 199.464C236.55 199.464 237.446 199.355 238.267 199.136C239.088 198.912 239.798 198.603 240.395 198.208C240.992 197.813 241.459 197.347 241.795 196.808C242.131 196.264 242.299 195.669 242.299 195.024C242.299 194.395 242.139 193.819 241.819 193.296C241.499 192.773 241.048 192.325 240.467 191.952C239.886 191.573 239.19 191.28 238.379 191.072C237.574 190.864 236.683 190.76 235.707 190.76ZM248.604 199.56C248.604 198.376 248.716 197.261 248.94 196.216C249.164 195.165 249.484 194.2 249.9 193.32C250.322 192.435 250.834 191.643 251.436 190.944C252.039 190.24 252.719 189.645 253.476 189.16C254.239 188.669 255.071 188.293 255.972 188.032C256.874 187.771 257.831 187.64 258.844 187.64C259.863 187.64 260.82 187.771 261.716 188.032C262.618 188.293 263.447 188.669 264.204 189.16C264.967 189.645 265.65 190.24 266.252 190.944C266.855 191.643 267.364 192.435 267.78 193.32C268.202 194.2 268.524 195.165 268.748 196.216C268.972 197.261 269.084 198.376 269.084 199.56C269.084 200.739 268.972 201.853 268.748 202.904C268.524 203.955 268.202 204.923 267.78 205.808C267.364 206.688 266.855 207.48 266.252 208.184C265.65 208.883 264.967 209.477 264.204 209.968C263.447 210.453 262.618 210.827 261.716 211.088C260.815 211.349 259.858 211.48 258.844 211.48C257.831 211.48 256.874 211.349 255.972 211.088C255.071 210.827 254.239 210.453 253.476 209.968C252.719 209.477 252.039 208.883 251.436 208.184C250.834 207.48 250.322 206.688 249.9 205.808C249.484 204.923 249.164 203.955 248.94 202.904C248.716 201.853 248.604 200.739 248.604 199.56ZM251.964 199.56C251.964 200.936 252.122 202.168 252.436 203.256C252.751 204.344 253.204 205.267 253.796 206.024C254.388 206.776 255.108 207.355 255.956 207.76C256.81 208.16 257.772 208.36 258.844 208.36C259.916 208.36 260.876 208.16 261.724 207.76C262.578 207.355 263.3 206.776 263.892 206.024C264.484 205.267 264.938 204.344 265.252 203.256C265.567 202.168 265.724 200.936 265.724 199.56C265.724 198.184 265.567 196.952 265.252 195.864C264.938 194.776 264.484 193.856 263.892 193.104C263.3 192.347 262.578 191.768 261.724 191.368C260.876 190.963 259.916 190.76 258.844 190.76C257.772 190.76 256.81 190.963 255.956 191.368C255.108 191.768 254.388 192.347 253.796 193.104C253.204 193.856 252.751 194.776 252.436 195.864C252.122 196.952 251.964 198.184 251.964 199.56ZM295.519 187.32V211H292.279V205.56C292.049 206.467 291.729 207.285 291.319 208.016C290.908 208.747 290.423 209.368 289.863 209.88C289.303 210.392 288.673 210.787 287.975 211.064C287.281 211.341 286.535 211.48 285.735 211.48C285.009 211.48 284.321 211.376 283.671 211.168C283.02 210.96 282.417 210.661 281.863 210.272C281.313 209.883 280.815 209.413 280.367 208.864C279.924 208.309 279.548 207.688 279.239 207C278.929 206.307 278.689 205.555 278.519 204.744C278.353 203.933 278.271 203.077 278.271 202.176C278.271 201.275 278.353 200.419 278.519 199.608C278.689 198.797 278.929 198.048 279.239 197.36C279.548 196.672 279.924 196.053 280.367 195.504C280.815 194.949 281.313 194.477 281.863 194.088C282.417 193.699 283.02 193.4 283.671 193.192C284.321 192.984 285.009 192.88 285.735 192.88C286.535 192.88 287.281 193.019 287.975 193.296C288.673 193.573 289.303 193.968 289.863 194.48C290.423 194.992 290.908 195.613 291.319 196.344C291.729 197.069 292.049 197.885 292.279 198.792V187.32H295.519ZM292.279 202.176C292.279 201.168 292.153 200.267 291.903 199.472C291.657 198.672 291.3 197.995 290.831 197.44C290.361 196.885 289.791 196.461 289.119 196.168C288.447 195.875 287.687 195.728 286.839 195.728C285.975 195.728 285.209 195.869 284.543 196.152C283.881 196.429 283.327 196.84 282.879 197.384C282.431 197.928 282.089 198.603 281.855 199.408C281.625 200.208 281.511 201.131 281.511 202.176C281.511 203.221 281.625 204.147 281.855 204.952C282.089 205.752 282.431 206.427 282.879 206.976C283.327 207.52 283.881 207.933 284.543 208.216C285.209 208.493 285.975 208.632 286.839 208.632C287.687 208.632 288.447 208.485 289.119 208.192C289.791 207.893 290.361 207.467 290.831 206.912C291.3 206.357 291.657 205.683 291.903 204.888C292.153 204.088 292.279 203.184 292.279 202.176ZM298.117 199.504C298.117 198.491 298.304 197.576 298.677 196.76C299.05 195.944 299.584 195.248 300.277 194.672C300.976 194.096 301.818 193.653 302.805 193.344C303.797 193.035 304.912 192.88 306.149 192.88C307.456 192.88 308.626 193.056 309.661 193.408C310.696 193.755 311.573 194.256 312.293 194.912C313.013 195.568 313.565 196.371 313.949 197.32C314.333 198.264 314.525 199.336 314.525 200.536V211H311.285V206.256C311.072 207.067 310.746 207.795 310.309 208.44C309.877 209.085 309.349 209.635 308.725 210.088C308.106 210.536 307.4 210.88 306.605 211.12C305.81 211.36 304.949 211.48 304.021 211.48C303.056 211.48 302.178 211.352 301.389 211.096C300.6 210.84 299.922 210.48 299.357 210.016C298.797 209.552 298.362 208.995 298.053 208.344C297.749 207.688 297.597 206.96 297.597 206.16C297.597 205.355 297.754 204.629 298.069 203.984C298.389 203.339 298.845 202.792 299.437 202.344C300.034 201.891 300.757 201.544 301.605 201.304C302.458 201.064 303.416 200.944 304.477 200.944H311.285V200.536C311.285 199.811 311.162 199.157 310.917 198.576C310.677 197.989 310.333 197.493 309.885 197.088C309.437 196.677 308.893 196.363 308.253 196.144C307.613 195.925 306.893 195.816 306.093 195.816C305.277 195.816 304.57 195.904 303.973 196.08C303.381 196.256 302.89 196.507 302.501 196.832C302.117 197.152 301.829 197.539 301.637 197.992C301.45 198.445 301.357 198.949 301.357 199.504H298.117ZM304.445 203.664C303.245 203.664 302.336 203.867 301.717 204.272C301.104 204.672 300.797 205.267 300.797 206.056C300.797 206.472 300.885 206.843 301.061 207.168C301.242 207.493 301.506 207.765 301.853 207.984C302.2 208.203 302.626 208.371 303.133 208.488C303.645 208.6 304.232 208.656 304.893 208.656C305.832 208.656 306.69 208.547 307.469 208.328C308.253 208.104 308.928 207.795 309.493 207.4C310.058 207 310.498 206.525 310.813 205.976C311.128 205.421 311.285 204.813 311.285 204.152V203.664H304.445ZM332.619 193.36L325.315 212.112C324.947 213.051 324.518 213.861 324.027 214.544C323.542 215.227 322.982 215.789 322.347 216.232C321.718 216.68 321.011 217.011 320.227 217.224C319.448 217.437 318.582 217.544 317.627 217.544C317.366 217.544 317.112 217.536 316.867 217.52C316.622 217.504 316.384 217.483 316.155 217.456V214.624C316.438 214.661 316.699 214.688 316.939 214.704C317.184 214.72 317.419 214.728 317.643 214.728C318.71 214.728 319.579 214.52 320.251 214.104C320.923 213.688 321.427 213.024 321.763 212.112L321.987 211.52L314.987 193.36H318.347L323.811 208.048L329.339 193.36H332.619ZM340.932 192.88C342.132 192.88 343.199 193.016 344.132 193.288C345.071 193.56 345.86 193.949 346.5 194.456C347.146 194.957 347.636 195.568 347.972 196.288C348.308 197.003 348.476 197.805 348.476 198.696H345.308C345.308 198.243 345.212 197.832 345.02 197.464C344.834 197.091 344.554 196.773 344.18 196.512C343.812 196.245 343.356 196.04 342.812 195.896C342.268 195.752 341.642 195.68 340.932 195.68C340.292 195.68 339.708 195.739 339.18 195.856C338.658 195.973 338.207 196.141 337.828 196.36C337.45 196.573 337.156 196.832 336.948 197.136C336.74 197.435 336.636 197.768 336.636 198.136C336.636 198.413 336.695 198.659 336.812 198.872C336.93 199.08 337.09 199.261 337.292 199.416C337.495 199.571 337.732 199.704 338.004 199.816C338.276 199.923 338.567 200.016 338.876 200.096C339.191 200.176 339.516 200.245 339.852 200.304C340.188 200.357 340.519 200.411 340.844 200.464L342.028 200.648C342.519 200.723 343.034 200.811 343.572 200.912C344.116 201.008 344.65 201.139 345.172 201.304C345.7 201.464 346.202 201.669 346.676 201.92C347.156 202.165 347.578 202.475 347.94 202.848C348.303 203.221 348.591 203.669 348.804 204.192C349.018 204.709 349.124 205.325 349.124 206.04C349.124 206.909 348.954 207.683 348.612 208.36C348.271 209.032 347.767 209.6 347.1 210.064C346.434 210.528 345.61 210.88 344.628 211.12C343.647 211.36 342.514 211.48 341.228 211.48C339.89 211.48 338.716 211.349 337.708 211.088C336.7 210.827 335.86 210.443 335.188 209.936C334.516 209.429 334.01 208.808 333.668 208.072C333.332 207.331 333.164 206.48 333.164 205.52H336.324C336.324 206.533 336.724 207.315 337.524 207.864C338.324 208.408 339.556 208.68 341.22 208.68C341.972 208.68 342.642 208.624 343.228 208.512C343.815 208.4 344.311 208.235 344.716 208.016C345.122 207.797 345.431 207.528 345.644 207.208C345.858 206.888 345.964 206.523 345.964 206.112C345.964 205.792 345.903 205.512 345.78 205.272C345.658 205.027 345.487 204.816 345.268 204.64C345.05 204.459 344.791 204.304 344.492 204.176C344.199 204.043 343.879 203.928 343.532 203.832C343.186 203.736 342.823 203.653 342.444 203.584C342.071 203.509 341.692 203.44 341.308 203.376L340.132 203.176C339.684 203.101 339.21 203.016 338.708 202.92C338.207 202.819 337.708 202.693 337.212 202.544C336.722 202.389 336.25 202.197 335.796 201.968C335.348 201.733 334.951 201.445 334.604 201.104C334.263 200.763 333.988 200.355 333.78 199.88C333.578 199.405 333.476 198.848 333.476 198.208C333.476 197.397 333.647 196.664 333.988 196.008C334.335 195.352 334.828 194.792 335.468 194.328C336.114 193.864 336.895 193.507 337.812 193.256C338.735 193.005 339.775 192.88 340.932 192.88Z" fill="white"/>
</svg>
