<svg width="177" height="91" viewBox="0 0 177 91" fill="none" xmlns="http://www.w3.org/2000/svg">
<rect y="5.58386" width="160" height="52" rx="26" transform="rotate(-2 0 5.58386)" fill="#5069DD"/>
<path d="M23.4285 28.34C23.3871 27.1568 23.4655 26.0387 23.6635 24.9858C23.8614 23.9276 24.1662 22.951 24.5778 22.0561C24.9947 21.1557 25.508 20.3453 26.1179 19.6249C26.7276 18.8992 27.4238 18.2798 28.2064 17.7669C28.9888 17.2486 29.8498 16.8423 30.7894 16.548C31.729 16.2537 32.7345 16.0878 33.8059 16.0504C34.8772 16.013 35.8918 16.1083 36.8497 16.3363C37.8076 16.5644 38.6948 16.9096 39.5115 17.3721C40.3279 17.8292 41.0656 18.3985 41.7244 19.0799C42.3884 19.7558 42.9571 20.5284 43.4304 21.3978C43.9035 22.2618 44.2756 23.2147 44.5468 24.2565C44.8231 25.2929 44.982 26.4027 45.0233 27.5859C45.0644 28.7639 44.9834 29.8821 44.7802 30.9405C44.5824 31.9987 44.2777 32.9779 43.8662 33.8782C43.4545 34.7731 42.9411 35.5835 42.3261 36.3094C41.7162 37.0298 41.0201 37.6491 40.2377 38.1674C39.4551 38.6804 38.594 39.084 37.6544 39.3783C36.7147 39.6726 35.7092 39.8385 34.6379 39.8759C33.5665 39.9133 32.5519 39.818 31.594 39.5899C30.6362 39.3619 29.749 39.0193 28.9326 38.5622C28.1159 38.0997 27.3783 37.5305 26.7196 36.8544C26.0608 36.173 25.4921 35.4003 25.0137 34.5365C24.5404 33.6672 24.1681 32.7116 23.8969 31.6697C23.6258 30.6279 23.4696 29.518 23.4285 28.34ZM26.7864 28.2228C26.8344 29.5979 27.0453 30.8233 27.4191 31.8989C27.7982 32.9744 28.3208 33.8794 28.9868 34.6139C29.6526 35.3431 30.451 35.8942 31.382 36.2673C32.318 36.6349 33.367 36.7983 34.529 36.7578C35.691 36.7172 36.7233 36.481 37.6262 36.0493C38.5341 35.612 39.2948 35.0064 39.9081 34.2325C40.5213 33.4533 40.9795 32.5141 41.2826 31.4148C41.5858 30.3156 41.7134 29.0784 41.6653 27.7032C41.6173 26.328 41.4038 25.1027 41.0247 24.0273C40.6456 22.9519 40.1231 22.0496 39.4572 21.3204C38.7912 20.5858 37.9901 20.0348 37.0541 19.6672C36.1232 19.2942 35.0767 19.1279 33.9148 19.1685C32.7528 19.2091 31.7178 19.448 30.8099 19.8853C29.9071 20.3171 29.1491 20.9225 28.5359 21.7018C27.9225 22.4756 27.4643 23.4122 27.1611 24.5114C26.8633 25.6105 26.7384 26.8476 26.7864 28.2228ZM50.6288 26.6217C50.8264 25.7076 51.1177 24.8809 51.5028 24.1417C51.8877 23.3972 52.3511 22.7593 52.8928 22.228C53.4346 21.6968 54.0471 21.2805 54.7304 20.9791C55.4189 20.6776 56.163 20.5129 56.9625 20.4849C57.6874 20.4596 58.3786 20.5396 59.0361 20.7247C59.6937 20.9099 60.3037 21.1874 60.8663 21.5574C61.4342 21.9271 61.9491 22.3814 62.4108 22.9203C62.8777 23.4536 63.2777 24.0587 63.6109 24.7355C63.944 25.4123 64.2074 26.1529 64.4009 26.9573C64.5998 27.7615 64.7149 28.614 64.7464 29.5148C64.7778 30.4156 64.7224 31.274 64.5802 32.0902C64.4432 32.9061 64.2323 33.6659 63.9473 34.3696C63.6622 35.068 63.3054 35.7022 62.8771 36.2721C62.4538 36.8366 61.9719 37.323 61.4311 37.7315C60.8957 38.1398 60.3065 38.4592 59.6635 38.6898C59.0205 38.9204 58.3365 39.0483 57.6116 39.0736C56.8121 39.1015 56.0584 38.9891 55.3505 38.7363C54.6479 38.4834 54.0078 38.1108 53.4303 37.6187C52.8528 37.1265 52.3461 36.5225 51.9101 35.8066C51.4742 35.0907 51.1258 34.2837 50.865 33.3856L51.2657 44.8586L48.0276 44.9717L47.2012 21.3061L50.4392 21.193L50.6288 26.6217ZM50.7469 30.0037C50.7821 31.011 50.9362 31.9102 51.2093 32.7012C51.4876 33.4866 51.8709 34.1483 52.3593 34.6862C52.8477 35.2242 53.4329 35.6307 54.1149 35.9057C54.7968 36.1754 55.5614 36.2955 56.4089 36.2659C57.2724 36.2357 58.0297 36.0705 58.681 35.7703C59.3374 35.4645 59.88 35.032 60.3087 34.4727C60.7373 33.908 61.0522 33.222 61.2534 32.4145C61.4599 31.6014 61.5448 30.6726 61.5083 29.6279C61.4719 28.5832 61.3224 27.6652 61.06 26.8738C60.8027 26.077 60.4407 25.4146 59.9739 24.8865C59.5072 24.3585 58.9359 23.9675 58.26 23.7136C57.5892 23.4542 56.822 23.3396 55.9586 23.3697C55.1111 23.3993 54.3567 23.5724 53.6953 23.889C53.034 24.2056 52.4784 24.6493 52.0287 25.22C51.5791 25.7907 51.2429 26.4802 51.0203 27.2885C50.8029 28.0912 50.7117 28.9963 50.7469 30.0037ZM77.7901 37.7526C76.4557 38.2048 75.2475 38.4497 74.1655 38.4875C73.286 38.5182 72.5031 38.4095 71.8167 38.1613C71.1358 37.9183 70.5569 37.5409 70.0801 37.0292C69.6031 36.5122 69.231 35.8661 68.9638 35.091C68.7017 34.3103 68.5526 33.403 68.5165 32.369L68.1996 23.2945L65.8011 23.3782L65.7062 20.6599L68.1047 20.5761L67.9629 16.5146L71.2009 16.4015L71.3427 20.4631L77.1792 20.2593L77.2741 22.9776L71.4377 23.1814L71.7548 32.2639C71.7956 33.4312 72.0443 34.287 72.5009 34.8314C72.9626 35.3703 73.6652 35.6232 74.6087 35.5903C74.9764 35.5775 75.412 35.5196 75.9154 35.4166C76.4241 35.3134 77.0164 35.1593 77.6923 34.9543L77.7901 37.7526ZM82.7096 18.0249L79.3116 18.1435L79.172 14.146L82.57 14.0273L82.7096 18.0249ZM83.3164 37.6957L80.0784 37.8088L79.4628 20.1795L82.7008 20.0664L83.3164 37.6957ZM85.1797 28.8012C85.1473 27.8738 85.21 26.9964 85.3679 26.1691C85.5258 25.3417 85.7686 24.5781 86.0964 23.8782C86.4242 23.1784 86.8318 22.5478 87.3191 21.9864C87.8063 21.4197 88.3605 20.9361 88.9815 20.5355C89.6079 20.1348 90.2988 19.8225 91.0541 19.5986C91.8092 19.3695 92.6158 19.2399 93.474 19.2099C94.3375 19.1798 95.1512 19.2528 95.9151 19.4289C96.6842 19.5995 97.3925 19.8629 98.04 20.2192C98.6928 20.5753 99.282 21.019 99.8075 21.5503C100.333 22.0763 100.783 22.6769 101.159 23.3522C101.535 24.0275 101.831 24.7723 102.046 25.5867C102.261 26.401 102.385 27.2719 102.417 28.1993C102.45 29.1267 102.387 30.0041 102.229 30.8315C102.071 31.6588 101.828 32.4251 101.501 33.1303C101.173 33.8302 100.765 34.4608 100.278 35.0221C99.7906 35.5835 99.2338 36.0672 98.6076 36.4733C97.9865 36.8739 97.2983 37.1861 96.543 37.4099C95.7932 37.6389 94.9866 37.7684 94.1231 37.7986C93.265 37.8286 92.4513 37.7556 91.682 37.5797C90.9129 37.4091 90.2019 37.1457 89.5491 36.7896C88.9014 36.428 88.3149 35.9842 87.7896 35.4582C87.2642 34.9322 86.8137 34.3316 86.4379 33.6563C86.0619 32.9757 85.7663 32.2282 85.5511 31.4139C85.3359 30.5996 85.2121 29.7287 85.1797 28.8012ZM88.4177 28.6882C88.4521 29.6742 88.6057 30.5574 88.8784 31.3377C89.1563 32.1125 89.5368 32.7689 90.0199 33.3071C90.5081 33.8397 91.0904 34.2409 91.7669 34.5108C92.4434 34.7807 93.1974 34.9011 94.0289 34.8721C94.8604 34.8431 95.6015 34.6704 96.2522 34.3542C96.9082 34.0378 97.4585 33.597 97.9031 33.0318C98.3474 32.4613 98.6785 31.78 98.8963 30.9879C99.1193 30.1903 99.2136 29.2984 99.1791 28.3124C99.1447 27.3263 98.9885 26.4459 98.7107 25.6711C98.4379 24.8908 98.0601 24.2343 97.5772 23.7015C97.0944 23.1687 96.5147 22.7673 95.8382 22.4974C95.167 22.2274 94.4157 22.1068 93.5842 22.1359C92.7527 22.1649 92.0089 22.3376 91.3529 22.6541C90.6969 22.9705 90.1439 23.4114 89.694 23.9768C89.2495 24.5419 88.9157 25.2233 88.6928 26.0209C88.475 26.813 88.3833 27.7021 88.4177 28.6882ZM108.114 36.8297L104.876 36.9428L104.26 19.3136L107.498 19.2005L107.676 24.2934C107.859 23.4171 108.138 22.6282 108.514 21.9267C108.89 21.2252 109.349 20.6248 109.892 20.1255C110.435 19.6263 111.054 19.2364 111.748 18.956C112.448 18.6754 113.209 18.5208 114.029 18.4921C115.032 18.4571 115.936 18.615 116.744 18.9657C117.551 19.3164 118.242 19.8393 118.816 20.5343C119.395 21.2239 119.846 22.0753 120.17 23.0886C120.498 24.0964 120.685 25.24 120.73 26.5192L121.074 36.3772L117.836 36.4902L117.492 26.6322C117.43 24.8627 117.008 23.5459 116.225 22.682C115.442 21.8182 114.294 21.4127 112.78 21.4655C111.965 21.494 111.239 21.6474 110.603 21.9258C109.972 22.1986 109.442 22.5854 109.011 23.0861C108.585 23.5812 108.265 24.1848 108.049 24.8967C107.839 25.6032 107.75 26.4014 107.781 27.2916L108.114 36.8297ZM130.083 17.9315C131.282 17.8896 132.353 17.9883 133.295 18.2276C134.243 18.4667 135.045 18.8282 135.703 19.3122C136.365 19.7907 136.877 20.3839 137.238 21.0917C137.599 21.7942 137.794 22.5906 137.826 23.4807L134.659 23.5912C134.644 23.1382 134.533 22.7311 134.329 22.37C134.129 22.0035 133.838 21.6961 133.456 21.4479C133.079 21.1943 132.616 21.005 132.067 20.8801C131.519 20.7551 130.89 20.705 130.181 20.7298C129.541 20.7521 128.96 20.8312 128.436 20.9668C127.918 21.1023 127.473 21.286 127.103 21.5177C126.732 21.7441 126.447 22.0129 126.25 22.324C126.053 22.6297 125.96 22.9665 125.973 23.3342C125.983 23.6114 126.05 23.8545 126.175 24.0636C126.299 24.2674 126.466 24.4431 126.673 24.5906C126.881 24.7381 127.123 24.863 127.399 24.9655C127.675 25.0626 127.968 25.1457 128.28 25.2149C128.598 25.2838 128.925 25.3418 129.263 25.3887C129.601 25.4303 129.933 25.472 130.26 25.514L131.45 25.6565C131.943 25.714 132.46 25.784 133.002 25.8665C133.549 25.9434 134.086 26.0554 134.615 26.2024C135.148 26.3439 135.656 26.5316 136.139 26.7655C136.627 26.994 137.059 27.2884 137.435 27.6489C137.81 28.0093 138.114 28.447 138.345 28.9619C138.576 29.4715 138.705 30.0834 138.729 30.7976C138.76 31.6664 138.616 32.4452 138.299 33.1341C137.981 33.8176 137.497 34.4028 136.847 34.8898C136.197 35.3768 135.386 35.7573 134.413 36.0314C133.441 36.3055 132.313 36.465 131.028 36.5099C129.69 36.5566 128.513 36.4669 127.497 36.2409C126.48 36.0149 125.627 35.6605 124.938 35.1776C124.249 34.6947 123.721 34.0914 123.354 33.3678C122.992 32.6386 122.795 31.7943 122.761 30.8349L125.919 30.7246C125.954 31.7373 126.382 32.5042 127.2 33.0253C128.019 33.5411 129.259 33.7699 130.922 33.7118C131.674 33.6856 132.341 33.6063 132.923 33.4739C133.506 33.3415 133.996 33.1589 134.393 32.9262C134.791 32.6936 135.09 32.4136 135.292 32.0863C135.494 31.7591 135.588 31.3903 135.574 30.9798C135.563 30.66 135.492 30.3823 135.361 30.1468C135.23 29.9059 135.052 29.7013 134.827 29.533C134.602 29.3594 134.338 29.2139 134.035 29.0964C133.737 28.9734 133.414 28.8699 133.064 28.7861C132.714 28.7023 132.349 28.6323 131.968 28.5762C131.592 28.5146 131.211 28.4586 130.825 28.408L129.643 28.2492C129.193 28.1902 128.715 28.1215 128.211 28.043C127.706 27.9592 127.204 27.8514 126.703 27.7195C126.207 27.582 125.729 27.4066 125.267 27.1932C124.812 26.9743 124.404 26.7004 124.046 26.3713C123.693 26.0421 123.404 25.644 123.18 25.1768C122.961 24.7095 122.84 24.1561 122.818 23.5165C122.789 22.7063 122.934 21.9675 123.253 21.2999C123.576 20.6322 124.05 20.0554 124.673 19.5693C125.302 19.0831 126.07 18.6987 126.978 18.4162C127.892 18.1335 128.927 17.9719 130.083 17.9315Z" fill="white"/>
<rect x="15.3508" y="50.8042" width="160" height="40" rx="20" transform="rotate(-2 15.3508 50.8042)" fill="#212367"/>
<path opacity="0.85" d="M32.8432 78.2105L32.3057 62.8199L41.716 62.4912L41.7905 64.6239L34.4909 64.8788L34.6506 69.4521L40.587 69.2448L40.6615 71.3775L34.7251 71.5848L34.9539 78.1368L32.8432 78.2105ZM44.5593 77.8013L44.1754 66.808L46.2861 66.7343L46.67 77.7276L44.5593 77.8013ZM46.4468 63.1405C46.4596 63.507 46.3457 63.8191 46.1052 64.077C45.8506 64.3501 45.5401 64.493 45.1736 64.5058C44.8072 64.5186 44.4948 64.3974 44.2364 64.1423C43.9638 63.9023 43.8212 63.5991 43.8084 63.2327C43.7956 62.8662 43.9165 62.5465 44.1711 62.2734C44.4116 62.0155 44.7151 61.8802 45.0815 61.8674C45.4479 61.8546 45.7674 61.9682 46.04 62.2082C46.2984 62.4633 46.434 62.7741 46.4468 63.1405ZM53.4303 73.9034L51.1149 77.5724L48.4985 77.6638L52.0662 72.0358L48.1146 66.6705L50.687 66.5806L53.2754 70.1005L55.612 66.4087L58.1625 66.3196L54.6387 71.946L58.5464 77.3129L55.9739 77.4027L53.4303 73.9034ZM69.8362 72.2958L61.5253 72.5861C61.627 72.9787 61.7642 73.3335 61.9366 73.6503C62.1238 73.9667 62.361 74.2446 62.6482 74.484C63.2827 75.0049 64.0251 75.2504 64.8752 75.2207C66.1212 75.1772 67.0836 74.7914 67.7626 74.0633L69.3107 75.5281C68.2356 76.681 66.7819 77.2895 64.9497 77.3534C63.3667 77.4087 62.0207 76.8981 60.9118 75.8214C59.8024 74.7302 59.2198 73.3857 59.164 71.788C59.1077 70.1756 59.5804 68.7943 60.5822 67.644C61.5987 66.4931 62.8911 65.8903 64.4595 65.8355C65.9985 65.7818 67.2563 66.2882 68.2328 67.3548C69.2234 68.4062 69.7476 69.76 69.8055 71.4164L69.8362 72.2958ZM64.5089 67.8811C63.6734 67.9102 62.9719 68.2062 62.4046 68.769C61.8655 69.3015 61.5438 69.9658 61.4395 70.7619L67.4639 70.5516C67.3033 69.7353 66.9798 69.0862 66.4933 68.6042C65.9912 68.0935 65.3297 67.8524 64.5089 67.8811ZM76.6011 67.5248C75.6043 67.5596 74.8031 67.9398 74.1974 68.6654C73.577 69.3915 73.2848 70.2676 73.3206 71.2936C73.3564 72.3197 73.7091 73.1732 74.3786 73.8543C75.0334 74.5358 75.8592 74.8592 76.856 74.8244C77.838 74.7901 78.6173 74.4107 79.1937 73.6861C79.4892 73.3236 79.7028 72.9272 79.8346 72.497C79.9804 72.0517 80.0444 71.5725 80.0265 71.0594C80.0081 70.5318 79.9108 70.0582 79.7347 69.6388C79.5733 69.2188 79.3326 68.8383 79.0125 68.4973C78.3869 67.8147 77.5831 67.4905 76.6011 67.5248ZM76.3954 65.4187C77.6413 65.3752 78.6595 65.7432 79.4498 66.5228C79.5403 66.593 79.6162 66.6637 79.6774 66.735C79.7386 66.8062 79.8071 66.8772 79.8829 66.9479L79.681 61.1655L81.8137 61.091L82.3511 76.4816L80.3724 76.5507L80.3201 75.0556C80.2646 75.1456 80.209 75.2356 80.1535 75.3256C80.0974 75.4009 80.0264 75.4695 79.9405 75.5312C79.1792 76.4236 78.1316 76.8931 76.7977 76.9397C75.2294 76.9945 73.92 76.4825 72.8698 75.4039C71.8043 74.311 71.2437 72.9658 71.1879 71.3681C71.1316 69.7557 71.597 68.3747 72.5841 67.2248C73.5566 66.0755 74.8271 65.4735 76.3954 65.4187ZM92.6566 62.8477L92.8555 68.5422L96.0875 68.4293C96.8644 68.4022 97.5286 68.0928 98.0803 67.5012C98.6179 66.9248 98.8731 66.2481 98.846 65.4712C98.8193 64.709 98.5175 64.0518 97.9406 63.4996C97.3495 62.9626 96.6655 62.7077 95.8887 62.7348L92.6566 62.8477ZM90.4714 60.7887L95.8142 60.6021C97.192 60.554 98.3815 60.9967 99.3827 61.9304C100.384 62.864 100.909 64.0197 100.957 65.3975C101.005 66.7754 100.562 67.9649 99.6284 68.9661C98.6953 69.9819 97.5398 70.5139 96.162 70.562L92.93 70.6749L93.1196 76.1056L91.0089 76.1793L90.4714 60.7887ZM102.831 64.7597L104.876 64.6883L104.931 66.2714C104.973 66.2112 105.022 66.1508 105.079 66.0901C105.135 66.0148 105.191 65.9468 105.248 65.8861C105.601 65.5068 106.001 65.1847 106.447 64.9197C107.137 64.5286 107.937 64.3173 108.846 64.2855L108.92 66.4182C107.88 66.4546 107.004 66.8153 106.295 67.5005C105.571 68.2009 105.19 69.08 105.154 70.1379L105.347 75.6786L103.215 75.753L102.831 64.7597ZM111.077 75.4785L110.693 64.4852L112.804 64.4115L113.188 75.4048L111.077 75.4785ZM112.965 60.8177C112.978 61.1841 112.864 61.4963 112.623 61.7542C112.369 62.0272 112.058 62.1701 111.692 62.1829C111.325 62.1957 111.013 62.0746 110.754 61.8194C110.482 61.5795 110.339 61.2762 110.326 60.9098C110.314 60.5434 110.435 60.2236 110.689 59.9506C110.93 59.6927 111.233 59.5573 111.6 59.5445C111.966 59.5317 112.285 59.6453 112.558 59.8853C112.816 60.1404 112.952 60.4512 112.965 60.8177ZM120.736 63.8703C122.289 63.8161 123.613 64.3275 124.708 65.4046L123.288 66.9732C122.603 66.2926 121.778 65.9692 120.81 66.003C119.813 66.0378 119.012 66.4107 118.406 67.1216C117.8 67.8472 117.515 68.723 117.551 69.7491C117.586 70.7604 117.932 71.6142 118.587 72.3105C119.241 72.9774 120.067 73.2934 121.064 73.2586C122.031 73.2248 122.832 72.8446 123.467 72.118L124.993 73.5837C123.977 74.7345 122.692 75.337 121.138 75.3913C119.57 75.4461 118.238 74.9349 117.144 73.8578C116.064 72.7655 115.496 71.4205 115.44 69.8228C115.384 68.2104 115.857 66.8291 116.858 65.6787C117.875 64.5279 119.167 63.9251 120.736 63.8703ZM136.912 69.9535L128.602 70.2437C128.703 70.6364 128.84 70.9911 129.013 71.308C129.2 71.6243 129.437 71.9022 129.724 72.1417C130.359 72.6625 131.101 72.9081 131.952 72.8784C133.197 72.8349 134.16 72.4491 134.839 71.7209L136.387 73.1858C135.312 74.3387 133.858 74.9471 132.026 75.0111C130.443 75.0664 129.097 74.5557 127.988 73.4791C126.879 72.3878 126.296 71.0433 126.24 69.4456C126.184 67.8333 126.657 66.4519 127.659 65.3016C128.675 64.1508 129.967 63.548 131.536 63.4932C133.075 63.4394 134.333 63.9459 135.309 65.0124C136.3 66.0638 136.824 67.4177 136.882 69.074L136.912 69.9535ZM131.585 65.5387C130.75 65.5679 130.048 65.8639 129.481 66.4267C128.942 66.9592 128.62 67.6235 128.516 68.4196L134.54 68.2092C134.38 67.393 134.056 66.7439 133.57 66.2619C133.067 65.7511 132.406 65.51 131.585 65.5387Z" fill="white"/>
</svg>
