<svg width="60" height="60" viewBox="0 0 60 60" fill="none" xmlns="http://www.w3.org/2000/svg">
<g clip-path="url(#clip0_239_2408)">
<rect width="60" height="60" rx="15" fill="#212367"/>
<circle opacity="0.5" cx="29.5" cy="29.5" r="17.5" fill="#5069DD"/>
<path d="M29.5 12C39.1652 12 47 19.8348 47 29.5C47 39.1652 39.1652 47 29.5 47C19.8348 47 12 39.1652 12 29.5C12 19.8348 19.8348 12 29.5 12ZM29.5 36.5C29.0359 36.5 28.5908 36.6844 28.2626 37.0126C27.9344 37.3407 27.75 37.7859 27.75 38.25C27.75 38.7141 27.9344 39.1593 28.2626 39.4874C28.5908 39.8156 29.0359 40 29.5 40C29.9641 40 30.4092 39.8156 30.7374 39.4874C31.0656 39.1593 31.25 38.7141 31.25 38.25C31.25 37.7859 31.0656 37.3407 30.7374 37.0126C30.4092 36.6844 29.9641 36.5 29.5 36.5ZM29.5 19.875C27.8175 19.875 26.204 20.5434 25.0143 21.733C23.8246 22.9227 23.1562 24.5363 23.1562 26.2188C23.1562 26.6829 23.3406 27.128 23.6688 27.4562C23.997 27.7844 24.4421 27.9688 24.9062 27.9688C25.3704 27.9688 25.8155 27.7844 26.1437 27.4562C26.4719 27.128 26.6562 26.6829 26.6562 26.2188C26.6568 25.7026 26.7979 25.1963 27.0643 24.7542C27.3307 24.312 27.7125 23.9508 28.1686 23.7091C28.6247 23.4674 29.138 23.3545 29.6535 23.3823C30.1689 23.4102 30.667 23.5778 31.0944 23.8672C31.5219 24.1566 31.8624 24.5569 32.0797 25.0252C32.2969 25.4934 32.3826 26.012 32.3275 26.5252C32.2725 27.0385 32.0788 27.5271 31.7672 27.9386C31.4556 28.3501 31.0378 28.6691 30.5588 28.8612C29.3757 29.3337 27.75 30.5448 27.75 32.5625V33C27.75 33.4641 27.9344 33.9092 28.2626 34.2374C28.5908 34.5656 29.0359 34.75 29.5 34.75C29.9641 34.75 30.4092 34.5656 30.7374 34.2374C31.0656 33.9092 31.25 33.4641 31.25 33C31.25 32.573 31.3375 32.3595 31.7067 32.1775L31.859 32.1075C33.2254 31.5578 34.3581 30.5499 35.0628 29.2566C35.7675 27.9633 36.0004 26.4651 35.7215 25.0189C35.4426 23.5727 34.6693 22.2686 33.5342 21.3301C32.3991 20.3916 30.9728 19.8771 29.5 19.875Z" fill="#5069DD"/>
</g>
<defs>
<clipPath id="clip0_239_2408">
<rect width="60" height="60" fill="white"/>
</clipPath>
</defs>
</svg>
