<svg width="182" height="9" viewBox="0 0 182 9" fill="none" xmlns="http://www.w3.org/2000/svg">
<path fill-rule="evenodd" clip-rule="evenodd" d="M9.21018 5.70717C8.29622 4.32373 6.39892 4.239 5.37937 5.53608L3.82823 7.50947C3.06022 8.48655 1.69373 8.6157 0.776102 7.79792C-0.141526 6.98015 -0.262812 5.52513 0.505203 4.54804L2.05635 2.57465C4.90358 -1.04765 10.2021 -0.811008 12.7544 3.05243L12.8326 3.17077C13.749 4.55793 15.6755 4.57199 16.6097 3.19833C19.2756 -0.721662 24.7633 -0.697952 27.4083 3.22868C28.3226 4.58595 30.263 4.60143 31.2065 3.21401C33.856 -0.681772 39.3457 -0.775672 42.0554 3.13423L42.1932 3.33316C43.1116 4.65823 44.9792 4.63566 45.8691 3.28874C48.4883 -0.675849 53.9944 -0.674117 56.6362 3.24769C57.5455 4.59765 59.4533 4.59953 60.3665 3.24371C63.0049 -0.673069 68.5065 -0.698014 71.1433 3.25446C72.0292 4.58236 73.9406 4.60903 74.8746 3.23556C77.5333 -0.673835 83.0582 -0.705265 85.7295 3.22268C86.6656 4.59927 88.5862 4.57867 89.4868 3.22869C92.1097 -0.703082 97.5796 -0.742745 100.253 3.15063L100.351 3.29424C101.274 4.6386 103.163 4.62491 104.069 3.26729C106.703 -0.681849 112.205 -0.68914 114.854 3.24352C115.766 4.59815 117.673 4.60116 118.591 3.23712C121.233 -0.684529 126.73 -0.693142 129.364 3.25446C130.245 4.57588 132.163 4.60668 133.101 3.22672C135.747 -0.664117 141.266 -0.709956 143.919 3.22874C144.838 4.59304 146.737 4.57794 147.629 3.24152C150.264 -0.709321 155.762 -0.668603 158.392 3.23714C159.31 4.59899 161.24 4.60364 162.163 3.24627C164.845 -0.698091 170.392 -0.635045 173.037 3.29288C173.995 4.71492 175.957 4.74092 176.927 3.41719L178.125 1.78161C178.861 0.777049 180.223 0.598069 181.166 1.38185C182.109 2.16562 182.278 3.61536 181.541 4.61992L180.343 6.2555C177.553 10.0637 172.121 9.84936 169.516 5.9821C168.575 4.58411 166.6 4.58832 165.673 5.95248C163.015 9.86085 157.512 9.84752 154.871 5.92636C153.952 4.56206 152.053 4.57716 151.161 5.91358C148.526 9.86442 143.029 9.8237 140.398 5.91796C139.492 4.57365 137.546 4.55802 136.611 5.93293C133.978 9.80373 128.475 9.89026 125.831 5.92652C124.929 4.57417 123.029 4.5653 122.113 5.92634C119.471 9.84747 113.98 9.86326 111.332 5.93273C110.415 4.57017 108.511 4.57597 107.601 5.93935C104.983 9.86476 99.5216 9.90435 96.8529 6.01728L96.7543 5.87367C95.827 4.52301 93.9295 4.53676 93.0195 5.90075C90.3774 9.86124 84.8715 9.82819 82.2197 5.92889C81.291 4.56332 79.3257 4.55766 78.3844 5.94177C75.7475 9.81907 70.2505 9.88379 67.6105 5.92652C66.7116 4.57905 64.8078 4.56702 63.8878 5.93293C61.2497 9.84938 55.757 9.85922 53.1149 5.93691C52.2002 4.57903 50.3049 4.59389 49.4133 5.94348C46.8215 9.86673 41.3813 9.93247 38.7065 6.07286L38.5686 5.87392C37.6281 4.51676 35.6725 4.51421 34.7163 5.92022C32.0614 9.82398 26.5486 9.86914 23.8871 5.9179C22.9619 4.54439 21.0463 4.54171 20.1194 5.90454C17.4406 9.8436 11.9163 9.80329 9.28836 5.82551L9.21018 5.70717Z" fill="#5069DD"/>
</svg>
