<svg width="240" height="254" viewBox="0 0 240 254" fill="none" xmlns="http://www.w3.org/2000/svg">
<g clip-path="url(#clip0_422_2389)">
<mask id="path-1-inside-1_422_2389" fill="white">
<path d="M0.418213 37C0.418213 31.4772 4.89537 27 10.4182 27H230.418C235.941 27 240.418 31.4772 240.418 37V57C240.418 62.5228 235.941 67 230.418 67H10.4182C4.89537 67 0.418213 62.5228 0.418213 57V37Z"/>
</mask>
<path d="M0.418213 37C0.418213 31.4772 4.89537 27 10.4182 27H230.418C235.941 27 240.418 31.4772 240.418 37V57C240.418 62.5228 235.941 67 230.418 67H10.4182C4.89537 67 0.418213 62.5228 0.418213 57V37Z" fill="#1D1446"/>
<path d="M10.4182 27V28H230.418V27V26H10.4182V27ZM240.418 37H239.418V57H240.418H241.418V37H240.418ZM230.418 67V66H10.4182V67V68H230.418V67ZM0.418213 57H1.41821V37H0.418213H-0.581787V57H0.418213ZM10.4182 67V66C5.44765 66 1.41821 61.9706 1.41821 57H0.418213H-0.581787C-0.581787 63.0751 4.34309 68 10.4182 68V67ZM240.418 57H239.418C239.418 61.9706 235.389 66 230.418 66V67V68C236.493 68 241.418 63.0751 241.418 57H240.418ZM230.418 27V28C235.389 28 239.418 32.0294 239.418 37H240.418H241.418C241.418 30.9249 236.493 26 230.418 26V27ZM10.4182 27V26C4.34308 26 -0.581787 30.9249 -0.581787 37H0.418213H1.41821C1.41821 32.0294 5.44765 28 10.4182 28V27Z" fill="#1D1446" mask="url(#path-1-inside-1_422_2389)"/>
<g clip-path="url(#clip1_422_2389)">
<path d="M217.418 55C221.852 55 225.418 51.4334 225.418 47C225.418 42.5666 221.852 39 217.418 39C212.985 39 209.418 42.5666 209.418 47C209.418 51.4334 212.985 55 217.418 55Z" fill="#2775CA"/>
<path d="M219.618 48.2667C219.618 47.1 218.918 46.7 217.518 46.5334C216.518 46.4 216.318 46.1334 216.318 45.6667C216.318 45.1999 216.652 44.9 217.318 44.9C217.918 44.9 218.252 45.1 218.418 45.6C218.452 45.7 218.552 45.7667 218.652 45.7667H219.185C219.318 45.7667 219.418 45.6667 219.418 45.5334V45.5C219.285 44.7667 218.685 44.2 217.918 44.1334V43.3334C217.918 43.2 217.818 43.1 217.652 43.0667H217.152C217.018 43.0667 216.918 43.1667 216.885 43.3334V44.1C215.885 44.2334 215.252 44.9 215.252 45.7334C215.252 46.8334 215.918 47.2667 217.318 47.4334C218.252 47.6 218.552 47.8 218.552 48.3334C218.552 48.8667 218.085 49.2334 217.452 49.2334C216.585 49.2334 216.285 48.8667 216.185 48.3667C216.152 48.2334 216.052 48.1667 215.952 48.1667H215.385C215.252 48.1667 215.152 48.2667 215.152 48.4V48.4334C215.285 49.2667 215.818 49.8667 216.918 50.0334V50.8334C216.918 50.9667 217.018 51.0667 217.185 51.1H217.685C217.818 51.1 217.918 51 217.952 50.8334V50.0334C218.952 49.8667 219.618 49.1667 219.618 48.2667Z" fill="white"/>
<path d="M215.718 51.7667C213.118 50.8334 211.785 47.9334 212.751 45.3667C213.251 43.9667 214.351 42.9 215.718 42.4C215.851 42.3334 215.918 42.2334 215.918 42.0667V41.6C215.918 41.4667 215.851 41.3667 215.718 41.3334C215.685 41.3334 215.618 41.3334 215.585 41.3667C212.418 42.3667 210.685 45.7334 211.685 48.9C212.285 50.7667 213.718 52.2 215.585 52.8C215.718 52.8667 215.851 52.8 215.885 52.6667C215.918 52.6334 215.918 52.6 215.918 52.5334V52.0667C215.918 51.9667 215.818 51.8334 215.718 51.7667ZM219.251 41.3667C219.118 41.3 218.985 41.3667 218.951 41.5C218.918 41.5334 218.918 41.5667 218.918 41.6334V42.1C218.918 42.2334 219.018 42.3667 219.118 42.4334C221.718 43.3667 223.051 46.2667 222.085 48.8334C221.585 50.2334 220.485 51.3 219.118 51.8C218.985 51.8667 218.918 51.9667 218.918 52.1334V52.6C218.918 52.7334 218.985 52.8334 219.118 52.8667C219.151 52.8667 219.218 52.8667 219.251 52.8334C222.418 51.8334 224.151 48.4667 223.151 45.3C222.551 43.4 221.085 41.9667 219.251 41.3667Z" fill="white"/>
</g>
<path d="M19.2915 41.485L20.5965 42.1L17.7165 48.19H20.6865V45.28H22.1265V48.19H23.9115V49.645H22.1265V52H20.6865V49.645H16.1265V48.19L19.2915 41.485ZM29.1159 42.775C28.8859 42.775 28.6659 42.805 28.4559 42.865C28.2559 42.915 28.0659 43 27.8859 43.12C27.7159 43.23 27.5559 43.365 27.4059 43.525C27.2659 43.675 27.1409 43.845 27.0309 44.035C26.9309 44.235 26.8409 44.44 26.7609 44.65C26.6909 44.86 26.6309 45.08 26.5809 45.31C26.5309 45.54 26.4909 45.775 26.4609 46.015C26.4309 46.245 26.4159 46.49 26.4159 46.75C26.4159 47 26.4309 47.245 26.4609 47.485C26.4909 47.725 26.5309 47.96 26.5809 48.19C26.6309 48.42 26.6909 48.64 26.7609 48.85C26.8409 49.06 26.9309 49.265 27.0309 49.465C27.1409 49.655 27.2659 49.825 27.4059 49.975C27.5559 50.125 27.7159 50.26 27.8859 50.38C28.2459 50.61 28.6559 50.725 29.1159 50.725C29.3559 50.725 29.5759 50.7 29.7759 50.65C29.9859 50.59 30.1759 50.5 30.3459 50.38C30.5259 50.26 30.6859 50.125 30.8259 49.975C30.9759 49.825 31.1009 49.655 31.2009 49.465C31.3109 49.265 31.4059 49.06 31.4859 48.85C31.5659 48.64 31.6309 48.42 31.6809 48.19C31.7309 47.96 31.7659 47.725 31.7859 47.485C31.8059 47.245 31.8159 47 31.8159 46.75C31.8159 46.49 31.8059 46.245 31.7859 46.015C31.7659 45.775 31.7309 45.54 31.6809 45.31C31.6309 45.08 31.5659 44.86 31.4859 44.65C31.4059 44.44 31.3109 44.235 31.2009 44.035C31.1009 43.845 30.9759 43.675 30.8259 43.525C30.6859 43.365 30.5259 43.23 30.3459 43.12C29.9959 42.89 29.5859 42.775 29.1159 42.775ZM29.1159 41.32C29.9159 41.32 30.6209 41.55 31.2309 42.01C31.6209 42.28 31.9509 42.61 32.2209 43C32.5009 43.38 32.7259 43.82 32.8959 44.32C33.0159 44.7 33.1059 45.095 33.1659 45.505C33.2359 45.905 33.2709 46.32 33.2709 46.75C33.2709 47.18 33.2359 47.6 33.1659 48.01C33.1059 48.41 33.0159 48.8 32.8959 49.18C32.7259 49.68 32.5009 50.125 32.2209 50.515C31.9509 50.895 31.6209 51.22 31.2309 51.49C30.6209 51.95 29.9159 52.18 29.1159 52.18C28.3159 52.18 27.6109 51.95 27.0009 51.49C26.6209 51.22 26.2909 50.895 26.0109 50.515C25.7409 50.125 25.5259 49.68 25.3659 49.18C25.2359 48.8 25.1359 48.41 25.0659 48.01C25.0059 47.6 24.9759 47.18 24.9759 46.75C24.9759 46.32 25.0059 45.905 25.0659 45.505C25.1359 45.095 25.2359 44.7 25.3659 44.32C25.5259 43.82 25.7409 43.38 26.0109 43C26.2909 42.61 26.6209 42.28 27.0009 42.01C27.6109 41.55 28.3159 41.32 29.1159 41.32ZM38.6521 42.775C38.4221 42.775 38.2021 42.805 37.9921 42.865C37.7921 42.915 37.6021 43 37.4221 43.12C37.2521 43.23 37.0921 43.365 36.9421 43.525C36.8021 43.675 36.6771 43.845 36.5671 44.035C36.4671 44.235 36.3771 44.44 36.2971 44.65C36.2271 44.86 36.1671 45.08 36.1171 45.31C36.0671 45.54 36.0271 45.775 35.9971 46.015C35.9671 46.245 35.9521 46.49 35.9521 46.75C35.9521 47 35.9671 47.245 35.9971 47.485C36.0271 47.725 36.0671 47.96 36.1171 48.19C36.1671 48.42 36.2271 48.64 36.2971 48.85C36.3771 49.06 36.4671 49.265 36.5671 49.465C36.6771 49.655 36.8021 49.825 36.9421 49.975C37.0921 50.125 37.2521 50.26 37.4221 50.38C37.7821 50.61 38.1921 50.725 38.6521 50.725C38.8921 50.725 39.1121 50.7 39.3121 50.65C39.5221 50.59 39.7121 50.5 39.8821 50.38C40.0621 50.26 40.2221 50.125 40.3621 49.975C40.5121 49.825 40.6371 49.655 40.7371 49.465C40.8471 49.265 40.9421 49.06 41.0221 48.85C41.1021 48.64 41.1671 48.42 41.2171 48.19C41.2671 47.96 41.3021 47.725 41.3221 47.485C41.3421 47.245 41.3521 47 41.3521 46.75C41.3521 46.49 41.3421 46.245 41.3221 46.015C41.3021 45.775 41.2671 45.54 41.2171 45.31C41.1671 45.08 41.1021 44.86 41.0221 44.65C40.9421 44.44 40.8471 44.235 40.7371 44.035C40.6371 43.845 40.5121 43.675 40.3621 43.525C40.2221 43.365 40.0621 43.23 39.8821 43.12C39.5321 42.89 39.1221 42.775 38.6521 42.775ZM38.6521 41.32C39.4521 41.32 40.1571 41.55 40.7671 42.01C41.1571 42.28 41.4871 42.61 41.7571 43C42.0371 43.38 42.2621 43.82 42.4321 44.32C42.5521 44.7 42.6421 45.095 42.7021 45.505C42.7721 45.905 42.8071 46.32 42.8071 46.75C42.8071 47.18 42.7721 47.6 42.7021 48.01C42.6421 48.41 42.5521 48.8 42.4321 49.18C42.2621 49.68 42.0371 50.125 41.7571 50.515C41.4871 50.895 41.1571 51.22 40.7671 51.49C40.1571 51.95 39.4521 52.18 38.6521 52.18C37.8521 52.18 37.1471 51.95 36.5371 51.49C36.1571 51.22 35.8271 50.895 35.5471 50.515C35.2771 50.125 35.0621 49.68 34.9021 49.18C34.7721 48.8 34.6721 48.41 34.6021 48.01C34.5421 47.6 34.5121 47.18 34.5121 46.75C34.5121 46.32 34.5421 45.905 34.6021 45.505C34.6721 45.095 34.7721 44.7 34.9021 44.32C35.0621 43.82 35.2771 43.38 35.5471 43C35.8271 42.61 36.1571 42.28 36.5371 42.01C37.1471 41.55 37.8521 41.32 38.6521 41.32Z" fill="white"/>
<mask id="path-7-inside-2_422_2389" fill="white">
<path d="M0.418213 6C0.418213 2.68629 3.1045 0 6.41821 0H34.4182C37.7319 0 40.4182 2.68629 40.4182 6C40.4182 9.31371 37.7319 12 34.4182 12H6.41821C3.1045 12 0.418213 9.31371 0.418213 6Z"/>
</mask>
<path d="M0.418213 6C0.418213 2.68629 3.1045 0 6.41821 0H34.4182C37.7319 0 40.4182 2.68629 40.4182 6C40.4182 9.31371 37.7319 12 34.4182 12H6.41821C3.1045 12 0.418213 9.31371 0.418213 6Z" fill="#ACA9BB" fill-opacity="0.08"/>
<path d="M6.41821 0V1H34.4182V0V-1H6.41821V0ZM34.4182 12V11H6.41821V12V13H34.4182V12ZM6.41821 12V11C3.65679 11 1.41821 8.76142 1.41821 6H0.418213H-0.581787C-0.581787 9.86599 2.55222 13 6.41821 13V12ZM40.4182 6H39.4182C39.4182 8.76142 37.1796 11 34.4182 11V12V13C38.2842 13 41.4182 9.86599 41.4182 6H40.4182ZM34.4182 0V1C37.1796 1 39.4182 3.23858 39.4182 6H40.4182H41.4182C41.4182 2.13401 38.2842 -1 34.4182 -1V0ZM6.41821 0V-1C2.55222 -1 -0.581787 2.13401 -0.581787 6H0.418213H1.41821C1.41821 3.23858 3.65679 1 6.41821 1V0Z" fill="#1D1446" mask="url(#path-7-inside-2_422_2389)"/>
<g opacity="0.3">
<mask id="path-9-inside-3_422_2389" fill="white">
<path d="M0 114C0 108.477 4.47715 104 10 104H228C233.523 104 238 108.477 238 114V144C238 149.523 233.523 154 228 154H10C4.47715 154 0 149.523 0 144V114Z"/>
</mask>
<path d="M0 114C0 108.477 4.47715 104 10 104H228C233.523 104 238 108.477 238 114V144C238 149.523 233.523 154 228 154H10C4.47715 154 0 149.523 0 144V114Z" fill="#1D1446"/>
<path d="M6.36365 152.779C6.10857 152.674 5.81604 152.795 5.71026 153.05C5.60448 153.305 5.72551 153.597 5.98059 153.703L6.36365 152.779ZM0.296942 148.019C0.402719 148.274 0.695252 148.396 0.950332 148.29C1.20541 148.184 1.32645 147.891 1.22067 147.636L0.296942 148.019ZM0.5 141.5C0.5 141.224 0.276142 141 0 141C-0.276142 141 -0.5 141.224 -0.5 141.5H0.5ZM-0.5 136.5C-0.5 136.776 -0.276142 137 0 137C0.276142 137 0.5 136.776 0.5 136.5H-0.5ZM0.5 131.5C0.5 131.224 0.276142 131 0 131C-0.276142 131 -0.5 131.224 -0.5 131.5H0.5ZM-0.5 126.5C-0.5 126.776 -0.276142 127 0 127C0.276142 127 0.5 126.776 0.5 126.5H-0.5ZM0.5 121.5C0.5 121.224 0.276142 121 0 121C-0.276142 121 -0.5 121.224 -0.5 121.5H0.5ZM-0.5 116.5C-0.5 116.776 -0.276142 117 0 117C0.276142 117 0.5 116.776 0.5 116.5H-0.5ZM1.22067 110.364C1.32645 110.109 1.20541 109.816 0.950332 109.71C0.695253 109.604 0.40272 109.726 0.296943 109.981L1.22067 110.364ZM5.9806 104.297C5.72552 104.403 5.60448 104.695 5.71026 104.95C5.81604 105.205 6.10857 105.326 6.36365 105.221L5.9806 104.297ZM13.0278 104.5C13.3039 104.5 13.5278 104.276 13.5278 104C13.5278 103.724 13.3039 103.5 13.0278 103.5V104.5ZM19.0833 103.5C18.8072 103.5 18.5833 103.724 18.5833 104C18.5833 104.276 18.8072 104.5 19.0833 104.5V103.5ZM25.1389 104.5C25.415 104.5 25.6389 104.276 25.6389 104C25.6389 103.724 25.415 103.5 25.1389 103.5V104.5ZM31.1944 103.5C30.9183 103.5 30.6944 103.724 30.6944 104C30.6944 104.276 30.9183 104.5 31.1944 104.5V103.5ZM37.25 104.5C37.5261 104.5 37.75 104.276 37.75 104C37.75 103.724 37.5261 103.5 37.25 103.5V104.5ZM43.3056 103.5C43.0294 103.5 42.8056 103.724 42.8056 104C42.8056 104.276 43.0294 104.5 43.3056 104.5V103.5ZM49.3611 104.5C49.6372 104.5 49.8611 104.276 49.8611 104C49.8611 103.724 49.6372 103.5 49.3611 103.5V104.5ZM55.4167 103.5C55.1405 103.5 54.9167 103.724 54.9167 104C54.9167 104.276 55.1405 104.5 55.4167 104.5V103.5ZM61.4722 104.5C61.7484 104.5 61.9722 104.276 61.9722 104C61.9722 103.724 61.7484 103.5 61.4722 103.5V104.5ZM67.5278 103.5C67.2516 103.5 67.0278 103.724 67.0278 104C67.0278 104.276 67.2516 104.5 67.5278 104.5V103.5ZM73.5833 104.5C73.8595 104.5 74.0833 104.276 74.0833 104C74.0833 103.724 73.8595 103.5 73.5833 103.5V104.5ZM79.6389 103.5C79.3628 103.5 79.1389 103.724 79.1389 104C79.1389 104.276 79.3628 104.5 79.6389 104.5V103.5ZM85.6945 104.5C85.9706 104.5 86.1945 104.276 86.1945 104C86.1945 103.724 85.9706 103.5 85.6945 103.5V104.5ZM91.75 103.5C91.4739 103.5 91.25 103.724 91.25 104C91.25 104.276 91.4739 104.5 91.75 104.5V103.5ZM97.8056 104.5C98.0817 104.5 98.3056 104.276 98.3056 104C98.3056 103.724 98.0817 103.5 97.8056 103.5V104.5ZM103.861 103.5C103.585 103.5 103.361 103.724 103.361 104C103.361 104.276 103.585 104.5 103.861 104.5V103.5ZM109.917 104.5C110.193 104.5 110.417 104.276 110.417 104C110.417 103.724 110.193 103.5 109.917 103.5V104.5ZM115.972 103.5C115.696 103.5 115.472 103.724 115.472 104C115.472 104.276 115.696 104.5 115.972 104.5V103.5ZM122.028 104.5C122.304 104.5 122.528 104.276 122.528 104C122.528 103.724 122.304 103.5 122.028 103.5V104.5ZM128.083 103.5C127.807 103.5 127.583 103.724 127.583 104C127.583 104.276 127.807 104.5 128.083 104.5V103.5ZM134.139 104.5C134.415 104.5 134.639 104.276 134.639 104C134.639 103.724 134.415 103.5 134.139 103.5V104.5ZM140.194 103.5C139.918 103.5 139.694 103.724 139.694 104C139.694 104.276 139.918 104.5 140.194 104.5V103.5ZM146.25 104.5C146.526 104.5 146.75 104.276 146.75 104C146.75 103.724 146.526 103.5 146.25 103.5V104.5ZM152.306 103.5C152.029 103.5 151.806 103.724 151.806 104C151.806 104.276 152.029 104.5 152.306 104.5V103.5ZM158.361 104.5C158.637 104.5 158.861 104.276 158.861 104C158.861 103.724 158.637 103.5 158.361 103.5V104.5ZM164.417 103.5C164.141 103.5 163.917 103.724 163.917 104C163.917 104.276 164.141 104.5 164.417 104.5V103.5ZM170.472 104.5C170.748 104.5 170.972 104.276 170.972 104C170.972 103.724 170.748 103.5 170.472 103.5V104.5ZM176.528 103.5C176.252 103.5 176.028 103.724 176.028 104C176.028 104.276 176.252 104.5 176.528 104.5V103.5ZM182.583 104.5C182.86 104.5 183.083 104.276 183.083 104C183.083 103.724 182.86 103.5 182.583 103.5V104.5ZM188.639 103.5C188.363 103.5 188.139 103.724 188.139 104C188.139 104.276 188.363 104.5 188.639 104.5V103.5ZM194.694 104.5C194.971 104.5 195.194 104.276 195.194 104C195.194 103.724 194.971 103.5 194.694 103.5V104.5ZM200.75 103.5C200.474 103.5 200.25 103.724 200.25 104C200.25 104.276 200.474 104.5 200.75 104.5V103.5ZM206.806 104.5C207.082 104.5 207.306 104.276 207.306 104C207.306 103.724 207.082 103.5 206.806 103.5V104.5ZM212.861 103.5C212.585 103.5 212.361 103.724 212.361 104C212.361 104.276 212.585 104.5 212.861 104.5V103.5ZM218.917 104.5C219.193 104.5 219.417 104.276 219.417 104C219.417 103.724 219.193 103.5 218.917 103.5V104.5ZM224.972 103.5C224.696 103.5 224.472 103.724 224.472 104C224.472 104.276 224.696 104.5 224.972 104.5V103.5ZM231.636 105.221C231.891 105.326 232.184 105.205 232.29 104.95C232.396 104.695 232.274 104.403 232.019 104.297L231.636 105.221ZM237.703 109.981C237.597 109.726 237.305 109.604 237.05 109.71C236.795 109.816 236.674 110.109 236.779 110.364L237.703 109.981ZM237.5 116.5C237.5 116.776 237.724 117 238 117C238.276 117 238.5 116.776 238.5 116.5H237.5ZM238.5 121.5C238.5 121.224 238.276 121 238 121C237.724 121 237.5 121.224 237.5 121.5H238.5ZM237.5 126.5C237.5 126.776 237.724 127 238 127C238.276 127 238.5 126.776 238.5 126.5H237.5ZM238.5 131.5C238.5 131.224 238.276 131 238 131C237.724 131 237.5 131.224 237.5 131.5H238.5ZM237.5 136.5C237.5 136.776 237.724 137 238 137C238.276 137 238.5 136.776 238.5 136.5H237.5ZM238.5 141.5C238.5 141.224 238.276 141 238 141C237.724 141 237.5 141.224 237.5 141.5H238.5ZM236.779 147.636C236.674 147.891 236.795 148.184 237.05 148.29C237.305 148.396 237.597 148.274 237.703 148.019L236.779 147.636ZM232.019 153.703C232.274 153.597 232.396 153.305 232.29 153.05C232.184 152.795 231.891 152.674 231.636 152.779L232.019 153.703ZM224.972 153.5C224.696 153.5 224.472 153.724 224.472 154C224.472 154.276 224.696 154.5 224.972 154.5V153.5ZM218.917 154.5C219.193 154.5 219.417 154.276 219.417 154C219.417 153.724 219.193 153.5 218.917 153.5V154.5ZM212.861 153.5C212.585 153.5 212.361 153.724 212.361 154C212.361 154.276 212.585 154.5 212.861 154.5V153.5ZM206.806 154.5C207.082 154.5 207.306 154.276 207.306 154C207.306 153.724 207.082 153.5 206.806 153.5V154.5ZM200.75 153.5C200.474 153.5 200.25 153.724 200.25 154C200.25 154.276 200.474 154.5 200.75 154.5V153.5ZM194.694 154.5C194.971 154.5 195.194 154.276 195.194 154C195.194 153.724 194.971 153.5 194.694 153.5V154.5ZM188.639 153.5C188.363 153.5 188.139 153.724 188.139 154C188.139 154.276 188.363 154.5 188.639 154.5V153.5ZM182.583 154.5C182.859 154.5 183.083 154.276 183.083 154C183.083 153.724 182.859 153.5 182.583 153.5V154.5ZM176.528 153.5C176.252 153.5 176.028 153.724 176.028 154C176.028 154.276 176.252 154.5 176.528 154.5V153.5ZM170.472 154.5C170.748 154.5 170.972 154.276 170.972 154C170.972 153.724 170.748 153.5 170.472 153.5V154.5ZM164.417 153.5C164.141 153.5 163.917 153.724 163.917 154C163.917 154.276 164.141 154.5 164.417 154.5V153.5ZM158.361 154.5C158.637 154.5 158.861 154.276 158.861 154C158.861 153.724 158.637 153.5 158.361 153.5V154.5ZM152.306 153.5C152.029 153.5 151.806 153.724 151.806 154C151.806 154.276 152.029 154.5 152.306 154.5V153.5ZM146.25 154.5C146.526 154.5 146.75 154.276 146.75 154C146.75 153.724 146.526 153.5 146.25 153.5V154.5ZM140.194 153.5C139.918 153.5 139.694 153.724 139.694 154C139.694 154.276 139.918 154.5 140.194 154.5V153.5ZM134.139 154.5C134.415 154.5 134.639 154.276 134.639 154C134.639 153.724 134.415 153.5 134.139 153.5V154.5ZM128.083 153.5C127.807 153.5 127.583 153.724 127.583 154C127.583 154.276 127.807 154.5 128.083 154.5V153.5ZM122.028 154.5C122.304 154.5 122.528 154.276 122.528 154C122.528 153.724 122.304 153.5 122.028 153.5V154.5ZM115.972 153.5C115.696 153.5 115.472 153.724 115.472 154C115.472 154.276 115.696 154.5 115.972 154.5V153.5ZM109.917 154.5C110.193 154.5 110.417 154.276 110.417 154C110.417 153.724 110.193 153.5 109.917 153.5V154.5ZM103.861 153.5C103.585 153.5 103.361 153.724 103.361 154C103.361 154.276 103.585 154.5 103.861 154.5V153.5ZM97.8055 154.5C98.0817 154.5 98.3055 154.276 98.3055 154C98.3055 153.724 98.0817 153.5 97.8055 153.5V154.5ZM91.75 153.5C91.4738 153.5 91.25 153.724 91.25 154C91.25 154.276 91.4738 154.5 91.75 154.5V153.5ZM85.6944 154.5C85.9706 154.5 86.1944 154.276 86.1944 154C86.1944 153.724 85.9706 153.5 85.6944 153.5V154.5ZM79.6389 153.5C79.3627 153.5 79.1389 153.724 79.1389 154C79.1389 154.276 79.3627 154.5 79.6389 154.5V153.5ZM73.5833 154.5C73.8595 154.5 74.0833 154.276 74.0833 154C74.0833 153.724 73.8595 153.5 73.5833 153.5V154.5ZM67.5278 153.5C67.2516 153.5 67.0278 153.724 67.0278 154C67.0278 154.276 67.2516 154.5 67.5278 154.5V153.5ZM61.4722 154.5C61.7483 154.5 61.9722 154.276 61.9722 154C61.9722 153.724 61.7483 153.5 61.4722 153.5V154.5ZM55.4166 153.5C55.1405 153.5 54.9166 153.724 54.9166 154C54.9166 154.276 55.1405 154.5 55.4166 154.5V153.5ZM49.3611 154.5C49.6372 154.5 49.8611 154.276 49.8611 154C49.8611 153.724 49.6372 153.5 49.3611 153.5V154.5ZM43.3055 153.5C43.0294 153.5 42.8055 153.724 42.8055 154C42.8055 154.276 43.0294 154.5 43.3055 154.5V153.5ZM37.25 154.5C37.5261 154.5 37.75 154.276 37.75 154C37.75 153.724 37.5261 153.5 37.25 153.5V154.5ZM31.1944 153.5C30.9183 153.5 30.6944 153.724 30.6944 154C30.6944 154.276 30.9183 154.5 31.1944 154.5V153.5ZM25.1389 154.5C25.415 154.5 25.6389 154.276 25.6389 154C25.6389 153.724 25.415 153.5 25.1389 153.5V154.5ZM19.0833 153.5C18.8072 153.5 18.5833 153.724 18.5833 154C18.5833 154.276 18.8072 154.5 19.0833 154.5V153.5ZM13.0277 154.5C13.3039 154.5 13.5277 154.276 13.5277 154C13.5277 153.724 13.3039 153.5 13.0277 153.5V154.5ZM10 154V153.5C8.71096 153.5 7.48308 153.244 6.36365 152.779L6.17212 153.241L5.98059 153.703C7.21932 154.217 8.57721 154.5 10 154.5V154ZM0.758805 147.828L1.22067 147.636C0.756459 146.517 0.5 145.289 0.5 144H0H-0.5C-0.5 145.423 -0.216736 146.781 0.296942 148.019L0.758805 147.828ZM0 144H0.5V141.5H0H-0.5V144H0ZM0 136.5H0.5V131.5H0H-0.5V136.5H0ZM0 126.5H0.5V121.5H0H-0.5V126.5H0ZM0 116.5H0.5V114H0H-0.5V116.5H0ZM0 114H0.5C0.5 112.711 0.756459 111.483 1.22067 110.364L0.758806 110.172L0.296943 109.981C-0.216736 111.219 -0.5 112.577 -0.5 114H0ZM6.17212 104.759L6.36365 105.221C7.48308 104.756 8.71096 104.5 10 104.5V104V103.5C8.57721 103.5 7.21932 103.783 5.9806 104.297L6.17212 104.759ZM10 104V104.5H13.0278V104V103.5H10V104ZM19.0833 104V104.5H25.1389V104V103.5H19.0833V104ZM31.1944 104V104.5H37.25V104V103.5H31.1944V104ZM43.3056 104V104.5H49.3611V104V103.5H43.3056V104ZM55.4167 104V104.5H61.4722V104V103.5H55.4167V104ZM67.5278 104V104.5H73.5833V104V103.5H67.5278V104ZM79.6389 104V104.5H85.6945V104V103.5H79.6389V104ZM91.75 104V104.5H97.8056V104V103.5H91.75V104ZM103.861 104V104.5H109.917V104V103.5H103.861V104ZM115.972 104V104.5H122.028V104V103.5H115.972V104ZM128.083 104V104.5H134.139V104V103.5H128.083V104ZM140.194 104V104.5H146.25V104V103.5H140.194V104ZM152.306 104V104.5H158.361V104V103.5H152.306V104ZM164.417 104V104.5H170.472V104V103.5H164.417V104ZM176.528 104V104.5H182.583V104V103.5H176.528V104ZM188.639 104V104.5H194.694V104V103.5H188.639V104ZM200.75 104V104.5H206.806V104V103.5H200.75V104ZM212.861 104V104.5H218.917V104V103.5H212.861V104ZM224.972 104V104.5H228V104V103.5H224.972V104ZM228 104V104.5C229.289 104.5 230.517 104.756 231.636 105.221L231.828 104.759L232.019 104.297C230.781 103.783 229.423 103.5 228 103.5V104ZM237.241 110.172L236.779 110.364C237.244 111.483 237.5 112.711 237.5 114H238H238.5C238.5 112.577 238.217 111.219 237.703 109.981L237.241 110.172ZM238 114H237.5V116.5H238H238.5V114H238ZM238 121.5H237.5V126.5H238H238.5V121.5H238ZM238 131.5H237.5V136.5H238H238.5V131.5H238ZM238 141.5H237.5V144H238H238.5V141.5H238ZM238 144H237.5C237.5 145.289 237.244 146.517 236.779 147.636L237.241 147.828L237.703 148.019C238.217 146.781 238.5 145.423 238.5 144H238ZM231.828 153.241L231.636 152.779C230.517 153.244 229.289 153.5 228 153.5V154V154.5C229.423 154.5 230.781 154.217 232.019 153.703L231.828 153.241ZM228 154V153.5H224.972V154V154.5H228V154ZM218.917 154V153.5H212.861V154V154.5H218.917V154ZM206.806 154V153.5H200.75V154V154.5H206.806V154ZM194.694 154V153.5H188.639V154V154.5H194.694V154ZM182.583 154V153.5H176.528V154V154.5H182.583V154ZM170.472 154V153.5H164.417V154V154.5H170.472V154ZM158.361 154V153.5H152.306V154V154.5H158.361V154ZM146.25 154V153.5H140.194V154V154.5H146.25V154ZM134.139 154V153.5H128.083V154V154.5H134.139V154ZM122.028 154V153.5H115.972V154V154.5H122.028V154ZM109.917 154V153.5H103.861V154V154.5H109.917V154ZM97.8055 154V153.5H91.75V154V154.5H97.8055V154ZM85.6944 154V153.5H79.6389V154V154.5H85.6944V154ZM73.5833 154V153.5H67.5278V154V154.5H73.5833V154ZM61.4722 154V153.5H55.4166V154V154.5H61.4722V154ZM49.3611 154V153.5H43.3055V154V154.5H49.3611V154ZM37.25 154V153.5H31.1944V154V154.5H37.25V154ZM25.1389 154V153.5H19.0833V154V154.5H25.1389V154ZM13.0277 154V153.5H10V154V154.5H13.0277V154ZM6.55517 152.317C6.04501 152.106 5.45995 152.348 5.24839 152.858C5.03684 153.368 5.27891 153.953 5.78907 154.165L6.55517 152.317ZM-0.164921 148.211C0.0466336 148.721 0.631699 148.963 1.14186 148.752C1.65202 148.54 1.89409 147.955 1.68253 147.445L-0.164921 148.211ZM1 141.5C1 140.948 0.552285 140.5 0 140.5C-0.552285 140.5 -1 140.948 -1 141.5H1ZM-1 136.5C-1 137.052 -0.552285 137.5 0 137.5C0.552285 137.5 1 137.052 1 136.5H-1ZM1 131.5C1 130.948 0.552285 130.5 0 130.5C-0.552285 130.5 -1 130.948 -1 131.5H1ZM-1 126.5C-1 127.052 -0.552285 127.5 0 127.5C0.552285 127.5 1 127.052 1 126.5H-1ZM1 121.5C1 120.948 0.552285 120.5 0 120.5C-0.552285 120.5 -1 120.948 -1 121.5H1ZM-1 116.5C-1 117.052 -0.552285 117.5 0 117.5C0.552285 117.5 1 117.052 1 116.5H-1ZM1.68253 110.555C1.89409 110.045 1.65202 109.46 1.14186 109.248C0.6317 109.037 0.0466344 109.279 -0.16492 109.789L1.68253 110.555ZM5.78907 103.835C5.27891 104.047 5.03684 104.632 5.2484 105.142C5.45995 105.652 6.04502 105.894 6.55518 105.683L5.78907 103.835ZM13.0278 105C13.5801 105 14.0278 104.552 14.0278 104C14.0278 103.448 13.5801 103 13.0278 103V105ZM19.0833 103C18.531 103 18.0833 103.448 18.0833 104C18.0833 104.552 18.531 105 19.0833 105V103ZM25.1389 105C25.6912 105 26.1389 104.552 26.1389 104C26.1389 103.448 25.6912 103 25.1389 103V105ZM31.1944 103C30.6422 103 30.1944 103.448 30.1944 104C30.1944 104.552 30.6422 105 31.1944 105V103ZM37.25 105C37.8023 105 38.25 104.552 38.25 104C38.25 103.448 37.8023 103 37.25 103V105ZM43.3056 103C42.7533 103 42.3056 103.448 42.3056 104C42.3056 104.552 42.7533 105 43.3056 105V103ZM49.3611 105C49.9134 105 50.3611 104.552 50.3611 104C50.3611 103.448 49.9134 103 49.3611 103V105ZM55.4167 103C54.8644 103 54.4167 103.448 54.4167 104C54.4167 104.552 54.8644 105 55.4167 105V103ZM61.4722 105C62.0245 105 62.4722 104.552 62.4722 104C62.4722 103.448 62.0245 103 61.4722 103V105ZM67.5278 103C66.9755 103 66.5278 103.448 66.5278 104C66.5278 104.552 66.9755 105 67.5278 105V103ZM73.5833 105C74.1356 105 74.5833 104.552 74.5833 104C74.5833 103.448 74.1356 103 73.5833 103V105ZM79.6389 103C79.0866 103 78.6389 103.448 78.6389 104C78.6389 104.552 79.0866 105 79.6389 105V103ZM85.6945 105C86.2467 105 86.6945 104.552 86.6945 104C86.6945 103.448 86.2467 103 85.6945 103V105ZM91.75 103C91.1977 103 90.75 103.448 90.75 104C90.75 104.552 91.1977 105 91.75 105V103ZM97.8056 105C98.3578 105 98.8056 104.552 98.8056 104C98.8056 103.448 98.3578 103 97.8056 103V105ZM103.861 103C103.309 103 102.861 103.448 102.861 104C102.861 104.552 103.309 105 103.861 105V103ZM109.917 105C110.469 105 110.917 104.552 110.917 104C110.917 103.448 110.469 103 109.917 103V105ZM115.972 103C115.42 103 114.972 103.448 114.972 104C114.972 104.552 115.42 105 115.972 105V103ZM122.028 105C122.58 105 123.028 104.552 123.028 104C123.028 103.448 122.58 103 122.028 103V105ZM128.083 103C127.531 103 127.083 103.448 127.083 104C127.083 104.552 127.531 105 128.083 105V103ZM134.139 105C134.691 105 135.139 104.552 135.139 104C135.139 103.448 134.691 103 134.139 103V105ZM140.194 103C139.642 103 139.194 103.448 139.194 104C139.194 104.552 139.642 105 140.194 105V103ZM146.25 105C146.802 105 147.25 104.552 147.25 104C147.25 103.448 146.802 103 146.25 103V105ZM152.306 103C151.753 103 151.306 103.448 151.306 104C151.306 104.552 151.753 105 152.306 105V103ZM158.361 105C158.913 105 159.361 104.552 159.361 104C159.361 103.448 158.913 103 158.361 103V105ZM164.417 103C163.864 103 163.417 103.448 163.417 104C163.417 104.552 163.864 105 164.417 105V103ZM170.472 105C171.025 105 171.472 104.552 171.472 104C171.472 103.448 171.025 103 170.472 103V105ZM176.528 103C175.976 103 175.528 103.448 175.528 104C175.528 104.552 175.976 105 176.528 105V103ZM182.583 105C183.136 105 183.583 104.552 183.583 104C183.583 103.448 183.136 103 182.583 103V105ZM188.639 103C188.087 103 187.639 103.448 187.639 104C187.639 104.552 188.087 105 188.639 105V103ZM194.694 105C195.247 105 195.694 104.552 195.694 104C195.694 103.448 195.247 103 194.694 103V105ZM200.75 103C200.198 103 199.75 103.448 199.75 104C199.75 104.552 200.198 105 200.75 105V103ZM206.806 105C207.358 105 207.806 104.552 207.806 104C207.806 103.448 207.358 103 206.806 103V105ZM212.861 103C212.309 103 211.861 103.448 211.861 104C211.861 104.552 212.309 105 212.861 105V103ZM218.917 105C219.469 105 219.917 104.552 219.917 104C219.917 103.448 219.469 103 218.917 103V105ZM224.972 103C224.42 103 223.972 103.448 223.972 104C223.972 104.552 224.42 105 224.972 105V103ZM231.445 105.683C231.955 105.894 232.54 105.652 232.752 105.142C232.963 104.632 232.721 104.047 232.211 103.835L231.445 105.683ZM238.165 109.789C237.953 109.279 237.368 109.037 236.858 109.248C236.348 109.46 236.106 110.045 236.317 110.555L238.165 109.789ZM237 116.5C237 117.052 237.448 117.5 238 117.5C238.552 117.5 239 117.052 239 116.5H237ZM239 121.5C239 120.948 238.552 120.5 238 120.5C237.448 120.5 237 120.948 237 121.5H239ZM237 126.5C237 127.052 237.448 127.5 238 127.5C238.552 127.5 239 127.052 239 126.5H237ZM239 131.5C239 130.948 238.552 130.5 238 130.5C237.448 130.5 237 130.948 237 131.5H239ZM237 136.5C237 137.052 237.448 137.5 238 137.5C238.552 137.5 239 137.052 239 136.5H237ZM239 141.5C239 140.948 238.552 140.5 238 140.5C237.448 140.5 237 140.948 237 141.5H239ZM236.317 147.445C236.106 147.955 236.348 148.54 236.858 148.752C237.368 148.963 237.953 148.721 238.165 148.211L236.317 147.445ZM232.211 154.165C232.721 153.953 232.963 153.368 232.752 152.858C232.54 152.348 231.955 152.106 231.445 152.317L232.211 154.165ZM224.972 153C224.42 153 223.972 153.448 223.972 154C223.972 154.552 224.42 155 224.972 155V153ZM218.917 155C219.469 155 219.917 154.552 219.917 154C219.917 153.448 219.469 153 218.917 153V155ZM212.861 153C212.309 153 211.861 153.448 211.861 154C211.861 154.552 212.309 155 212.861 155V153ZM206.806 155C207.358 155 207.806 154.552 207.806 154C207.806 153.448 207.358 153 206.806 153V155ZM200.75 153C200.198 153 199.75 153.448 199.75 154C199.75 154.552 200.198 155 200.75 155V153ZM194.694 155C195.247 155 195.694 154.552 195.694 154C195.694 153.448 195.247 153 194.694 153V155ZM188.639 153C188.087 153 187.639 153.448 187.639 154C187.639 154.552 188.087 155 188.639 155V153ZM182.583 155C183.136 155 183.583 154.552 183.583 154C183.583 153.448 183.136 153 182.583 153V155ZM176.528 153C175.975 153 175.528 153.448 175.528 154C175.528 154.552 175.975 155 176.528 155V153ZM170.472 155C171.025 155 171.472 154.552 171.472 154C171.472 153.448 171.025 153 170.472 153V155ZM164.417 153C163.864 153 163.417 153.448 163.417 154C163.417 154.552 163.864 155 164.417 155V153ZM158.361 155C158.913 155 159.361 154.552 159.361 154C159.361 153.448 158.913 153 158.361 153V155ZM152.306 153C151.753 153 151.306 153.448 151.306 154C151.306 154.552 151.753 155 152.306 155V153ZM146.25 155C146.802 155 147.25 154.552 147.25 154C147.25 153.448 146.802 153 146.25 153V155ZM140.194 153C139.642 153 139.194 153.448 139.194 154C139.194 154.552 139.642 155 140.194 155V153ZM134.139 155C134.691 155 135.139 154.552 135.139 154C135.139 153.448 134.691 153 134.139 153V155ZM128.083 153C127.531 153 127.083 153.448 127.083 154C127.083 154.552 127.531 155 128.083 155V153ZM122.028 155C122.58 155 123.028 154.552 123.028 154C123.028 153.448 122.58 153 122.028 153V155ZM115.972 153C115.42 153 114.972 153.448 114.972 154C114.972 154.552 115.42 155 115.972 155V153ZM109.917 155C110.469 155 110.917 154.552 110.917 154C110.917 153.448 110.469 153 109.917 153V155ZM103.861 153C103.309 153 102.861 153.448 102.861 154C102.861 154.552 103.309 155 103.861 155V153ZM97.8055 155C98.3578 155 98.8055 154.552 98.8055 154C98.8055 153.448 98.3578 153 97.8055 153V155ZM91.75 153C91.1977 153 90.75 153.448 90.75 154C90.75 154.552 91.1977 155 91.75 155V153ZM85.6944 155C86.2467 155 86.6944 154.552 86.6944 154C86.6944 153.448 86.2467 153 85.6944 153V155ZM79.6389 153C79.0866 153 78.6389 153.448 78.6389 154C78.6389 154.552 79.0866 155 79.6389 155V153ZM73.5833 155C74.1356 155 74.5833 154.552 74.5833 154C74.5833 153.448 74.1356 153 73.5833 153V155ZM67.5278 153C66.9755 153 66.5278 153.448 66.5278 154C66.5278 154.552 66.9755 155 67.5278 155V153ZM61.4722 155C62.0245 155 62.4722 154.552 62.4722 154C62.4722 153.448 62.0245 153 61.4722 153V155ZM55.4166 153C54.8643 153 54.4166 153.448 54.4166 154C54.4166 154.552 54.8643 155 55.4166 155V153ZM49.3611 155C49.9134 155 50.3611 154.552 50.3611 154C50.3611 153.448 49.9134 153 49.3611 153V155ZM43.3055 153C42.7532 153 42.3055 153.448 42.3055 154C42.3055 154.552 42.7532 155 43.3055 155V153ZM37.25 155C37.8023 155 38.25 154.552 38.25 154C38.25 153.448 37.8023 153 37.25 153V155ZM31.1944 153C30.6421 153 30.1944 153.448 30.1944 154C30.1944 154.552 30.6421 155 31.1944 155V153ZM25.1389 155C25.6911 155 26.1389 154.552 26.1389 154C26.1389 153.448 25.6911 153 25.1389 153V155ZM19.0833 153C18.531 153 18.0833 153.448 18.0833 154C18.0833 154.552 18.531 155 19.0833 155V153ZM13.0277 155C13.58 155 14.0277 154.552 14.0277 154C14.0277 153.448 13.58 153 13.0277 153V155ZM10 154V153C8.77783 153 7.61496 152.757 6.55517 152.317L6.17212 153.241L5.78907 154.165C7.08744 154.703 8.51033 155 10 155V154ZM0.758805 147.828L1.68253 147.445C1.24306 146.385 1 145.222 1 144H0H-1C-1 145.49 -0.703334 146.913 -0.164921 148.211L0.758805 147.828ZM0 144H1V141.5H0H-1V144H0ZM0 136.5H1V131.5H0H-1V136.5H0ZM0 126.5H1V121.5H0H-1V126.5H0ZM0 116.5H1V114H0H-1V116.5H0ZM0 114H1C1 112.778 1.24306 111.615 1.68253 110.555L0.758806 110.172L-0.16492 109.789C-0.703334 111.087 -1 112.51 -1 114H0ZM6.17212 104.759L6.55518 105.683C7.61496 105.243 8.77783 105 10 105V104V103C8.51034 103 7.08744 103.297 5.78907 103.835L6.17212 104.759ZM10 104V105H13.0278V104V103H10V104ZM19.0833 104V105H25.1389V104V103H19.0833V104ZM31.1944 104V105H37.25V104V103H31.1944V104ZM43.3056 104V105H49.3611V104V103H43.3056V104ZM55.4167 104V105H61.4722V104V103H55.4167V104ZM67.5278 104V105H73.5833V104V103H67.5278V104ZM79.6389 104V105H85.6945V104V103H79.6389V104ZM91.75 104V105H97.8056V104V103H91.75V104ZM103.861 104V105H109.917V104V103H103.861V104ZM115.972 104V105H122.028V104V103H115.972V104ZM128.083 104V105H134.139V104V103H128.083V104ZM140.194 104V105H146.25V104V103H140.194V104ZM152.306 104V105H158.361V104V103H152.306V104ZM164.417 104V105H170.472V104V103H164.417V104ZM176.528 104V105H182.583V104V103H176.528V104ZM188.639 104V105H194.694V104V103H188.639V104ZM200.75 104V105H206.806V104V103H200.75V104ZM212.861 104V105H218.917V104V103H212.861V104ZM224.972 104V105H228V104V103H224.972V104ZM228 104V105C229.222 105 230.385 105.243 231.445 105.683L231.828 104.759L232.211 103.835C230.913 103.297 229.49 103 228 103V104ZM237.241 110.172L236.317 110.555C236.757 111.615 237 112.778 237 114H238H239C239 112.51 238.703 111.087 238.165 109.789L237.241 110.172ZM238 114H237V116.5H238H239V114H238ZM238 121.5H237V126.5H238H239V121.5H238ZM238 131.5H237V136.5H238H239V131.5H238ZM238 141.5H237V144H238H239V141.5H238ZM238 144H237C237 145.222 236.757 146.385 236.317 147.445L237.241 147.828L238.165 148.211C238.703 146.913 239 145.49 239 144H238ZM231.828 153.241L231.445 152.317C230.385 152.757 229.222 153 228 153V154V155C229.49 155 230.913 154.703 232.211 154.165L231.828 153.241ZM228 154V153H224.972V154V155H228V154ZM218.917 154V153H212.861V154V155H218.917V154ZM206.806 154V153H200.75V154V155H206.806V154ZM194.694 154V153H188.639V154V155H194.694V154ZM182.583 154V153H176.528V154V155H182.583V154ZM170.472 154V153H164.417V154V155H170.472V154ZM158.361 154V153H152.306V154V155H158.361V154ZM146.25 154V153H140.194V154V155H146.25V154ZM134.139 154V153H128.083V154V155H134.139V154ZM122.028 154V153H115.972V154V155H122.028V154ZM109.917 154V153H103.861V154V155H109.917V154ZM97.8055 154V153H91.75V154V155H97.8055V154ZM85.6944 154V153H79.6389V154V155H85.6944V154ZM73.5833 154V153H67.5278V154V155H73.5833V154ZM61.4722 154V153H55.4166V154V155H61.4722V154ZM49.3611 154V153H43.3055V154V155H49.3611V154ZM37.25 154V153H31.1944V154V155H37.25V154ZM25.1389 154V153H19.0833V154V155H25.1389V154ZM13.0277 154V153H10V154V155H13.0277V154Z" fill="#9A94B8" mask="url(#path-9-inside-3_422_2389)"/>
</g>
<mask id="path-11-inside-4_422_2389" fill="white">
<path d="M0.698035 97.908C0.794422 92.386 5.34903 87.9877 10.871 88.0841L228.838 91.8887C234.36 91.9851 238.758 96.5397 238.662 102.062L238.138 132.057C238.042 137.579 233.487 141.977 227.965 141.881L9.99841 138.076C4.47641 137.98 0.0780754 133.425 0.174462 127.903L0.698035 97.908Z"/>
</mask>
<path d="M0.698035 97.908C0.794422 92.386 5.34903 87.9877 10.871 88.0841L228.838 91.8887C234.36 91.9851 238.758 96.5397 238.662 102.062L238.138 132.057C238.042 137.579 233.487 141.977 227.965 141.881L9.99841 138.076C4.47641 137.98 0.0780754 133.425 0.174462 127.903L0.698035 97.908Z" fill="#1D1446"/>
<path d="M10.871 88.0841L10.8536 89.0839L228.82 92.8885L228.838 91.8887L228.855 90.8888L10.8885 87.0842L10.871 88.0841ZM238.662 102.062L237.662 102.044L237.138 132.04L238.138 132.057L239.138 132.075L239.662 102.079L238.662 102.062ZM227.965 141.881L227.983 140.881L10.0159 137.077L9.99841 138.076L9.98096 139.076L227.948 142.881L227.965 141.881ZM0.174462 127.903L1.17431 127.921L1.69788 97.9255L0.698035 97.908L-0.301813 97.8906L-0.825385 127.886L0.174462 127.903ZM9.99841 138.076L10.0159 137.077C5.04606 136.99 1.08756 132.891 1.17431 127.921L0.174462 127.903L-0.825385 127.886C-0.931411 133.96 3.90676 138.97 9.98096 139.076L9.99841 138.076ZM238.138 132.057L237.138 132.04C237.052 137.009 232.952 140.968 227.983 140.881L227.965 141.881L227.948 142.881C234.022 142.987 239.032 138.149 239.138 132.075L238.138 132.057ZM228.838 91.8887L228.82 92.8885C233.79 92.9753 237.749 97.0744 237.662 102.044L238.662 102.062L239.662 102.079C239.768 96.0049 234.929 90.9949 228.855 90.8888L228.838 91.8887ZM10.871 88.0841L10.8885 87.0842C4.81428 86.9782 -0.195787 91.8164 -0.301813 97.8906L0.698035 97.908L1.69788 97.9255C1.78463 92.9557 5.88378 88.9972 10.8536 89.0839L10.871 88.0841Z" fill="#ACA9BB" fill-opacity="0.08" mask="url(#path-11-inside-4_422_2389)"/>
<path d="M16.4079 117.185L16.5545 108.786L21.6777 108.876L21.6574 110.04L17.686 109.97L17.6443 112.358L20.8238 112.413L20.8037 113.565L17.6242 113.51L17.58 116.041L21.5514 116.111L21.5311 117.275L16.4079 117.185ZM28.5482 117.397L27.3844 117.377L27.4403 114.173C27.4498 113.629 27.3173 113.195 27.043 112.87C26.7606 112.545 26.4034 112.379 25.9715 112.371C25.5396 112.364 25.1808 112.518 24.8953 112.833C24.6016 113.156 24.4501 113.585 24.4407 114.121L24.3848 117.324L23.221 117.304L23.3257 111.305L24.4415 111.324L24.4294 112.02C24.4461 111.981 24.4666 111.949 24.491 111.925C24.5236 111.894 24.5521 111.866 24.5765 111.843C24.9841 111.41 25.5039 111.199 26.1358 111.21C26.8717 111.223 27.4708 111.505 27.9333 112.058C28.1605 112.334 28.3309 112.657 28.4444 113.027C28.5581 113.389 28.6111 113.79 28.6035 114.23L28.5482 117.397ZM34.6225 111.502L35.7024 111.521L35.5977 117.52L34.5178 117.501L34.5321 116.685C34.5074 116.725 34.4787 116.764 34.446 116.804C34.4213 116.843 34.3927 116.879 34.3601 116.91C33.9037 117.391 33.3035 117.624 32.5596 117.611C31.7037 117.596 31.0052 117.28 30.4639 116.662C29.9147 116.037 29.6477 115.288 29.6629 114.416C29.6783 113.536 29.9712 112.797 30.5418 112.199C31.1043 111.601 31.8135 111.309 32.6694 111.324C33.4132 111.337 34.0048 111.599 34.4439 112.111C34.4833 112.144 34.5147 112.18 34.538 112.221C34.5613 112.261 34.5847 112.298 34.6081 112.33L34.6225 111.502ZM32.7212 112.477C32.1773 112.468 31.73 112.652 31.3794 113.03C31.0207 113.408 30.8365 113.876 30.8268 114.436C30.817 114.996 30.9847 115.471 31.33 115.861C31.6672 116.251 32.1078 116.451 32.6517 116.461C33.1876 116.47 33.6229 116.285 33.9576 115.907C34.1289 115.718 34.2566 115.508 34.3406 115.278C34.4328 115.039 34.4813 114.78 34.4862 114.5C34.4912 114.212 34.4518 113.952 34.3678 113.718C34.2919 113.485 34.1716 113.271 34.007 113.076C33.6857 112.686 33.2572 112.486 32.7212 112.477ZM40.1914 112.608C39.6555 112.598 39.2202 112.783 38.8856 113.161C38.7142 113.35 38.5826 113.56 38.4905 113.79C38.4065 114.021 38.3619 114.28 38.3569 114.568C38.352 114.848 38.3875 115.108 38.4633 115.35C38.5472 115.583 38.6715 115.797 38.8361 115.992C39.1574 116.382 39.586 116.582 40.1219 116.591C40.6658 116.6 41.1131 116.416 41.4637 116.038C41.8144 115.66 41.9946 115.191 42.0044 114.631C42.0141 114.072 41.8504 113.597 41.5132 113.207C41.1759 112.817 40.7353 112.617 40.1914 112.608ZM40.2715 111.457C41.1274 111.472 41.83 111.788 42.3793 112.406C42.9286 113.023 43.1955 113.772 43.1802 114.652C43.165 115.524 42.872 116.263 42.3014 116.869C41.7308 117.467 41.0176 117.759 40.1618 117.744C39.4259 117.731 38.8382 117.477 38.3988 116.981C38.3754 116.949 38.348 116.912 38.3167 116.871C38.2854 116.831 38.2541 116.79 38.2228 116.75L38.2086 117.566L37.1407 117.547L37.2873 109.148L38.4512 109.169L38.3961 112.324C38.4288 112.285 38.4614 112.249 38.494 112.218C38.5266 112.178 38.5633 112.139 38.604 112.1C39.0358 111.659 39.5916 111.445 40.2715 111.457ZM44.4816 109.274L45.6454 109.294L45.4988 117.693L44.335 117.673L44.4816 109.274ZM52.5567 115.296L48.0214 115.217C48.0656 115.433 48.1302 115.631 48.2151 115.808C48.308 115.986 48.4293 116.144 48.5789 116.282C48.9097 116.584 49.307 116.739 49.771 116.747C50.4509 116.759 50.9861 116.577 51.3768 116.199L52.1782 117.041C51.5597 117.639 50.7505 117.929 49.7507 117.911C48.8868 117.896 48.1682 117.58 47.5949 116.961C47.0217 116.335 46.7428 115.586 46.758 114.714C46.7733 113.835 47.0703 113.096 47.6488 112.498C48.2353 111.9 48.9565 111.608 49.8124 111.623C50.6523 111.638 51.3229 111.95 51.8244 112.559C52.334 113.16 52.5809 113.912 52.5651 114.816L52.5567 115.296ZM49.7809 112.739C49.325 112.731 48.9345 112.872 48.6094 113.163C48.3005 113.437 48.1063 113.79 48.0268 114.221L51.3143 114.278C51.2501 113.829 51.0924 113.466 50.8412 113.189C50.5823 112.897 50.2289 112.747 49.7809 112.739ZM56.9312 109.491L58.083 109.511L62.3042 115.898L62.4143 109.587L63.5662 109.607L63.4196 118.006L62.2677 117.986L58.0465 111.599L57.9364 117.91L56.7846 117.89L56.9312 109.491ZM67.9768 113.105C67.4329 113.095 66.9857 113.275 66.6352 113.645C66.4638 113.834 66.3321 114.048 66.2399 114.286C66.1479 114.517 66.0994 114.772 66.0945 115.052C66.0849 115.604 66.2486 116.079 66.5857 116.477C66.9231 116.859 67.3638 117.054 67.9077 117.064C68.4516 117.073 68.8988 116.893 69.2493 116.523C69.4287 116.334 69.5603 116.125 69.6444 115.894C69.7366 115.656 69.7851 115.396 69.79 115.116C69.7998 114.557 69.636 114.082 69.2988 113.692C68.9614 113.31 68.5207 113.114 67.9768 113.105ZM67.9971 111.941C68.853 111.956 69.5636 112.272 70.1289 112.89C70.6862 113.508 70.9572 114.257 70.9418 115.137C70.9266 116.008 70.6296 116.747 70.051 117.353C69.4645 117.951 68.7433 118.243 67.8874 118.228C67.0315 118.213 66.3209 117.896 65.7556 117.278C65.1985 116.653 64.9275 115.904 64.9427 115.032C64.9581 114.152 65.255 113.413 65.8335 112.815C66.4201 112.217 67.1413 111.926 67.9971 111.941ZM73.6462 110.947L73.5968 113.779L75.4925 113.812C75.8845 113.819 76.2229 113.685 76.5077 113.409C76.7924 113.142 76.9382 112.813 76.945 112.421C76.9519 112.029 76.8177 111.691 76.5427 111.406C76.2675 111.129 75.9339 110.987 75.5419 110.98L73.6462 110.947ZM72.5147 109.763L75.5623 109.816C76.2742 109.829 76.8777 110.091 77.3728 110.604C77.8679 111.117 78.1093 111.729 78.0968 112.441C78.0878 112.961 77.9397 113.422 77.6526 113.826C77.3574 114.236 76.9841 114.534 76.5329 114.718L77.9953 118.26L76.7475 118.238L75.3762 114.974L73.5765 114.943L73.5199 118.182L72.3681 118.162L72.5147 109.763ZM84.7432 115.858L80.2079 115.778C80.2521 115.995 80.3167 116.192 80.4016 116.37C80.4945 116.548 80.6158 116.706 80.7654 116.844C81.0962 117.146 81.4935 117.301 81.9575 117.309C82.6374 117.321 83.1726 117.138 83.5633 116.761L84.3647 117.603C83.7462 118.201 82.937 118.49 81.9372 118.473C81.0733 118.458 80.3547 118.141 79.7814 117.523C79.2082 116.897 78.9293 116.148 78.9445 115.276C78.9598 114.396 79.2568 113.657 79.8353 113.059C80.4218 112.462 81.143 112.17 81.9989 112.185C82.8388 112.2 83.5094 112.512 84.0109 113.12C84.5205 113.721 84.7674 114.474 84.7516 115.378L84.7432 115.858ZM81.9674 113.301C81.5115 113.293 81.121 113.434 80.7959 113.724C80.487 113.999 80.2928 114.352 80.2133 114.782L83.5008 114.84C83.4366 114.391 83.2789 114.028 83.0277 113.751C82.7688 113.459 82.4154 113.309 81.9674 113.301ZM85.7896 118.396L85.9362 109.997L87.1 110.018L87.0141 114.937L89.4338 112.459L91.0055 112.486L88.6347 114.917L91.0448 118.488L89.617 118.463L87.8276 115.779L86.9844 116.641L86.9534 118.417L85.7896 118.396ZM92.4166 110.639L93.5804 110.659L93.5477 112.531L95.2755 112.561L95.2554 113.713L93.5276 113.683L93.4872 115.998C93.4805 116.382 93.6068 116.708 93.8662 116.977C94.1255 117.246 94.4472 117.383 94.8311 117.39L95.1791 117.396L95.1587 118.56L94.8108 118.554C94.1149 118.542 93.5233 118.283 93.0361 117.779C92.5488 117.274 92.3112 116.674 92.3234 115.978L92.3638 113.662L91.3559 113.645L91.3761 112.493L92.3839 112.51L92.4166 110.639ZM100.748 111.42L100.693 114.528L102.457 114.559C102.881 114.566 103.252 114.416 103.569 114.11C103.878 113.811 104.037 113.45 104.044 113.026C104.051 112.61 103.906 112.243 103.607 111.926C103.301 111.617 102.935 111.458 102.511 111.451L100.748 111.42ZM99.6161 110.236L102.532 110.287C103.284 110.3 103.919 110.575 104.438 111.113C104.956 111.65 105.209 112.294 105.196 113.046C105.183 113.798 104.908 114.433 104.37 114.952C103.833 115.479 103.189 115.735 102.437 115.722L100.673 115.692L100.621 118.655L99.4695 118.635L99.6161 110.236ZM106.235 112.752L107.351 112.772L107.336 113.636C107.36 113.604 107.389 113.572 107.421 113.541C107.454 113.502 107.487 113.466 107.519 113.435C107.723 113.238 107.95 113.074 108.2 112.943C108.587 112.749 109.029 112.657 109.525 112.666L109.505 113.829C108.937 113.819 108.45 113.991 108.043 114.344C107.629 114.705 107.397 115.173 107.347 115.748L107.294 118.772L106.13 118.751L106.235 112.752ZM113.075 113.892C112.531 113.882 112.084 114.062 111.734 114.432C111.562 114.621 111.431 114.835 111.339 115.074C111.246 115.304 111.198 115.559 111.193 115.839C111.184 116.391 111.347 116.866 111.684 117.264C112.022 117.646 112.462 117.842 113.006 117.851C113.55 117.861 113.997 117.68 114.348 117.31C114.527 117.122 114.659 116.912 114.743 116.681C114.835 116.443 114.884 116.184 114.889 115.904C114.898 115.344 114.735 114.869 114.397 114.479C114.06 114.097 113.619 113.901 113.075 113.892ZM113.096 112.728C113.952 112.743 114.662 113.059 115.227 113.677C115.785 114.295 116.056 115.044 116.04 115.924C116.025 116.796 115.728 117.535 115.15 118.141C114.563 118.738 113.842 119.03 112.986 119.015C112.13 119 111.42 118.684 110.854 118.066C110.297 117.44 110.026 116.691 110.041 115.819C110.057 114.939 110.354 114.2 110.932 113.602C111.519 113.004 112.24 112.713 113.096 112.728ZM117.772 111.081L118.936 111.102L118.903 112.973L120.631 113.003L120.611 114.155L118.883 114.125L118.843 116.441C118.836 116.825 118.962 117.151 119.222 117.42C119.481 117.688 119.803 117.826 120.187 117.832L120.535 117.839L120.514 119.002L120.166 118.996C119.47 118.984 118.879 118.726 118.392 118.221C117.904 117.717 117.667 117.116 117.679 116.42L117.719 114.105L116.711 114.087L116.732 112.935L117.739 112.953L117.772 111.081ZM127.1 116.597L122.565 116.518C122.609 116.735 122.674 116.932 122.758 117.109C122.851 117.287 122.973 117.445 123.122 117.584C123.453 117.885 123.85 118.04 124.314 118.049C124.994 118.06 125.529 117.878 125.92 117.5L126.722 118.343C126.103 118.94 125.294 119.23 124.294 119.212C123.43 119.197 122.712 118.881 122.138 118.263C121.565 117.636 121.286 116.887 121.301 116.016C121.317 115.136 121.614 114.397 122.192 113.799C122.779 113.201 123.5 112.91 124.356 112.924C125.196 112.939 125.866 113.251 126.368 113.86C126.877 114.461 127.124 115.213 127.108 116.117L127.1 116.597ZM124.324 114.04C123.868 114.032 123.478 114.173 123.153 114.464C122.844 114.738 122.65 115.091 122.57 115.522L125.858 115.579C125.793 115.13 125.636 114.767 125.385 114.491C125.126 114.198 124.772 114.048 124.324 114.04ZM130.917 113.039C131.765 113.054 132.472 113.37 133.037 113.988L132.219 114.802C131.865 114.412 131.425 114.212 130.897 114.203C130.353 114.193 129.906 114.374 129.555 114.743C129.205 115.121 129.024 115.59 129.015 116.15C129.005 116.702 129.169 117.177 129.506 117.575C129.843 117.957 130.284 118.153 130.828 118.162C131.356 118.171 131.803 117.987 132.17 117.61L132.959 118.451C132.373 119.049 131.655 119.341 130.807 119.326C129.952 119.311 129.241 118.995 128.676 118.377C128.119 117.751 127.848 117.002 127.863 116.13C127.878 115.25 128.175 114.511 128.754 113.913C129.34 113.316 130.061 113.024 130.917 113.039ZM134.609 111.375L135.773 111.395L135.741 113.267L137.468 113.297L137.448 114.449L135.72 114.419L135.68 116.735C135.673 117.119 135.8 117.445 136.059 117.713C136.318 117.982 136.64 118.12 137.024 118.126L137.372 118.132L137.352 119.296L137.004 119.29C136.308 119.278 135.716 119.02 135.229 118.515C134.742 118.01 134.504 117.41 134.516 116.714L134.557 114.399L133.549 114.381L133.569 113.229L134.577 113.247L134.609 111.375ZM138.577 119.318L138.681 113.319L139.833 113.339L139.729 119.338L138.577 119.318ZM140.023 111.386C140.02 111.586 139.949 111.752 139.811 111.886C139.664 112.027 139.491 112.096 139.291 112.093C139.091 112.089 138.924 112.015 138.791 111.868C138.649 111.73 138.58 111.56 138.584 111.361C138.587 111.161 138.662 110.99 138.809 110.848C138.947 110.715 139.116 110.65 139.316 110.653C139.516 110.657 139.687 110.728 139.828 110.866C139.962 111.013 140.027 111.186 140.023 111.386ZM144.149 114.434C143.605 114.425 143.158 114.605 142.807 114.975C142.636 115.164 142.504 115.378 142.412 115.616C142.32 115.846 142.271 116.102 142.267 116.382C142.257 116.933 142.421 117.408 142.758 117.806C143.095 118.188 143.536 118.384 144.08 118.394C144.624 118.403 145.071 118.223 145.421 117.853C145.601 117.664 145.732 117.454 145.816 117.224C145.909 116.985 145.957 116.726 145.962 116.446C145.972 115.886 145.808 115.411 145.471 115.021C145.133 114.639 144.693 114.444 144.149 114.434ZM144.169 113.27C145.025 113.285 145.736 113.602 146.301 114.22C146.858 114.837 147.129 115.586 147.114 116.466C147.099 117.338 146.802 118.077 146.223 118.683C145.636 119.281 144.915 119.572 144.059 119.557C143.204 119.542 142.493 119.226 141.928 118.608C141.37 117.982 141.099 117.233 141.115 116.361C141.13 115.482 141.427 114.743 142.006 114.145C142.592 113.547 143.313 113.255 144.169 113.27ZM153.603 119.58L152.44 119.56L152.495 116.356C152.505 115.812 152.372 115.378 152.098 115.053C151.816 114.728 151.459 114.562 151.027 114.554C150.595 114.547 150.236 114.7 149.95 115.015C149.657 115.338 149.505 115.768 149.496 116.304L149.44 119.507L148.276 119.487L148.381 113.488L149.497 113.507L149.485 114.203C149.501 114.163 149.522 114.132 149.546 114.108C149.579 114.077 149.607 114.049 149.632 114.026C150.039 113.593 150.559 113.382 151.191 113.393C151.927 113.406 152.526 113.688 152.988 114.24C153.216 114.516 153.386 114.839 153.5 115.209C153.613 115.571 153.666 115.972 153.659 116.412L153.603 119.58Z" fill="#9A94B8"/>
<rect y="174.152" width="183" height="32" rx="16" fill="#112540"/>
<g clip-path="url(#clip2_422_2389)">
<circle cx="16" cy="190.152" r="12" fill="#09AF8E"/>
<path d="M15.7898 196.085C15.7169 196.084 15.6493 196.078 15.587 196.067C15.5247 196.055 15.4624 196.039 15.4003 196.018C14.0022 195.538 12.8973 194.675 12.0856 193.431C11.2738 192.186 10.8803 190.855 10.9051 189.437L10.9552 186.567C10.9596 186.314 11.0392 186.087 11.194 185.887C11.3487 185.687 11.5465 185.544 11.7872 185.457L15.5605 184.156C15.7072 184.107 15.8534 184.085 15.9992 184.087C16.145 184.09 16.2904 184.118 16.4353 184.171L20.1609 185.603C20.3989 185.698 20.5917 185.849 20.7394 186.054C20.8871 186.259 20.9585 186.488 20.9537 186.741L20.9036 189.612C20.8788 191.029 20.4391 192.346 19.5844 193.562C18.7297 194.778 17.5954 195.601 16.1814 196.032C16.1186 196.051 16.0558 196.065 15.9932 196.074C15.9305 196.083 15.8627 196.087 15.7898 196.085Z" fill="white"/>
</g>
<path d="M35.196 187.416V190.524H36.96C37.384 190.524 37.752 190.368 38.064 190.056C38.368 189.752 38.52 189.388 38.52 188.964C38.52 188.548 38.368 188.184 38.064 187.872C37.752 187.568 37.384 187.416 36.96 187.416H35.196ZM34.044 186.252H36.96C37.712 186.252 38.352 186.516 38.88 187.044C39.408 187.572 39.672 188.212 39.672 188.964C39.672 189.716 39.408 190.356 38.88 190.884C38.352 191.42 37.712 191.688 36.96 191.688H35.196V194.652H34.044V186.252ZM40.7058 188.652H41.8218V189.516C41.8458 189.484 41.8738 189.452 41.9058 189.42C41.9378 189.38 41.9698 189.344 42.0018 189.312C42.2018 189.112 42.4258 188.944 42.6738 188.808C43.0578 188.608 43.4978 188.508 43.9938 188.508V189.672C43.4258 189.672 42.9418 189.852 42.5418 190.212C42.1338 190.58 41.9098 191.052 41.8698 191.628V194.652H40.7058V188.652ZM47.5651 189.672C47.0211 189.672 46.5771 189.86 46.2331 190.236C46.0651 190.428 45.9371 190.644 45.8491 190.884C45.7611 191.116 45.7171 191.372 45.7171 191.652C45.7171 192.204 45.8891 192.676 46.2331 193.068C46.5771 193.444 47.0211 193.632 47.5651 193.632C48.1091 193.632 48.5531 193.444 48.8971 193.068C49.0731 192.876 49.2011 192.664 49.2811 192.432C49.3691 192.192 49.4131 191.932 49.4131 191.652C49.4131 191.092 49.2411 190.62 48.8971 190.236C48.5531 189.86 48.1091 189.672 47.5651 189.672ZM47.5651 188.508C48.4211 188.508 49.1371 188.812 49.7131 189.42C50.2811 190.028 50.5651 190.772 50.5651 191.652C50.5651 192.524 50.2811 193.268 49.7131 193.884C49.1371 194.492 48.4211 194.796 47.5651 194.796C46.7091 194.796 45.9931 194.492 45.4171 193.884C44.8491 193.268 44.5651 192.524 44.5651 191.652C44.5651 190.772 44.8491 190.028 45.4171 189.42C45.9931 188.812 46.7091 188.508 47.5651 188.508ZM52.212 186.78H53.376V188.652H55.104V189.804H53.376V192.12C53.376 192.504 53.508 192.828 53.772 193.092C54.036 193.356 54.36 193.488 54.744 193.488H55.092V194.652H54.744C54.048 194.652 53.452 194.404 52.956 193.908C52.46 193.412 52.212 192.816 52.212 192.12V189.804H51.204V188.652H52.212V186.78ZM61.6348 192.132H57.0988C57.1468 192.348 57.2148 192.544 57.3028 192.72C57.3988 192.896 57.5228 193.052 57.6748 193.188C58.0108 193.484 58.4108 193.632 58.8748 193.632C59.5548 193.632 60.0868 193.44 60.4708 193.056L61.2868 193.884C60.6788 194.492 59.8748 194.796 58.8748 194.796C58.0108 194.796 57.2868 194.492 56.7028 193.884C56.1188 193.268 55.8268 192.524 55.8268 191.652C55.8268 190.772 56.1108 190.028 56.6788 189.42C57.2548 188.812 57.9708 188.508 58.8268 188.508C59.6668 188.508 60.3428 188.808 60.8548 189.408C61.3748 190 61.6348 190.748 61.6348 191.652V192.132ZM58.8148 189.624C58.3588 189.624 57.9708 189.772 57.6508 190.068C57.3468 190.348 57.1588 190.704 57.0868 191.136H60.3748C60.3028 190.688 60.1388 190.328 59.8828 190.056C59.6188 189.768 59.2628 189.624 58.8148 189.624ZM65.3893 188.508C66.2373 188.508 66.9493 188.812 67.5253 189.42L66.7213 190.248C66.3613 189.864 65.9173 189.672 65.3893 189.672C64.8453 189.672 64.4013 189.86 64.0573 190.236C63.7133 190.62 63.5413 191.092 63.5413 191.652C63.5413 192.204 63.7133 192.676 64.0573 193.068C64.4013 193.444 64.8453 193.632 65.3893 193.632C65.9173 193.632 66.3613 193.44 66.7213 193.056L67.5253 193.884C66.9493 194.492 66.2373 194.796 65.3893 194.796C64.5333 194.796 63.8173 194.492 63.2413 193.884C62.6733 193.268 62.3893 192.524 62.3893 191.652C62.3893 190.772 62.6733 190.028 63.2413 189.42C63.8173 188.812 64.5333 188.508 65.3893 188.508ZM69.0518 186.78H70.2158V188.652H71.9438V189.804H70.2158V192.12C70.2158 192.504 70.3478 192.828 70.6118 193.092C70.8758 193.356 71.1998 193.488 71.5838 193.488H71.9318V194.652H71.5838C70.8878 194.652 70.2918 194.404 69.7958 193.908C69.2998 193.412 69.0518 192.816 69.0518 192.12V189.804H68.0438V188.652H69.0518V186.78ZM73.1573 194.652V188.652H74.3093V194.652H73.1573ZM74.4653 186.696C74.4653 186.896 74.3973 187.064 74.2613 187.2C74.1173 187.344 73.9453 187.416 73.7453 187.416C73.5453 187.416 73.3773 187.344 73.2413 187.2C73.0973 187.064 73.0253 186.896 73.0253 186.696C73.0253 186.496 73.0973 186.324 73.2413 186.18C73.3773 186.044 73.5453 185.976 73.7453 185.976C73.9453 185.976 74.1173 186.044 74.2613 186.18C74.3973 186.324 74.4653 186.496 74.4653 186.696ZM78.6432 189.672C78.0992 189.672 77.6552 189.86 77.3112 190.236C77.1432 190.428 77.0152 190.644 76.9272 190.884C76.8392 191.116 76.7952 191.372 76.7952 191.652C76.7952 192.204 76.9672 192.676 77.3112 193.068C77.6552 193.444 78.0992 193.632 78.6432 193.632C79.1872 193.632 79.6312 193.444 79.9752 193.068C80.1512 192.876 80.2792 192.664 80.3592 192.432C80.4472 192.192 80.4912 191.932 80.4912 191.652C80.4912 191.092 80.3192 190.62 79.9752 190.236C79.6312 189.86 79.1872 189.672 78.6432 189.672ZM78.6432 188.508C79.4992 188.508 80.2152 188.812 80.7912 189.42C81.3592 190.028 81.6432 190.772 81.6432 191.652C81.6432 192.524 81.3592 193.268 80.7912 193.884C80.2152 194.492 79.4992 194.796 78.6432 194.796C77.7872 194.796 77.0712 194.492 76.4952 193.884C75.9272 193.268 75.6432 192.524 75.6432 191.652C75.6432 190.772 75.9272 190.028 76.4952 189.42C77.0712 188.812 77.7872 188.508 78.6432 188.508ZM88.1861 194.652H87.0221V191.448C87.0221 190.904 86.8821 190.472 86.6021 190.152C86.3141 189.832 85.9541 189.672 85.5221 189.672C85.0901 189.672 84.7341 189.832 84.4541 190.152C84.1661 190.48 84.0221 190.912 84.0221 191.448V194.652H82.8581V188.652H83.9741V189.348C83.9901 189.308 84.0101 189.276 84.0341 189.252C84.0661 189.22 84.0941 189.192 84.1181 189.168C84.5181 188.728 85.0341 188.508 85.6661 188.508C86.4021 188.508 87.0061 188.78 87.4781 189.324C87.7101 189.596 87.8861 189.916 88.0061 190.284C88.1261 190.644 88.1861 191.044 88.1861 191.484V194.652ZM95.2027 186.06H95.9467V187.224H95.2027C94.9387 187.224 94.7187 187.312 94.5427 187.488C94.3587 187.672 94.2667 187.896 94.2667 188.16V188.652H95.9467V189.804H94.2667V194.652H93.1027V189.804H92.0467V188.652H93.1027V188.16C93.1027 187.584 93.3067 187.088 93.7147 186.672C94.1307 186.264 94.6267 186.06 95.2027 186.06ZM96.78 188.652H97.896V189.516C97.92 189.484 97.948 189.452 97.98 189.42C98.012 189.38 98.044 189.344 98.076 189.312C98.276 189.112 98.5 188.944 98.748 188.808C99.132 188.608 99.572 188.508 100.068 188.508V189.672C99.5 189.672 99.016 189.852 98.616 190.212C98.208 190.58 97.984 191.052 97.944 191.628V194.652H96.78V188.652ZM103.639 189.672C103.095 189.672 102.651 189.86 102.307 190.236C102.139 190.428 102.011 190.644 101.923 190.884C101.835 191.116 101.791 191.372 101.791 191.652C101.791 192.204 101.963 192.676 102.307 193.068C102.651 193.444 103.095 193.632 103.639 193.632C104.183 193.632 104.627 193.444 104.971 193.068C105.147 192.876 105.275 192.664 105.355 192.432C105.443 192.192 105.487 191.932 105.487 191.652C105.487 191.092 105.315 190.62 104.971 190.236C104.627 189.86 104.183 189.672 103.639 189.672ZM103.639 188.508C104.495 188.508 105.211 188.812 105.787 189.42C106.355 190.028 106.639 190.772 106.639 191.652C106.639 192.524 106.355 193.268 105.787 193.884C105.211 194.492 104.495 194.796 103.639 194.796C102.783 194.796 102.067 194.492 101.491 193.884C100.923 193.268 100.639 192.524 100.639 191.652C100.639 190.772 100.923 190.028 101.491 189.42C102.067 188.812 102.783 188.508 103.639 188.508ZM117.022 194.652H115.858V191.448C115.858 190.896 115.726 190.464 115.462 190.152C115.198 189.832 114.858 189.672 114.442 189.672C114.026 189.672 113.686 189.832 113.422 190.152C113.15 190.464 113.014 190.896 113.014 191.448V194.652H111.862V191.448C111.862 190.896 111.726 190.464 111.454 190.152C111.19 189.832 110.85 189.672 110.434 189.672C110.018 189.672 109.678 189.832 109.414 190.152C109.15 190.464 109.018 190.896 109.018 191.448V194.652H107.854V188.652H108.97V189.3C108.986 189.284 109.002 189.268 109.018 189.252C109.034 189.228 109.046 189.208 109.054 189.192C109.438 188.736 109.946 188.508 110.578 188.508C111.298 188.508 111.886 188.78 112.342 189.324C112.406 189.396 112.462 189.476 112.51 189.564C112.558 189.644 112.602 189.728 112.642 189.816C112.674 189.72 112.714 189.632 112.762 189.552C112.81 189.472 112.862 189.396 112.918 189.324C113.318 188.78 113.874 188.508 114.586 188.508C115.298 188.508 115.886 188.78 116.35 189.324C116.574 189.596 116.742 189.912 116.854 190.272C116.966 190.632 117.022 191.036 117.022 191.484V194.652ZM121.354 186.252H122.518V194.652H121.354V186.252ZM124.157 194.652V188.652H125.309V194.652H124.157ZM125.465 186.696C125.465 186.896 125.397 187.064 125.261 187.2C125.117 187.344 124.945 187.416 124.745 187.416C124.545 187.416 124.377 187.344 124.241 187.2C124.097 187.064 124.025 186.896 124.025 186.696C124.025 186.496 124.097 186.324 124.241 186.18C124.377 186.044 124.545 185.976 124.745 185.976C124.945 185.976 125.117 186.044 125.261 186.18C125.397 186.324 125.465 186.496 125.465 186.696ZM131.551 188.652H132.631V197.052H131.467V193.896C131.435 193.936 131.399 193.976 131.359 194.016C131.327 194.056 131.291 194.092 131.251 194.124C130.827 194.572 130.275 194.796 129.595 194.796C128.739 194.796 128.035 194.492 127.483 193.884C126.923 193.268 126.643 192.524 126.643 191.652C126.643 190.772 126.923 190.028 127.483 189.42C128.035 188.812 128.739 188.508 129.595 188.508C130.315 188.508 130.895 188.744 131.335 189.216C131.375 189.248 131.411 189.288 131.443 189.336C131.483 189.376 131.519 189.42 131.551 189.468V188.652ZM129.667 193.644C130.203 193.644 130.635 193.452 130.963 193.068C131.131 192.876 131.255 192.664 131.335 192.432C131.423 192.192 131.467 191.932 131.467 191.652C131.467 191.364 131.423 191.104 131.335 190.872C131.255 190.64 131.131 190.428 130.963 190.236C130.635 189.852 130.203 189.66 129.667 189.66C129.123 189.66 128.679 189.852 128.335 190.236C127.983 190.62 127.807 191.092 127.807 191.652C127.807 192.212 127.983 192.684 128.335 193.068C128.679 193.452 129.123 193.644 129.667 193.644ZM133.949 188.652H135.113V191.856C135.113 192.392 135.257 192.824 135.545 193.152C135.825 193.472 136.185 193.632 136.625 193.632C137.049 193.632 137.401 193.472 137.681 193.152C137.969 192.824 138.113 192.392 138.113 191.856V188.652H139.277V191.82C139.277 192.7 139.021 193.416 138.509 193.968C137.989 194.52 137.361 194.796 136.625 194.796C135.873 194.796 135.237 194.52 134.717 193.968C134.205 193.416 133.949 192.7 133.949 191.82V188.652ZM140.786 194.652V188.652H141.938V194.652H140.786ZM142.094 186.696C142.094 186.896 142.026 187.064 141.89 187.2C141.746 187.344 141.574 187.416 141.374 187.416C141.174 187.416 141.006 187.344 140.87 187.2C140.726 187.064 140.654 186.896 140.654 186.696C140.654 186.496 140.726 186.324 140.87 186.18C141.006 186.044 141.174 185.976 141.374 185.976C141.574 185.976 141.746 186.044 141.89 186.18C142.026 186.324 142.094 186.496 142.094 186.696ZM146.296 189.66C145.752 189.66 145.308 189.852 144.964 190.236C144.612 190.62 144.436 191.092 144.436 191.652C144.436 192.212 144.612 192.684 144.964 193.068C145.308 193.452 145.752 193.644 146.296 193.644C146.832 193.644 147.264 193.452 147.592 193.068C147.76 192.876 147.884 192.664 147.964 192.432C148.052 192.192 148.096 191.932 148.096 191.652C148.096 191.364 148.052 191.104 147.964 190.872C147.884 190.64 147.76 190.428 147.592 190.236C147.264 189.852 146.832 189.66 146.296 189.66ZM146.224 188.508C146.904 188.508 147.452 188.728 147.868 189.168C147.916 189.208 147.956 189.248 147.988 189.288C148.02 189.328 148.056 189.368 148.096 189.408V186.252H149.26V194.652H148.18V193.836C148.148 193.884 148.116 193.932 148.084 193.98C148.052 194.02 148.012 194.056 147.964 194.088C147.532 194.56 146.952 194.796 146.224 194.796C145.368 194.796 144.664 194.492 144.112 193.884C143.552 193.268 143.272 192.524 143.272 191.652C143.272 190.772 143.552 190.028 144.112 189.42C144.664 188.812 145.368 188.508 146.224 188.508ZM155.375 188.652H156.455V194.652H155.375V193.836C155.351 193.876 155.323 193.916 155.291 193.956C155.267 193.996 155.239 194.032 155.207 194.064C154.759 194.552 154.163 194.796 153.419 194.796C152.563 194.796 151.859 194.492 151.307 193.884C150.747 193.268 150.467 192.524 150.467 191.652C150.467 190.772 150.747 190.028 151.307 189.42C151.859 188.812 152.563 188.508 153.419 188.508C154.163 188.508 154.759 188.76 155.207 189.264C155.247 189.296 155.279 189.332 155.303 189.372C155.327 189.412 155.351 189.448 155.375 189.48V188.652ZM153.491 189.66C152.947 189.66 152.503 189.852 152.159 190.236C151.807 190.62 151.631 191.092 151.631 191.652C151.631 192.212 151.807 192.684 152.159 193.068C152.503 193.452 152.947 193.644 153.491 193.644C154.027 193.644 154.459 193.452 154.787 193.068C154.955 192.876 155.079 192.664 155.159 192.432C155.247 192.192 155.291 191.932 155.291 191.652C155.291 191.364 155.247 191.104 155.159 190.872C155.079 190.64 154.955 190.428 154.787 190.236C154.459 189.852 154.027 189.66 153.491 189.66ZM158.431 186.78H159.595V188.652H161.323V189.804H159.595V192.12C159.595 192.504 159.727 192.828 159.991 193.092C160.255 193.356 160.579 193.488 160.963 193.488H161.311V194.652H160.963C160.267 194.652 159.671 194.404 159.175 193.908C158.679 193.412 158.431 192.816 158.431 192.12V189.804H157.423V188.652H158.431V186.78ZM162.536 194.652V188.652H163.688V194.652H162.536ZM163.844 186.696C163.844 186.896 163.776 187.064 163.64 187.2C163.496 187.344 163.324 187.416 163.124 187.416C162.924 187.416 162.756 187.344 162.62 187.2C162.476 187.064 162.404 186.896 162.404 186.696C162.404 186.496 162.476 186.324 162.62 186.18C162.756 186.044 162.924 185.976 163.124 185.976C163.324 185.976 163.496 186.044 163.64 186.18C163.776 186.324 163.844 186.496 163.844 186.696ZM168.022 189.672C167.478 189.672 167.034 189.86 166.69 190.236C166.522 190.428 166.394 190.644 166.306 190.884C166.218 191.116 166.174 191.372 166.174 191.652C166.174 192.204 166.346 192.676 166.69 193.068C167.034 193.444 167.478 193.632 168.022 193.632C168.566 193.632 169.01 193.444 169.354 193.068C169.53 192.876 169.658 192.664 169.738 192.432C169.826 192.192 169.87 191.932 169.87 191.652C169.87 191.092 169.698 190.62 169.354 190.236C169.01 189.86 168.566 189.672 168.022 189.672ZM168.022 188.508C168.878 188.508 169.594 188.812 170.17 189.42C170.738 190.028 171.022 190.772 171.022 191.652C171.022 192.524 170.738 193.268 170.17 193.884C169.594 194.492 168.878 194.796 168.022 194.796C167.166 194.796 166.45 194.492 165.874 193.884C165.306 193.268 165.022 192.524 165.022 191.652C165.022 190.772 165.306 190.028 165.874 189.42C166.45 188.812 167.166 188.508 168.022 188.508ZM177.565 194.652H176.401V191.448C176.401 190.904 176.261 190.472 175.981 190.152C175.693 189.832 175.333 189.672 174.901 189.672C174.469 189.672 174.113 189.832 173.833 190.152C173.545 190.48 173.401 190.912 173.401 191.448V194.652H172.237V188.652H173.353V189.348C173.369 189.308 173.389 189.276 173.413 189.252C173.445 189.22 173.473 189.192 173.497 189.168C173.897 188.728 174.413 188.508 175.045 188.508C175.781 188.508 176.385 188.78 176.857 189.324C177.089 189.596 177.265 189.916 177.385 190.284C177.505 190.644 177.565 191.044 177.565 191.484V194.652Z" fill="white"/>
<rect y="217" width="103" height="32" rx="16" fill="#3C1B68"/>
<g clip-path="url(#clip3_422_2389)">
<circle cx="16" cy="233" r="12" fill="#8E3ECD"/>
<path d="M13.2303 227C13.3527 227 13.4701 227.049 13.5567 227.135C13.6433 227.222 13.6919 227.339 13.6919 227.462V227.617C13.9032 227.616 14.1327 227.615 14.3805 227.615H17.6189C17.8667 227.615 18.0962 227.616 18.3075 227.617V227.462C18.3075 227.339 18.3561 227.222 18.4427 227.135C18.5293 227.049 18.6467 227 18.7691 227C18.8915 227 19.0089 227.049 19.0954 227.135C19.182 227.222 19.2306 227.339 19.2306 227.462V227.647C19.238 227.647 19.2452 227.647 19.2522 227.649C19.6891 227.682 20.0577 227.753 20.3944 227.914C20.9387 228.173 21.3873 228.598 21.6763 229.127C21.8529 229.454 21.9286 229.812 21.9649 230.23C22 230.638 22 231.142 22 231.775V234.84C22 235.473 22 235.978 21.9649 236.385C21.928 236.804 21.8529 237.161 21.6763 237.488C21.3874 238.017 20.9388 238.442 20.3944 238.701C20.0577 238.863 19.6891 238.934 19.2522 238.967C18.8238 239 18.2921 239 17.6189 239H14.3811C13.7079 239 13.1762 239 12.7478 238.967C12.3109 238.933 11.9423 238.863 11.6056 238.701C11.0613 238.442 10.6127 238.018 10.3237 237.489C10.1471 237.161 10.0714 236.804 10.0351 236.385C10 235.978 10 235.473 10 234.841V231.775C10 231.142 10 230.637 10.0351 230.23C10.072 229.812 10.1471 229.454 10.3237 229.127C10.6126 228.598 11.0612 228.174 11.6056 227.914C11.9423 227.753 12.3109 227.682 12.7478 227.649L12.7688 227.646V227.462C12.7688 227.339 12.8174 227.222 12.9039 227.135C12.9905 227.049 13.1079 227 13.2303 227ZM12.7688 228.573C12.4137 228.604 12.1866 228.659 12.0056 228.746C11.6366 228.921 11.3321 229.207 11.1354 229.565C11.0653 229.695 11.0148 229.852 10.9816 230.077H21.0184C20.9846 229.852 20.9341 229.695 20.8639 229.566C20.6675 229.208 20.3632 228.921 19.9944 228.746C19.8128 228.659 19.5857 228.604 19.2306 228.573V228.692C19.2306 228.815 19.182 228.932 19.0954 229.019C19.0089 229.105 18.8915 229.154 18.7691 229.154C18.6467 229.154 18.5293 229.105 18.4427 229.019C18.3561 228.932 18.3075 228.815 18.3075 228.692V228.54C18.0979 228.539 17.8619 228.538 17.5998 228.538H14.3996C14.1374 228.538 13.9015 228.539 13.6919 228.54V228.692C13.6919 228.815 13.6433 228.932 13.5567 229.019C13.4701 229.105 13.3527 229.154 13.2303 229.154C13.1079 229.154 12.9905 229.105 12.9039 229.019C12.8174 228.932 12.7688 228.815 12.7688 228.692V228.573Z" fill="white"/>
</g>
<path d="M35.748 229.1H36.9V237.5H35.748V230.612L34.404 231.74L33.66 230.852L35.748 229.1ZM42.2979 229.628H43.4619V231.5H45.1899V232.652H43.4619V234.968C43.4619 235.352 43.5939 235.676 43.8579 235.94C44.1219 236.204 44.4459 236.336 44.8299 236.336H45.1779V237.5H44.8299C44.1339 237.5 43.5379 237.252 43.0419 236.756C42.5459 236.26 42.2979 235.664 42.2979 234.968V232.652H41.2899V231.5H42.2979V229.628ZM48.9128 232.52C48.3688 232.52 47.9248 232.708 47.5808 233.084C47.4128 233.276 47.2848 233.492 47.1968 233.732C47.1088 233.964 47.0648 234.22 47.0648 234.5C47.0648 235.052 47.2368 235.524 47.5808 235.916C47.9248 236.292 48.3688 236.48 48.9128 236.48C49.4568 236.48 49.9008 236.292 50.2448 235.916C50.4208 235.724 50.5488 235.512 50.6288 235.28C50.7168 235.04 50.7608 234.78 50.7608 234.5C50.7608 233.94 50.5888 233.468 50.2448 233.084C49.9008 232.708 49.4568 232.52 48.9128 232.52ZM48.9128 231.356C49.7688 231.356 50.4848 231.66 51.0608 232.268C51.6288 232.876 51.9128 233.62 51.9128 234.5C51.9128 235.372 51.6288 236.116 51.0608 236.732C50.4848 237.34 49.7688 237.644 48.9128 237.644C48.0568 237.644 47.3408 237.34 46.7648 236.732C46.1968 236.116 45.9128 235.372 45.9128 234.5C45.9128 233.62 46.1968 232.876 46.7648 232.268C47.3408 231.66 48.0568 231.356 48.9128 231.356ZM58.4336 233.42C58.9056 233.42 59.2976 233.26 59.6096 232.94C59.9296 232.628 60.0896 232.24 60.0896 231.776C60.0896 231.304 59.9296 230.912 59.6096 230.6C59.2976 230.28 58.9056 230.12 58.4336 230.12C57.9696 230.12 57.5816 230.28 57.2696 230.6C56.9496 230.912 56.7896 231.304 56.7896 231.776C56.7896 232.24 56.9496 232.628 57.2696 232.94C57.5816 233.26 57.9696 233.42 58.4336 233.42ZM58.3016 237.5H56.9576L58.8176 234.44C58.7056 234.472 58.5896 234.496 58.4696 234.512C58.3576 234.52 58.2496 234.52 58.1456 234.512C57.4576 234.464 56.8736 234.188 56.3936 233.684C55.8816 233.164 55.6256 232.528 55.6256 231.776C55.6256 231.392 55.6936 231.032 55.8296 230.696C55.9656 230.352 56.1736 230.048 56.4536 229.784C56.9976 229.232 57.6576 228.956 58.4336 228.956C59.2176 228.956 59.8816 229.232 60.4256 229.784C60.9776 230.32 61.2536 230.984 61.2536 231.776C61.2536 232.28 61.1296 232.744 60.8816 233.168L58.3016 237.5ZM65.5621 230.12C65.3781 230.12 65.2021 230.144 65.0341 230.192C64.8741 230.232 64.7221 230.3 64.5781 230.396C64.4421 230.484 64.3141 230.592 64.1941 230.72C64.0821 230.84 63.9821 230.976 63.8941 231.128C63.8141 231.288 63.7421 231.452 63.6781 231.62C63.6221 231.788 63.5741 231.964 63.5341 232.148C63.4941 232.332 63.4621 232.52 63.4381 232.712C63.4141 232.896 63.4021 233.092 63.4021 233.3C63.4021 233.5 63.4141 233.696 63.4381 233.888C63.4621 234.08 63.4941 234.268 63.5341 234.452C63.5741 234.636 63.6221 234.812 63.6781 234.98C63.7421 235.148 63.8141 235.312 63.8941 235.472C63.9821 235.624 64.0821 235.76 64.1941 235.88C64.3141 236 64.4421 236.108 64.5781 236.204C64.8661 236.388 65.1941 236.48 65.5621 236.48C65.7541 236.48 65.9301 236.46 66.0901 236.42C66.2581 236.372 66.4101 236.3 66.5461 236.204C66.6901 236.108 66.8181 236 66.9301 235.88C67.0501 235.76 67.1501 235.624 67.2301 235.472C67.3181 235.312 67.3941 235.148 67.4581 234.98C67.5221 234.812 67.5741 234.636 67.6141 234.452C67.6541 234.268 67.6821 234.08 67.6981 233.888C67.7141 233.696 67.7221 233.5 67.7221 233.3C67.7221 233.092 67.7141 232.896 67.6981 232.712C67.6821 232.52 67.6541 232.332 67.6141 232.148C67.5741 231.964 67.5221 231.788 67.4581 231.62C67.3941 231.452 67.3181 231.288 67.2301 231.128C67.1501 230.976 67.0501 230.84 66.9301 230.72C66.8181 230.592 66.6901 230.484 66.5461 230.396C66.2661 230.212 65.9381 230.12 65.5621 230.12ZM65.5621 228.956C66.2021 228.956 66.7661 229.14 67.2541 229.508C67.5661 229.724 67.8301 229.988 68.0461 230.3C68.2701 230.604 68.4501 230.956 68.5861 231.356C68.6821 231.66 68.7541 231.976 68.8021 232.304C68.8581 232.624 68.8861 232.956 68.8861 233.3C68.8861 233.644 68.8581 233.98 68.8021 234.308C68.7541 234.628 68.6821 234.94 68.5861 235.244C68.4501 235.644 68.2701 236 68.0461 236.312C67.8301 236.616 67.5661 236.876 67.2541 237.092C66.7661 237.46 66.2021 237.644 65.5621 237.644C64.9221 237.644 64.3581 237.46 63.8701 237.092C63.5661 236.876 63.3021 236.616 63.0781 236.312C62.8621 236 62.6901 235.644 62.5621 235.244C62.4581 234.94 62.3781 234.628 62.3221 234.308C62.2741 233.98 62.2501 233.644 62.2501 233.3C62.2501 232.956 62.2741 232.624 62.3221 232.304C62.3781 231.976 62.4581 231.66 62.5621 231.356C62.6901 230.956 62.8621 230.604 63.0781 230.3C63.3021 229.988 63.5661 229.724 63.8701 229.508C64.3581 229.14 64.9221 228.956 65.5621 228.956ZM75.761 232.508C75.217 232.508 74.773 232.7 74.429 233.084C74.077 233.468 73.901 233.94 73.901 234.5C73.901 235.06 74.077 235.532 74.429 235.916C74.773 236.3 75.217 236.492 75.761 236.492C76.297 236.492 76.729 236.3 77.057 235.916C77.225 235.724 77.349 235.512 77.429 235.28C77.517 235.04 77.561 234.78 77.561 234.5C77.561 234.212 77.517 233.952 77.429 233.72C77.349 233.488 77.225 233.276 77.057 233.084C76.729 232.7 76.297 232.508 75.761 232.508ZM75.689 231.356C76.369 231.356 76.917 231.576 77.333 232.016C77.381 232.056 77.421 232.096 77.453 232.136C77.485 232.176 77.521 232.216 77.561 232.256V229.1H78.725V237.5H77.645V236.684C77.613 236.732 77.581 236.78 77.549 236.828C77.517 236.868 77.477 236.904 77.429 236.936C76.997 237.408 76.417 237.644 75.689 237.644C74.833 237.644 74.129 237.34 73.577 236.732C73.017 236.116 72.737 235.372 72.737 234.5C72.737 233.62 73.017 232.876 73.577 232.268C74.129 231.66 74.833 231.356 75.689 231.356ZM84.8403 231.5H85.9203V237.5H84.8403V236.684C84.8163 236.724 84.7883 236.764 84.7563 236.804C84.7323 236.844 84.7043 236.88 84.6723 236.912C84.2243 237.4 83.6283 237.644 82.8843 237.644C82.0283 237.644 81.3243 237.34 80.7723 236.732C80.2123 236.116 79.9323 235.372 79.9323 234.5C79.9323 233.62 80.2123 232.876 80.7723 232.268C81.3243 231.66 82.0283 231.356 82.8843 231.356C83.6283 231.356 84.2243 231.608 84.6723 232.112C84.7123 232.144 84.7443 232.18 84.7683 232.22C84.7923 232.26 84.8163 232.296 84.8403 232.328V231.5ZM82.9563 232.508C82.4123 232.508 81.9683 232.7 81.6243 233.084C81.2723 233.468 81.0963 233.94 81.0963 234.5C81.0963 235.06 81.2723 235.532 81.6243 235.916C81.9683 236.3 82.4123 236.492 82.9563 236.492C83.4923 236.492 83.9243 236.3 84.2523 235.916C84.4203 235.724 84.5443 235.512 84.6243 235.28C84.7123 235.04 84.7563 234.78 84.7563 234.5C84.7563 234.212 84.7123 233.952 84.6243 233.72C84.5443 233.488 84.4203 233.276 84.2523 233.084C83.9243 232.7 83.4923 232.508 82.9563 232.508ZM86.6504 231.5H87.9224L89.8304 235.988L91.7384 231.5H92.9864L90.0584 238.448C89.9544 238.688 89.8224 238.904 89.6624 239.096C89.5024 239.296 89.3064 239.468 89.0744 239.612C88.6264 239.9 88.1384 240.044 87.6104 240.044H87.0824V238.892H87.6104C87.9224 238.892 88.2024 238.812 88.4504 238.652C88.6984 238.5 88.8824 238.28 89.0024 237.992L89.2184 237.476L86.6504 231.5ZM97.6303 232.532L96.5383 232.916C96.4903 232.772 96.3903 232.652 96.2383 232.556C96.0783 232.468 95.8983 232.424 95.6983 232.424C95.4343 232.424 95.2303 232.492 95.0863 232.628C94.9423 232.764 94.8703 232.928 94.8703 233.12C94.8783 233.36 95.0663 233.548 95.4343 233.684C95.5223 233.708 95.6103 233.736 95.6983 233.768C95.7863 233.792 95.8783 233.816 95.9743 233.84C96.5503 233.984 96.9863 234.196 97.2823 234.476C97.6583 234.82 97.8463 235.244 97.8463 235.748C97.8463 236.324 97.6223 236.792 97.1743 237.152C96.7663 237.48 96.2583 237.644 95.6503 237.644C95.1543 237.644 94.7223 237.528 94.3543 237.296C93.9783 237.072 93.7023 236.76 93.5263 236.36L94.6183 235.964C94.8103 236.364 95.1463 236.564 95.6263 236.564C95.9383 236.564 96.1903 236.48 96.3823 236.312C96.5743 236.144 96.6703 235.944 96.6703 235.712C96.6623 235.448 96.4503 235.236 96.0343 235.076C95.9463 235.028 95.8543 234.988 95.7583 234.956C95.6623 234.924 95.5543 234.892 95.4343 234.86C95.1783 234.804 94.9423 234.72 94.7263 234.608C94.5183 234.496 94.3383 234.368 94.1863 234.224C93.8663 233.936 93.7063 233.564 93.7063 233.108C93.7063 232.588 93.8983 232.164 94.2823 231.836C94.6583 231.516 95.1263 231.356 95.6863 231.356C96.1743 231.356 96.5863 231.46 96.9223 231.668C97.2503 231.876 97.4863 232.164 97.6303 232.532Z" fill="white"/>
</g>
<defs>
<clipPath id="clip0_422_2389">
<rect width="240" height="254" fill="white"/>
</clipPath>
<clipPath id="clip1_422_2389">
<rect width="16" height="16" fill="white" transform="translate(209.418 39)"/>
</clipPath>
<clipPath id="clip2_422_2389">
<rect width="24" height="24" fill="white" transform="translate(4 178.152)"/>
</clipPath>
<clipPath id="clip3_422_2389">
<rect width="24" height="24" fill="white" transform="translate(4 221)"/>
</clipPath>
</defs>
</svg>
