<svg width="380" height="284" viewBox="0 0 380 284" fill="none" xmlns="http://www.w3.org/2000/svg">
<path d="M103.523 207.986C103.234 202.471 107.471 197.766 112.986 197.477L272.767 189.103C278.282 188.814 282.988 193.051 283.277 198.566L284.323 218.538C284.612 224.054 280.376 228.759 274.86 229.048L115.08 237.422C109.564 237.711 104.859 233.474 104.57 227.959L103.523 207.986Z" fill="#1D1446"/>
<path opacity="0.4" d="M121.099 215.794L121.882 215.753L121.709 217.196L122.684 217.145L122.589 217.927L121.614 217.978L121.473 219.107L122.504 219.053L122.408 219.835L121.37 219.89L121.192 221.397L120.409 221.438L120.595 219.93L119.524 219.986L119.339 221.494L118.556 221.535L118.733 220.028L117.807 220.076L117.902 219.294L118.837 219.245L118.978 218.117L118.043 218.166L118.13 217.384L119.073 217.334L119.246 215.891L120.029 215.85L119.856 217.293L120.926 217.237L121.099 215.794ZM120.823 218.02L119.761 218.075L119.62 219.204L120.682 219.149L120.823 218.02ZM125.582 212.611C126.269 212.575 126.872 212.764 127.39 213.177C127.9 213.591 128.173 214.126 128.207 214.781C128.215 214.933 128.203 215.086 128.171 215.239C128.139 215.385 128.082 215.536 128.002 215.693C127.843 216.006 127.598 216.307 127.269 216.597C127.649 216.817 127.967 217.085 128.224 217.4C128.499 217.762 128.648 218.154 128.67 218.578C128.708 219.297 128.472 219.918 127.963 220.441C127.453 220.957 126.819 221.234 126.06 221.274C125.517 221.303 125.002 221.189 124.516 220.935C124.277 220.811 124.069 220.662 123.892 220.487C123.722 220.303 123.579 220.098 123.463 219.872L124.521 219.42C124.583 219.537 124.665 219.641 124.765 219.732C124.866 219.823 124.986 219.896 125.125 219.953C125.265 220.018 125.408 220.067 125.554 220.099C125.699 220.124 125.848 220.132 126 220.124C126.439 220.101 126.808 219.949 127.105 219.669C127.403 219.389 127.541 219.042 127.519 218.626C127.498 218.211 127.32 217.876 126.986 217.621C126.66 217.365 126.282 217.249 125.85 217.272L125.119 217.31L125.058 216.148L125.789 216.109C126.149 216.09 126.455 215.966 126.707 215.737C126.959 215.499 127.076 215.205 127.057 214.853C127.039 214.502 126.892 214.229 126.618 214.035C126.343 213.841 126.018 213.754 125.643 213.774C125.499 213.781 125.36 213.805 125.226 213.844C125.092 213.883 124.971 213.941 124.863 214.019C124.637 214.151 124.486 214.331 124.41 214.559L123.31 214.208C123.455 213.76 123.74 213.389 124.165 213.094C124.59 212.799 125.063 212.639 125.582 212.611Z" fill="#9A94B8"/>
<g filter="url(#filter0_d_425_2438)">
<path d="M99.5701 176.986C99.8592 171.471 104.565 167.234 110.08 167.523L269.861 175.897C275.376 176.186 279.613 180.891 279.323 186.407L278.277 206.379C277.988 211.895 273.282 216.131 267.767 215.842L107.986 207.469C102.471 207.179 98.2344 202.474 98.5234 196.959L99.5701 176.986Z" fill="#1D1446"/>
<path opacity="0.4" d="M116.374 186.596L117.157 186.637L116.834 188.054L117.809 188.105L117.632 188.873L116.658 188.822L116.399 189.93L117.43 189.984L117.254 190.752L116.215 190.697L115.881 192.178L115.098 192.137L115.44 190.657L114.37 190.601L114.028 192.081L113.245 192.04L113.579 190.559L112.652 190.511L112.828 189.743L113.763 189.792L114.021 188.684L113.087 188.635L113.255 187.867L114.198 187.916L114.52 186.499L115.303 186.54L114.981 187.957L116.051 188.013L116.374 186.596ZM115.867 188.781L114.804 188.725L114.546 189.833L115.609 189.889L115.867 188.781ZM120.997 183.89C121.716 183.928 122.322 184.212 122.815 184.743C123.307 185.281 123.535 185.91 123.497 186.629C123.463 187.284 123.151 187.893 122.56 188.454L119.64 191.209L123.283 191.4L123.222 192.563L117.938 192.286L117.998 191.123L121.725 187.666C122.113 187.293 122.316 186.928 122.335 186.568C122.357 186.145 122.235 185.794 121.969 185.515C121.704 185.221 121.368 185.063 120.961 185.042C120.601 185.023 120.288 185.107 120.022 185.293C119.889 185.382 119.776 185.493 119.681 185.624C119.594 185.755 119.525 185.908 119.476 186.082L118.364 185.759C118.538 185.175 118.867 184.712 119.35 184.369C119.841 184.018 120.39 183.859 120.997 183.89Z" fill="#9A94B8"/>
</g>
<g filter="url(#filter1_d_425_2438)">
<path d="M90 159C90 153.477 94.4772 149 100 149H280C285.523 149 290 153.477 290 159V179C290 184.523 285.523 189 280 189H100C94.4772 189 90 184.523 90 179V159Z" fill="#1D1446"/>
</g>
<path d="M108.297 167.4H109.081L108.833 168.832H109.809L109.673 169.608H108.697L108.497 170.728H109.529L109.393 171.504H108.353L108.097 173H107.313L107.577 171.504H106.505L106.241 173H105.457L105.713 171.504H104.785L104.921 170.728H105.857L106.057 169.608H105.121L105.249 168.832H106.193L106.441 167.4H107.225L106.977 168.832H108.049L108.297 167.4ZM107.905 169.608H106.841L106.641 170.728H107.705L107.905 169.608ZM112.58 164.6H113.732V173H112.58V166.112L111.236 167.24L110.492 166.352L112.58 164.6Z" fill="#9A94B8"/>
<path opacity="0.3" d="M233 169C233 165.686 235.686 163 239 163H267C270.314 163 273 165.686 273 169C273 172.314 270.314 175 267 175H239C235.686 175 233 172.314 233 169Z" fill="#9A94B8"/>
<g opacity="0.6">
<circle cx="250" cy="40" r="35" fill="#1D1446"/>
<circle cx="250" cy="40" r="34.5" stroke="#ACA9BB" stroke-opacity="0.08"/>
<g clip-path="url(#clip0_425_2438)">
<path d="M250 53C257.18 53 263 47.1797 263 40C263 32.8203 257.18 27 250 27C242.82 27 237 32.8203 237 40C237 47.1797 242.82 53 250 53Z" fill="#627EEA"/>
<path d="M250.405 30.25V37.4569L256.496 40.1787L250.405 30.25Z" fill="white" fill-opacity="0.602"/>
<path d="M250.405 30.25L244.312 40.1787L250.405 37.4569V30.25Z" fill="white"/>
<path d="M250.405 44.849V49.7459L256.5 41.313L250.405 44.849Z" fill="white" fill-opacity="0.602"/>
<path d="M250.405 49.7459V44.8482L244.312 41.313L250.405 49.7459Z" fill="white"/>
<path d="M250.405 43.7156L256.496 40.1788L250.405 37.4586V43.7156Z" fill="white" fill-opacity="0.2"/>
<path d="M244.312 40.1788L250.405 43.7156V37.4586L244.312 40.1788Z" fill="white" fill-opacity="0.602"/>
</g>
</g>
<g opacity="0.6">
<circle cx="130" cy="40" r="35" fill="#1D1446"/>
<circle cx="130" cy="40" r="34.5" stroke="#ACA9BB" stroke-opacity="0.08"/>
<g clip-path="url(#clip1_425_2438)">
<path d="M130 53C137.18 53 143 47.1797 143 40C143 32.8203 137.18 27 130 27C122.82 27 117 32.8203 117 40C117 47.1797 122.82 53 130 53Z" fill="#627EEA"/>
<path d="M130.405 30.25V37.4569L136.496 40.1787L130.405 30.25Z" fill="white" fill-opacity="0.602"/>
<path d="M130.405 30.25L124.312 40.1787L130.405 37.4569V30.25Z" fill="white"/>
<path d="M130.405 44.849V49.7459L136.5 41.313L130.405 44.849Z" fill="white" fill-opacity="0.602"/>
<path d="M130.405 49.7459V44.8482L124.312 41.313L130.405 49.7459Z" fill="white"/>
<path d="M130.405 43.7156L136.496 40.1788L130.405 37.4586V43.7156Z" fill="white" fill-opacity="0.2"/>
<path d="M124.312 40.1788L130.405 43.7156V37.4586L124.312 40.1788Z" fill="white" fill-opacity="0.602"/>
</g>
</g>
<circle cx="190" cy="40" r="40" fill="#1D1446"/>
<circle cx="190" cy="40" r="39.5" stroke="#ACA9BB" stroke-opacity="0.08"/>
<g clip-path="url(#clip2_425_2438)">
<path d="M190 58C199.941 58 208 49.9411 208 40C208 30.0589 199.941 22 190 22C180.059 22 172 30.0589 172 40C172 49.9411 180.059 58 190 58Z" fill="#627EEA"/>
<path d="M190.56 26.5V36.4787L198.994 40.2475L190.56 26.5Z" fill="white" fill-opacity="0.602"/>
<path d="M190.56 26.5L182.125 40.2475L190.56 36.4787V26.5Z" fill="white"/>
<path d="M190.56 46.714V53.4944L199 41.818L190.56 46.714Z" fill="white" fill-opacity="0.602"/>
<path d="M190.56 53.4944V46.7129L182.125 41.818L190.56 53.4944Z" fill="white"/>
<path d="M190.56 45.1447L198.994 40.2476L190.56 36.4811V45.1447Z" fill="white" fill-opacity="0.2"/>
<path d="M182.125 40.2476L190.56 45.1447V36.4811L182.125 40.2476Z" fill="white" fill-opacity="0.602"/>
</g>
<path d="M190.75 95C190.75 94.5858 190.414 94.25 190 94.25C189.586 94.25 189.25 94.5858 189.25 95L190.75 95ZM190 130L194.33 122.5L185.67 122.5L190 130ZM189.25 97.9167C189.25 98.3309 189.586 98.6667 190 98.6667C190.414 98.6667 190.75 98.3309 190.75 97.9167L189.25 97.9167ZM190.75 103.75C190.75 103.336 190.414 103 190 103C189.586 103 189.25 103.336 189.25 103.75L190.75 103.75ZM189.25 109.583C189.25 109.998 189.586 110.333 190 110.333C190.414 110.333 190.75 109.998 190.75 109.583L189.25 109.583ZM190.75 115.417C190.75 115.002 190.414 114.667 190 114.667C189.586 114.667 189.25 115.002 189.25 115.417L190.75 115.417ZM189.25 121.25C189.25 121.664 189.586 122 190 122C190.414 122 190.75 121.664 190.75 121.25L189.25 121.25ZM190.75 127.083C190.75 126.669 190.414 126.333 190 126.333C189.586 126.333 189.25 126.669 189.25 127.083L190.75 127.083ZM190 95L189.25 95L189.25 97.9167L190 97.9167L190.75 97.9167L190.75 95L190 95ZM190 103.75L189.25 103.75L189.25 109.583L190 109.583L190.75 109.583L190.75 103.75L190 103.75ZM190 115.417L189.25 115.417L189.25 121.25L190 121.25L190.75 121.25L190.75 115.417L190 115.417ZM190.75 95C190.75 94.5858 190.414 94.25 190 94.25C189.586 94.25 189.25 94.5858 189.25 95L190.75 95ZM190 130L194.33 122.5L185.67 122.5L190 130ZM189.25 97.9167C189.25 98.3309 189.586 98.6667 190 98.6667C190.414 98.6667 190.75 98.3309 190.75 97.9167L189.25 97.9167ZM190.75 103.75C190.75 103.336 190.414 103 190 103C189.586 103 189.25 103.336 189.25 103.75L190.75 103.75ZM189.25 109.583C189.25 109.998 189.586 110.333 190 110.333C190.414 110.333 190.75 109.998 190.75 109.583L189.25 109.583ZM190.75 115.417C190.75 115.002 190.414 114.667 190 114.667C189.586 114.667 189.25 115.002 189.25 115.417L190.75 115.417ZM189.25 121.25C189.25 121.664 189.586 122 190 122C190.414 122 190.75 121.664 190.75 121.25L189.25 121.25ZM190.75 127.083C190.75 126.669 190.414 126.333 190 126.333C189.586 126.333 189.25 126.669 189.25 127.083L190.75 127.083ZM190 95L189.25 95L189.25 97.9167L190 97.9167L190.75 97.9167L190.75 95L190 95ZM190 103.75L189.25 103.75L189.25 109.583L190 109.583L190.75 109.583L190.75 103.75L190 103.75ZM190 115.417L189.25 115.417L189.25 121.25L190 121.25L190.75 121.25L190.75 115.417L190 115.417Z" fill="#9A94B8"/>
<path d="M80.8296 222.294L82.9987 225.608L86.9534 225.83L83.6393 227.999L83.4178 231.953L81.2487 228.639L77.2941 228.418L80.6082 226.249L80.8296 222.294Z" fill="#FE9673"/>
<path d="M91.8296 244.294L93.9987 247.608L97.9534 247.83L94.6393 249.999L94.4178 253.953L92.2487 250.639L88.2941 250.418L91.6082 248.249L91.8296 244.294Z" fill="#FE9673"/>
<path d="M312.418 217.294L312.639 221.249L315.953 223.418L311.999 223.639L309.83 226.953L309.608 222.999L306.294 220.83L310.249 220.608L312.418 217.294Z" fill="#FE9673"/>
<path d="M312.418 193.294L312.639 197.249L315.953 199.418L311.999 199.639L309.83 202.953L309.608 198.999L306.294 196.83L310.249 196.608L312.418 193.294Z" fill="#FE9673"/>
<defs>
<filter id="filter0_d_425_2438" x="88.5095" y="162.509" width="200.828" height="68.3469" filterUnits="userSpaceOnUse" color-interpolation-filters="sRGB">
<feFlood flood-opacity="0" result="BackgroundImageFix"/>
<feColorMatrix in="SourceAlpha" type="matrix" values="0 0 0 0 0 0 0 0 0 0 0 0 0 0 0 0 0 0 127 0" result="hardAlpha"/>
<feOffset dy="5"/>
<feGaussianBlur stdDeviation="5"/>
<feComposite in2="hardAlpha" operator="out"/>
<feColorMatrix type="matrix" values="0 0 0 0 0.0582042 0 0 0 0 0.0296634 0 0 0 0 0.197341 0 0 0 0.5 0"/>
<feBlend mode="normal" in2="BackgroundImageFix" result="effect1_dropShadow_425_2438"/>
<feBlend mode="normal" in="SourceGraphic" in2="effect1_dropShadow_425_2438" result="shape"/>
</filter>
<filter id="filter1_d_425_2438" x="80" y="144" width="220" height="60" filterUnits="userSpaceOnUse" color-interpolation-filters="sRGB">
<feFlood flood-opacity="0" result="BackgroundImageFix"/>
<feColorMatrix in="SourceAlpha" type="matrix" values="0 0 0 0 0 0 0 0 0 0 0 0 0 0 0 0 0 0 127 0" result="hardAlpha"/>
<feOffset dy="5"/>
<feGaussianBlur stdDeviation="5"/>
<feComposite in2="hardAlpha" operator="out"/>
<feColorMatrix type="matrix" values="0 0 0 0 0.0582042 0 0 0 0 0.0296634 0 0 0 0 0.197341 0 0 0 0.5 0"/>
<feBlend mode="normal" in2="BackgroundImageFix" result="effect1_dropShadow_425_2438"/>
<feBlend mode="normal" in="SourceGraphic" in2="effect1_dropShadow_425_2438" result="shape"/>
</filter>
<clipPath id="clip0_425_2438">
<rect width="26" height="26" fill="white" transform="translate(237 27)"/>
</clipPath>
<clipPath id="clip1_425_2438">
<rect width="26" height="26" fill="white" transform="translate(117 27)"/>
</clipPath>
<clipPath id="clip2_425_2438">
<rect width="36" height="36" fill="white" transform="translate(172 22)"/>
</clipPath>
</defs>
</svg>
