<svg width="240" height="254" viewBox="0 0 240 254" fill="none" xmlns="http://www.w3.org/2000/svg">
<mask id="path-1-inside-1_426_2456" fill="white">
<path d="M0 40C0 31.7157 6.71573 25 15 25H225C233.284 25 240 31.7157 240 40V180C240 188.284 233.284 195 225 195H15C6.71573 195 0 188.284 0 180L0 40Z"/>
</mask>
<path d="M0 40C0 31.7157 6.71573 25 15 25H225C233.284 25 240 31.7157 240 40V180C240 188.284 233.284 195 225 195H15C6.71573 195 0 188.284 0 180L0 40Z" fill="#1D1446"/>
<path d="M15 25V26H225V25V24H15V25ZM240 40H239V180H240H241V40H240ZM225 195V194H15V195V196H225V195ZM0 180H1L1 40H0H-1L-1 180H0ZM15 195V194C7.26801 194 1 187.732 1 180H0H-1C-1 188.837 6.16344 196 15 196V195ZM240 180H239C239 187.732 232.732 194 225 194V195V196C233.837 196 241 188.837 241 180H240ZM225 25V26C232.732 26 239 32.268 239 40H240H241C241 31.1634 233.837 24 225 24V25ZM15 25V24C6.16344 24 -1 31.1634 -1 40H0H1C1 32.268 7.26801 26 15 26V25Z" fill="#ACA9BB" fill-opacity="0.08" mask="url(#path-1-inside-1_426_2456)"/>
<g opacity="0.2">
<mask id="path-3-inside-2_426_2456" fill="white">
<path d="M0 40C0 31.7157 6.71573 25 15 25H225C233.284 25 240 31.7157 240 40V50H0L0 40Z"/>
</mask>
<path d="M0 40C0 31.7157 6.71573 25 15 25H225C233.284 25 240 31.7157 240 40V50H0L0 40Z" fill="#3C1B68"/>
<path d="M240 50V51H241V50H240ZM0 50H-1V51H0L0 50ZM15 25V26H225V25V24H15V25ZM240 40H239V50H240H241V40H240ZM240 50V49H0L0 50L0 51H240V50ZM0 50H1L1 40H0H-1V50H0ZM225 25V26C232.732 26 239 32.268 239 40H240H241C241 31.1634 233.837 24 225 24V25ZM15 25V24C6.16344 24 -1 31.1634 -1 40H0H1C1 32.268 7.26801 26 15 26V25Z" fill="#ACA9BB" fill-opacity="0.08" mask="url(#path-3-inside-2_426_2456)"/>
</g>
<path d="M46 67C46 64.2386 48.2386 62 51 62H67C69.7614 62 72 64.2386 72 67V83C72 85.7614 69.7614 88 67 88H51C48.2386 88 46 85.7614 46 83V67Z" fill="#3C1B68"/>
<path d="M15 67C15 64.2386 17.2386 62 20 62H36C38.7614 62 41 64.2386 41 67V83C41 85.7614 38.7614 88 36 88H20C17.2386 88 15 85.7614 15 83V67Z" fill="#3C1B68"/>
<path d="M46 98C46 95.2386 48.2386 93 51 93H67C69.7614 93 72 95.2386 72 98V114C72 116.761 69.7614 119 67 119H51C48.2386 119 46 116.761 46 114V98Z" fill="#3C1B68"/>
<path d="M139 67C139 64.2386 141.239 62 144 62H160C162.761 62 165 64.2386 165 67V83C165 85.7614 162.761 88 160 88H144C141.239 88 139 85.7614 139 83V67Z" fill="#3C1B68"/>
<path opacity="0.5" d="M201 67C201 64.2386 203.239 62 206 62H222C224.761 62 227 64.2386 227 67V83C227 85.7614 224.761 88 222 88H206C203.239 88 201 85.7614 201 83V67Z" fill="#3C1B68"/>
<path opacity="0.5" d="M201 98C201 95.2386 203.239 93 206 93H222C224.761 93 227 95.2386 227 98V114C227 116.761 224.761 119 222 119H206C203.239 119 201 116.761 201 114V98Z" fill="#3C1B68"/>
<path d="M15 98C15 95.2386 17.2386 93 20 93H36C38.7614 93 41 95.2386 41 98V114C41 116.761 38.7614 119 36 119H20C17.2386 119 15 116.761 15 114V98Z" fill="#3C1B68"/>
<path d="M77 67C77 64.2386 79.2386 62 82 62H98C100.761 62 103 64.2386 103 67V83C103 85.7614 100.761 88 98 88H82C79.2386 88 77 85.7614 77 83V67Z" fill="#3C1B68"/>
<path d="M108 67C108 64.2386 110.239 62 113 62H129C131.761 62 134 64.2386 134 67V83C134 85.7614 131.761 88 129 88H113C110.239 88 108 85.7614 108 83V67Z" fill="#3C1B68"/>
<path opacity="0.5" d="M170 67C170 64.2386 172.239 62 175 62H191C193.761 62 196 64.2386 196 67V83C196 85.7614 193.761 88 191 88H175C172.239 88 170 85.7614 170 83V67Z" fill="#3C1B68"/>
<path opacity="0.5" d="M170 98C170 95.2386 172.239 93 175 93H191C193.761 93 196 95.2386 196 98V114C196 116.761 193.761 119 191 119H175C172.239 119 170 116.761 170 114V98Z" fill="#3C1B68"/>
<path d="M77 98C77 95.2386 79.2386 93 82 93H98C100.761 93 103 95.2386 103 98V114C103 116.761 100.761 119 98 119H82C79.2386 119 77 116.761 77 114V98Z" fill="#3C1B68"/>
<path d="M108 98C108 95.2386 110.239 93 113 93H129C131.761 93 134 95.2386 134 98V114C134 116.761 131.761 119 129 119H113C110.239 119 108 116.761 108 114V98Z" fill="#3C1B68"/>
<path d="M139 98C139 95.2386 141.239 93 144 93H160C162.761 93 165 95.2386 165 98V114C165 116.761 162.761 119 160 119H144C141.239 119 139 116.761 139 114V98Z" fill="#3C1B68"/>
<path d="M46 129C46 126.239 48.2386 124 51 124H67C69.7614 124 72 126.239 72 129V145C72 147.761 69.7614 150 67 150H51C48.2386 150 46 147.761 46 145V129Z" fill="#3C1B68"/>
<path opacity="0.5" d="M201 129C201 126.239 203.239 124 206 124H222C224.761 124 227 126.239 227 129V145C227 147.761 224.761 150 222 150H206C203.239 150 201 147.761 201 145V129Z" fill="#3C1B68"/>
<path d="M15 129C15 126.239 17.2386 124 20 124H36C38.7614 124 41 126.239 41 129V145C41 147.761 38.7614 150 36 150H20C17.2386 150 15 147.761 15 145V129Z" fill="#3C1B68"/>
<path opacity="0.5" d="M170 129C170 126.239 172.239 124 175 124H191C193.761 124 196 126.239 196 129V145C196 147.761 193.761 150 191 150H175C172.239 150 170 147.761 170 145V129Z" fill="#3C1B68"/>
<path d="M77 129C77 126.239 79.2386 124 82 124H98C100.761 124 103 126.239 103 129V145C103 147.761 100.761 150 98 150H82C79.2386 150 77 147.761 77 145V129Z" fill="#3C1B68"/>
<path d="M108 129C108 126.239 110.239 124 113 124H129C131.761 124 134 126.239 134 129V145C134 147.761 131.761 150 129 150H113C110.239 150 108 147.761 108 145V129Z" fill="#3C1B68"/>
<path d="M139 129C139 126.239 141.239 124 144 124H160C162.761 124 165 126.239 165 129V145C165 147.761 162.761 150 160 150H144C141.239 150 139 147.761 139 145V129Z" fill="#3C1B68"/>
<path d="M46 160C46 157.239 48.2386 155 51 155H67C69.7614 155 72 157.239 72 160V176C72 178.761 69.7614 181 67 181H51C48.2386 181 46 178.761 46 176V160Z" fill="#3C1B68"/>
<path opacity="0.5" d="M201 160C201 157.239 203.239 155 206 155H222C224.761 155 227 157.239 227 160V176C227 178.761 224.761 181 222 181H206C203.239 181 201 178.761 201 176V160Z" fill="#3C1B68"/>
<path d="M15 160C15 157.239 17.2386 155 20 155H36C38.7614 155 41 157.239 41 160V176C41 178.761 38.7614 181 36 181H20C17.2386 181 15 178.761 15 176V160Z" fill="#3C1B68"/>
<path opacity="0.5" d="M170 160C170 157.239 172.239 155 175 155H191C193.761 155 196 157.239 196 160V176C196 178.761 193.761 181 191 181H175C172.239 181 170 178.761 170 176V160Z" fill="#3C1B68"/>
<path d="M77 160C77 157.239 79.2386 155 82 155H98C100.761 155 103 157.239 103 160V176C103 178.761 100.761 181 98 181H82C79.2386 181 77 178.761 77 176V160Z" fill="#3C1B68"/>
<path d="M108 160C108 157.239 110.239 155 113 155H129C131.761 155 134 157.239 134 160V176C134 178.761 131.761 181 129 181H113C110.239 181 108 178.761 108 176V160Z" fill="#3C1B68"/>
<path d="M139 160C139 157.239 141.239 155 144 155H160C162.761 155 165 157.239 165 160V176C165 178.761 162.761 181 160 181H144C141.239 181 139 178.761 139 176V160Z" fill="#3C1B68"/>
<circle cx="55" cy="194" r="30" fill="#212367"/>
<g clip-path="url(#clip0_426_2456)">
<path d="M55 206C61.65 206 67 200.65 67 194C67 187.35 61.65 182 55 182C48.35 182 43 187.35 43 194C43 200.65 48.35 206 55 206Z" fill="#2775CA"/>
<path d="M58.3001 195.9C58.3001 194.15 57.2501 193.55 55.1501 193.3C53.6501 193.1 53.3501 192.7 53.3501 192C53.3501 191.3 53.8501 190.85 54.8501 190.85C55.7501 190.85 56.2501 191.15 56.5001 191.9C56.5501 192.05 56.7001 192.15 56.8501 192.15H57.65C57.8501 192.15 58.0001 192 58.0001 191.8V191.75C57.8 190.65 56.9 189.8 55.7501 189.7V188.5C55.7501 188.3 55.6001 188.15 55.3501 188.1H54.6001C54.4001 188.1 54.2501 188.25 54.2 188.5V189.65C52.7 189.85 51.7501 190.85 51.7501 192.1C51.7501 193.75 52.7501 194.4 54.8501 194.65C56.2501 194.9 56.7001 195.2 56.7001 196C56.7001 196.8 56 197.35 55.0501 197.35C53.75 197.35 53.3 196.8 53.15 196.05C53.1001 195.85 52.9501 195.75 52.8001 195.75H51.95C51.7501 195.75 51.6001 195.9 51.6001 196.1V196.15C51.8 197.4 52.6001 198.3 54.2501 198.55V199.75C54.2501 199.95 54.4001 200.1 54.65 200.15H55.4C55.6001 200.15 55.7501 200 55.8001 199.75V198.55C57.3001 198.3 58.3001 197.25 58.3001 195.9Z" fill="white"/>
<path d="M52.45 201.15C48.55 199.75 46.55 195.4 48 191.55C48.75 189.45 50.4 187.85 52.45 187.1C52.65 187 52.75 186.85 52.75 186.6V185.9C52.75 185.7 52.65 185.55 52.45 185.5C52.4 185.5 52.3 185.5 52.25 185.55C47.5 187.05 44.9 192.1 46.4 196.85C47.3 199.65 49.45 201.8 52.25 202.7C52.45 202.8 52.65 202.7 52.7 202.5C52.75 202.45 52.75 202.4 52.75 202.3V201.6C52.75 201.45 52.6 201.25 52.45 201.15ZM57.75 185.55C57.55 185.45 57.35 185.55 57.3 185.75C57.25 185.8 57.25 185.85 57.25 185.95V186.65C57.25 186.85 57.4 187.05 57.55 187.15C61.45 188.55 63.45 192.9 62 196.75C61.25 198.85 59.6 200.45 57.55 201.2C57.35 201.3 57.25 201.45 57.25 201.7V202.4C57.25 202.6 57.35 202.75 57.55 202.8C57.6 202.8 57.7 202.8 57.75 202.75C62.5 201.25 65.1 196.2 63.6 191.45C62.7 188.6 60.5 186.45 57.75 185.55Z" fill="white"/>
</g>
<path d="M42.2892 206.745C45.3299 209.778 49.3546 211.623 53.6367 211.948C57.9188 212.274 62.1761 211.057 65.64 208.519C69.1038 205.98 71.546 202.287 72.5255 198.106C73.505 193.924 72.9574 189.531 70.9814 185.718C69.0054 181.905 65.7314 178.924 61.7504 177.314C57.7694 175.703 53.3437 175.569 49.2725 176.936C45.2013 178.302 41.7527 181.079 39.5495 184.765C37.3463 188.451 36.5335 192.804 37.2581 197.037" stroke="#5069DD" stroke-width="2" stroke-linecap="round" stroke-linejoin="round"/>
<path d="M35 196.145L37.5939 198L40 196" stroke="#5069DD" stroke-width="2" stroke-linecap="round" stroke-linejoin="round"/>
<g opacity="0.99">
<circle cx="30" cy="219" r="10" fill="#8E3ECD"/>
<path d="M30.164 214.6H31.316V223H30.164V216.112L28.82 217.24L28.076 216.352L30.164 214.6Z" fill="white"/>
</g>
<path d="M100 193.25C99.5858 193.25 99.25 193.586 99.25 194C99.25 194.414 99.5858 194.75 100 194.75V193.25ZM135 194L127.5 189.67V198.33L135 194ZM102.917 194.75C103.331 194.75 103.667 194.414 103.667 194C103.667 193.586 103.331 193.25 102.917 193.25V194.75ZM108.75 193.25C108.336 193.25 108 193.586 108 194C108 194.414 108.336 194.75 108.75 194.75V193.25ZM114.583 194.75C114.998 194.75 115.333 194.414 115.333 194C115.333 193.586 114.998 193.25 114.583 193.25V194.75ZM120.417 193.25C120.002 193.25 119.667 193.586 119.667 194C119.667 194.414 120.002 194.75 120.417 194.75V193.25ZM126.25 194.75C126.664 194.75 127 194.414 127 194C127 193.586 126.664 193.25 126.25 193.25V194.75ZM132.083 193.25C131.669 193.25 131.333 193.586 131.333 194C131.333 194.414 131.669 194.75 132.083 194.75V193.25ZM100 194V194.75H102.917V194V193.25H100V194ZM108.75 194V194.75H114.583V194V193.25H108.75V194ZM120.417 194V194.75H126.25V194V193.25H120.417V194ZM100 193.25C99.5858 193.25 99.25 193.586 99.25 194C99.25 194.414 99.5858 194.75 100 194.75V193.25ZM135 194L127.5 189.67V198.33L135 194ZM102.917 194.75C103.331 194.75 103.667 194.414 103.667 194C103.667 193.586 103.331 193.25 102.917 193.25V194.75ZM108.75 193.25C108.336 193.25 108 193.586 108 194C108 194.414 108.336 194.75 108.75 194.75V193.25ZM114.583 194.75C114.998 194.75 115.333 194.414 115.333 194C115.333 193.586 114.998 193.25 114.583 193.25V194.75ZM120.417 193.25C120.002 193.25 119.667 193.586 119.667 194C119.667 194.414 120.002 194.75 120.417 194.75V193.25ZM126.25 194.75C126.664 194.75 127 194.414 127 194C127 193.586 126.664 193.25 126.25 193.25V194.75ZM132.083 193.25C131.669 193.25 131.333 193.586 131.333 194C131.333 194.414 131.669 194.75 132.083 194.75V193.25ZM100 194V194.75H102.917V194V193.25H100V194ZM108.75 194V194.75H114.583V194V193.25H108.75V194ZM120.417 194V194.75H126.25V194V193.25H120.417V194Z" fill="#9A94B8"/>
<circle cx="185" cy="194" r="30" fill="#212367"/>
<g clip-path="url(#clip1_426_2456)">
<path d="M185 206C191.627 206 197 200.627 197 194C197 187.373 191.627 182 185 182C178.373 182 173 187.373 173 194C173 200.627 178.373 206 185 206Z" fill="#627EEA"/>
<path d="M185.374 185V191.652L190.996 194.165L185.374 185Z" fill="white" fill-opacity="0.602"/>
<path d="M185.373 185L179.75 194.165L185.373 191.652V185Z" fill="white"/>
<path d="M185.374 198.476V202.996L191 195.212L185.374 198.476Z" fill="white" fill-opacity="0.602"/>
<path d="M185.373 202.996V198.475L179.75 195.212L185.373 202.996Z" fill="white"/>
<path d="M185.374 197.43L190.996 194.165L185.374 191.654V197.43Z" fill="white" fill-opacity="0.2"/>
<path d="M179.75 194.165L185.373 197.43V191.654L179.75 194.165Z" fill="white" fill-opacity="0.602"/>
</g>
<rect x="195" y="164" width="30" height="20" rx="10" fill="#09AF8E"/>
<circle cx="160" cy="219" r="10" fill="#8E3ECD"/>
<path d="M160.311 214.456C161.031 214.456 161.651 214.708 162.171 215.212C162.691 215.724 162.951 216.34 162.951 217.06C162.951 217.716 162.671 218.34 162.111 218.932L159.339 221.836H162.987V223H157.695V221.836L161.235 218.188C161.603 217.796 161.787 217.42 161.787 217.06C161.787 216.636 161.647 216.292 161.367 216.028C161.087 215.748 160.743 215.608 160.335 215.608C159.975 215.608 159.667 215.708 159.411 215.908C159.283 216.004 159.175 216.12 159.087 216.256C159.007 216.392 158.947 216.548 158.907 216.724L157.779 216.46C157.923 215.868 158.227 215.388 158.691 215.02C159.163 214.644 159.703 214.456 160.311 214.456Z" fill="white"/>
<defs>
<clipPath id="clip0_426_2456">
<rect width="24" height="24" fill="white" transform="translate(43 182)"/>
</clipPath>
<clipPath id="clip1_426_2456">
<rect width="24" height="24" fill="white" transform="translate(173 182)"/>
</clipPath>
</defs>
</svg>
