<svg width="380" height="284" viewBox="0 0 380 284" fill="none" xmlns="http://www.w3.org/2000/svg">
<mask id="path-1-inside-1_355_2407" fill="white">
<path d="M20 20C20 8.9543 28.9543 0 40 0L340 0C351.046 0 360 8.95431 360 20V220C360 231.046 351.046 240 340 240H40C28.9543 240 20 231.046 20 220V20Z"/>
</mask>
<path d="M20 20C20 8.9543 28.9543 0 40 0L340 0C351.046 0 360 8.95431 360 20V220C360 231.046 351.046 240 340 240H40C28.9543 240 20 231.046 20 220V20Z" fill="#1D1446"/>
<path d="M40 0V1L340 1V0V-1L40 -1V0ZM360 20H359V220H360H361V20H360ZM340 240V239H40V240V241H340V240ZM20 220H21V20H20H19V220H20ZM40 240V239C29.5066 239 21 230.493 21 220H20H19C19 231.598 28.402 241 40 241V240ZM360 220H359C359 230.493 350.493 239 340 239V240V241C351.598 241 361 231.598 361 220H360ZM340 0V1C350.493 1 359 9.50659 359 20H360H361C361 8.40202 351.598 -1 340 -1V0ZM40 0V-1C28.402 -1 19 8.40202 19 20H20H21C21 9.50659 29.5066 1 40 1V0Z" fill="#ACA9BB" fill-opacity="0.08" mask="url(#path-1-inside-1_355_2407)"/>
<g opacity="0.2">
<mask id="path-3-inside-2_355_2407" fill="white">
<path d="M20 20C20 8.95431 28.9543 0 40 0L340 0C351.046 0 360 8.95431 360 20V35H20V20Z"/>
</mask>
<path d="M20 20C20 8.95431 28.9543 0 40 0L340 0C351.046 0 360 8.95431 360 20V35H20V20Z" fill="#3C1B68"/>
<path d="M360 35V36H361V35H360ZM20 35H19V36H20V35ZM40 0V1L340 1V0V-1L40 -1V0ZM360 20H359V35H360H361V20H360ZM360 35V34H20V35V36H360V35ZM20 35H21V20H20H19V35H20ZM340 0V1C350.493 1 359 9.50659 359 20H360H361C361 8.40202 351.598 -1 340 -1V0ZM40 0V-1C28.402 -1 19 8.40202 19 20H20H21C21 9.50659 29.5066 1 40 1V0Z" fill="#ACA9BB" fill-opacity="0.08" mask="url(#path-3-inside-2_355_2407)"/>
</g>
<path d="M80 55C80 52.2386 82.2386 50 85 50H115C117.761 50 120 52.2386 120 55V85C120 87.7614 117.761 90 115 90H85C82.2386 90 80 87.7614 80 85V55Z" fill="#3C1B68"/>
<path d="M35 55C35 52.2386 37.2386 50 40 50H70C72.7614 50 75 52.2386 75 55V85C75 87.7614 72.7614 90 70 90H40C37.2386 90 35 87.7614 35 85V55Z" fill="#3C1B68"/>
<path d="M80 100C80 97.2386 82.2386 95 85 95H115C117.761 95 120 97.2386 120 100V130C120 132.761 117.761 135 115 135H85C82.2386 135 80 132.761 80 130V100Z" fill="#3C1B68"/>
<path d="M214 55C214 52.2386 216.239 50 219 50H249C251.761 50 254 52.2386 254 55V85C254 87.7614 251.761 90 249 90H219C216.239 90 214 87.7614 214 85V55Z" fill="#3C1B68"/>
<path opacity="0.5" d="M304 55C304 52.2386 306.239 50 309 50H339C341.761 50 344 52.2386 344 55V85C344 87.7614 341.761 90 339 90H309C306.239 90 304 87.7614 304 85V55Z" fill="#3C1B68"/>
<path opacity="0.5" d="M304 100C304 97.2386 306.239 95 309 95H339C341.761 95 344 97.2386 344 100V130C344 132.761 341.761 135 339 135H309C306.239 135 304 132.761 304 130V100Z" fill="#3C1B68"/>
<path d="M35 100C35 97.2386 37.2386 95 40 95H70C72.7614 95 75 97.2386 75 100V130C75 132.761 72.7614 135 70 135H40C37.2386 135 35 132.761 35 130V100Z" fill="#3C1B68"/>
<path d="M124 55C124 52.2386 126.239 50 129 50H159C161.761 50 164 52.2386 164 55V85C164 87.7614 161.761 90 159 90H129C126.239 90 124 87.7614 124 85V55Z" fill="#3C1B68"/>
<path d="M169 55C169 52.2386 171.239 50 174 50H204C206.761 50 209 52.2386 209 55V85C209 87.7614 206.761 90 204 90H174C171.239 90 169 87.7614 169 85V55Z" fill="#3C1B68"/>
<path opacity="0.5" d="M259 55C259 52.2386 261.239 50 264 50H294C296.761 50 299 52.2386 299 55V85C299 87.7614 296.761 90 294 90H264C261.239 90 259 87.7614 259 85V55Z" fill="#3C1B68"/>
<path opacity="0.5" d="M259 100C259 97.2386 261.239 95 264 95H294C296.761 95 299 97.2386 299 100V130C299 132.761 296.761 135 294 135H264C261.239 135 259 132.761 259 130V100Z" fill="#3C1B68"/>
<path d="M124 100C124 97.2386 126.239 95 129 95H159C161.761 95 164 97.2386 164 100V130C164 132.761 161.761 135 159 135H129C126.239 135 124 132.761 124 130V100Z" fill="#3C1B68"/>
<path d="M169 100C169 97.2386 171.239 95 174 95H204C206.761 95 209 97.2386 209 100V130C209 132.761 206.761 135 204 135H174C171.239 135 169 132.761 169 130V100Z" fill="#3C1B68"/>
<path d="M214 100C214 97.2386 216.239 95 219 95H249C251.761 95 254 97.2386 254 100V130C254 132.761 251.761 135 249 135H219C216.239 135 214 132.761 214 130V100Z" fill="#3C1B68"/>
<path d="M80 145C80 142.239 82.2386 140 85 140H115C117.761 140 120 142.239 120 145V175C120 177.761 117.761 180 115 180H85C82.2386 180 80 177.761 80 175V145Z" fill="#3C1B68"/>
<path opacity="0.5" d="M304 145C304 142.239 306.239 140 309 140H339C341.761 140 344 142.239 344 145V175C344 177.761 341.761 180 339 180H309C306.239 180 304 177.761 304 175V145Z" fill="#3C1B68"/>
<path d="M35 145C35 142.239 37.2386 140 40 140H70C72.7614 140 75 142.239 75 145V175C75 177.761 72.7614 180 70 180H40C37.2386 180 35 177.761 35 175V145Z" fill="#3C1B68"/>
<path opacity="0.5" d="M259 145C259 142.239 261.239 140 264 140H294C296.761 140 299 142.239 299 145V175C299 177.761 296.761 180 294 180H264C261.239 180 259 177.761 259 175V145Z" fill="#3C1B68"/>
<path d="M124 145C124 142.239 126.239 140 129 140H159C161.761 140 164 142.239 164 145V175C164 177.761 161.761 180 159 180H129C126.239 180 124 177.761 124 175V145Z" fill="#3C1B68"/>
<path d="M169 145C169 142.239 171.239 140 174 140H204C206.761 140 209 142.239 209 145V175C209 177.761 206.761 180 204 180H174C171.239 180 169 177.761 169 175V145Z" fill="#3C1B68"/>
<path d="M214 145C214 142.239 216.239 140 219 140H249C251.761 140 254 142.239 254 145V175C254 177.761 251.761 180 249 180H219C216.239 180 214 177.761 214 175V145Z" fill="#3C1B68"/>
<path d="M80 190C80 187.239 82.2386 185 85 185H115C117.761 185 120 187.239 120 190V220C120 222.761 117.761 225 115 225H85C82.2386 225 80 222.761 80 220V190Z" fill="#3C1B68"/>
<path opacity="0.5" d="M304 190C304 187.239 306.239 185 309 185H339C341.761 185 344 187.239 344 190V220C344 222.761 341.761 225 339 225H309C306.239 225 304 222.761 304 220V190Z" fill="#3C1B68"/>
<path d="M35 190C35 187.239 37.2386 185 40 185H70C72.7614 185 75 187.239 75 190V220C75 222.761 72.7614 225 70 225H40C37.2386 225 35 222.761 35 220V190Z" fill="#3C1B68"/>
<path opacity="0.5" d="M259 190C259 187.239 261.239 185 264 185H294C296.761 185 299 187.239 299 190V220C299 222.761 296.761 225 294 225H264C261.239 225 259 222.761 259 220V190Z" fill="#3C1B68"/>
<path d="M124 190C124 187.239 126.239 185 129 185H159C161.761 185 164 187.239 164 190V220C164 222.761 161.761 225 159 225H129C126.239 225 124 222.761 124 220V190Z" fill="#3C1B68"/>
<path d="M169 190C169 187.239 171.239 185 174 185H204C206.761 185 209 187.239 209 190V220C209 222.761 206.761 225 204 225H174C171.239 225 169 222.761 169 220V190Z" fill="#3C1B68"/>
<path d="M214 190C214 187.239 216.239 185 219 185H249C251.761 185 254 187.239 254 190V220C254 222.761 251.761 225 249 225H219C216.239 225 214 222.761 214 220V190Z" fill="#3C1B68"/>
<circle cx="125" cy="234" r="40" fill="#212367"/>
<g clip-path="url(#clip0_355_2407)">
<path d="M125 252C134.975 252 143 243.975 143 234C143 224.025 134.975 216 125 216C115.025 216 107 224.025 107 234C107 243.975 115.025 252 125 252Z" fill="#2775CA"/>
<path d="M129.95 236.85C129.95 234.225 128.375 233.325 125.225 232.95C122.975 232.65 122.525 232.05 122.525 231C122.525 229.95 123.275 229.275 124.775 229.275C126.125 229.275 126.875 229.725 127.25 230.85C127.325 231.075 127.55 231.225 127.775 231.225H128.975C129.275 231.225 129.5 231 129.5 230.7V230.625C129.2 228.975 127.85 227.7 126.125 227.55V225.75C126.125 225.45 125.9 225.225 125.525 225.15H124.4C124.1 225.15 123.875 225.375 123.8 225.75V227.475C121.55 227.775 120.125 229.275 120.125 231.15C120.125 233.625 121.625 234.6 124.775 234.975C126.875 235.35 127.55 235.8 127.55 237C127.55 238.2 126.5 239.025 125.075 239.025C123.125 239.025 122.45 238.2 122.225 237.075C122.15 236.775 121.925 236.625 121.7 236.625H120.425C120.125 236.625 119.9 236.85 119.9 237.15V237.225C120.2 239.1 121.4 240.45 123.875 240.825V242.625C123.875 242.925 124.1 243.15 124.475 243.225H125.6C125.9 243.225 126.125 243 126.2 242.625V240.825C128.45 240.45 129.95 238.875 129.95 236.85Z" fill="white"/>
<path d="M121.175 244.725C115.325 242.625 112.325 236.1 114.5 230.325C115.625 227.175 118.1 224.775 121.175 223.65C121.475 223.5 121.625 223.275 121.625 222.9V221.85C121.625 221.55 121.475 221.325 121.175 221.25C121.1 221.25 120.95 221.25 120.875 221.325C113.75 223.575 109.85 231.15 112.1 238.275C113.45 242.475 116.675 245.7 120.875 247.05C121.175 247.2 121.475 247.05 121.55 246.75C121.625 246.675 121.625 246.6 121.625 246.45V245.4C121.625 245.175 121.4 244.875 121.175 244.725ZM129.125 221.325C128.825 221.175 128.525 221.325 128.45 221.625C128.375 221.7 128.375 221.775 128.375 221.925V222.975C128.375 223.275 128.6 223.575 128.825 223.725C134.675 225.825 137.675 232.35 135.5 238.125C134.375 241.275 131.9 243.675 128.825 244.8C128.525 244.95 128.375 245.175 128.375 245.55V246.6C128.375 246.9 128.525 247.125 128.825 247.2C128.9 247.2 129.05 247.2 129.125 247.125C136.25 244.875 140.15 237.3 137.9 230.175C136.55 225.9 133.25 222.675 129.125 221.325Z" fill="white"/>
</g>
<path d="M108.052 250.993C112.106 255.037 117.473 257.497 123.182 257.931C128.892 258.365 134.568 256.743 139.187 253.358C143.805 249.973 147.061 245.049 148.367 239.474C149.673 233.899 148.943 228.041 146.309 222.957C143.674 217.873 139.309 213.899 134.001 211.752C128.692 209.604 122.792 209.425 117.363 211.247C111.935 213.069 107.337 216.772 104.399 221.687C101.462 226.602 100.378 232.405 101.344 238.049" stroke="#5069DD" stroke-width="2" stroke-linecap="round" stroke-linejoin="round"/>
<path d="M98 237.217L101.631 240L105 237" stroke="#5069DD" stroke-width="2" stroke-linecap="round" stroke-linejoin="round"/>
<circle cx="95" cy="269" r="15" fill="#8E3ECD"/>
<path d="M94.705 263.5H96.145V274H94.705V265.39L93.025 266.8L92.095 265.69L94.705 263.5Z" fill="white"/>
<path d="M185 238.25C184.586 238.25 184.25 238.586 184.25 239C184.25 239.414 184.586 239.75 185 239.75V238.25ZM220 239L212.5 234.67V243.33L220 239ZM187.917 239.75C188.331 239.75 188.667 239.414 188.667 239C188.667 238.586 188.331 238.25 187.917 238.25V239.75ZM193.75 238.25C193.336 238.25 193 238.586 193 239C193 239.414 193.336 239.75 193.75 239.75V238.25ZM199.583 239.75C199.998 239.75 200.333 239.414 200.333 239C200.333 238.586 199.998 238.25 199.583 238.25V239.75ZM205.417 238.25C205.002 238.25 204.667 238.586 204.667 239C204.667 239.414 205.002 239.75 205.417 239.75V238.25ZM211.25 239.75C211.664 239.75 212 239.414 212 239C212 238.586 211.664 238.25 211.25 238.25V239.75ZM217.083 238.25C216.669 238.25 216.333 238.586 216.333 239C216.333 239.414 216.669 239.75 217.083 239.75V238.25ZM185 239V239.75H187.917V239V238.25H185V239ZM193.75 239V239.75H199.583V239V238.25H193.75V239ZM205.417 239V239.75H211.25V239V238.25H205.417V239ZM185 238.25C184.586 238.25 184.25 238.586 184.25 239C184.25 239.414 184.586 239.75 185 239.75V238.25ZM220 239L212.5 234.67V243.33L220 239ZM187.917 239.75C188.331 239.75 188.667 239.414 188.667 239C188.667 238.586 188.331 238.25 187.917 238.25V239.75ZM193.75 238.25C193.336 238.25 193 238.586 193 239C193 239.414 193.336 239.75 193.75 239.75V238.25ZM199.583 239.75C199.998 239.75 200.333 239.414 200.333 239C200.333 238.586 199.998 238.25 199.583 238.25V239.75ZM205.417 238.25C205.002 238.25 204.667 238.586 204.667 239C204.667 239.414 205.002 239.75 205.417 239.75V238.25ZM211.25 239.75C211.664 239.75 212 239.414 212 239C212 238.586 211.664 238.25 211.25 238.25V239.75ZM217.083 238.25C216.669 238.25 216.333 238.586 216.333 239C216.333 239.414 216.669 239.75 217.083 239.75V238.25ZM185 239V239.75H187.917V239V238.25H185V239ZM193.75 239V239.75H199.583V239V238.25H193.75V239ZM205.417 239V239.75H211.25V239V238.25H205.417V239Z" fill="#9A94B8"/>
<circle cx="285" cy="234" r="40" fill="#212367"/>
<g clip-path="url(#clip1_355_2407)">
<path d="M285 252C294.941 252 303 243.941 303 234C303 224.059 294.941 216 285 216C275.059 216 267 224.059 267 234C267 243.941 275.059 252 285 252Z" fill="#627EEA"/>
<path d="M285.56 220.5V230.479L293.994 234.247L285.56 220.5Z" fill="white" fill-opacity="0.602"/>
<path d="M285.56 220.5L277.125 234.247L285.56 230.479V220.5Z" fill="white"/>
<path d="M285.56 240.714V247.494L294 235.818L285.56 240.714Z" fill="white" fill-opacity="0.602"/>
<path d="M285.56 247.494V240.713L277.125 235.818L285.56 247.494Z" fill="white"/>
<path d="M285.56 239.145L293.994 234.248L285.56 230.481V239.145Z" fill="white" fill-opacity="0.2"/>
<path d="M277.125 234.248L285.56 239.145V230.481L277.125 234.248Z" fill="white" fill-opacity="0.602"/>
</g>
<circle cx="255" cy="269" r="15" fill="#8E3ECD"/>
<path d="M254.764 263.32C255.664 263.32 256.439 263.635 257.089 264.265C257.739 264.905 258.064 265.675 258.064 266.575C258.064 267.395 257.714 268.175 257.014 268.915L253.549 272.545H258.109V274H251.494V272.545L255.919 267.985C256.379 267.495 256.609 267.025 256.609 266.575C256.609 266.045 256.434 265.615 256.084 265.285C255.734 264.935 255.304 264.76 254.794 264.76C254.344 264.76 253.959 264.885 253.639 265.135C253.479 265.255 253.344 265.4 253.234 265.57C253.134 265.74 253.059 265.935 253.009 266.155L251.599 265.825C251.779 265.085 252.159 264.485 252.739 264.025C253.329 263.555 254.004 263.32 254.764 263.32Z" fill="white"/>
<rect x="291" y="194" width="34" height="18" rx="9" fill="#09AF8E"/>
<path d="M313 203C313 202.338 312.439 201.8 311.75 201.8H311.125V200C311.125 198.346 309.723 197 308 197C306.277 197 304.875 198.346 304.875 200V201.8H304.25C303.561 201.8 303 202.338 303 203V207.8C303 208.462 303.561 209 304.25 209H311.75C312.439 209 313 208.462 313 207.8V203ZM306.125 200C306.125 199.008 306.966 198.2 308 198.2C309.034 198.2 309.875 199.008 309.875 200V201.8H306.125V200Z" fill="white"/>
<defs>
<clipPath id="clip0_355_2407">
<rect width="36" height="36" fill="white" transform="translate(107 216)"/>
</clipPath>
<clipPath id="clip1_355_2407">
<rect width="36" height="36" fill="white" transform="translate(267 216)"/>
</clipPath>
</defs>
</svg>
