<svg width="51" height="29" viewBox="0 0 51 29" fill="none" xmlns="http://www.w3.org/2000/svg">
<rect x="0.48877" width="50" height="28" rx="14" transform="rotate(1 0.48877 0)" fill="#112540"/>
<g clip-path="url(#clip0_343_2283)">
<circle cx="36.2389" cy="14.6262" r="12" transform="rotate(1 36.2389 14.6262)" fill="#09AF8E"/>
<path d="M36.1168 21.6251C36.0293 21.6236 35.9482 21.6163 35.8734 21.6031C35.7986 21.59 35.7239 21.571 35.6494 21.546C33.9714 20.985 32.645 19.9783 31.6702 18.5259C30.6954 17.0734 30.2225 15.5201 30.2513 13.8659L30.3098 10.517C30.3149 10.2217 30.4103 9.95749 30.5959 9.72441C30.7815 9.49132 31.0187 9.32413 31.3075 9.22283L35.8347 7.70667C36.0107 7.65066 36.1862 7.62418 36.3611 7.62724C36.5361 7.63029 36.7106 7.66288 36.8845 7.72499L41.356 9.39822C41.6416 9.50955 41.8731 9.68493 42.0504 9.92435C42.2278 10.1638 42.3136 10.4311 42.308 10.7264L42.2495 14.0753C42.2206 15.729 41.6938 17.2649 40.6689 18.6829C39.6439 20.1009 38.2832 21.0608 36.5867 21.5624C36.5113 21.5847 36.436 21.6011 36.3608 21.6116C36.2856 21.6221 36.2043 21.6266 36.1168 21.6251Z" fill="white"/>
</g>
<defs>
<clipPath id="clip0_343_2283">
<rect width="24" height="24" fill="white" transform="translate(24.4502 2.41858) rotate(1)"/>
</clipPath>
</defs>
</svg>
