<svg width="380" height="284" viewBox="0 0 380 284" fill="none" xmlns="http://www.w3.org/2000/svg">
<g clip-path="url(#clip0_347_2237)">
<mask id="path-1-inside-1_347_2237" fill="white">
<path d="M1.00012 55C1.00012 49.4772 5.47727 45 11.0001 45H371C376.523 45 381 49.4772 381 55V75C381 80.5228 376.523 85 371 85H11.0001C5.47728 85 1.00012 80.5228 1.00012 75V55Z"/>
</mask>
<path d="M1.00012 55C1.00012 49.4772 5.47727 45 11.0001 45H371C376.523 45 381 49.4772 381 55V75C381 80.5228 376.523 85 371 85H11.0001C5.47728 85 1.00012 80.5228 1.00012 75V55Z" fill="#1D1446"/>
<path d="M11.0001 45V46H371V45V44H11.0001V45ZM381 55H380V75H381H382V55H381ZM371 85V84H11.0001V85V86H371V85ZM1.00012 75H2.00012V55H1.00012H0.00012207V75H1.00012ZM11.0001 85V84C6.02957 84 2.00012 79.9706 2.00012 75H1.00012H0.00012207C0.00012207 81.0751 4.925 86 11.0001 86V85ZM381 75H380C380 79.9706 375.971 84 371 84V85V86C377.075 86 382 81.0751 382 75H381ZM371 45V46C375.971 46 380 50.0294 380 55H381H382C382 48.9249 377.075 44 371 44V45ZM11.0001 45V44C4.92499 44 0.00012207 48.9249 0.00012207 55H1.00012H2.00012C2.00012 50.0294 6.02956 46 11.0001 46V45Z" fill="#1D1446" mask="url(#path-1-inside-1_347_2237)"/>
<g clip-path="url(#clip1_347_2237)">
<path d="M357 72C361.433 72 365 68.4334 365 64C365 59.5666 361.433 56 357 56C352.567 56 349 59.5666 349 64C349 68.4334 352.567 72 357 72Z" fill="#2775CA"/>
<path d="M359.2 65.2667C359.2 64.1 358.5 63.7 357.1 63.5334C356.1 63.4 355.9 63.1334 355.9 62.6667C355.9 62.1999 356.234 61.9 356.9 61.9C357.5 61.9 357.834 62.1 358 62.6C358.034 62.7 358.134 62.7667 358.234 62.7667H358.767C358.9 62.7667 359 62.6667 359 62.5334V62.5C358.867 61.7667 358.267 61.2 357.5 61.1334V60.3334C357.5 60.2 357.4 60.1 357.234 60.0667H356.734C356.6 60.0667 356.5 60.1667 356.467 60.3334V61.1C355.467 61.2334 354.834 61.9 354.834 62.7334C354.834 63.8334 355.5 64.2667 356.9 64.4334C357.834 64.6 358.134 64.8 358.134 65.3334C358.134 65.8667 357.667 66.2334 357.034 66.2334C356.167 66.2334 355.867 65.8667 355.767 65.3667C355.734 65.2334 355.634 65.1667 355.534 65.1667H354.967C354.834 65.1667 354.734 65.2667 354.734 65.4V65.4334C354.867 66.2667 355.4 66.8667 356.5 67.0334V67.8334C356.5 67.9667 356.6 68.0667 356.767 68.1H357.267C357.4 68.1 357.5 68 357.534 67.8334V67.0334C358.534 66.8667 359.2 66.1667 359.2 65.2667Z" fill="white"/>
<path d="M355.3 68.7667C352.7 67.8334 351.367 64.9334 352.333 62.3667C352.833 60.9667 353.933 59.9 355.3 59.4C355.433 59.3334 355.5 59.2334 355.5 59.0667V58.6C355.5 58.4667 355.433 58.3667 355.3 58.3334C355.267 58.3334 355.2 58.3334 355.167 58.3667C352 59.3667 350.267 62.7334 351.267 65.9C351.867 67.7667 353.3 69.2 355.167 69.8C355.3 69.8667 355.433 69.8 355.467 69.6667C355.5 69.6334 355.5 69.6 355.5 69.5334V69.0667C355.5 68.9667 355.4 68.8334 355.3 68.7667ZM358.833 58.3667C358.7 58.3 358.567 58.3667 358.533 58.5C358.5 58.5334 358.5 58.5667 358.5 58.6334V59.1C358.5 59.2334 358.6 59.3667 358.7 59.4334C361.3 60.3667 362.633 63.2667 361.667 65.8334C361.167 67.2334 360.067 68.3 358.7 68.8C358.567 68.8667 358.5 68.9667 358.5 69.1334V69.6C358.5 69.7334 358.567 69.8334 358.7 69.8667C358.733 69.8667 358.8 69.8667 358.833 69.8334C362 68.8334 363.733 65.4667 362.733 62.3C362.133 60.4 360.667 58.9667 358.833 58.3667Z" fill="white"/>
</g>
<path d="M19.8734 58.485L21.1784 59.1L18.2984 65.19H21.2684V62.28H22.7084V65.19H24.4934V66.645H22.7084V69H21.2684V66.645H16.7084V65.19L19.8734 58.485ZM29.6979 59.775C29.4679 59.775 29.2479 59.805 29.0379 59.865C28.8379 59.915 28.6479 60 28.4679 60.12C28.2979 60.23 28.1379 60.365 27.9879 60.525C27.8479 60.675 27.7229 60.845 27.6129 61.035C27.5129 61.235 27.4229 61.44 27.3429 61.65C27.2729 61.86 27.2129 62.08 27.1629 62.31C27.1129 62.54 27.0729 62.775 27.0429 63.015C27.0129 63.245 26.9979 63.49 26.9979 63.75C26.9979 64 27.0129 64.245 27.0429 64.485C27.0729 64.725 27.1129 64.96 27.1629 65.19C27.2129 65.42 27.2729 65.64 27.3429 65.85C27.4229 66.06 27.5129 66.265 27.6129 66.465C27.7229 66.655 27.8479 66.825 27.9879 66.975C28.1379 67.125 28.2979 67.26 28.4679 67.38C28.8279 67.61 29.2379 67.725 29.6979 67.725C29.9379 67.725 30.1579 67.7 30.3579 67.65C30.5679 67.59 30.7579 67.5 30.9279 67.38C31.1079 67.26 31.2679 67.125 31.4079 66.975C31.5579 66.825 31.6829 66.655 31.7829 66.465C31.8929 66.265 31.9879 66.06 32.0679 65.85C32.1479 65.64 32.2129 65.42 32.2629 65.19C32.3129 64.96 32.3479 64.725 32.3679 64.485C32.3879 64.245 32.3979 64 32.3979 63.75C32.3979 63.49 32.3879 63.245 32.3679 63.015C32.3479 62.775 32.3129 62.54 32.2629 62.31C32.2129 62.08 32.1479 61.86 32.0679 61.65C31.9879 61.44 31.8929 61.235 31.7829 61.035C31.6829 60.845 31.5579 60.675 31.4079 60.525C31.2679 60.365 31.1079 60.23 30.9279 60.12C30.5779 59.89 30.1679 59.775 29.6979 59.775ZM29.6979 58.32C30.4979 58.32 31.2029 58.55 31.8129 59.01C32.2029 59.28 32.5329 59.61 32.8029 60C33.0829 60.38 33.3079 60.82 33.4779 61.32C33.5979 61.7 33.6879 62.095 33.7479 62.505C33.8179 62.905 33.8529 63.32 33.8529 63.75C33.8529 64.18 33.8179 64.6 33.7479 65.01C33.6879 65.41 33.5979 65.8 33.4779 66.18C33.3079 66.68 33.0829 67.125 32.8029 67.515C32.5329 67.895 32.2029 68.22 31.8129 68.49C31.2029 68.95 30.4979 69.18 29.6979 69.18C28.8979 69.18 28.1929 68.95 27.5829 68.49C27.2029 68.22 26.8729 67.895 26.5929 67.515C26.3229 67.125 26.1079 66.68 25.9479 66.18C25.8179 65.8 25.7179 65.41 25.6479 65.01C25.5879 64.6 25.5579 64.18 25.5579 63.75C25.5579 63.32 25.5879 62.905 25.6479 62.505C25.7179 62.095 25.8179 61.7 25.9479 61.32C26.1079 60.82 26.3229 60.38 26.5929 60C26.8729 59.61 27.2029 59.28 27.5829 59.01C28.1929 58.55 28.8979 58.32 29.6979 58.32ZM39.234 59.775C39.004 59.775 38.784 59.805 38.574 59.865C38.374 59.915 38.184 60 38.004 60.12C37.834 60.23 37.674 60.365 37.524 60.525C37.384 60.675 37.259 60.845 37.149 61.035C37.049 61.235 36.959 61.44 36.879 61.65C36.809 61.86 36.749 62.08 36.699 62.31C36.649 62.54 36.609 62.775 36.579 63.015C36.549 63.245 36.534 63.49 36.534 63.75C36.534 64 36.549 64.245 36.579 64.485C36.609 64.725 36.649 64.96 36.699 65.19C36.749 65.42 36.809 65.64 36.879 65.85C36.959 66.06 37.049 66.265 37.149 66.465C37.259 66.655 37.384 66.825 37.524 66.975C37.674 67.125 37.834 67.26 38.004 67.38C38.364 67.61 38.774 67.725 39.234 67.725C39.474 67.725 39.694 67.7 39.894 67.65C40.104 67.59 40.294 67.5 40.464 67.38C40.644 67.26 40.804 67.125 40.944 66.975C41.094 66.825 41.219 66.655 41.319 66.465C41.429 66.265 41.524 66.06 41.604 65.85C41.684 65.64 41.749 65.42 41.799 65.19C41.849 64.96 41.884 64.725 41.904 64.485C41.924 64.245 41.934 64 41.934 63.75C41.934 63.49 41.924 63.245 41.904 63.015C41.884 62.775 41.849 62.54 41.799 62.31C41.749 62.08 41.684 61.86 41.604 61.65C41.524 61.44 41.429 61.235 41.319 61.035C41.219 60.845 41.094 60.675 40.944 60.525C40.804 60.365 40.644 60.23 40.464 60.12C40.114 59.89 39.704 59.775 39.234 59.775ZM39.234 58.32C40.034 58.32 40.739 58.55 41.349 59.01C41.739 59.28 42.069 59.61 42.339 60C42.619 60.38 42.844 60.82 43.014 61.32C43.134 61.7 43.224 62.095 43.284 62.505C43.354 62.905 43.389 63.32 43.389 63.75C43.389 64.18 43.354 64.6 43.284 65.01C43.224 65.41 43.134 65.8 43.014 66.18C42.844 66.68 42.619 67.125 42.339 67.515C42.069 67.895 41.739 68.22 41.349 68.49C40.739 68.95 40.034 69.18 39.234 69.18C38.434 69.18 37.729 68.95 37.119 68.49C36.739 68.22 36.409 67.895 36.129 67.515C35.859 67.125 35.644 66.68 35.484 66.18C35.354 65.8 35.254 65.41 35.184 65.01C35.124 64.6 35.094 64.18 35.094 63.75C35.094 63.32 35.124 62.905 35.184 62.505C35.254 62.095 35.354 61.7 35.484 61.32C35.644 60.82 35.859 60.38 36.129 60C36.409 59.61 36.739 59.28 37.119 59.01C37.729 58.55 38.434 58.32 39.234 58.32Z" fill="white"/>
<mask id="path-7-inside-2_347_2237" fill="white">
<path d="M1.00012 24C1.00012 20.6863 3.68641 18 7.00012 18H35.0001C38.3138 18 41.0001 20.6863 41.0001 24C41.0001 27.3137 38.3138 30 35.0001 30H7.00012C3.68641 30 1.00012 27.3137 1.00012 24Z"/>
</mask>
<path d="M1.00012 24C1.00012 20.6863 3.68641 18 7.00012 18H35.0001C38.3138 18 41.0001 20.6863 41.0001 24C41.0001 27.3137 38.3138 30 35.0001 30H7.00012C3.68641 30 1.00012 27.3137 1.00012 24Z" fill="#ACA9BB" fill-opacity="0.08"/>
<path d="M7.00012 18V19H35.0001V18V17H7.00012V18ZM35.0001 30V29H7.00012V30V31H35.0001V30ZM7.00012 30V29C4.2387 29 2.00012 26.7614 2.00012 24H1.00012H0.00012207C0.00012207 27.866 3.13413 31 7.00012 31V30ZM41.0001 24H40.0001C40.0001 26.7614 37.7615 29 35.0001 29V30V31C38.8661 31 42.0001 27.866 42.0001 24H41.0001ZM35.0001 18V19C37.7615 19 40.0001 21.2386 40.0001 24H41.0001H42.0001C42.0001 20.134 38.8661 17 35.0001 17V18ZM7.00012 18V17C3.13413 17 0.00012207 20.134 0.00012207 24H1.00012H2.00012C2.00012 21.2386 4.2387 19 7.00012 19V18Z" fill="#1D1446" mask="url(#path-7-inside-2_347_2237)"/>
<g opacity="0.3">
<mask id="path-9-inside-3_347_2237" fill="white">
<path d="M0.00012207 142C0.00012207 136.477 4.47727 132 10.0001 132H370C375.523 132 380 136.477 380 142V182C380 187.523 375.523 192 370 192H10.0001C4.47728 192 0.00012207 187.523 0.00012207 182V142Z"/>
</mask>
<path d="M0.00012207 142C0.00012207 136.477 4.47727 132 10.0001 132H370C375.523 132 380 136.477 380 142V182C380 187.523 375.523 192 370 192H10.0001C4.47728 192 0.00012207 187.523 0.00012207 182V142Z" fill="#1D1446"/>
<path d="M6.36378 190.779C6.1087 190.674 5.81616 190.795 5.71039 191.05C5.60461 191.305 5.72564 191.597 5.98072 191.703L6.36378 190.779ZM0.297066 186.019C0.402843 186.274 0.695376 186.396 0.950456 186.29C1.20554 186.184 1.32657 185.891 1.22079 185.636L0.297066 186.019ZM0.500122 178.667C0.500122 178.391 0.276264 178.167 0.00012207 178.167C-0.27602 178.167 -0.499878 178.391 -0.499878 178.667H0.500122ZM-0.499878 172C-0.499878 172.276 -0.27602 172.5 0.00012207 172.5C0.276264 172.5 0.500122 172.276 0.500122 172H-0.499878ZM0.500122 165.333C0.500122 165.057 0.276264 164.833 0.00012207 164.833C-0.27602 164.833 -0.499878 165.057 -0.499878 165.333H0.500122ZM-0.499878 158.667C-0.499878 158.943 -0.27602 159.167 0.00012207 159.167C0.276264 159.167 0.500122 158.943 0.500122 158.667H-0.499878ZM0.500122 152C0.500122 151.724 0.276264 151.5 0.00012207 151.5C-0.27602 151.5 -0.499878 151.724 -0.499878 152H0.500122ZM-0.499878 145.333C-0.499878 145.609 -0.27602 145.833 0.00012207 145.833C0.276264 145.833 0.500122 145.609 0.500122 145.333H-0.499878ZM1.22079 138.364C1.32657 138.109 1.20553 137.816 0.950454 137.71C0.695374 137.604 0.402842 137.726 0.297064 137.981L1.22079 138.364ZM5.98072 132.297C5.72564 132.403 5.6046 132.695 5.71038 132.95C5.81616 133.205 6.10869 133.326 6.36377 133.221L5.98072 132.297ZM13.0001 132.5C13.2763 132.5 13.5001 132.276 13.5001 132C13.5001 131.724 13.2763 131.5 13.0001 131.5V132.5ZM19.0001 131.5C18.724 131.5 18.5001 131.724 18.5001 132C18.5001 132.276 18.724 132.5 19.0001 132.5V131.5ZM25.0001 132.5C25.2763 132.5 25.5001 132.276 25.5001 132C25.5001 131.724 25.2763 131.5 25.0001 131.5V132.5ZM31.0001 131.5C30.724 131.5 30.5001 131.724 30.5001 132C30.5001 132.276 30.724 132.5 31.0001 132.5V131.5ZM37.0001 132.5C37.2763 132.5 37.5001 132.276 37.5001 132C37.5001 131.724 37.2763 131.5 37.0001 131.5V132.5ZM43.0001 131.5C42.724 131.5 42.5001 131.724 42.5001 132C42.5001 132.276 42.724 132.5 43.0001 132.5V131.5ZM49.0001 132.5C49.2763 132.5 49.5001 132.276 49.5001 132C49.5001 131.724 49.2763 131.5 49.0001 131.5V132.5ZM55.0001 131.5C54.724 131.5 54.5001 131.724 54.5001 132C54.5001 132.276 54.724 132.5 55.0001 132.5V131.5ZM61.0001 132.5C61.2763 132.5 61.5001 132.276 61.5001 132C61.5001 131.724 61.2763 131.5 61.0001 131.5V132.5ZM67.0001 131.5C66.724 131.5 66.5001 131.724 66.5001 132C66.5001 132.276 66.724 132.5 67.0001 132.5V131.5ZM73.0001 132.5C73.2763 132.5 73.5001 132.276 73.5001 132C73.5001 131.724 73.2763 131.5 73.0001 131.5V132.5ZM79.0001 131.5C78.724 131.5 78.5001 131.724 78.5001 132C78.5001 132.276 78.724 132.5 79.0001 132.5V131.5ZM85.0001 132.5C85.2763 132.5 85.5001 132.276 85.5001 132C85.5001 131.724 85.2763 131.5 85.0001 131.5V132.5ZM91.0001 131.5C90.724 131.5 90.5001 131.724 90.5001 132C90.5001 132.276 90.724 132.5 91.0001 132.5V131.5ZM97.0001 132.5C97.2763 132.5 97.5001 132.276 97.5001 132C97.5001 131.724 97.2763 131.5 97.0001 131.5V132.5ZM103 131.5C102.724 131.5 102.5 131.724 102.5 132C102.5 132.276 102.724 132.5 103 132.5V131.5ZM109 132.5C109.276 132.5 109.5 132.276 109.5 132C109.5 131.724 109.276 131.5 109 131.5V132.5ZM115 131.5C114.724 131.5 114.5 131.724 114.5 132C114.5 132.276 114.724 132.5 115 132.5V131.5ZM121 132.5C121.276 132.5 121.5 132.276 121.5 132C121.5 131.724 121.276 131.5 121 131.5V132.5ZM127 131.5C126.724 131.5 126.5 131.724 126.5 132C126.5 132.276 126.724 132.5 127 132.5V131.5ZM133 132.5C133.276 132.5 133.5 132.276 133.5 132C133.5 131.724 133.276 131.5 133 131.5V132.5ZM139 131.5C138.724 131.5 138.5 131.724 138.5 132C138.5 132.276 138.724 132.5 139 132.5V131.5ZM145 132.5C145.276 132.5 145.5 132.276 145.5 132C145.5 131.724 145.276 131.5 145 131.5V132.5ZM151 131.5C150.724 131.5 150.5 131.724 150.5 132C150.5 132.276 150.724 132.5 151 132.5V131.5ZM157 132.5C157.276 132.5 157.5 132.276 157.5 132C157.5 131.724 157.276 131.5 157 131.5V132.5ZM163 131.5C162.724 131.5 162.5 131.724 162.5 132C162.5 132.276 162.724 132.5 163 132.5V131.5ZM169 132.5C169.276 132.5 169.5 132.276 169.5 132C169.5 131.724 169.276 131.5 169 131.5V132.5ZM175 131.5C174.724 131.5 174.5 131.724 174.5 132C174.5 132.276 174.724 132.5 175 132.5V131.5ZM181 132.5C181.276 132.5 181.5 132.276 181.5 132C181.5 131.724 181.276 131.5 181 131.5V132.5ZM187 131.5C186.724 131.5 186.5 131.724 186.5 132C186.5 132.276 186.724 132.5 187 132.5V131.5ZM193 132.5C193.276 132.5 193.5 132.276 193.5 132C193.5 131.724 193.276 131.5 193 131.5V132.5ZM199 131.5C198.724 131.5 198.5 131.724 198.5 132C198.5 132.276 198.724 132.5 199 132.5V131.5ZM205 132.5C205.276 132.5 205.5 132.276 205.5 132C205.5 131.724 205.276 131.5 205 131.5V132.5ZM211 131.5C210.724 131.5 210.5 131.724 210.5 132C210.5 132.276 210.724 132.5 211 132.5V131.5ZM217 132.5C217.276 132.5 217.5 132.276 217.5 132C217.5 131.724 217.276 131.5 217 131.5V132.5ZM223 131.5C222.724 131.5 222.5 131.724 222.5 132C222.5 132.276 222.724 132.5 223 132.5V131.5ZM229 132.5C229.276 132.5 229.5 132.276 229.5 132C229.5 131.724 229.276 131.5 229 131.5V132.5ZM235 131.5C234.724 131.5 234.5 131.724 234.5 132C234.5 132.276 234.724 132.5 235 132.5V131.5ZM241 132.5C241.276 132.5 241.5 132.276 241.5 132C241.5 131.724 241.276 131.5 241 131.5V132.5ZM247 131.5C246.724 131.5 246.5 131.724 246.5 132C246.5 132.276 246.724 132.5 247 132.5V131.5ZM253 132.5C253.276 132.5 253.5 132.276 253.5 132C253.5 131.724 253.276 131.5 253 131.5V132.5ZM259 131.5C258.724 131.5 258.5 131.724 258.5 132C258.5 132.276 258.724 132.5 259 132.5V131.5ZM265 132.5C265.276 132.5 265.5 132.276 265.5 132C265.5 131.724 265.276 131.5 265 131.5V132.5ZM271 131.5C270.724 131.5 270.5 131.724 270.5 132C270.5 132.276 270.724 132.5 271 132.5V131.5ZM277 132.5C277.276 132.5 277.5 132.276 277.5 132C277.5 131.724 277.276 131.5 277 131.5V132.5ZM283 131.5C282.724 131.5 282.5 131.724 282.5 132C282.5 132.276 282.724 132.5 283 132.5V131.5ZM289 132.5C289.276 132.5 289.5 132.276 289.5 132C289.5 131.724 289.276 131.5 289 131.5V132.5ZM295 131.5C294.724 131.5 294.5 131.724 294.5 132C294.5 132.276 294.724 132.5 295 132.5V131.5ZM301 132.5C301.276 132.5 301.5 132.276 301.5 132C301.5 131.724 301.276 131.5 301 131.5V132.5ZM307 131.5C306.724 131.5 306.5 131.724 306.5 132C306.5 132.276 306.724 132.5 307 132.5V131.5ZM313 132.5C313.276 132.5 313.5 132.276 313.5 132C313.5 131.724 313.276 131.5 313 131.5V132.5ZM319 131.5C318.724 131.5 318.5 131.724 318.5 132C318.5 132.276 318.724 132.5 319 132.5V131.5ZM325 132.5C325.276 132.5 325.5 132.276 325.5 132C325.5 131.724 325.276 131.5 325 131.5V132.5ZM331 131.5C330.724 131.5 330.5 131.724 330.5 132C330.5 132.276 330.724 132.5 331 132.5V131.5ZM337 132.5C337.276 132.5 337.5 132.276 337.5 132C337.5 131.724 337.276 131.5 337 131.5V132.5ZM343 131.5C342.724 131.5 342.5 131.724 342.5 132C342.5 132.276 342.724 132.5 343 132.5V131.5ZM349 132.5C349.276 132.5 349.5 132.276 349.5 132C349.5 131.724 349.276 131.5 349 131.5V132.5ZM355 131.5C354.724 131.5 354.5 131.724 354.5 132C354.5 132.276 354.724 132.5 355 132.5V131.5ZM361 132.5C361.276 132.5 361.5 132.276 361.5 132C361.5 131.724 361.276 131.5 361 131.5V132.5ZM367 131.5C366.724 131.5 366.5 131.724 366.5 132C366.5 132.276 366.724 132.5 367 132.5V131.5ZM373.636 133.221C373.892 133.326 374.184 133.205 374.29 132.95C374.396 132.695 374.275 132.403 374.02 132.297L373.636 133.221ZM379.703 137.981C379.597 137.726 379.305 137.604 379.05 137.71C378.795 137.816 378.674 138.109 378.779 138.364L379.703 137.981ZM379.5 145.333C379.5 145.609 379.724 145.833 380 145.833C380.276 145.833 380.5 145.609 380.5 145.333H379.5ZM380.5 152C380.5 151.724 380.276 151.5 380 151.5C379.724 151.5 379.5 151.724 379.5 152H380.5ZM379.5 158.667C379.5 158.943 379.724 159.167 380 159.167C380.276 159.167 380.5 158.943 380.5 158.667H379.5ZM380.5 165.333C380.5 165.057 380.276 164.833 380 164.833C379.724 164.833 379.5 165.057 379.5 165.333H380.5ZM379.5 172C379.5 172.276 379.724 172.5 380 172.5C380.276 172.5 380.5 172.276 380.5 172H379.5ZM380.5 178.667C380.5 178.391 380.276 178.167 380 178.167C379.724 178.167 379.5 178.391 379.5 178.667H380.5ZM378.779 185.636C378.674 185.891 378.795 186.184 379.05 186.29C379.305 186.396 379.597 186.274 379.703 186.019L378.779 185.636ZM374.02 191.703C374.275 191.597 374.396 191.305 374.29 191.05C374.184 190.795 373.892 190.674 373.636 190.779L374.02 191.703ZM367 191.5C366.724 191.5 366.5 191.724 366.5 192C366.5 192.276 366.724 192.5 367 192.5V191.5ZM361 192.5C361.276 192.5 361.5 192.276 361.5 192C361.5 191.724 361.276 191.5 361 191.5V192.5ZM355 191.5C354.724 191.5 354.5 191.724 354.5 192C354.5 192.276 354.724 192.5 355 192.5V191.5ZM349 192.5C349.276 192.5 349.5 192.276 349.5 192C349.5 191.724 349.276 191.5 349 191.5V192.5ZM343 191.5C342.724 191.5 342.5 191.724 342.5 192C342.5 192.276 342.724 192.5 343 192.5V191.5ZM337 192.5C337.276 192.5 337.5 192.276 337.5 192C337.5 191.724 337.276 191.5 337 191.5V192.5ZM331 191.5C330.724 191.5 330.5 191.724 330.5 192C330.5 192.276 330.724 192.5 331 192.5V191.5ZM325 192.5C325.276 192.5 325.5 192.276 325.5 192C325.5 191.724 325.276 191.5 325 191.5V192.5ZM319 191.5C318.724 191.5 318.5 191.724 318.5 192C318.5 192.276 318.724 192.5 319 192.5V191.5ZM313 192.5C313.276 192.5 313.5 192.276 313.5 192C313.5 191.724 313.276 191.5 313 191.5V192.5ZM307 191.5C306.724 191.5 306.5 191.724 306.5 192C306.5 192.276 306.724 192.5 307 192.5V191.5ZM301 192.5C301.276 192.5 301.5 192.276 301.5 192C301.5 191.724 301.276 191.5 301 191.5V192.5ZM295 191.5C294.724 191.5 294.5 191.724 294.5 192C294.5 192.276 294.724 192.5 295 192.5V191.5ZM289 192.5C289.276 192.5 289.5 192.276 289.5 192C289.5 191.724 289.276 191.5 289 191.5V192.5ZM283 191.5C282.724 191.5 282.5 191.724 282.5 192C282.5 192.276 282.724 192.5 283 192.5V191.5ZM277 192.5C277.276 192.5 277.5 192.276 277.5 192C277.5 191.724 277.276 191.5 277 191.5V192.5ZM271 191.5C270.724 191.5 270.5 191.724 270.5 192C270.5 192.276 270.724 192.5 271 192.5V191.5ZM265 192.5C265.276 192.5 265.5 192.276 265.5 192C265.5 191.724 265.276 191.5 265 191.5V192.5ZM259 191.5C258.724 191.5 258.5 191.724 258.5 192C258.5 192.276 258.724 192.5 259 192.5V191.5ZM253 192.5C253.276 192.5 253.5 192.276 253.5 192C253.5 191.724 253.276 191.5 253 191.5V192.5ZM247 191.5C246.724 191.5 246.5 191.724 246.5 192C246.5 192.276 246.724 192.5 247 192.5V191.5ZM241 192.5C241.276 192.5 241.5 192.276 241.5 192C241.5 191.724 241.276 191.5 241 191.5V192.5ZM235 191.5C234.724 191.5 234.5 191.724 234.5 192C234.5 192.276 234.724 192.5 235 192.5V191.5ZM229 192.5C229.276 192.5 229.5 192.276 229.5 192C229.5 191.724 229.276 191.5 229 191.5V192.5ZM223 191.5C222.724 191.5 222.5 191.724 222.5 192C222.5 192.276 222.724 192.5 223 192.5V191.5ZM217 192.5C217.276 192.5 217.5 192.276 217.5 192C217.5 191.724 217.276 191.5 217 191.5V192.5ZM211 191.5C210.724 191.5 210.5 191.724 210.5 192C210.5 192.276 210.724 192.5 211 192.5V191.5ZM205 192.5C205.276 192.5 205.5 192.276 205.5 192C205.5 191.724 205.276 191.5 205 191.5V192.5ZM199 191.5C198.724 191.5 198.5 191.724 198.5 192C198.5 192.276 198.724 192.5 199 192.5V191.5ZM193 192.5C193.276 192.5 193.5 192.276 193.5 192C193.5 191.724 193.276 191.5 193 191.5V192.5ZM187 191.5C186.724 191.5 186.5 191.724 186.5 192C186.5 192.276 186.724 192.5 187 192.5V191.5ZM181 192.5C181.276 192.5 181.5 192.276 181.5 192C181.5 191.724 181.276 191.5 181 191.5V192.5ZM175 191.5C174.724 191.5 174.5 191.724 174.5 192C174.5 192.276 174.724 192.5 175 192.5V191.5ZM169 192.5C169.276 192.5 169.5 192.276 169.5 192C169.5 191.724 169.276 191.5 169 191.5V192.5ZM163 191.5C162.724 191.5 162.5 191.724 162.5 192C162.5 192.276 162.724 192.5 163 192.5V191.5ZM157 192.5C157.276 192.5 157.5 192.276 157.5 192C157.5 191.724 157.276 191.5 157 191.5V192.5ZM151 191.5C150.724 191.5 150.5 191.724 150.5 192C150.5 192.276 150.724 192.5 151 192.5V191.5ZM145 192.5C145.276 192.5 145.5 192.276 145.5 192C145.5 191.724 145.276 191.5 145 191.5V192.5ZM139 191.5C138.724 191.5 138.5 191.724 138.5 192C138.5 192.276 138.724 192.5 139 192.5V191.5ZM133 192.5C133.276 192.5 133.5 192.276 133.5 192C133.5 191.724 133.276 191.5 133 191.5V192.5ZM127 191.5C126.724 191.5 126.5 191.724 126.5 192C126.5 192.276 126.724 192.5 127 192.5V191.5ZM121 192.5C121.276 192.5 121.5 192.276 121.5 192C121.5 191.724 121.276 191.5 121 191.5V192.5ZM115 191.5C114.724 191.5 114.5 191.724 114.5 192C114.5 192.276 114.724 192.5 115 192.5V191.5ZM109 192.5C109.276 192.5 109.5 192.276 109.5 192C109.5 191.724 109.276 191.5 109 191.5V192.5ZM103 191.5C102.724 191.5 102.5 191.724 102.5 192C102.5 192.276 102.724 192.5 103 192.5V191.5ZM97.0001 192.5C97.2763 192.5 97.5001 192.276 97.5001 192C97.5001 191.724 97.2763 191.5 97.0001 191.5V192.5ZM91.0001 191.5C90.724 191.5 90.5001 191.724 90.5001 192C90.5001 192.276 90.724 192.5 91.0001 192.5V191.5ZM85.0001 192.5C85.2763 192.5 85.5001 192.276 85.5001 192C85.5001 191.724 85.2763 191.5 85.0001 191.5V192.5ZM79.0001 191.5C78.724 191.5 78.5001 191.724 78.5001 192C78.5001 192.276 78.724 192.5 79.0001 192.5V191.5ZM73.0001 192.5C73.2763 192.5 73.5001 192.276 73.5001 192C73.5001 191.724 73.2763 191.5 73.0001 191.5V192.5ZM67.0001 191.5C66.724 191.5 66.5001 191.724 66.5001 192C66.5001 192.276 66.724 192.5 67.0001 192.5V191.5ZM61.0001 192.5C61.2763 192.5 61.5001 192.276 61.5001 192C61.5001 191.724 61.2763 191.5 61.0001 191.5V192.5ZM55.0001 191.5C54.724 191.5 54.5001 191.724 54.5001 192C54.5001 192.276 54.724 192.5 55.0001 192.5V191.5ZM49.0001 192.5C49.2763 192.5 49.5001 192.276 49.5001 192C49.5001 191.724 49.2763 191.5 49.0001 191.5V192.5ZM43.0001 191.5C42.724 191.5 42.5001 191.724 42.5001 192C42.5001 192.276 42.724 192.5 43.0001 192.5V191.5ZM37.0001 192.5C37.2763 192.5 37.5001 192.276 37.5001 192C37.5001 191.724 37.2763 191.5 37.0001 191.5V192.5ZM31.0001 191.5C30.724 191.5 30.5001 191.724 30.5001 192C30.5001 192.276 30.724 192.5 31.0001 192.5V191.5ZM25.0001 192.5C25.2763 192.5 25.5001 192.276 25.5001 192C25.5001 191.724 25.2763 191.5 25.0001 191.5V192.5ZM19.0001 191.5C18.724 191.5 18.5001 191.724 18.5001 192C18.5001 192.276 18.724 192.5 19.0001 192.5V191.5ZM13.0001 192.5C13.2763 192.5 13.5001 192.276 13.5001 192C13.5001 191.724 13.2763 191.5 13.0001 191.5V192.5ZM10.0001 192V191.5C8.71109 191.5 7.48321 191.244 6.36378 190.779L6.17225 191.241L5.98072 191.703C7.21945 192.217 8.57734 192.5 10.0001 192.5V192ZM0.758928 185.828L1.22079 185.636C0.756582 184.517 0.500122 183.289 0.500122 182H0.00012207H-0.499878C-0.499878 183.423 -0.216614 184.781 0.297066 186.019L0.758928 185.828ZM0.00012207 182H0.500122V178.667H0.00012207H-0.499878V182H0.00012207ZM0.00012207 172H0.500122V165.333H0.00012207H-0.499878V172H0.00012207ZM0.00012207 158.667H0.500122V152H0.00012207H-0.499878V158.667H0.00012207ZM0.00012207 145.333H0.500122V142H0.00012207H-0.499878V145.333H0.00012207ZM0.00012207 142H0.500122C0.500122 140.711 0.756581 139.483 1.22079 138.364L0.758927 138.172L0.297064 137.981C-0.216614 139.219 -0.499878 140.577 -0.499878 142H0.00012207ZM6.17224 132.759L6.36377 133.221C7.4832 132.756 8.71108 132.5 10.0001 132.5V132V131.5C8.57733 131.5 7.21944 131.783 5.98072 132.297L6.17224 132.759ZM10.0001 132V132.5H13.0001V132V131.5H10.0001V132ZM19.0001 132V132.5H25.0001V132V131.5H19.0001V132ZM31.0001 132V132.5H37.0001V132V131.5H31.0001V132ZM43.0001 132V132.5H49.0001V132V131.5H43.0001V132ZM55.0001 132V132.5H61.0001V132V131.5H55.0001V132ZM67.0001 132V132.5H73.0001V132V131.5H67.0001V132ZM79.0001 132V132.5H85.0001V132V131.5H79.0001V132ZM91.0001 132V132.5H97.0001V132V131.5H91.0001V132ZM103 132V132.5H109V132V131.5H103V132ZM115 132V132.5H121V132V131.5H115V132ZM127 132V132.5H133V132V131.5H127V132ZM139 132V132.5H145V132V131.5H139V132ZM151 132V132.5H157V132V131.5H151V132ZM163 132V132.5H169V132V131.5H163V132ZM175 132V132.5H181V132V131.5H175V132ZM187 132V132.5H193V132V131.5H187V132ZM199 132V132.5H205V132V131.5H199V132ZM211 132V132.5H217V132V131.5H211V132ZM223 132V132.5H229V132V131.5H223V132ZM235 132V132.5H241V132V131.5H235V132ZM247 132V132.5H253V132V131.5H247V132ZM259 132V132.5H265V132V131.5H259V132ZM271 132V132.5H277V132V131.5H271V132ZM283 132V132.5H289V132V131.5H283V132ZM295 132V132.5H301V132V131.5H295V132ZM307 132V132.5H313V132V131.5H307V132ZM319 132V132.5H325V132V131.5H319V132ZM331 132V132.5H337V132V131.5H331V132ZM343 132V132.5H349V132V131.5H343V132ZM355 132V132.5H361V132V131.5H355V132ZM367 132V132.5H370V132V131.5H367V132ZM370 132V132.5C371.289 132.5 372.517 132.756 373.636 133.221L373.828 132.759L374.02 132.297C372.781 131.783 371.423 131.5 370 131.5V132ZM379.241 138.172L378.779 138.364C379.244 139.483 379.5 140.711 379.5 142H380H380.5C380.5 140.577 380.217 139.219 379.703 137.981L379.241 138.172ZM380 142H379.5V145.333H380H380.5V142H380ZM380 152H379.5V158.667H380H380.5V152H380ZM380 165.333H379.5V172H380H380.5V165.333H380ZM380 178.667H379.5V182H380H380.5V178.667H380ZM380 182H379.5C379.5 183.289 379.244 184.517 378.779 185.636L379.241 185.828L379.703 186.019C380.217 184.781 380.5 183.423 380.5 182H380ZM373.828 191.241L373.636 190.779C372.517 191.244 371.289 191.5 370 191.5V192V192.5C371.423 192.5 372.781 192.217 374.02 191.703L373.828 191.241ZM370 192V191.5H367V192V192.5H370V192ZM361 192V191.5H355V192V192.5H361V192ZM349 192V191.5H343V192V192.5H349V192ZM337 192V191.5H331V192V192.5H337V192ZM325 192V191.5H319V192V192.5H325V192ZM313 192V191.5H307V192V192.5H313V192ZM301 192V191.5H295V192V192.5H301V192ZM289 192V191.5H283V192V192.5H289V192ZM277 192V191.5H271V192V192.5H277V192ZM265 192V191.5H259V192V192.5H265V192ZM253 192V191.5H247V192V192.5H253V192ZM241 192V191.5H235V192V192.5H241V192ZM229 192V191.5H223V192V192.5H229V192ZM217 192V191.5H211V192V192.5H217V192ZM205 192V191.5H199V192V192.5H205V192ZM193 192V191.5H187V192V192.5H193V192ZM181 192V191.5H175V192V192.5H181V192ZM169 192V191.5H163V192V192.5H169V192ZM157 192V191.5H151V192V192.5H157V192ZM145 192V191.5H139V192V192.5H145V192ZM133 192V191.5H127V192V192.5H133V192ZM121 192V191.5H115V192V192.5H121V192ZM109 192V191.5H103V192V192.5H109V192ZM97.0001 192V191.5H91.0001V192V192.5H97.0001V192ZM85.0001 192V191.5H79.0001V192V192.5H85.0001V192ZM73.0001 192V191.5H67.0001V192V192.5H73.0001V192ZM61.0001 192V191.5H55.0001V192V192.5H61.0001V192ZM49.0001 192V191.5H43.0001V192V192.5H49.0001V192ZM37.0001 192V191.5H31.0001V192V192.5H37.0001V192ZM25.0001 192V191.5H19.0001V192V192.5H25.0001V192ZM13.0001 192V191.5H10.0001V192V192.5H13.0001V192ZM6.5553 190.317C6.04514 190.106 5.46008 190.348 5.24852 190.858C5.03697 191.368 5.27904 191.953 5.7892 192.165L6.5553 190.317ZM-0.164797 186.211C0.0467578 186.721 0.631823 186.963 1.14198 186.752C1.65214 186.54 1.89421 185.955 1.68265 185.445L-0.164797 186.211ZM1.00012 178.667C1.00012 178.114 0.552407 177.667 0.00012207 177.667C-0.552163 177.667 -0.999878 178.114 -0.999878 178.667H1.00012ZM-0.999878 172C-0.999878 172.552 -0.552163 173 0.00012207 173C0.552407 173 1.00012 172.552 1.00012 172H-0.999878ZM1.00012 165.333C1.00012 164.781 0.552407 164.333 0.00012207 164.333C-0.552163 164.333 -0.999878 164.781 -0.999878 165.333H1.00012ZM-0.999878 158.667C-0.999878 159.219 -0.552163 159.667 0.00012207 159.667C0.552407 159.667 1.00012 159.219 1.00012 158.667H-0.999878ZM1.00012 152C1.00012 151.448 0.552407 151 0.00012207 151C-0.552163 151 -0.999878 151.448 -0.999878 152H1.00012ZM-0.999878 145.333C-0.999878 145.886 -0.552163 146.333 0.00012207 146.333C0.552407 146.333 1.00012 145.886 1.00012 145.333H-0.999878ZM1.68265 138.555C1.89421 138.045 1.65214 137.46 1.14198 137.248C0.631822 137.037 0.0467563 137.279 -0.164799 137.789L1.68265 138.555ZM5.78919 131.835C5.27903 132.047 5.03696 132.632 5.24852 133.142C5.46007 133.652 6.04514 133.894 6.5553 133.683L5.78919 131.835ZM13.0001 133C13.5524 133 14.0001 132.552 14.0001 132C14.0001 131.448 13.5524 131 13.0001 131V133ZM19.0001 131C18.4478 131 18.0001 131.448 18.0001 132C18.0001 132.552 18.4478 133 19.0001 133V131ZM25.0001 133C25.5524 133 26.0001 132.552 26.0001 132C26.0001 131.448 25.5524 131 25.0001 131V133ZM31.0001 131C30.4478 131 30.0001 131.448 30.0001 132C30.0001 132.552 30.4478 133 31.0001 133V131ZM37.0001 133C37.5524 133 38.0001 132.552 38.0001 132C38.0001 131.448 37.5524 131 37.0001 131V133ZM43.0001 131C42.4478 131 42.0001 131.448 42.0001 132C42.0001 132.552 42.4478 133 43.0001 133V131ZM49.0001 133C49.5524 133 50.0001 132.552 50.0001 132C50.0001 131.448 49.5524 131 49.0001 131V133ZM55.0001 131C54.4478 131 54.0001 131.448 54.0001 132C54.0001 132.552 54.4478 133 55.0001 133V131ZM61.0001 133C61.5524 133 62.0001 132.552 62.0001 132C62.0001 131.448 61.5524 131 61.0001 131V133ZM67.0001 131C66.4478 131 66.0001 131.448 66.0001 132C66.0001 132.552 66.4478 133 67.0001 133V131ZM73.0001 133C73.5524 133 74.0001 132.552 74.0001 132C74.0001 131.448 73.5524 131 73.0001 131V133ZM79.0001 131C78.4478 131 78.0001 131.448 78.0001 132C78.0001 132.552 78.4478 133 79.0001 133V131ZM85.0001 133C85.5524 133 86.0001 132.552 86.0001 132C86.0001 131.448 85.5524 131 85.0001 131V133ZM91.0001 131C90.4478 131 90.0001 131.448 90.0001 132C90.0001 132.552 90.4478 133 91.0001 133V131ZM97.0001 133C97.5524 133 98.0001 132.552 98.0001 132C98.0001 131.448 97.5524 131 97.0001 131V133ZM103 131C102.448 131 102 131.448 102 132C102 132.552 102.448 133 103 133V131ZM109 133C109.552 133 110 132.552 110 132C110 131.448 109.552 131 109 131V133ZM115 131C114.448 131 114 131.448 114 132C114 132.552 114.448 133 115 133V131ZM121 133C121.552 133 122 132.552 122 132C122 131.448 121.552 131 121 131V133ZM127 131C126.448 131 126 131.448 126 132C126 132.552 126.448 133 127 133V131ZM133 133C133.552 133 134 132.552 134 132C134 131.448 133.552 131 133 131V133ZM139 131C138.448 131 138 131.448 138 132C138 132.552 138.448 133 139 133V131ZM145 133C145.552 133 146 132.552 146 132C146 131.448 145.552 131 145 131V133ZM151 131C150.448 131 150 131.448 150 132C150 132.552 150.448 133 151 133V131ZM157 133C157.552 133 158 132.552 158 132C158 131.448 157.552 131 157 131V133ZM163 131C162.448 131 162 131.448 162 132C162 132.552 162.448 133 163 133V131ZM169 133C169.552 133 170 132.552 170 132C170 131.448 169.552 131 169 131V133ZM175 131C174.448 131 174 131.448 174 132C174 132.552 174.448 133 175 133V131ZM181 133C181.552 133 182 132.552 182 132C182 131.448 181.552 131 181 131V133ZM187 131C186.448 131 186 131.448 186 132C186 132.552 186.448 133 187 133V131ZM193 133C193.552 133 194 132.552 194 132C194 131.448 193.552 131 193 131V133ZM199 131C198.448 131 198 131.448 198 132C198 132.552 198.448 133 199 133V131ZM205 133C205.552 133 206 132.552 206 132C206 131.448 205.552 131 205 131V133ZM211 131C210.448 131 210 131.448 210 132C210 132.552 210.448 133 211 133V131ZM217 133C217.552 133 218 132.552 218 132C218 131.448 217.552 131 217 131V133ZM223 131C222.448 131 222 131.448 222 132C222 132.552 222.448 133 223 133V131ZM229 133C229.552 133 230 132.552 230 132C230 131.448 229.552 131 229 131V133ZM235 131C234.448 131 234 131.448 234 132C234 132.552 234.448 133 235 133V131ZM241 133C241.552 133 242 132.552 242 132C242 131.448 241.552 131 241 131V133ZM247 131C246.448 131 246 131.448 246 132C246 132.552 246.448 133 247 133V131ZM253 133C253.552 133 254 132.552 254 132C254 131.448 253.552 131 253 131V133ZM259 131C258.448 131 258 131.448 258 132C258 132.552 258.448 133 259 133V131ZM265 133C265.552 133 266 132.552 266 132C266 131.448 265.552 131 265 131V133ZM271 131C270.448 131 270 131.448 270 132C270 132.552 270.448 133 271 133V131ZM277 133C277.552 133 278 132.552 278 132C278 131.448 277.552 131 277 131V133ZM283 131C282.448 131 282 131.448 282 132C282 132.552 282.448 133 283 133V131ZM289 133C289.552 133 290 132.552 290 132C290 131.448 289.552 131 289 131V133ZM295 131C294.448 131 294 131.448 294 132C294 132.552 294.448 133 295 133V131ZM301 133C301.552 133 302 132.552 302 132C302 131.448 301.552 131 301 131V133ZM307 131C306.448 131 306 131.448 306 132C306 132.552 306.448 133 307 133V131ZM313 133C313.552 133 314 132.552 314 132C314 131.448 313.552 131 313 131V133ZM319 131C318.448 131 318 131.448 318 132C318 132.552 318.448 133 319 133V131ZM325 133C325.552 133 326 132.552 326 132C326 131.448 325.552 131 325 131V133ZM331 131C330.448 131 330 131.448 330 132C330 132.552 330.448 133 331 133V131ZM337 133C337.552 133 338 132.552 338 132C338 131.448 337.552 131 337 131V133ZM343 131C342.448 131 342 131.448 342 132C342 132.552 342.448 133 343 133V131ZM349 133C349.552 133 350 132.552 350 132C350 131.448 349.552 131 349 131V133ZM355 131C354.448 131 354 131.448 354 132C354 132.552 354.448 133 355 133V131ZM361 133C361.552 133 362 132.552 362 132C362 131.448 361.552 131 361 131V133ZM367 131C366.448 131 366 131.448 366 132C366 132.552 366.448 133 367 133V131ZM373.445 133.683C373.955 133.894 374.54 133.652 374.752 133.142C374.963 132.632 374.721 132.047 374.211 131.835L373.445 133.683ZM380.165 137.789C379.953 137.279 379.368 137.037 378.858 137.248C378.348 137.46 378.106 138.045 378.318 138.555L380.165 137.789ZM379 145.333C379 145.886 379.448 146.333 380 146.333C380.552 146.333 381 145.886 381 145.333H379ZM381 152C381 151.448 380.552 151 380 151C379.448 151 379 151.448 379 152H381ZM379 158.667C379 159.219 379.448 159.667 380 159.667C380.552 159.667 381 159.219 381 158.667H379ZM381 165.333C381 164.781 380.552 164.333 380 164.333C379.448 164.333 379 164.781 379 165.333H381ZM379 172C379 172.552 379.448 173 380 173C380.552 173 381 172.552 381 172H379ZM381 178.667C381 178.114 380.552 177.667 380 177.667C379.448 177.667 379 178.114 379 178.667H381ZM378.318 185.445C378.106 185.955 378.348 186.54 378.858 186.752C379.368 186.963 379.953 186.721 380.165 186.211L378.318 185.445ZM374.211 192.165C374.721 191.953 374.963 191.368 374.752 190.858C374.54 190.348 373.955 190.106 373.445 190.317L374.211 192.165ZM367 191C366.448 191 366 191.448 366 192C366 192.552 366.448 193 367 193V191ZM361 193C361.552 193 362 192.552 362 192C362 191.448 361.552 191 361 191V193ZM355 191C354.448 191 354 191.448 354 192C354 192.552 354.448 193 355 193V191ZM349 193C349.552 193 350 192.552 350 192C350 191.448 349.552 191 349 191V193ZM343 191C342.448 191 342 191.448 342 192C342 192.552 342.448 193 343 193V191ZM337 193C337.552 193 338 192.552 338 192C338 191.448 337.552 191 337 191V193ZM331 191C330.448 191 330 191.448 330 192C330 192.552 330.448 193 331 193V191ZM325 193C325.552 193 326 192.552 326 192C326 191.448 325.552 191 325 191V193ZM319 191C318.448 191 318 191.448 318 192C318 192.552 318.448 193 319 193V191ZM313 193C313.552 193 314 192.552 314 192C314 191.448 313.552 191 313 191V193ZM307 191C306.448 191 306 191.448 306 192C306 192.552 306.448 193 307 193V191ZM301 193C301.552 193 302 192.552 302 192C302 191.448 301.552 191 301 191V193ZM295 191C294.448 191 294 191.448 294 192C294 192.552 294.448 193 295 193V191ZM289 193C289.552 193 290 192.552 290 192C290 191.448 289.552 191 289 191V193ZM283 191C282.448 191 282 191.448 282 192C282 192.552 282.448 193 283 193V191ZM277 193C277.552 193 278 192.552 278 192C278 191.448 277.552 191 277 191V193ZM271 191C270.448 191 270 191.448 270 192C270 192.552 270.448 193 271 193V191ZM265 193C265.552 193 266 192.552 266 192C266 191.448 265.552 191 265 191V193ZM259 191C258.448 191 258 191.448 258 192C258 192.552 258.448 193 259 193V191ZM253 193C253.552 193 254 192.552 254 192C254 191.448 253.552 191 253 191V193ZM247 191C246.448 191 246 191.448 246 192C246 192.552 246.448 193 247 193V191ZM241 193C241.552 193 242 192.552 242 192C242 191.448 241.552 191 241 191V193ZM235 191C234.448 191 234 191.448 234 192C234 192.552 234.448 193 235 193V191ZM229 193C229.552 193 230 192.552 230 192C230 191.448 229.552 191 229 191V193ZM223 191C222.448 191 222 191.448 222 192C222 192.552 222.448 193 223 193V191ZM217 193C217.552 193 218 192.552 218 192C218 191.448 217.552 191 217 191V193ZM211 191C210.448 191 210 191.448 210 192C210 192.552 210.448 193 211 193V191ZM205 193C205.552 193 206 192.552 206 192C206 191.448 205.552 191 205 191V193ZM199 191C198.448 191 198 191.448 198 192C198 192.552 198.448 193 199 193V191ZM193 193C193.552 193 194 192.552 194 192C194 191.448 193.552 191 193 191V193ZM187 191C186.448 191 186 191.448 186 192C186 192.552 186.448 193 187 193V191ZM181 193C181.552 193 182 192.552 182 192C182 191.448 181.552 191 181 191V193ZM175 191C174.448 191 174 191.448 174 192C174 192.552 174.448 193 175 193V191ZM169 193C169.552 193 170 192.552 170 192C170 191.448 169.552 191 169 191V193ZM163 191C162.448 191 162 191.448 162 192C162 192.552 162.448 193 163 193V191ZM157 193C157.552 193 158 192.552 158 192C158 191.448 157.552 191 157 191V193ZM151 191C150.448 191 150 191.448 150 192C150 192.552 150.448 193 151 193V191ZM145 193C145.552 193 146 192.552 146 192C146 191.448 145.552 191 145 191V193ZM139 191C138.448 191 138 191.448 138 192C138 192.552 138.448 193 139 193V191ZM133 193C133.552 193 134 192.552 134 192C134 191.448 133.552 191 133 191V193ZM127 191C126.448 191 126 191.448 126 192C126 192.552 126.448 193 127 193V191ZM121 193C121.552 193 122 192.552 122 192C122 191.448 121.552 191 121 191V193ZM115 191C114.448 191 114 191.448 114 192C114 192.552 114.448 193 115 193V191ZM109 193C109.552 193 110 192.552 110 192C110 191.448 109.552 191 109 191V193ZM103 191C102.448 191 102 191.448 102 192C102 192.552 102.448 193 103 193V191ZM97.0001 193C97.5524 193 98.0001 192.552 98.0001 192C98.0001 191.448 97.5524 191 97.0001 191V193ZM91.0001 191C90.4479 191 90.0001 191.448 90.0001 192C90.0001 192.552 90.4479 193 91.0001 193V191ZM85.0001 193C85.5524 193 86.0001 192.552 86.0001 192C86.0001 191.448 85.5524 191 85.0001 191V193ZM79.0001 191C78.4478 191 78.0001 191.448 78.0001 192C78.0001 192.552 78.4478 193 79.0001 193V191ZM73.0001 193C73.5524 193 74.0001 192.552 74.0001 192C74.0001 191.448 73.5524 191 73.0001 191V193ZM67.0001 191C66.4479 191 66.0001 191.448 66.0001 192C66.0001 192.552 66.4479 193 67.0001 193V191ZM61.0001 193C61.5524 193 62.0001 192.552 62.0001 192C62.0001 191.448 61.5524 191 61.0001 191V193ZM55.0001 191C54.4478 191 54.0001 191.448 54.0001 192C54.0001 192.552 54.4478 193 55.0001 193V191ZM49.0001 193C49.5524 193 50.0001 192.552 50.0001 192C50.0001 191.448 49.5524 191 49.0001 191V193ZM43.0001 191C42.4478 191 42.0001 191.448 42.0001 192C42.0001 192.552 42.4478 193 43.0001 193V191ZM37.0001 193C37.5524 193 38.0001 192.552 38.0001 192C38.0001 191.448 37.5524 191 37.0001 191V193ZM31.0001 191C30.4478 191 30.0001 191.448 30.0001 192C30.0001 192.552 30.4478 193 31.0001 193V191ZM25.0001 193C25.5524 193 26.0001 192.552 26.0001 192C26.0001 191.448 25.5524 191 25.0001 191V193ZM19.0001 191C18.4478 191 18.0001 191.448 18.0001 192C18.0001 192.552 18.4478 193 19.0001 193V191ZM13.0001 193C13.5524 193 14.0001 192.552 14.0001 192C14.0001 191.448 13.5524 191 13.0001 191V193ZM10.0001 192V191C8.77796 191 7.61509 190.757 6.5553 190.317L6.17225 191.241L5.7892 192.165C7.08757 192.703 8.51046 193 10.0001 193V192ZM0.758928 185.828L1.68265 185.445C1.24318 184.385 1.00012 183.222 1.00012 182H0.00012207H-0.999878C-0.999878 183.49 -0.703211 184.913 -0.164797 186.211L0.758928 185.828ZM0.00012207 182H1.00012V178.667H0.00012207H-0.999878V182H0.00012207ZM0.00012207 172H1.00012V165.333H0.00012207H-0.999878V172H0.00012207ZM0.00012207 158.667H1.00012V152H0.00012207H-0.999878V158.667H0.00012207ZM0.00012207 145.333H1.00012V142H0.00012207H-0.999878V145.333H0.00012207ZM0.00012207 142H1.00012C1.00012 140.778 1.24318 139.615 1.68265 138.555L0.758927 138.172L-0.164799 137.789C-0.703212 139.087 -0.999878 140.51 -0.999878 142H0.00012207ZM6.17224 132.759L6.5553 133.683C7.61508 133.243 8.77796 133 10.0001 133V132V131C8.51046 131 7.08756 131.297 5.78919 131.835L6.17224 132.759ZM10.0001 132V133H13.0001V132V131H10.0001V132ZM19.0001 132V133H25.0001V132V131H19.0001V132ZM31.0001 132V133H37.0001V132V131H31.0001V132ZM43.0001 132V133H49.0001V132V131H43.0001V132ZM55.0001 132V133H61.0001V132V131H55.0001V132ZM67.0001 132V133H73.0001V132V131H67.0001V132ZM79.0001 132V133H85.0001V132V131H79.0001V132ZM91.0001 132V133H97.0001V132V131H91.0001V132ZM103 132V133H109V132V131H103V132ZM115 132V133H121V132V131H115V132ZM127 132V133H133V132V131H127V132ZM139 132V133H145V132V131H139V132ZM151 132V133H157V132V131H151V132ZM163 132V133H169V132V131H163V132ZM175 132V133H181V132V131H175V132ZM187 132V133H193V132V131H187V132ZM199 132V133H205V132V131H199V132ZM211 132V133H217V132V131H211V132ZM223 132V133H229V132V131H223V132ZM235 132V133H241V132V131H235V132ZM247 132V133H253V132V131H247V132ZM259 132V133H265V132V131H259V132ZM271 132V133H277V132V131H271V132ZM283 132V133H289V132V131H283V132ZM295 132V133H301V132V131H295V132ZM307 132V133H313V132V131H307V132ZM319 132V133H325V132V131H319V132ZM331 132V133H337V132V131H331V132ZM343 132V133H349V132V131H343V132ZM355 132V133H361V132V131H355V132ZM367 132V133H370V132V131H367V132ZM370 132V133C371.222 133 372.385 133.243 373.445 133.683L373.828 132.759L374.211 131.835C372.913 131.297 371.49 131 370 131V132ZM379.241 138.172L378.318 138.555C378.757 139.615 379 140.778 379 142H380H381C381 140.51 380.703 139.087 380.165 137.789L379.241 138.172ZM380 142H379V145.333H380H381V142H380ZM380 152H379V158.667H380H381V152H380ZM380 165.333H379V172H380H381V165.333H380ZM380 178.667H379V182H380H381V178.667H380ZM380 182H379C379 183.222 378.757 184.385 378.318 185.445L379.241 185.828L380.165 186.211C380.703 184.913 381 183.49 381 182H380ZM373.828 191.241L373.445 190.317C372.385 190.757 371.222 191 370 191V192V193C371.49 193 372.913 192.703 374.211 192.165L373.828 191.241ZM370 192V191H367V192V193H370V192ZM361 192V191H355V192V193H361V192ZM349 192V191H343V192V193H349V192ZM337 192V191H331V192V193H337V192ZM325 192V191H319V192V193H325V192ZM313 192V191H307V192V193H313V192ZM301 192V191H295V192V193H301V192ZM289 192V191H283V192V193H289V192ZM277 192V191H271V192V193H277V192ZM265 192V191H259V192V193H265V192ZM253 192V191H247V192V193H253V192ZM241 192V191H235V192V193H241V192ZM229 192V191H223V192V193H229V192ZM217 192V191H211V192V193H217V192ZM205 192V191H199V192V193H205V192ZM193 192V191H187V192V193H193V192ZM181 192V191H175V192V193H181V192ZM169 192V191H163V192V193H169V192ZM157 192V191H151V192V193H157V192ZM145 192V191H139V192V193H145V192ZM133 192V191H127V192V193H133V192ZM121 192V191H115V192V193H121V192ZM109 192V191H103V192V193H109V192ZM97.0001 192V191H91.0001V192V193H97.0001V192ZM85.0001 192V191H79.0001V192V193H85.0001V192ZM73.0001 192V191H67.0001V192V193H73.0001V192ZM61.0001 192V191H55.0001V192V193H61.0001V192ZM49.0001 192V191H43.0001V192V193H49.0001V192ZM37.0001 192V191H31.0001V192V193H37.0001V192ZM25.0001 192V191H19.0001V192V193H25.0001V192ZM13.0001 192V191H10.0001V192V193H13.0001V192Z" fill="#9A94B8" mask="url(#path-9-inside-3_347_2237)"/>
</g>
<mask id="path-11-inside-4_347_2237" fill="white">
<path d="M0.475867 124.992C0.572254 119.47 5.12686 115.071 10.6489 115.168L370.594 121.45C376.116 121.547 380.514 126.101 380.418 131.623L379.72 171.617C379.624 177.139 375.069 181.538 369.547 181.441L9.60173 175.158C4.07972 175.062 -0.318617 170.507 -0.22223 164.985L0.475867 124.992Z"/>
</mask>
<path d="M0.475867 124.992C0.572254 119.47 5.12686 115.071 10.6489 115.168L370.594 121.45C376.116 121.547 380.514 126.101 380.418 131.623L379.72 171.617C379.624 177.139 375.069 181.538 369.547 181.441L9.60173 175.158C4.07972 175.062 -0.318617 170.507 -0.22223 164.985L0.475867 124.992Z" fill="#1D1446"/>
<path d="M10.6489 115.168L10.6314 116.167L370.577 122.45L370.594 121.45L370.611 120.451L10.6663 114.168L10.6489 115.168ZM380.418 131.623L379.418 131.606L378.72 171.6L379.72 171.617L380.72 171.635L381.418 131.641L380.418 131.623ZM369.547 181.441L369.564 180.442L9.61918 174.159L9.60173 175.158L9.58428 176.158L369.529 182.441L369.547 181.441ZM-0.22223 164.985L0.777618 165.003L1.47571 125.009L0.475867 124.992L-0.523981 124.974L-1.22208 164.968L-0.22223 164.985ZM9.60173 175.158L9.61918 174.159C4.64938 174.072 0.69087 169.973 0.777618 165.003L-0.22223 164.985L-1.22208 164.968C-1.3281 171.042 3.51007 176.052 9.58428 176.158L9.60173 175.158ZM379.72 171.617L378.72 171.6C378.633 176.57 374.534 180.528 369.564 180.442L369.547 181.441L369.529 182.441C375.604 182.547 380.614 177.709 380.72 171.635L379.72 171.617ZM370.594 121.45L370.577 122.45C375.546 122.537 379.505 126.636 379.418 131.606L380.418 131.623L381.418 131.641C381.524 125.567 376.686 120.557 370.611 120.451L370.594 121.45ZM10.6489 115.168L10.6663 114.168C4.59211 114.062 -0.417955 118.9 -0.523981 124.974L0.475867 124.992L1.47571 125.009C1.56246 120.039 5.66161 116.081 10.6314 116.167L10.6489 115.168Z" fill="#ACA9BB" fill-opacity="0.08" mask="url(#path-11-inside-4_347_2237)"/>
<path d="M16.7388 150.279L16.9221 139.781L23.3261 139.893L23.3007 141.347L18.3365 141.261L18.2844 144.245L22.2587 144.315L22.2336 145.754L18.2592 145.685L18.204 148.85L23.1682 148.936L23.1428 150.391L16.7388 150.279ZM31.9142 150.544L30.4594 150.519L30.5293 146.514C30.5411 145.834 30.3756 145.291 30.0326 144.885C29.6797 144.479 29.2332 144.271 28.6933 144.262C28.1534 144.253 27.705 144.445 27.348 144.839C26.9809 145.242 26.7915 145.779 26.7798 146.449L26.7099 150.453L25.2552 150.428L25.3861 142.929L26.7809 142.953L26.7657 143.823C26.7865 143.774 26.8122 143.734 26.8428 143.705C26.8834 143.665 26.919 143.631 26.9496 143.601C27.4591 143.06 28.1088 142.797 28.8987 142.81C29.8185 142.826 30.5675 143.18 31.1455 143.87C31.4295 144.215 31.6425 144.618 31.7845 145.081C31.9266 145.534 31.9929 146.035 31.9833 146.585L31.9142 150.544ZM39.5071 143.176L40.8569 143.199L40.726 150.698L39.3762 150.674L39.394 149.655C39.3632 149.704 39.3273 149.753 39.2864 149.803C39.2556 149.852 39.2198 149.897 39.1791 149.936C38.6085 150.536 37.8583 150.828 36.9285 150.812C35.8586 150.793 34.9854 150.398 34.3088 149.626C33.6223 148.844 33.2886 147.908 33.3076 146.818C33.3268 145.718 33.693 144.794 34.4061 144.047C35.1093 143.299 35.9958 142.934 37.0656 142.953C37.9955 142.969 38.7349 143.297 39.2838 143.937C39.3331 143.978 39.3723 144.023 39.4014 144.074C39.4305 144.124 39.4598 144.17 39.4891 144.21L39.5071 143.176ZM37.1305 144.394C36.4506 144.382 35.8915 144.613 35.4532 145.085C35.0049 145.557 34.7746 146.143 34.7624 146.843C34.7502 147.543 34.9598 148.137 35.3914 148.625C35.8129 149.112 36.3637 149.362 37.0436 149.373C37.7135 149.385 38.2576 149.155 38.6759 148.682C38.89 148.446 39.0496 148.183 39.1547 147.895C39.2699 147.597 39.3306 147.273 39.3367 146.923C39.343 146.563 39.2936 146.237 39.1887 145.945C39.0938 145.654 38.9435 145.386 38.7377 145.142C38.3361 144.655 37.8004 144.406 37.1305 144.394ZM46.4682 144.557C45.7983 144.546 45.2542 144.776 44.8359 145.249C44.6217 145.485 44.4571 145.747 44.3421 146.035C44.237 146.324 44.1814 146.648 44.1751 147.008C44.169 147.358 44.2133 147.683 44.3081 147.985C44.413 148.277 44.5683 148.545 44.7741 148.788C45.1757 149.275 45.7114 149.525 46.3813 149.536C47.0612 149.548 47.6203 149.318 48.0586 148.846C48.4969 148.373 48.7222 147.787 48.7344 147.087C48.7466 146.387 48.5419 145.794 48.1204 145.306C47.6988 144.819 47.1481 144.569 46.4682 144.557ZM46.5683 143.119C47.6382 143.137 48.5164 143.533 49.203 144.305C49.8897 145.077 50.2234 146.013 50.2042 147.113C50.1851 148.203 49.819 149.126 49.1056 149.884C48.3925 150.632 47.501 150.996 46.4311 150.978C45.5113 150.962 44.7767 150.644 44.2275 150.024C44.1982 149.983 44.1639 149.938 44.1248 149.887C44.0857 149.836 44.0466 149.786 44.0075 149.735L43.9897 150.755L42.6549 150.732L42.8381 140.233L44.2929 140.259L44.224 144.203C44.2649 144.154 44.3057 144.109 44.3464 144.07C44.3872 144.021 44.4331 143.972 44.484 143.923C45.0237 143.372 45.7185 143.104 46.5683 143.119ZM51.8309 140.39L53.2857 140.416L53.1024 150.914L51.6476 150.889L51.8309 140.39ZM61.9248 147.917L56.2557 147.819C56.311 148.09 56.3917 148.336 56.4978 148.558C56.614 148.78 56.7656 148.978 56.9526 149.151C57.366 149.528 57.8627 149.722 58.4426 149.732C59.2925 149.747 59.9616 149.518 60.4499 149.047L61.4517 150.1C60.6785 150.846 59.6671 151.209 58.4173 151.187C57.3374 151.168 56.4392 150.772 55.7226 150C55.0061 149.217 54.6574 148.281 54.6764 147.191C54.6956 146.091 55.0668 145.167 55.79 144.42C56.5231 143.673 57.4246 143.308 58.4944 143.327C59.5443 143.345 60.3826 143.735 61.0094 144.496C61.6464 145.247 61.955 146.188 61.9353 147.318L61.9248 147.917ZM58.4551 144.721C57.8852 144.712 57.397 144.888 56.9906 145.251C56.6046 145.594 56.3618 146.035 56.2624 146.573L60.3718 146.645C60.2916 146.084 60.0945 145.63 59.7805 145.285C59.4568 144.919 59.015 144.731 58.4551 144.721ZM67.3929 140.662L68.8327 140.687L74.1091 148.67L74.2468 140.781L75.6866 140.807L75.5034 151.305L74.0636 151.28L68.7871 143.297L68.6494 151.185L67.2096 151.16L67.3929 140.662ZM81.2 145.178C80.5201 145.167 79.961 145.392 79.5229 145.854C79.3087 146.091 79.1441 146.358 79.0288 146.656C78.9138 146.944 78.8532 147.263 78.8471 147.613C78.8351 148.303 79.0397 148.896 79.4611 149.394C79.8829 149.871 80.4337 150.116 81.1136 150.128C81.7935 150.14 82.3525 149.914 82.7906 149.452C83.0148 149.216 83.1794 148.954 83.2844 148.665C83.3996 148.367 83.4603 148.043 83.4664 147.693C83.4786 146.994 83.274 146.4 82.8524 145.912C82.4307 145.435 81.8799 145.19 81.2 145.178ZM81.2253 143.724C82.2952 143.742 83.1834 144.138 83.89 144.91C84.5867 145.683 84.9254 146.619 84.9062 147.719C84.8872 148.808 84.516 149.732 83.7927 150.49C83.0595 151.237 82.158 151.601 81.0882 151.582C80.0183 151.564 79.1301 151.168 78.4235 150.396C77.727 149.614 77.3883 148.677 77.4073 147.588C77.4265 146.488 77.7977 145.564 78.5209 144.817C79.254 144.069 80.1555 143.705 81.2253 143.724ZM88.2867 142.482L88.225 146.021L90.5946 146.063C91.0845 146.071 91.5075 145.903 91.8636 145.56C92.2194 145.226 92.4017 144.814 92.4102 144.324C92.4188 143.834 92.2511 143.411 91.9073 143.055C91.5633 142.709 91.1463 142.532 90.6564 142.523L88.2867 142.482ZM86.8723 141.002L90.6818 141.068C91.5716 141.084 92.326 141.412 92.9449 142.053C93.5638 142.694 93.8655 143.459 93.85 144.349C93.8386 144.999 93.6536 145.576 93.2947 146.08C92.9257 146.593 92.4591 146.965 91.895 147.195L93.723 151.623L92.1633 151.596L90.4492 147.515L88.1996 147.476L88.1289 151.525L86.6891 151.5L86.8723 141.002ZM102.158 148.62L96.4888 148.521C96.5441 148.792 96.6248 149.038 96.731 149.26C96.8471 149.482 96.9987 149.68 97.1857 149.853C97.5992 150.23 98.0959 150.424 98.6758 150.434C99.5256 150.449 100.195 150.221 100.683 149.749L101.685 150.802C100.912 151.548 99.9002 151.911 98.6504 151.889C97.5705 151.87 96.6723 151.474 95.9557 150.702C95.2392 149.919 94.8905 148.983 94.9095 147.893C94.9287 146.793 95.2999 145.87 96.0231 145.122C96.7562 144.375 97.6577 144.011 98.7276 144.029C99.7774 144.048 100.616 144.437 101.243 145.198C101.88 145.95 102.188 146.89 102.168 148.02L102.158 148.62ZM98.6882 145.424C98.1183 145.414 97.6302 145.59 97.2238 145.953C96.8377 146.297 96.595 146.737 96.4956 147.276L100.605 147.347C100.525 146.786 100.328 146.332 100.014 145.987C99.6899 145.621 99.2481 145.433 98.6882 145.424ZM103.466 151.793L103.649 141.295L105.104 141.32L104.997 147.469L108.021 144.371L109.986 144.406L107.022 147.444L110.035 151.908L108.25 151.877L106.013 148.522L104.959 149.599L104.921 151.818L103.466 151.793ZM111.75 142.096L113.204 142.122L113.164 144.461L115.323 144.499L115.298 145.939L113.138 145.901L113.088 148.796C113.08 149.275 113.237 149.683 113.562 150.019C113.886 150.355 114.288 150.527 114.768 150.535L115.203 150.543L115.177 151.998L114.742 151.99C113.873 151.975 113.133 151.652 112.524 151.021C111.915 150.39 111.618 149.64 111.633 148.77L111.684 145.876L110.424 145.854L110.449 144.414L111.709 144.436L111.75 142.096ZM122.163 143.073L122.096 146.957L124.3 146.996C124.83 147.005 125.294 146.818 125.69 146.435C126.077 146.062 126.275 145.61 126.284 145.08C126.293 144.56 126.111 144.102 125.738 143.706C125.355 143.319 124.898 143.121 124.368 143.112L122.163 143.073ZM120.749 141.593L124.393 141.657C125.333 141.673 126.127 142.017 126.776 142.689C127.424 143.36 127.74 144.166 127.724 145.105C127.707 146.045 127.363 146.839 126.692 147.488C126.02 148.146 125.215 148.467 124.275 148.451L122.07 148.412L122.006 152.117L120.566 152.092L120.749 141.593ZM129.023 144.738L130.417 144.762L130.399 145.842C130.429 145.803 130.465 145.763 130.506 145.724C130.547 145.675 130.587 145.63 130.628 145.591C130.882 145.346 131.166 145.14 131.479 144.976C131.963 144.734 132.515 144.619 133.135 144.63L133.11 146.085C132.4 146.072 131.791 146.287 131.283 146.728C130.765 147.179 130.475 147.764 130.412 148.483L130.347 152.262L128.892 152.237L129.023 144.738ZM137.573 146.162C136.893 146.151 136.334 146.376 135.896 146.838C135.682 147.075 135.517 147.342 135.402 147.64C135.287 147.928 135.226 148.247 135.22 148.597C135.208 149.287 135.413 149.88 135.834 150.378C136.256 150.855 136.807 151.1 137.487 151.112C138.167 151.124 138.726 150.898 139.164 150.436C139.388 150.2 139.553 149.938 139.658 149.649C139.773 149.351 139.834 149.027 139.84 148.677C139.852 147.978 139.647 147.384 139.226 146.896C138.804 146.419 138.253 146.174 137.573 146.162ZM137.599 144.708C138.668 144.726 139.557 145.122 140.263 145.894C140.96 146.667 141.299 147.603 141.279 148.703C141.26 149.792 140.889 150.716 140.166 151.474C139.433 152.221 138.531 152.585 137.461 152.566C136.392 152.548 135.503 152.152 134.797 151.38C134.1 150.598 133.762 149.661 133.781 148.572C133.8 147.472 134.171 146.548 134.894 145.801C135.627 145.053 136.529 144.689 137.599 144.708ZM143.444 142.649L144.899 142.675L144.858 145.014L147.018 145.052L146.993 146.492L144.833 146.454L144.782 149.349C144.774 149.829 144.932 150.237 145.256 150.572C145.58 150.908 145.982 151.08 146.462 151.088L146.897 151.096L146.872 152.551L146.437 152.543C145.567 152.528 144.827 152.205 144.218 151.574C143.609 150.944 143.312 150.193 143.328 149.323L143.378 146.429L142.118 146.407L142.143 144.967L143.403 144.989L143.444 142.649ZM155.104 149.544L149.435 149.445C149.49 149.716 149.571 149.962 149.677 150.184C149.793 150.406 149.945 150.604 150.132 150.777C150.545 151.155 151.042 151.348 151.622 151.358C152.472 151.373 153.141 151.145 153.629 150.673L154.631 151.726C153.858 152.473 152.846 152.835 151.596 152.813C150.517 152.794 149.618 152.399 148.902 151.626C148.185 150.843 147.837 149.907 147.856 148.817C147.875 147.717 148.246 146.794 148.969 146.046C149.702 145.299 150.604 144.935 151.674 144.953C152.723 144.972 153.562 145.361 154.189 146.122C154.826 146.874 155.134 147.814 155.114 148.944L155.104 149.544ZM151.634 146.348C151.064 146.338 150.576 146.514 150.17 146.877C149.784 147.221 149.541 147.662 149.442 148.2L153.551 148.272C153.471 147.71 153.274 147.257 152.96 146.911C152.636 146.545 152.194 146.358 151.634 146.348ZM159.875 145.097C160.935 145.115 161.819 145.511 162.525 146.283L161.502 147.3C161.061 146.812 160.51 146.563 159.85 146.551C159.17 146.539 158.611 146.765 158.173 147.227C157.735 147.7 157.509 148.286 157.497 148.986C157.485 149.676 157.69 150.269 158.111 150.767C158.533 151.244 159.084 151.489 159.764 151.501C160.424 151.512 160.983 151.282 161.441 150.81L162.428 151.862C161.695 152.609 160.798 152.974 159.738 152.955C158.668 152.937 157.78 152.541 157.074 151.769C156.377 150.986 156.038 150.05 156.057 148.96C156.077 147.861 156.448 146.937 157.171 146.19C157.904 145.442 158.806 145.078 159.875 145.097ZM164.491 143.017L165.945 143.042L165.905 145.382L168.064 145.42L168.039 146.859L165.879 146.822L165.829 149.716C165.821 150.196 165.978 150.604 166.303 150.94C166.627 151.275 167.029 151.447 167.509 151.456L167.944 151.463L167.918 152.918L167.483 152.911C166.614 152.895 165.874 152.572 165.265 151.942C164.656 151.311 164.359 150.561 164.374 149.691L164.425 146.796L163.165 146.774L163.19 145.334L164.45 145.356L164.491 143.017ZM169.45 152.945L169.581 145.446L171.021 145.471L170.89 152.97L169.45 152.945ZM171.258 143.03C171.254 143.28 171.165 143.488 170.992 143.655C170.809 143.832 170.593 143.918 170.343 143.914C170.093 143.91 169.884 143.816 169.717 143.633C169.54 143.46 169.454 143.248 169.458 142.998C169.463 142.749 169.557 142.535 169.74 142.358C169.913 142.191 170.124 142.11 170.374 142.114C170.624 142.119 170.837 142.207 171.014 142.381C171.181 142.563 171.263 142.78 171.258 143.03ZM176.415 146.84C175.735 146.829 175.176 147.054 174.738 147.516C174.524 147.753 174.359 148.02 174.244 148.318C174.129 148.606 174.068 148.925 174.062 149.275C174.05 149.965 174.255 150.558 174.676 151.056C175.098 151.533 175.649 151.778 176.329 151.79C177.008 151.802 177.567 151.576 178.006 151.114C178.23 150.878 178.394 150.616 178.499 150.327C178.615 150.029 178.675 149.705 178.681 149.355C178.694 148.656 178.489 148.062 178.067 147.574C177.646 147.097 177.095 146.852 176.415 146.84ZM176.44 145.386C177.51 145.404 178.398 145.8 179.105 146.572C179.802 147.345 180.14 148.281 180.121 149.381C180.102 150.47 179.731 151.394 179.008 152.152C178.274 152.899 177.373 153.263 176.303 153.244C175.233 153.226 174.345 152.83 173.638 152.058C172.942 151.276 172.603 150.339 172.622 149.25C172.642 148.15 173.013 147.226 173.736 146.479C174.469 145.731 175.371 145.367 176.44 145.386ZM188.233 153.273L186.778 153.247L186.848 149.243C186.86 148.563 186.695 148.02 186.352 147.614C185.999 147.208 185.552 147 185.012 146.991C184.472 146.981 184.024 147.173 183.667 147.567C183.3 147.971 183.111 148.508 183.099 149.177L183.029 153.182L181.574 153.156L181.705 145.658L183.1 145.682L183.085 146.552C183.106 146.502 183.131 146.463 183.162 146.433C183.202 146.394 183.238 146.359 183.269 146.33C183.778 145.789 184.428 145.525 185.218 145.539C186.137 145.555 186.886 145.908 187.464 146.598C187.749 146.943 187.961 147.347 188.103 147.81C188.246 148.262 188.312 148.763 188.302 149.313L188.233 153.273Z" fill="#9A94B8"/>
<rect x="1" y="223.053" width="229" height="42" rx="20" fill="#112540"/>
<g clip-path="url(#clip2_347_2237)">
<circle cx="22" cy="244.053" r="15" fill="#09AF8E"/>
<path d="M21.999 251.156C21.9115 251.154 21.8304 251.147 21.7556 251.134C21.6808 251.12 21.6061 251.101 21.5316 251.077C19.8536 250.515 18.5272 249.509 17.5524 248.056C16.5776 246.604 16.1047 245.051 16.1335 243.396L16.192 240.047C16.1971 239.752 16.2925 239.488 16.4781 239.255C16.6637 239.022 16.9009 238.855 17.1897 238.753L21.7169 237.237C21.8929 237.181 22.0684 237.155 22.2433 237.158C22.4183 237.161 22.5928 237.193 22.7667 237.255L27.2382 238.929C27.5238 239.04 27.7553 239.215 27.9326 239.455C28.11 239.694 28.1958 239.962 28.1902 240.257L28.1317 243.606C28.1028 245.26 27.576 246.795 26.5511 248.213C25.5262 249.631 24.1654 250.591 22.4689 251.093C22.3935 251.115 22.3182 251.132 22.243 251.142C22.1678 251.153 22.0865 251.157 21.999 251.156Z" fill="white"/>
</g>
<path d="M44.7451 240.008V243.893H46.9501C47.4801 243.893 47.9401 243.698 48.3301 243.308C48.7101 242.928 48.9001 242.473 48.9001 241.943C48.9001 241.423 48.7101 240.968 48.3301 240.578C47.9401 240.198 47.4801 240.008 46.9501 240.008H44.7451ZM43.3051 238.553H46.9501C47.8901 238.553 48.6901 238.883 49.3501 239.543C50.0101 240.203 50.3401 241.003 50.3401 241.943C50.3401 242.883 50.0101 243.683 49.3501 244.343C48.6901 245.013 47.8901 245.348 46.9501 245.348H44.7451V249.053H43.3051V238.553ZM51.6323 241.553H53.0273V242.633C53.0573 242.593 53.0923 242.553 53.1323 242.513C53.1723 242.463 53.2123 242.418 53.2523 242.378C53.5023 242.128 53.7823 241.918 54.0923 241.748C54.5723 241.498 55.1223 241.373 55.7423 241.373V242.828C55.0323 242.828 54.4273 243.053 53.9273 243.503C53.4173 243.963 53.1373 244.553 53.0873 245.273V249.053H51.6323V241.553ZM60.2065 242.828C59.5265 242.828 58.9715 243.063 58.5415 243.533C58.3315 243.773 58.1715 244.043 58.0615 244.343C57.9515 244.633 57.8965 244.953 57.8965 245.303C57.8965 245.993 58.1115 246.583 58.5415 247.073C58.9715 247.543 59.5265 247.778 60.2065 247.778C60.8865 247.778 61.4415 247.543 61.8715 247.073C62.0915 246.833 62.2515 246.568 62.3515 246.278C62.4615 245.978 62.5165 245.653 62.5165 245.303C62.5165 244.603 62.3015 244.013 61.8715 243.533C61.4415 243.063 60.8865 242.828 60.2065 242.828ZM60.2065 241.373C61.2765 241.373 62.1715 241.753 62.8915 242.513C63.6015 243.273 63.9565 244.203 63.9565 245.303C63.9565 246.393 63.6015 247.323 62.8915 248.093C62.1715 248.853 61.2765 249.233 60.2065 249.233C59.1365 249.233 58.2415 248.853 57.5215 248.093C56.8115 247.323 56.4565 246.393 56.4565 245.303C56.4565 244.203 56.8115 243.273 57.5215 242.513C58.2415 241.753 59.1365 241.373 60.2065 241.373ZM66.0151 239.213H67.4701V241.553H69.6301V242.993H67.4701V245.888C67.4701 246.368 67.6351 246.773 67.9651 247.103C68.2951 247.433 68.7001 247.598 69.1801 247.598H69.6151V249.053H69.1801C68.3101 249.053 67.5651 248.743 66.9451 248.123C66.3251 247.503 66.0151 246.758 66.0151 245.888V242.993H64.7551V241.553H66.0151V239.213ZM77.7936 245.903H72.1236C72.1836 246.173 72.2686 246.418 72.3786 246.638C72.4986 246.858 72.6536 247.053 72.8436 247.223C73.2636 247.593 73.7636 247.778 74.3436 247.778C75.1936 247.778 75.8586 247.538 76.3386 247.058L77.3586 248.093C76.5986 248.853 75.5936 249.233 74.3436 249.233C73.2636 249.233 72.3586 248.853 71.6286 248.093C70.8986 247.323 70.5336 246.393 70.5336 245.303C70.5336 244.203 70.8886 243.273 71.5986 242.513C72.3186 241.753 73.2136 241.373 74.2836 241.373C75.3336 241.373 76.1786 241.748 76.8186 242.498C77.4686 243.238 77.7936 244.173 77.7936 245.303V245.903ZM74.2686 242.768C73.6986 242.768 73.2136 242.953 72.8136 243.323C72.4336 243.673 72.1986 244.118 72.1086 244.658H76.2186C76.1286 244.098 75.9236 243.648 75.6036 243.308C75.2736 242.948 74.8286 242.768 74.2686 242.768ZM82.4868 241.373C83.5468 241.373 84.4368 241.753 85.1568 242.513L84.1518 243.548C83.7018 243.068 83.1468 242.828 82.4868 242.828C81.8068 242.828 81.2518 243.063 80.8218 243.533C80.3918 244.013 80.1768 244.603 80.1768 245.303C80.1768 245.993 80.3918 246.583 80.8218 247.073C81.2518 247.543 81.8068 247.778 82.4868 247.778C83.1468 247.778 83.7018 247.538 84.1518 247.058L85.1568 248.093C84.4368 248.853 83.5468 249.233 82.4868 249.233C81.4168 249.233 80.5218 248.853 79.8018 248.093C79.0918 247.323 78.7368 246.393 78.7368 245.303C78.7368 244.203 79.0918 243.273 79.8018 242.513C80.5218 241.753 81.4168 241.373 82.4868 241.373ZM87.0649 239.213H88.5199V241.553H90.6799V242.993H88.5199V245.888C88.5199 246.368 88.6849 246.773 89.0149 247.103C89.3449 247.433 89.7499 247.598 90.2299 247.598H90.6649V249.053H90.2299C89.3599 249.053 88.6149 248.743 87.9949 248.123C87.3749 247.503 87.0649 246.758 87.0649 245.888V242.993H85.8049V241.553H87.0649V239.213ZM92.1967 249.053V241.553H93.6367V249.053H92.1967ZM93.8317 239.108C93.8317 239.358 93.7467 239.568 93.5767 239.738C93.3967 239.918 93.1817 240.008 92.9317 240.008C92.6817 240.008 92.4717 239.918 92.3017 239.738C92.1217 239.568 92.0317 239.358 92.0317 239.108C92.0317 238.858 92.1217 238.643 92.3017 238.463C92.4717 238.293 92.6817 238.208 92.9317 238.208C93.1817 238.208 93.3967 238.293 93.5767 238.463C93.7467 238.643 93.8317 238.858 93.8317 239.108ZM99.0541 242.828C98.3741 242.828 97.8191 243.063 97.3891 243.533C97.1791 243.773 97.0191 244.043 96.9091 244.343C96.7991 244.633 96.7441 244.953 96.7441 245.303C96.7441 245.993 96.9591 246.583 97.3891 247.073C97.8191 247.543 98.3741 247.778 99.0541 247.778C99.7341 247.778 100.289 247.543 100.719 247.073C100.939 246.833 101.099 246.568 101.199 246.278C101.309 245.978 101.364 245.653 101.364 245.303C101.364 244.603 101.149 244.013 100.719 243.533C100.289 243.063 99.7341 242.828 99.0541 242.828ZM99.0541 241.373C100.124 241.373 101.019 241.753 101.739 242.513C102.449 243.273 102.804 244.203 102.804 245.303C102.804 246.393 102.449 247.323 101.739 248.093C101.019 248.853 100.124 249.233 99.0541 249.233C97.9841 249.233 97.0891 248.853 96.3691 248.093C95.6591 247.323 95.3041 246.393 95.3041 245.303C95.3041 244.203 95.6591 243.273 96.3691 242.513C97.0891 241.753 97.9841 241.373 99.0541 241.373ZM110.983 249.053H109.528V245.048C109.528 244.368 109.353 243.828 109.003 243.428C108.643 243.028 108.193 242.828 107.653 242.828C107.113 242.828 106.668 243.028 106.318 243.428C105.958 243.838 105.778 244.378 105.778 245.048V249.053H104.323V241.553H105.718V242.423C105.738 242.373 105.763 242.333 105.793 242.303C105.833 242.263 105.868 242.228 105.898 242.198C106.398 241.648 107.043 241.373 107.833 241.373C108.753 241.373 109.508 241.713 110.098 242.393C110.388 242.733 110.608 243.133 110.758 243.593C110.908 244.043 110.983 244.543 110.983 245.093V249.053ZM119.753 238.313H120.683V239.768H119.753C119.423 239.768 119.148 239.878 118.928 240.098C118.698 240.328 118.583 240.608 118.583 240.938V241.553H120.683V242.993H118.583V249.053H117.128V242.993H115.808V241.553H117.128V240.938C117.128 240.218 117.383 239.598 117.893 239.078C118.413 238.568 119.033 238.313 119.753 238.313ZM121.725 241.553H123.12V242.633C123.15 242.593 123.185 242.553 123.225 242.513C123.265 242.463 123.305 242.418 123.345 242.378C123.595 242.128 123.875 241.918 124.185 241.748C124.665 241.498 125.215 241.373 125.835 241.373V242.828C125.125 242.828 124.52 243.053 124.02 243.503C123.51 243.963 123.23 244.553 123.18 245.273V249.053H121.725V241.553ZM130.299 242.828C129.619 242.828 129.064 243.063 128.634 243.533C128.424 243.773 128.264 244.043 128.154 244.343C128.044 244.633 127.989 244.953 127.989 245.303C127.989 245.993 128.204 246.583 128.634 247.073C129.064 247.543 129.619 247.778 130.299 247.778C130.979 247.778 131.534 247.543 131.964 247.073C132.184 246.833 132.344 246.568 132.444 246.278C132.554 245.978 132.609 245.653 132.609 245.303C132.609 244.603 132.394 244.013 131.964 243.533C131.534 243.063 130.979 242.828 130.299 242.828ZM130.299 241.373C131.369 241.373 132.264 241.753 132.984 242.513C133.694 243.273 134.049 244.203 134.049 245.303C134.049 246.393 133.694 247.323 132.984 248.093C132.264 248.853 131.369 249.233 130.299 249.233C129.229 249.233 128.334 248.853 127.614 248.093C126.904 247.323 126.549 246.393 126.549 245.303C126.549 244.203 126.904 243.273 127.614 242.513C128.334 241.753 129.229 241.373 130.299 241.373ZM147.028 249.053H145.573V245.048C145.573 244.358 145.408 243.818 145.078 243.428C144.748 243.028 144.323 242.828 143.803 242.828C143.283 242.828 142.858 243.028 142.528 243.428C142.188 243.818 142.018 244.358 142.018 245.048V249.053H140.578V245.048C140.578 244.358 140.408 243.818 140.068 243.428C139.738 243.028 139.313 242.828 138.793 242.828C138.273 242.828 137.848 243.028 137.518 243.428C137.188 243.818 137.023 244.358 137.023 245.048V249.053H135.568V241.553H136.963V242.363C136.983 242.343 137.003 242.323 137.023 242.303C137.043 242.273 137.058 242.248 137.068 242.228C137.548 241.658 138.183 241.373 138.973 241.373C139.873 241.373 140.608 241.713 141.178 242.393C141.258 242.483 141.328 242.583 141.388 242.693C141.448 242.793 141.503 242.898 141.553 243.008C141.593 242.888 141.643 242.778 141.703 242.678C141.763 242.578 141.828 242.483 141.898 242.393C142.398 241.713 143.093 241.373 143.983 241.373C144.873 241.373 145.608 241.713 146.188 242.393C146.468 242.733 146.678 243.128 146.818 243.578C146.958 244.028 147.028 244.533 147.028 245.093V249.053ZM152.443 238.553H153.898V249.053H152.443V238.553ZM155.947 249.053V241.553H157.387V249.053H155.947ZM157.582 239.108C157.582 239.358 157.497 239.568 157.327 239.738C157.147 239.918 156.932 240.008 156.682 240.008C156.432 240.008 156.222 239.918 156.052 239.738C155.872 239.568 155.782 239.358 155.782 239.108C155.782 238.858 155.872 238.643 156.052 238.463C156.222 238.293 156.432 238.208 156.682 238.208C156.932 238.208 157.147 238.293 157.327 238.463C157.497 238.643 157.582 238.858 157.582 239.108ZM165.189 241.553H166.539V252.053H165.084V248.108C165.044 248.158 164.999 248.208 164.949 248.258C164.909 248.308 164.864 248.353 164.814 248.393C164.284 248.953 163.594 249.233 162.744 249.233C161.674 249.233 160.794 248.853 160.104 248.093C159.404 247.323 159.054 246.393 159.054 245.303C159.054 244.203 159.404 243.273 160.104 242.513C160.794 241.753 161.674 241.373 162.744 241.373C163.644 241.373 164.369 241.668 164.919 242.258C164.969 242.298 165.014 242.348 165.054 242.408C165.104 242.458 165.149 242.513 165.189 242.573V241.553ZM162.834 247.793C163.504 247.793 164.044 247.553 164.454 247.073C164.664 246.833 164.819 246.568 164.919 246.278C165.029 245.978 165.084 245.653 165.084 245.303C165.084 244.943 165.029 244.618 164.919 244.328C164.819 244.038 164.664 243.773 164.454 243.533C164.044 243.053 163.504 242.813 162.834 242.813C162.154 242.813 161.599 243.053 161.169 243.533C160.729 244.013 160.509 244.603 160.509 245.303C160.509 246.003 160.729 246.593 161.169 247.073C161.599 247.553 162.154 247.793 162.834 247.793ZM168.186 241.553H169.641V245.558C169.641 246.228 169.821 246.768 170.181 247.178C170.531 247.578 170.981 247.778 171.531 247.778C172.061 247.778 172.501 247.578 172.851 247.178C173.211 246.768 173.391 246.228 173.391 245.558V241.553H174.846V245.513C174.846 246.613 174.526 247.508 173.886 248.198C173.236 248.888 172.451 249.233 171.531 249.233C170.591 249.233 169.796 248.888 169.146 248.198C168.506 247.508 168.186 246.613 168.186 245.513V241.553ZM176.733 249.053V241.553H178.173V249.053H176.733ZM178.368 239.108C178.368 239.358 178.283 239.568 178.113 239.738C177.933 239.918 177.718 240.008 177.468 240.008C177.218 240.008 177.008 239.918 176.838 239.738C176.658 239.568 176.568 239.358 176.568 239.108C176.568 238.858 176.658 238.643 176.838 238.463C177.008 238.293 177.218 238.208 177.468 238.208C177.718 238.208 177.933 238.293 178.113 238.463C178.283 238.643 178.368 238.858 178.368 239.108ZM183.62 242.813C182.94 242.813 182.385 243.053 181.955 243.533C181.515 244.013 181.295 244.603 181.295 245.303C181.295 246.003 181.515 246.593 181.955 247.073C182.385 247.553 182.94 247.793 183.62 247.793C184.29 247.793 184.83 247.553 185.24 247.073C185.45 246.833 185.605 246.568 185.705 246.278C185.815 245.978 185.87 245.653 185.87 245.303C185.87 244.943 185.815 244.618 185.705 244.328C185.605 244.038 185.45 243.773 185.24 243.533C184.83 243.053 184.29 242.813 183.62 242.813ZM183.53 241.373C184.38 241.373 185.065 241.648 185.585 242.198C185.645 242.248 185.695 242.298 185.735 242.348C185.775 242.398 185.82 242.448 185.87 242.498V238.553H187.325V249.053H185.975V248.033C185.935 248.093 185.895 248.153 185.855 248.213C185.815 248.263 185.765 248.308 185.705 248.348C185.165 248.938 184.44 249.233 183.53 249.233C182.46 249.233 181.58 248.853 180.89 248.093C180.19 247.323 179.84 246.393 179.84 245.303C179.84 244.203 180.19 243.273 180.89 242.513C181.58 241.753 182.46 241.373 183.53 241.373ZM194.969 241.553H196.319V249.053H194.969V248.033C194.939 248.083 194.904 248.133 194.864 248.183C194.834 248.233 194.799 248.278 194.759 248.318C194.199 248.928 193.454 249.233 192.524 249.233C191.454 249.233 190.574 248.853 189.884 248.093C189.184 247.323 188.834 246.393 188.834 245.303C188.834 244.203 189.184 243.273 189.884 242.513C190.574 241.753 191.454 241.373 192.524 241.373C193.454 241.373 194.199 241.688 194.759 242.318C194.809 242.358 194.849 242.403 194.879 242.453C194.909 242.503 194.939 242.548 194.969 242.588V241.553ZM192.614 242.813C191.934 242.813 191.379 243.053 190.949 243.533C190.509 244.013 190.289 244.603 190.289 245.303C190.289 246.003 190.509 246.593 190.949 247.073C191.379 247.553 191.934 247.793 192.614 247.793C193.284 247.793 193.824 247.553 194.234 247.073C194.444 246.833 194.599 246.568 194.699 246.278C194.809 245.978 194.864 245.653 194.864 245.303C194.864 244.943 194.809 244.618 194.699 244.328C194.599 244.038 194.444 243.773 194.234 243.533C193.824 243.053 193.284 242.813 192.614 242.813ZM198.789 239.213H200.244V241.553H202.404V242.993H200.244V245.888C200.244 246.368 200.409 246.773 200.739 247.103C201.069 247.433 201.474 247.598 201.954 247.598H202.389V249.053H201.954C201.084 249.053 200.339 248.743 199.719 248.123C199.099 247.503 198.789 246.758 198.789 245.888V242.993H197.529V241.553H198.789V239.213ZM203.92 249.053V241.553H205.36V249.053H203.92ZM205.555 239.108C205.555 239.358 205.47 239.568 205.3 239.738C205.12 239.918 204.905 240.008 204.655 240.008C204.405 240.008 204.195 239.918 204.025 239.738C203.845 239.568 203.755 239.358 203.755 239.108C203.755 238.858 203.845 238.643 204.025 238.463C204.195 238.293 204.405 238.208 204.655 238.208C204.905 238.208 205.12 238.293 205.3 238.463C205.47 238.643 205.555 238.858 205.555 239.108ZM210.778 242.828C210.098 242.828 209.543 243.063 209.113 243.533C208.903 243.773 208.743 244.043 208.633 244.343C208.523 244.633 208.468 244.953 208.468 245.303C208.468 245.993 208.683 246.583 209.113 247.073C209.543 247.543 210.098 247.778 210.778 247.778C211.458 247.778 212.013 247.543 212.443 247.073C212.663 246.833 212.823 246.568 212.923 246.278C213.033 245.978 213.088 245.653 213.088 245.303C213.088 244.603 212.873 244.013 212.443 243.533C212.013 243.063 211.458 242.828 210.778 242.828ZM210.778 241.373C211.848 241.373 212.743 241.753 213.463 242.513C214.173 243.273 214.528 244.203 214.528 245.303C214.528 246.393 214.173 247.323 213.463 248.093C212.743 248.853 211.848 249.233 210.778 249.233C209.708 249.233 208.813 248.853 208.093 248.093C207.383 247.323 207.028 246.393 207.028 245.303C207.028 244.203 207.383 243.273 208.093 242.513C208.813 241.753 209.708 241.373 210.778 241.373ZM222.706 249.053H221.251V245.048C221.251 244.368 221.076 243.828 220.726 243.428C220.366 243.028 219.916 242.828 219.376 242.828C218.836 242.828 218.391 243.028 218.041 243.428C217.681 243.838 217.501 244.378 217.501 245.048V249.053H216.046V241.553H217.441V242.423C217.461 242.373 217.486 242.333 217.516 242.303C217.556 242.263 217.591 242.228 217.621 242.198C218.121 241.648 218.766 241.373 219.556 241.373C220.476 241.373 221.231 241.713 221.821 242.393C222.111 242.733 222.331 243.133 222.481 243.593C222.631 244.043 222.706 244.543 222.706 245.093V249.053Z" fill="white"/>
<rect x="240.682" y="222.901" width="129" height="42" rx="20" fill="#3C1B68"/>
<g clip-path="url(#clip3_347_2237)">
<circle cx="261.682" cy="243.901" r="15" fill="#8E3ECD"/>
<path d="M258.451 236.901C258.594 236.901 258.731 236.958 258.832 237.059C258.933 237.16 258.989 237.297 258.989 237.44V237.621C259.236 237.62 259.504 237.619 259.793 237.619H263.571C263.86 237.619 264.128 237.62 264.374 237.621V237.44C264.374 237.297 264.431 237.16 264.532 237.059C264.633 236.958 264.77 236.901 264.913 236.901C265.056 236.901 265.193 236.958 265.294 237.059C265.395 237.16 265.451 237.297 265.451 237.44V237.656C265.46 237.656 265.468 237.657 265.476 237.658C265.986 237.697 266.416 237.779 266.809 237.968C267.444 238.27 267.967 238.765 268.305 239.383C268.511 239.765 268.599 240.182 268.641 240.67C268.682 241.145 268.682 241.734 268.682 242.472V246.048C268.682 246.787 268.682 247.376 268.641 247.851C268.598 248.339 268.511 248.756 268.305 249.137C267.968 249.755 267.444 250.25 266.809 250.552C266.416 250.741 265.986 250.824 265.476 250.863C264.977 250.901 264.356 250.901 263.571 250.901H259.794C259.008 250.901 258.388 250.901 257.888 250.863C257.378 250.823 256.948 250.741 256.555 250.552C255.92 250.25 255.397 249.755 255.06 249.138C254.854 248.756 254.766 248.339 254.723 247.851C254.682 247.376 254.682 246.787 254.682 246.049V242.473C254.682 241.734 254.682 241.144 254.723 240.67C254.766 240.182 254.854 239.765 255.06 239.383C255.397 238.766 255.92 238.271 256.555 237.968C256.948 237.779 257.378 237.697 257.888 237.658L257.912 237.655V237.44C257.912 237.297 257.969 237.16 258.07 237.059C258.171 236.958 258.308 236.901 258.451 236.901ZM257.912 238.736C257.498 238.772 257.233 238.837 257.022 238.939C256.592 239.142 256.236 239.477 256.007 239.894C255.925 240.046 255.866 240.228 255.827 240.491H267.537C267.498 240.228 267.439 240.046 267.357 239.894C267.128 239.477 266.773 239.143 266.342 238.939C266.131 238.837 265.866 238.772 265.451 238.736V238.876C265.451 239.019 265.395 239.155 265.294 239.256C265.193 239.357 265.056 239.414 264.913 239.414C264.77 239.414 264.633 239.357 264.532 239.256C264.431 239.155 264.374 239.019 264.374 238.876V238.698C264.13 238.696 263.855 238.696 263.549 238.696H259.815C259.509 238.696 259.234 238.697 258.989 238.698V238.876C258.989 239.019 258.933 239.155 258.832 239.256C258.731 239.357 258.594 239.414 258.451 239.414C258.308 239.414 258.171 239.357 258.07 239.256C257.969 239.155 257.912 239.019 257.912 238.876V238.736Z" fill="white"/>
</g>
<path d="M285.117 238.401H286.557V248.901H285.117V240.291L283.437 241.701L282.507 240.591L285.117 238.401ZM293.305 239.061H294.76V241.401H296.92V242.841H294.76V245.736C294.76 246.216 294.925 246.621 295.255 246.951C295.585 247.281 295.99 247.446 296.47 247.446H296.905V248.901H296.47C295.6 248.901 294.855 248.591 294.235 247.971C293.615 247.351 293.305 246.606 293.305 245.736V242.841H292.045V241.401H293.305V239.061ZM301.573 242.676C300.893 242.676 300.338 242.911 299.908 243.381C299.698 243.621 299.538 243.891 299.428 244.191C299.318 244.481 299.263 244.801 299.263 245.151C299.263 245.841 299.478 246.431 299.908 246.921C300.338 247.391 300.893 247.626 301.573 247.626C302.253 247.626 302.808 247.391 303.238 246.921C303.458 246.681 303.618 246.416 303.718 246.126C303.828 245.826 303.883 245.501 303.883 245.151C303.883 244.451 303.668 243.861 303.238 243.381C302.808 242.911 302.253 242.676 301.573 242.676ZM301.573 241.221C302.643 241.221 303.538 241.601 304.258 242.361C304.968 243.121 305.323 244.051 305.323 245.151C305.323 246.241 304.968 247.171 304.258 247.941C303.538 248.701 302.643 249.081 301.573 249.081C300.503 249.081 299.608 248.701 298.888 247.941C298.178 247.171 297.823 246.241 297.823 245.151C297.823 244.051 298.178 243.121 298.888 242.361C299.608 241.601 300.503 241.221 301.573 241.221ZM313.474 243.801C314.064 243.801 314.554 243.601 314.944 243.201C315.344 242.811 315.544 242.326 315.544 241.746C315.544 241.156 315.344 240.666 314.944 240.276C314.554 239.876 314.064 239.676 313.474 239.676C312.894 239.676 312.409 239.876 312.019 240.276C311.619 240.666 311.419 241.156 311.419 241.746C311.419 242.326 311.619 242.811 312.019 243.201C312.409 243.601 312.894 243.801 313.474 243.801ZM313.309 248.901H311.629L313.954 245.076C313.814 245.116 313.669 245.146 313.519 245.166C313.379 245.176 313.244 245.176 313.114 245.166C312.254 245.106 311.524 244.761 310.924 244.131C310.284 243.481 309.964 242.686 309.964 241.746C309.964 241.266 310.049 240.816 310.219 240.396C310.389 239.966 310.649 239.586 310.999 239.256C311.679 238.566 312.504 238.221 313.474 238.221C314.454 238.221 315.284 238.566 315.964 239.256C316.654 239.926 316.999 240.756 316.999 241.746C316.999 242.376 316.844 242.956 316.534 243.486L313.309 248.901ZM322.385 239.676C322.155 239.676 321.935 239.706 321.725 239.766C321.525 239.816 321.335 239.901 321.155 240.021C320.985 240.131 320.825 240.266 320.675 240.426C320.535 240.576 320.41 240.746 320.3 240.936C320.2 241.136 320.11 241.341 320.03 241.551C319.96 241.761 319.9 241.981 319.85 242.211C319.8 242.441 319.76 242.676 319.73 242.916C319.7 243.146 319.685 243.391 319.685 243.651C319.685 243.901 319.7 244.146 319.73 244.386C319.76 244.626 319.8 244.861 319.85 245.091C319.9 245.321 319.96 245.541 320.03 245.751C320.11 245.961 320.2 246.166 320.3 246.366C320.41 246.556 320.535 246.726 320.675 246.876C320.825 247.026 320.985 247.161 321.155 247.281C321.515 247.511 321.925 247.626 322.385 247.626C322.625 247.626 322.845 247.601 323.045 247.551C323.255 247.491 323.445 247.401 323.615 247.281C323.795 247.161 323.955 247.026 324.095 246.876C324.245 246.726 324.37 246.556 324.47 246.366C324.58 246.166 324.675 245.961 324.755 245.751C324.835 245.541 324.9 245.321 324.95 245.091C325 244.861 325.035 244.626 325.055 244.386C325.075 244.146 325.085 243.901 325.085 243.651C325.085 243.391 325.075 243.146 325.055 242.916C325.035 242.676 325 242.441 324.95 242.211C324.9 241.981 324.835 241.761 324.755 241.551C324.675 241.341 324.58 241.136 324.47 240.936C324.37 240.746 324.245 240.576 324.095 240.426C323.955 240.266 323.795 240.131 323.615 240.021C323.265 239.791 322.855 239.676 322.385 239.676ZM322.385 238.221C323.185 238.221 323.89 238.451 324.5 238.911C324.89 239.181 325.22 239.511 325.49 239.901C325.77 240.281 325.995 240.721 326.165 241.221C326.285 241.601 326.375 241.996 326.435 242.406C326.505 242.806 326.54 243.221 326.54 243.651C326.54 244.081 326.505 244.501 326.435 244.911C326.375 245.311 326.285 245.701 326.165 246.081C325.995 246.581 325.77 247.026 325.49 247.416C325.22 247.796 324.89 248.121 324.5 248.391C323.89 248.851 323.185 249.081 322.385 249.081C321.585 249.081 320.88 248.851 320.27 248.391C319.89 248.121 319.56 247.796 319.28 247.416C319.01 247.026 318.795 246.581 318.635 246.081C318.505 245.701 318.405 245.311 318.335 244.911C318.275 244.501 318.245 244.081 318.245 243.651C318.245 243.221 318.275 242.806 318.335 242.406C318.405 241.996 318.505 241.601 318.635 241.221C318.795 240.721 319.01 240.281 319.28 239.901C319.56 239.511 319.89 239.181 320.27 238.911C320.88 238.451 321.585 238.221 322.385 238.221ZM335.133 242.661C334.453 242.661 333.898 242.901 333.468 243.381C333.028 243.861 332.808 244.451 332.808 245.151C332.808 245.851 333.028 246.441 333.468 246.921C333.898 247.401 334.453 247.641 335.133 247.641C335.803 247.641 336.343 247.401 336.753 246.921C336.963 246.681 337.118 246.416 337.218 246.126C337.328 245.826 337.383 245.501 337.383 245.151C337.383 244.791 337.328 244.466 337.218 244.176C337.118 243.886 336.963 243.621 336.753 243.381C336.343 242.901 335.803 242.661 335.133 242.661ZM335.043 241.221C335.893 241.221 336.578 241.496 337.098 242.046C337.158 242.096 337.208 242.146 337.248 242.196C337.288 242.246 337.333 242.296 337.383 242.346V238.401H338.838V248.901H337.488V247.881C337.448 247.941 337.408 248.001 337.368 248.061C337.328 248.111 337.278 248.156 337.218 248.196C336.678 248.786 335.953 249.081 335.043 249.081C333.973 249.081 333.093 248.701 332.403 247.941C331.703 247.171 331.353 246.241 331.353 245.151C331.353 244.051 331.703 243.121 332.403 242.361C333.093 241.601 333.973 241.221 335.043 241.221ZM346.483 241.401H347.833V248.901H346.483V247.881C346.453 247.931 346.418 247.981 346.378 248.031C346.348 248.081 346.313 248.126 346.273 248.166C345.713 248.776 344.968 249.081 344.038 249.081C342.968 249.081 342.088 248.701 341.398 247.941C340.698 247.171 340.348 246.241 340.348 245.151C340.348 244.051 340.698 243.121 341.398 242.361C342.088 241.601 342.968 241.221 344.038 241.221C344.968 241.221 345.713 241.536 346.273 242.166C346.323 242.206 346.363 242.251 346.393 242.301C346.423 242.351 346.453 242.396 346.483 242.436V241.401ZM344.128 242.661C343.448 242.661 342.893 242.901 342.463 243.381C342.023 243.861 341.803 244.451 341.803 245.151C341.803 245.851 342.023 246.441 342.463 246.921C342.893 247.401 343.448 247.641 344.128 247.641C344.798 247.641 345.338 247.401 345.748 246.921C345.958 246.681 346.113 246.416 346.213 246.126C346.323 245.826 346.378 245.501 346.378 245.151C346.378 244.791 346.323 244.466 346.213 244.176C346.113 243.886 345.958 243.621 345.748 243.381C345.338 242.901 344.798 242.661 344.128 242.661ZM348.745 241.401H350.335L352.72 247.011L355.105 241.401H356.665L353.005 250.086C352.875 250.386 352.71 250.656 352.51 250.896C352.31 251.146 352.065 251.361 351.775 251.541C351.215 251.901 350.605 252.081 349.945 252.081H349.285V250.641H349.945C350.335 250.641 350.685 250.541 350.995 250.341C351.305 250.151 351.535 249.876 351.685 249.516L351.955 248.871L348.745 241.401ZM362.47 242.691L361.105 243.171C361.045 242.991 360.92 242.841 360.73 242.721C360.53 242.611 360.305 242.556 360.055 242.556C359.725 242.556 359.47 242.641 359.29 242.811C359.11 242.981 359.02 243.186 359.02 243.426C359.03 243.726 359.265 243.961 359.725 244.131C359.835 244.161 359.945 244.196 360.055 244.236C360.165 244.266 360.28 244.296 360.4 244.326C361.12 244.506 361.665 244.771 362.035 245.121C362.505 245.551 362.74 246.081 362.74 246.711C362.74 247.431 362.46 248.016 361.9 248.466C361.39 248.876 360.755 249.081 359.995 249.081C359.375 249.081 358.835 248.936 358.375 248.646C357.905 248.366 357.56 247.976 357.34 247.476L358.705 246.981C358.945 247.481 359.365 247.731 359.965 247.731C360.355 247.731 360.67 247.626 360.91 247.416C361.15 247.206 361.27 246.956 361.27 246.666C361.26 246.336 360.995 246.071 360.475 245.871C360.365 245.811 360.25 245.761 360.13 245.721C360.01 245.681 359.875 245.641 359.725 245.601C359.405 245.531 359.11 245.426 358.84 245.286C358.58 245.146 358.355 244.986 358.165 244.806C357.765 244.446 357.565 243.981 357.565 243.411C357.565 242.761 357.805 242.231 358.285 241.821C358.755 241.421 359.34 241.221 360.04 241.221C360.65 241.221 361.165 241.351 361.585 241.611C361.995 241.871 362.29 242.231 362.47 242.691Z" fill="white"/>
</g>
<defs>
<clipPath id="clip0_347_2237">
<rect width="380" height="284" fill="white"/>
</clipPath>
<clipPath id="clip1_347_2237">
<rect width="16" height="16" fill="white" transform="translate(349 56)"/>
</clipPath>
<clipPath id="clip2_347_2237">
<rect width="30" height="30" fill="white" transform="translate(7 229.053)"/>
</clipPath>
<clipPath id="clip3_347_2237">
<rect width="30" height="30" fill="white" transform="translate(246.682 228.901)"/>
</clipPath>
</defs>
</svg>
