<svg width="240" height="250" viewBox="0 0 240 250" fill="none" xmlns="http://www.w3.org/2000/svg">
<path d="M33.5234 213.986C33.2343 208.471 37.471 203.766 42.9863 203.477L202.767 195.103C208.282 194.814 212.988 199.051 213.277 204.566L214.323 224.538C214.612 230.054 210.376 234.759 204.86 235.048L45.0797 243.422C39.5645 243.711 34.8591 239.474 34.5701 233.959L33.5234 213.986Z" fill="#1D1446"/>
<path opacity="0.4" d="M51.0991 221.794L51.882 221.753L51.7093 223.196L52.6839 223.145L52.5887 223.927L51.6141 223.978L51.473 225.107L52.5035 225.053L52.4083 225.835L51.3698 225.89L51.1924 227.397L50.4095 227.438L50.5948 225.93L49.5243 225.986L49.339 227.494L48.556 227.535L48.7334 226.028L47.8067 226.076L47.9019 225.294L48.8366 225.245L48.9777 224.117L48.043 224.166L48.1302 223.384L49.0729 223.334L49.2456 221.891L50.0285 221.85L49.8558 223.293L50.9263 223.237L51.0991 221.794ZM50.8232 224.02L49.7606 224.075L49.6195 225.204L50.682 225.149L50.8232 224.02ZM55.5819 218.611C56.2689 218.575 56.8716 218.764 57.39 219.177C57.9003 219.591 58.1727 220.126 58.207 220.781C58.215 220.933 58.203 221.086 58.171 221.239C58.1386 221.385 58.0824 221.536 58.0025 221.693C57.8426 222.006 57.598 222.307 57.2687 222.597C57.6488 222.817 57.9673 223.085 58.2241 223.4C58.4994 223.762 58.6482 224.154 58.6704 224.578C58.708 225.297 58.4722 225.918 57.9629 226.441C57.4532 226.957 56.8189 227.234 56.0599 227.274C55.5166 227.303 55.002 227.189 54.516 226.935C54.2772 226.811 54.0691 226.662 53.8917 226.487C53.7219 226.303 53.579 226.098 53.463 225.872L54.5208 225.42C54.583 225.537 54.6645 225.641 54.7654 225.732C54.8663 225.823 54.9863 225.896 55.1255 225.953C55.2651 226.018 55.4078 226.067 55.5537 226.099C55.6992 226.124 55.8478 226.132 55.9996 226.124C56.439 226.101 56.8076 225.949 57.1053 225.669C57.4031 225.389 57.5411 225.042 57.5193 224.626C57.4975 224.211 57.3198 223.876 56.986 223.621C56.6602 223.365 56.2815 223.249 55.8501 223.272L55.1191 223.31L55.0582 222.148L55.7892 222.109C56.1487 222.09 56.4546 221.966 56.707 221.737C56.9589 221.499 57.0756 221.205 57.0572 220.853C57.0388 220.502 56.8923 220.229 56.6178 220.035C56.3433 219.841 56.0183 219.754 55.6428 219.774C55.499 219.781 55.36 219.805 55.2259 219.844C55.0917 219.883 54.9706 219.941 54.8625 220.019C54.6371 220.151 54.4864 220.331 54.4102 220.559L53.3103 220.208C53.4551 219.76 53.74 219.389 54.1652 219.094C54.5904 218.799 55.0626 218.639 55.5819 218.611Z" fill="#9A94B8"/>
<g filter="url(#filter0_d_415_2292)">
<path d="M29.5701 182.986C29.8592 177.471 34.5645 173.234 40.0798 173.523L199.861 181.897C205.376 182.186 209.613 186.891 209.323 192.407L208.277 212.379C207.988 217.895 203.282 222.131 197.767 221.842L37.9864 213.469C32.4711 213.179 28.2344 208.474 28.5234 202.959L29.5701 182.986Z" fill="#1D1446"/>
<path opacity="0.4" d="M46.3738 192.596L47.1567 192.637L46.8341 194.054L47.8088 194.105L47.6323 194.873L46.6577 194.822L46.3993 195.93L47.4299 195.984L47.2535 196.752L46.2149 196.697L45.881 198.178L45.0981 198.137L45.44 196.657L44.3695 196.601L44.0275 198.081L43.2446 198.04L43.5785 196.559L42.6518 196.511L42.8282 195.743L43.763 195.792L44.0213 194.684L43.0866 194.635L43.255 193.867L44.1977 193.916L44.5203 192.499L45.3033 192.54L44.9807 193.957L46.0512 194.013L46.3738 192.596ZM45.8668 194.781L44.8042 194.725L44.5459 195.833L45.6084 195.889L45.8668 194.781ZM50.997 189.89C51.716 189.928 52.322 190.212 52.8149 190.743C53.3074 191.281 53.5348 191.91 53.4971 192.629C53.4628 193.284 53.1505 193.893 52.5603 194.454L49.6401 197.209L53.2831 197.4L53.2222 198.563L47.9374 198.286L47.9983 197.123L51.7244 193.666C52.1124 193.293 52.3158 192.928 52.3347 192.568C52.3569 192.145 52.2351 191.794 51.9693 191.515C51.7043 191.221 51.3681 191.063 50.9607 191.042C50.6012 191.023 50.2883 191.107 50.0222 191.293C49.8894 191.382 49.7755 191.493 49.6805 191.624C49.5934 191.755 49.5254 191.908 49.4762 192.082L48.3636 191.759C48.5384 191.175 48.8671 190.712 49.3497 190.369C49.8407 190.018 50.3898 189.859 50.997 189.89Z" fill="#9A94B8"/>
</g>
<g filter="url(#filter1_d_415_2292)">
<path d="M20 165C20 159.477 24.4772 155 30 155H210C215.523 155 220 159.477 220 165V185C220 190.523 215.523 195 210 195H30C24.4772 195 20 190.523 20 185V165Z" fill="#1D1446"/>
</g>
<path d="M38.2968 173.4H39.0808L38.8328 174.832H39.8088L39.6728 175.608H38.6968L38.4968 176.728H39.5288L39.3928 177.504H38.3528L38.0968 179H37.3128L37.5768 177.504H36.5048L36.2408 179H35.4568L35.7128 177.504H34.7848L34.9208 176.728H35.8568L36.0568 175.608H35.1208L35.2488 174.832H36.1928L36.4408 173.4H37.2248L36.9768 174.832H38.0488L38.2968 173.4ZM37.9048 175.608H36.8408L36.6408 176.728H37.7048L37.9048 175.608ZM42.58 170.6H43.732V179H42.58V172.112L41.236 173.24L40.492 172.352L42.58 170.6Z" fill="#9A94B8"/>
<path opacity="0.3" d="M163 175C163 171.686 165.686 169 169 169H197C200.314 169 203 171.686 203 175C203 178.314 200.314 181 197 181H169C165.686 181 163 178.314 163 175Z" fill="#9A94B8"/>
<g opacity="0.6">
<circle cx="180" cy="40" r="35" fill="#1D1446"/>
<circle cx="180" cy="40" r="34.5" stroke="#ACA9BB" stroke-opacity="0.08"/>
<g clip-path="url(#clip0_415_2292)">
<path d="M180 53C187.18 53 193 47.1797 193 40C193 32.8203 187.18 27 180 27C172.82 27 167 32.8203 167 40C167 47.1797 172.82 53 180 53Z" fill="#627EEA"/>
<path d="M180.405 30.25V37.4569L186.496 40.1787L180.405 30.25Z" fill="white" fill-opacity="0.602"/>
<path d="M180.405 30.25L174.312 40.1787L180.405 37.4569V30.25Z" fill="white"/>
<path d="M180.405 44.849V49.7459L186.5 41.313L180.405 44.849Z" fill="white" fill-opacity="0.602"/>
<path d="M180.405 49.7459V44.8482L174.312 41.313L180.405 49.7459Z" fill="white"/>
<path d="M180.405 43.7156L186.496 40.1787L180.405 37.4585V43.7156Z" fill="white" fill-opacity="0.2"/>
<path d="M174.312 40.1787L180.405 43.7156V37.4585L174.312 40.1787Z" fill="white" fill-opacity="0.602"/>
</g>
</g>
<g opacity="0.6">
<circle cx="60" cy="40" r="35" fill="#1D1446"/>
<circle cx="60" cy="40" r="34.5" stroke="#ACA9BB" stroke-opacity="0.08"/>
<g clip-path="url(#clip1_415_2292)">
<path d="M60 53C67.1797 53 73 47.1797 73 40C73 32.8203 67.1797 27 60 27C52.8203 27 47 32.8203 47 40C47 47.1797 52.8203 53 60 53Z" fill="#627EEA"/>
<path d="M60.4048 30.25V37.4569L66.4961 40.1787L60.4048 30.25Z" fill="white" fill-opacity="0.602"/>
<path d="M60.4046 30.25L54.3125 40.1787L60.4046 37.4569V30.25Z" fill="white"/>
<path d="M60.4048 44.849V49.7459L66.5002 41.313L60.4048 44.849Z" fill="white" fill-opacity="0.602"/>
<path d="M60.4046 49.7459V44.8482L54.3125 41.313L60.4046 49.7459Z" fill="white"/>
<path d="M60.4048 43.7156L66.4961 40.1787L60.4048 37.4585V43.7156Z" fill="white" fill-opacity="0.2"/>
<path d="M54.3125 40.1787L60.4046 43.7156V37.4585L54.3125 40.1787Z" fill="white" fill-opacity="0.602"/>
</g>
</g>
<circle cx="120" cy="40" r="40" fill="#1D1446"/>
<circle cx="120" cy="40" r="39.5" stroke="#ACA9BB" stroke-opacity="0.08"/>
<g clip-path="url(#clip2_415_2292)">
<path d="M120 58C129.941 58 138 49.9411 138 40C138 30.0589 129.941 22 120 22C110.059 22 102 30.0589 102 40C102 49.9411 110.059 58 120 58Z" fill="#627EEA"/>
<path d="M120.56 26.5V36.4787L128.994 40.2475L120.56 26.5Z" fill="white" fill-opacity="0.602"/>
<path d="M120.56 26.5L112.125 40.2475L120.56 36.4787V26.5Z" fill="white"/>
<path d="M120.56 46.714V53.4944L129 41.818L120.56 46.714Z" fill="white" fill-opacity="0.602"/>
<path d="M120.56 53.4944V46.7129L112.125 41.818L120.56 53.4944Z" fill="white"/>
<path d="M120.56 45.1447L128.994 40.2476L120.56 36.4811V45.1447Z" fill="white" fill-opacity="0.2"/>
<path d="M112.125 40.2476L120.56 45.1447V36.4811L112.125 40.2476Z" fill="white" fill-opacity="0.602"/>
</g>
<path d="M120.75 100C120.75 99.5858 120.414 99.25 120 99.25C119.586 99.25 119.25 99.5858 119.25 100L120.75 100ZM120 135L124.33 127.5L115.67 127.5L120 135ZM119.25 102.917C119.25 103.331 119.586 103.667 120 103.667C120.414 103.667 120.75 103.331 120.75 102.917L119.25 102.917ZM120.75 108.75C120.75 108.336 120.414 108 120 108C119.586 108 119.25 108.336 119.25 108.75L120.75 108.75ZM119.25 114.583C119.25 114.998 119.586 115.333 120 115.333C120.414 115.333 120.75 114.998 120.75 114.583L119.25 114.583ZM120.75 120.417C120.75 120.002 120.414 119.667 120 119.667C119.586 119.667 119.25 120.002 119.25 120.417L120.75 120.417ZM119.25 126.25C119.25 126.664 119.586 127 120 127C120.414 127 120.75 126.664 120.75 126.25L119.25 126.25ZM120.75 132.083C120.75 131.669 120.414 131.333 120 131.333C119.586 131.333 119.25 131.669 119.25 132.083L120.75 132.083ZM120 100L119.25 100L119.25 102.917L120 102.917L120.75 102.917L120.75 100L120 100ZM120 108.75L119.25 108.75L119.25 114.583L120 114.583L120.75 114.583L120.75 108.75L120 108.75ZM120 120.417L119.25 120.417L119.25 126.25L120 126.25L120.75 126.25L120.75 120.417L120 120.417ZM120.75 100C120.75 99.5858 120.414 99.25 120 99.25C119.586 99.25 119.25 99.5858 119.25 100L120.75 100ZM120 135L124.33 127.5L115.67 127.5L120 135ZM119.25 102.917C119.25 103.331 119.586 103.667 120 103.667C120.414 103.667 120.75 103.331 120.75 102.917L119.25 102.917ZM120.75 108.75C120.75 108.336 120.414 108 120 108C119.586 108 119.25 108.336 119.25 108.75L120.75 108.75ZM119.25 114.583C119.25 114.998 119.586 115.333 120 115.333C120.414 115.333 120.75 114.998 120.75 114.583L119.25 114.583ZM120.75 120.417C120.75 120.002 120.414 119.667 120 119.667C119.586 119.667 119.25 120.002 119.25 120.417L120.75 120.417ZM119.25 126.25C119.25 126.664 119.586 127 120 127C120.414 127 120.75 126.664 120.75 126.25L119.25 126.25ZM120.75 132.083C120.75 131.669 120.414 131.333 120 131.333C119.586 131.333 119.25 131.669 119.25 132.083L120.75 132.083ZM120 100L119.25 100L119.25 102.917L120 102.917L120.75 102.917L120.75 100L120 100ZM120 108.75L119.25 108.75L119.25 114.583L120 114.583L120.75 114.583L120.75 108.75L120 108.75ZM120 120.417L119.25 120.417L119.25 126.25L120 126.25L120.75 126.25L120.75 120.417L120 120.417Z" fill="#9A94B8"/>
<path d="M6.82963 209.294L8.99872 212.608L12.9534 212.83L9.63927 214.999L9.41782 218.953L7.24872 215.639L3.2941 215.418L6.60818 213.249L6.82963 209.294Z" fill="#FE9673"/>
<path d="M17.8296 231.294L19.9987 234.608L23.9534 234.83L20.6393 236.999L20.4178 240.953L18.2487 237.639L14.2941 237.418L17.6082 235.249L17.8296 231.294Z" fill="#FE9673"/>
<path d="M233.418 215.294L233.639 219.249L236.953 221.418L232.999 221.639L230.83 224.953L230.608 220.999L227.294 218.83L231.249 218.608L233.418 215.294Z" fill="#FE9673"/>
<path d="M233.418 191.294L233.639 195.249L236.953 197.418L232.999 197.639L230.83 200.953L230.608 196.999L227.294 194.83L231.249 194.608L233.418 191.294Z" fill="#FE9673"/>
<defs>
<filter id="filter0_d_415_2292" x="18.5095" y="168.509" width="200.828" height="68.3469" filterUnits="userSpaceOnUse" color-interpolation-filters="sRGB">
<feFlood flood-opacity="0" result="BackgroundImageFix"/>
<feColorMatrix in="SourceAlpha" type="matrix" values="0 0 0 0 0 0 0 0 0 0 0 0 0 0 0 0 0 0 127 0" result="hardAlpha"/>
<feOffset dy="5"/>
<feGaussianBlur stdDeviation="5"/>
<feComposite in2="hardAlpha" operator="out"/>
<feColorMatrix type="matrix" values="0 0 0 0 0.0582042 0 0 0 0 0.0296634 0 0 0 0 0.197341 0 0 0 0.5 0"/>
<feBlend mode="normal" in2="BackgroundImageFix" result="effect1_dropShadow_415_2292"/>
<feBlend mode="normal" in="SourceGraphic" in2="effect1_dropShadow_415_2292" result="shape"/>
</filter>
<filter id="filter1_d_415_2292" x="10" y="150" width="220" height="60" filterUnits="userSpaceOnUse" color-interpolation-filters="sRGB">
<feFlood flood-opacity="0" result="BackgroundImageFix"/>
<feColorMatrix in="SourceAlpha" type="matrix" values="0 0 0 0 0 0 0 0 0 0 0 0 0 0 0 0 0 0 127 0" result="hardAlpha"/>
<feOffset dy="5"/>
<feGaussianBlur stdDeviation="5"/>
<feComposite in2="hardAlpha" operator="out"/>
<feColorMatrix type="matrix" values="0 0 0 0 0.0582042 0 0 0 0 0.0296634 0 0 0 0 0.197341 0 0 0 0.5 0"/>
<feBlend mode="normal" in2="BackgroundImageFix" result="effect1_dropShadow_415_2292"/>
<feBlend mode="normal" in="SourceGraphic" in2="effect1_dropShadow_415_2292" result="shape"/>
</filter>
<clipPath id="clip0_415_2292">
<rect width="26" height="26" fill="white" transform="translate(167 27)"/>
</clipPath>
<clipPath id="clip1_415_2292">
<rect width="26" height="26" fill="white" transform="translate(47 27)"/>
</clipPath>
<clipPath id="clip2_415_2292">
<rect width="36" height="36" fill="white" transform="translate(102 22)"/>
</clipPath>
</defs>
</svg>
